<svg xmlns:xlink="http://www.w3.org/1999/xlink" width="432pt" height="288pt" viewBox="0 0 432 288" xmlns="http://www.w3.org/2000/svg" version="1.1">
 <defs>
  <style type="text/css">*{stroke-linejoin: round; stroke-linecap: butt}</style>
 </defs>
 <g>
   <g>
    <path d="M 124.308 256.32 L 151.092 256.32 L 151.092 196.349308 L 124.308 196.349308 z" style="fill: #1f77b4"/>
    <text x="124.308" y="256.32" fill="black" font-size="10" transform="translate(0, -5)">8.33</text>
   </g>
   <g>
    <path d="M 157.788 256.32 L 184.572 256.32 L 184.572 202.579803 L 157.788 202.579803 z" style="fill: #1f77b4"/>
    <text x="157.788" y="256.32" fill="black" font-size="10" transform="translate(0, -5)">7.46</text>
   </g>
   <g>
    <path d="M 191.268 256.32 L 218.052 256.32 L 218.052 191.753653 L 191.268 191.753653 z" style="fill: #1f77b4"/>
    <text x="191.268" y="256.32" fill="black" font-size="10" transform="translate(0, -5)">8.96</text>
   </g>
   <g>
    <path d="M 224.748 256.32 L 251.532 256.32 L 251.532 54.72 L 224.748 54.72 z" style="fill: #1f77b4"/>
    <text x="224.748" y="256.32" fill="black" font-size="10" transform="translate(0, -5)">27.99</text>
   </g>
   <g>
    <path d="M 258.228 256.32 L 285.012 256.32 L 285.012 196.836739 L 258.228 196.836739 z" style="fill: #1f77b4"/>
    <text x="258.228" y="256.32" fill="black" font-size="10" transform="translate(0, -5)">8.26</text>
   </g>
 </g>
</svg>