<?xml version="1.0" encoding="utf-8"?>
<svg xmlns:xlink="http://www.w3.org/1999/xlink" width="432pt" height="288pt" viewBox="0 0 432 288" xmlns="http://www.w3.org/2000/svg" version="1.1">
 <defs>
  <style type="text/css">*{stroke-linejoin: round; stroke-linecap: butt}</style>
 </defs>
 <g>
   <g>
    <path d="M 124.308 256.32 
L 151.092 256.32 
L 151.092 203.505916 
L 124.308 203.505916 
z
" style="fill: #1f77b4"/>
    <!-- (3, 7.73) -->
    <g transform="translate(175.792308 193.821234) scale(0.07 -0.07)">
     <defs>
      <path id="DejaVuSans-33" d="M 2597 2516 
Q 3050 2419 3304 2112 
Q 3559 1806 3559 1356 
Q 3559 666 3084 287 
Q 2609 -91 1734 -91 
Q 1441 -91 1130 -33 
Q 819 25 488 141 
L 488 750 
Q 750 597 1062 519 
Q 1375 441 1716 441 
Q 2309 441 2620 675 
Q 2931 909 2931 1356 
Q 2931 1769 2642 2001 
Q 2353 2234 1838 2234 
L 1294 2234 
L 1294 2753 
L 1863 2753 
Q 2328 2753 2575 2939 
Q 2822 3125 2822 3475 
Q 2822 3834 2567 4026 
Q 2313 4219 1838 4219 
Q 1578 4219 1281 4162 
Q 984 4106 628 3988 
L 628 4550 
Q 988 4650 1302 4700 
Q 1616 4750 1894 4750 
Q 2613 4750 3031 4423 
Q 3450 4097 3450 3541 
Q 3450 3153 3228 2886 
Q 3006 2619 2597 2516 
z
" transform="scale(0.015625)"/>
     </defs>
     <use xlink:href="#DejaVuSans-28"/>
     <use xlink:href="#DejaVuSans-33" x="39.013672"/>
     <use xlink:href="#DejaVuSans-2c" x="102.636719"/>
     <use xlink:href="#DejaVuSans-20" x="134.423828"/>
     <use xlink:href="#DejaVuSans-37" x="166.210938"/>
     <use xlink:href="#DejaVuSans-2e" x="229.833984"/>
     <use xlink:href="#DejaVuSans-37" x="261.621094"/>
     <use xlink:href="#DejaVuSans-33" x="325.244141"/>
     <use xlink:href="#DejaVuSans-29" x="388.867188"/>
    </g>
   </g>
   <g>
    <path d="M 157.788 256.32 
L 184.572 256.32 
L 184.572 196.966496 
L 157.788 196.966496 
z
" style="fill: #1f77b4"/>
    <!-- (4, 5.29) -->
    <g transform="translate(206.671364 213.57186) scale(0.07 -0.07)">
     <defs>
      <path id="DejaVuSans-39" d="M 703 97 
L 703 672 
Q 941 559 1184 500 
Q 1428 441 1663 441 
Q 2288 441 2617 861 
Q 2947 1281 2994 2138 
Q 2813 1869 2534 1725 
Q 2256 1581 1919 1581 
Q 1219 1581 811 2004 
Q 403 2428 403 3163 
Q 403 3881 828 4315 
Q 1253 4750 1959 4750 
Q 2769 4750 3195 4129 
Q 3622 3509 3622 2328 
Q 3622 1225 3098 567 
Q 2575 -91 1691 -91 
Q 1453 -91 1209 -44 
Q 966 3 703 97 
z
M 1959 2075 
Q 2384 2075 2632 2365 
Q 2881 2656 2881 3163 
Q 2881 3666 2632 3958 
Q 2384 4250 1959 4250 
Q 1534 4250 1286 3958 
Q 1038 3666 1038 3163 
Q 1038 2656 1286 2365 
Q 1534 2075 1959 2075 
z
" transform="scale(0.015625)"/>
     </defs>
     <use xlink:href="#DejaVuSans-28"/>
     <use xlink:href="#DejaVuSans-34" x="39.013672"/>
     <use xlink:href="#DejaVuSans-2c" x="102.636719"/>
     <use xlink:href="#DejaVuSans-20" x="134.423828"/>
     <use xlink:href="#DejaVuSans-35" x="166.210938"/>
     <use xlink:href="#DejaVuSans-2e" x="229.833984"/>
     <use xlink:href="#DejaVuSans-32" x="261.621094"/>
     <use xlink:href="#DejaVuSans-39" x="325.244141"/>
     <use xlink:href="#DejaVuSans-29" x="388.867188"/>
    </g>
   </g>
   <g>
    <path d="M 191.268 256.32 
L 218.052 256.32 
L 218.052 215.686616 
L 191.268 215.686616 
z
" style="fill: #1f77b4"/>
    <!-- (5, 26.26) -->
    <g transform="translate(240.445797 52.605244) scale(0.07 -0.07)">
     <use xlink:href="#DejaVuSans-28"/>
     <use xlink:href="#DejaVuSans-35" x="39.013672"/>
     <use xlink:href="#DejaVuSans-2c" x="102.636719"/>
     <use xlink:href="#DejaVuSans-20" x="134.423828"/>
     <use xlink:href="#DejaVuSans-32" x="166.210938"/>
     <use xlink:href="#DejaVuSans-36" x="229.833984"/>
     <use xlink:href="#DejaVuSans-2e" x="293.457031"/>
     <use xlink:href="#DejaVuSans-32" x="325.244141"/>
     <use xlink:href="#DejaVuSans-36" x="388.867188"/>
     <use xlink:href="#DejaVuSans-29" x="452.490234"/>
    </g>
   </g>
   <g>
    <path d="M 224.748 256.32 
L 251.532 256.32 
L 251.532 54.72 
L 224.748 54.72 
z
" style="fill: #1f77b4"/>
    <!-- (6, 6.72) -->
    <g transform="translate(273.903828 203.03029) scale(0.07 -0.07)">
     <use xlink:href="#DejaVuSans-28"/>
     <use xlink:href="#DejaVuSans-36" x="39.013672"/>
     <use xlink:href="#DejaVuSans-2c" x="102.636719"/>
     <use xlink:href="#DejaVuSans-20" x="134.423828"/>
     <use xlink:href="#DejaVuSans-36" x="166.210938"/>
     <use xlink:href="#DejaVuSans-2e" x="229.833984"/>
     <use xlink:href="#DejaVuSans-37" x="261.621094"/>
     <use xlink:href="#DejaVuSans-32" x="325.244141"/>
     <use xlink:href="#DejaVuSans-29" x="388.867188"/>
    </g>
   </g>
   <g>
    <path d="M 258.228 256.32 
L 285.012 256.32 
L 285.012 204.71064 
L 258.228 204.71064 
z
" style="fill: #1f77b4"/>
    <!-- (7, 5.42) -->
    <g transform="translate(307.410509 213.756905) scale(0.07 -0.07)">
     <use xlink:href="#DejaVuSans-28"/>
     <use xlink:href="#DejaVuSans-37" x="39.013672"/>
     <use xlink:href="#DejaVuSans-2c" x="102.636719"/>
     <use xlink:href="#DejaVuSans-20" x="134.423828"/>
     <use xlink:href="#DejaVuSans-35" x="166.210938"/>
     <use xlink:href="#DejaVuSans-2e" x="229.833984"/>
     <use xlink:href="#DejaVuSans-34" x="261.621094"/>
     <use xlink:href="#DejaVuSans-32" x="325.244141"/>
     <use xlink:href="#DejaVuSans-29" x="388.867188"/>
    </g>
   </g>
 </g>
</svg>