<?xml version="1.0" encoding="utf-8"?>
<svg xmlns:xlink="http://www.w3.org/1999/xlink" width="432pt" height="288pt" viewBox="0 0 432 288" xmlns="http://www.w3.org/2000/svg" version="1.1">
  <defs>
    <style type="text/css">*{stroke-linejoin: round; stroke-linecap: butt}</style>
    <path id="outlier" d="M 0 3 C 0.795609 3 1.55874 2.683901 2.12132 2.12132 C 2.683901 1.55874 3 0.795609 3 0 C 3 -0.795609 2.683901 -1.55874 2.12132 -2.12132 C 1.55874 -2.683901 0.795609 -3 0 -3 C -0.795609 -3 -1.55874 -2.683901 -2.12132 -2.12132 C -2.683901 -1.55874 -3 -0.795609 -3 0 C -3 0.795609 -2.683901 1.55874 -2.12132 2.12132 C -1.55874 2.683901 -0.795609 3 0 3 z" style="stroke: none;"/>
  </defs>
  <g>
    <path d="M 69.218182 190.572 L 81.9 181.828823 L 94.581818 179.977198 L 107.263636 172.650959 L 119.945455 187.764596 L 132.627273 157.548195 L 145.309091 156.973442 L 157.990909 157.259258 L 170.672727 131.093387 L 183.354545 161.796896 L 196.036364 156.264306 L 208.718182 160.215806 L 221.4 44.64 L 234.081818 191.076682 L 246.763636 172.575619 L 259.445455 246.24 L 272.127273 138.632557 L 284.809091 139.627293 L 297.490909 148.708089 L 310.172727 165.632734 L 322.854545 124.530999 L 335.536364 131.098425 L 348.218182 135.905406 L 360.9 149.590804 L 373.581818 150.385405" style="fill: none; stroke: #1f77b4; stroke-width: 1.5; stroke-linecap: square"/>
    <use xlink:href="#outlier" x="221.4" y="44.64" style="fill: red;"/>
    <use xlink:href="#outlier" x="259.445455" y="246.24" style="fill: red;"/>
  </g>
</svg>