<svg xmlns:xlink="http://www.w3.org/1999/xlink" width="432pt" height="288pt" viewBox="0 0 432 288" xmlns="http://www.w3.org/2000/svg" version="1.1">
 <defs>
  <style type="text/css">*{stroke-linejoin: round; stroke-linecap: butt}</style>
 </defs>
 <g id="figure_1">
  <g id="axes_1">
   <g id="PathCollection_1">
    <defs>
     <path id="ma9fe964727" d="M 0 3 
C 0.795609 3 1.55874 2.683901 2.12132 2.12132 
C 2.683901 1.55874 3 0.795609 3 0 
C 3 -0.795609 2.683901 -1.55874 2.12132 -2.12132 
C 1.55874 -2.683901 0.795609 -3 0 -3 
C -0.795609 -3 -1.55874 -2.683901 -2.12132 -2.12132 
C -2.683901 -1.55874 -3 -0.795609 -3 0 
C -3 0.795609 -2.683901 1.55874 -2.12132 2.12132 
C -1.55874 2.683901 -0.795609 3 0 3 
z
" style="stroke: #1f77b4; stroke-opacity: 0.8"/>
    </defs>
    <g clip-path="url(#p4e0bf4a079)">
     <use xlink:href="#ma9fe964727" x="69.218182" y="123.854894" style="fill: #1f77b4; fill-opacity: 0.8; stroke: #1f77b4; stroke-opacity: 0.8"/>
     <use xlink:href="#ma9fe964727" x="81.9" y="44.64" style="fill: red; fill-opacity: 0.8; stroke: red; stroke-opacity: 0.8"/>
     <use xlink:href="#ma9fe964727" x="94.581818" y="130.058422" style="fill: #1f77b4; fill-opacity: 0.8; stroke: #1f77b4; stroke-opacity: 0.8"/>
     <use xlink:href="#ma9fe964727" x="107.263636" y="140.942784" style="fill: #1f77b4; fill-opacity: 0.8; stroke: #1f77b4; stroke-opacity: 0.8"/>
     <use xlink:href="#ma9fe964727" x="119.945455" y="155.934954" style="fill: #1f77b4; fill-opacity: 0.8; stroke: #1f77b4; stroke-opacity: 0.8"/>
     <use xlink:href="#ma9fe964727" x="132.627273" y="155.312451" style="fill: #1f77b4; fill-opacity: 0.8; stroke: #1f77b4; stroke-opacity: 0.8"/>
     <use xlink:href="#ma9fe964727" x="145.309091" y="168.37599" style="fill: #1f77b4; fill-opacity: 0.8; stroke: #1f77b4; stroke-opacity: 0.8"/>
     <use xlink:href="#ma9fe964727" x="157.990909" y="175.946863" style="fill: #1f77b4; fill-opacity: 0.8; stroke: #1f77b4; stroke-opacity: 0.8"/>
     <use xlink:href="#ma9fe964727" x="170.672727" y="182.225828" style="fill: #1f77b4; fill-opacity: 0.8; stroke: #1f77b4; stroke-opacity: 0.8"/>
     <use xlink:href="#ma9fe964727" x="183.354545" y="246.24" style="fill: red; fill-opacity: 0.8; stroke: red; stroke-opacity: 0.8"/>
     <use xlink:href="#ma9fe964727" x="196.036364" y="183.359654" style="fill: #1f77b4; fill-opacity: 0.8; stroke: #1f77b4; stroke-opacity: 0.8"/>
     <use xlink:href="#ma9fe964727" x="208.718182" y="161.850061" style="fill: #1f77b4; fill-opacity: 0.8; stroke: #1f77b4; stroke-opacity: 0.8"/>
     <use xlink:href="#ma9fe964727" x="221.4" y="174.421872" style="fill: #1f77b4; fill-opacity: 0.8; stroke: #1f77b4; stroke-opacity: 0.8"/>
     <use xlink:href="#ma9fe964727" x="234.081818" y="174.608537" style="fill: #1f77b4; fill-opacity: 0.8; stroke: #1f77b4; stroke-opacity: 0.8"/>
     <use xlink:href="#ma9fe964727" x="246.763636" y="192.562139" style="fill: #1f77b4; fill-opacity: 0.8; stroke: #1f77b4; stroke-opacity: 0.8"/>
     <use xlink:href="#ma9fe964727" x="259.445455" y="194.134987" style="fill: #1f77b4; fill-opacity: 0.8; stroke: #1f77b4; stroke-opacity: 0.8"/>
     <use xlink:href="#ma9fe964727" x="272.127273" y="185.248513" style="fill: #1f77b4; fill-opacity: 0.8; stroke: #1f77b4; stroke-opacity: 0.8"/>
     <use xlink:href="#ma9fe964727" x="284.809091" y="187.355206" style="fill: #1f77b4; fill-opacity: 0.8; stroke: #1f77b4; stroke-opacity: 0.8"/>
     <use xlink:href="#ma9fe964727" x="297.490909" y="186.816054" style="fill: #1f77b4; fill-opacity: 0.8; stroke: #1f77b4; stroke-opacity: 0.8"/>
     <use xlink:href="#ma9fe964727" x="310.172727" y="195.564523" style="fill: #1f77b4; fill-opacity: 0.8; stroke: #1f77b4; stroke-opacity: 0.8"/>
     <use xlink:href="#ma9fe964727" x="322.854545" y="191.508374" style="fill: #1f77b4; fill-opacity: 0.8; stroke: #1f77b4; stroke-opacity: 0.8"/>
     <use xlink:href="#ma9fe964727" x="335.536364" y="212.256946" style="fill: #1f77b4; fill-opacity: 0.8; stroke: #1f77b4; stroke-opacity: 0.8"/>
     <use xlink:href="#ma9fe964727" x="348.218182" y="215.626521" style="fill: #1f77b4; fill-opacity: 0.8; stroke: #1f77b4; stroke-opacity: 0.8"/>
     <use xlink:href="#ma9fe964727" x="360.9" y="225.549281" style="fill: #1f77b4; fill-opacity: 0.8; stroke: #1f77b4; stroke-opacity: 0.8"/>
     <use xlink:href="#ma9fe964727" x="373.581818" y="216.473921" style="fill: #1f77b4; fill-opacity: 0.8; stroke: #1f77b4; stroke-opacity: 0.8"/>
    </g>
   </g>
   <g id="line2d_13">
    <path d="M 69.218182 123.854894 
L 81.9 44.64 
L 94.581818 130.058422 
L 107.263636 140.942784 
L 119.945455 155.934954 
L 132.627273 155.312451 
L 145.309091 168.37599 
L 157.990909 175.946863 
L 170.672727 182.225828 
L 183.354545 246.24 
L 196.036364 183.359654 
L 208.718182 161.850061 
L 221.4 174.421872 
L 234.081818 174.608537 
L 246.763636 192.562139 
L 259.445455 194.134987 
L 272.127273 185.248513 
L 284.809091 187.355206 
L 297.490909 186.816054 
L 310.172727 195.564523 
L 322.854545 191.508374 
L 335.536364 212.256946 
L 348.218182 215.626521 
L 360.9 225.549281 
L 373.581818 216.473921 
" clip-path="url(#p4e0bf4a079)" style="fill: none; stroke: #1f77b4; stroke-width: 1.5; stroke-linecap: square"/>
   </g>
  </g>
 </g>
 <defs>
  <clipPath id="p4e0bf4a079">
   <rect x="54" y="34.56" width="334.8" height="221.76"/>
  </clipPath>
 </defs>
</svg>