<?xml version="1.0" encoding="UTF-8" standalone="no"?>
<svg xmlns:xlink="http://www.w3.org/1999/xlink" width="432pt" height="288pt" viewBox="0 0 432 288" xmlns="http://www.w3.org/2000/svg" version="1.1">
  <defs>
    <style type="text/css">*{stroke-linejoin: round; stroke-linecap: butt}</style>
    <path id="outlier" d="M 0 3 C 0.795609 3 1.55874 2.683901 2.12132 2.12132 C 2.683901 1.55874 3 0.795609 3 0 C 3 -0.795609 2.683901 -1.55874 2.12132 -2.12132 C 1.55874 -2.683901 0.795609 -3 0 -3 C -0.795609 -3 -1.55874 -2.683901 -2.12132 -2.12132 C -2.683901 -1.55874 -3 -0.795609 -3 0 C -3 0.795609 -2.683901 1.55874 -2.12132 2.12132 C -1.55874 2.683901 -0.795609 3 0 3 z" style="stroke: #ff0000; stroke-opacity: 0.8"/>
  </defs>
  <g>
    <path d="M 69.218182 127.324686 L 81.9 117.803736 L 94.581818 44.64 L 107.263636 143.009997 L 119.945455 132.498208 L 132.627273 145.235074 L 145.309091 131.172284 L 157.990909 166.278249 L 170.672727 144.787218 L 183.354545 146.59818 L 196.036364 148.123511 L 208.718182 161.180985 L 221.4 152.23297 L 234.081818 246.24 L 246.763636 150.455246 L 259.445455 165.182264 L 272.127273 182.629803 L 284.809091 176.234727 L 297.490909 176.717529 L 310.172727 196.147168 L 322.854545 178.70819 L 335.536364 183.513468 L 348.218182 183.096147 L 360.9 177.492312 L 373.581818 175.668787" style="fill: none; stroke: #1f77b4; stroke-width: 1.5; stroke-linecap: square"/>
    <use xlink:href="#outlier" x="94.581818" y="44.64" style="fill: #ff0000; fill-opacity: 0.8; stroke: #ff0000; stroke-opacity: 0.8"/>
    <use xlink:href="#outlier" x="234.081818" y="246.24" style="fill: #ff0000; fill-opacity: 0.8; stroke: #ff0000; stroke-opacity: 0.8"/>
  </g>
</svg>