<svg xmlns:xlink="http://www.w3.org/1999/xlink" width="432pt" height="288pt" viewBox="0 0 432 288" xmlns="http://www.w3.org/2000/svg" version="1.1">
 <g>
   <rect x="55.3392" y="217.405293" width="10.7136" height="38.914707" style="fill: #ff0000"/>
   <rect x="68.7312" y="210.212238" width="10.7136" height="46.107762" style="fill: #1f77b4"/>
   <rect x="82.1232" y="199.778736" width="10.7136" height="56.541264" style="fill: #1f77b4"/>
   <rect x="95.5152" y="203.712078" width="10.7136" height="52.607922" style="fill: #1f77b4"/>
   <rect x="108.9072" y="54.72" width="10.7136" height="201.6" style="fill: #ff0000"/>
   <rect x="122.2992" y="210.244551" width="10.7136" height="46.075449" style="fill: #1f77b4"/>
   <rect x="135.6912" y="187.803878" width="10.7136" height="68.516122" style="fill: #1f77b4"/>
   <rect x="149.0832" y="189.397555" width="10.7136" height="66.922445" style="fill: #1f77b4"/>
   <rect x="162.4752" y="200.665895" width="10.7136" height="55.654105" style="fill: #1f77b4"/>
   <rect x="175.8672" y="193.534201" width="10.7136" height="62.785799" style="fill: #1f77b4"/>
   <rect x="189.2592" y="252.548649" width="10.7136" height="3.771351" style="fill: #1f77b4"/>
   <rect x="202.6512" y="187.214287" width="10.7136" height="69.105713" style="fill: #1f77b4"/>
   <rect x="216.0432" y="208.016106" width="10.7136" height="48.303894" style="fill: #1f77b4"/>
   <rect x="229.4352" y="190.552394" width="10.7136" height="65.767606" style="fill: #1f77b4"/>
   <rect x="242.8272" y="192.822757" width="10.7136" height="63.497243" style="fill: #1f77b4"/>
   <rect x="256.2192" y="210.081487" width="10.7136" height="46.238513" style="fill: #1f77b4"/>
   <rect x="269.6112" y="206.274862" width="10.7136" height="50.045138" style="fill: #1f77b4"/>
   <rect x="283.0032" y="204.317551" width="10.7136" height="52.002449" style="fill: #1f77b4"/>
   <rect x="296.3952" y="218.264915" width="10.7136" height="38.055085" style="fill: #1f77b4"/>
   <rect x="309.7872" y="189.965754" width="10.7136" height="66.354246" style="fill: #1f77b4"/>
   <rect x="323.1792" y="194.688213" width="10.7136" height="61.631787" style="fill: #1f77b4"/>
   <rect x="336.5712" y="199.702917" width="10.7136" height="56.617083" style="fill: #1f77b4"/>
   <rect x="349.9632" y="211.799077" width="10.7136" height="44.520923" style="fill: #1f77b4"/>
   <rect x="363.3552" y="184.337307" width="10.7136" height="71.982693" style="fill: #1f77b4"/>
   <rect x="376.7472" y="183.082912" width="10.7136" height="73.237088" style="fill: #1f77b4"/>
 </g>
</svg>