<?xml version="1.0" encoding="utf-8"?>
<svg xmlns:xlink="http://www.w3.org/1999/xlink" width="432pt" height="288pt" viewBox="0 0 432 288" xmlns="http://www.w3.org/2000/svg" version="1.1">
 <g>
   <rect x="55.3392" y="217.533845" width="10.7136" height="38.786155" style="fill: #1f77b4"/>
   <rect x="68.7312" y="252.742895" width="10.7136" height="3.577105" style="fill: red"/>
   <rect x="82.1232" y="216.621052" width="10.7136" height="39.698948" style="fill: #1f77b4"/>
   <rect x="95.5152" y="216.882773" width="10.7136" height="39.437227" style="fill: #1f77b4"/>
   <rect x="108.9072" y="205.685923" width="10.7136" height="50.634077" style="fill: #1f77b4"/>
   <rect x="122.2992" y="205.208164" width="10.7136" height="51.111836" style="fill: #1f77b4"/>
   <rect x="135.6912" y="214.934913" width="10.7136" height="41.385087" style="fill: #1f77b4"/>
   <rect x="149.0832" y="190.773911" width="10.7136" height="65.546089" style="fill: #1f77b4"/>
   <rect x="162.4752" y="206.968945" width="10.7136" height="49.351055" style="fill: #1f77b4"/>
   <rect x="175.8672" y="192.280207" width="10.7136" height="64.039793" style="fill: #1f77b4"/>
   <rect x="189.2592" y="205.788759" width="10.7136" height="50.531241" style="fill: #1f77b4"/>
   <rect x="202.6512" y="201.091826" width="10.7136" height="55.228174" style="fill: #1f77b4"/>
   <rect x="216.0432" y="190.562641" width="10.7136" height="65.757359" style="fill: #1f77b4"/>
   <rect x="229.4352" y="196.419526" width="10.7136" height="59.900474" style="fill: #1f77b4"/>
   <rect x="242.8272" y="185.968084" width="10.7136" height="70.351916" style="fill: #1f77b4"/>
   <rect x="256.2192" y="216.038125" width="10.7136" height="40.281875" style="fill: #1f77b4"/>
   <rect x="269.6112" y="187.805888" width="10.7136" height="68.514112" style="fill: #1f77b4"/>
   <rect x="283.0032" y="208.607217" width="10.7136" height="47.712783" style="fill: #1f77b4"/>
   <rect x="296.3952" y="192.847466" width="10.7136" height="63.472534" style="fill: #1f77b4"/>
   <rect x="309.7872" y="203.728379" width="10.7136" height="52.591621" style="fill: #1f77b4"/>
   <rect x="323.1792" y="219.65679" width="10.7136" height="36.66321" style="fill: #1f77b4"/>
   <rect x="336.5712" y="54.72" width="10.7136" height="201.6" style="fill: green"/>
   <rect x="349.9632" y="184.916924" width="10.7136" height="71.403076" style="fill: #1f77b4"/>
   <rect x="363.3552" y="217.483224" width="10.7136" height="38.836776" style="fill: #1f77b4"/>
   <rect x="376.7472" y="215.847043" width="10.7136" height="40.472957" style="fill: #1f77b4"/>
 </g>
</svg>