<svg xmlns:xlink="http://www.w3.org/1999/xlink" width="432pt" height="288pt" viewBox="0 0 432 288" xmlns="http://www.w3.org/2000/svg" version="1.1">
 <g>
   <rect x="55.3392" y="181.446991" width="10.7136" height="74.873009" style="fill: #1f77b4"/>
   <rect x="68.7312" y="186.651624" width="10.7136" height="69.668376" style="fill: #1f77b4"/>
   <rect x="82.1232" y="54.72" width="10.7136" height="201.6" style="fill: red"/> <!-- Min value -->
   <rect x="95.5152" y="209.805196" width="10.7136" height="46.514804" style="fill: #1f77b4"/>
   <rect x="108.9072" y="216.512277" width="10.7136" height="39.807723" style="fill: #1f77b4"/>
   <rect x="122.2992" y="183.94989" width="10.7136" height="72.37011" style="fill: #1f77b4"/>
   <rect x="135.6912" y="212.117091" width="10.7136" height="44.202909" style="fill: #1f77b4"/>
   <rect x="149.0832" y="201.763846" width="10.7136" height="54.556154" style="fill: #1f77b4"/>
   <rect x="162.4752" y="203.489879" width="10.7136" height="52.830121" style="fill: #1f77b4"/>
   <rect x="175.8672" y="183.10611" width="10.7136" height="73.21389" style="fill: #1f77b4"/>
   <rect x="189.2592" y="215.578236" width="10.7136" height="40.741764" style="fill: #1f77b4"/>
   <rect x="202.6512" y="198.535642" width="10.7136" height="57.784358" style="fill: #1f77b4"/>
   <rect x="216.0432" y="211.455136" width="10.7136" height="44.864864" style="fill: #1f77b4"/>
   <rect x="229.4352" y="198.514914" width="10.7136" height="57.805086" style="fill: #1f77b4"/>
   <rect x="242.8272" y="189.300834" width="10.7136" height="67.019166" style="fill: #1f77b4"/>
   <rect x="256.2192" y="252.462743" width="10.7136" height="3.857257" style="fill: green"/> <!-- Max value -->
   <rect x="269.6112" y="192.629295" width="10.7136" height="63.690705" style="fill: #1f77b4"/>
   <rect x="283.0032" y="192.014656" width="10.7136" height="64.305344" style="fill: #1f77b4"/>
   <rect x="296.3952" y="211.913274" width="10.7136" height="44.406726" style="fill: #1f77b4"/>
   <rect x="309.7872" y="198.988768" width="10.7136" height="57.331232" style="fill: #1f77b4"/>
   <rect x="323.1792" y="191.239991" width="10.7136" height="65.080009" style="fill: #1f77b4"/>
   <rect x="336.5712" y="186.374566" width="10.7136" height="69.945434" style="fill: #1f77b4"/>
   <rect x="349.9632" y="208.448282" width="10.7136" height="47.871718" style="fill: #1f77b4"/>
   <rect x="363.3552" y="199.230322" width="10.7136" height="56.089678" style="fill: #1f77b4"/>
   <rect x="376.7472" y="186.627114" width="10.7136" height="69.692886" style="fill: #1f77b4"/>
 </g>
</svg>