<?xml version="1.0" encoding="utf-8"?>
<svg xmlns:xlink="http://www.w3.org/1999/xlink" width="432pt" height="288pt" viewBox="0 0 432 288" xmlns="http://www.w3.org/2000/svg" version="1.1">
 <g>
   <rect x="55.3392" y="215.96414" width="10.7136" height="40.35586" style="fill: #ff0000"/>
   <rect x="68.7312" y="197.611082" width="10.7136" height="58.708918" style="fill: #1f77b4"/>
   <rect x="82.1232" y="203.046647" width="10.7136" height="53.273353" style="fill: #1f77b4"/>
   <rect x="95.5152" y="54.72" width="10.7136" height="201.6" style="fill: #00ff00"/>
   <rect x="108.9072" y="195.223052" width="10.7136" height="61.096948" style="fill: #1f77b4"/>
   <rect x="122.2992" y="187.701945" width="10.7136" height="68.618055" style="fill: #1f77b4"/>
   <rect x="135.6912" y="200.975294" width="10.7136" height="55.344706" style="fill: #1f77b4"/>
   <rect x="149.0832" y="218.45383" width="10.7136" height="37.86617" style="fill: #1f77b4"/>
   <rect x="162.4752" y="188.320485" width="10.7136" height="67.999515" style="fill: #1f77b4"/>
   <rect x="175.8672" y="212.693739" width="10.7136" height="43.626261" style="fill: #1f77b4"/>
   <rect x="189.2592" y="213.82852" width="10.7136" height="42.49148" style="fill: #1f77b4"/>
   <rect x="202.6512" y="195.243243" width="10.7136" height="61.076757" style="fill: #1f77b4"/>
   <rect x="216.0432" y="252.677652" width="10.7136" height="3.642348" style="fill: #1f77b4"/>
   <rect x="229.4352" y="209.422635" width="10.7136" height="46.897365" style="fill: #1f77b4"/>
   <rect x="242.8272" y="215.133238" width="10.7136" height="41.186762" style="fill: #1f77b4"/>
   <rect x="256.2192" y="198.484403" width="10.7136" height="57.835597" style="fill: #1f77b4"/>
   <rect x="269.6112" y="194.946348" width="10.7136" height="61.373652" style="fill: #1f77b4"/>
   <rect x="283.0032" y="193.608941" width="10.7136" height="62.711059" style="fill: #1f77b4"/>
   <rect x="296.3952" y="210.880966" width="10.7136" height="45.439034" style="fill: #1f77b4"/>
   <rect x="309.7872" y="185.877101" width="10.7136" height="70.442899" style="fill: #1f77b4"/>
   <rect x="323.1792" y="194.504649" width="10.7136" height="61.815351" style="fill: #1f77b4"/>
   <rect x="336.5712" y="209.501859" width="10.7136" height="46.818141" style="fill: #1f77b4"/>
   <rect x="349.9632" y="186.80901" width="10.7136" height="69.51101" style="fill: #1f77b4"/>
   <rect x="363.3552" y="185.630742" width="10.7136" height="70.689258" style="fill: #1f77b4"/>
   <rect x="376.7472" y="213.515289" width="10.7136" height="42.804711" style="fill: #1f77b4"/>
 </g>
</svg>