<?xml version="1.0" encoding="utf-8"?>
<svg xmlns:xlink="http://www.w3.org/1999/xlink" width="432pt" height="288pt" viewBox="0 0 432 288" xmlns="http://www.w3.org/2000/svg" version="1.1">
 <g>
   <rect x="55.3392" y="210.953914" width="10.7136" height="45.366086" style="fill: #ff0000"/>
   <rect x="68.7312" y="190.508138" width="10.7136" height="65.811862" style="fill: #1f77b4"/>
   <rect x="82.1232" y="203.872335" width="10.7136" height="52.447665" style="fill: #1f77b4"/>
   <rect x="95.5152" y="198.385169" width="10.7136" height="57.934831" style="fill: #1f77b4"/>
   <rect x="108.9072" y="209.776178" width="10.7136" height="46.543822" style="fill: #1f77b4"/>
   <rect x="122.2992" y="219.234113" width="10.7136" height="37.085887" style="fill: #1f77b4"/>
   <rect x="135.6912" y="54.72" width="10.7136" height="201.6" style="fill: #00ff00"/>
   <rect x="149.0832" y="197.1832" width="10.7136" height="59.1368" style="fill: #1f77b4"/>
   <rect x="162.4752" y="211.399158" width="10.7136" height="44.920842" style="fill: #1f77b4"/>
   <rect x="175.8672" y="210.765572" width="10.7136" height="45.554428" style="fill: #1f77b4"/>
   <rect x="189.2592" y="217.751142" width="10.7136" height="38.568858" style="fill: #1f77b4"/>
   <rect x="202.6512" y="216.050221" width="10.7136" height="40.269779" style="fill: #1f77b4"/>
   <rect x="216.0432" y="208.572446" width="10.7136" height="47.747554" style="fill: #1f77b4"/>
   <rect x="229.4352" y="184.79434" width="10.7136" height="71.52566" style="fill: #1f77b4"/>
   <rect x="242.8272" y="198.59499" width="10.7136" height="57.72501" style="fill: #1f77b4"/>
   <rect x="256.2192" y="202.239379" width="10.7136" height="54.080621" style="fill: #1f77b4"/>
   <rect x="269.6112" y="193.904081" width="10.7136" height="62.415919" style="fill: #1f77b4"/>
   <rect x="283.0032" y="209.513096" width="10.7136" height="46.806904" style="fill: #1f77b4"/>
   <rect x="296.3952" y="200.748626" width="10.7136" height="55.571374" style="fill: #1f77b4"/>
   <rect x="309.7872" y="200.225335" width="10.7136" height="56.094665" style="fill: #1f77b4"/>
   <rect x="323.1792" y="252.728566" width="10.7136" height="3.591434" style="fill: #1f77b4"/>
   <rect x="336.5712" y="204.085094" width="10.7136" height="52.234906" style="fill: #1f77b4"/>
   <rect x="349.9632" y="184.806713" width="10.7136" height="71.513287" style="fill: #1f77b4"/>
   <rect x="363.3552" y="201.895815" width="10.7136" height="54.424185" style="fill: #1f77b4"/>
   <rect x="376.7472" y="203.97672" width="10.7136" height="52.34328" style="fill: #1f77b4"/>
 </g>
</svg>