<?xml version="1.0" encoding="utf-8"?>
<svg width="432pt" height="288pt" viewBox="0 0 432 288" xmlns="http://www.w3.org/2000/svg" version="1.1">
  <rect x="55.3392" y="217.383796" width="10.7136" height="38.936204" style="fill: #ff0000"/>
  <rect x="68.7312" y="252.819249" width="10.7136" height="3.500751" style="fill: #1f77b4"/>
  <rect x="82.1232" y="189.312299" width="10.7136" height="66.007701" style="fill: #1f77b4"/>
  <rect x="95.5152" y="54.72" width="10.7136" height="201.6" style="fill: #00ff00"/>
  <rect x="108.9072" y="193.401607" width="10.7136" height="62.918393" style="fill: #1f77b4"/>
  <rect x="122.2992" y="203.897551" width="10.7136" height="52.422449" style="fill: #1f77b4"/>
  <rect x="135.6912" y="206.098938" width="10.7136" height="50.221062" style="fill: #1f77b4"/>
  <rect x="149.0832" y="203.450942" width="10.7136" height="52.869058" style="fill: #1f77b4"/>
  <rect x="162.4752" y="186.587997" width="10.7136" height="69.732003" style="fill: #1f77b4"/>
  <rect x="175.8672" y="200.708581" width="10.7136" height="55.611419" style="fill: #1f77b4"/>
  <rect x="189.2592" y="200.921376" width="10.7136" height="55.398624" style="fill: #1f77b4"/>
  <rect x="202.6512" y="213.950708" width="10.7136" height="42.369292" style="fill: #1f77b4"/>
  <rect x="216.0432" y="203.511387" width="10.7136" height="52.808613" style="fill: #1f77b4"/>
  <rect x="229.4352" y="193.614952" width="10.7136" height="62.705048" style="fill: #1f77b4"/>
  <rect x="242.8272" y="204.212021" width="10.7136" height="52.107979" style="fill: #1f77b4"/>
  <rect x="256.2192" y="190.990443" width="10.7136" height="65.329557" style="fill: #1f77b4"/>
  <rect x="269.6112" y="192.453047" width="10.7136" height="63.866953" style="fill: #1f77b4"/>
  <rect x="283.0032" y="210.703314" width="10.7136" height="45.616686" style="fill: #1f77b4"/>
  <rect x="296.3952" y="216.921453" width="10.7136" height="39.398547" style="fill: #1f77b4"/>
  <rect x="309.7872" y="204.989018" width="10.7136" height="51.330982" style="fill: #1f77b4"/>
  <rect x="323.1792" y="207.443827" width="10.7136" height="48.876173" style="fill: #1f77b4"/>
  <rect x="336.5712" y="199.428765" width="10.7136" height="56.891235" style="fill: #1f77b4"/>
  <rect x="349.9632" y="214.731601" width="10.7136" height="41.588399" style="fill: #1f77b4"/>
  <rect x="363.3552" y="194.579858" width="10.7136" height="61.740142" style="fill: #1f77b4"/>
  <rect x="376.7472" y="188.594672" width="10.7136" height="67.725328" style="fill: #1f77b4"/>
</svg>