<svg xmlns:xlink="http://www.w3.org/1999/xlink" width="432pt" height="288pt" viewBox="0 0 432 288" xmlns="http://www.w3.org/2000/svg" version="1.1">
 <g>
   <rect x="55.3392" y="183.236157" width="10.7136" height="73.083843" style="fill: red"/>
   <rect x="68.7312" y="197.736946" width="10.7136" height="58.583054" style="fill: #1f77b4"/>
   <rect x="82.1232" y="203.881079" width="10.7136" height="52.438921" style="fill: #1f77b4"/>
   <rect x="95.5152" y="252.595602" width="10.7136" height="3.724398" style="fill: green"/>
   <rect x="108.9072" y="195.894543" width="10.7136" height="60.425457" style="fill: #1f77b4"/>
   <rect x="122.2992" y="206.852576" width="10.7136" height="49.467424" style="fill: #1f77b4"/>
   <rect x="135.6912" y="205.864768" width="10.7136" height="50.455232" style="fill: #1f77b4"/>
   <rect x="149.0832" y="186.538518" width="10.7136" height="69.781482" style="fill: #1f77b4"/>
   <rect x="162.4752" y="185.042411" width="10.7136" height="71.277589" style="fill: #1f77b4"/>
   <rect x="175.8672" y="54.72" width="10.7136" height="201.6" style="fill: red"/>
   <rect x="189.2592" y="190.602674" width="10.7136" height="65.717326" style="fill: #1f77b4"/>
   <rect x="202.6512" y="187.027479" width="10.7136" height="69.292521" style="fill: #1f77b4"/>
   <rect x="216.0432" y="213.529122" width="10.7136" height="42.790878" style="fill: #1f77b4"/>
   <rect x="229.4352" y="213.040181" width="10.7136" height="43.279819" style="fill: #1f77b4"/>
   <rect x="242.8272" y="213.126099" width="10.7136" height="43.193901" style="fill: #1f77b4"/>
   <rect x="256.2192" y="215.247668" width="10.7136" height="41.072332" style="fill: #1f77b4"/>
   <rect x="269.6112" y="186.652025" width="10.7136" height="69.667975" style="fill: #1f77b4"/>
   <rect x="283.0032" y="210.587853" width="10.7136" height="45.732147" style="fill: #1f77b4"/>
   <rect x="296.3952" y="187.668225" width="10.7136" height="68.651775" style="fill: #1f77b4"/>
   <rect x="309.7872" y="192.737454" width="10.7136" height="63.582546" style="fill: #1f77b4"/>
   <rect x="323.1792" y="187.80731" width="10.7136" height="68.51269" style="fill: #1f77b4"/>
   <rect x="336.5712" y="199.657751" width="10.7136" height="56.662249" style="fill: #1f77b4"/>
   <rect x="349.9632" y="211.508649" width="10.7136" height="44.811351" style="fill: #1f77b4"/>
   <rect x="363.3552" y="187.356717" width="10.7136" height="68.963283" style="fill: #1f77b4"/>
   <rect x="376.7472" y="192.58885" width="10.7136" height="63.73115" style="fill: #1f77b4"/>
 </g>
</svg>