<?xml version="1.0" standalone="no"?>
<!DOCTYPE svg PUBLIC "-//W3C//DTD SVG 1.1//EN" "http://www.w3.org/Graphics/SVG/1.1/DTD/svg11.dtd">
<svg width="432pt" height="288pt" viewBox="0 0 432 288" xmlns="http://www.w3.org/2000/svg" version="1.1">
  <g>
    <rect x="55.3392" y="187.086143" width="10.7136" height="69.233857" style="fill: #ff0000;"/>
    <rect x="68.7312" y="210.182235" width="10.7136" height="46.137765" style="fill: #1f77b4;"/>
    <rect x="82.1232" y="173.057247" width="10.7136" height="83.262753" style="fill: #1f77b4;"/>
    <rect x="95.5152" y="176.888662" width="10.7136" height="79.431338" style="fill: #1f77b4;"/>
    <rect x="108.9072" y="184.637467" width="10.7136" height="71.682533" style="fill: #1f77b4;"/>
    <rect x="122.2992" y="252.127965" width="10.7136" height="4.192035" style="fill: #ff0000;"/>
    <rect x="135.6912" y="191.623363" width="10.7136" height="64.696637" style="fill: #1f77b4;"/>
    <rect x="149.0832" y="182.211226" width="10.7136" height="74.108774" style="fill: #1f77b4;"/>
    <rect x="162.4752" y="198.975552" width="10.7136" height="57.344448" style="fill: #1f77b4;"/>
    <rect x="175.8672" y="176.290477" width="10.7136" height="80.029523" style="fill: #1f77b4;"/>
    <rect x="189.2592" y="54.72" width="10.7136" height="201.6" style="fill: #1f77b4;"/>
    <rect x="202.6512" y="181.363558" width="10.7136" height="74.956442" style="fill: #1f77b4;"/>
    <rect x="216.0432" y="181.516237" width="10.7136" height="74.803763" style="fill: #1f77b4;"/>
    <rect x="229.4352" y="176.882375" width="10.7136" height="79.437625" style="fill: #1f77b4;"/>
    <rect x="242.8272" y="200.17652" width="10.7136" height="56.14348" style="fill: #1f77b4;"/>
    <rect x="256.2192" y="178.67157" width="10.7136" height="77.64843" style="fill: #1f77b4;"/>
    <rect x="269.6112" y="187.582269" width="10.7136" height="68.737731" style="fill: #1f77b4;"/>
    <rect x="283.0032" y="213.506903" width="10.7136" height="42.813097" style="fill: #1f77b4;"/>
    <rect x="296.3952" y="196.630401" width="10.7136" height="59.689599" style="fill: #1f77b4;"/>
    <rect x="309.7872" y="192.038442" width="10.7136" height="64.281558" style="fill: #1f77b4;"/>
    <rect x="323.1792" y="211.765477" width="10.7136" height="44.554523" style="fill: #1f77b4;"/>
    <rect x="336.5712" y="197.980376" width="10.7136" height="58.339624" style="fill: #1f77b4;"/>
    <rect x="349.9632" y="175.359495" width="10.7136" height="80.960505" style="fill: #1f77b4;"/>
    <rect x="363.3552" y="205.936265" width="10.7136" height="50.383735" style="fill: #1f77b4;"/>
    <rect x="376.7472" y="204.265056" width="10.7136" height="52.054944" style="fill: #1f77b4;"/>
  </g>
</svg>