<svg xmlns:xlink="http://www.w3.org/1999/xlink" width="432pt" height="288pt" viewBox="0 0 432 288" xmlns="http://www.w3.org/2000/svg" version="1.1">
 <g>
   <rect x="55.3392" y="200.647777" width="10.7136" height="55.672223" style="fill: #ff0000"/>
   <rect x="68.7312" y="208.789941" width="10.7136" height="47.530059" style="fill: #1f77b4"/>
   <rect x="82.1232" y="205.90279" width="10.7136" height="50.41721" style="fill: #1f77b4"/>
   <rect x="95.5152" y="172.536953" width="10.7136" height="83.783047" style="fill: #1f77b4"/>
   <rect x="108.9072" y="190.603307" width="10.7136" height="65.716693" style="fill: #1f77b4"/>
   <rect x="122.2992" y="194.271788" width="10.7136" height="62.048212" style="fill: #1f77b4"/>
   <rect x="135.6912" y="193.180761" width="10.7136" height="63.139239" style="fill: #1f77b4"/>
   <rect x="149.0832" y="193.90385" width="10.7136" height="62.41615" style="fill: #1f77b4"/>
   <rect x="162.4752" y="211.883204" width="10.7136" height="44.436796" style="fill: #1f77b4"/>
   <rect x="175.8672" y="210.67554" width="10.7136" height="45.64446" style="fill: #1f77b4"/>
   <rect x="189.2592" y="192.102639" width="10.7136" height="64.217361" style="fill: #1f77b4"/>
   <rect x="202.6512" y="211.569865" width="10.7136" height="44.750135" style="fill: #1f77b4"/>
   <rect x="216.0432" y="190.513926" width="10.7136" height="65.806074" style="fill: #1f77b4"/>
   <rect x="229.4352" y="213.391361" width="10.7136" height="42.928639" style="fill: #1f77b4"/>
   <rect x="242.8272" y="190.812817" width="10.7136" height="65.507183" style="fill: #1f77b4"/>
   <rect x="256.2192" y="252.124035" width="10.7136" height="4.195965" style="fill: #ff0000"/>
   <rect x="269.6112" y="185.949927" width="10.7136" height="70.370073" style="fill: #1f77b4"/>
   <rect x="283.0032" y="183.628431" width="10.7136" height="72.691569" style="fill: #1f77b4"/>
   <rect x="296.3952" y="179.333396" width="10.7136" height="76.986604" style="fill: #1f77b4"/>
   <rect x="309.7872" y="54.72" width="10.7136" height="201.6" style="fill: #1f77b4"/>
   <rect x="323.1792" y="182.648974" width="10.7136" height="73.671026" style="fill: #1f77b4"/>
   <rect x="336.5712" y="197.421683" width="10.7136" height="58.898317" style="fill: #1f77b4"/>
   <rect x="349.9632" y="205.090529" width="10.7136" height="51.229471" style="fill: #1f77b4"/>
   <rect x="363.3552" y="181.839523" width="10.7136" height="74.480477" style="fill: #1f77b4"/>
   <rect x="376.7472" y="196.649177" width="10.7136" height="59.670823" style="fill: #1f77b4"/>
 </g>
</svg>