<svg xmlns:xlink="http://www.w3.org/1999/xlink" width="432pt" height="288pt" viewBox="0 0 432 288" xmlns="http://www.w3.org/2000/svg" version="1.1">
 <g>
   <rect x="55.3392" y="209.390603" width="10.7136" height="46.929397" style="fill: #ff0000"/>
   <rect x="68.7312" y="184.29112" width="10.7136" height="71.02888" style="fill: #1f77b4"/>
   <rect x="82.1232" y="201.825876" width="10.7136" height="53.494124" style="fill: #1f77b4"/>
   <rect x="95.5152" y="180.644102" width="10.7136" height="74.675898" style="fill: #1f77b4"/>
   <rect x="108.9072" y="183.173652" width="10.7136" height="72.146348" style="fill: #1f77b4"/>
   <rect x="122.2992" y="208.893883" width="10.7136" height="46.426117" style="fill: #1f77b4"/>
   <rect x="135.6912" y="195.591039" width="10.7136" height="59.728961" style="fill: #1f77b4"/>
   <rect x="149.0832" y="197.692769" width="10.7136" height="57.627231" style="fill: #1f77b4"/>
   <rect x="162.4752" y="202.441147" width="10.7136" height="52.878853" style="fill: #1f77b4"/>
   <rect x="175.8672" y="214.825669" width="10.7136" height="40.494331" style="fill: #1f77b4"/>
   <rect x="189.2592" y="212.845386" width="10.7136" height="42.474614" style="fill: #1f77b4"/>
   <rect x="202.6512" y="190.901073" width="10.7136" height="64.418927" style="fill: #1f77b4"/>
   <rect x="216.0432" y="212.722878" width="10.7136" height="42.597122" style="fill: #1f77b4"/>
   <rect x="229.4352" y="187.499888" width="10.7136" height="67.820112" style="fill: #1f77b4"/>
   <rect x="242.8272" y="190.863245" width="10.7136" height="64.456755" style="fill: #1f77b4"/>
   <rect x="256.2192" y="205.646241" width="10.7136" height="49.673759" style="fill: #1f77b4"/>
   <rect x="269.6112" y="181.140624" width="10.7136" height="74.179376" style="fill: #1f77b4"/>
   <rect x="283.0032" y="188.512687" width="10.7136" height="66.807313" style="fill: #1f77b4"/>
   <rect x="296.3952" y="213.186078" width="10.7136" height="42.133922" style="fill: #1f77b4"/>
   <rect x="309.7872" y="206.695188" width="10.7136" height="48.624812" style="fill: #1f77b4"/>
   <rect x="323.1792" y="252.472757" width="10.7136" height="2.847243" style="fill: #1f77b4"/>
   <rect x="336.5712" y="180.535453" width="10.7136" height="74.784547" style="fill: #1f77b4"/>
   <rect x="349.9632" y="54.72" width="10.7136" height="200.6" style="fill: #00ff00"/>
   <rect x="363.3552" y="204.60439" width="10.7136" height="50.71561" style="fill: #1f77b4"/>
   <rect x="376.7472" y="189.641033" width="10.7136" height="65.678967" style="fill: #1f77b4"/>
 </g>
</svg>