<?xml version="1.0" encoding="utf-8"?>
<svg xmlns:xlink="http://www.w3.org/1999/xlink" width="432pt" height="288pt" viewBox="0 0 432 288" xmlns="http://www.w3.org/2000/svg" version="1.1">
 <g>
   <rect x="55.3392" y="211.675518" width="10.7136" height="44.644482" style="fill: #ff0000"/>
   <rect x="68.7312" y="199.665665" width="10.7136" height="56.654335" style="fill: #1f77b4"/>
   <rect x="82.1232" y="198.602003" width="10.7136" height="57.717997" style="fill: #1f77b4"/>
   <rect x="95.5152" y="204.052438" width="10.7136" height="52.267562" style="fill: #1f77b4"/>
   <rect x="108.9072" y="54.72" width="10.7136" height="201.6" style="fill: #00ff00"/>
   <rect x="122.2992" y="215.046329" width="10.7136" height="41.273671" style="fill: #1f77b4"/>
   <rect x="135.6912" y="213.734707" width="10.7136" height="42.585293" style="fill: #1f77b4"/>
   <rect x="149.0832" y="252.868304" width="10.7136" height="3.451696" style="fill: #1f77b4"/>
   <rect x="162.4752" y="193.079811" width="10.7136" height="63.240189" style="fill: #1f77b4"/>
   <rect x="175.8672" y="205.667976" width="10.7136" height="50.652024" style="fill: #1f77b4"/>
   <rect x="189.2592" y="195.529757" width="10.7136" height="60.790243" style="fill: #1f77b4"/>
   <rect x="202.6512" y="188.314701" width="10.7136" height="68.005299" style="fill: #1f77b4"/>
   <rect x="216.0432" y="193.516495" width="10.7136" height="62.803505" style="fill: #1f77b4"/>
   <rect x="229.4352" y="206.212994" width="10.7136" height="50.107006" style="fill: #1f77b4"/>
   <rect x="242.8272" y="199.630011" width="10.7136" height="56.689989" style="fill: #1f77b4"/>
   <rect x="256.2192" y="215.031183" width="10.7136" height="41.288817" style="fill: #1f77b4"/>
   <rect x="269.6112" y="210.412296" width="10.7136" height="45.907704" style="fill: #1f77b4"/>
   <rect x="283.0032" y="208.825204" width="10.7136" height="47.494796" style="fill: #1f77b4"/>
   <rect x="296.3952" y="188.34721" width="10.7136" height="68.97279" style="fill: #1f77b4"/>
   <rect x="309.7872" y="214.821172" width="10.7136" height="42.498828" style="fill: #1f77b4"/>
   <rect x="323.1792" y="219.323986" width="10.7136" height="37.996014" style="fill: #1f77b4"/>
   <rect x="336.5712" y="211.07936" width="10.7136" height="46.24064" style="fill: #1f77b4"/>
   <rect x="349.9632" y="221.789349" width="10.7136" height="35.530651" style="fill: #1f77b4"/>
   <rect x="363.3552" y="220.034289" width="10.7136" height="37.285711" style="fill: #1f77b4"/>
   <rect x="376.7472" y="200.536443" width="10.7136" height="56.783557" style="fill: #1f77b4"/>
 </g>
</svg>