<svg class="main-svg" xmlns="http://www.w3.org/2000/svg" xmlns:xlink="http://www.w3.org/1999/xlink" width="700" height="500" style="" viewBox="0 0 700 500"><rect x="0" y="0" width="700" height="500" style="fill: rgb(255, 255, 255); fill-opacity: 1;"/><defs id="defs-87e2a7"><g class="clips"><clipPath id="clip87e2a7xyplot" class="plotclip"><rect width="540" height="360"/></clipPath><clipPath class="axesclip" id="clip87e2a7x"><rect x="80" y="0" width="540" height="500"/></clipPath><clipPath class="axesclip" id="clip87e2a7y"><rect x="0" y="60" width="700" height="360"/></clipPath><clipPath class="axesclip" id="clip87e2a7xy"><rect x="80" y="60" width="540" height="360"/></clipPath></g><g class="gradients"/><g class="patterns"/></defs><g class="bglayer"><rect class="bg" x="80" y="60" width="540" height="360" style="fill: rgb(229, 236, 246); fill-opacity: 1; stroke-width: 0;"/></g><g class="layer-below"><g class="imagelayer"/><g class="shapelayer"/></g><g class="cartesianlayer"><g class="subplot xy"><g class="layer-subplot"><g class="shapelayer"/><g class="imagelayer"/></g><g class="minor-gridlayer"><g class="x"/><g class="y"/></g><g class="gridlayer"><g class="x"><path class="xgrid crisp" transform="translate(131.26,0)" d="M0,60v360" style="stroke: rgb(255, 255, 255); stroke-opacity: 1; stroke-width: 1px;"/><path class="xgrid crisp" transform="translate(275.22,0)" d="M0,60v360" style="stroke: rgb(255, 255, 255); stroke-opacity: 1; stroke-width: 1px;"/><path class="xgrid crisp" transform="translate(347.2,0)" d="M0,60v360" style="stroke: rgb(255, 255, 255); stroke-opacity: 1; stroke-width: 1px;"/><path class="xgrid crisp" transform="translate(419.18,0)" d="M0,60v360" style="stroke: rgb(255, 255, 255); stroke-opacity: 1; stroke-width: 1px;"/><path class="xgrid crisp" transform="translate(491.16,0)" d="M0,60v360" style="stroke: rgb(255, 255, 255); stroke-opacity: 1; stroke-width: 1px;"/><path class="xgrid crisp" transform="translate(563.14,0)" d="M0,60v360" style="stroke: rgb(255, 255, 255); stroke-opacity: 1; stroke-width: 1px;"/></g><g class="y"><path class="ygrid crisp" transform="translate(0,248.87)" d="M80,0h540" style="stroke: rgb(255, 255, 255); stroke-opacity: 1; stroke-width: 1px;"/><path class="ygrid crisp" transform="translate(0,163.26999999999998)" d="M80,0h540" style="stroke: rgb(255, 255, 255); stroke-opacity: 1; stroke-width: 1px;"/><path class="ygrid crisp" transform="translate(0,77.66)" d="M80,0h540" style="stroke: rgb(255, 255, 255); stroke-opacity: 1; stroke-width: 1px;"/></g></g><g class="zerolinelayer"><path class="xzl zl crisp" transform="translate(203.24,0)" d="M0,60v360" style="stroke: rgb(255, 255, 255); stroke-opacity: 1; stroke-width: 2px;"/><path class="yzl zl crisp" transform="translate(0,334.48)" d="M80,0h540" style="stroke: rgb(255, 255, 255); stroke-opacity: 1; stroke-width: 2px;"/></g><g class="layer-between"><g class="shapelayer"/><g class="imagelayer"/></g><path class="xlines-below"/><path class="ylines-below"/><g class="overlines-below"/><g class="xaxislayer-below"/><g class="yaxislayer-below"/><g class="overaxes-below"/><g class="plot" transform="translate(80,60)" clip-path="url(#clip87e2a7xyplot)"><g class="scatterlayer mlayer"><g class="trace scatter tracee53d30" style="stroke-miterlimit: 2; opacity: 1;"><g class="fills"/><g class="errorbars"/><g class="lines"/><g class="points"><path class="point" transform="translate(137.1,280.92)" d="M3,0A3,3 0 1,1 0,-3A3,3 0 0,1 3,0Z" style="opacity: 1; stroke-width: 0px; fill: rgb(99, 110, 250); fill-opacity: 1;"/><path class="point" transform="translate(148.23,286.37)" d="M3,0A3,3 0 1,1 0,-3A3,3 0 0,1 3,0Z" style="opacity: 1; stroke-width: 0px; fill: rgb(99, 110, 250); fill-opacity: 1;"/><path class="point" transform="translate(129.22,271.28)" d="M3,0A3,3 0 1,1 0,-3A3,3 0 0,1 3,0Z" style="opacity: 1; stroke-width: 0px; fill: rgb(99, 110, 250); fill-opacity: 1;"/><path class="point" transform="translate(130.56,291.8)" d="M3,0A3,3 0 1,1 0,-3A3,3 0 0,1 3,0Z" style="opacity: 1; stroke-width: 0px; fill: rgb(99, 110, 250); fill-opacity: 1;"/><path class="point" transform="translate(125.04,241.23)" d="M3,0A3,3 0 1,1 0,-3A3,3 0 0,1 3,0Z" style="opacity: 1; stroke-width: 0px; fill: rgb(99, 110, 250); fill-opacity: 1;"/><path class="point" transform="translate(127.75,269.58)" d="M3,0A3,3 0 1,1 0,-3A3,3 0 0,1 3,0Z" style="opacity: 1; stroke-width: 0px; fill: rgb(99, 110, 250); fill-opacity: 1;"/><path class="point" transform="translate(130.58,273.62)" d="M3,0A3,3 0 1,1 0,-3A3,3 0 0,1 3,0Z" style="opacity: 1; stroke-width: 0px; fill: rgb(99, 110, 250); fill-opacity: 1;"/><path class="point" transform="translate(113.51,261.88)" d="M3,0A3,3 0 1,1 0,-3A3,3 0 0,1 3,0Z" style="opacity: 1; stroke-width: 0px; fill: rgb(99, 110, 250); fill-opacity: 1;"/><path class="point" transform="translate(112.4,259.66)" d="M3,0A3,3 0 1,1 0,-3A3,3 0 0,1 3,0Z" style="opacity: 1; stroke-width: 0px; fill: rgb(99, 110, 250); fill-opacity: 1;"/><path class="point" transform="translate(105.39,257.43)" d="M3,0A3,3 0 1,1 0,-3A3,3 0 0,1 3,0Z" style="opacity: 1; stroke-width: 0px; fill: rgb(99, 110, 250); fill-opacity: 1;"/><path class="point" transform="translate(121.07,273.86)" d="M3,0A3,3 0 1,1 0,-3A3,3 0 0,1 3,0Z" style="opacity: 1; stroke-width: 0px; fill: rgb(99, 110, 250); fill-opacity: 1;"/><path class="point" transform="translate(101.56,290.52)" d="M3,0A3,3 0 1,1 0,-3A3,3 0 0,1 3,0Z" style="opacity: 1; stroke-width: 0px; fill: rgb(99, 110, 250); fill-opacity: 1;"/><path class="point" transform="translate(124.47,280.27)" d="M3,0A3,3 0 1,1 0,-3A3,3 0 0,1 3,0Z" style="opacity: 1; stroke-width: 0px; fill: rgb(99, 110, 250); fill-opacity: 1;"/><path class="point" transform="translate(147.17,277.52)" d="M3,0A3,3 0 1,1 0,-3A3,3 0 0,1 3,0Z" style="opacity: 1; stroke-width: 0px; fill: rgb(99, 110, 250); fill-opacity: 1;"/><path class="point" transform="translate(115.24,261.29)" d="M3,0A3,3 0 1,1 0,-3A3,3 0 0,1 3,0Z" style="opacity: 1; stroke-width: 0px; fill: rgb(99, 110, 250); fill-opacity: 1;"/><path class="point" transform="translate(138.86,284.05)" d="M3,0A3,3 0 1,1 0,-3A3,3 0 0,1 3,0Z" style="opacity: 1; stroke-width: 0px; fill: rgb(99, 110, 250); fill-opacity: 1;"/><path class="point" transform="translate(242.63,313.66)" d="M3,0A3,3 0 1,1 0,-3A3,3 0 0,1 3,0Z" style="opacity: 1; stroke-width: 0px; fill: rgb(99, 110, 250); fill-opacity: 1;"/><path class="point" transform="translate(243.92,284.53)" d="M3,0A3,3 0 1,1 0,-3A3,3 0 0,1 3,0Z" style="opacity: 1; stroke-width: 0px; fill: rgb(99, 110, 250); fill-opacity: 1;"/><path class="point" transform="translate(224.5,290.56)" d="M3,0A3,3 0 1,1 0,-3A3,3 0 0,1 3,0Z" style="opacity: 1; stroke-width: 0px; fill: rgb(99, 110, 250); fill-opacity: 1;"/><path class="point" transform="translate(200.98,272.02)" d="M3,0A3,3 0 1,1 0,-3A3,3 0 0,1 3,0Z" style="opacity: 1; stroke-width: 0px; fill: rgb(99, 110, 250); fill-opacity: 1;"/><path class="point" transform="translate(203.32,311.88)" d="M3,0A3,3 0 1,1 0,-3A3,3 0 0,1 3,0Z" style="opacity: 1; stroke-width: 0px; fill: rgb(99, 110, 250); fill-opacity: 1;"/><path class="point" transform="translate(227.25,323.09)" d="M3,0A3,3 0 1,1 0,-3A3,3 0 0,1 3,0Z" style="opacity: 1; stroke-width: 0px; fill: rgb(99, 110, 250); fill-opacity: 1;"/><path class="point" transform="translate(201.08,284.71)" d="M3,0A3,3 0 1,1 0,-3A3,3 0 0,1 3,0Z" style="opacity: 1; stroke-width: 0px; fill: rgb(99, 110, 250); fill-opacity: 1;"/><path class="point" transform="translate(211.3,264.79)" d="M3,0A3,3 0 1,1 0,-3A3,3 0 0,1 3,0Z" style="opacity: 1; stroke-width: 0px; fill: rgb(99, 110, 250); fill-opacity: 1;"/><path class="point" transform="translate(218.76,289.93)" d="M3,0A3,3 0 1,1 0,-3A3,3 0 0,1 3,0Z" style="opacity: 1; stroke-width: 0px; fill: rgb(99, 110, 250); fill-opacity: 1;"/><path class="point" transform="translate(209.5,287.16)" d="M3,0A3,3 0 1,1 0,-3A3,3 0 0,1 3,0Z" style="opacity: 1; stroke-width: 0px; fill: rgb(99, 110, 250); fill-opacity: 1;"/><path class="point" transform="translate(237.2,297.83)" d="M3,0A3,3 0 1,1 0,-3A3,3 0 0,1 3,0Z" style="opacity: 1; stroke-width: 0px; fill: rgb(99, 110, 250); fill-opacity: 1;"/><path class="point" transform="translate(228.25,298.41)" d="M3,0A3,3 0 1,1 0,-3A3,3 0 0,1 3,0Z" style="opacity: 1; stroke-width: 0px; fill: rgb(99, 110, 250); fill-opacity: 1;"/><path class="point" transform="translate(209.45,274.33)" d="M3,0A3,3 0 1,1 0,-3A3,3 0 0,1 3,0Z" style="opacity: 1; stroke-width: 0px; fill: rgb(99, 110, 250); fill-opacity: 1;"/><path class="point" transform="translate(238.09,276.27)" d="M3,0A3,3 0 1,1 0,-3A3,3 0 0,1 3,0Z" style="opacity: 1; stroke-width: 0px; fill: rgb(99, 110, 250); fill-opacity: 1;"/><path class="point" transform="translate(230.48,310.01)" d="M3,0A3,3 0 1,1 0,-3A3,3 0 0,1 3,0Z" style="opacity: 1; stroke-width: 0px; fill: rgb(99, 110, 250); fill-opacity: 1;"/><path class="point" transform="translate(198.77,318.76)" d="M3,0A3,3 0 1,1 0,-3A3,3 0 0,1 3,0Z" style="opacity: 1; stroke-width: 0px; fill: rgb(99, 110, 250); fill-opacity: 1;"/><path class="point" transform="translate(324.16,306.36)" d="M3,0A3,3 0 1,1 0,-3A3,3 0 0,1 3,0Z" style="opacity: 1; stroke-width: 0px; fill: rgb(99, 110, 250); fill-opacity: 1;"/><path class="point" transform="translate(349.17,338.11)" d="M3,0A3,3 0 1,1 0,-3A3,3 0 0,1 3,0Z" style="opacity: 1; stroke-width: 0px; fill: rgb(99, 110, 250); fill-opacity: 1;"/><path class="point" transform="translate(327.85,305.89)" d="M3,0A3,3 0 1,1 0,-3A3,3 0 0,1 3,0Z" style="opacity: 1; stroke-width: 0px; fill: rgb(99, 110, 250); fill-opacity: 1;"/><path class="point" transform="translate(338.17,329.27)" d="M3,0A3,3 0 1,1 0,-3A3,3 0 0,1 3,0Z" style="opacity: 1; stroke-width: 0px; fill: rgb(99, 110, 250); fill-opacity: 1;"/><path class="point" transform="translate(301.72,305.84)" d="M3,0A3,3 0 1,1 0,-3A3,3 0 0,1 3,0Z" style="opacity: 1; stroke-width: 0px; fill: rgb(99, 110, 250); fill-opacity: 1;"/><path class="point" transform="translate(310.06,308.07)" d="M3,0A3,3 0 1,1 0,-3A3,3 0 0,1 3,0Z" style="opacity: 1; stroke-width: 0px; fill: rgb(99, 110, 250); fill-opacity: 1;"/><path class="point" transform="translate(326.85,313.39)" d="M3,0A3,3 0 1,1 0,-3A3,3 0 0,1 3,0Z" style="opacity: 1; stroke-width: 0px; fill: rgb(99, 110, 250); fill-opacity: 1;"/><path class="point" transform="translate(330.15,324.04)" d="M3,0A3,3 0 1,1 0,-3A3,3 0 0,1 3,0Z" style="opacity: 1; stroke-width: 0px; fill: rgb(99, 110, 250); fill-opacity: 1;"/><path class="point" transform="translate(327.55,338.25)" d="M3,0A3,3 0 1,1 0,-3A3,3 0 0,1 3,0Z" style="opacity: 1; stroke-width: 0px; fill: rgb(99, 110, 250); fill-opacity: 1;"/><path class="point" transform="translate(325.57,313.03)" d="M3,0A3,3 0 1,1 0,-3A3,3 0 0,1 3,0Z" style="opacity: 1; stroke-width: 0px; fill: rgb(99, 110, 250); fill-opacity: 1;"/><path class="point" transform="translate(305.32,307.21)" d="M3,0A3,3 0 1,1 0,-3A3,3 0 0,1 3,0Z" style="opacity: 1; stroke-width: 0px; fill: rgb(99, 110, 250); fill-opacity: 1;"/><path class="point" transform="translate(287.08,307.68)" d="M3,0A3,3 0 1,1 0,-3A3,3 0 0,1 3,0Z" style="opacity: 1; stroke-width: 0px; fill: rgb(99, 110, 250); fill-opacity: 1;"/><path class="point" transform="translate(304.32,334.01)" d="M3,0A3,3 0 1,1 0,-3A3,3 0 0,1 3,0Z" style="opacity: 1; stroke-width: 0px; fill: rgb(99, 110, 250); fill-opacity: 1;"/><path class="point" transform="translate(320.04,285.58)" d="M3,0A3,3 0 1,1 0,-3A3,3 0 0,1 3,0Z" style="opacity: 1; stroke-width: 0px; fill: rgb(99, 110, 250); fill-opacity: 1;"/><path class="point" transform="translate(319.05,330.87)" d="M3,0A3,3 0 1,1 0,-3A3,3 0 0,1 3,0Z" style="opacity: 1; stroke-width: 0px; fill: rgb(99, 110, 250); fill-opacity: 1;"/><path class="point" transform="translate(334.71,335.29)" d="M3,0A3,3 0 1,1 0,-3A3,3 0 0,1 3,0Z" style="opacity: 1; stroke-width: 0px; fill: rgb(99, 110, 250); fill-opacity: 1;"/><path class="point" transform="translate(30.75,300.22)" d="M3,0A3,3 0 1,1 0,-3A3,3 0 0,1 3,0Z" style="opacity: 1; stroke-width: 0px; fill: rgb(99, 110, 250); fill-opacity: 1;"/><path class="point" transform="translate(509.25,21.75)" d="M3,0A3,3 0 1,1 0,-3A3,3 0 0,1 3,0Z" style="opacity: 1; stroke-width: 0px; fill: rgb(99, 110, 250); fill-opacity: 1;"/></g><g class="text"/></g></g></g><g class="overplot"/><path class="xlines-above crisp" d="M0,0" style="fill: none;"/><path class="ylines-above crisp" d="M0,0" style="fill: none;"/><g class="overlines-above"/><g class="xaxislayer-above"><g class="xtick"><text text-anchor="middle" x="0" y="433" transform="translate(131.26,0)" style="font-family: 'Open Sans', verdana, arial, sans-serif; font-size: 12px; fill: rgb(42, 63, 95); fill-opacity: 1; white-space: pre; opacity: 1;">−5</text></g><g class="xtick"><text text-anchor="middle" x="0" y="433" style="font-family: 'Open Sans', verdana, arial, sans-serif; font-size: 12px; fill: rgb(42, 63, 95); fill-opacity: 1; white-space: pre; opacity: 1;" transform="translate(203.24,0)">0</text></g><g class="xtick"><text text-anchor="middle" x="0" y="433" style="font-family: 'Open Sans', verdana, arial, sans-serif; font-size: 12px; fill: rgb(42, 63, 95); fill-opacity: 1; white-space: pre; opacity: 1;" transform="translate(275.22,0)">5</text></g><g class="xtick"><text text-anchor="middle" x="0" y="433" style="font-family: 'Open Sans', verdana, arial, sans-serif; font-size: 12px; fill: rgb(42, 63, 95); fill-opacity: 1; white-space: pre; opacity: 1;" transform="translate(347.2,0)">10</text></g><g class="xtick"><text text-anchor="middle" x="0" y="433" style="font-family: 'Open Sans', verdana, arial, sans-serif; font-size: 12px; fill: rgb(42, 63, 95); fill-opacity: 1; white-space: pre; opacity: 1;" transform="translate(419.18,0)">15</text></g><g class="xtick"><text text-anchor="middle" x="0" y="433" style="font-family: 'Open Sans', verdana, arial, sans-serif; font-size: 12px; fill: rgb(42, 63, 95); fill-opacity: 1; white-space: pre; opacity: 1;" transform="translate(491.16,0)">20</text></g><g class="xtick"><text text-anchor="middle" x="0" y="433" style="font-family: 'Open Sans', verdana, arial, sans-serif; font-size: 12px; fill: rgb(42, 63, 95); fill-opacity: 1; white-space: pre; opacity: 1;" transform="translate(563.14,0)">25</text></g></g><g class="yaxislayer-above"><g class="ytick"><text text-anchor="end" x="79" y="4.199999999999999" transform="translate(0,334.48)" style="font-family: 'Open Sans', verdana, arial, sans-serif; font-size: 12px; fill: rgb(42, 63, 95); fill-opacity: 1; white-space: pre; opacity: 1;">0</text></g><g class="ytick"><text text-anchor="end" x="79" y="4.199999999999999" style="font-family: 'Open Sans', verdana, arial, sans-serif; font-size: 12px; fill: rgb(42, 63, 95); fill-opacity: 1; white-space: pre; opacity: 1;" transform="translate(0,248.87)">5</text></g><g class="ytick"><text text-anchor="end" x="79" y="4.199999999999999" style="font-family: 'Open Sans', verdana, arial, sans-serif; font-size: 12px; fill: rgb(42, 63, 95); fill-opacity: 1; white-space: pre; opacity: 1;" transform="translate(0,163.26999999999998)">10</text></g><g class="ytick"><text text-anchor="end" x="79" y="4.199999999999999" style="font-family: 'Open Sans', verdana, arial, sans-serif; font-size: 12px; fill: rgb(42, 63, 95); fill-opacity: 1; white-space: pre; opacity: 1;" transform="translate(0,77.66)">15</text></g></g><g class="overaxes-above"/></g></g><g class="polarlayer"/><g class="smithlayer"/><g class="ternarylayer"/><g class="geolayer"/><g class="funnelarealayer"/><g class="pielayer"/><g class="iciclelayer"/><g class="treemaplayer"/><g class="sunburstlayer"/><g class="glimages"/><defs id="topdefs-87e2a7"><g class="clips"/></defs><g class="layer-above"><g class="imagelayer"/><g class="shapelayer"/></g><g class="infolayer"><g class="g-gtitle"/><g class="g-xtitle"><text class="xtitle" x="350" y="459.8" text-anchor="middle" style="font-family: 'Open Sans', verdana, arial, sans-serif; font-size: 14px; fill: rgb(42, 63, 95); opacity: 1; white-space: pre;">X</text></g><g class="g-ytitle"><text class="ytitle" transform="rotate(-90,44.334375,240)" x="44.334375" y="240" text-anchor="middle" style="font-family: 'Open Sans', verdana, arial, sans-serif; font-size: 14px; fill: rgb(42, 63, 95); opacity: 1; white-space: pre;">Y</text></g></g></svg>