<?xml version="1.0" encoding="utf-8"?>
<svg xmlns:xlink="http://www.w3.org/1999/xlink" width="432pt" height="288pt" viewBox="0 0 432 288" xmlns="http://www.w3.org/2000/svg" version="1.1">
 <defs>
  <style type="text/css">*{stroke-linejoin: round; stroke-linecap: butt}</style>
  <path id="medb5425903" d="M 0 3 
C 0.795609 3 1.55874 2.683901 2.12132 2.12132 
C 2.683901 1.55874 3 0.795609 3 0 
C 3 -0.795609 2.683901 -1.55874 2.12132 -2.12132 
C 1.55874 -2.683901 0.795609 -3 0 -3 
C -0.795609 -3 -1.55874 -2.683901 -2.12132 -2.12132 
C -2.683901 -1.55874 -3 -0.795609 -3 0 
C -3 0.795609 -2.683901 1.55874 -2.12132 2.12132 
C -1.55874 2.683901 -0.795609 3 0 3 
z"/>
 </defs>
 <g>
  <use xlink:href="#medb5425903" x="75.168151" y="96.002678" style="fill: #1f77b4;"/>
  <use xlink:href="#medb5425903" x="109.079025" y="172.659964" style="fill: #1f77b4;"/>
  <use xlink:href="#medb5425903" x="96.811387" y="44.64" style="fill: #1f77b4;"/>
  <use xlink:href="#medb5425903" x="89.25132" y="142.295974" style="fill: #1f77b4;"/>
  <use xlink:href="#medb5425903" x="81.268887" y="120.694003" style="fill: #1f77b4;"/>
  <use xlink:href="#medb5425903" x="100.775516" y="134.926568" style="fill: #1f77b4;"/>
  <use xlink:href="#medb5425903" x="122.763828" y="144.909634" style="fill: #1f77b4;"/>
  <use xlink:href="#medb5425903" x="116.801769" y="112.354224" style="fill: #1f77b4;"/>
  <use xlink:href="#medb5425903" x="99.081677" y="86.533763" style="fill: #1f77b4;"/>
  <use xlink:href="#medb5425903" x="107.74007" y="124.334292" style="fill: #1f77b4;"/>
  <use xlink:href="#medb5425903" x="98.860834" y="66.50088" style="fill: #1f77b4;"/>
  <use xlink:href="#medb5425903" x="89.796126" y="160.468292" style="fill: #1f77b4;"/>
  <use xlink:href="#medb5425903" x="111.123779" y="149.110414" style="fill: #1f77b4;"/>
  <use xlink:href="#medb5425903" x="87.474454" y="130.261279" style="fill: #1f77b4;"/>
  <use xlink:href="#medb5425903" x="99.462367" y="118.590497" style="fill: #1f77b4;"/>
  <use xlink:href="#medb5425903" x="69.218182" y="122.098839" style="fill: #1f77b4;"/>
  <use xlink:href="#medb5425903" x="199.270117" y="158.359709" style="fill: #1f77b4;"/>
  <use xlink:href="#medb5425903" x="175.958187" y="116.558501" style="fill: #1f77b4;"/>
  <use xlink:href="#medb5425903" x="195.516136" y="70.688297" style="fill: #1f77b4;"/>
  <use xlink:href="#medb5425903" x="176.672612" y="142.949878" style="fill: #1f77b4;"/>
  <use xlink:href="#medb5425903" x="200.793936" y="132.489303" style="fill: #1f77b4;"/>
  <use xlink:href="#medb5425903" x="176.764844" y="55.170842" style="fill: #1f77b4;"/>
  <use xlink:href="#medb5425903" x="190.121955" y="136.082645" style="fill: #1f77b4;"/>
  <use xlink:href="#medb5425903" x="193.286563" y="102.342818" style="fill: #1f77b4;"/>
  <use xlink:href="#medb5425903" x="182.372127" y="148.028177" style="fill: #1f77b4;"/>
  <use xlink:href="#medb5425903" x="212.817095" y="131.224129" style="fill: #1f77b4;"/>
  <use xlink:href="#medb5425903" x="174.21143" y="131.599846" style="fill: #1f77b4;"/>
  <use xlink:href="#medb5425903" x="174.144153" y="117.796449" style="fill: #1f77b4;"/>
  <use xlink:href="#medb5425903" x="171.102772" y="85.014375" style="fill: #1f77b4;"/>
  <use xlink:href="#medb5425903" x="181.748796" y="140.849284" style="fill: #1f77b4;"/>
  <use xlink:href="#medb5425903" x="205.484699" y="109.212973" style="fill: #1f77b4;"/>
  <use xlink:href="#medb5425903" x="175.253353" y="154.032529" style="fill: #1f77b4;"/>
  <use xlink:href="#medb5425903" x="260.821495" y="128.164304" style="fill: #1f77b4;"/>
  <use xlink:href="#medb5425903" x="256.241044" y="79.809128" style="fill: #1f77b4;"/>
  <use xlink:href="#medb5425903" x="264.731226" y="89.860172" style="fill: #1f77b4;"/>
  <use xlink:href="#medb5425903" x="293.896007" y="121.838213" style="fill: #1f77b4;"/>
  <use xlink:href="#medb5425903" x="276.109827" y="98.706623" style="fill: #1f77b4;"/>
  <use xlink:href="#medb5425903" x="268.681631" y="100.118232" style="fill: #1f77b4;"/>
  <use xlink:href="#medb5425903" x="278.784007" y="74.099647" style="fill: #1f77b4;"/>
  <use xlink:href="#medb5425903" x="286.973523" y="72.899222" style="fill: #1f77b4;"/>
  <use xlink:href="#medb5425903" x="330.992812" y="112.929538" style="fill: #1f77b4;"/>
  <use xlink:href="#medb5425903" x="286.866426" y="111.728238" style="fill: #1f77b4;"/>
  <use xlink:href="#medb5425903" x="285.848832" y="108.857055" style="fill: #1f77b4;"/>
  <use xlink:href="#medb5425903" x="287.054786" y="101.352407" style="fill: #1f77b4;"/>
  <use xlink:href="#medb5425903" x="333.627923" y="140.492998" style="fill: #1f77b4;"/>
  <use xlink:href="#medb5425903" x="265.362199" y="112.527911" style="fill: #1f77b4;"/>
  <use xlink:href="#medb5425903" x="290.40256" y="119.585697" style="fill: #1f77b4;"/>
  <use xlink:href="#medb5425903" x="286.827657" y="99.667585" style="fill: #1f77b4;"/>
  <use xlink:href="#medb5425903" x="373.581818" y="246.24" style="fill: red;"/>
  <use xlink:href="#medb5425903" x="110.026961" y="119.86287" style="fill: red;"/>
 </g>
</svg>