<?xml version="1.0" encoding="utf-8"?>
<svg xmlns:xlink="http://www.w3.org/1999/xlink" width="432pt" height="288pt" viewBox="0 0 432 288" xmlns="http://www.w3.org/2000/svg" version="1.1">
 <defs>
  <path id="m5183b164dd" d="M 0 3 
C 0.795609 3 1.55874 2.683901 2.12132 2.12132 
C 2.683901 1.55874 3 0.795609 3 0 
C 3 -0.795609 2.683901 -1.55874 2.12132 -2.12132 
C 1.55874 -2.683901 0.795609 -3 0 -3 
C -0.795609 -3 -1.55874 -2.683901 -2.12132 -2.12132 
C -2.683901 -1.55874 -3 -0.795609 -3 0 
C -3 0.795609 -2.683901 1.55874 -2.12132 2.12132 
C -1.55874 2.683901 -0.795609 3 0 3 
z"/>
 </defs>
 <g>
  <use xlink:href="#m5183b164dd" x="123.260049" y="112.568341" style="fill: #1f77b4;"/>
  <use xlink:href="#m5183b164dd" x="107.123072" y="149.805393" style="fill: #1f77b4;"/>
  <use xlink:href="#m5183b164dd" x="110.283815" y="120.171353" style="fill: #1f77b4;"/>
  <use xlink:href="#m5183b164dd" x="105.405324" y="109.941932" style="fill: #1f77b4;"/>
  <use xlink:href="#m5183b164dd" x="114.056584" y="112.707764" style="fill: #1f77b4;"/>
  <use xlink:href="#m5183b164dd" x="118.023565" y="112.118506" style="fill: #1f77b4;"/>
  <use xlink:href="#m5183b164dd" x="138.888242" y="99.129704" style="fill: #1f77b4;"/>
  <use xlink:href="#m5183b164dd" x="140.749209" y="96.561248" style="fill: #1f77b4;"/>
  <use xlink:href="#m5183b164dd" x="135.526628" y="61.31851" style="fill: #1f77b4;"/>
  <use xlink:href="#m5183b164dd" x="131.103358" y="127.712495" style="fill: #1f77b4;"/>
  <use xlink:href="#m5183b164dd" x="143.385107" y="104.170631" style="fill: #1f77b4;"/>
  <use xlink:href="#m5183b164dd" x="124.111709" y="129.244127" style="fill: #1f77b4;"/>
  <use xlink:href="#m5183b164dd" x="116.785537" y="113.6167" style="fill: #1f77b4;"/>
  <use xlink:href="#m5183b164dd" x="116.21512" y="99.483047" style="fill: #1f77b4;"/>
  <use xlink:href="#m5183b164dd" x="115.59466" y="113.731886" style="fill: #1f77b4;"/>
  <use xlink:href="#m5183b164dd" x="103.752361" y="117.251942" style="fill: #1f77b4;"/>
  <use xlink:href="#m5183b164dd" x="190.958527" y="141.285457" style="fill: #1f77b4;"/>
  <use xlink:href="#m5183b164dd" x="196.023285" y="93.629443" style="fill: #1f77b4;"/>
  <use xlink:href="#m5183b164dd" x="199.290714" y="105.523209" style="fill: #1f77b4;"/>
  <use xlink:href="#m5183b164dd" x="189.884194" y="100.564995" style="fill: #1f77b4;"/>
  <use xlink:href="#m5183b164dd" x="201.927918" y="91.209058" style="fill: #1f77b4;"/>
  <use xlink:href="#m5183b164dd" x="207.565504" y="124.186385" style="fill: #1f77b4;"/>
  <use xlink:href="#m5183b164dd" x="206.11185" y="70.573242" style="fill: #1f77b4;"/>
  <use xlink:href="#m5183b164dd" x="202.785674" y="104.692064" style="fill: #1f77b4;"/>
  <use xlink:href="#m5183b164dd" x="190.192417" y="117.498335" style="fill: #1f77b4;"/>
  <use xlink:href="#m5183b164dd" x="181.473098" y="103.793439" style="fill: #1f77b4;"/>
  <use xlink:href="#m5183b164dd" x="199.502927" y="100.744614" style="fill: #1f77b4;"/>
  <use xlink:href="#m5183b164dd" x="195.121302" y="114.121359" style="fill: #1f77b4;"/>
  <use xlink:href="#m5183b164dd" x="219.598412" y="95.337733" style="fill: #1f77b4;"/>
  <use xlink:href="#m5183b164dd" x="195.308685" y="97.803529" style="fill: #1f77b4;"/>
  <use xlink:href="#m5183b164dd" x="220.993985" y="85.104059" style="fill: #1f77b4;"/>
  <use xlink:href="#m5183b164dd" x="203.178936" y="113.780483" style="fill: #1f77b4;"/>
  <use xlink:href="#m5183b164dd" x="289.351814" y="139.228284" style="fill: #1f77b4;"/>
  <use xlink:href="#m5183b164dd" x="295.499423" y="99.747937" style="fill: #1f77b4;"/>
  <use xlink:href="#m5183b164dd" x="268.76853" y="69.429245" style="fill: #1f77b4;"/>
  <use xlink:href="#m5183b164dd" x="279.202369" y="50.613115" style="fill: #1f77b4;"/>
  <use xlink:href="#m5183b164dd" x="277.556847" y="111.177451" style="fill: #1f77b4;"/>
  <use xlink:href="#m5183b164dd" x="279.560503" y="90.936456" style="fill: #1f77b4;"/>
  <use xlink:href="#m5183b164dd" x="284.529478" y="108.728428" style="fill: #1f77b4;"/>
  <use xlink:href="#m5183b164dd" x="262.880204" y="96.706863" style="fill: #1f77b4;"/>
  <use xlink:href="#m5183b164dd" x="289.685746" y="86.172299" style="fill: #1f77b4;"/>
  <use xlink:href="#m5183b164dd" x="270.303529" y="92.260209" style="fill: #1f77b4;"/>
  <use xlink:href="#m5183b164dd" x="274.345043" y="79.705984" style="fill: #1f77b4;"/>
  <use xlink:href="#m5183b164dd" x="271.331606" y="115.505752" style="fill: #1f77b4;"/>
  <use xlink:href="#m5183b164dd" x="260.210391" y="140.114003" style="fill: #1f77b4;"/>
  <use xlink:href="#m5183b164dd" x="272.757464" y="128.797564" style="fill: #1f77b4;"/>
  <use xlink:href="#m5183b164dd" x="291.839194" y="44.64" style="fill: #1f77b4;"/>
  <use xlink:href="#m5183b164dd" x="273.014261" y="68.434733" style="fill: #1f77b4;"/>
  <use xlink:href="#m5183b164dd" x="373.581818" y="246.24" style="fill: red;"/>
  <use xlink:href="#m5183b164dd" x="69.218182" y="169.230515" style="fill: red;"/>
 </g>
</svg>