<?xml version="1.0" standalone="no"?>
<!DOCTYPE svg PUBLIC "-//W3C//DTD SVG 1.1//EN" "http://www.w3.org/Graphics/SVG/1.1/DTD/svg11.dtd">
<svg width="432pt" height="288pt" viewBox="0 0 432 288" xmlns="http://www.w3.org/2000/svg" version="1.1">
 <g>
  <circle cx="99.138462" cy="246.179132" r="3" style="fill: red;"/>
  <circle cx="83.253893" cy="134.324993" r="3" style="fill: #1f77b4;"/>
  <circle cx="94.002843" cy="160.495347" r="3" style="fill: #1f77b4;"/>
  <circle cx="105.11304" cy="204.686546" r="3" style="fill: #1f77b4;"/>
  <circle cx="91.944129" cy="208.235806" r="3" style="fill: #1f77b4;"/>
  <circle cx="103.201373" cy="137.338079" r="3" style="fill: #1f77b4;"/>
  <circle cx="92.143434" cy="208.534612" r="3" style="fill: #1f77b4;"/>
  <circle cx="108.536403" cy="154.815377" r="3" style="fill: #1f77b4;"/>
  <circle cx="88.089121" cy="197.403271" r="3" style="fill: #1f77b4;"/>
  <circle cx="69.218182" cy="211.845155" r="3" style="fill: #1f77b4;"/>
  <circle cx="84.729946" cy="185.123219" r="3" style="fill: #1f77b4;"/>
  <circle cx="107.471574" cy="194.454237" r="3" style="fill: #1f77b4;"/>
  <circle cx="90.57741" cy="233.718757" r="3" style="fill: #1f77b4;"/>
  <circle cx="76.967718" cy="197.768376" r="3" style="fill: #1f77b4;"/>
  <circle cx="73.76868" cy="175.683205" r="3" style="fill: #1f77b4;"/>
  <circle cx="90.99551" cy="225.350113" r="3" style="fill: #1f77b4;"/>
  <circle cx="176.475595" cy="246.24" r="3" style="fill: red;"/>
  <circle cx="161.350925" cy="211.618701" r="3" style="fill: #1f77b4;"/>
  <circle cx="182.433785" cy="109.591351" r="3" style="fill: #1f77b4;"/>
  <circle cx="170.710354" cy="86.117216" r="3" style="fill: #1f77b4;"/>
  <circle cx="170.894954" cy="131.100316" r="3" style="fill: #1f77b4;"/>
  <circle cx="170.068811" cy="152.291322" r="3" style="fill: #1f77b4;"/>
  <circle cx="196.633928" cy="165.640196" r="3" style="fill: #1f77b4;"/>
  <circle cx="181.942443" cy="165.304129" r="3" style="fill: #1f77b4;"/>
  <circle cx="175.72818" cy="180.822628" r="3" style="fill: #1f77b4;"/>
  <circle cx="159.002029" cy="176.785823" r="3" style="fill: #1f77b4;"/>
  <circle cx="193.685971" cy="117.397911" r="3" style="fill: #1f77b4;"/>
  <circle cx="163.547882" cy="159.028036" r="3" style="fill: #1f77b4;"/>
  <circle cx="173.233102" cy="173.778234" r="3" style="fill: #1f77b4;"/>
  <circle cx="175.887706" cy="138.655702" r="3" style="fill: #1f77b4;"/>
  <circle cx="163.933101" cy="151.23015" r="3" style="fill: #1f77b4;"/>
  <circle cx="145.090356" cy="153.578748" r="3" style="fill: #1f77b4;"/>
  <circle cx="253.96547" cy="125.146563" r="3" style="fill: #1f77b4;"/>
  <circle cx="240.983806" cy="127.292949" r="3" style="fill: #1f77b4;"/>
  <circle cx="241.669167" cy="44.64" r="3" style="fill: #1f77b4;"/>
  <circle cx="271.652635" cy="100.823542" r="3" style="fill: #1f77b4;"/>
  <circle cx="235.123963" cy="153.366024" r="3" style="fill: #1f77b4;"/>
  <circle cx="235.246189" cy="144.169645" r="3" style="fill: #1f77b4;"/>
  <circle cx="223.345279" cy="80.480405" r="3" style="fill: #1f77b4;"/>
  <circle cx="251.236478" cy="97.718084" r="3" style="fill: #1f77b4;"/>
  <circle cx="256.354045" cy="92.774866" r="3" style="fill: #1f77b4;"/>
  <circle cx="242.062347" cy="65.564825" r="3" style="fill: #1f77b4;"/>
  <circle cx="240.221101" cy="100.806641" r="3" style="fill: #1f77b4;"/>
  <circle cx="230.689706" cy="156.210681" r="3" style="fill: #1f77b4;"/>
  <circle cx="251.453277" cy="96.422748" r="3" style="fill: #1f77b4;"/>
  <circle cx="239.095987" cy="125.662545" r="3" style="fill: #1f77b4;"/>
  <circle cx="265.184171" cy="89.702366" r="3" style="fill: #1f77b4;"/>
  <circle cx="231.292566" cy="97.033484" r="3" style="fill: #1f77b4;"/>
  <circle cx="373.581818" cy="131.189397" r="3" style="fill: #1f77b4;"/>
  <circle cx="160.325122" cy="176.872392" r="3" style="fill: #1f77b4;"/>
 </g>
</svg>