<?xml version="1.0" encoding="utf-8"?>
<svg xmlns:xlink="http://www.w3.org/1999/xlink" width="432pt" height="288pt" viewBox="0 0 432 288" xmlns="http://www.w3.org/2000/svg" version="1.1">
 <defs>
  <path id="m6997809a1a" d="M 0 3 
C 0.795609 3 1.55874 2.683901 2.12132 2.12132 
C 2.683901 1.55874 3 0.795609 3 0 
C 3 -0.795609 2.683901 -1.55874 2.12132 -2.12132 
C 1.55874 -2.683901 0.795609 -3 0 -3 
C -0.795609 -3 -1.55874 -2.683901 -2.12132 -2.12132 
C -2.683901 -1.55874 -3 -0.795609 -3 0 
C -3 0.795609 -2.683901 1.55874 -2.12132 2.12132 
C -1.55874 2.683901 -0.795609 3 0 3 
z"/>
 </defs>
 <g>
  <use xlink:href="#m6997809a1a" x="161.417324" y="212.215254" style="fill: #1f77b4;"/>
  <use xlink:href="#m6997809a1a" x="159.185741" y="223.715225" style="fill: #1f77b4;"/>
  <use xlink:href="#m6997809a1a" x="151.663605" y="203.305189" style="fill: #1f77b4;"/>
  <use xlink:href="#m6997809a1a" x="161.487429" y="208.412164" style="fill: #1f77b4;"/>
  <use xlink:href="#m6997809a1a" x="180.546271" y="224.232572" style="fill: #1f77b4;"/>
  <use xlink:href="#m6997809a1a" x="171.752583" y="206.660866" style="fill: #1f77b4;"/>
  <use xlink:href="#m6997809a1a" x="149.389371" y="196.398645" style="fill: #1f77b4;"/>
  <use xlink:href="#m6997809a1a" x="133.07151" y="222.605198" style="fill: #1f77b4;"/>
  <use xlink:href="#m6997809a1a" x="158.272408" y="208.674851" style="fill: #1f77b4;"/>
  <use xlink:href="#m6997809a1a" x="146.606653" y="223.986683" style="fill: #1f77b4;"/>
  <use xlink:href="#m6997809a1a" x="162.29793" y="218.282919" style="fill: #1f77b4;"/>
  <use xlink:href="#m6997809a1a" x="164.233187" y="187.997713" style="fill: #1f77b4;"/>
  <use xlink:href="#m6997809a1a" x="160.150793" y="228.681295" style="fill: #1f77b4;"/>
  <use xlink:href="#m6997809a1a" x="149.993602" y="209.856425" style="fill: #1f77b4;"/>
  <use xlink:href="#m6997809a1a" x="136.843795" y="196.612795" style="fill: #1f77b4;"/>
  <use xlink:href="#m6997809a1a" x="157.800805" y="209.310385" style="fill: #1f77b4;"/>
  <use xlink:href="#m6997809a1a" x="240.193224" y="225.733519" style="fill: #1f77b4;"/>
  <use xlink:href="#m6997809a1a" x="272.431285" y="220.865197" style="fill: #1f77b4;"/>
  <use xlink:href="#m6997809a1a" x="282.110366" y="230.747626" style="fill: #1f77b4;"/>
  <use xlink:href="#m6997809a1a" x="269.344501" y="204.366494" style="fill: #1f77b4;"/>
  <use xlink:href="#m6997809a1a" x="270.829042" y="200.502376" style="fill: #1f77b4;"/>
  <use xlink:href="#m6997809a1a" x="261.420839" y="233.885481" style="fill: #1f77b4;"/>
  <use xlink:href="#m6997809a1a" x="252.784028" y="236.091491" style="fill: #1f77b4;"/>
  <use xlink:href="#m6997809a1a" x="272.895707" y="217.285209" style="fill: #1f77b4;"/>
  <use xlink:href="#m6997809a1a" x="259.834473" y="232.301371" style="fill: #1f77b4;"/>
  <use xlink:href="#m6997809a1a" x="272.849611" y="214.004447" style="fill: #1f77b4;"/>
  <use xlink:href="#m6997809a1a" x="260.90813" y="222.117786" style="fill: #1f77b4;"/>
  <use xlink:href="#m6997809a1a" x="279.424606" y="215.293699" style="fill: #1f77b4;"/>
  <use xlink:href="#m6997809a1a" x="258.216287" y="201.806796" style="fill: #1f77b4;"/>
  <use xlink:href="#m6997809a1a" x="264.522906" y="228.040085" style="fill: #1f77b4;"/>
  <use xlink:href="#m6997809a1a" x="237.507571" y="228.811635" style="fill: #1f77b4;"/>
  <use xlink:href="#m6997809a1a" x="243.22154" y="206.034526" style="fill: #1f77b4;"/>
  <use xlink:href="#m6997809a1a" x="365.595407" y="217.369426" style="fill: #1f77b4;"/>
  <use xlink:href="#m6997809a1a" x="366.783166" y="214.166051" style="fill: #1f77b4;"/>
  <use xlink:href="#m6997809a1a" x="361.557557" y="211.797912" style="fill: #1f77b4;"/>
  <use xlink:href="#m6997809a1a" x="328.174838" y="218.684852" style="fill: #1f77b4;"/>
  <use xlink:href="#m6997809a1a" x="371.948264" y="205.821898" style="fill: #1f77b4;"/>
  <use xlink:href="#m6997809a1a" x="373.581818" y="204.110786" style="fill: #1f77b4;"/>
  <use xlink:href="#m6997809a1a" x="359.074243" y="206.320579" style="fill: #1f77b4;"/>
  <use xlink:href="#m6997809a1a" x="366.424961" y="246.24" style="fill: red;"/>
  <use xlink:href="#m6997809a1a" x="356.45977" y="210.097264" style="fill: #1f77b4;"/>
  <use xlink:href="#m6997809a1a" x="363.229261" y="217.88993" style="fill: #1f77b4;"/>
  <use xlink:href="#m6997809a1a" x="366.581045" y="209.273232" style="fill: #1f77b4;"/>
  <use xlink:href="#m6997809a1a" x="355.191544" y="198.460675" style="fill: #1f77b4;"/>
  <use xlink:href="#m6997809a1a" x="354.404195" y="224.503025" style="fill: #1f77b4;"/>
  <use xlink:href="#m6997809a1a" x="356.56099" y="233.392495" style="fill: #1f77b4;"/>
  <use xlink:href="#m6997809a1a" x="360.84521" y="211.703405" style="fill: #1f77b4;"/>
  <use xlink:href="#m6997809a1a" x="348.961833" y="209.340179" style="fill: #1f77b4;"/>
  <use xlink:href="#m6997809a1a" x="320.268597" y="44.64" style="fill: red;"/>
  <use xlink:href="#m6997809a1a" x="69.218182" y="191.164985" style="fill: #1f77b4;"/>
 </g>
</svg>