<?xml version="1.0" encoding="utf-8" standalone="no"?>
<!DOCTYPE svg PUBLIC "-//W3C//DTD SVG 1.1//EN"
  "http://www.w3.org/Graphics/SVG/1.1/DTD/svg11.dtd">
<svg xmlns:xlink="http://www.w3.org/1999/xlink" width="432pt" height="288pt" viewBox="0 0 432 288" xmlns="http://www.w3.org/2000/svg" version="1.1">
 <metadata>
  <rdf:RDF xmlns:dc="http://purl.org/dc/elements/1.1/" xmlns:cc="http://creativecommons.org/ns#" xmlns:rdf="http://www.w3.org/1999/02/22-rdf-syntax-ns#">
   <cc:Work>
    <dc:type rdf:resource="http://purl.org/dc/dcmitype/StillImage"/>
    <dc:date>2024-04-18T15:49:35.334764</dc:date>
    <dc:format>image/svg+xml</dc:format>
    <dc:creator>
     <cc:Agent>
      <dc:title>Matplotlib v3.8.3, https://matplotlib.org/</dc:title>
     </cc:Agent>
    </dc:creator>
   </cc:Work>
  </rdf:RDF>
 </metadata>
 <defs>
  <style type="text/css">*{stroke-linejoin: round; stroke-linecap: butt}</style>
 </defs>
 <g id="figure_1">
  <g id="patch_1">
   <path d="M 0 288 
L 432 288 
L 432 0 
L 0 0 
L 0 288 
z
" style="fill: none"/>
  </g>
  <g id="axes_1">
   <g id="patch_2">
    <path d="M 54 256.32 
L 388.8 256.32 
L 388.8 34.56 
L 54 34.56 
z
" style="fill: #ffffff"/>
   </g>
   <g id="PathCollection_1">
    <defs>
     <path id="m22048aaf33" d="M 0 3 
C 0.795609 3 1.55874 2.683901 2.12132 2.12132 
C 2.683901 1.55874 3 0.795609 3 0 
C 3 -0.795609 2.683901 -1.55874 2.12132 -2.12132 
C 1.55874 -2.683901 0.795609 -3 0 -3 
C -0.795609 -3 -1.55874 -2.683901 -2.12132 -2.12132 
C -2.683901 -1.55874 -3 -0.795609 -3 0 
C -3 0.795609 -2.683901 1.55874 -2.12132 2.12132 
C -1.55874 2.683901 -0.795609 3 0 3 
z
" style="stroke: #1f77b4; stroke-opacity: 0.6"/>
    </defs>
    <g clip-path="url(#p5626431f7d)">
     <use xlink:href="#m22048aaf33" x="221.306504" y="144.685723" style="fill: #1f77b4; fill-opacity: 0.6; stroke: #1f77b4; stroke-opacity: 0.6"/>
     <use xlink:href="#m22048aaf33" x="373.581818" y="246.24" style="fill: #1f77b4; fill-opacity: 0.6; stroke: #1f77b4; stroke-opacity: 0.6"/>
     <use xlink:href="#m22048aaf33" x="160.102582" y="63.633264" style="fill: #1f77b4; fill-opacity: 0.6; stroke: #1f77b4; stroke-opacity: 0.6"/>
     <use xlink:href="#m22048aaf33" x="258.251526" y="68.18956" style="fill: #1f77b4; fill-opacity: 0.6; stroke: #1f77b4; stroke-opacity: 0.6"/>
     <use xlink:href="#m22048aaf33" x="69.218182" y="108.197409" style="fill: #1f77b4; fill-opacity: 0.6; stroke: #1f77b4; stroke-opacity: 0.6"/>
     <use xlink:href="#m22048aaf33" x="207.111258" y="211.983132" style="fill: #1f77b4; fill-opacity: 0.6; stroke: #1f77b4; stroke-opacity: 0.6"/>
     <use xlink:href="#m22048aaf33" x="161.205234" y="44.64" style="fill: #1f77b4; fill-opacity: 0.6; stroke: #1f77b4; stroke-opacity: 0.6"/>
     <use xlink:href="#m22048aaf33" x="280.241867" y="194.155839" style="fill: #1f77b4; fill-opacity: 0.6; stroke: #1f77b4; stroke-opacity: 0.6"/>
     <use xlink:href="#m22048aaf33" x="247.013807" y="64.927857" style="fill: #1f77b4; fill-opacity: 0.6; stroke: #1f77b4; stroke-opacity: 0.6"/>
     <use xlink:href="#m22048aaf33" x="269.981524" y="183.93378" style="fill: #1f77b4; fill-opacity: 0.6; stroke: #1f77b4; stroke-opacity: 0.6"/>
     <use xlink:href="#m22048aaf33" x="149.947141" y="167.736176" style="fill: #1f77b4; fill-opacity: 0.6; stroke: #1f77b4; stroke-opacity: 0.6"/>
     <use xlink:href="#m22048aaf33" x="123.617387" y="100.534394" style="fill: #1f77b4; fill-opacity: 0.6; stroke: #1f77b4; stroke-opacity: 0.6"/>
     <use xlink:href="#m22048aaf33" x="181.001915" y="83.813992" style="fill: #1f77b4; fill-opacity: 0.6; stroke: #1f77b4; stroke-opacity: 0.6"/>
     <use xlink:href="#m22048aaf33" x="176.757691" y="113.371679" style="fill: #1f77b4; fill-opacity: 0.6; stroke: #1f77b4; stroke-opacity: 0.6"/>
     <use xlink:href="#m22048aaf33" x="215.740083" y="112.48187" style="fill: #1f77b4; fill-opacity: 0.6; stroke: #1f77b4; stroke-opacity: 0.6"/>
     <use xlink:href="#m22048aaf33" x="182.250758" y="161.490045" style="fill: #1f77b4; fill-opacity: 0.6; stroke: #1f77b4; stroke-opacity: 0.6"/>
     <use xlink:href="#m22048aaf33" x="199.105579" y="146.888319" style="fill: #1f77b4; fill-opacity: 0.6; stroke: #1f77b4; stroke-opacity: 0.6"/>
     <use xlink:href="#m22048aaf33" x="226.639221" y="180.617408" style="fill: #1f77b4; fill-opacity: 0.6; stroke: #1f77b4; stroke-opacity: 0.6"/>
     <use xlink:href="#m22048aaf33" x="183.885343" y="153.856715" style="fill: #1f77b4; fill-opacity: 0.6; stroke: #1f77b4; stroke-opacity: 0.6"/>
     <use xlink:href="#m22048aaf33" x="235.721905" y="223.464363" style="fill: #1f77b4; fill-opacity: 0.6; stroke: #1f77b4; stroke-opacity: 0.6"/>
    </g>
   </g>
   <g id="matplotlib.axis_1">
    <g id="xtick_1">
     <g id="line2d_1">
      <defs>
       <path id="m1a4014505f" d="M 0 0 
L 0 3.5 
" style="stroke: #000000; stroke-width: 0.8"/>
      </defs>
      <g>
       <use xlink:href="#m1a4014505f" x="94.081147" y="256.32" style="stroke: #000000; stroke-width: 0.8"/>
      </g>
     </g>
     <g id="text_1">
      <!-- −2 -->
      <g transform="translate(86.710054 270.918437) scale(0.1 -0.1)">
       <defs>
        <path id="DejaVuSans-2212" d="M 678 2272 
L 4684 2272 
L 4684 1741 
L 678 1741 
L 678 2272 
z
" transform="scale(0.015625)"/>
        <path id="DejaVuSans-32" d="M 1228 531 
L 3431 531 
L 3431 0 
L 469 0 
L 469 531 
Q 828 903 1448 1529 
Q 2069 2156 2228 2338 
Q 2531 2678 2651 2914 
Q 2772 3150 2772 3378 
Q 2772 3750 2511 3984 
Q 2250 4219 1831 4219 
Q 1534 4219 1204 4116 
Q 875 4013 500 3803 
L 500 4441 
Q 881 4594 1212 4672 
Q 1544 4750 1819 4750 
Q 2544 4750 2975 4387 
Q 3406 4025 3406 3419 
Q 3406 3131 3298 2873 
Q 3191 2616 2906 2266 
Q 2828 2175 2409 1742 
Q 1991 1309 1228 531 
z
" transform="scale(0.015625)"/>
       </defs>
       <use xlink:href="#DejaVuSans-2212"/>
       <use xlink:href="#DejaVuSans-32" x="83.789062"/>
      </g>
     </g>
    </g>
    <g id="xtick_2">
     <g id="line2d_2">
      <g>
       <use xlink:href="#m1a4014505f" x="146.998298" y="256.32" style="stroke: #000000; stroke-width: 0.8"/>
      </g>
     </g>
     <g id="text_2">
      <!-- −1 -->
      <g transform="translate(139.627204 270.918437) scale(0.1 -0.1)">
       <defs>
        <path id="DejaVuSans-31" d="M 794 531 
L 1825 531 
L 1825 4091 
L 703 3866 
L 703 4441 
L 1819 4666 
L 2450 4666 
L 2450 531 
L 3481 531 
L 3481 0 
L 794 0 
L 794 531 
z
" transform="scale(0.015625)"/>
       </defs>
       <use xlink:href="#DejaVuSans-2212"/>
       <use xlink:href="#DejaVuSans-31" x="83.789062"/>
      </g>
     </g>
    </g>
    <g id="xtick_3">
     <g id="line2d_3">
      <g>
       <use xlink:href="#m1a4014505f" x="199.915449" y="256.32" style="stroke: #000000; stroke-width: 0.8"/>
      </g>
     </g>
     <g id="text_3">
      <!-- 0 -->
      <g transform="translate(196.734199 270.918437) scale(0.1 -0.1)">
       <defs>
        <path id="DejaVuSans-30" d="M 2034 4250 
Q 1547 4250 1301 3770 
Q 1056 3291 1056 2328 
Q 1056 1369 1301 889 
Q 1547 409 2034 409 
Q 2525 409 2770 889 
Q 3016 1369 3016 2328 
Q 3016 3291 2770 3770 
Q 2525 4250 2034 4250 
z
M 2034 4750 
Q 2819 4750 3233 4129 
Q 3647 3509 3647 2328 
Q 3647 1150 3233 529 
Q 2819 -91 2034 -91 
Q 1250 -91 836 529 
Q 422 1150 422 2328 
Q 422 3509 836 4129 
Q 1250 4750 2034 4750 
z
" transform="scale(0.015625)"/>
       </defs>
       <use xlink:href="#DejaVuSans-30"/>
      </g>
     </g>
    </g>
    <g id="xtick_4">
     <g id="line2d_4">
      <g>
       <use xlink:href="#m1a4014505f" x="252.8326" y="256.32" style="stroke: #000000; stroke-width: 0.8"/>
      </g>
     </g>
     <g id="text_4">
      <!-- 1 -->
      <g transform="translate(249.65135 270.918437) scale(0.1 -0.1)">
       <use xlink:href="#DejaVuSans-31"/>
      </g>
     </g>
    </g>
    <g id="xtick_5">
     <g id="line2d_5">
      <g>
       <use xlink:href="#m1a4014505f" x="305.74975" y="256.32" style="stroke: #000000; stroke-width: 0.8"/>
      </g>
     </g>
     <g id="text_5">
      <!-- 2 -->
      <g transform="translate(302.5685 270.918437) scale(0.1 -0.1)">
       <use xlink:href="#DejaVuSans-32"/>
      </g>
     </g>
    </g>
    <g id="xtick_6">
     <g id="line2d_6">
      <g>
       <use xlink:href="#m1a4014505f" x="358.666901" y="256.32" style="stroke: #000000; stroke-width: 0.8"/>
      </g>
     </g>
     <g id="text_6">
      <!-- 3 -->
      <g transform="translate(355.485651 270.918437) scale(0.1 -0.1)">
       <defs>
        <path id="DejaVuSans-33" d="M 2597 2516 
Q 3050 2419 3304 2112 
Q 3559 1806 3559 1356 
Q 3559 666 3084 287 
Q 2609 -91 1734 -91 
Q 1441 -91 1130 -33 
Q 819 25 488 141 
L 488 750 
Q 750 597 1062 519 
Q 1375 441 1716 441 
Q 2309 441 2620 675 
Q 2931 909 2931 1356 
Q 2931 1769 2642 2001 
Q 2353 2234 1838 2234 
L 1294 2234 
L 1294 2753 
L 1863 2753 
Q 2328 2753 2575 2939 
Q 2822 3125 2822 3475 
Q 2822 3834 2567 4026 
Q 2313 4219 1838 4219 
Q 1578 4219 1281 4162 
Q 984 4106 628 3988 
L 628 4550 
Q 988 4650 1302 4700 
Q 1616 4750 1894 4750 
Q 2613 4750 3031 4423 
Q 3450 4097 3450 3541 
Q 3450 3153 3228 2886 
Q 3006 2619 2597 2516 
z
" transform="scale(0.015625)"/>
       </defs>
       <use xlink:href="#DejaVuSans-33"/>
      </g>
     </g>
    </g>
   </g>
   <g id="matplotlib.axis_2">
    <g id="ytick_1">
     <g id="line2d_7">
      <defs>
       <path id="m44e34044ff" d="M 0 0 
L -3.5 0 
" style="stroke: #000000; stroke-width: 0.8"/>
      </defs>
      <g>
       <use xlink:href="#m44e34044ff" x="54" y="240.865689" style="stroke: #000000; stroke-width: 0.8"/>
      </g>
     </g>
     <g id="text_7">
      <!-- −1.5 -->
      <g transform="translate(22.717187 244.664907) scale(0.1 -0.1)">
       <defs>
        <path id="DejaVuSans-2e" d="M 684 794 
L 1344 794 
L 1344 0 
L 684 0 
L 684 794 
z
" transform="scale(0.015625)"/>
        <path id="DejaVuSans-35" d="M 691 4666 
L 3169 4666 
L 3169 4134 
L 1269 4134 
L 1269 2991 
Q 1406 3038 1543 3061 
Q 1681 3084 1819 3084 
Q 2600 3084 3056 2656 
Q 3513 2228 3513 1497 
Q 3513 744 3044 326 
Q 2575 -91 1722 -91 
Q 1428 -91 1123 -41 
Q 819 9 494 109 
L 494 744 
Q 775 591 1075 516 
Q 1375 441 1709 441 
Q 2250 441 2565 725 
Q 2881 1009 2881 1497 
Q 2881 1984 2565 2268 
Q 2250 2553 1709 2553 
Q 1456 2553 1204 2497 
Q 953 2441 691 2322 
L 691 4666 
z
" transform="scale(0.015625)"/>
       </defs>
       <use xlink:href="#DejaVuSans-2212"/>
       <use xlink:href="#DejaVuSans-31" x="83.789062"/>
       <use xlink:href="#DejaVuSans-2e" x="147.412109"/>
       <use xlink:href="#DejaVuSans-35" x="179.199219"/>
      </g>
     </g>
    </g>
    <g id="ytick_2">
     <g id="line2d_8">
      <g>
       <use xlink:href="#m44e34044ff" x="54" y="208.331359" style="stroke: #000000; stroke-width: 0.8"/>
      </g>
     </g>
     <g id="text_8">
      <!-- −1.0 -->
      <g transform="translate(22.717187 212.130578) scale(0.1 -0.1)">
       <use xlink:href="#DejaVuSans-2212"/>
       <use xlink:href="#DejaVuSans-31" x="83.789062"/>
       <use xlink:href="#DejaVuSans-2e" x="147.412109"/>
       <use xlink:href="#DejaVuSans-30" x="179.199219"/>
      </g>
     </g>
    </g>
    <g id="ytick_3">
     <g id="line2d_9">
      <g>
       <use xlink:href="#m44e34044ff" x="54" y="175.797029" style="stroke: #000000; stroke-width: 0.8"/>
      </g>
     </g>
     <g id="text_9">
      <!-- −0.5 -->
      <g transform="translate(22.717187 179.596248) scale(0.1 -0.1)">
       <use xlink:href="#DejaVuSans-2212"/>
       <use xlink:href="#DejaVuSans-30" x="83.789062"/>
       <use xlink:href="#DejaVuSans-2e" x="147.412109"/>
       <use xlink:href="#DejaVuSans-35" x="179.199219"/>
      </g>
     </g>
    </g>
    <g id="ytick_4">
     <g id="line2d_10">
      <g>
       <use xlink:href="#m44e34044ff" x="54" y="143.2627" style="stroke: #000000; stroke-width: 0.8"/>
      </g>
     </g>
     <g id="text_10">
      <!-- 0.0 -->
      <g transform="translate(31.096875 147.061919) scale(0.1 -0.1)">
       <use xlink:href="#DejaVuSans-30"/>
       <use xlink:href="#DejaVuSans-2e" x="63.623047"/>
       <use xlink:href="#DejaVuSans-30" x="95.410156"/>
      </g>
     </g>
    </g>
    <g id="ytick_5">
     <g id="line2d_11">
      <g>
       <use xlink:href="#m44e34044ff" x="54" y="110.72837" style="stroke: #000000; stroke-width: 0.8"/>
      </g>
     </g>
     <g id="text_11">
      <!-- 0.5 -->
      <g transform="translate(31.096875 114.527589) scale(0.1 -0.1)">
       <use xlink:href="#DejaVuSans-30"/>
       <use xlink:href="#DejaVuSans-2e" x="63.623047"/>
       <use xlink:href="#DejaVuSans-35" x="95.410156"/>
      </g>
     </g>
    </g>
    <g id="ytick_6">
     <g id="line2d_12">
      <g>
       <use xlink:href="#m44e34044ff" x="54" y="78.194041" style="stroke: #000000; stroke-width: 0.8"/>
      </g>
     </g>
     <g id="text_12">
      <!-- 1.0 -->
      <g transform="translate(31.096875 81.993259) scale(0.1 -0.1)">
       <use xlink:href="#DejaVuSans-31"/>
       <use xlink:href="#DejaVuSans-2e" x="63.623047"/>
       <use xlink:href="#DejaVuSans-30" x="95.410156"/>
      </g>
     </g>
    </g>
    <g id="ytick_7">
     <g id="line2d_13">
      <g>
       <use xlink:href="#m44e34044ff" x="54" y="45.659711" style="stroke: #000000; stroke-width: 0.8"/>
      </g>
     </g>
     <g id="text_13">
      <!-- 1.5 -->
      <g transform="translate(31.096875 49.45893) scale(0.1 -0.1)">
       <use xlink:href="#DejaVuSans-31"/>
       <use xlink:href="#DejaVuSans-2e" x="63.623047"/>
       <use xlink:href="#DejaVuSans-35" x="95.410156"/>
      </g>
     </g>
    </g>
   </g>
   <g id="patch_3">
    <path d="M 54 256.32 
L 54 34.56 
" style="fill: none; stroke: #000000; stroke-width: 0.8; stroke-linejoin: miter; stroke-linecap: square"/>
   </g>
   <g id="patch_4">
    <path d="M 388.8 256.32 
L 388.8 34.56 
" style="fill: none; stroke: #000000; stroke-width: 0.8; stroke-linejoin: miter; stroke-linecap: square"/>
   </g>
   <g id="patch_5">
    <path d="M 54 256.32 
L 388.8 256.32 
" style="fill: none; stroke: #000000; stroke-width: 0.8; stroke-linejoin: miter; stroke-linecap: square"/>
   </g>
   <g id="patch_6">
    <path d="M 54 34.56 
L 388.8 34.56 
" style="fill: none; stroke: #000000; stroke-width: 0.8; stroke-linejoin: miter; stroke-linecap: square"/>
   </g>
   <g id="text_14">
    <!-- (0.40, -0.02) -->
    <g transform="translate(251.928186 133.859011) scale(0.08 -0.08)">
     <defs>
      <path id="DejaVuSans-28" d="M 1984 4856 
Q 1566 4138 1362 3434 
Q 1159 2731 1159 2009 
Q 1159 1288 1364 580 
Q 1569 -128 1984 -844 
L 1484 -844 
Q 1016 -109 783 600 
Q 550 1309 550 2009 
Q 550 2706 781 3412 
Q 1013 4119 1484 4856 
L 1984 4856 
z
" transform="scale(0.015625)"/>
      <path id="DejaVuSans-34" d="M 2419 4116 
L 825 1625 
L 2419 1625 
L 2419 4116 
z
M 2253 4666 
L 3047 4666 
L 3047 1625 
L 3713 1625 
L 3713 1100 
L 3047 1100 
L 3047 0 
L 2419 0 
L 2419 1100 
L 313 1100 
L 313 1709 
L 2253 4666 
z
" transform="scale(0.015625)"/>
      <path id="DejaVuSans-2c" d="M 750 794 
L 1409 794 
L 1409 256 
L 897 -744 
L 494 -744 
L 750 256 
L 750 794 
z
" transform="scale(0.015625)"/>
      <path id="DejaVuSans-20" transform="scale(0.015625)"/>
      <path id="DejaVuSans-2d" d="M 313 2009 
L 1997 2009 
L 1997 1497 
L 313 1497 
L 313 2009 
z
" transform="scale(0.015625)"/>
      <path id="DejaVuSans-29" d="M 513 4856 
L 1013 4856 
Q 1481 4119 1714 3412 
Q 1947 2706 1947 2009 
Q 1947 1309 1714 600 
Q 1481 -109 1013 -844 
L 513 -844 
Q 928 -128 1133 580 
Q 1338 1288 1338 2009 
Q 1338 2731 1133 3434 
Q 928 4138 513 4856 
z
" transform="scale(0.015625)"/>
     </defs>
     <use xlink:href="#DejaVuSans-28"/>
     <use xlink:href="#DejaVuSans-30" x="39.013672"/>
     <use xlink:href="#DejaVuSans-2e" x="102.636719"/>
     <use xlink:href="#DejaVuSans-34" x="134.423828"/>
     <use xlink:href="#DejaVuSans-30" x="198.046875"/>
     <use xlink:href="#DejaVuSans-2c" x="261.669922"/>
     <use xlink:href="#DejaVuSans-20" x="293.457031"/>
     <use xlink:href="#DejaVuSans-2d" x="325.244141"/>
     <use xlink:href="#DejaVuSans-30" x="361.328125"/>
     <use xlink:href="#DejaVuSans-2e" x="424.951172"/>
     <use xlink:href="#DejaVuSans-30" x="456.738281"/>
     <use xlink:href="#DejaVuSans-32" x="520.361328"/>
     <use xlink:href="#DejaVuSans-29" x="583.984375"/>
    </g>
   </g>
   <g id="text_15">
    <!-- (3.28, -1.58) -->
    <g transform="translate(338.905625 244.0195) scale(0.08 -0.08)">
     <defs>
      <path id="DejaVuSans-38" d="M 2034 2216 
Q 1584 2216 1326 1975 
Q 1069 1734 1069 1313 
Q 1069 891 1326 650 
Q 1584 409 2034 409 
Q 2484 409 2743 651 
Q 3003 894 3003 1313 
Q 3003 1734 2745 1975 
Q 2488 2216 2034 2216 
z
M 1403 2484 
Q 997 2584 770 2862 
Q 544 3141 544 3541 
Q 544 4100 942 4425 
Q 1341 4750 2034 4750 
Q 2731 4750 3128 4425 
Q 3525 4100 3525 3541 
Q 3525 3141 3298 2862 
Q 3072 2584 2669 2484 
Q 3125 2378 3379 2068 
Q 3634 1759 3634 1313 
Q 3634 634 3220 271 
Q 2806 -91 2034 -91 
Q 1263 -91 848 271 
Q 434 634 434 1313 
Q 434 1759 690 2068 
Q 947 2378 1403 2484 
z
M 1172 3481 
Q 1172 3119 1398 2916 
Q 1625 2713 2034 2713 
Q 2441 2713 2670 2916 
Q 2900 3119 2900 3481 
Q 2900 3844 2670 4047 
Q 2441 4250 2034 4250 
Q 1625 4250 1398 4047 
Q 1172 3844 1172 3481 
z
" transform="scale(0.015625)"/>
     </defs>
     <use xlink:href="#DejaVuSans-28"/>
     <use xlink:href="#DejaVuSans-33" x="39.013672"/>
     <use xlink:href="#DejaVuSans-2e" x="102.636719"/>
     <use xlink:href="#DejaVuSans-32" x="134.423828"/>
     <use xlink:href="#DejaVuSans-38" x="198.046875"/>
     <use xlink:href="#DejaVuSans-2c" x="261.669922"/>
     <use xlink:href="#DejaVuSans-20" x="293.457031"/>
     <use xlink:href="#DejaVuSans-2d" x="325.244141"/>
     <use xlink:href="#DejaVuSans-31" x="361.328125"/>
     <use xlink:href="#DejaVuSans-2e" x="424.951172"/>
     <use xlink:href="#DejaVuSans-35" x="456.738281"/>
     <use xlink:href="#DejaVuSans-38" x="520.361328"/>
     <use xlink:href="#DejaVuSans-29" x="583.984375"/>
    </g>
   </g>
   <g id="text_16">
    <!-- (-0.75, 1.22) -->
    <g transform="translate(161.711008 63.238017) scale(0.08 -0.08)">
     <defs>
      <path id="DejaVuSans-37" d="M 525 4666 
L 3525 4666 
L 3525 4397 
L 1831 0 
L 1172 0 
L 2766 4134 
L 525 4134 
L 525 4666 
z
" transform="scale(0.015625)"/>
     </defs>
     <use xlink:href="#DejaVuSans-28"/>
     <use xlink:href="#DejaVuSans-2d" x="39.013672"/>
     <use xlink:href="#DejaVuSans-30" x="75.097656"/>
     <use xlink:href="#DejaVuSans-2e" x="138.720703"/>
     <use xlink:href="#DejaVuSans-37" x="170.507812"/>
     <use xlink:href="#DejaVuSans-35" x="234.130859"/>
     <use xlink:href="#DejaVuSans-2c" x="297.753906"/>
     <use xlink:href="#DejaVuSans-20" x="329.541016"/>
     <use xlink:href="#DejaVuSans-31" x="361.328125"/>
     <use xlink:href="#DejaVuSans-2e" x="424.951172"/>
     <use xlink:href="#DejaVuSans-32" x="456.738281"/>
     <use xlink:href="#DejaVuSans-32" x="520.361328"/>
     <use xlink:href="#DejaVuSans-29" x="583.984375"/>
    </g>
   </g>
   <g id="text_17">
    <!-- (1.10, 1.15) -->
    <g transform="translate(265.232298 71.22723) scale(0.08 -0.08)">
     <use xlink:href="#DejaVuSans-28"/>
     <use xlink:href="#DejaVuSans-31" x="39.013672"/>
     <use xlink:href="#DejaVuSans-2e" x="102.636719"/>
     <use xlink:href="#DejaVuSans-31" x="134.423828"/>
     <use xlink:href="#DejaVuSans-30" x="198.046875"/>
     <use xlink:href="#DejaVuSans-2c" x="261.669922"/>
     <use xlink:href="#DejaVuSans-20" x="293.457031"/>
     <use xlink:href="#DejaVuSans-31" x="325.244141"/>
     <use xlink:href="#DejaVuSans-2e" x="388.867188"/>
     <use xlink:href="#DejaVuSans-31" x="420.654297"/>
     <use xlink:href="#DejaVuSans-35" x="484.277344"/>
     <use xlink:href="#DejaVuSans-29" x="547.900391"/>
    </g>
   </g>
   <g id="text_18">
    <!-- (-2.47, 0.54) -->
    <g transform="translate(67.660847 105.53206) scale(0.08 -0.08)">
     <use xlink:href="#DejaVuSans-28"/>
     <use xlink:href="#DejaVuSans-2d" x="39.013672"/>
     <use xlink:href="#DejaVuSans-32" x="75.097656"/>
     <use xlink:href="#DejaVuSans-2e" x="138.720703"/>
     <use xlink:href="#DejaVuSans-34" x="170.507812"/>
     <use xlink:href="#DejaVuSans-37" x="234.130859"/>
     <use xlink:href="#DejaVuSans-2c" x="297.753906"/>
     <use xlink:href="#DejaVuSans-20" x="329.541016"/>
     <use xlink:href="#DejaVuSans-30" x="361.328125"/>
     <use xlink:href="#DejaVuSans-2e" x="424.951172"/>
     <use xlink:href="#DejaVuSans-35" x="456.738281"/>
     <use xlink:href="#DejaVuSans-34" x="520.361328"/>
     <use xlink:href="#DejaVuSans-29" x="583.984375"/>
    </g>
   </g>
   <g id="text_19">
    <!-- (0.14, -1.06) -->
    <g transform="translate(208.414259 217.149549) scale(0.08 -0.08)">
     <defs>
      <path id="DejaVuSans-36" d="M 2113 2584 
Q 1688 2584 1439 2293 
Q 1191 2003 1191 1497 
Q 1191 994 1439 701 
Q 1688 409 2113 409 
Q 2538 409 2786 701 
Q 3034 994 3034 1497 
Q 3034 2003 2786 2293 
Q 2538 2584 2113 2584 
z
M 3366 4563 
L 3366 3988 
Q 3128 4100 2886 4159 
Q 2644 4219 2406 4219 
Q 1781 4219 1451 3797 
Q 1122 3375 1075 2522 
Q 1259 2794 1537 2939 
Q 1816 3084 2150 3084 
Q 2853 3084 3261 2657 
Q 3669 2231 3669 1497 
Q 3669 778 3244 343 
Q 2819 -91 2113 -91 
Q 1303 -91 875 529 
Q 447 1150 447 2328 
Q 447 3434 972 4092 
Q 1497 4750 2381 4750 
Q 2619 4750 2861 4703 
Q 3103 4656 3366 4563 
z
" transform="scale(0.015625)"/>
     </defs>
     <use xlink:href="#DejaVuSans-28"/>
     <use xlink:href="#DejaVuSans-30" x="39.013672"/>
     <use xlink:href="#DejaVuSans-2e" x="102.636719"/>
     <use xlink:href="#DejaVuSans-31" x="134.423828"/>
     <use xlink:href="#DejaVuSans-34" x="198.046875"/>
     <use xlink:href="#DejaVuSans-2c" x="261.669922"/>
     <use xlink:href="#DejaVuSans-20" x="293.457031"/>
     <use xlink:href="#DejaVuSans-2d" x="325.244141"/>
     <use xlink:href="#DejaVuSans-31" x="361.328125"/>
     <use xlink:href="#DejaVuSans-2e" x="424.951172"/>
     <use xlink:href="#DejaVuSans-30" x="456.738281"/>
     <use xlink:href="#DejaVuSans-36" x="520.361328"/>
     <use xlink:href="#DejaVuSans-29" x="583.984375"/>
    </g>
   </g>
   <g id="text_20">
    <!-- (-0.73, 1.52) -->
    <g transform="translate(163.033073 40.3675) scale(0.08 -0.08)">
     <use xlink:href="#DejaVuSans-28"/>
     <use xlink:href="#DejaVuSans-2d" x="39.013672"/>
     <use xlink:href="#DejaVuSans-30" x="75.097656"/>
     <use xlink:href="#DejaVuSans-2e" x="138.720703"/>
     <use xlink:href="#DejaVuSans-37" x="170.507812"/>
     <use xlink:href="#DejaVuSans-33" x="234.130859"/>
     <use xlink:href="#DejaVuSans-2c" x="297.753906"/>
     <use xlink:href="#DejaVuSans-20" x="329.541016"/>
     <use xlink:href="#DejaVuSans-31" x="361.328125"/>
     <use xlink:href="#DejaVuSans-2e" x="424.951172"/>
     <use xlink:href="#DejaVuSans-35" x="456.738281"/>
     <use xlink:href="#DejaVuSans-32" x="520.361328"/>
     <use xlink:href="#DejaVuSans-29" x="583.984375"/>
    </g>
   </g>
   <g id="text_21">
    <!-- (1.52, -0.78) -->
    <g transform="translate(283.825526 195.009545) scale(0.08 -0.08)">
     <use xlink:href="#DejaVuSans-28"/>
     <use xlink:href="#DejaVuSans-31" x="39.013672"/>
     <use xlink:href="#DejaVuSans-2e" x="102.636719"/>
     <use xlink:href="#DejaVuSans-35" x="134.423828"/>
     <use xlink:href="#DejaVuSans-32" x="198.046875"/>
     <use xlink:href="#DejaVuSans-2c" x="261.669922"/>
     <use xlink:href="#DejaVuSans-20" x="293.457031"/>
     <use xlink:href="#DejaVuSans-2d" x="325.244141"/>
     <use xlink:href="#DejaVuSans-30" x="361.328125"/>
     <use xlink:href="#DejaVuSans-2e" x="424.951172"/>
     <use xlink:href="#DejaVuSans-37" x="456.738281"/>
     <use xlink:href="#DejaVuSans-38" x="520.361328"/>
     <use xlink:href="#DejaVuSans-29" x="583.984375"/>
    </g>
   </g>
   <g id="text_22">
    <!-- (0.89, 1.20) -->
    <g transform="translate(245.264171 61.716272) scale(0.08 -0.08)">
     <defs>
      <path id="DejaVuSans-39" d="M 703 97 
L 703 672 
Q 941 559 1184 500 
Q 1428 441 1663 441 
Q 2288 441 2617 861 
Q 2947 1281 2994 2138 
Q 2813 1869 2534 1725 
Q 2256 1581 1919 1581 
Q 1219 1581 811 2004 
Q 403 2428 403 3163 
Q 403 3881 828 4315 
Q 1253 4750 1959 4750 
Q 2769 4750 3195 4129 
Q 3622 3509 3622 2328 
Q 3622 1225 3098 567 
Q 2575 -91 1691 -91 
Q 1453 -91 1209 -44 
Q 966 3 703 97 
z
M 1959 2075 
Q 2384 2075 2632 2365 
Q 2881 2656 2881 3163 
Q 2881 3666 2632 3958 
Q 2384 4250 1959 4250 
Q 1534 4250 1286 3958 
Q 1038 3666 1038 3163 
Q 1038 2656 1286 2365 
Q 1534 2075 1959 2075 
z
" transform="scale(0.015625)"/>
     </defs>
     <use xlink:href="#DejaVuSans-28"/>
     <use xlink:href="#DejaVuSans-30" x="39.013672"/>
     <use xlink:href="#DejaVuSans-2e" x="102.636719"/>
     <use xlink:href="#DejaVuSans-38" x="134.423828"/>
     <use xlink:href="#DejaVuSans-39" x="198.046875"/>
     <use xlink:href="#DejaVuSans-2c" x="261.669922"/>
     <use xlink:href="#DejaVuSans-20" x="293.457031"/>
     <use xlink:href="#DejaVuSans-31" x="325.244141"/>
     <use xlink:href="#DejaVuSans-2e" x="388.867188"/>
     <use xlink:href="#DejaVuSans-32" x="420.654297"/>
     <use xlink:href="#DejaVuSans-30" x="484.277344"/>
     <use xlink:href="#DejaVuSans-29" x="547.900391"/>
    </g>
   </g>
   <g id="text_23">
    <!-- (1.32, -0.63) -->
    <g transform="translate(276.969747 184.859995) scale(0.08 -0.08)">
     <use xlink:href="#DejaVuSans-28"/>
     <use xlink:href="#DejaVuSans-31" x="39.013672"/>
     <use xlink:href="#DejaVuSans-2e" x="102.636719"/>
     <use xlink:href="#DejaVuSans-33" x="134.423828"/>
     <use xlink:href="#DejaVuSans-32" x="198.046875"/>
     <use xlink:href="#DejaVuSans-2c" x="261.669922"/>
     <use xlink:href="#DejaVuSans-20" x="293.457031"/>
     <use xlink:href="#DejaVuSans-2d" x="325.244141"/>
     <use xlink:href="#DejaVuSans-30" x="361.328125"/>
     <use xlink:href="#DejaVuSans-2e" x="424.951172"/>
     <use xlink:href="#DejaVuSans-36" x="456.738281"/>
     <use xlink:href="#DejaVuSans-33" x="520.361328"/>
     <use xlink:href="#DejaVuSans-29" x="583.984375"/>
    </g>
   </g>
   <g id="text_24">
    <!-- (-0.94, -0.38) -->
    <g transform="translate(138.202319 175.05115) scale(0.08 -0.08)">
     <use xlink:href="#DejaVuSans-28"/>
     <use xlink:href="#DejaVuSans-2d" x="39.013672"/>
     <use xlink:href="#DejaVuSans-30" x="75.097656"/>
     <use xlink:href="#DejaVuSans-2e" x="138.720703"/>
     <use xlink:href="#DejaVuSans-39" x="170.507812"/>
     <use xlink:href="#DejaVuSans-34" x="234.130859"/>
     <use xlink:href="#DejaVuSans-2c" x="297.753906"/>
     <use xlink:href="#DejaVuSans-20" x="329.541016"/>
     <use xlink:href="#DejaVuSans-2d" x="361.328125"/>
     <use xlink:href="#DejaVuSans-30" x="397.412109"/>
     <use xlink:href="#DejaVuSans-2e" x="461.035156"/>
     <use xlink:href="#DejaVuSans-33" x="492.822266"/>
     <use xlink:href="#DejaVuSans-38" x="556.445312"/>
     <use xlink:href="#DejaVuSans-29" x="620.068359"/>
    </g>
   </g>
   <g id="text_25">
    <!-- (-1.44, 0.66) -->
    <g transform="translate(122.703511 97.869106) scale(0.08 -0.08)">
     <use xlink:href="#DejaVuSans-28"/>
     <use xlink:href="#DejaVuSans-2d" x="39.013672"/>
     <use xlink:href="#DejaVuSans-31" x="75.097656"/>
     <use xlink:href="#DejaVuSans-2e" x="138.720703"/>
     <use xlink:href="#DejaVuSans-34" x="170.507812"/>
     <use xlink:href="#DejaVuSans-34" x="234.130859"/>
     <use xlink:href="#DejaVuSans-2c" x="297.753906"/>
     <use xlink:href="#DejaVuSans-20" x="329.541016"/>
     <use xlink:href="#DejaVuSans-30" x="361.328125"/>
     <use xlink:href="#DejaVuSans-2e" x="424.951172"/>
     <use xlink:href="#DejaVuSans-36" x="456.738281"/>
     <use xlink:href="#DejaVuSans-36" x="520.361328"/>
     <use xlink:href="#DejaVuSans-29" x="583.984375"/>
    </g>
   </g>
   <g id="text_26">
    <!-- (-0.36, 0.91) -->
    <g transform="translate(181.949018 79.452279) scale(0.08 -0.08)">
     <use xlink:href="#DejaVuSans-28"/>
     <use xlink:href="#DejaVuSans-2d" x="39.013672"/>
     <use xlink:href="#DejaVuSans-30" x="75.097656"/>
     <use xlink:href="#DejaVuSans-2e" x="138.720703"/>
     <use xlink:href="#DejaVuSans-33" x="170.507812"/>
     <use xlink:href="#DejaVuSans-36" x="234.130859"/>
     <use xlink:href="#DejaVuSans-2c" x="297.753906"/>
     <use xlink:href="#DejaVuSans-20" x="329.541016"/>
     <use xlink:href="#DejaVuSans-30" x="361.328125"/>
     <use xlink:href="#DejaVuSans-2e" x="424.951172"/>
     <use xlink:href="#DejaVuSans-39" x="456.738281"/>
     <use xlink:href="#DejaVuSans-31" x="520.361328"/>
     <use xlink:href="#DejaVuSans-29" x="583.984375"/>
    </g>
   </g>
   <g id="text_27">
    <!-- (-0.44, 0.46) -->
    <g transform="translate(176.057467 105.126256) scale(0.08 -0.08)">
     <use xlink:href="#DejaVuSans-28"/>
     <use xlink:href="#DejaVuSans-2d" x="39.013672"/>
     <use xlink:href="#DejaVuSans-30" x="75.097656"/>
     <use xlink:href="#DejaVuSans-2e" x="138.720703"/>
     <use xlink:href="#DejaVuSans-34" x="170.507812"/>
     <use xlink:href="#DejaVuSans-34" x="234.130859"/>
     <use xlink:href="#DejaVuSans-2c" x="297.753906"/>
     <use xlink:href="#DejaVuSans-20" x="329.541016"/>
     <use xlink:href="#DejaVuSans-30" x="361.328125"/>
     <use xlink:href="#DejaVuSans-2e" x="424.951172"/>
     <use xlink:href="#DejaVuSans-34" x="456.738281"/>
     <use xlink:href="#DejaVuSans-36" x="520.361328"/>
     <use xlink:href="#DejaVuSans-29" x="583.984375"/>
    </g>
   </g>
   <g id="text_28">
    <!-- (0.30, 0.47) -->
    <g transform="translate(220.774229 115.519172) scale(0.08 -0.08)">
     <use xlink:href="#DejaVuSans-28"/>
     <use xlink:href="#DejaVuSans-30" x="39.013672"/>
     <use xlink:href="#DejaVuSans-2e" x="102.636719"/>
     <use xlink:href="#DejaVuSans-33" x="134.423828"/>
     <use xlink:href="#DejaVuSans-30" x="198.046875"/>
     <use xlink:href="#DejaVuSans-2c" x="261.669922"/>
     <use xlink:href="#DejaVuSans-20" x="293.457031"/>
     <use xlink:href="#DejaVuSans-30" x="325.244141"/>
     <use xlink:href="#DejaVuSans-2e" x="388.867188"/>
     <use xlink:href="#DejaVuSans-34" x="420.654297"/>
     <use xlink:href="#DejaVuSans-37" x="484.277344"/>
     <use xlink:href="#DejaVuSans-29" x="547.900391"/>
    </g>
   </g>
   <g id="text_29">
    <!-- (-0.33, -0.28) -->
    <g transform="translate(202.655217 163.05094) scale(0.08 -0.08)">
     <use xlink:href="#DejaVuSans-28"/>
     <use xlink:href="#DejaVuSans-2d" x="39.013672"/>
     <use xlink:href="#DejaVuSans-30" x="75.097656"/>
     <use xlink:href="#DejaVuSans-2e" x="138.720703"/>
     <use xlink:href="#DejaVuSans-33" x="170.507812"/>
     <use xlink:href="#DejaVuSans-33" x="234.130859"/>
     <use xlink:href="#DejaVuSans-2c" x="297.753906"/>
     <use xlink:href="#DejaVuSans-20" x="329.541016"/>
     <use xlink:href="#DejaVuSans-2d" x="361.328125"/>
     <use xlink:href="#DejaVuSans-30" x="397.412109"/>
     <use xlink:href="#DejaVuSans-2e" x="461.035156"/>
     <use xlink:href="#DejaVuSans-32" x="492.822266"/>
     <use xlink:href="#DejaVuSans-38" x="556.445312"/>
     <use xlink:href="#DejaVuSans-29" x="620.068359"/>
    </g>
   </g>
   <g id="text_30">
    <!-- (-0.02, -0.06) -->
    <g transform="translate(211.909458 141.878436) scale(0.08 -0.08)">
     <use xlink:href="#DejaVuSans-28"/>
     <use xlink:href="#DejaVuSans-2d" x="39.013672"/>
     <use xlink:href="#DejaVuSans-30" x="75.097656"/>
     <use xlink:href="#DejaVuSans-2e" x="138.720703"/>
     <use xlink:href="#DejaVuSans-30" x="170.507812"/>
     <use xlink:href="#DejaVuSans-32" x="234.130859"/>
     <use xlink:href="#DejaVuSans-2c" x="297.753906"/>
     <use xlink:href="#DejaVuSans-20" x="329.541016"/>
     <use xlink:href="#DejaVuSans-2d" x="361.328125"/>
     <use xlink:href="#DejaVuSans-30" x="397.412109"/>
     <use xlink:href="#DejaVuSans-2e" x="461.035156"/>
     <use xlink:href="#DejaVuSans-30" x="492.822266"/>
     <use xlink:href="#DejaVuSans-36" x="556.445312"/>
     <use xlink:href="#DejaVuSans-29" x="620.068359"/>
    </g>
   </g>
   <g id="text_31">
    <!-- (0.51, -0.57) -->
    <g transform="translate(224.36291 176.692091) scale(0.08 -0.08)">
     <use xlink:href="#DejaVuSans-28"/>
     <use xlink:href="#DejaVuSans-30" x="39.013672"/>
     <use xlink:href="#DejaVuSans-2e" x="102.636719"/>
     <use xlink:href="#DejaVuSans-35" x="134.423828"/>
     <use xlink:href="#DejaVuSans-31" x="198.046875"/>
     <use xlink:href="#DejaVuSans-2c" x="261.669922"/>
     <use xlink:href="#DejaVuSans-20" x="293.457031"/>
     <use xlink:href="#DejaVuSans-2d" x="325.244141"/>
     <use xlink:href="#DejaVuSans-30" x="361.328125"/>
     <use xlink:href="#DejaVuSans-2e" x="424.951172"/>
     <use xlink:href="#DejaVuSans-35" x="456.738281"/>
     <use xlink:href="#DejaVuSans-37" x="520.361328"/>
     <use xlink:href="#DejaVuSans-29" x="583.984375"/>
    </g>
   </g>
   <g id="text_32">
    <!-- (-0.30, -0.16) -->
    <g transform="translate(185.406071 153.692226) scale(0.08 -0.08)">
     <use xlink:href="#DejaVuSans-28"/>
     <use xlink:href="#DejaVuSans-2d" x="39.013672"/>
     <use xlink:href="#DejaVuSans-30" x="75.097656"/>
     <use xlink:href="#DejaVuSans-2e" x="138.720703"/>
     <use xlink:href="#DejaVuSans-33" x="170.507812"/>
     <use xlink:href="#DejaVuSans-30" x="234.130859"/>
     <use xlink:href="#DejaVuSans-2c" x="297.753906"/>
     <use xlink:href="#DejaVuSans-20" x="329.541016"/>
     <use xlink:href="#DejaVuSans-2d" x="361.328125"/>
     <use xlink:href="#DejaVuSans-30" x="397.412109"/>
     <use xlink:href="#DejaVuSans-2e" x="461.035156"/>
     <use xlink:href="#DejaVuSans-31" x="492.822266"/>
     <use xlink:href="#DejaVuSans-36" x="556.445312"/>
     <use xlink:href="#DejaVuSans-29" x="620.068359"/>
    </g>
   </g>
   <g id="text_33">
    <!-- (0.68, -1.23) -->
    <g transform="translate(237.693051 228.789819) scale(0.08 -0.08)">
     <use xlink:href="#DejaVuSans-28"/>
     <use xlink:href="#DejaVuSans-30" x="39.013672"/>
     <use xlink:href="#DejaVuSans-2e" x="102.636719"/>
     <use xlink:href="#DejaVuSans-36" x="134.423828"/>
     <use xlink:href="#DejaVuSans-38" x="198.046875"/>
     <use xlink:href="#DejaVuSans-2c" x="261.669922"/>
     <use xlink:href="#DejaVuSans-20" x="293.457031"/>
     <use xlink:href="#DejaVuSans-2d" x="325.244141"/>
     <use xlink:href="#DejaVuSans-31" x="361.328125"/>
     <use xlink:href="#DejaVuSans-2e" x="424.951172"/>
     <use xlink:href="#DejaVuSans-32" x="456.738281"/>
     <use xlink:href="#DejaVuSans-33" x="520.361328"/>
     <use xlink:href="#DejaVuSans-29" x="583.984375"/>
    </g>
   </g>
   <g id="legend_1"/>
  </g>
 </g>
 <defs>
  <clipPath id="p5626431f7d">
   <rect x="54" y="34.56" width="334.8" height="221.76"/>
  </clipPath>
 </defs>
</svg>
