<?xml version="1.0" encoding="UTF-8" standalone="no"?>
<svg xmlns:xlink="http://www.w3.org/1999/xlink" width="432pt" height="288pt" viewBox="0 0 432 288" xmlns="http://www.w3.org/2000/svg" version="1.1">
  <g>
    <circle cx="86.394065" cy="124.599912" r="3" style="fill: red;"/>
    <circle cx="197.408495" cy="243.36" r="3" style="fill: red;"/>
    <circle cx="84.752154" cy="58.939906" r="3" style="fill: blue;"/>
    <circle cx="80.475882" cy="57.100858" r="3" style="fill: blue;"/>
    <circle cx="85.115522" cy="54.648466" r="3" style="fill: blue;"/>
    <circle cx="92.459623" cy="41.76" r="3" style="fill: blue;"/>
    <circle cx="80.046268" cy="105.44424" r="3" style="fill: blue;"/>
    <circle cx="112.94094" cy="47.675289" r="3" style="fill: blue;"/>
    <circle cx="69.218182" cy="87.312744" r="3" style="fill: blue;"/>
    <circle cx="91.768258" cy="68.029674" r="3" style="fill: blue;"/>
    <circle cx="130.969093" cy="63.442461" r="3" style="fill: blue;"/>
    <circle cx="373.581818" cy="167.844958" r="3" style="fill: blue;"/>
    <circle cx="314.3782" cy="106.78337" r="3" style="fill: blue;"/>
    <circle cx="356.24526" cy="184.508781" r="3" style="fill: blue;"/>
    <circle cx="314.262407" cy="121.637883" r="3" style="fill: blue;"/>
    <circle cx="335.790911" cy="159.130153" r="3" style="fill: blue;"/>
    <circle cx="309.36396" cy="96.727216" r="3" style="fill: blue;"/>
    <circle cx="348.553993" cy="103.2619" r="3" style="fill: blue;"/>
    <circle cx="322.592375" cy="116.971391" r="3" style="fill: blue;"/>
    <circle cx="344.668069" cy="127.114847" r="3" style="fill: blue;"/>
    <circle cx="356.140271" cy="91.835876" r="3" style="fill: blue;"/>
  </g>
</svg>