<?xml version="1.0" standalone="no"?>
<!DOCTYPE svg PUBLIC "-//W3C//DTD SVG 1.1//EN" "http://www.w3.org/Graphics/SVG/1.1/DTD/svg11.dtd">
<svg width="432pt" height="288pt" viewBox="0 0 432 288" xmlns="http://www.w3.org/2000/svg" version="1.1">
  <g>
    <circle cx="139.987806" cy="41.76" r="3" fill="red"/>
    <circle cx="373.581818" cy="243.36" r="3" fill="red"/>
    <circle cx="129.959214" cy="63.593982" r="3" fill="blue"/>
    <circle cx="113.900046" cy="55.086346" r="3" fill="blue"/>
    <circle cx="119.164151" cy="63.370265" r="3" fill="blue"/>
    <circle cx="118.630664" cy="62.282411" r="3" fill="blue"/>
    <circle cx="114.390729" cy="66.477298" r="3" fill="blue"/>
    <circle cx="127.166158" cy="76.391274" r="3" fill="blue"/>
    <circle cx="132.538997" cy="59.455786" r="3" fill="blue"/>
    <circle cx="69.218182" cy="73.285396" r="3" fill="blue"/>
    <circle cx="136.124891" cy="64.146051" r="3" fill="blue"/>
    <circle cx="295.548925" cy="65.045375" r="3" fill="blue"/>
    <circle cx="319.703742" cy="61.748602" r="3" fill="blue"/>
    <circle cx="323.775888" cy="86.918994" r="3" fill="blue"/>
    <circle cx="299.93347" cy="48.972007" r="3" fill="blue"/>
    <circle cx="290.84216" cy="76.170244" r="3" fill="blue"/>
    <circle cx="316.100726" cy="44.315866" r="3" fill="blue"/>
    <circle cx="294.636014" cy="81.51834" r="3" fill="blue"/>
    <circle cx="285.7786" cy="54.362545" r="3" fill="blue"/>
    <circle cx="304.175599" cy="93.085482" r="3" fill="blue"/>
    <circle cx="261.432708" cy="58.806887" r="3" fill="blue"/>
  </g>
</svg>