<?xml version="1.0" encoding="utf-8"?>
<svg xmlns:xlink="http://www.w3.org/1999/xlink" width="432pt" height="288pt" viewBox="0 0 432 288" xmlns="http://www.w3.org/2000/svg" version="1.1">
 <g>
    <defs>
     <path id="m5015f3af41" d="M 0 3 
C 0.795609 3 1.55874 2.683901 2.12132 2.12132 
C 2.683901 1.55874 3 0.795609 3 0 
C 3 -0.795609 2.683901 -1.55874 2.12132 -2.12132 
C 1.55874 -2.683901 0.795609 -3 0 -3 
C -0.795609 -3 -1.55874 -2.683901 -2.12132 -2.12132 
C -2.683901 -1.55874 -3 -0.795609 -3 0 
C -3 0.795609 -2.683901 1.55874 -2.12132 2.12132 
C -1.55874 2.683901 -0.795609 3 0 3 
z"/>
    </defs>
    <g>
     <use xlink:href="#m5015f3af41" x="121.649774" y="194.081443" style="fill: #1f77b4; stroke: #1f77b4"/>
     <use xlink:href="#m5015f3af41" x="99.047718" y="154.067706" style="fill: #1f77b4; stroke: #1f77b4"/>
     <use xlink:href="#m5015f3af41" x="104.964609" y="183.68116" style="fill: #1f77b4; stroke: #1f77b4"/>
     <use xlink:href="#m5015f3af41" x="96.967315" y="229.894886" style="fill: red; stroke: red"/>
     <use xlink:href="#m5015f3af41" x="78.73437" y="212.144152" style="fill: #1f77b4; stroke: #1f77b4"/>
     <use xlink:href="#m5015f3af41" x="69.218182" y="108.976083" style="fill: #1f77b4; stroke: #1f77b4"/>
     <use xlink:href="#m5015f3af41" x="108.973513" y="72.160578" style="fill: red; stroke: red"/>
     <use xlink:href="#m5015f3af41" x="114.798122" y="246.24" style="fill: #1f77b4; stroke: #1f77b4"/>
     <use xlink:href="#m5015f3af41" x="71.661558" y="44.64" style="fill: #1f77b4; stroke: #1f77b4"/>
     <use xlink:href="#m5015f3af41" x="97.585224" y="166.898034" style="fill: #1f77b4; stroke: #1f77b4"/>
     <use xlink:href="#m5015f3af41" x="301.292874" y="228.607782" style="fill: #1f77b4; stroke: #1f77b4"/>
     <use xlink:href="#m5015f3af41" x="276.363795" y="154.358028" style="fill: #1f77b4; stroke: #1f77b4"/>
     <use xlink:href="#m5015f3af41" x="283.916814" y="131.700502" style="fill: #1f77b4; stroke: #1f77b4"/>
     <use xlink:href="#m5015f3af41" x="297.530808" y="107.026592" style="fill: #1f77b4; stroke: #1f77b4"/>
     <use xlink:href="#m5015f3af41" x="254.952162" y="141.8917" style="fill: #1f77b4; stroke: #1f77b4"/>
     <use xlink:href="#m5015f3af41" x="258.112206" y="139.208082" style="fill: #1f77b4; stroke: #1f77b4"/>
     <use xlink:href="#m5015f3af41" x="283.008837" y="57.903465" style="fill: #1f77b4; stroke: #1f77b4"/>
     <use xlink:href="#m5015f3af41" x="280.992293" y="195.085073" style="fill: #1f77b4; stroke: #1f77b4"/>
     <use xlink:href="#m5015f3af41" x="296.857353" y="147.2269" style="fill: #1f77b4; stroke: #1f77b4"/>
     <use xlink:href="#m5015f3af41" x="280.622575" y="68.484307" style="fill: #1f77b4; stroke: #1f77b4"/>
     <use xlink:href="#m5015f3af41" x="373.581818" y="146.063945" style="fill: #1f77b4; stroke: #1f77b4"/>
    </g>
 </g>
</svg>