<?xml version="1.0" encoding="utf-8"?>
<svg xmlns:xlink="http://www.w3.org/1999/xlink" width="432pt" height="288pt" viewBox="0 0 432 288" xmlns="http://www.w3.org/2000/svg" version="1.1">
 <defs>
  <style type="text/css">*{stroke-linejoin: round; stroke-linecap: butt}</style>
  <path id="mb5ed5f1b79" d="M 0 3 
C 0.795609 3 1.55874 2.683901 2.12132 2.12132 
C 2.683901 1.55874 3 0.795609 3 0 
C 3 -0.795609 2.683901 -1.55874 2.12132 -2.12132 
C 1.55874 -2.683901 0.795609 -3 0 -3 
C -0.795609 -3 -1.55874 -2.683901 -2.12132 -2.12132 
C -2.683901 -1.55874 -3 -0.795609 -3 0 
C -3 0.795609 -2.683901 1.55874 -2.12132 2.12132 
C -1.55874 2.683901 -0.795609 3 0 3 
z"/>
 </defs>
 <g>
  <use xlink:href="#mb5ed5f1b79" x="84.731905" y="185.811191" style="fill: #1f77b4; stroke: #1f77b4"/>
  <use xlink:href="#mb5ed5f1b79" x="93.331615" y="209.605056" style="fill: #1f77b4; stroke: #1f77b4"/>
  <use xlink:href="#mb5ed5f1b79" x="69.218182" y="175.073195" style="fill: #1f77b4; stroke: #1f77b4"/>
  <use xlink:href="#mb5ed5f1b79" x="100.110314" y="194.123319" style="fill: #1f77b4; stroke: #1f77b4"/>
  <use xlink:href="#mb5ed5f1b79" x="79.681123" y="185.938897" style="fill: #1f77b4; stroke: #1f77b4"/>
  <use xlink:href="#mb5ed5f1b79" x="79.604817" y="196.433615" style="fill: #1f77b4; stroke: #1f77b4"/>
  <use xlink:href="#mb5ed5f1b79" x="85.111279" y="179.72463" style="fill: #1f77b4; stroke: #1f77b4"/>
  <use xlink:href="#mb5ed5f1b79" x="71.751875" y="195.959548" style="fill: #1f77b4; stroke: #1f77b4"/>
  <use xlink:href="#mb5ed5f1b79" x="77.041401" y="198.709976" style="fill: #1f77b4; stroke: #1f77b4"/>
  <use xlink:href="#mb5ed5f1b79" x="90.751481" y="204.820052" style="fill: #1f77b4; stroke: #1f77b4"/>
  <use xlink:href="#mb5ed5f1b79" x="200.997782" y="228.546709" style="fill: #1f77b4; stroke: #1f77b4"/>
  <use xlink:href="#mb5ed5f1b79" x="218.066848" y="246.24" style="fill: red; stroke: red"/>
  <use xlink:href="#mb5ed5f1b79" x="189.748359" y="224.490668" style="fill: #1f77b4; stroke: #1f77b4"/>
  <use xlink:href="#mb5ed5f1b79" x="184.604564" y="226.13623" style="fill: #1f77b4; stroke: #1f77b4"/>
  <use xlink:href="#mb5ed5f1b79" x="184.679801" y="220.856491" style="fill: #1f77b4; stroke: #1f77b4"/>
  <use xlink:href="#mb5ed5f1b79" x="200.440543" y="240.785397" style="fill: #1f77b4; stroke: #1f77b4"/>
  <use xlink:href="#mb5ed5f1b79" x="192.973568" y="221.514171" style="fill: #1f77b4; stroke: #1f77b4"/>
  <use xlink:href="#mb5ed5f1b79" x="194.463979" y="226.137655" style="fill: #1f77b4; stroke: #1f77b4"/>
  <use xlink:href="#mb5ed5f1b79" x="176.853584" y="202.325722" style="fill: #1f77b4; stroke: #1f77b4"/>
  <use xlink:href="#mb5ed5f1b79" x="194.194508" y="228.64822" style="fill: #1f77b4; stroke: #1f77b4"/>
  <use xlink:href="#mb5ed5f1b79" x="373.581818" y="44.64" style="fill: green; stroke: green"/>
 </g>
</svg>