<?xml version="1.0" encoding="utf-8"?>
<svg xmlns:xlink="http://www.w3.org/1999/xlink" width="432pt" height="288pt" viewBox="0 0 432 288" xmlns="http://www.w3.org/2000/svg" version="1.1">
 <defs>
  <style type="text/css">*{stroke-linejoin: round; stroke-linecap: butt}</style>
  <path id="m667025045a" d="M 0 3 
C 0.795609 3 1.55874 2.683901 2.12132 2.12132 
C 2.683901 1.55874 3 0.795609 3 0 
C 3 -0.795609 2.683901 -1.55874 2.12132 -2.12132 
C 1.55874 -2.683901 0.795609 -3 0 -3 
C -0.795609 -3 -1.55874 -2.683901 -2.12132 -2.12132 
C -2.683901 -1.55874 -3 -0.795609 -3 0 
C -3 0.795609 -2.683901 1.55874 -2.12132 2.12132 
C -1.55874 2.683901 -0.795609 3 0 3 
z"/>
 </defs>
 <g>
  <use xlink:href="#m667025045a" x="108.642905" y="243.94592" style="fill: red; stroke: red;"/>
  <use xlink:href="#m667025045a" x="121.61615" y="221.471006" style="fill: #1f77b4;"/>
  <use xlink:href="#m667025045a" x="103.991581" y="246.24" style="fill: #1f77b4;"/>
  <use xlink:href="#m667025045a" x="94.07751" y="219.27681" style="fill: #1f77b4;"/>
  <use xlink:href="#m667025045a" x="85.58629" y="234.521457" style="fill: #1f77b4;"/>
  <use xlink:href="#m667025045a" x="123.959717" y="224.363407" style="fill: #1f77b4;"/>
  <use xlink:href="#m667025045a" x="81.885577" y="237.534931" style="fill: #1f77b4;"/>
  <use xlink:href="#m667025045a" x="109.301346" y="211.746877" style="fill: #1f77b4;"/>
  <use xlink:href="#m667025045a" x="122.481623" y="222.059293" style="fill: #1f77b4;"/>
  <use xlink:href="#m667025045a" x="69.218182" y="234.532546" style="fill: #1f77b4;"/>
  <use xlink:href="#m667025045a" x="301.731637" y="197.004355" style="fill: #1f77b4;"/>
  <use xlink:href="#m667025045a" x="301.376347" y="169.782337" style="fill: #1f77b4;"/>
  <use xlink:href="#m667025045a" x="298.044425" y="171.189416" style="fill: #1f77b4;"/>
  <use xlink:href="#m667025045a" x="284.815957" y="175.049375" style="fill: #1f77b4;"/>
  <use xlink:href="#m667025045a" x="321.91428" y="152.877921" style="fill: #1f77b4;"/>
  <use xlink:href="#m667025045a" x="327.587275" y="153.438615" style="fill: #1f77b4;"/>
  <use xlink:href="#m667025045a" x="285.873938" y="170.852322" style="fill: #1f77b4;"/>
  <use xlink:href="#m667025045a" x="325.940763" y="181.915993" style="fill: #1f77b4;"/>
  <use xlink:href="#m667025045a" x="324.776602" y="127.772743" style="fill: #1f77b4;"/>
  <use xlink:href="#m667025045a" x="373.581818" y="139.533203" style="fill: #1f77b4;"/>
  <use xlink:href="#m667025045a" x="241.940195" y="44.64" style="fill: red; stroke: red;"/>
 </g>
</svg>