<?xml version="1.0" encoding="utf-8"?>
<svg xmlns:xlink="http://www.w3.org/1999/xlink" width="432pt" height="288pt" viewBox="0 0 432 288" xmlns="http://www.w3.org/2000/svg" version="1.1">
  <g>
    <circle cx="113.18688" cy="41.76" r="3" fill="red"/>
    <circle cx="252.44857" cy="69.470761" r="3" fill="red"/>
    <circle cx="100.999074" cy="192.29474" r="3" fill="#1f77b4"/>
    <circle cx="137.446176" cy="223.197847" r="3" fill="#1f77b4"/>
    <circle cx="114.913638" cy="107.598466" r="3" fill="#1f77b4"/>
    <circle cx="122.959743" cy="165.950035" r="3" fill="#1f77b4"/>
    <circle cx="91.623604" cy="135.157712" r="3" fill="#1f77b4"/>
    <circle cx="69.218182" cy="146.676975" r="3" fill="#1f77b4"/>
    <circle cx="70.668931" cy="243.36" r="3" fill="#1f77b4"/>
    <circle cx="104.149802" cy="194.673616" r="3" fill="#1f77b4"/>
    <circle cx="92.030371" cy="149.986713" r="3" fill="#1f77b4"/>
    <circle cx="331.353371" cy="202.816919" r="3" fill="#1f77b4"/>
    <circle cx="355.982463" cy="93.443325" r="3" fill="#1f77b4"/>
    <circle cx="313.377233" cy="69.975715" r="3" fill="#1f77b4"/>
    <circle cx="345.194023" cy="79.581893" r="3" fill="#1f77b4"/>
    <circle cx="373.581818" cy="229.559276" r="3" fill="#1f77b4"/>
    <circle cx="335.705044" cy="156.323637" r="3" fill="#1f77b4"/>
    <circle cx="369.306285" cy="136.75246" r="3" fill="#1f77b4"/>
    <circle cx="334.913936" cy="135.038983" r="3" fill="#1f77b4"/>
    <circle cx="351.953363" cy="159.009478" r="3" fill="#1f77b4"/>
    <circle cx="370.656162" cy="135.331063" r="3" fill="#1f77b4"/>
  </g>
</svg>