<?xml version="1.0" encoding="UTF-8" standalone="no"?>
<svg xmlns="http://www.w3.org/2000/svg" width="432pt" height="288pt" viewBox="0 0 432 288" version="1.1">
  <g id="surface1">
    <circle cx="98.220413" cy="150.757093" r="3" fill="#ff0000"/>
    <circle cx="75.11167" cy="143.868361" r="3" fill="#ff0000"/>
    <circle cx="76.191506" cy="187.509189" r="3" fill="#ff0000"/>
    <circle cx="84.6782" cy="164.195641" r="3" fill="#ff0000"/>
    <circle cx="85.652079" cy="169.218164" r="3" fill="#ff0000"/>
    <circle cx="81.931815" cy="151.533744" r="3" fill="#ff0000"/>
    <circle cx="93.271705" cy="195.539006" r="3" fill="#ff0000"/>
    <circle cx="79.440701" cy="175.567503" r="3" fill="#ff0000"/>
    <circle cx="87.477141" cy="191.441849" r="3" fill="#ff0000"/>
    <circle cx="69.218182" cy="223.583165" r="3" fill="#ff0000"/>
    <circle cx="100.328564" cy="177.156427" r="3" fill="#ff0000"/>
    <circle cx="93.875749" cy="230.565045" r="3" fill="#ff0000"/>
    <circle cx="83.947141" cy="190.108721" r="3" fill="#ff0000"/>
    <circle cx="88.842551" cy="215.221615" r="3" fill="#ff0000"/>
    <circle cx="80.814134" cy="202.038675" r="3" fill="#ff0000"/>
    <circle cx="78.672461" cy="180.579229" r="3" fill="#ff0000"/>
    <circle cx="170.828639" cy="186.169254" r="3" fill="#0000ff"/>
    <circle cx="173.020869" cy="189.431468" r="3" fill="#0000ff"/>
    <circle cx="158.144144" cy="188.243035" r="3" fill="#0000ff"/>
    <circle cx="171.274866" cy="182.211718" r="3" fill="#0000ff"/>
    <circle cx="164.143559" cy="201.063715" r="3" fill="#0000ff"/>
    <circle cx="166.061072" cy="192.883537" r="3" fill="#0000ff"/>
    <circle cx="147.75443" cy="181.319043" r="3" fill="#0000ff"/>
    <circle cx="182.561232" cy="224.512721" r="3" fill="#0000ff"/>
    <circle cx="162.452957" cy="190.388552" r="3" fill="#0000ff"/>
    <circle cx="155.110076" cy="175.591398" r="3" fill="#0000ff"/>
    <circle cx="170.302035" cy="168.827402" r="3" fill="#0000ff"/>
    <circle cx="184.220291" cy="189.072976" r="3" fill="#0000ff"/>
    <circle cx="155.829977" cy="187.236781" r="3" fill="#0000ff"/>
    <circle cx="183.447154" cy="172.717436" r="3" fill="#0000ff"/>
    <circle cx="191.605958" cy="153.174906" r="3" fill="#0000ff"/>
    <circle cx="158.184532" cy="223.729445" r="3" fill="#0000ff"/>
    <circle cx="257.505001" cy="246.24" r="3" fill="#00ff00"/>
    <circle cx="247.808614" cy="184.936027" r="3" fill="#00ff00"/>
    <circle cx="250.422652" cy="185.173209" r="3" fill="#00ff00"/>
    <circle cx="248.741807" cy="172.616054" r="3" fill="#00ff00"/>
    <circle cx="276.143856" cy="223.552378" r="3" fill="#00ff00"/>
    <circle cx="279.099174" cy="213.980873" r="3" fill="#00ff00"/>
    <circle cx="261.074489" cy="222.216365" r="3" fill="#00ff00"/>
    <circle cx="268.281454" cy="214.236029" r="3" fill="#00ff00"/>
    <circle cx="290.103902" cy="229.422837" r="3" fill="#00ff00"/>
    <circle cx="233.929488" cy="157.329821" r="3" fill="#00ff00"/>
    <circle cx="237.693147" cy="187.066265" r="3" fill="#00ff00"/>
    <circle cx="263.222681" cy="206.763423" r="3" fill="#00ff00"/>
    <circle cx="249.604279" cy="175.113738" r="3" fill="#00ff00"/>
    <circle cx="237.158261" cy="235.494581" r="3" fill="#00ff00"/>
    <circle cx="267.421948" cy="222.213295" r="3" fill="#00ff00"/>
    <circle cx="246.065929" cy="134.684668" r="3" fill="#00ff00"/>
    <circle cx="373.581818" cy="44.64" r="3" fill="#ff00ff"/>
    <circle cx="368.552508" cy="93.732039" r="3" fill="#ff00ff"/>
  </g>
</svg>