<?xml version="1.0" encoding="UTF-8" standalone="no"?>
<svg xmlns:xlink="http://www.w3.org/1999/xlink" width="432pt" height="288pt" viewBox="0 0 432 288" xmlns="http://www.w3.org/2000/svg" version="1.1">
  <g id="figure_1">
    <g id="patch_1">
      <path d="M 0 288 L 432 288 L 432 0 L 0 0 L 0 288 z" style="fill: none"/>
    </g>
    <g id="axes_1">
      <g id="patch_2">
        <path d="M 54 256.32 L 388.8 256.32 L 388.8 34.56 L 54 34.56 z" style="fill: #ffffff"/>
      </g>
      <g id="PathCollection_1">
        <!-- Cluster 1 -->
        <circle cx="135.320679" cy="188.447944" r="3" style="fill: #ff0000;"/>
        <circle cx="112.063199" cy="161.946916" r="3" style="fill: #ff0000;"/>
        <circle cx="104.796614" cy="179.816891" r="3" style="fill: #ff0000;"/>
        <circle cx="109.426417" cy="175.48229" r="3" style="fill: #ff0000;"/>
        <circle cx="130.791095" cy="174.408453" r="3" style="fill: #ff0000;"/>
        <circle cx="95.2331" cy="158.872881" r="3" style="fill: #ff0000;"/>
        <circle cx="111.783212" cy="176.264943" r="3" style="fill: #ff0000;"/>
        <circle cx="109.079114" cy="166.070803" r="3" style="fill: #ff0000;"/>
        <circle cx="133.146939" cy="179.299315" r="3" style="fill: #ff0000;"/>
        <circle cx="69.218182" cy="176.158818" r="3" style="fill: #ff0000;"/>
        <circle cx="120.366125" cy="182.850175" r="3" style="fill: #ff0000;"/>
        <circle cx="84.80355" cy="168.913882" r="3" style="fill: #ff0000;"/>
        <circle cx="95.287445" cy="176.616079" r="3" style="fill: #ff0000;"/>
        <circle cx="109.172745" cy="176.651935" r="3" style="fill: #ff0000;"/>
        <circle cx="92.835229" cy="164.61019" r="3" style="fill: #ff0000;"/>
        <circle cx="79.142966" cy="166.304067" r="3" style="fill: #ff0000;"/>
        
        <!-- Cluster 2 -->
        <circle cx="219.848651" cy="213.49354" r="3" style="fill: #00ff00;"/>
        <circle cx="260.375752" cy="207.254654" r="3" style="fill: #00ff00;"/>
        <circle cx="193.618669" cy="196.07062" r="3" style="fill: #00ff00;"/>
        <circle cx="259.168463" cy="196.387471" r="3" style="fill: #00ff00;"/>
        <circle cx="211.820905" cy="200.748551" r="3" style="fill: #00ff00;"/>
        <circle cx="220.547007" cy="212.298313" r="3" style="fill: #00ff00;"/>
        <circle cx="170.890676" cy="195.445529" r="3" style="fill: #00ff00;"/>
        <circle cx="202.16423" cy="194.361587" r="3" style="fill: #00ff00;"/>
        <circle cx="180.177149" cy="187.190382" r="3" style="fill: #00ff00;"/>
        <circle cx="232.849023" cy="206.919811" r="3" style="fill: #00ff00;"/>
        <circle cx="255.949124" cy="212.862722" r="3" style="fill: #00ff00;"/>
        <circle cx="249.734388" cy="197.284049" r="3" style="fill: #00ff00;"/>
        <circle cx="221.753088" cy="198.859746" r="3" style="fill: #00ff00;"/>
        <circle cx="208.90555" cy="178.755949" r="3" style="fill: #00ff00;"/>
        <circle cx="212.870619" cy="200.472934" r="3" style="fill: #00ff00;"/>
        <circle cx="227.014743" cy="198.78403" r="3" style="fill: #00ff00;"/>
        
        <!-- Cluster 3 -->
        <circle cx="336.274389" cy="229.742253" r="3" style="fill: #0000ff;"/>
        <circle cx="315.900335" cy="217.597056" r="3" style="fill: #0000ff;"/>
        <circle cx="346.942595" cy="227.60461" r="3" style="fill: #0000ff;"/>
        <circle cx="318.754372" cy="243.036332" r="3" style="fill: #0000ff;"/>
        <circle cx="347.318926" cy="228.357241" r="3" style="fill: #0000ff;"/>
        <circle cx="332.382481" cy="217.019083" r="3" style="fill: #0000ff;"/>
        <circle cx="373.581818" cy="246.24" r="3" style="fill: #0000ff;"/>
        <circle cx="328.498727" cy="224.781628" r="3" style="fill: #0000ff;"/>
        <circle cx="346.686149" cy="230.423137" r="3" style="fill: #0000ff;"/>
        <circle cx="314.463256" cy="231.481646" r="3" style="fill: #0000ff;"/>
        <circle cx="305.653534" cy="220.633442" r="3" style="fill: #0000ff;"/>
        <circle cx="325.248063" cy="222.457524" r="3" style="fill: #0000ff;"/>
        <circle cx="348.334773" cy="218.057149" r="3" style="fill: #0000ff;"/>
        <circle cx="317.874592" cy="235.938252" r="3" style="fill: #0000ff;"/>
        <circle cx="334.661237" cy="221.647112" r="3" style="fill: #0000ff;"/>
        <circle cx="358.804208" cy="221.994072" r="3" style="fill: #0000ff;"/>
      </g>
    </g>
  </g>
</svg>