<?xml version="1.0" encoding="utf-8"?>
<svg xmlns:xlink="http://www.w3.org/1999/xlink" width="432pt" height="288pt" viewBox="0 0 432 288" xmlns="http://www.w3.org/2000/svg" version="1.1">
  <g id="figure_1">
    <g id="patch_1">
      <path d="M 0 288 L 432 288 L 432 0 L 0 0 L 0 288 z" style="fill: none"/>
    </g>
    <g id="axes_1">
      <g id="patch_2">
        <path d="M 54 256.32 L 388.8 256.32 L 388.8 34.56 L 54 34.56 z" style="fill: #ffffff"/>
      </g>
      <g id="PathCollection_1">
        <g clip-path="url(#p22640909d9)">
          <!-- Cluster 1 -->
          <circle cx="92.243208" cy="135.422885" r="3" style="fill: #ff0000;"/>
          <circle cx="86.50228" cy="137.762192" r="3" style="fill: #ff0000;"/>
          <circle cx="82.024208" cy="179.001524" r="3" style="fill: #ff0000;"/>
          <circle cx="74.109734" cy="150.059722" r="3" style="fill: #ff0000;"/>
          <circle cx="70.1205" cy="161.866973" r="3" style="fill: #ff0000;"/>
          <circle cx="71.958043" cy="169.892658" r="3" style="fill: #ff0000;"/>
          <circle cx="103.277736" cy="142.170625" r="3" style="fill: #ff0000;"/>
          <circle cx="117.085443" cy="154.506452" r="3" style="fill: #ff0000;"/>
          <circle cx="112.0873" cy="150.745624" r="3" style="fill: #ff0000;"/>
          <circle cx="101.895792" cy="181.267326" r="3" style="fill: #ff0000;"/>
          <circle cx="102.287753" cy="154.077637" r="3" style="fill: #ff0000;"/>
          <circle cx="118.346585" cy="156.333328" r="3" style="fill: #ff0000;"/>
          <circle cx="92.741652" cy="159.840349" r="3" style="fill: #ff0000;"/>
          <circle cx="76.77949" cy="157.716273" r="3" style="fill: #ff0000;"/>
          <circle cx="132.79768" cy="157.366213" r="3" style="fill: #ff0000;"/>
          <circle cx="69.218182" cy="139.139067" r="3" style="fill: #ff0000;"/>
          <!-- Cluster 2 -->
          <circle cx="230.786419" cy="117.509418" r="3" style="fill: #0000ff;"/>
          <circle cx="241.177333" cy="106.379751" r="3" style="fill: #0000ff;"/>
          <circle cx="226.229233" cy="120.459425" r="3" style="fill: #0000ff;"/>
          <circle cx="258.576324" cy="133.078881" r="3" style="fill: #0000ff;"/>
          <circle cx="228.158943" cy="108.557629" r="3" style="fill: #0000ff;"/>
          <circle cx="216.552814" cy="118.50718" r="3" style="fill: #0000ff;"/>
          <circle cx="208.424904" cy="112.477971" r="3" style="fill: #0000ff;"/>
          <circle cx="204.314908" cy="136.996786" r="3" style="fill: #0000ff;"/>
          <circle cx="201.516513" cy="150.395943" r="3" style="fill: #0000ff;"/>
          <circle cx="220.471224" cy="107.178009" r="3" style="fill: #0000ff;"/>
          <circle cx="182.680805" cy="154.246612" r="3" style="fill: #0000ff;"/>
          <circle cx="218.532876" cy="128.529049" r="3" style="fill: #0000ff;"/>
          <circle cx="246.506932" cy="126.065748" r="3" style="fill: #0000ff;"/>
          <circle cx="253.88414" cy="109.272685" r="3" style="fill: #0000ff;"/>
          <circle cx="220.527908" cy="133.117711" r="3" style="fill: #0000ff;"/>
          <circle cx="236.236428" cy="131.844674" r="3" style="fill: #0000ff;"/>
          <!-- Cluster 3 -->
          <circle cx="344.180245" cy="104.89726" r="3" style="fill: #00ff00;"/>
          <circle cx="313.446496" cy="99.390256" r="3" style="fill: #00ff00;"/>
          <circle cx="354.389947" cy="91.996685" r="3" style="fill: #00ff00;"/>
          <circle cx="363.255717" cy="108.463253" r="3" style="fill: #00ff00;"/>
          <circle cx="325.091123" cy="115.073718" r="3" style="fill: #00ff00;"/>
          <circle cx="358.661085" cy="107.843654" r="3" style="fill: #00ff00;"/>
          <circle cx="345.954571" cy="104.545299" r="3" style="fill: #00ff00;"/>
          <circle cx="317.990716" cy="93.794524" r="3" style="fill: #00ff00;"/>
          <circle cx="340.241255" cy="114.165408" r="3" style="fill: #00ff00;"/>
          <circle cx="360.990712" cy="104.204039" r="3" style="fill: #00ff00;"/>
          <circle cx="337.976375" cy="109.747975" r="3" style="fill: #00ff00;"/>
          <circle cx="317.51747" cy="97.87136" r="3" style="fill: #00ff00;"/>
          <circle cx="337.358456" cy="112.30877" r="3" style="fill: #00ff00;"/>
          <circle cx="317.244367" cy="97.565259" r="3" style="fill: #00ff00;"/>
          <circle cx="332.961415" cy="104.087549" r="3" style="fill: #00ff00;"/>
          <circle cx="325.125269" cy="112.445013" r="3" style="fill: #00ff00;"/>
        </g>
      </g>
    </g>
  </g>
</svg>