<?xml version="1.0" encoding="utf-8"?>
<svg xmlns:xlink="http://www.w3.org/1999/xlink" width="432pt" height="288pt" viewBox="0 0 432 288" xmlns="http://www.w3.org/2000/svg" version="1.1">
 <g id="figure_1">
  <g id="patch_1">
   <path d="M 0 288 L 432 288 L 432 0 L 0 0 z" style="fill: none"/>
  </g>
  <g id="axes_1">
   <g id="PathCollection_1">
    <defs>
     <path id="m04e53cd424" d="M 0 3 C 0.795609 3 1.55874 2.683901 2.12132 2.12132 C 2.683901 1.55874 3 0.795609 3 0 C 3 -0.795609 2.683901 -1.55874 2.12132 -2.12132 C 1.55874 -2.683901 0.795609 -3 0 -3 C -0.795609 -3 -1.55874 -2.683901 -2.12132 -2.12132 C -2.683901 -1.55874 -3 -0.795609 -3 0 C -3 0.795609 -2.683901 1.55874 -2.12132 2.12132 C -1.55874 2.683901 -0.795609 3 0 3 z" style="stroke: none;"/>
    </defs>
    <g>
     <use xlink:href="#m04e53cd424" x="161.189781" y="240.081318" style="fill: #1f77b4;"/>
     <use xlink:href="#m04e53cd424" x="181.041388" y="240.1977" style="fill: #1f77b4;"/>
     <use xlink:href="#m04e53cd424" x="170.281335" y="234.912129" style="fill: #1f77b4;"/>
     <use xlink:href="#m04e53cd424" x="160.43791" y="217.447761" style="fill: #ff7f0e;"/>
     <use xlink:href="#m04e53cd424" x="162.876486" y="221.26874" style="fill: #ff7f0e;"/>
     <use xlink:href="#m04e53cd424" x="178.520284" y="225.010828" style="fill: #ff7f0e;"/>
     <use xlink:href="#m04e53cd424" x="163.284224" y="223.796379" style="fill: #ff7f0e;"/>
     <use xlink:href="#m04e53cd424" x="161.184897" y="229.014049" style="fill: #ff7f0e;"/>
     <use xlink:href="#m04e53cd424" x="173.511248" y="246.24" style="fill: #1f77b4;"/>
     <use xlink:href="#m04e53cd424" x="195.168203" y="216.448701" style="fill: #ff7f0e;"/>
     <use xlink:href="#m04e53cd424" x="175.933144" y="222.621894" style="fill: #ff7f0e;"/>
     <use xlink:href="#m04e53cd424" x="179.157802" y="217.430943" style="fill: #ff7f0e;"/>
     <use xlink:href="#m04e53cd424" x="178.05657" y="224.290865" style="fill: #ff7f0e;"/>
     <use xlink:href="#m04e53cd424" x="186.277655" y="211.26408" style="fill: #ff7f0e;"/>
     <use xlink:href="#m04e53cd424" x="183.633942" y="237.867479" style="fill: #1f77b4;"/>
     <use xlink:href="#m04e53cd424" x="172.455623" y="220.953243" style="fill: #ff7f0e;"/>
     <use xlink:href="#m04e53cd424" x="239.617802" y="213.839882" style="fill: #2ca02c;"/>
     <use xlink:href="#m04e53cd424" x="241.167807" y="242.874698" style="fill: #2ca02c;"/>
     <use xlink:href="#m04e53cd424" x="264.012274" y="203.17855" style="fill: #2ca02c;"/>
     <use xlink:href="#m04e53cd424" x="261.770707" y="222.259194" style="fill: #2ca02c;"/>
     <use xlink:href="#m04e53cd424" x="242.240221" y="207.820333" style="fill: #2ca02c;"/>
     <use xlink:href="#m04e53cd424" x="289.052254" y="203.613503" style="fill: #2ca02c;"/>
     <use xlink:href="#m04e53cd424" x="281.494143" y="204.301513" style="fill: #2ca02c;"/>
     <use xlink:href="#m04e53cd424" x="254.063513" y="224.910184" style="fill: #2ca02c;"/>
     <use xlink:href="#m04e53cd424" x="237.713366" y="212.939539" style="fill: #2ca02c;"/>
     <use xlink:href="#m04e53cd424" x="257.789114" y="215.568002" style="fill: #2ca02c;"/>
     <use xlink:href="#m04e53cd424" x="272.92076" y="217.504556" style="fill: #2ca02c;"/>
     <use xlink:href="#m04e53cd424" x="254.954143" y="220.198297" style="fill: #2ca02c;"/>
     <use xlink:href="#m04e53cd424" x="266.179793" y="208.731656" style="fill: #2ca02c;"/>
     <use xlink:href="#m04e53cd424" x="253.692846" y="211.759768" style="fill: #2ca02c;"/>
     <use xlink:href="#m04e53cd424" x="239.193934" y="208.296499" style="fill: #2ca02c;"/>
     <use xlink:href="#m04e53cd424" x="281.977377" y="214.974894" style="fill: #2ca02c;"/>
     <use xlink:href="#m04e53cd424" x="334.581529" y="215.72854" style="fill: #d62728;"/>
     <use xlink:href="#m04e53cd424" x="338.158085" y="209.483109" style="fill: #d62728;"/>
     <use xlink:href="#m04e53cd424" x="343.804618" y="225.91304" style="fill: #d62728;"/>
     <use xlink:href="#m04e53cd424" x="340.143224" y="214.130777" style="fill: #d62728;"/>
     <use xlink:href="#m04e53cd424" x="372.16972" y="188.930091" style="fill: #d62728;"/>
     <use xlink:href="#m04e53cd424" x="373.581818" y="197.411547" style="fill: #d62728;"/>
     <use xlink:href="#m04e53cd424" x="345.852008" y="205.017165" style="fill: #d62728;"/>
     <use xlink:href="#m04e53cd424" x="349.662647" y="212.614859" style="fill: #d62728;"/>
     <use xlink:href="#m04e53cd424" x="354.097687" y="206.293505" style="fill: #d62728;"/>
     <use xlink:href="#m04e53cd424" x="334.278245" y="204.982242" style="fill: #d62728;"/>
     <use xlink:href="#m04e53cd424" x="352.283361" y="213.04618" style="fill: #d62728;"/>
     <use xlink:href="#m04e53cd424" x="350.027906" y="195.189345" style="fill: #d62728;"/>
     <use xlink:href="#m04e53cd424" x="329.108869" y="211.649972" style="fill: #d62728;"/>
     <use xlink:href="#m04e53cd424" x="365.972446" y="217.3162" style="fill: #d62728;"/>
     <use xlink:href="#m04e53cd424" x="352.325291" y="215.921285" style="fill: #d62728;"/>
     <use xlink:href="#m04e53cd424" x="355.043219" y="212.392214" style="fill: #d62728;"/>
     <use xlink:href="#m04e53cd424" x="69.218182" y="44.64" style="fill: #d62728;"/>
     <use xlink:href="#m04e53cd424" x="89.336649" y="219.846684" style="fill: #d62728;"/>
    </g>
   </g>
  </g>
 </g>
</svg>