<?xml version="1.0" encoding="utf-8" standalone="no"?>
<!DOCTYPE svg PUBLIC "-//W3C//DTD SVG 1.1//EN"
  "http://www.w3.org/Graphics/SVG/1.1/DTD/svg11.dtd">
<svg xmlns:xlink="http://www.w3.org/1999/xlink" width="432pt" height="288pt" viewBox="0 0 432 288" xmlns="http://www.w3.org/2000/svg" version="1.1">
 <g id="figure_1">
  <g id="PathCollection_1">
    <g>
     <!-- Cluster 1 -->
     <circle cx="77.996892" cy="191.155832" r="3" style="fill: red;"/>
     <circle cx="96.92169" cy="197.363436" r="3" style="fill: red;"/>
     <circle cx="72.730593" cy="183.061517" r="3" style="fill: red;"/>
     <circle cx="94.365121" cy="206.856789" r="3" style="fill: red;"/>
     <circle cx="76.259753" cy="193.549618" r="3" style="fill: red;"/>
     <circle cx="87.481586" cy="194.773871" r="3" style="fill: red;"/>
     <circle cx="83.105249" cy="204.904117" r="3" style="fill: red;"/>
     <circle cx="86.09902" cy="197.327917" r="3" style="fill: red;"/>
     <circle cx="69.218182" cy="190.5804" r="3" style="fill: red;"/>
     <circle cx="92.054165" cy="188.736173" r="3" style="fill: red;"/>
     <circle cx="89.652263" cy="186.987926" r="3" style="fill: red;"/>
     <circle cx="75.506481" cy="176.620029" r="3" style="fill: red;"/>
     <circle cx="80.233616" cy="195.141189" r="3" style="fill: red;"/>
     <circle cx="86.343935" cy="191.404231" r="3" style="fill: red;"/>
     <circle cx="75.654895" cy="178.473389" r="3" style="fill: red;"/>
     <circle cx="82.368723" cy="195.277493" r="3" style="fill: red;"/>
     
     <!-- Cluster 2 -->
     <circle cx="130.336417" cy="206.232285" r="3" style="fill: blue;"/>
     <circle cx="150.564704" cy="211.784152" r="3" style="fill: blue;"/>
     <circle cx="154.886814" cy="215.535259" r="3" style="fill: blue;"/>
     <circle cx="152.773902" cy="213.723172" r="3" style="fill: blue;"/>
     <circle cx="141.715775" cy="214.825191" r="3" style="fill: blue;"/>
     <circle cx="155.311679" cy="223.459397" r="3" style="fill: blue;"/>
     <circle cx="133.729079" cy="211.304948" r="3" style="fill: blue;"/>
     <circle cx="156.465957" cy="208.863717" r="3" style="fill: blue;"/>
     <circle cx="164.00679" cy="217.67355" r="3" style="fill: blue;"/>
     <circle cx="166.424762" cy="232.864129" r="3" style="fill: blue;"/>
     <circle cx="142.49236" cy="214.222196" r="3" style="fill: blue;"/>
     <circle cx="144.947583" cy="210.944682" r="3" style="fill: blue;"/>
     <circle cx="149.960722" cy="221.565775" r="3" style="fill: blue;"/>
     <circle cx="154.809233" cy="213.966897" r="3" style="fill: blue;"/>
     <circle cx="142.897559" cy="221.139712" r="3" style="fill: blue;"/>
     <circle cx="152.358188" cy="208.699503" r="3" style="fill: blue;"/>
     
     <!-- Cluster 3 -->
     <circle cx="224.036492" cy="235.088831" r="3" style="fill: green;"/>
     <circle cx="213.659251" cy="241.894505" r="3" style="fill: green;"/>
     <circle cx="210.596862" cy="234.695022" r="3" style="fill: green;"/>
     <circle cx="205.599475" cy="227.742838" r="3" style="fill: green;"/>
     <circle cx="225.331837" cy="229.11515" r="3" style="fill: green;"/>
     <circle cx="207.430921" cy="246.24" r="3" style="fill: green;"/>
     <circle cx="198.280023" cy="231.764136" r="3" style="fill: green;"/>
     <circle cx="211.090258" cy="236.799751" r="3" style="fill: green;"/>
     <circle cx="203.590677" cy="224.129483" r="3" style="fill: green;"/>
     <circle cx="207.356594" cy="245.139709" r="3" style="fill: green;"/>
     <circle cx="187.513246" cy="212.971509" r="3" style="fill: green;"/>
     <circle cx="216.112063" cy="228.293191" r="3" style="fill: green;"/>
     <circle cx="205.714465" cy="213.449914" r="3" style="fill: green;"/>
     <circle cx="206.21029" cy="226.616674" r="3" style="fill: green;"/>
     <circle cx="208.785397" cy="233.000762" r="3" style="fill: green;"/>
     <circle cx="226.555884" cy="216.33685" r="3" style="fill: green;"/>
     
     <!-- Cluster 4 -->
     <circle cx="373.581818" cy="228.672047" r="3" style="fill: orange;"/>
     <circle cx="316.161203" cy="44.64" r="3" style="fill: orange;"/>
    </g>
  </g>
 </g>
</svg>