<?xml version="1.0" encoding="utf-8" standalone="no"?>
<!DOCTYPE svg PUBLIC "-//W3C//DTD SVG 1.1//EN"
  "http://www.w3.org/Graphics/SVG/1.1/DTD/svg11.dtd">
<svg xmlns:xlink="http://www.w3.org/1999/xlink" width="432pt" height="288pt" viewBox="0 0 432 288" xmlns="http://www.w3.org/2000/svg" version="1.1">
 <g id="figure_1">
  <g id="PathCollection_1">
    <g clip-path="url(#pe7452cb82a)">
     <!-- Cluster 1 -->
     <circle cx="142.098516" cy="188.33987" r="3" style="fill: #ff0000;"/>
     <circle cx="145.663531" cy="189.077607" r="3" style="fill: #ff0000;"/>
     <circle cx="141.040332" cy="187.623036" r="3" style="fill: #ff0000;"/>
     <circle cx="144.245987" cy="198.339612" r="3" style="fill: #ff0000;"/>
     <circle cx="142.959381" cy="208.810064" r="3" style="fill: #ff0000;"/>
     <circle cx="135.09473" cy="176.081069" r="3" style="fill: #ff0000;"/>
     <circle cx="139.044349" cy="207.089449" r="3" style="fill: #ff0000;"/>
     <circle cx="148.516243" cy="182.014123" r="3" style="fill: #ff0000;"/>
     <circle cx="152.33063" cy="188.260729" r="3" style="fill: #ff0000;"/>
     <circle cx="158.336549" cy="186.419739" r="3" style="fill: #ff0000;"/>
     <circle cx="163.79265" cy="188.592919" r="3" style="fill: #ff0000;"/>
     <circle cx="160.047189" cy="198.765517" r="3" style="fill: #ff0000;"/>
     <!-- Cluster 2 -->
     <circle cx="243.84785" cy="161.193934" r="3" style="fill: #0000ff;"/>
     <circle cx="247.352973" cy="163.750987" r="3" style="fill: #0000ff;"/>
     <circle cx="234.833823" cy="168.850267" r="3" style="fill: #0000ff;"/>
     <circle cx="248.778453" cy="157.543664" r="3" style="fill: #0000ff;"/>
     <circle cx="235.407" cy="170.099472" r="3" style="fill: #0000ff;"/>
     <circle cx="250.171858" cy="163.411372" r="3" style="fill: #0000ff;"/>
     <circle cx="262.778042" cy="151.456623" r="3" style="fill: #0000ff;"/>
     <circle cx="235.519248" cy="164.440896" r="3" style="fill: #0000ff;"/>
     <circle cx="247.850312" cy="178.650806" r="3" style="fill: #0000ff;"/>
     <circle cx="215.427315" cy="161.555074" r="3" style="fill: #0000ff;"/>
     <circle cx="264.453102" cy="155.060131" r="3" style="fill: #0000ff;"/>
     <circle cx="238.391569" cy="175.255108" r="3" style="fill: #0000ff;"/>
     <circle cx="222.048863" cy="169.909431" r="3" style="fill: #0000ff;"/>
     <circle cx="242.647926" cy="153.46039" r="3" style="fill: #0000ff;"/>
     <circle cx="245.770805" cy="170.796006" r="3" style="fill: #0000ff;"/>
     <circle cx="242.632055" cy="163.325623" r="3" style="fill: #0000ff;"/>
     <!-- Cluster 3 -->
     <circle cx="337.210231" cy="129.070678" r="3" style="fill: #00ff00;"/>
     <circle cx="348.739691" cy="132.613053" r="3" style="fill: #00ff00;"/>
     <circle cx="338.785502" cy="140.559314" r="3" style="fill: #00ff00;"/>
     <circle cx="358.699929" cy="127.692872" r="3" style="fill: #00ff00;"/>
     <circle cx="333.111965" cy="146.801186" r="3" style="fill: #00ff00;"/>
     <circle cx="328.18048" cy="150.340011" r="3" style="fill: #00ff00;"/>
     <circle cx="339.106235" cy="139.115254" r="3" style="fill: #00ff00;"/>
     <circle cx="337.669863" cy="138.817908" r="3" style="fill: #00ff00;"/>
     <circle cx="328.430292" cy="127.803189" r="3" style="fill: #00ff00;"/>
     <circle cx="345.677717" cy="136.019439" r="3" style="fill: #00ff00;"/>
     <circle cx="347.044691" cy="119.500748" r="3" style="fill: #00ff00;"/>
     <circle cx="333.503189" cy="143.071069" r="3" style="fill: #00ff00;"/>
     <circle cx="334.790254" cy="136.497514" r="3" style="fill: #00ff00;"/>
     <circle cx="341.326972" cy="157.203682" r="3" style="fill: #00ff00;"/>
     <circle cx="330.903133" cy="141.738192" r="3" style="fill: #00ff00;"/>
     <circle cx="338.322251" cy="133.586851" r="3" style="fill: #00ff00;"/>
    </g>
   </g>
  </g>
 </g>
</svg>