<?xml version="1.0" encoding="UTF-8" standalone="no"?>
<svg width="432pt" height="288pt" viewBox="0 0 432 288" xmlns="http://www.w3.org/2000/svg" version="1.1">
    <g fill="none" stroke="black" stroke-width="2">
        <line x1="86.551317" y1="98.480212" x2="89.2354" y2="44.64"/>
        <line x1="128.890202" y1="82.488648" x2="109.900296" y2="63.88439"/>
        <line x1="148.460057" y1="68.835791" x2="98.594335" y2="93.321781"/>
        <line x1="69.218182" y1="104.000866" x2="118.692205" y2="82.863247"/>
        <line x1="94.985506" y1="117.967731" x2="130.882623" y2="136.306336"/>
        <line x1="373.581818" y1="177.434042" x2="333.803987" y2="197.748735"/>
        <line x1="364.573312" y1="202.72535" x2="317.14894" y2="153.181532"/>
        <line x1="310.159644" y1="208.000925" x2="329.805841" y2="161.099151"/>
        <line x1="308.904068" y1="164.532057" x2="373.291804" y2="151.13782"/>
        <line x1="341.983463" y1="200.620093" x2="367.613888" y2="197.024972"/>
        <line x1="222.423067" y1="246.24" x2="373.581818" y2="177.434042"/>
    </g>
    <g fill="#1f77b4" stroke="#1f77b4" stroke-width="1">
        <circle cx="86.551317" cy="98.480212" r="3"/>
        <circle cx="89.2354" cy="44.64" r="3"/>
        <circle cx="128.890202" cy="82.488648" r="3"/>
        <circle cx="109.900296" cy="63.88439" r="3"/>
        <circle cx="148.460057" cy="68.835791" r="3"/>
        <circle cx="98.594335" cy="93.321781" r="3"/>
        <circle cx="69.218182" cy="104.000866" r="3"/>
        <circle cx="118.692205" cy="82.863247" r="3"/>
        <circle cx="94.985506" cy="117.967731" r="3"/>
        <circle cx="130.882623" cy="136.306336" r="3"/>
        <circle cx="373.581818" cy="177.434042" r="3"/>
        <circle cx="333.803987" cy="197.748735" r="3"/>
        <circle cx="364.573312" cy="202.72535" r="3"/>
        <circle cx="317.14894" cy="153.181532" r="3"/>
        <circle cx="310.159644" cy="208.000925" r="3"/>
        <circle cx="329.805841" cy="161.099151" r="3"/>
        <circle cx="308.904068" cy="164.532057" r="3"/>
        <circle cx="373.291804" cy="151.13782" r="3"/>
        <circle cx="341.983463" cy="200.620093" r="3"/>
        <circle cx="367.613888" cy="197.024972" r="3"/>
        <circle cx="222.423067" cy="246.24" r="3"/>
    </g>
    <g fill="none" stroke="red" stroke-width="2">
        <line x1="69.218182" y1="104.000866" x2="373.581818" y2="177.434042"/>
    </g>
</svg>