<?xml version="1.0" standalone="no"?>
<!DOCTYPE svg PUBLIC "-//W3C//DTD SVG 20010904//EN"
 "http://www.w3.org/TR/2001/REC-SVG-20010904/DTD/svg10.dtd">
<svg version="1.0" xmlns="http://www.w3.org/2000/svg"
 width="432pt" height="288pt" viewBox="0 0 432 288">
<g id="surface1">
<g id="points" fill="#0000ff">
<circle cx="113.445577" cy="46.304291" r="3"/>
<circle cx="120.780959" cy="44.64" r="3"/>
<circle cx="108.989845" cy="65.459718" r="3"/>
<circle cx="113.244676" cy="79.46795" r="3"/>
<circle cx="115.327756" cy="99.247732" r="3"/>
<circle cx="103.134949" cy="63.638925" r="3"/>
<circle cx="109.876143" cy="69.187473" r="3"/>
<circle cx="117.343775" cy="79.887482" r="3"/>
<circle cx="136.700497" cy="67.237084" r="3"/>
<circle cx="69.218182" cy="81.556603" r="3"/>
<circle cx="361.147773" cy="147.985224" r="3"/>
<circle cx="318.968921" cy="122.630042" r="3"/>
<circle cx="341.06443" cy="131.996759" r="3"/>
<circle cx="364.386411" cy="162.58107" r="3"/>
<circle cx="322.407547" cy="114.948516" r="3"/>
<circle cx="359.029029" cy="97.364674" r="3"/>
<circle cx="373.581818" cy="158.248002" r="3"/>
<circle cx="333.97166" cy="151.638391" r="3"/>
<circle cx="352.600939" cy="150.075181" r="3"/>
<circle cx="315.050528" cy="133.467465" r="3"/>
<circle cx="363.959155" cy="246.24" r="3"/>
</g>
<g id="line" fill="none" stroke="#ff0000" stroke-width="2">
<path d="M54,256.32 L388.8,34.56"/>
</g>
</g>
</svg>