<?xml version="1.0" standalone="no"?>
<!DOCTYPE svg PUBLIC "-//W3C//DTD SVG 20010904//EN"
 "http://www.w3.org/TR/2001/REC-SVG-20010904/DTD/svg10.dtd">
<svg version="1.0" xmlns="http://www.w3.org/2000/svg"
 width="432.000000pt" height="288.000000pt" viewBox="0 0 432.000000 288.000000"
 preserveAspectRatio="xMidYMid meet">
<g transform="translate(0.000000,288.000000) scale(0.100000,-0.100000)"
fill="#000000" stroke="none">
<path d="M0 1440 l0 -1440 2160 0 2160 0 0 1440 0 1440 -2160 0 -2160 0 0
-1440z m4290 270 l0 -270 -215 0 -215 0 0 270 0 270 215 0 215 0 0 -270z"/>
<path d="M2047 2623 c-488 -488 -887 -888 -887 -890 0 -1 405 -4 900 -4 l900
0 0 894 0 894 -13 -13 c-7 -7 -404 -406 -900 -891z"/>
<path d="M120 120 l0 -120 900 0 900 0 -888 888 c-489 489 -888 892 -888 896
0 4 -4 7 -10 7 -5 0 -14 -3 -14 -7 0 -5 -404 -409 -898 -898 l-898 -898 0
-120z"/>
<path d="M120 2520 l0 -120 898 -898 897 -897 898 898 897 897 0 120 0 120
-1795 0 -1795 0 0 -120z"/>
<path d="M3120 2520 l0 -120 900 0 900 0 -888 888 c-489 489 -888 892 -888
896 0 4 -4 7 -10 7 -5 0 -14 -3 -14 -7 0 -5 -404 -409 -898 -898 l-898 -898 0
-120z"/>
<path fill="none" stroke="blue" stroke-width="10" d="M180 230 L370 170 L550 160 L730 175 L910 163 L1090 233 L1270 156 L1450 171 L1630 165 L1810 175 L1990 168 L2170 408 L2350 412 L2530 416 L2670 422 L2850 161 L3030 163 L3210 168 L3390 445 L3570 168 L3750 162 L3930 44"/>
</g>
</svg>