<?xml version="1.0" encoding="UTF-8" standalone="no"?>
<svg xmlns="http://www.w3.org/2000/svg" width="432pt" height="288pt" viewBox="0 0 432 288" version="1.1">
  <g id="surface1">
    <circle cx="87.333465" cy="205.882919" r="3" fill="blue" />
    <circle cx="85.726923" cy="200.028946" r="3" fill="blue" />
    <circle cx="83.065841" cy="152.921342" r="3" fill="blue" />
    <circle cx="69.218182" cy="161.977985" r="3" fill="blue" />
    <circle cx="74.425634" cy="246.24" r="3" fill="blue" />
    <circle cx="70.314491" cy="244.78998" r="3" fill="blue" />
    <circle cx="87.69581" cy="194.201878" r="3" fill="blue" />
    <circle cx="69.397643" cy="228.617008" r="3" fill="blue" />
    <circle cx="83.472299" cy="184.481961" r="3" fill="blue" />
    <circle cx="71.410225" cy="162.085548" r="3" fill="blue" />
    <circle cx="208.806668" cy="132.898196" r="3" fill="blue" />
    <circle cx="225.058152" cy="127.460101" r="3" fill="blue" />
    <circle cx="221.512042" cy="100.342867" r="3" fill="blue" />
    <circle cx="200.795245" cy="159.066778" r="3" fill="blue" />
    <circle cx="214.255773" cy="58.014458" r="3" fill="blue" />
    <circle cx="207.230415" cy="172.236708" r="3" fill="blue" />
    <circle cx="235.786464" cy="44.64" r="3" fill="blue" />
    <circle cx="218.678527" cy="124.734048" r="3" fill="blue" />
    <circle cx="189.518081" cy="178.449525" r="3" fill="blue" />
    <circle cx="208.505636" cy="155.480138" r="3" fill="blue" />
    <circle cx="373.581818" cy="170.598029" r="3" fill="blue" />
    <line x1="54" y1="256.32" x2="388.8" y2="34.56" stroke="red" stroke-width="2"/>
  </g>
</svg>