<?xml version="1.0" encoding="utf-8" standalone="no"?>
<!DOCTYPE svg PUBLIC "-//W3C//DTD SVG 1.1//EN"
  "http://www.w3.org/Graphics/SVG/1.1/DTD/svg11.dtd">
<svg xmlns:xlink="http://www.w3.org/1999/xlink" width="432pt" height="288pt" viewBox="0 0 432 288" xmlns="http://www.w3.org/2000/svg" version="1.1">
 <defs>
  <style type="text/css">*{stroke-linejoin: round; stroke-linecap: butt}</style>
 </defs>
 <g id="figure_1">
  <g id="patch_1">
   <path d="M 0 288 
L 432 288 
L 432 0 
L 0 0 
L 0 288 
z
" style="fill: none"/>
  </g>
  <g id="axes_1">
   <g id="patch_2">
    <path d="M 54 256.32 
L 388.8 256.32 
L 388.8 34.56 
L 54 34.56 
z
" style="fill: #ffffff"/>
   </g>
   <g id="patch_3">
    <path d="M 55.3392 256.32 
L 66.0528 256.32 
L 66.0528 202.530475 
L 55.3392 202.530475 
z
" clip-path="url(#p9403f6076d)" style="fill: #1f77b4"/>
   </g>
   <g id="patch_4">
    <path d="M 68.7312 256.32 
L 79.4448 256.32 
L 79.4448 190.496528 
L 68.7312 190.496528 
z
" clip-path="url(#p9403f6076d)" style="fill: #1f77b4"/>
   </g>
   <g id="patch_5">
    <path d="M 82.1232 256.32 
L 92.8368 256.32 
L 92.8368 181.786684 
L 82.1232 181.786684 
z
" clip-path="url(#p9403f6076d)" style="fill: #1f77b4"/>
   </g>
   <g id="patch_6">
    <path d="M 95.5152 256.32 
L 106.2288 256.32 
L 106.2288 184.955412 
L 95.5152 184.955412 
z
" clip-path="url(#p9403f6076d)" style="fill: #1f77b4"/>
   </g>
   <g id="patch_7">
    <path d="M 108.9072 256.32 
L 119.6208 256.32 
L 119.6208 188.887964 
L 108.9072 188.887964 
z
" clip-path="url(#p9403f6076d)" style="fill: #1f77b4"/>
   </g>
   <g id="patch_8">
    <path d="M 122.2992 256.32 
L 133.0128 256.32 
L 133.0128 175.477316 
L 122.2992 175.477316 
z
" clip-path="url(#p9403f6076d)" style="fill: #1f77b4"/>
   </g>
   <g id="patch_9">
    <path d="M 135.6912 256.32 
L 146.4048 256.32 
L 146.4048 174.568547 
L 135.6912 174.568547 
z
" clip-path="url(#p9403f6076d)" style="fill: #1f77b4"/>
   </g>
   <g id="patch_10">
    <path d="M 149.0832 256.32 
L 159.7968 256.32 
L 159.7968 190.852906 
L 149.0832 190.852906 
z
" clip-path="url(#p9403f6076d)" style="fill: #1f77b4"/>
   </g>
   <g id="patch_11">
    <path d="M 162.4752 256.32 
L 173.1888 256.32 
L 173.1888 183.521762 
L 162.4752 183.521762 
z
" clip-path="url(#p9403f6076d)" style="fill: #1f77b4"/>
   </g>
   <g id="patch_12">
    <path d="M 175.8672 256.32 
L 186.5808 256.32 
L 186.5808 185.228885 
L 175.8672 185.228885 
z
" clip-path="url(#p9403f6076d)" style="fill: #1f77b4"/>
   </g>
   <g id="patch_13">
    <path d="M 189.2592 256.32 
L 199.9728 256.32 
L 199.9728 208.539348 
L 189.2592 208.539348 
z
" clip-path="url(#p9403f6076d)" style="fill: #1f77b4"/>
   </g>
   <g id="patch_14">
    <path d="M 202.6512 256.32 
L 213.3648 256.32 
L 213.3648 212.81759 
L 202.6512 212.81759 
z
" clip-path="url(#p9403f6076d)" style="fill: #1f77b4"/>
   </g>
   <g id="patch_15">
    <path d="M 216.0432 256.32 
L 226.7568 256.32 
L 226.7568 188.14334 
L 216.0432 188.14334 
z
" clip-path="url(#p9403f6076d)" style="fill: #1f77b4"/>
   </g>
   <g id="patch_16">
    <path d="M 229.4352 256.32 
L 240.1488 256.32 
L 240.1488 184.743181 
L 229.4352 184.743181 
z
" clip-path="url(#p9403f6076d)" style="fill: #1f77b4"/>
   </g>
   <g id="patch_17">
    <path d="M 242.8272 256.32 
L 253.5408 256.32 
L 253.5408 54.72 
L 242.8272 54.72 
z
" clip-path="url(#p9403f6076d)" style="fill: red"/>
   </g>
   <g id="patch_18">
    <path d="M 256.2192 256.32 
L 266.9328 256.32 
L 266.9328 184.21185 
L 256.2192 184.21185 
z
" clip-path="url(#p9403f6076d)" style="fill: #1f77b4"/>
   </g>
   <g id="patch_19">
    <path d="M 269.6112 256.32 
L 280.3248 256.32 
L 280.3248 252.082551 
L 269.6112 252.082551 
z
" clip-path="url(#p9403f6076d)" style="fill: red"/>
   </g>
   <g id="patch_20">
    <path d="M 283.0032 256.32 
L 293.7168 256.32 
L 293.7168 203.519929 
L 283.0032 203.519929 
z
" clip-path="url(#p9403f6076d)" style="fill: #1f77b4"/>
   </g>
   <g id="patch_21">
    <path d="M 296.3952 256.32 
L 307.1088 256.32 
L 307.1088 196.26341 
L 296.3952 196.26341 
z
" clip-path="url(#p9403f6076d)" style="fill: #1f77b4"/>
   </g>
   <g id="patch_22">
    <path d="M 309.7872 256.32 
L 320.5008 256.32 
L 320.5008 200.577803 
L 309.7872 200.577803 
z
" clip-path="url(#p9403f6076d)" style="fill: #1f77b4"/>
   </g>
   <g id="patch_23">
    <path d="M 323.1792 256.32 
L 333.8928 256.32 
L 333.8928 171.608685 
L 323.1792 171.608685 
z
" clip-path="url(#p9403f6076d)" style="fill: #1f77b4"/>
   </g>
   <g id="patch_24">
    <path d="M 336.5712 256.32 
L 347.2848 256.32 
L 347.2848 213.236659 
L 336.5712 213.236659 
z
" clip-path="url(#p9403f6076d)" style="fill: #1f77b4"/>
   </g>
   <g id="patch_25">
    <path d="M 349.9632 256.32 
L 360.6768 256.32 
L 360.6768 192.663711 
L 349.9632 192.663711 
z
" clip-path="url(#p9403f6076d)" style="fill: #1f77b4"/>
   </g>
   <g id="patch_26">
    <path d="M 363.3552 256.32 
L 374.0688 256.32 
L 374.0688 190.839526 
L 363.3552 190.839526 
z
" clip-path="url(#p9403f6076d)" style="fill: #1f77b4"/>
   </g>
   <g id="patch_27">
    <path d="M 376.7472 256.32 
L 387.4608 256.32 
L 387.4608 180.916641 
L 376.7472 180.916641 
z
" clip-path="url(#p9403f6076d)" style="fill: #1f77b4"/>
   </g>
  </g>
 </g>
 <defs>
  <clipPath id="p9403f6076d">
   <rect x="54" y="34.56" width="334.8" height="221.76"/>
  </clipPath>
 </defs>
</svg>