<?xml version="1.0" encoding="utf-8"?>
<!DOCTYPE svg PUBLIC "-//W3C//DTD SVG 1.1//EN" "http://www.w3.org/Graphics/SVG/1.1/DTD/svg11.dtd">
<svg xmlns:xlink="http://www.w3.org/1999/xlink" width="432pt" height="288pt" viewBox="0 0 432 288" xmlns="http://www.w3.org/2000/svg" version="1.1">
 <defs>
  <style type="text/css">*{stroke-linejoin: round; stroke-linecap: butt}</style>
 </defs>
 <g id="figure_1">
  <g id="patch_1">
   <path d="M 0 288 
L 432 288 
L 432 0 
L 0 0 
L 0 288 
z
" style="fill: none"/>
  </g>
  <g id="axes_1">
   <g id="patch_2">
    <path d="M 54 256.32 
L 388.8 256.32 
L 388.8 34.56 
L 54 34.56 
z
" style="fill: #ffffff"/>
   </g>
   <g id="patch_3">
    <path d="M 55.3392 256.32 
L 66.0528 256.32 
L 66.0528 200.443484 
L 55.3392 200.443484 
z
" clip-path="url(#pbafd8b8c24)" style="fill: #1f77b4"/>
   </g>
   <g id="patch_4">
    <path d="M 68.7312 256.32 
L 79.4448 256.32 
L 79.4448 214.196248 
L 68.7312 214.196248 
z
" clip-path="url(#pbafd8b8c24)" style="fill: #1f77b4"/>
   </g>
   <g id="patch_5">
    <path d="M 82.1232 256.32 
L 92.8368 256.32 
L 92.8368 192.845582 
L 82.1232 192.845582 
z
" clip-path="url(#pbafd8b8c24)" style="fill: #1f77b4"/>
   </g>
   <g id="patch_6">
    <path d="M 95.5152 256.32 
L 106.2288 256.32 
L 106.2288 195.544051 
L 95.5152 195.544051 
z
" clip-path="url(#pbafd8b8c24)" style="fill: #1f77b4"/>
   </g>
   <g id="patch_7">
    <path d="M 108.9072 256.32 
L 119.6208 256.32 
L 119.6208 188.128699 
L 108.9072 188.128699 
z
" clip-path="url(#pbafd8b8c24)" style="fill: #1f77b4"/>
   </g>
   <g id="patch_8">
    <path d="M 122.2992 256.32 
L 133.0128 256.32 
L 133.0128 202.223414 
L 122.2992 202.223414 
z
" clip-path="url(#pbafd8b8c24)" style="fill: #1f77b4"/>
   </g>
   <g id="patch_9">
    <path d="M 135.6912 256.32 
L 146.4048 256.32 
L 146.4048 215.284973 
L 135.6912 215.284973 
z
" clip-path="url(#pbafd8b8c24)" style="fill: #1f77b4"/>
   </g>
   <g id="patch_10">
    <path d="M 149.0832 256.32 
L 159.7968 256.32 
L 159.7968 214.457373 
L 149.0832 214.457373 
z
" clip-path="url(#pbafd8b8c24)" style="fill: #1f77b4"/>
   </g>
   <g id="patch_11">
    <path d="M 162.4752 256.32 
L 173.1888 256.32 
L 173.1888 203.564723 
L 162.4752 203.564723 
z
" clip-path="url(#pbafd8b8c24)" style="fill: #1f77b4"/>
   </g>
   <g id="patch_12">
    <path d="M 175.8672 256.32 
L 186.5808 256.32 
L 186.5808 221.797939 
L 175.8672 221.797939 
z
" clip-path="url(#pbafd8b8c24)" style="fill: #1f77b4"/>
   </g>
   <g id="patch_13">
    <path d="M 189.2592 256.32 
L 199.9728 256.32 
L 199.9728 203.288225 
L 189.2592 203.288225 
z
" clip-path="url(#pbafd8b8c24)" style="fill: #1f77b4"/>
   </g>
   <g id="patch_14">
    <path d="M 202.6512 256.32 
L 213.3648 256.32 
L 213.3648 215.606975 
L 202.6512 215.606975 
z
" clip-path="url(#pbafd8b8c24)" style="fill: #1f77b4"/>
   </g>
   <g id="patch_15">
    <path d="M 216.0432 256.32 
L 226.7568 256.32 
L 226.7568 202.890521 
L 216.0432 202.890521 
z
" clip-path="url(#pbafd8b8c24)" style="fill: #1f77b4"/>
   </g>
   <g id="patch_16">
    <path d="M 229.4352 256.32 
L 240.1488 256.32 
L 240.1488 212.164258 
L 229.4352 212.164258 
z
" clip-path="url(#pbafd8b8c24)" style="fill: #1f77b4"/>
   </g>
   <g id="patch_17">
    <path d="M 242.8272 256.32 
L 253.5408 256.32 
L 253.5408 207.716468 
L 242.8272 207.716468 
z
" clip-path="url(#pbafd8b8c24)" style="fill: #1f77b4"/>
   </g>
   <g id="patch_18">
    <path d="M 256.2192 256.32 
L 266.9328 256.32 
L 266.9328 208.884864 
L 256.2192 208.884864 
z
" clip-path="url(#pbafd8b8c24)" style="fill: #1f77b4"/>
   </g>
   <g id="patch_19" style="fill: #ff7f0e">
    <path d="M 269.6112 256.32 
L 280.3248 256.32 
L 280.3248 54.72 
L 269.6112 54.72 
z
" clip-path="url(#pbafd8b8c24)" style="fill: #ff7f0e"/>
   </g>
   <g id="patch_20">
    <path d="M 283.0032 256.32 
L 293.7168 256.32 
L 293.7168 206.355872 
L 283.0032 206.355872 
z
" clip-path="url(#pbafd8b8c24)" style="fill: #1f77b4"/>
   </g>
   <g id="patch_21">
    <path d="M 296.3952 256.32 
L 307.1088 256.32 
L 307.1088 214.277974 
L 296.3952 214.277974 
z
" clip-path="url(#pbafd8b8c24)" style="fill: #1f77b4"/>
   </g>
   <g id="patch_22">
    <path d="M 309.7872 256.32 
L 320.5008 256.32 
L 320.5008 221.645023 
L 309.7872 221.645023 
z
" clip-path="url(#pbafd8b8c24)" style="fill: #1f77b4"/>
   </g>
   <g id="patch_23">
    <path d="M 323.1792 256.32 
L 333.8928 256.32 
L 333.8928 219.319301 
L 323.1792 219.319301 
z
" clip-path="url(#pbafd8b8c24)" style="fill: #1f77b4"/>
   </g>
   <g id="patch_24">
    <path d="M 336.5712 256.32 
L 347.2848 256.32 
L 347.2848 201.038287 
L 336.5712 201.038287 
z
" clip-path="url(#pbafd8b8c24)" style="fill: #1f77b4"/>
   </g>
   <g id="patch_25">
    <path d="M 349.9632 256.32 
L 360.6768 256.32 
L 360.6768 202.264083 
L 349.9632 202.264083 
z
" clip-path="url(#pbafd8b8c24)" style="fill: #1f77b4"/>
   </g>
   <g id="patch_26">
    <path d="M 363.3552 256.32 
L 374.0688 256.32 
L 374.0688 252.86811 
L 363.3552 252.86811 
z
" clip-path="url(#pbafd8b8c24)" style="fill: #1f77b4"/>
   </g>
   <g id="patch_27">
    <path d="M 376.7472 256.32 
L 387.4608 256.32 
L 387.4608 208.98429 
L 376.7472 208.98429 
z
" clip-path="url(#pbafd8b8c24)" style="fill: #1f77b4"/>
   </g>
  </g>
 </g>
 <defs>
  <clipPath id="pbafd8b8c24">
   <rect x="54" y="34.56" width="334.8" height="221.76"/>
  </clipPath>
 </defs>
</svg>