<?xml version="1.0" encoding="utf-8"?>
<svg xmlns:xlink="http://www.w3.org/1999/xlink" width="432pt" height="288pt" viewBox="0 0 432 288" xmlns="http://www.w3.org/2000/svg" version="1.1">
 <g>
   <g>
     <rect x="55.3392" y="213.159685" width="10.7136" height="43.160315" style="fill: #1f77b4"/>
     <rect x="68.7312" y="191.544326" width="10.7136" height="64.775674" style="fill: #1f77b4"/>
     <rect x="82.1232" y="252.155415" width="10.7136" height="4.164585" style="fill: red"/>
     <rect x="95.5152" y="189.341541" width="10.7136" height="66.978459" style="fill: #1f77b4"/>
     <rect x="108.9072" y="54.72" width="10.7136" height="201.6" style="fill: red"/>
     <rect x="122.2992" y="206.382463" width="10.7136" height="49.937537" style="fill: #1f77b4"/>
     <rect x="135.6912" y="209.305235" width="10.7136" height="47.014765" style="fill: #1f77b4"/>
     <rect x="149.0832" y="180.162879" width="10.7136" height="76.157121" style="fill: #1f77b4"/>
     <rect x="162.4752" y="204.006173" width="10.7136" height="52.313827" style="fill: #1f77b4"/>
     <rect x="175.8672" y="186.659765" width="10.7136" height="69.660235" style="fill: #1f77b4"/>
     <rect x="189.2592" y="188.14858" width="10.7136" height="68.17142" style="fill: #1f77b4"/>
     <rect x="202.6512" y="208.554079" width="10.7136" height="47.765921" style="fill: #1f77b4"/>
     <rect x="216.0432" y="208.297643" width="10.7136" height="47.022357" style="fill: #1f77b4"/>
     <rect x="229.4352" y="202.474345" width="10.7136" height="53.845655" style="fill: #1f77b4"/>
     <rect x="242.8272" y="197.609667" width="10.7136" height="58.710333" style="fill: #1f77b4"/>
     <rect x="256.2192" y="179.804358" width="10.7136" height="76.515642" style="fill: #1f77b4"/>
     <rect x="269.6112" y="181.907525" width="10.7136" height="74.412475" style="fill: #1f77b4"/>
     <rect x="283.0032" y="184.3088" width="10.7136" height="72.0112" style="fill: #1f77b4"/>
     <rect x="296.3952" y="202.152213" width="10.7136" height="54.167787" style="fill: #1f77b4"/>
     <rect x="309.7872" y="174.944489" width="10.7136" height="81.375511" style="fill: #1f77b4"/>
     <rect x="323.1792" y="210.259658" width="10.7136" height="46.060342" style="fill: #1f77b4"/>
     <rect x="336.5712" y="210.379522" width="10.7136" height="45.940478" style="fill: #1f77b4"/>
     <rect x="349.9632" y="202.076096" width="10.7136" height="54.243904" style="fill: #1f77b4"/>
     <rect x="363.3552" y="182.240553" width="10.7136" height="74.079447" style="fill: #1f77b4"/>
     <rect x="376.7472" y="196.870992" width="10.7136" height="59.449008" style="fill: #1f77b4"/>
   </g>
 </g>
</svg>