<?xml version="1.0" encoding="utf-8"?>
<!DOCTYPE svg PUBLIC "-//W3C//DTD SVG 1.1//EN" "http://www.w3.org/Graphics/SVG/1.1/DTD/svg11.dtd">
<svg xmlns:xlink="http://www.w3.org/1999/xlink" width="432pt" height="288pt" viewBox="0 0 432 288" xmlns="http://www.w3.org/2000/svg" version="1.1">
 <defs>
  <style type="text/css">*{stroke-linejoin: round; stroke-linecap: butt}</style>
 </defs>
 <g id="figure_1">
  <g id="axes_1">
   <g id="patch_3" style="fill: #1f77b4">
    <path d="M 55.3392 256.32 L 66.0528 256.32 L 66.0528 211.675518 L 55.3392 211.675518 z"/>
   </g>
   <g id="patch_4" style="fill: #1f77b4">
    <path d="M 68.7312 256.32 L 79.4448 256.32 L 79.4448 199.665665 L 68.7312 199.665665 z"/>
   </g>
   <g id="patch_5" style="fill: #1f77b4">
    <path d="M 82.1232 256.32 L 92.8368 256.32 L 92.8368 198.602003 L 82.1232 198.602003 z"/>
   </g>
   <g id="patch_6" style="fill: #1f77b4">
    <path d="M 95.5152 256.32 L 106.2288 256.32 L 106.2288 204.052438 L 95.5152 204.052438 z"/>
   </g>
   <g id="patch_7" style="fill: #ff0000">
    <path d="M 108.9072 256.32 L 119.6208 256.32 L 119.6208 54.72 L 108.9072 54.72 z"/>
   </g>
   <g id="patch_8" style="fill: #1f77b4">
    <path d="M 122.2992 256.32 L 133.0128 256.32 L 133.0128 215.046329 L 122.2992 215.046329 z"/>
   </g>
   <g id="patch_9" style="fill: #1f77b4">
    <path d="M 135.6912 256.32 L 146.4048 256.32 L 146.4048 213.734707 L 135.6912 213.734707 z"/>
   </g>
   <g id="patch_10" style="fill: #ff0000">
    <path d="M 149.0832 256.32 L 159.7968 256.32 L 159.7968 252.868304 L 149.0832 252.868304 z"/>
   </g>
   <g id="patch_11" style="fill: #1f77b4">
    <path d="M 162.4752 256.32 L 173.1888 256.32 L 173.1888 193.079811 L 162.4752 193.079811 z"/>
   </g>
   <g id="patch_12" style="fill: #1f77b4">
    <path d="M 175.8672 256.32 L 186.5808 256.32 L 186.5808 205.667976 L 175.8672 205.667976 z"/>
   </g>
   <g id="patch_13" style="fill: #1f77b4">
    <path d="M 189.2592 256.32 L 199.9728 256.32 L 199.9728 195.529757 L 189.2592 195.529757 z"/>
   </g>
   <g id="patch_14" style="fill: #1f77b4">
    <path d="M 202.6512 256.32 L 213.3648 256.32 L 213.3648 188.314701 L 202.6512 188.314701 z"/>
   </g>
   <g id="patch_15" style="fill: #1f77b4">
    <path d="M 216.0432 256.32 L 226.7568 256.32 L 226.7568 193.516495 L 216.0432 193.516495 z"/>
   </g>
   <g id="patch_16" style="fill: #1f77b4">
    <path d="M 229.4352 256.32 L 240.1488 256.32 L 240.1488 206.212994 L 229.4352 206.212994 z"/>
   </g>
   <g id="patch_17" style="fill: #1f77b4">
    <path d="M 242.8272 256.32 L 253.5408 256.32 L 253.5408 199.630011 L 242.8272 199.630011 z"/>
   </g>
   <g id="patch_18" style="fill: #1f77b4">
    <path d="M 256.2192 256.32 L 266.9328 256.32 L 266.9328 215.031183 L 256.2192 215.031183 z"/>
   </g>
   <g id="patch_19" style="fill: #1f77b4">
    <path d="M 269.6112 256.32 L 280.3248 256.32 L 280.3248 210.412296 L 269.6112 210.412296 z"/>
   </g>
   <g id="patch_20" style="fill: #1f77b4">
    <path d="M 283.0032 256.32 L 293.7168 256.32 L 293.7168 208.825204 L 283.0032 208.825204 z"/>
   </g>
   <g id="patch_21" style="fill: #1f77b4">
    <path d="M 296.3952 256.32 L 307.1088 256.32 L 307.1088 188.34721 L 296.3952 188.34721 z"/>
   </g>
   <g id="patch_22" style="fill: #1f77b4">
    <path d="M 309.7872 256.32 L 320.5008 256.32 L 320.5008 214.821172 L 309.7872 214.821172 z"/>
   </g>
   <g id="patch_23" style="fill: #1f77b4">
    <path d="M 323.1792 256.32 L 333.8928 256.32 L 333.8928 219.323986 L 323.1792 219.323986 z"/>
   </g>
   <g id="patch_24" style="fill: #1f77b4">
    <path d="M 336.5712 256.32 L 347.2848 256.32 L 347.2848 211.07936 L 336.5712 211.07936 z"/>
   </g>
   <g id="patch_25" style="fill: #1f77b4">
    <path d="M 349.9632 256.32 L 360.6768 256.32 L 360.6768 221.789349 L 349.9632 221.789349 z"/>
   </g>
   <g id="patch_26" style="fill: #1f77b4">
    <path d="M 363.3552 256.32 L 374.0688 256.32 L 374.0688 220.034289 L 363.3552 220.034289 z"/>
   </g>
   <g id="patch_27" style="fill: #1f77b4">
    <path d="M 376.7472 256.32 L 387.4608 256.32 L 387.4608 200.536443 L 376.7472 200.536443 z"/>
   </g>
  </g>
 </g>
</svg>