<?xml version="1.0" encoding="utf-8"?>
<svg xmlns:xlink="http://www.w3.org/1999/xlink" width="432pt" height="288pt" viewBox="0 0 432 288" xmlns="http://www.w3.org/2000/svg" version="1.1">
 <defs>
  <style type="text/css">*{stroke-linejoin: round; stroke-linecap: butt}</style>
 </defs>
 <g id="figure_1">
  <g id="patch_1">
   <path d="M 0 288 
L 432 288 
L 432 0 
L 0 0 
L 0 288 
z
" style="fill: none"/>
  </g>
  <g id="axes_1">
   <g id="patch_2">
    <path d="M 54 256.32 
L 388.8 256.32 
L 388.8 34.56 
L 54 34.56 
z
" style="fill: #ffffff"/>
   </g>
   <g id="patch_3">
    <path d="M 55.3392 256.32 
L 66.0528 256.32 
L 66.0528 209.390603 
L 55.3392 209.390603 
z
" clip-path="url(#p61507dbd69)" style="fill: #1f77b4"/>
   </g>
   <g id="patch_4">
    <path d="M 68.7312 256.32 
L 79.4448 256.32 
L 79.4448 184.29112 
L 68.7312 184.29112 
z
" clip-path="url(#p61507dbd69)" style="fill: #1f77b4"/>
   </g>
   <g id="patch_5">
    <path d="M 82.1232 256.32 
L 92.8368 256.32 
L 92.8368 201.825876 
L 82.1232 201.825876 
z
" clip-path="url(#p61507dbd69)" style="fill: #1f77b4"/>
   </g>
   <g id="patch_6">
    <path d="M 95.5152 256.32 
L 106.2288 256.32 
L 106.2288 180.644102 
L 95.5152 180.644102 
z
" clip-path="url(#p61507dbd69)" style="fill: #1f77b4"/>
   </g>
   <g id="patch_7">
    <path d="M 108.9072 256.32 
L 119.6208 256.32 
L 119.6208 183.173652 
L 108.9072 183.173652 
z
" clip-path="url(#p61507dbd69)" style="fill: #1f77b4"/>
   </g>
   <g id="patch_8">
    <path d="M 122.2992 256.32 
L 133.0128 256.32 
L 133.0128 208.893883 
L 122.2992 208.893883 
z
" clip-path="url(#p61507dbd69)" style="fill: #1f77b4"/>
   </g>
   <g id="patch_9">
    <path d="M 135.6912 256.32 
L 146.4048 256.32 
L 146.4048 195.591039 
L 135.6912 195.591039 
z
" clip-path="url(#p61507dbd69)" style="fill: #1f77b4"/>
   </g>
   <g id="patch_10">
    <path d="M 149.0832 256.32 
L 159.7968 256.32 
L 159.7968 197.692769 
L 149.0832 197.692769 
z
" clip-path="url(#p61507dbd69)" style="fill: #1f77b4"/>
   </g>
   <g id="patch_11">
    <path d="M 162.4752 256.32 
L 173.1888 256.32 
L 173.1888 202.441147 
L 162.4752 202.441147 
z
" clip-path="url(#p61507dbd69)" style="fill: #1f77b4"/>
   </g>
   <g id="patch_12">
    <path d="M 175.8672 256.32 
L 186.5808 256.32 
L 186.5808 214.825669 
L 175.8672 214.825669 
z
" clip-path="url(#p61507dbd69)" style="fill: #1f77b4"/>
   </g>
   <g id="patch_13">
    <path d="M 189.2592 256.32 
L 199.9728 256.32 
L 199.9728 212.845386 
L 189.2592 212.845386 
z
" clip-path="url(#p61507dbd69)" style="fill: #1f77b4"/>
   </g>
   <g id="patch_14">
    <path d="M 202.6512 256.32 
L 213.3648 256.32 
L 213.3648 190.901073 
L 202.6512 190.901073 
z
" clip-path="url(#p61507dbd69)" style="fill: #1f77b4"/>
   </g>
   <g id="patch_15">
    <path d="M 216.0432 256.32 
L 226.7568 256.32 
L 226.7568 212.722878 
L 216.0432 212.722878 
z
" clip-path="url(#p61507dbd69)" style="fill: #1f77b4"/>
   </g>
   <g id="patch_16">
    <path d="M 229.4352 256.32 
L 240.1488 256.32 
L 240.1488 187.499888 
L 229.4352 187.499888 
z
" clip-path="url(#p61507dbd69)" style="fill: #1f77b4"/>
   </g>
   <g id="patch_17">
    <path d="M 242.8272 256.32 
L 253.5408 256.32 
L 253.5408 190.863245 
L 242.8272 190.863245 
z
" clip-path="url(#p61507dbd69)" style="fill: #1f77b4"/>
   </g>
   <g id="patch_18">
    <path d="M 256.2192 256.32 
L 266.9328 256.32 
L 266.9328 205.646241 
L 256.2192 205.646241 
z
" clip-path="url(#p61507dbd69)" style="fill: #1f77b4"/>
   </g>
   <g id="patch_19">
    <path d="M 269.6112 256.32 
L 280.3248 256.32 
L 280.3248 181.140624 
L 269.6112 181.140624 
z
" clip-path="url(#p61507dbd69)" style="fill: #1f77b4"/>
   </g>
   <g id="patch_20">
    <path d="M 283.0032 256.32 
L 293.7168 256.32 
L 293.7168 188.512687 
L 283.0032 188.512687 
z
" clip-path="url(#p61507dbd69)" style="fill: #1f77b4"/>
   </g>
   <g id="patch_21">
    <path d="M 296.3952 256.32 
L 307.1088 256.32 
L 307.1088 213.186078 
L 296.3952 213.186078 
z
" clip-path="url(#p61507dbd69)" style="fill: #1f77b4"/>
   </g>
   <g id="patch_22">
    <path d="M 309.7872 256.32 
L 320.5008 256.32 
L 320.5008 206.695188 
L 309.7872 206.695188 
z
" clip-path="url(#p61507dbd69)" style="fill: #1f77b4"/>
   </g>
   <g id="patch_23">
    <path d="M 323.1792 256.32 
L 333.8928 256.32 
L 333.8928 252.472757 
L 323.1792 252.472757 
z
" clip-path="url(#p61507dbd69)" style="fill: #ff0000"/>
   </g>
   <g id="patch_24">
    <path d="M 336.5712 256.32 
L 347.2848 256.32 
L 347.2848 180.535453 
L 336.5712 180.535453 
z
" clip-path="url(#p61507dbd69)" style="fill: #1f77b4"/>
   </g>
   <g id="patch_25">
    <path d="M 349.9632 256.32 
L 360.6768 256.32 
L 360.6768 54.72 
L 349.9632 54.72 
z
" clip-path="url(#p61507dbd69)" style="fill: #ff0000"/>
   </g>
   <g id="patch_26">
    <path d="M 363.3552 256.32 
L 374.0688 256.32 
L 374.0688 204.60439 
L 363.3552 204.60439 
z
" clip-path="url(#p61507dbd69)" style="fill: #1f77b4"/>
   </g>
   <g id="patch_27">
    <path d="M 376.7472 256.32 
L 387.4608 256.32 
L 387.4608 189.641033 
L 376.7472 189.641033 
z
" clip-path="url(#p61507dbd69)" style="fill: #1f77b4"/>
   </g>
  </g>
 </g>
 <defs>
  <clipPath id="p61507dbd69">
   <rect x="54" y="34.56" width="334.8" height="221.76"/>
  </clipPath>
 </defs>
</svg>