<?xml version="1.0" encoding="utf-8"?>
<!DOCTYPE svg PUBLIC "-//W3C//DTD SVG 1.1//EN" "http://www.w3.org/Graphics/SVG/1.1/DTD/svg11.dtd">
<svg xmlns:xlink="http://www.w3.org/1999/xlink" width="432pt" height="288pt" viewBox="0 0 432 288" xmlns="http://www.w3.org/2000/svg" version="1.1">
 <defs>
  <style type="text/css">*{stroke-linejoin: round; stroke-linecap: butt}</style>
 </defs>
 <g id="figure_1">
  <g id="axes_1">
   <g id="patch_3" style="fill: #1f77b4">
    <rect x="55.3392" y="202.822515" width="10.7136" height="53.497485"/>
    <text x="55.3392" y="202.822515" font-size="10" fill="#ffffff" text-anchor="middle" transform="translate(60.696, 256.32)">6.66</text>
   </g>
   <g id="patch_4" style="fill: #1f77b4">
    <rect x="68.7312" y="204.075613" width="10.7136" height="52.244387"/>
    <text x="68.7312" y="204.075613" font-size="10" fill="#ffffff" text-anchor="middle" transform="translate(73.588, 256.32)">6.51</text>
   </g>
   <g id="patch_5" style="fill: #1f77b4">
    <rect x="82.1232" y="210.296773" width="10.7136" height="45.023227"/>
    <text x="82.1232" y="210.296773" font-size="10" fill="#ffffff" text-anchor="middle" transform="translate(87.48, 256.32)">5.73</text>
   </g>
   <g id="patch_6" style="fill: #1f77b4">
    <rect x="95.5152" y="203.665828" width="10.7136" height="52.654172"/>
    <text x="95.5152" y="203.665828" font-size="10" fill="#ffffff" text-anchor="middle" transform="translate(101.372, 256.32)">6.56</text>
   </g>
   <g id="patch_7" style="fill: #1f77b4">
    <rect x="108.9072" y="206.6286" width="10.7136" height="49.6914"/>
    <text x="108.9072" y="206.6286" font-size="10" fill="#ffffff" text-anchor="middle" transform="translate(115.264, 256.32)">6.19</text>
   </g>
   <g id="patch_8" style="fill: #1f77b4">
    <rect x="122.2992" y="193.527678" width="10.7136" height="62.792322"/>
    <text x="122.2992" y="193.527678" font-size="10" fill="#ffffff" text-anchor="middle" transform="translate(129.156, 256.32)">7.82</text>
   </g>
   <g id="patch_9" style="fill: #ff7f0e">
    <rect x="135.6912" y="252.304791" width="10.7136" height="3.015209"/>
    <text x="135.6912" y="252.304791" font-size="10" fill="#ffffff" text-anchor="middle" transform="translate(143.048, 256.32)">0.50</text>
   </g>
   <g id="patch_10" style="fill: #1f77b4">
    <rect x="149.0832" y="186.114026" width="10.7136" height="70.205974"/>
    <text x="149.0832" y="186.114026" font-size="10" fill="#ffffff" text-anchor="middle" transform="translate(156.94, 256.32)">8.74</text>
   </g>
   <g id="patch_11" style="fill: #1f77b4">
    <rect x="162.4752" y="199.313419" width="10.7136" height="57.006581"/>
    <text x="162.4752" y="199.313419" font-size="10" fill="#ffffff" text-anchor="middle" transform="translate(170.832, 256.32)">7.10</text>
   </g>
   <g id="patch_12" style="fill: #ff7f0e">
    <rect x="175.8672" y="54.72" width="10.7136" height="201.6"/>
    <text x="175.8672" y="54.72" font-size="10" fill="#ffffff" text-anchor="middle" transform="translate(184.724, 256.32)">25.10</text>
   </g>
   <g id="patch_13" style="fill: #1f77b4">
    <rect x="189.2592" y="179.325839" width="10.7136" height="76.994161"/>
    <text x="189.2592" y="179.325839" font-size="10" fill="#ffffff" text-anchor="middle" transform="translate(198.616, 256.32)">9.59</text>
   </g>
   <g id="patch_14" style="fill: #1f77b4">
    <rect x="202.6512" y="179.005478" width="10.7136" height="77.314522"/>
    <text x="202.6512" y="179.005478" font-size="10" fill="#ffffff" text-anchor="middle" transform="translate(212.508, 256.32)">9.63</text>
   </g>
   <g id="patch_15" style="fill: #1f77b4">
    <rect x="216.0432" y="210.093506" width="10.7136" height="46.226494"/>
    <text x="216.0432" y="210.093506" font-size="10" fill="#ffffff" text-anchor="middle" transform="translate(226.4, 256.32)">5.76</text>
   </g>
   <g id="patch_16" style="fill: #1f77b4">
    <rect x="229.4352" y="202.293394" width="10.7136" height="54.026606"/>
    <text x="229.4352" y="202.293394" font-size="10" fill="#ffffff" text-anchor="middle" transform="translate(240.292, 256.32)">6.73</text>
   </g>
   <g id="patch_17" style="fill: #1f77b4">
    <rect x="242.8272" y="214.118262" width="10.7136" height="42.201738"/>
    <text x="242.8272" y="214.118262" font-size="10" fill="#ffffff" text-anchor="middle" transform="translate(254.184, 256.32)">5.26</text>
   </g>
   <g id="patch_18" style="fill: #1f77b4">
    <rect x="256.2192" y="201.728648" width="10.7136" height="54.591352"/>
    <text x="256.2192" y="201.728648" font-size="10" fill="#ffffff" text-anchor="middle" transform="translate(268.076, 256.32)">6.80</text>
   </g>
   <g id="patch_19" style="fill: #1f77b4">
    <rect x="269.6112" y="186.734247" width="10.7136" height="69.585753"/>
    <text x="269.6112" y="186.734247" font-size="10" fill="#ffffff" text-anchor="middle" transform="translate(281.968, 256.32)">8.67</text>
   </g>
   <g id="patch_20" style="fill: #1f77b4">
    <rect x="283.0032" y="187.327229" width="10.7136" height="68.992771"/>
    <text x="283.0032" y="187.327229" font-size="10" fill="#ffffff" text-anchor="middle" transform="translate(295.86, 256.32)">8.59</text>
   </g>
   <g id="patch_21" style="fill: #1f77b4">
    <rect x="296.3952" y="205.949301" width="10.7136" height="50.370699"/>
    <text x="296.3952" y="205.949301" font-size="10" fill="#ffffff" text-anchor="middle" transform="translate(309.752, 256.32)">6.27</text>
   </g>
   <g id="patch_22" style="fill: #1f77b4">
    <rect x="309.7872" y="212.800344" width="10.7136" height="43.519656"/>
    <text x="309.7872" y="212.800344" font-size="10" fill="#ffffff" text-anchor="middle" transform="translate(323.644, 256.32)">5.42</text>
   </g>
   <g id="patch_23" style="fill: #1f77b4">
    <rect x="323.1792" y="176.825763" width="10.7136" height="79.494237"/>
    <text x="323.1792" y="176.825763" font-size="10" fill="#ffffff" text-anchor="middle" transform="translate(337.536, 256.32)">9.90</text>
   </g>
   <g id="patch_24" style="fill: #1f77b4">
    <rect x="336.5712" y="197.280751" width="10.7136" height="59.039249"/>
    <text x="336.5712" y="197.280751" font-size="10" fill="#ffffff" text-anchor="middle" transform="translate(351.428, 256.32)">7.35</text>
   </g>
   <g id="patch_25" style="fill: #1f77b4">
    <rect x="349.9632" y="176.285942" width="10.7136" height="80.034058"/>
    <text x="349.9632" y="176.285942" font-size="10" fill="#ffffff" text-anchor="middle" transform="translate(365.32, 256.32)">9.97</text>
   </g>
   <g id="patch_26" style="fill: #1f77b4">
    <rect x="363.3552" y="179.103136" width="10.7136" height="77.216864"/>
    <text x="363.3552" y="179.103136" font-size="10" fill="#ffffff" text-anchor="middle" transform="translate(379.212, 256.32)">9.62</text>
   </g>
   <g id="patch_27" style="fill: #1f77b4">
    <rect x="376.7472" y="196.942045" width="10.7136" height="59.377955"/>
    <text x="376.7472" y="196.942045" font-size="10" fill="#ffffff" text-anchor="middle" transform="translate(393.104, 256.32)">7.39</text>
   </g>
  </g>
 </g>
</svg>