<?xml version="1.0" encoding="utf-8"?>
<!DOCTYPE svg PUBLIC "-//W3C//DTD SVG 1.1//EN" "http://www.w3.org/Graphics/SVG/1.1/DTD/svg11.dtd">
<svg xmlns:xlink="http://www.w3.org/1999/xlink" width="432pt" height="288pt" viewBox="0 0 432 288" xmlns="http://www.w3.org/2000/svg" version="1.1">
 <g>
    <defs>
     <path id="madacd3828b" d="M 0 3 
C 0.795609 3 1.55874 2.683901 2.12132 2.12132 
C 2.683901 1.55874 3 0.795609 3 0 
C 3 -0.795609 2.683901 -1.55874 2.12132 -2.12132 
C 1.55874 -2.683901 0.795609 -3 0 -3 
C -0.795609 -3 -1.55874 -2.683901 -2.12132 -2.12132 
C -2.683901 -1.55874 -3 -0.795609 -3 0 
C -3 0.795609 -2.683901 1.55874 -2.12132 2.12132 
C -1.55874 2.683901 -0.795609 3 0 3 
z"/>
    </defs>
    <use xlink:href="#madacd3828b" x="69.218182" y="170.920789" style="fill: #1f77b4;"/>
    <use xlink:href="#madacd3828b" x="113.957304" y="199.830548" style="fill: #1f77b4;"/>
    <use xlink:href="#madacd3828b" x="114.440348" y="196.813436" style="fill: #1f77b4;"/>
    <use xlink:href="#madacd3828b" x="107.184829" y="210.458008" style="fill: #1f77b4;"/>
    <use xlink:href="#madacd3828b" x="120.668488" y="203.080412" style="fill: #1f77b4;"/>
    <use xlink:href="#madacd3828b" x="88.97278" y="195.288043" style="fill: #1f77b4;"/>
    <use xlink:href="#madacd3828b" x="99.114427" y="204.052371" style="fill: #1f77b4;"/>
    <use xlink:href="#madacd3828b" x="69.90539" y="205.365022" style="fill: #1f77b4;"/>
    <use xlink:href="#madacd3828b" x="83.630669" y="206.257982" style="fill: #1f77b4;"/>
    <use xlink:href="#madacd3828b" x="100.57294" y="211.33211" style="fill: #1f77b4;"/>
    <use xlink:href="#madacd3828b" x="259.971912" y="223.524078" style="fill: #1f77b4;"/>
    <use xlink:href="#madacd3828b" x="319.940578" y="246.24" style="fill: #1f77b4;"/>
    <use xlink:href="#madacd3828b" x="258.817335" y="215.907541" style="fill: #1f77b4;"/>
    <use xlink:href="#madacd3828b" x="277.034987" y="228.560753" style="fill: #1f77b4;"/>
    <use xlink:href="#madacd3828b" x="279.255492" y="222.094535" style="fill: #1f77b4;"/>
    <use xlink:href="#madacd3828b" x="269.586575" y="236.603638" style="fill: #1f77b4;"/>
    <use xlink:href="#madacd3828b" x="235.668416" y="227.488002" style="fill: #1f77b4;"/>
    <use xlink:href="#madacd3828b" x="277.738802" y="244.473453" style="fill: #1f77b4;"/>
    <use xlink:href="#madacd3828b" x="270.443771" y="232.905566" style="fill: #1f77b4;"/>
    <use xlink:href="#madacd3828b" x="267.377865" y="232.187939" style="fill: #1f77b4;"/>
    <use xlink:href="#madacd3828b" x="373.581818" y="44.64" style="fill: red;"/>
 </g>
</svg>