<?xml version="1.0" encoding="utf-8"?>
<!DOCTYPE svg PUBLIC "-//W3C//DTD SVG 1.1//EN" "http://www.w3.org/Graphics/SVG/1.1/DTD/svg11.dtd">
<svg xmlns:xlink="http://www.w3.org/1999/xlink" width="432pt" height="288pt" viewBox="0 0 432 288" xmlns="http://www.w3.org/2000/svg" version="1.1">
 <defs>
  <style type="text/css">*{stroke-linejoin: round; stroke-linecap: butt}</style>
  <path id="markerCircle" d="M 0 3 C 0.795609 3 1.55874 2.683901 2.12132 2.12132 C 2.683901 1.55874 3 0.795609 3 0 C 3 -0.795609 2.683901 -1.55874 2.12132 -2.12132 C 1.55874 -2.683901 0.795609 -3 0 -3 C -0.795609 -3 -1.55874 -2.683901 -2.12132 -2.12132 C -2.683901 -1.55874 -3 -0.795609 -3 0 C -3 0.795609 -2.683901 1.55874 -2.12132 2.12132 C -1.55874 2.683901 -0.795609 3 0 3 z" style="stroke: #1f77b4; stroke-opacity: 0.6"/>
  <path id="markerCircleOutlier" d="M 0 3 C 0.795609 3 1.55874 2.683901 2.12132 2.12132 C 2.683901 1.55874 3 0.795609 3 0 C 3 -0.795609 2.683901 -1.55874 2.12132 -2.12132 C 1.55874 -2.683901 0.795609 -3 0 -3 C -0.795609 -3 -1.55874 -2.683901 -2.12132 -2.12132 C -2.683901 -1.55874 -3 -0.795609 -3 0 C -3 0.795609 -2.683901 1.55874 -2.12132 2.12132 C -1.55874 2.683901 -0.795609 3 0 3 z" style="stroke: #ff0000; stroke-opacity: 0.6; fill: #ff0000; fill-opacity: 0.6"/>
 </defs>
 <g>
  <use xlink:href="#markerCircle" x="84.731905" y="185.811191"/>
  <use xlink:href="#markerCircle" x="93.331615" y="209.605056"/>
  <use xlink:href="#markerCircle" x="69.218182" y="175.073195"/>
  <use xlink:href="#markerCircle" x="100.110314" y="194.123319"/>
  <use xlink:href="#markerCircle" x="79.681123" y="185.938897"/>
  <use xlink:href="#markerCircle" x="79.604817" y="196.433615"/>
  <use xlink:href="#markerCircle" x="85.111279" y="179.72463"/>
  <use xlink:href="#markerCircle" x="71.751875" y="195.959548"/>
  <use xlink:href="#markerCircle" x="77.041401" y="198.709976"/>
  <use xlink:href="#markerCircle" x="90.751481" y="204.820052"/>
  <use xlink:href="#markerCircle" x="200.997782" y="228.546709"/>
  <use xlink:href="#markerCircle" x="218.066848" y="246.24"/>
  <use xlink:href="#markerCircle" x="189.748359" y="224.490668"/>
  <use xlink:href="#markerCircle" x="184.604564" y="226.13623"/>
  <use xlink:href="#markerCircle" x="184.679801" y="220.856491"/>
  <use xlink:href="#markerCircle" x="200.440543" y="240.785397"/>
  <use xlink:href="#markerCircle" x="192.973568" y="221.514171"/>
  <use xlink:href="#markerCircle" x="194.463979" y="226.137655"/>
  <use xlink:href="#markerCircle" x="176.853584" y="202.325722"/>
  <use xlink:href="#markerCircle" x="194.194508" y="228.64822"/>
  <use xlink:href="#markerCircleOutlier" x="373.581818" y="44.64"/>
 </g>
</svg>