<?xml version="1.0" encoding="UTF-8" standalone="no"?>
<svg xmlns:xlink="http://www.w3.org/1999/xlink" width="432pt" height="288pt" viewBox="0 0 432 288" xmlns="http://www.w3.org/2000/svg" version="1.1">
  <g>
    <circle cx="320.268597" cy="44.64" r="3" fill="#FF0000"/>
    <circle cx="69.218182" cy="191.164985" r="3" fill="#FF0000"/>
    <circle cx="161.417324" cy="212.215254" r="3" fill="#1f77b4"/>
    <circle cx="159.185741" cy="223.715225" r="3" fill="#1f77b4"/>
    <circle cx="151.663605" cy="203.305189" r="3" fill="#1f77b4"/>
    <circle cx="161.487429" cy="208.412164" r="3" fill="#1f77b4"/>
    <circle cx="180.546271" cy="224.232572" r="3" fill="#1f77b4"/>
    <circle cx="171.752583" cy="206.660866" r="3" fill="#1f77b4"/>
    <circle cx="149.389371" cy="196.398645" r="3" fill="#1f77b4"/>
    <circle cx="133.07151" cy="222.605198" r="3" fill="#1f77b4"/>
    <circle cx="158.272408" cy="208.674851" r="3" fill="#1f77b4"/>
    <circle cx="146.606653" cy="223.986683" r="3" fill="#1f77b4"/>
    <circle cx="162.29793" cy="218.282919" r="3" fill="#1f77b4"/>
    <circle cx="164.233187" cy="187.997713" r="3" fill="#1f77b4"/>
    <circle cx="160.150793" cy="228.681295" r="3" fill="#1f77b4"/>
    <circle cx="149.993602" cy="209.856425" r="3" fill="#1f77b4"/>
    <circle cx="136.843795" cy="196.612795" r="3" fill="#1f77b4"/>
    <circle cx="157.800805" cy="209.310385" r="3" fill="#1f77b4"/>
    <circle cx="240.193224" cy="225.733519" r="3" fill="#1f77b4"/>
    <circle cx="272.431285" cy="220.865197" r="3" fill="#1f77b4"/>
    <circle cx="282.110366" cy="230.747626" r="3" fill="#1f77b4"/>
    <circle cx="269.344501" cy="204.366494" r="3" fill="#1f77b4"/>
    <circle cx="270.829042" cy="200.502376" r="3" fill="#1f77b4"/>
    <circle cx="261.420839" cy="233.885481" r="3" fill="#1f77b4"/>
    <circle cx="252.784028" cy="236.091491" r="3" fill="#1f77b4"/>
    <circle cx="272.895707" cy="217.285209" r="3" fill="#1f77b4"/>
    <circle cx="259.834473" cy="232.301371" r="3" fill="#1f77b4"/>
    <circle cx="272.849611" cy="214.004447" r="3" fill="#1f77b4"/>
    <circle cx="260.90813" cy="222.117786" r="3" fill="#1f77b4"/>
    <circle cx="279.424606" cy="215.293699" r="3" fill="#1f77b4"/>
    <circle cx="258.216287" cy="201.806796" r="3" fill="#1f77b4"/>
    <circle cx="264.522906" cy="228.040085" r="3" fill="#1f77b4"/>
    <circle cx="237.507571" cy="228.811635" r="3" fill="#1f77b4"/>
    <circle cx="243.22154" cy="206.034526" r="3" fill="#1f77b4"/>
    <circle cx="365.595407" cy="217.369426" r="3" fill="#1f77b4"/>
    <circle cx="366.783166" cy="214.166051" r="3" fill="#1f77b4"/>
    <circle cx="361.557557" cy="211.797912" r="3" fill="#1f77b4"/>
    <circle cx="328.174838" cy="218.684852" r="3" fill="#1f77b4"/>
    <circle cx="371.948264" cy="205.821898" r="3" fill="#1f77b4"/>
    <circle cx="373.581818" cy="204.110786" r="3" fill="#1f77b4"/>
    <circle cx="359.074243" cy="206.320579" r="3" fill="#1f77b4"/>
    <circle cx="366.424961" cy="246.24" r="3" fill="#1f77b4"/>
    <circle cx="356.45977" cy="210.097264" r="3" fill="#1f77b4"/>
    <circle cx="363.229261" cy="217.88993" r="3" fill="#1f77b4"/>
    <circle cx="366.581045" cy="209.273232" r="3" fill="#1f77b4"/>
    <circle cx="355.191544" cy="198.460675" r="3" fill="#1f77b4"/>
    <circle cx="354.404195" cy="224.503025" r="3" fill="#1f77b4"/>
    <circle cx="356.56099" cy="233.392495" r="3" fill="#1f77b4"/>
    <circle cx="360.84521" cy="211.703405" r="3" fill="#1f77b4"/>
    <circle cx="348.961833" cy="209.340179" r="3" fill="#1f77b4"/>
  </g>
</svg>