<?xml version="1.0" encoding="utf-8"?>
<svg xmlns:xlink="http://www.w3.org/1999/xlink" width="432pt" height="288pt" viewBox="0 0 432 288" xmlns="http://www.w3.org/2000/svg" version="1.1">
 <g id="figure_1">
  <g id="line2d_13">
    <path d="M 69.218182 123.048884 
L 81.9 130.11985 
L 94.581818 118.392335 
L 107.263636 136.673841 
L 119.945455 129.674837 
L 132.627273 129.771557 
L 145.309091 44.64 
L 157.990909 144.532931 
L 170.672727 144.343583 
L 183.354545 128.808022 
L 196.036364 156.105145 
L 208.718182 139.08278 
L 221.4 139.109071 
L 234.081818 123.893917 
L 246.763636 154.371166 
L 259.445455 146.525261 
L 272.127273 153.895321 
L 284.809091 136.817581 
L 297.490909 156.923064 
L 310.172727 176.414815 
L 322.854545 246.24 
L 335.536364 161.896043 
L 348.218182 157.649359 
L 360.9 135.443099 
L 373.581818 164.061467 
" style="fill: none; stroke: #1f77b4; stroke-width: 1.5; stroke-linecap: square"/>
  </g>
  <g id="line2d_14">
    <path d="M 69.218182 123.048884 
L 81.9 130.11985 
L 94.581818 118.392335 
L 107.263636 136.673841 
L 119.945455 129.674837 
L 132.627273 129.771557 
L 145.309091 44.64 
L 157.990909 144.532931 
L 170.672727 144.343583 
L 183.354545 128.808022 
L 196.036364 156.105145 
L 208.718182 139.08278 
L 221.4 139.109071 
L 234.081818 123.893917 
L 246.763636 154.371166 
L 259.445455 146.525261 
L 272.127273 153.895321 
L 284.809091 136.817581 
L 297.490909 156.923064 
L 310.172727 176.414815 
L 322.854545 246.24 
L 335.536364 161.896043 
L 348.218182 157.649359 
L 360.9 135.443099 
L 373.581818 164.061467 
" style="fill: none; stroke: #ff7f0e; stroke-width: 1.5; stroke-linecap: square; stroke-dasharray: 5,5"/>
  </g>
 </g>
</svg>