<?xml version="1.0" encoding="utf-8"?>
<svg xmlns:xlink="http://www.w3.org/1999/xlink" width="432pt" height="288pt" viewBox="0 0 432 288" xmlns="http://www.w3.org/2000/svg" version="1.1">
 <defs>
  <path id="dataPoint" d="M 0 3 
C 0.795609 3 1.55874 2.683901 2.12132 2.12132 
C 2.683901 1.55874 3 0.795609 3 0 
C 3 -0.795609 2.683901 -1.55874 2.12132 -2.12132 
C 1.55874 -2.683901 0.795609 -3 0 -3 
C -0.795609 -3 -1.55874 -2.683901 -2.12132 -2.12132 
C -2.683901 -1.55874 -3 -0.795609 -3 0 
C -3 0.795609 -2.683901 1.55874 -2.12132 2.12132 
C -1.55874 2.683901 -0.795609 3 0 3 
z"/>
 </defs>
 <g>
  <!-- Data points satisfying Y > 0 are colored red, others remain blue -->
  <!-- Points satisfying criteria -->
  <use xlink:href="#dataPoint" x="69.218182" y="44.64" style="fill: red; stroke: red"/>
  
  <!-- Points not satisfying criteria -->
  <use xlink:href="#dataPoint" x="172.861241" y="195.297054" style="fill: #1f77b4; stroke: #1f77b4"/>
  <use xlink:href="#dataPoint" x="174.662597" y="233.678067" style="fill: #1f77b4; stroke: #1f77b4"/>
  <use xlink:href="#dataPoint" x="162.177049" y="221.405014" style="fill: #1f77b4; stroke: #1f77b4"/>
  <use xlink:href="#dataPoint" x="181.48698" y="222.608478" style="fill: #1f77b4; stroke: #1f77b4"/>
  <use xlink:href="#dataPoint" x="174.35447" y="221.530786" style="fill: #1f77b4; stroke: #1f77b4"/>
  <use xlink:href="#dataPoint" x="154.061639" y="209.776187" style="fill: #1f77b4; stroke: #1f77b4"/>
  <use xlink:href="#dataPoint" x="156.927414" y="216.436705" style="fill: #1f77b4; stroke: #1f77b4"/>
  <use xlink:href="#dataPoint" x="163.184066" y="210.093816" style="fill: #1f77b4; stroke: #1f77b4"/>
  <use xlink:href="#dataPoint" x="184.223904" y="214.32683" style="fill: #1f77b4; stroke: #1f77b4"/>
  <use xlink:href="#dataPoint" x="167.765216" y="215.414574" style="fill: #1f77b4; stroke: #1f77b4"/>
  <use xlink:href="#dataPoint" x="362.305749" y="227.37741" style="fill: #1f77b4; stroke: #1f77b4"/>
  <use xlink:href="#dataPoint" x="313.760371" y="244.235525" style="fill: #1f77b4; stroke: #1f77b4"/>
  <use xlink:href="#dataPoint" x="319.247168" y="244.829959" style="fill: #1f77b4; stroke: #1f77b4"/>
  <use xlink:href="#dataPoint" x="364.860298" y="234.54389" style="fill: #1f77b4; stroke: #1f77b4"/>
  <use xlink:href="#dataPoint" x="373.581818" y="229.776999" style="fill: #1f77b4; stroke: #1f77b4"/>
  <use xlink:href="#dataPoint" x="336.526917" y="230.301842" style="fill: #1f77b4; stroke: #1f77b4"/>
  <use xlink:href="#dataPoint" x="372.988955" y="246.24" style="fill: #1f77b4; stroke: #1f77b4"/>
  <use xlink:href="#dataPoint" x="338.698949" y="240.366254" style="fill: #1f77b4; stroke: #1f77b4"/>
  <use xlink:href="#dataPoint" x="355.727597" y="242.956654" style="fill: #1f77b4; stroke: #1f77b4"/>
  <use xlink:href="#dataPoint" x="310.146843" y="239.964656" style="fill: #1f77b4; stroke: #1f77b4"/>
 </g>
</svg>