<?xml version="1.0" encoding="utf-8"?>
<svg xmlns:xlink="http://www.w3.org/1999/xlink" width="432pt" height="288pt" viewBox="0 0 432 288" xmlns="http://www.w3.org/2000/svg" version="1.1">
 <defs>
  <path id="m32efad7cec" d="M 0 3 
C 0.795609 3 1.55874 2.683901 2.12132 2.12132 
C 2.683901 1.55874 3 0.795609 3 0 
C 3 -0.795609 2.683901 -1.55874 2.12132 -2.12132 
C 1.55874 -2.683901 0.795609 -3 0 -3 
C -0.795609 -3 -1.55874 -2.683901 -2.12132 -2.12132 
C -2.683901 -1.55874 -3 -0.795609 -3 0 
C -3 0.795609 -2.683901 1.55874 -2.12132 2.12132 
C -1.55874 2.683901 -0.795609 3 0 3 
z"/>
 </defs>
 <g>
  <use xlink:href="#m32efad7cec" x="188.265894" y="200.810472" style="fill: #ff0000; stroke: #ff0000"/>
  <use xlink:href="#m32efad7cec" x="197.094247" y="203.701841" style="fill: #ff0000; stroke: #ff0000"/>
  <use xlink:href="#m32efad7cec" x="176.869696" y="232.44701" style="fill: #ff0000; stroke: #ff0000"/>
  <use xlink:href="#m32efad7cec" x="180.077693" y="244.014744" style="fill: #ff0000; stroke: #ff0000"/>
  <use xlink:href="#m32efad7cec" x="209.604058" y="192.781155" style="fill: #ff0000; stroke: #ff0000"/>
  <use xlink:href="#m32efad7cec" x="208.975132" y="237.684593" style="fill: #ff0000; stroke: #ff0000"/>
  <use xlink:href="#m32efad7cec" x="186.365276" y="210.716266" style="fill: #ff0000; stroke: #ff0000"/>
  <use xlink:href="#m32efad7cec" x="159.292624" y="221.786417" style="fill: #ff0000; stroke: #ff0000"/>
  <use xlink:href="#m32efad7cec" x="214.260275" y="226.377487" style="fill: #ff0000; stroke: #ff0000"/>
  <use xlink:href="#m32efad7cec" x="211.455709" y="205.422078" style="fill: #ff0000; stroke: #ff0000"/>
  <use xlink:href="#m32efad7cec" x="350.680023" y="213.041459" style="fill: #ff0000; stroke: #ff0000"/>
  <use xlink:href="#m32efad7cec" x="340.398841" y="227.910871" style="fill: #ff0000; stroke: #ff0000"/>
  <use xlink:href="#m32efad7cec" x="359.107561" y="222.262551" style="fill: #ff0000; stroke: #ff0000"/>
  <use xlink:href="#m32efad7cec" x="324.3585" y="246.24" style="fill: #ff0000; stroke: #ff0000"/>
  <use xlink:href="#m32efad7cec" x="363.308079" y="230.225841" style="fill: #ff0000; stroke: #ff0000"/>
  <use xlink:href="#m32efad7cec" x="325.650174" y="232.825423" style="fill: #ff0000; stroke: #ff0000"/>
  <use xlink:href="#m32efad7cec" x="365.331852" y="217.06022" style="fill: #ff0000; stroke: #ff0000"/>
  <use xlink:href="#m32efad7cec" x="371.309016" y="216.276265" style="fill: #ff0000; stroke: #ff0000"/>
  <use xlink:href="#m32efad7cec" x="370.249181" y="199.611949" style="fill: #ff0000; stroke: #ff0000"/>
  <use xlink:href="#m32efad7cec" x="373.581818" y="234.508913" style="fill: #ff0000; stroke: #ff0000"/>
  <use xlink:href="#m32efad7cec" x="69.218182" y="44.64" style="fill: #1f77b4; stroke: #1f77b4"/>
 </g>
</svg>