<?xml version="1.0" encoding="utf-8"?>
<svg xmlns:xlink="http://www.w3.org/1999/xlink" width="432pt" height="288pt" viewBox="0 0 432 288" xmlns="http://www.w3.org/2000/svg" version="1.1">
 <g>
  <circle cx="373.581818" cy="41.76" r="3" style="fill: red;"/>
  <circle cx="358.76479" cy="243.36" r="3" style="fill: red;"/>
  <circle cx="121.611333" cy="162.269037" r="3" style="fill: blue;"/>
  <circle cx="107.331095" cy="206.415143" r="3" style="fill: blue;"/>
  <circle cx="109.002161" cy="179.100738" r="3" style="fill: blue;"/>
  <circle cx="79.788911" cy="199.038934" r="3" style="fill: blue;"/>
  <circle cx="113.236623" cy="175.011823" r="3" style="fill: blue;"/>
  <circle cx="110.90159" cy="163.225345" r="3" style="fill: blue;"/>
  <circle cx="117.924562" cy="198.601373" r="3" style="fill: blue;"/>
  <circle cx="69.218182" cy="215.441319" r="3" style="fill: blue;"/>
  <circle cx="96.185742" cy="174.923111" r="3" style="fill: blue;"/>
  <circle cx="95.320216" cy="175.266443" r="3" style="fill: blue;"/>
  <circle cx="108.849985" cy="227.181563" r="3" style="fill: blue;"/>
  <circle cx="95.288278" cy="203.733867" r="3" style="fill: blue;"/>
  <circle cx="125.192957" cy="188.764414" r="3" style="fill: blue;"/>
  <circle cx="114.517202" cy="210.357645" r="3" style="fill: blue;"/>
  <circle cx="92.720625" cy="215.629955" r="3" style="fill: blue;"/>
  <circle cx="132.120948" cy="187.922013" r="3" style="fill: blue;"/>
  <circle cx="186.1685" cy="155.272837" r="3" style="fill: blue;"/>
  <circle cx="175.9096" cy="182.803222" r="3" style="fill: blue;"/>
  <circle cx="208.442459" cy="131.281535" r="3" style="fill: blue;"/>
  <circle cx="210.002358" cy="124.180928" r="3" style="fill: blue;"/>
  <circle cx="186.839793" cy="158.887014" r="3" style="fill: blue;"/>
  <circle cx="218.674661" cy="137.162158" r="3" style="fill: blue;"/>
  <circle cx="203.396905" cy="153.134008" r="3" style="fill: blue;"/>
  <circle cx="184.784749" cy="126.697093" r="3" style="fill: blue;"/>
  <circle cx="177.959701" cy="146.434213" r="3" style="fill: blue;"/>
  <circle cx="204.580204" cy="123.428909" r="3" style="fill: blue;"/>
  <circle cx="193.854796" cy="135.016592" r="3" style="fill: blue;"/>
  <circle cx="189.615671" cy="145.28969" r="3" style="fill: blue;"/>
  <circle cx="172.671709" cy="174.040679" r="3" style="fill: blue;"/>
  <circle cx="195.4403" cy="149.863987" r="3" style="fill: blue;"/>
  <circle cx="178.822805" cy="119.840097" r="3" style="fill: blue;"/>
  <circle cx="218.889968" cy="126.664549" r="3" style="fill: blue;"/>
  <circle cx="286.436324" cy="103.880023" r="3" style="fill: blue;"/>
  <circle cx="284.965" cy="83.55864" r="3" style="fill: blue;"/>
  <circle cx="299.384013" cy="125.734764" r="3" style="fill: blue;"/>
  <circle cx="289.226776" cy="88.012509" r="3" style="fill: blue;"/>
  <circle cx="288.000281" cy="97.703501" r="3" style="fill: blue;"/>
  <circle cx="278.731214" cy="108.208287" r="3" style="fill: blue;"/>
  <circle cx="299.079721" cy="89.06363" r="3" style="fill: blue;"/>
  <circle cx="268.128559" cy="129.720338" r="3" style="fill: blue;"/>
  <circle cx="276.953341" cy="94.21633" r="3" style="fill: blue;"/>
  <circle cx="283.873996" cy="86.253085" r="3" style="fill: blue;"/>
  <circle cx="305.129888" cy="89.557735" r="3" style="fill: blue;"/>
  <circle cx="296.025436" cy="96.939719" r="3" style="fill: blue;"/>
  <circle cx="279.161634" cy="94.964054" r="3" style="fill: blue;"/>
  <circle cx="264.908146" cy="113.803327" r="3" style="fill: blue;"/>
  <circle cx="280.024112" cy="93.21016" r="3" style="fill: blue;"/>
  <circle cx="301.657149" cy="86.393602" r="3" style="fill: blue;"/>
 </g>
</svg>