<?xml version="1.0" standalone="no"?>
<!DOCTYPE svg PUBLIC "-//W3C//DTD SVG 1.1//EN" "http://www.w3.org/Graphics/SVG/1.1/DTD/svg11.dtd">
<svg width="432pt" height="288pt" viewBox="0 0 432 288" xmlns="http://www.w3.org/2000/svg" version="1.1">
  <g>
    <circle cx="271.760137" cy="41.84001" r="3" fill="red"/>
    <circle cx="373.581818" cy="243.36" r="3" fill="red"/>
    <circle cx="136.863163" cy="78.27927" r="3" fill="blue"/>
    <circle cx="143.941795" cy="74.803187" r="3" fill="blue"/>
    <circle cx="131.855624" cy="84.418815" r="3" fill="blue"/>
    <circle cx="132.70647" cy="71.349088" r="3" fill="blue"/>
    <circle cx="129.191581" cy="103.556464" r="3" fill="blue"/>
    <circle cx="130.916418" cy="85.497407" r="3" fill="blue"/>
    <circle cx="132.715304" cy="82.928649" r="3" fill="blue"/>
    <circle cx="121.858245" cy="90.402071" r="3" fill="blue"/>
    <circle cx="121.157124" cy="91.818618" r="3" fill="blue"/>
    <circle cx="116.695831" cy="93.241394" r="3" fill="blue"/>
    <circle cx="126.66666" cy="82.771798" r="3" fill="blue"/>
    <circle cx="114.257634" cy="72.165232" r="3" fill="blue"/>
    <circle cx="128.828309" cy="78.68916" r="3" fill="blue"/>
    <circle cx="143.272084" cy="80.441753" r="3" fill="blue"/>
    <circle cx="122.959312" cy="90.782196" r="3" fill="blue"/>
    <circle cx="137.985481" cy="76.285417" r="3" fill="blue"/>
    <circle cx="203.991196" cy="57.422299" r="3" fill="blue"/>
    <circle cx="204.808471" cy="75.974777" r="3" fill="blue"/>
    <circle cx="192.45674" cy="72.136492" r="3" fill="blue"/>
    <circle cx="177.494797" cy="83.947778" r="3" fill="blue"/>
    <circle cx="178.988444" cy="58.559151" r="3" fill="blue"/>
    <circle cx="194.209928" cy="51.413764" r="3" fill="blue"/>
    <circle cx="177.563635" cy="75.863574" r="3" fill="blue"/>
    <circle cx="184.06024" cy="88.548818" r="3" fill="blue"/>
    <circle cx="188.810483" cy="72.538665" r="3" fill="blue"/>
    <circle cx="182.91913" cy="74.3043" r="3" fill="blue"/>
    <circle cx="200.536054" cy="67.506103" r="3" fill="blue"/>
    <circle cx="194.842409" cy="67.138804" r="3" fill="blue"/>
    <circle cx="182.887592" cy="82.472365" r="3" fill="blue"/>
    <circle cx="201.105708" cy="81.238617" r="3" fill="blue"/>
    <circle cx="196.259769" cy="59.746166" r="3" fill="blue"/>
    <circle cx="176.089853" cy="54.177216" r="3" fill="blue"/>
    <circle cx="255.851679" cy="62.073159" r="3" fill="blue"/>
    <circle cx="258.195923" cy="62.374849" r="3" fill="blue"/>
    <circle cx="264.763136" cy="47.477287" r="3" fill="blue"/>
    <circle cx="241.575821" cy="62.401366" r="3" fill="blue"/>
    <circle cx="246.883734" cy="60.984961" r="3" fill="blue"/>
    <circle cx="257.559026" cy="57.598039" r="3" fill="blue"/>
    <circle cx="259.658504" cy="50.814158" r="3" fill="blue"/>
    <circle cx="256.744817" cy="57.824555" r="3" fill="blue"/>
    <circle cx="243.868109" cy="61.531904" r="3" fill="blue"/>
    <circle cx="232.262983" cy="61.230966" r="3" fill="blue"/>
    <circle cx="243.2275" cy="44.459647" r="3" fill="blue"/>
    <circle cx="253.227311" cy="75.306392" r="3" fill="blue"/>
    <circle cx="252.601548" cy="46.459206" r="3" fill="blue"/>
    <circle cx="262.557476" cy="43.645389" r="3" fill="blue"/>
    <circle cx="69.218182" cy="65.984842" r="3" fill="blue"/>
  </g>
</svg>