<?xml version="1.0" encoding="utf-8"?>
<svg xmlns:xlink="http://www.w3.org/1999/xlink" width="432pt" height="288pt" viewBox="0 0 432 288" xmlns="http://www.w3.org/2000/svg" version="1.1">
 <defs>
  <style type="text/css">*{stroke-linejoin: round; stroke-linecap: butt}</style>
  <path id="m25de5a78ae" d="M 0 3 
C 0.795609 3 1.55874 2.683901 2.12132 2.12132 
C 2.683901 1.55874 3 0.795609 3 0 
C 3 -0.795609 2.683901 -1.55874 2.12132 -2.12132 
C 1.55874 -2.683901 0.795609 -3 0 -3 
C -0.795609 -3 -1.55874 -2.683901 -2.12132 -2.12132 
C -2.683901 -1.55874 -3 -0.795609 -3 0 
C -3 0.795609 -2.683901 1.55874 -2.12132 2.12132 
C -1.55874 2.683901 -0.795609 3 0 3 
z"/>
 </defs>
 <g>
  <use xlink:href="#m25de5a78ae" x="131.190481" y="220.030098" style="fill: #1f77b4;"/>
  <use xlink:href="#m25de5a78ae" x="101.459198" y="226.501322" style="fill: #1f77b4;"/>
  <use xlink:href="#m25de5a78ae" x="122.574753" y="223.021672" style="fill: #1f77b4;"/>
  <use xlink:href="#m25de5a78ae" x="97.886786" y="233.580654" style="fill: #1f77b4;"/>
  <use xlink:href="#m25de5a78ae" x="88.243837" y="238.980248" style="fill: #1f77b4;"/>
  <use xlink:href="#m25de5a78ae" x="122.122399" y="233.857978" style="fill: #1f77b4;"/>
  <use xlink:href="#m25de5a78ae" x="140.241718" y="227.67874" style="fill: #1f77b4;"/>
  <use xlink:href="#m25de5a78ae" x="127.823373" y="246.24" style="fill: red;"/>
  <use xlink:href="#m25de5a78ae" x="94.396238" y="240.068284" style="fill: #1f77b4;"/>
  <use xlink:href="#m25de5a78ae" x="110.923781" y="224.896487" style="fill: #1f77b4;"/>
  <use xlink:href="#m25de5a78ae" x="69.218182" y="234.926506" style="fill: #1f77b4;"/>
  <use xlink:href="#m25de5a78ae" x="127.574614" y="222.695637" style="fill: #1f77b4;"/>
  <use xlink:href="#m25de5a78ae" x="92.961426" y="233.741719" style="fill: #1f77b4;"/>
  <use xlink:href="#m25de5a78ae" x="92.765823" y="225.975467" style="fill: #1f77b4;"/>
  <use xlink:href="#m25de5a78ae" x="112.63814" y="240.583328" style="fill: #1f77b4;"/>
  <use xlink:href="#m25de5a78ae" x="118.278822" y="235.302272" style="fill: #1f77b4;"/>
  <use xlink:href="#m25de5a78ae" x="243.39296" y="213.76834" style="fill: #1f77b4;"/>
  <use xlink:href="#m25de5a78ae" x="232.072152" y="217.389417" style="fill: #1f77b4;"/>
  <use xlink:href="#m25de5a78ae" x="247.603688" y="214.864091" style="fill: #1f77b4;"/>
  <use xlink:href="#m25de5a78ae" x="256.306264" y="221.324652" style="fill: #1f77b4;"/>
  <use xlink:href="#m25de5a78ae" x="225.498961" y="219.355295" style="fill: #1f77b4;"/>
  <use xlink:href="#m25de5a78ae" x="212.756975" y="223.134451" style="fill: #1f77b4;"/>
  <use xlink:href="#m25de5a78ae" x="231.792434" y="219.51594" style="fill: #1f77b4;"/>
  <use xlink:href="#m25de5a78ae" x="205.804076" y="215.449238" style="fill: #1f77b4;"/>
  <use xlink:href="#m25de5a78ae" x="214.631091" y="215.821585" style="fill: #1f77b4;"/>
  <use xlink:href="#m25de5a78ae" x="235.234285" y="227.74165" style="fill: #1f77b4;"/>
  <use xlink:href="#m25de5a78ae" x="227.159356" y="234.930658" style="fill: #1f77b4;"/>
  <use xlink:href="#m25de5a78ae" x="224.478501" y="213.310819" style="fill: #1f77b4;"/>
  <use xlink:href="#m25de5a78ae" x="233.279279" y="221.036329" style="fill: #1f77b4;"/>
  <use xlink:href="#m25de5a78ae" x="227.699935" y="218.373188" style="fill: #1f77b4;"/>
  <use xlink:href="#m25de5a78ae" x="227.239594" y="240.257462" style="fill: #1f77b4;"/>
  <use xlink:href="#m25de5a78ae" x="188.539355" y="219.36414" style="fill: #1f77b4;"/>
  <use xlink:href="#m25de5a78ae" x="350.618221" y="212.810927" style="fill: #1f77b4;"/>
  <use xlink:href="#m25de5a78ae" x="326.223031" y="204.592792" style="fill: #1f77b4;"/>
  <use xlink:href="#m25de5a78ae" x="341.946183" y="214.687511" style="fill: #1f77b4;"/>
  <use xlink:href="#m25de5a78ae" x="358.605813" y="207.126093" style="fill: #1f77b4;"/>
  <use xlink:href="#m25de5a78ae" x="368.515476" y="210.491031" style="fill: #1f77b4;"/>
  <use xlink:href="#m25de5a78ae" x="360.349795" y="204.973589" style="fill: #1f77b4;"/>
  <use xlink:href="#m25de5a78ae" x="358.629092" y="212.173873" style="fill: #1f77b4;"/>
  <use xlink:href="#m25de5a78ae" x="351.553955" y="232.737174" style="fill: #1f77b4;"/>
  <use xlink:href="#m25de5a78ae" x="336.193468" y="206.933749" style="fill: #1f77b4;"/>
  <use xlink:href="#m25de5a78ae" x="336.394127" y="204.634239" style="fill: #1f77b4;"/>
  <use xlink:href="#m25de5a78ae" x="373.581818" y="198.02671" style="fill: red;"/>
  <use xlink:href="#m25de5a78ae" x="319.381853" y="200.605172" style="fill: #1f77b4;"/>
  <use xlink:href="#m25de5a78ae" x="344.440839" y="212.455041" style="fill: #1f77b4;"/>
  <use xlink:href="#m25de5a78ae" x="330.070355" y="209.828396" style="fill: #1f77b4;"/>
  <use xlink:href="#m25de5a78ae" x="359.568934" y="204.293811" style="fill: #1f77b4;"/>
  <use xlink:href="#m25de5a78ae" x="329.469709" y="210.06872" style="fill: #1f77b4;"/>
  <use xlink:href="#m25de5a78ae" x="76.01512" y="44.64" style="fill: #1f77b4;"/>
  <use xlink:href="#m25de5a78ae" x="81.640122" y="90.948302" style="fill: #1f77b4;"/>
 </g>
</svg>