<?xml version="1.0" encoding="utf-8"?>
<svg xmlns:xlink="http://www.w3.org/1999/xlink" width="432pt" height="288pt" viewBox="0 0 432 288" xmlns="http://www.w3.org/2000/svg" version="1.1">
 <defs>
  <style type="text/css">*{stroke-linejoin: round; stroke-linecap: butt}</style>
  <path id="me716c65f68" d="M 0 3 
C 0.795609 3 1.55874 2.683901 2.12132 2.12132 
C 2.683901 1.55874 3 0.795609 3 0 
C 3 -0.795609 2.683901 -1.55874 2.12132 -2.12132 
C 1.55874 -2.683901 0.795609 -3 0 -3 
C -0.795609 -3 -1.55874 -2.683901 -2.12132 -2.12132 
C -2.683901 -1.55874 -3 -0.795609 -3 0 
C -3 0.795609 -2.683901 1.55874 -2.12132 2.12132 
C -1.55874 2.683901 -0.795609 3 0 3 
z"/>
 </defs>
 <g>
  <use xlink:href="#me716c65f68" x="178.071295" y="194.83816" style="fill: #1f77b4;"/>
  <use xlink:href="#me716c65f68" x="167.607222" y="188.081183" style="fill: #1f77b4;"/>
  <use xlink:href="#me716c65f68" x="192.772832" y="183.116067" style="fill: #1f77b4;"/>
  <use xlink:href="#me716c65f68" x="184.011875" y="169.443972" style="fill: #1f77b4;"/>
  <use xlink:href="#me716c65f68" x="187.398716" y="186.237283" style="fill: #1f77b4;"/>
  <use xlink:href="#me716c65f68" x="155.713358" y="189.584263" style="fill: #1f77b4;"/>
  <use xlink:href="#me716c65f68" x="191.420569" y="183.215209" style="fill: #1f77b4;"/>
  <use xlink:href="#me716c65f68" x="180.900282" y="213.07033" style="fill: #1f77b4;"/>
  <use xlink:href="#me716c65f68" x="166.071877" y="202.748243" style="fill: #1f77b4;"/>
  <use xlink:href="#me716c65f68" x="172.158519" y="198.310911" style="fill: #1f77b4;"/>
  <use xlink:href="#me716c65f68" x="152.828945" y="189.401173" style="fill: #1f77b4;"/>
  <use xlink:href="#me716c65f68" x="173.235397" y="192.635166" style="fill: #1f77b4;"/>
  <use xlink:href="#me716c65f68" x="180.558685" y="203.619702" style="fill: #1f77b4;"/>
  <use xlink:href="#me716c65f68" x="148.918159" y="225.696649" style="fill: #1f77b4;"/>
  <use xlink:href="#me716c65f68" x="181.585875" y="184.04711" style="fill: #1f77b4;"/>
  <use xlink:href="#me716c65f68" x="127.955169" y="246.24" style="fill: red;"/>
  <use xlink:href="#me716c65f68" x="276.296328" y="140.089734" style="fill: #1f77b4;"/>
  <use xlink:href="#me716c65f68" x="247.462557" y="130.430684" style="fill: #1f77b4;"/>
  <use xlink:href="#me716c65f68" x="259.096591" y="137.069265" style="fill: #1f77b4;"/>
  <use xlink:href="#me716c65f68" x="252.254825" y="142.343761" style="fill: #1f77b4;"/>
  <use xlink:href="#me716c65f68" x="292.999621" y="124.223379" style="fill: #1f77b4;"/>
  <use xlink:href="#me716c65f68" x="253.63237" y="122.787739" style="fill: #1f77b4;"/>
  <use xlink:href="#me716c65f68" x="237.883574" y="153.633942" style="fill: #1f77b4;"/>
  <use xlink:href="#me716c65f68" x="235.63583" y="150.591568" style="fill: #1f77b4;"/>
  <use xlink:href="#me716c65f68" x="264.938474" y="166.686231" style="fill: #1f77b4;"/>
  <use xlink:href="#me716c65f68" x="246.813838" y="132.32085" style="fill: #1f77b4;"/>
  <use xlink:href="#me716c65f68" x="270.416453" y="135.145956" style="fill: #1f77b4;"/>
  <use xlink:href="#me716c65f68" x="266.240825" y="116.449267" style="fill: #1f77b4;"/>
  <use xlink:href="#me716c65f68" x="233.678151" y="159.201849" style="fill: #1f77b4;"/>
  <use xlink:href="#me716c65f68" x="259.237318" y="140.072961" style="fill: #1f77b4;"/>
  <use xlink:href="#me716c65f68" x="252.199238" y="134.215014" style="fill: #1f77b4;"/>
  <use xlink:href="#me716c65f68" x="272.555085" y="125.020616" style="fill: #1f77b4;"/>
  <use xlink:href="#me716c65f68" x="336.180699" y="95.54262" style="fill: #1f77b4;"/>
  <use xlink:href="#me716c65f68" x="353.361862" y="94.10985" style="fill: #1f77b4;"/>
  <use xlink:href="#me716c65f68" x="342.215276" y="102.586664" style="fill: #1f77b4;"/>
  <use xlink:href="#me716c65f68" x="338.190583" y="112.220425" style="fill: #1f77b4;"/>
  <use xlink:href="#me716c65f68" x="349.528755" y="75.997674" style="fill: #1f77b4;"/>
  <use xlink:href="#me716c65f68" x="346.36676" y="100.240216" style="fill: #1f77b4;"/>
  <use xlink:href="#me716c65f68" x="353.093582" y="102.714714" style="fill: #1f77b4;"/>
  <use xlink:href="#me716c65f68" x="347.090069" y="101.166497" style="fill: #1f77b4;"/>
  <use xlink:href="#me716c65f68" x="343.972517" y="110.872353" style="fill: #1f77b4;"/>
  <use xlink:href="#me716c65f68" x="316.126827" y="138.956966" style="fill: #1f77b4;"/>
  <use xlink:href="#me716c65f68" x="373.581818" y="88.343622" style="fill: #1f77b4;"/>
  <use xlink:href="#me716c65f68" x="338.126475" y="129.758066" style="fill: #1f77b4;"/>
  <use xlink:href="#me716c65f68" x="325.117543" y="113.839824" style="fill: #1f77b4;"/>
  <use xlink:href="#me716c65f68" x="370.906517" y="44.64" style="fill: red;"/>
  <use xlink:href="#me716c65f68" x="344.974912" y="104.993967" style="fill: #1f77b4;"/>
  <use xlink:href="#me716c65f68" x="351.738188" y="112.331995" style="fill: #1f77b4;"/>
  <use xlink:href="#me716c65f68" x="318.782596" y="52.631243" style="fill: #1f77b4;"/>
  <use xlink:href="#me716c65f68" x="69.218182" y="70.91671" style="fill: #1f77b4;"/>
 </g>
</svg>