<?xml version="1.0" encoding="utf-8"?>
<svg xmlns:xlink="http://www.w3.org/1999/xlink" width="432pt" height="288pt" viewBox="0 0 432 288" xmlns="http://www.w3.org/2000/svg" version="1.1">
 <g>
  <g>
    <circle cx="261.749369" cy="41.76" r="3" style="fill: red; stroke: red;"/>
    <circle cx="69.218182" cy="243.36" r="3" style="fill: red; stroke: red;"/>
    <circle cx="107.435103" cy="193.632081" r="3" style="fill: blue; stroke: blue;"/>
    <circle cx="99.656086" cy="122.991709" r="3" style="fill: blue; stroke: blue;"/>
    <circle cx="122.253995" cy="196.637102" r="3" style="fill: blue; stroke: blue;"/>
    <circle cx="91.38588" cy="242.059475" r="3" style="fill: blue; stroke: blue;"/>
    <circle cx="109.177358" cy="154.074263" r="3" style="fill: blue; stroke: blue;"/>
    <circle cx="87.125362" cy="214.318985" r="3" style="fill: blue; stroke: blue;"/>
    <circle cx="99.865397" cy="163.871234" r="3" style="fill: blue; stroke: blue;"/>
    <circle cx="113.44403" cy="130.85575" r="3" style="fill: blue; stroke: blue;"/>
    <circle cx="98.914979" cy="176.212657" r="3" style="fill: blue; stroke: blue;"/>
    <circle cx="119.525499" cy="188.277294" r="3" style="fill: blue; stroke: blue;"/>
    <circle cx="100.979875" cy="180.918268" r="3" style="fill: blue; stroke: blue;"/>
    <circle cx="110.918065" cy="203.680376" r="3" style="fill: blue; stroke: blue;"/>
    <circle cx="92.298082" cy="164.774497" r="3" style="fill: blue; stroke: blue;"/>
    <circle cx="85.828802" cy="237.03259" r="3" style="fill: blue; stroke: blue;"/>
    <circle cx="87.833095" cy="128.441776" r="3" style="fill: blue; stroke: blue;"/>
    <circle cx="108.638539" cy="177.801575" r="3" style="fill: blue; stroke: blue;"/>
    <circle cx="185.999364" cy="93.899328" r="3" style="fill: blue; stroke: blue;"/>
    <circle cx="188.80169" cy="113.631801" r="3" style="fill: blue; stroke: blue;"/>
    <circle cx="162.626936" cy="165.322019" r="3" style="fill: blue; stroke: blue;"/>
    <circle cx="178.876183" cy="177.707242" r="3" style="fill: blue; stroke: blue;"/>
    <circle cx="190.808018" cy="143.539425" r="3" style="fill: blue; stroke: blue;"/>
    <circle cx="175.501726" cy="146.164084" r="3" style="fill: blue; stroke: blue;"/>
    <circle cx="190.747373" cy="184.643136" r="3" style="fill: blue; stroke: blue;"/>
    <circle cx="190.872836" cy="101.615338" r="3" style="fill: blue; stroke: blue;"/>
    <circle cx="172.637753" cy="126.662812" r="3" style="fill: blue; stroke: blue;"/>
    <circle cx="183.002366" cy="131.884351" r="3" style="fill: blue; stroke: blue;"/>
    <circle cx="195.926071" cy="144.878833" r="3" style="fill: blue; stroke: blue;"/>
    <circle cx="191.925349" cy="92.093728" r="3" style="fill: blue; stroke: blue;"/>
    <circle cx="188.565594" cy="123.181763" r="3" style="fill: blue; stroke: blue;"/>
    <circle cx="164.676889" cy="143.507119" r="3" style="fill: blue; stroke: blue;"/>
    <circle cx="190.509736" cy="121.112622" r="3" style="fill: blue; stroke: blue;"/>
    <circle cx="174.783286" cy="132.106966" r="3" style="fill: blue; stroke: blue;"/>
    <circle cx="246.567549" cy="67.223015" r="3" style="fill: blue; stroke: blue;"/>
    <circle cx="261.833344" cy="109.531849" r="3" style="fill: blue; stroke: blue;"/>
    <circle cx="265.808942" cy="110.080885" r="3" style="fill: blue; stroke: blue;"/>
    <circle cx="268.10052" cy="56.531928" r="3" style="fill: blue; stroke: blue;"/>
    <circle cx="265.50836" cy="124.585614" r="3" style="fill: blue; stroke: blue;"/>
    <circle cx="279.245896" cy="117.695248" r="3" style="fill: blue; stroke: blue;"/>
    <circle cx="261.786709" cy="111.474765" r="3" style="fill: blue; stroke: blue;"/>
    <circle cx="273.360866" cy="124.842309" r="3" style="fill: blue; stroke: blue;"/>
    <circle cx="273.097425" cy="93.248001" r="3" style="fill: blue; stroke: blue;"/>
    <circle cx="274.770225" cy="76.659229" r="3" style="fill: blue; stroke: blue;"/>
    <circle cx="267.429659" cy="61.519409" r="3" style="fill: blue; stroke: blue;"/>
    <circle cx="265.909766" cy="127.103422" r="3" style="fill: blue; stroke: blue;"/>
    <circle cx="272.137158" cy="128.132631" r="3" style="fill: blue; stroke: blue;"/>
    <circle cx="286.731147" cy="109.268999" r="3" style="fill: blue; stroke: blue;"/>
    <circle cx="278.501689" cy="122.749432" r="3" style="fill: blue; stroke: blue;"/>
    <circle cx="373.581818" cy="63.645465" r="3" style="fill: blue; stroke: blue;"/>
  </g>
 </g>
</svg>