<?xml version="1.0" encoding="utf-8"?>
<svg xmlns:xlink="http://www.w3.org/1999/xlink" width="432pt" height="288pt" viewBox="0 0 432 288" xmlns="http://www.w3.org/2000/svg" version="1.1">
 <g>
  <g>
    <use xlink:href="#m9a71bdba64" x="105.150337" y="135.350501" style="fill: #1f77b4; stroke: #1f77b4"/>
    <use xlink:href="#m9a71bdba64" x="99.377073" y="80.522155" style="fill: #1f77b4; stroke: #1f77b4"/>
    <use xlink:href="#m9a71bdba64" x="127.48767" y="145.700133" style="fill: #1f77b4; stroke: #1f77b4"/>
    <use xlink:href="#m9a71bdba64" x="111.61434" y="178.946059" style="fill: #1f77b4; stroke: #1f77b4"/>
    <use xlink:href="#m9a71bdba64" x="126.673078" y="101.877278" style="fill: #1f77b4; stroke: #1f77b4"/>
    <use xlink:href="#m9a71bdba64" x="92.513442" y="187.954763" style="fill: #1f77b4; stroke: #1f77b4"/>
    <use xlink:href="#m9a71bdba64" x="101.313353" y="159.411204" style="fill: #1f77b4; stroke: #1f77b4"/>
    <use xlink:href="#m9a71bdba64" x="100.186392" y="125.761029" style="fill: #1f77b4; stroke: #1f77b4"/>
    <use xlink:href="#m9a71bdba64" x="96.820222" y="84.387589" style="fill: #1f77b4; stroke: #1f77b4"/>
    <use xlink:href="#m9a71bdba64" x="107.620277" y="150.070113" style="fill: #1f77b4; stroke: #1f77b4"/>
    <use xlink:href="#m9a71bdba64" x="110.95634" y="175.701867" style="fill: #1f77b4; stroke: #1f77b4"/>
    <use xlink:href="#m9a71bdba64" x="103.27267" y="116.647526" style="fill: #1f77b4; stroke: #1f77b4"/>
    <use xlink:href="#m9a71bdba64" x="103.246861" y="135.630232" style="fill: #1f77b4; stroke: #1f77b4"/>
    <use xlink:href="#m9a71bdba64" x="123.824285" y="98.48382" style="fill: #1f77b4; stroke: #1f77b4"/>
    <use xlink:href="#m9a71bdba64" x="96.763913" y="123.992796" style="fill: #1f77b4; stroke: #1f77b4"/>
    <use xlink:href="#m9a71bdba64" x="71.875107" y="158.049249" style="fill: #1f77b4; stroke: #1f77b4"/>
    <use xlink:href="#m9a71bdba64" x="226.142836" y="159.36004" style="fill: #1f77b4; stroke: #1f77b4"/>
    <use xlink:href="#m9a71bdba64" x="197.284225" y="149.667452" style="fill: #1f77b4; stroke: #1f77b4"/>
    <use xlink:href="#m9a71bdba64" x="228.731462" y="192.640285" style="fill: #1f77b4; stroke: #1f77b4"/>
    <use xlink:href="#m9a71bdba64" x="202.649884" y="72.00278" style="fill: #1f77b4; stroke: #1f77b4"/>
    <use xlink:href="#m9a71bdba64" x="211.34756" y="128.060037" style="fill: #1f77b4; stroke: #1f77b4"/>
    <use xlink:href="#m9a71bdba64" x="223.662537" y="151.884117" style="fill: #1f77b4; stroke: #1f77b4"/>
    <use xlink:href="#m9a71bdba64" x="227.437766" y="141.802017" style="fill: #1f77b4; stroke: #1f77b4"/>
    <use xlink:href="#m9a71bdba64" x="208.041052" y="183.644247" style="fill: #1f77b4; stroke: #1f77b4"/>
    <use xlink:href="#m9a71bdba64" x="211.842704" y="67.435253" style="fill: #1f77b4; stroke: #1f77b4"/>
    <use xlink:href="#m9a71bdba64" x="213.384626" y="100.28708" style="fill: #1f77b4; stroke: #1f77b4"/>
    <use xlink:href="#m9a71bdba64" x="234.905062" y="143.156448" style="fill: #1f77b4; stroke: #1f77b4"/>
    <use xlink:href="#m9a71bdba64" x="252.336595" y="94.860032" style="fill: #1f77b4; stroke: #1f77b4"/>
    <use xlink:href="#m9a71bdba64" x="215.466221" y="146.52136" style="fill: #1f77b4; stroke: #1f77b4"/>
    <use xlink:href="#m9a71bdba64" x="238.587011" y="139.4922" style="fill: #1f77b4; stroke: #1f77b4"/>
    <use xlink:href="#m9a71bdba64" x="232.28152" y="130.806794" style="fill: #1f77b4; stroke: #1f77b4"/>
    <use xlink:href="#m9a71bdba64" x="238.483473" y="87.246316" style="fill: #1f77b4; stroke: #1f77b4"/>
    <use xlink:href="#m9a71bdba64" x="356.272096" y="152.914946" style="fill: #1f77b4; stroke: #1f77b4"/>
    <use xlink:href="#m9a71bdba64" x="322.969338" y="152.660761" style="fill: #1f77b4; stroke: #1f77b4"/>
    <use xlink:href="#m9a71bdba64" x="327.538942" y="77.299415" style="fill: #1f77b4; stroke: #1f77b4"/>
    <use xlink:href="#m9a71bdba64" x="356.484833" y="102.861853" style="fill: #1f77b4; stroke: #1f77b4"/>
    <use xlink:href="#m9a71bdba64" x="331.521258" y="147.876218" style="fill: #1f77b4; stroke: #1f77b4"/>
    <use xlink:href="#m9a71bdba64" x="352.420315" y="137.273654" style="fill: #1f77b4; stroke: #1f77b4"/>
    <use xlink:href="#m9a71bdba64" x="328.957532" y="54.992083" style="fill: #1f77b4; stroke: #1f77b4"/>
    <use xlink:href="#m9a71bdba64" x="334.084643" y="114.275762" style="fill: #1f77b4; stroke: #1f77b4"/>
    <use xlink:href="#m9a71bdba64" x="352.415581" y="75.701683" style="fill: #1f77b4; stroke: #1f77b4"/>
    <use xlink:href="#m9a71bdba64" x="325.069261" y="72.738889" style="fill: #1f77b4; stroke: #1f77b4"/>
    <use xlink:href="#m9a71bdba64" x="350.268069" y="44.64" style="fill: #1f77b4; stroke: #1f77b4"/>
    <use xlink:href="#m9a71bdba64" x="355.544978" y="75.35575" style="fill: #1f77b4; stroke: #1f77b4"/>
    <use xlink:href="#m9a71bdba64" x="306.769668" y="145.139796" style="fill: #1f77b4; stroke: #1f77b4"/>
    <use xlink:href="#m9a71bdba64" x="314.719021" y="116.251676" style="fill: #1f77b4; stroke: #1f77b4"/>
    <use xlink:href="#m9a71bdba64" x="327.332359" y="221.248589" style="fill: red; stroke: red"/>
    <use xlink:href="#m9a71bdba64" x="373.581818" y="99.776275" style="fill: #1f77b4; stroke: #1f77b4"/>
    <use xlink:href="#m9a71bdba64" x="295.849832" y="246.24" style="fill: red; stroke: red"/>
    <use xlink:href="#m9a71bdba64" x="69.218182" y="102.598189" style="fill: #1f77b4; stroke: #1f77b4"/>
  </g>
 </g>
 <defs>
  <path id="m9a71bdba64" d="M 0 3 
C 0.795609 3 1.55874 2.683901 2.12132 2.12132 
C 2.683901 1.55874 3 0.795609 3 0 
C 3 -0.795609 2.683901 -1.55874 2.12132 -2.12132 
C 1.55874 -2.683901 0.795609 -3 0 -3 
C -0.795609 -3 -1.55874 -2.683901 -2.12132 -2.12132 
C -2.683901 -1.55874 -3 -0.795609 -3 0 
C -3 0.795609 -2.683901 1.55874 -2.12132 2.12132 
C -1.55874 2.683901 -0.795609 3 0 3 
z"/>
 </defs>
</svg>