<?xml version="1.0" standalone="no"?>
<!DOCTYPE svg PUBLIC "-//W3C//DTD SVG 1.1//EN" "http://www.w3.org/Graphics/SVG/1.1/DTD/svg11.dtd">
<svg width="432pt" height="288pt" viewBox="0 0 432 288" xmlns="http://www.w3.org/2000/svg" version="1.1">
 <defs>
  <style type="text/css">*{stroke-linejoin: round; stroke-linecap: butt}</style>
 </defs>
 <g>
  <g>
    <circle cx="108.642905" cy="243.94592" r="3" style="fill: #1f77b4;"/>
    <circle cx="121.61615" cy="221.471006" r="3" style="fill: #1f77b4;"/>
    <circle cx="103.991581" cy="246.24" r="3" style="fill: #1f77b4;"/>
    <circle cx="94.07751" cy="219.27681" r="3" style="fill: #1f77b4;"/>
    <circle cx="85.58629" cy="234.521457" r="3" style="fill: #1f77b4;"/>
    <circle cx="123.959717" cy="224.363407" r="3" style="fill: #1f77b4;"/>
    <circle cx="81.885577" cy="237.534931" r="3" style="fill: #1f77b4;"/>
    <circle cx="109.301346" cy="211.746877" r="3" style="fill: #1f77b4;"/>
    <circle cx="122.481623" cy="222.059293" r="3" style="fill: #1f77b4;"/>
    <circle cx="69.218182" cy="234.532546" r="3" style="fill: #1f77b4;"/>
    <circle cx="301.731637" cy="197.004355" r="3" style="fill: #1f77b4;"/>
    <circle cx="301.376347" cy="169.782337" r="3" style="fill: #1f77b4;"/>
    <circle cx="298.044425" cy="171.189416" r="3" style="fill: #1f77b4;"/>
    <circle cx="284.815957" cy="175.049375" r="3" style="fill: #1f77b4;"/>
    <circle cx="321.91428" cy="152.877921" r="3" style="fill: #1f77b4;"/>
    <circle cx="327.587275" cy="153.438615" r="3" style="fill: #1f77b4;"/>
    <circle cx="285.873938" cy="170.852322" r="3" style="fill: #1f77b4;"/>
    <circle cx="325.940763" cy="181.915993" r="3" style="fill: #1f77b4;"/>
    <circle cx="324.776602" cy="127.772743" r="3" style="fill: #1f77b4;"/>
    <circle cx="373.581818" cy="139.533203" r="3" style="fill: red;"/>
    <circle cx="241.940195" cy="44.64" r="3" style="fill: #1f77b4;"/>
  </g>
 </g>
</svg>