<?xml version="1.0" encoding="utf-8"?>
<svg xmlns:xlink="http://www.w3.org/1999/xlink" width="432pt" height="288pt" viewBox="0 0 432 288" xmlns="http://www.w3.org/2000/svg" version="1.1">
 <defs>
  <style type="text/css">*{stroke-linejoin: round; stroke-linecap: butt}</style>
  <path id="m0d5fde8fc7" d="M 0 3 
C 0.795609 3 1.55874 2.683901 2.12132 2.12132 
C 2.683901 1.55874 3 0.795609 3 0 
C 3 -0.795609 2.683901 -1.55874 2.12132 -2.12132 
C 1.55874 -2.683901 0.795609 -3 0 -3 
C -0.795609 -3 -1.55874 -2.683901 -2.12132 -2.12132 
C -2.683901 -1.55874 -3 -0.795609 -3 0 
C -3 0.795609 -2.683901 1.55874 -2.12132 2.12132 
C -1.55874 2.683901 -0.795609 3 0 3 
z"/>
 </defs>
 <g>
  <use xlink:href="#m0d5fde8fc7" x="86.551317" y="98.480212" style="fill: #1f77b4; stroke: #1f77b4"/>
  <use xlink:href="#m0d5fde8fc7" x="89.2354" y="44.64" style="fill: #1f77b4; stroke: #1f77b4"/>
  <use xlink:href="#m0d5fde8fc7" x="128.890202" y="82.488648" style="fill: #1f77b4; stroke: #1f77b4"/>
  <use xlink:href="#m0d5fde8fc7" x="109.900296" y="63.88439" style="fill: #1f77b4; stroke: #1f77b4"/>
  <use xlink:href="#m0d5fde8fc7" x="148.460057" y="68.835791" style="fill: #1f77b4; stroke: #1f77b4"/>
  <use xlink:href="#m0d5fde8fc7" x="98.594335" y="93.321781" style="fill: #1f77b4; stroke: #1f77b4"/>
  <use xlink:href="#m0d5fde8fc7" x="69.218182" y="104.000866" style="fill: #1f77b4; stroke: #1f77b4"/>
  <use xlink:href="#m0d5fde8fc7" x="118.692205" y="82.863247" style="fill: #1f77b4; stroke: #1f77b4"/>
  <use xlink:href="#m0d5fde8fc7" x="94.985506" y="117.967731" style="fill: #1f77b4; stroke: #1f77b4"/>
  <use xlink:href="#m0d5fde8fc7" x="130.882623" y="136.306336" style="fill: #1f77b4; stroke: #1f77b4"/>
  <use xlink:href="#m0d5fde8fc7" x="333.803987" y="197.748735" style="fill: #1f77b4; stroke: #1f77b4"/>
  <use xlink:href="#m0d5fde8fc7" x="364.573312" y="202.72535" style="fill: #1f77b4; stroke: #1f77b4"/>
  <use xlink:href="#m0d5fde8fc7" x="317.14894" y="153.181532" style="fill: #1f77b4; stroke: #1f77b4"/>
  <use xlink:href="#m0d5fde8fc7" x="310.159644" y="208.000925" style="fill: #1f77b4; stroke: #1f77b4"/>
  <use xlink:href="#m0d5fde8fc7" x="329.805841" y="161.099151" style="fill: #1f77b4; stroke: #1f77b4"/>
  <use xlink:href="#m0d5fde8fc7" x="308.904068" y="164.532057" style="fill: #1f77b4; stroke: #1f77b4"/>
  <use xlink:href="#m0d5fde8fc7" x="373.291804" y="151.13782" style="fill: #1f77b4; stroke: #1f77b4"/>
  <use xlink:href="#m0d5fde8fc7" x="341.983463" y="200.620093" style="fill: #1f77b4; stroke: #1f77b4"/>
  <use xlink:href="#m0d5fde8fc7" x="367.613888" y="197.024972" style="fill: #1f77b4; stroke: #1f77b4"/>
  <use xlink:href="#m0d5fde8fc7" x="222.423067" y="246.24" style="fill: #1f77b4; stroke: #1f77b4"/>
  <use xlink:href="#m0d5fde8fc7" x="373.581818" y="177.434042" style="fill: red; stroke: red"/>
 </g>
</svg>