<?xml version="1.0" encoding="utf-8"?>
<svg xmlns:xlink="http://www.w3.org/1999/xlink" width="432pt" height="288pt" viewBox="0 0 432 288" xmlns="http://www.w3.org/2000/svg" version="1.1">
 <defs>
  <style type="text/css">*{stroke-linejoin: round; stroke-linecap: butt}</style>
  <path id="m0b2b94e1a8" d="M 0 3 
C 0.795609 3 1.55874 2.683901 2.12132 2.12132 
C 2.683901 1.55874 3 0.795609 3 0 
C 3 -0.795609 2.683901 -1.55874 2.12132 -2.12132 
C 1.55874 -2.683901 0.795609 -3 0 -3 
C -0.795609 -3 -1.55874 -2.683901 -2.12132 -2.12132 
C -2.683901 -1.55874 -3 -0.795609 -3 0 
C -3 0.795609 -2.683901 1.55874 -2.12132 2.12132 
C -1.55874 2.683901 -0.795609 3 0 3 
z"/>
 </defs>
 <g>
  <use xlink:href="#m0b2b94e1a8" x="134.339669" y="191.457769" style="fill: #1f77b4; stroke: #1f77b4"/>
  <use xlink:href="#m0b2b94e1a8" x="97.327508" y="221.89295" style="fill: #1f77b4; stroke: #1f77b4"/>
  <use xlink:href="#m0b2b94e1a8" x="94.849603" y="233.8682" style="fill: #1f77b4; stroke: #1f77b4"/>
  <use xlink:href="#m0b2b94e1a8" x="127.740015" y="231.792029" style="fill: #1f77b4; stroke: #1f77b4"/>
  <use xlink:href="#m0b2b94e1a8" x="69.218182" y="222.163063" style="fill: #1f77b4; stroke: #1f77b4"/>
  <use xlink:href="#m0b2b94e1a8" x="86.405253" y="245.43307" style="fill: #1f77b4; stroke: #1f77b4"/>
  <use xlink:href="#m0b2b94e1a8" x="142.545017" y="232.25635" style="fill: #1f77b4; stroke: #1f77b4"/>
  <use xlink:href="#m0b2b94e1a8" x="152.591515" y="239.279005" style="fill: #1f77b4; stroke: #1f77b4"/>
  <use xlink:href="#m0b2b94e1a8" x="113.714623" y="246.24" style="fill: #1f77b4; stroke: #1f77b4"/>
  <use xlink:href="#m0b2b94e1a8" x="113.024773" y="226.547051" style="fill: #1f77b4; stroke: #1f77b4"/>
  <use xlink:href="#m0b2b94e1a8" x="338.141005" y="222.051456" style="fill: #1f77b4; stroke: #1f77b4"/>
  <use xlink:href="#m0b2b94e1a8" x="373.581818" y="238.386935" style="fill: #1f77b4; stroke: #1f77b4"/>
  <use xlink:href="#m0b2b94e1a8" x="313.921933" y="224.57181" style="fill: #1f77b4; stroke: #1f77b4"/>
  <use xlink:href="#m0b2b94e1a8" x="324.556214" y="211.071361" style="fill: #1f77b4; stroke: #1f77b4"/>
  <use xlink:href="#m0b2b94e1a8" x="345.174903" y="236.974756" style="fill: #1f77b4; stroke: #1f77b4"/>
  <use xlink:href="#m0b2b94e1a8" x="316.112018" y="213.193317" style="fill: #1f77b4; stroke: #1f77b4"/>
  <use xlink:href="#m0b2b94e1a8" x="346.3371" y="238.095559" style="fill: #1f77b4; stroke: #1f77b4"/>
  <use xlink:href="#m0b2b94e1a8" x="367.0621" y="236.945135" style="fill: #1f77b4; stroke: #1f77b4"/>
  <use xlink:href="#m0b2b94e1a8" x="321.344898" y="245.690014" style="fill: #1f77b4; stroke: #1f77b4"/>
  <use xlink:href="#m0b2b94e1a8" x="299.389154" y="241.617105" style="fill: #1f77b4; stroke: #1f77b4"/>
  <use xlink:href="#m0b2b94e1a8" x="335.724585" y="44.64" style="fill: red; stroke: red"/>
 </g>
</svg>