<?xml version="1.0" encoding="utf-8"?>
<svg xmlns:xlink="http://www.w3.org/1999/xlink" width="432pt" height="288pt" viewBox="0 0 432 288" xmlns="http://www.w3.org/2000/svg" version="1.1">
 <defs>
  <style type="text/css">*{stroke-linejoin: round; stroke-linecap: butt}</style>
  <path id="m92d7be64fe" d="M 0 3 
C 0.795609 3 1.55874 2.683901 2.12132 2.12132 
C 2.683901 1.55874 3 0.795609 3 0 
C 3 -0.795609 2.683901 -1.55874 2.12132 -2.12132 
C 1.55874 -2.683901 0.795609 -3 0 -3 
C -0.795609 -3 -1.55874 -2.683901 -2.12132 -2.12132 
C -2.683901 -1.55874 -3 -0.795609 -3 0 
C -3 0.795609 -2.683901 1.55874 -2.12132 2.12132 
C -1.55874 2.683901 -0.795609 3 0 3 
z
" style="stroke: #1f77b4; stroke-opacity: 0.6"/>
 </defs>
 <g>
  <use xlink:href="#m92d7be64fe" x="180.898561" y="230.670052" style="fill: #1f77b4; fill-opacity: 0.6; stroke: #1f77b4; stroke-opacity: 0.6"/>
  <use xlink:href="#m92d7be64fe" x="169.910809" y="230.78148" style="fill: #1f77b4; fill-opacity: 0.6; stroke: #1f77b4; stroke-opacity: 0.6"/>
  <use xlink:href="#m92d7be64fe" x="149.886355" y="236.596663" style="fill: #1f77b4; fill-opacity: 0.6; stroke: #1f77b4; stroke-opacity: 0.6"/>
  <use xlink:href="#m92d7be64fe" x="187.658544" y="227.283212" style="fill: #1f77b4; fill-opacity: 0.6; stroke: #1f77b4; stroke-opacity: 0.6"/>
  <use xlink:href="#m92d7be64fe" x="179.040549" y="212.965236" style="fill: #1f77b4; fill-opacity: 0.6; stroke: #1f77b4; stroke-opacity: 0.6"/>
  <use xlink:href="#m92d7be64fe" x="182.80295" y="246.24" style="fill: #1f77b4; fill-opacity: 0.6; stroke: #1f77b4; stroke-opacity: 0.6"/>
  <use xlink:href="#m92d7be64fe" x="175.668764" y="233.563934" style="fill: #1f77b4; fill-opacity: 0.6; stroke: #1f77b4; stroke-opacity: 0.6"/>
  <use xlink:href="#m92d7be64fe" x="174.918125" y="209.824623" style="fill: #1f77b4; fill-opacity: 0.6; stroke: #1f77b4; stroke-opacity: 0.6"/>
  <use xlink:href="#m92d7be64fe" x="167.95901" y="216.926374" style="fill: #1f77b4; fill-opacity: 0.6; stroke: #1f77b4; stroke-opacity: 0.6"/>
  <use xlink:href="#m92d7be64fe" x="154.999602" y="235.342144" style="fill: #1f77b4; fill-opacity: 0.6; stroke: #1f77b4; stroke-opacity: 0.6"/>
  <use xlink:href="#m92d7be64fe" x="348.470721" y="171.900681" style="fill: #1f77b4; fill-opacity: 0.6; stroke: #1f77b4; stroke-opacity: 0.6"/>
  <use xlink:href="#m92d7be64fe" x="353.822944" y="165.646318" style="fill: #1f77b4; fill-opacity: 0.6; stroke: #1f77b4; stroke-opacity: 0.6"/>
  <use xlink:href="#m92d7be64fe" x="368.655758" y="175.583049" style="fill: #1f77b4; fill-opacity: 0.6; stroke: #1f77b4; stroke-opacity: 0.6"/>
  <use xlink:href="#m92d7be64fe" x="341.400437" y="161.245561" style="fill: #1f77b4; fill-opacity: 0.6; stroke: #1f77b4; stroke-opacity: 0.6"/>
  <use xlink:href="#m92d7be64fe" x="354.850025" y="171.481956" style="fill: #1f77b4; fill-opacity: 0.6; stroke: #1f77b4; stroke-opacity: 0.6"/>
  <use xlink:href="#m92d7be64fe" x="317.725916" y="182.213115" style="fill: #1f77b4; fill-opacity: 0.6; stroke: #1f77b4; stroke-opacity: 0.6"/>
  <use xlink:href="#m92d7be64fe" x="361.609378" y="163.927181" style="fill: #1f77b4; fill-opacity: 0.6; stroke: #1f77b4; stroke-opacity: 0.6"/>
  <use xlink:href="#m92d7be64fe" x="373.581818" y="168.27141" style="fill: #1f77b4; fill-opacity: 0.6; stroke: #1f77b4; stroke-opacity: 0.6"/>
  <use xlink:href="#m92d7be64fe" x="361.133601" y="162.919457" style="fill: #1f77b4; fill-opacity: 0.6; stroke: #1f77b4; stroke-opacity: 0.6"/>
  <use xlink:href="#m92d7be64fe" x="69.218182" y="44.64" style="fill: #1f77b4; fill-opacity: 0.6; stroke: #1f77b4; stroke-opacity: 0.6"/>
  <use xlink:href="#m92d7be64fe" x="363.458128" y="168.40812" style="fill: #ff0000; fill-opacity: 0.6; stroke: #ff0000; stroke-opacity: 0.6"/>
 </g>
</svg>