<?xml version="1.0" encoding="utf-8"?>
<svg xmlns:xlink="http://www.w3.org/1999/xlink" width="432pt" height="288pt" viewBox="0 0 432 288" xmlns="http://www.w3.org/2000/svg" version="1.1">
 <defs>
  <style type="text/css">*{stroke-linejoin: round; stroke-linecap: butt}</style>
  <path id="mdef189c114" d="M 0 3 
C 0.795609 3 1.55874 2.683901 2.12132 2.12132 
C 2.683901 1.55874 3 0.795609 3 0 
C 3 -0.795609 2.683901 -1.55874 2.12132 -2.12132 
C 1.55874 -2.683901 0.795609 -3 0 -3 
C -0.795609 -3 -1.55874 -2.683901 -2.12132 -2.12132 
C -2.683901 -1.55874 -3 -0.795609 -3 0 
C -3 0.795609 -2.683901 1.55874 -2.12132 2.12132 
C -1.55874 2.683901 -0.795609 3 0 3 
z"/>
 </defs>
 <g>
  <use xlink:href="#mdef189c114" x="85.575799" y="57.257335" style="fill: #1f77b4;"/>
  <use xlink:href="#mdef189c114" x="86.743254" y="108.278936" style="fill: #1f77b4;"/>
  <use xlink:href="#mdef189c114" x="86.402678" y="141.75485" style="fill: #1f77b4;"/>
  <use xlink:href="#mdef189c114" x="90.995" y="44.64" style="fill: #1f77b4;"/>
  <use xlink:href="#mdef189c114" x="91.391488" y="102.746695" style="fill: #1f77b4;"/>
  <use xlink:href="#mdef189c114" x="94.791888" y="158.589235" style="fill: #1f77b4;"/>
  <use xlink:href="#mdef189c114" x="80.165901" y="101.782403" style="fill: #1f77b4;"/>
  <use xlink:href="#mdef189c114" x="90.189123" y="75.491076" style="fill: #1f77b4;"/>
  <use xlink:href="#mdef189c114" x="69.218182" y="57.151583" style="fill: #1f77b4;"/>
  <use xlink:href="#mdef189c114" x="73.726513" y="140.608076" style="fill: #1f77b4;"/>
  <use xlink:href="#mdef189c114" x="212.814852" y="157.562535" style="fill: #1f77b4;"/>
  <use xlink:href="#mdef189c114" x="189.648454" y="191.604578" style="fill: #1f77b4;"/>
  <use xlink:href="#mdef189c114" x="207.002689" y="182.348587" style="fill: #1f77b4;"/>
  <use xlink:href="#mdef189c114" x="196.241809" y="136.900836" style="fill: #1f77b4;"/>
  <use xlink:href="#mdef189c114" x="198.250965" y="172.901995" style="fill: #1f77b4;"/>
  <use xlink:href="#mdef189c114" x="216.285356" y="161.805406" style="fill: #1f77b4;"/>
  <use xlink:href="#mdef189c114" x="209.76821" y="189.535735" style="fill: #1f77b4;"/>
  <use xlink:href="#mdef189c114" x="202.190359" y="133.453135" style="fill: #1f77b4;"/>
  <use xlink:href="#mdef189c114" x="184.167541" y="154.30678" style="fill: #1f77b4;"/>
  <use xlink:href="#mdef189c114" x="210.540604" y="246.24" style="fill: red;"/>
  <use xlink:href="#mdef189c114" x="373.581818" y="177.694318" style="fill: #1f77b4;"/>
 </g>
</svg>