<?xml version="1.0" encoding="utf-8"?>
<!DOCTYPE svg PUBLIC "-//W3C//DTD SVG 1.1//EN" "http://www.w3.org/Graphics/SVG/1.1/DTD/svg11.dtd">
<svg xmlns:xlink="http://www.w3.org/1999/xlink" width="432pt" height="288pt" viewBox="0 0 432 288" xmlns="http://www.w3.org/2000/svg" version="1.1">
 <defs>
  <style type="text/css">*{stroke-linejoin: round; stroke-linecap: butt}</style>
  <path id="m33805b98a0" d="M 0 3 
C 0.795609 3 1.55874 2.683901 2.12132 2.12132 
C 2.683901 1.55874 3 0.795609 3 0 
C 3 -0.795609 2.683901 -1.55874 2.12132 -2.12132 
C 1.55874 -2.683901 0.795609 -3 0 -3 
C -0.795609 -3 -1.55874 -2.683901 -2.12132 -2.12132 
C -2.683901 -1.55874 -3 -0.795609 -3 0 
C -3 0.795609 -2.683901 1.55874 -2.12132 2.12132 
C -1.55874 2.683901 -0.795609 3 0 3 
z"/>
 </defs>
 <g id="figure_1">
  <g id="axes_1">
   <g id="PathCollection_1">
    <use xlink:href="#m33805b98a0" x="79.894641" y="221.725911" style="fill: #1f77b4; stroke: #1f77b4"/>
    <use xlink:href="#m33805b98a0" x="126.555077" y="203.483883" style="fill: #1f77b4; stroke: #1f77b4"/>
    <use xlink:href="#m33805b98a0" x="78.759151" y="217.151705" style="fill: #1f77b4; stroke: #1f77b4"/>
    <use xlink:href="#m33805b98a0" x="97.959997" y="233.784502" style="fill: #1f77b4; stroke: #1f77b4"/>
    <use xlink:href="#m33805b98a0" x="89.526922" y="212.876049" style="fill: #1f77b4; stroke: #1f77b4"/>
    <use xlink:href="#m33805b98a0" x="70.789213" y="216.582185" style="fill: #1f77b4; stroke: #1f77b4"/>
    <use xlink:href="#m33805b98a0" x="89.602781" y="225.833221" style="fill: #1f77b4; stroke: #1f77b4"/>
    <use xlink:href="#m33805b98a0" x="96.832545" y="238.195554" style="fill: #1f77b4; stroke: #1f77b4"/>
    <use xlink:href="#m33805b98a0" x="69.218182" y="246.24" style="fill: #1f77b4; stroke: #1f77b4"/>
    <use xlink:href="#m33805b98a0" x="106.862227" y="238.501676" style="fill: #1f77b4; stroke: #1f77b4"/>
    <use xlink:href="#m33805b98a0" x="265.537033" y="123.591862" style="fill: #1f77b4; stroke: #1f77b4"/>
    <use xlink:href="#m33805b98a0" x="243.456135" y="158.954184" style="fill: #1f77b4; stroke: #1f77b4"/>
    <use xlink:href="#m33805b98a0" x="257.585775" y="145.922245" style="fill: #1f77b4; stroke: #1f77b4"/>
    <use xlink:href="#m33805b98a0" x="255.271311" y="181.79969" style="fill: #1f77b4; stroke: #1f77b4"/>
    <use xlink:href="#m33805b98a0" x="262.116497" y="157.34499" style="fill: #1f77b4; stroke: #1f77b4"/>
    <use xlink:href="#m33805b98a0" x="253.470266" y="164.072891" style="fill: #1f77b4; stroke: #1f77b4"/>
    <use xlink:href="#m33805b98a0" x="256.231272" y="130.319615" style="fill: #1f77b4; stroke: #1f77b4"/>
    <use xlink:href="#m33805b98a0" x="239.585888" y="145.615655" style="fill: #1f77b4; stroke: #1f77b4"/>
    <use xlink:href="#m33805b98a0" x="214.424975" y="171.922511" style="fill: #1f77b4; stroke: #1f77b4"/>
    <use xlink:href="#m33805b98a0" x="231.555244" y="136.816218" style="fill: #1f77b4; stroke: #1f77b4"/>
    <use xlink:href="#m33805b98a0" x="373.581818" y="44.64" style="fill: red; stroke: red"/>
   </g>
  </g>
 </g>
</svg>