<?xml version="1.0" encoding="utf-8"?>
<svg xmlns:xlink="http://www.w3.org/1999/xlink" width="432pt" height="288pt" viewBox="0 0 432 288" xmlns="http://www.w3.org/2000/svg" version="1.1">
 <defs>
  <style type="text/css">*{stroke-linejoin: round; stroke-linecap: butt}</style>
  <path id="m12fa482d0d" d="M 0 3 
C 0.795609 3 1.55874 2.683901 2.12132 2.12132 
C 2.683901 1.55874 3 0.795609 3 0 
C 3 -0.795609 2.683901 -1.55874 2.12132 -2.12132 
C 1.55874 -2.683901 0.795609 -3 0 -3 
C -0.795609 -3 -1.55874 -2.683901 -2.12132 -2.12132 
C -2.683901 -1.55874 -3 -0.795609 -3 0 
C -3 0.795609 -2.683901 1.55874 -2.12132 2.12132 
C -1.55874 2.683901 -0.795609 3 0 3 
z"/>
 </defs>
 <g>
  <use xlink:href="#m12fa482d0d" x="81.774344" y="246.24" style="fill: #1f77b4; stroke: #1f77b4"/>
  <use xlink:href="#m12fa482d0d" x="78.650238" y="139.268875" style="fill: #1f77b4; stroke: #1f77b4"/>
  <use xlink:href="#m12fa482d0d" x="104.039517" y="108.804167" style="fill: #1f77b4; stroke: #1f77b4"/>
  <use xlink:href="#m12fa482d0d" x="77.898532" y="189.283447" style="fill: #1f77b4; stroke: #1f77b4"/>
  <use xlink:href="#m12fa482d0d" x="103.545447" y="181.034244" style="fill: #1f77b4; stroke: #1f77b4"/>
  <use xlink:href="#m12fa482d0d" x="106.826096" y="164.021896" style="fill: #1f77b4; stroke: #1f77b4"/>
  <use xlink:href="#m12fa482d0d" x="105.195039" y="202.429399" style="fill: #1f77b4; stroke: #1f77b4"/>
  <use xlink:href="#m12fa482d0d" x="69.218182" y="243.811211" style="fill: #1f77b4; stroke: #1f77b4"/>
  <use xlink:href="#m12fa482d0d" x="90.534983" y="209.378229" style="fill: #1f77b4; stroke: #1f77b4"/>
  <use xlink:href="#m12fa482d0d" x="118.416077" y="207.045167" style="fill: #1f77b4; stroke: #1f77b4"/>
  <use xlink:href="#m12fa482d0d" x="250.34699" y="59.56573" style="fill: #1f77b4; stroke: #1f77b4"/>
  <use xlink:href="#m12fa482d0d" x="253.581407" y="44.64" style="fill: #1f77b4; stroke: #1f77b4"/>
  <use xlink:href="#m12fa482d0d" x="276.189498" y="54.050218" style="fill: #1f77b4; stroke: #1f77b4"/>
  <use xlink:href="#m12fa482d0d" x="230.832002" y="67.574957" style="fill: #1f77b4; stroke: #1f77b4"/>
  <use xlink:href="#m12fa482d0d" x="304.35064" y="69.058875" style="fill: #1f77b4; stroke: #1f77b4"/>
  <use xlink:href="#m12fa482d0d" x="237.306282" y="73.799386" style="fill: #1f77b4; stroke: #1f77b4"/>
  <use xlink:href="#m12fa482d0d" x="260.206378" y="64.268011" style="fill: #1f77b4; stroke: #1f77b4"/>
  <use xlink:href="#m12fa482d0d" x="294.741347" y="60.523019" style="fill: #1f77b4; stroke: #1f77b4"/>
  <use xlink:href="#m12fa482d0d" x="274.360437" y="45.315518" style="fill: #1f77b4; stroke: #1f77b4"/>
  <use xlink:href="#m12fa482d0d" x="271.917809" y="117.161044" style="fill: #1f77b4; stroke: #1f77b4"/>
  <use xlink:href="#m12fa482d0d" x="373.581818" y="158.920585" style="fill: red; stroke: red"/>
 </g>
</svg>