<?xml version="1.0" encoding="UTF-8" standalone="no"?>
<svg xmlns="http://www.w3.org/2000/svg" width="432pt" height="288pt" viewBox="0 0 432 288" version="1.1">
  <g id="surface1">
    <rect x="55.3392" y="202.530475" width="10.7136" height="53.789525" style="fill:#ff0000;"/>
    <rect x="68.7312" y="190.496528" width="10.7136" height="65.823472" style="fill:#1f77b4;"/>
    <rect x="82.1232" y="181.786684" width="10.7136" height="74.533316" style="fill:#1f77b4;"/>
    <rect x="95.5152" y="184.955412" width="10.7136" height="71.364588" style="fill:#1f77b4;"/>
    <rect x="108.9072" y="188.887964" width="10.7136" height="67.432036" style="fill:#1f77b4;"/>
    <rect x="122.2992" y="175.477316" width="10.7136" height="80.842684" style="fill:#1f77b4;"/>
    <rect x="135.6912" y="174.568547" width="10.7136" height="81.751453" style="fill:#1f77b4;"/>
    <rect x="149.0832" y="190.852906" width="10.7136" height="65.467094" style="fill:#1f77b4;"/>
    <rect x="162.4752" y="183.521762" width="10.7136" height="72.798238" style="fill:#1f77b4;"/>
    <rect x="175.8672" y="185.228885" width="10.7136" height="71.091115" style="fill:#1f77b4;"/>
    <rect x="189.2592" y="208.539348" width="10.7136" height="47.780652" style="fill:#1f77b4;"/>
    <rect x="202.6512" y="212.81759" width="10.7136" height="43.50241" style="fill:#1f77b4;"/>
    <rect x="216.0432" y="188.14334" width="10.7136" height="68.17666" style="fill:#1f77b4;"/>
    <rect x="229.4352" y="184.743181" width="10.7136" height="71.576819" style="fill:#1f77b4;"/>
    <rect x="242.8272" y="54.72" width="10.7136" height="201.6" style="fill:#ff0000;"/>
    <rect x="256.2192" y="184.21185" width="10.7136" height="72.10815" style="fill:#1f77b4;"/>
    <rect x="269.6112" y="252.082551" width="10.7136" height="4.237449" style="fill:#1f77b4;"/>
    <rect x="283.0032" y="203.519929" width="10.7136" height="52.800071" style="fill:#1f77b4;"/>
    <rect x="296.3952" y="196.26341" width="10.7136" height="60.05659" style="fill:#1f77b4;"/>
    <rect x="309.7872" y="200.577803" width="10.7136" height="55.742197" style="fill:#1f77b4;"/>
    <rect x="323.1792" y="171.608685" width="10.7136" height="84.711315" style="fill:#1f77b4;"/>
    <rect x="336.5712" y="213.236659" width="10.7136" height="43.083341" style="fill:#1f77b4;"/>
    <rect x="349.9632" y="192.663711" width="10.7136" height="63.656289" style="fill:#1f77b4;"/>
    <rect x="363.3552" y="190.839526" width="10.7136" height="65.480474" style="fill:#1f77b4;"/>
    <rect x="376.7472" y="180.916641" width="10.7136" height="75.403359" style="fill:#1f77b4;"/>
  </g>
</svg>