<?xml version="1.0" encoding="utf-8"?>
<svg xmlns:xlink="http://www.w3.org/1999/xlink" width="432pt" height="288pt" viewBox="0 0 432 288" xmlns="http://www.w3.org/2000/svg" version="1.1">
 <g>
   <rect x="162.4752" y="54.72" width="10.7136" height="201.6" style="fill: #ff0000"/>
   <rect x="256.2192" y="251.980668" width="10.7136" height="4.339332" style="fill: #00ff00"/>
   <rect x="55.3392" y="201.865683" width="10.7136" height="54.454317" style="fill: #1f77b4"/>
   <rect x="68.7312" y="196.258659" width="10.7136" height="59.061341" style="fill: #1f77b4"/>
   <rect x="82.1232" y="204.753644" width="10.7136" height="50.566356" style="fill: #1f77b4"/>
   <rect x="95.5152" y="192.501562" width="10.7136" height="62.818438" style="fill: #1f77b4"/>
   <rect x="108.9072" y="202.64146" width="10.7136" height="52.67854" style="fill: #1f77b4"/>
   <rect x="122.2992" y="180.286769" width="10.7136" height="75.033231" style="fill: #1f77b4"/>
   <rect x="135.6912" y="201.238869" width="10.7136" height="54.081131" style="fill: #1f77b4"/>
   <rect x="149.0832" y="179.919322" width="10.7136" height="75.400678" style="fill: #1f77b4"/>
   <rect x="175.8672" y="175.226901" width="10.7136" height="80.093099" style="fill: #1f77b4"/>
   <rect x="189.2592" y="189.250133" width="10.7136" height="66.069867" style="fill: #1f77b4"/>
   <rect x="202.6512" y="194.541162" width="10.7136" height="60.778838" style="fill: #1f77b4"/>
   <rect x="216.0432" y="186.458119" width="10.7136" height="68.861881" style="fill: #1f77b4"/>
   <rect x="229.4352" y="174.132716" width="10.7136" height="81.187284" style="fill: #1f77b4"/>
   <rect x="242.8272" y="190.187322" width="10.7136" height="65.132678" style="fill: #1f77b4"/>
   <rect x="269.6112" y="195.243868" width="10.7136" height="60.076132" style="fill: #1f77b4"/>
   <rect x="283.0032" y="212.371474" width="10.7136" height="42.948526" style="fill: #1f77b4"/>
   <rect x="296.3952" y="201.132064" width="10.7136" height="54.187936" style="fill: #1f77b4"/>
   <rect x="309.7872" y="187.152394" width="10.7136" height="68.167606" style="fill: #1f77b4"/>
   <rect x="323.1792" y="201.90191" width="10.7136" height="53.41809" style="fill: #1f77b4"/>
   <rect x="336.5712" y="187.815425" width="10.7136" height="67.504575" style="fill: #1f77b4"/>
   <rect x="349.9632" y="180.982457" width="10.7136" height="74.337543" style="fill: #1f77b4"/>
   <rect x="363.3552" y="195.389705" width="10.7136" height="59.930295" style="fill: #1f77b4"/>
   <rect x="376.7472" y="178.404036" width="10.7136" height="76.915964" style="fill: #1f77b4"/>
 </g>
</svg>