<?xml version="1.0" encoding="utf-8"?>
<svg width="432pt" height="288pt" viewBox="0 0 432 288" xmlns="http://www.w3.org/2000/svg" version="1.1">
  <g>
    <rect x="55.3392" y="217.405293" width="10.7136" height="38.914707" style="fill: #ff0000"/>
    <text x="63.244253" y="219.204568" font-size="8" text-anchor="middle" transform="scale(1,-1)">5.16</text>
    <rect x="68.7312" y="210.212238" width="10.7136" height="46.107762" style="fill: #1f77b4"/>
    <text x="72.636509" y="208.80406" font-size="8" text-anchor="middle" transform="scale(1,-1)">6.11</text>
    <rect x="82.1232" y="199.778736" width="10.7136" height="56.541264" style="fill: #1f77b4"/>
    <text x="85.126781" y="195.254907" font-size="8" text-anchor="middle" transform="scale(1,-1)">7.50</text>
    <rect x="95.5152" y="203.712078" width="10.7136" height="52.607922" style="fill: #1f77b4"/>
    <text x="109.748978" y="203.370834" font-size="8" text-anchor="middle" transform="scale(1,-1)">6.97</text>
    <rect x="108.9072" y="54.72" width="10.7136" height="201.6" style="fill: #ff0000"/>
    <text x="116.782894" y="52.605244" font-size="8" text-anchor="middle" transform="scale(1,-1)">26.73</text>
    <rect x="122.2992" y="210.244551" width="10.7136" height="46.075449" style="fill: #1f77b4"/>
    <text x="130.004043" y="212.298918" font-size="8" text-anchor="middle" transform="scale(1,-1)">6.11</text>
    <rect x="135.6912" y="187.803878" width="10.7136" height="68.516122" style="fill: #1f77b4"/>
    <text x="123.529904" y="183.3299" font-size="8" text-anchor="middle" transform="scale(1,-1)">9.08</text>
    <rect x="149.0832" y="189.397555" width="10.7136" height="66.922445" style="fill: #1f77b4"/>
    <text x="161.630813" y="186.569394" font-size="8" text-anchor="middle" transform="scale(1,-1)">8.87</text>
    <rect x="162.4752" y="200.665895" width="10.7136" height="55.654105" style="fill: #1f77b4"/>
    <text x="170.192765" y="202.62226" font-size="8" text-anchor="middle" transform="scale(1,-1)">7.38</text>
    <rect x="175.8672" y="193.534201" width="10.7136" height="62.785799" style="fill: #1f77b4"/>
    <text x="186.445185" y="194.467256" font-size="8" text-anchor="middle" transform="scale(1,-1)">8.32</text>
    <rect x="189.2592" y="252.548649" width="10.7136" height="3.771351" style="fill: #1f77b4"/>
    <text x="197.083335" y="250.433893" font-size="8" text-anchor="middle" transform="scale(1,-1)">0.50</text>
    <rect x="202.6512" y="187.214287" width="10.7136" height="69.105713" style="fill: #1f77b4"/>
    <text x="205.747736" y="182.465252" font-size="8" text-anchor="middle" transform="scale(1,-1)">9.16</text>
    <rect x="216.0432" y="208.016106" width="10.7136" height="48.303894" style="fill: #1f77b4"/>
    <text x="224.044221" y="213.583758" font-size="8" text-anchor="middle" transform="scale(1,-1)">6.40</text>
    <rect x="229.4352" y="190.552394" width="10.7136" height="65.767606" style="fill: #1f77b4"/>
    <text x="239.207424" y="190.686251" font-size="8" text-anchor="middle" transform="scale(1,-1)">8.72</text>
    <rect x="242.8272" y="192.822757" width="10.7136" height="63.497243" style="fill: #1f77b4"/>
    <text x="280.527882" y="195.732242" font-size="8" text-anchor="middle" transform="scale(1,-1)">8.42</text>
    <rect x="256.2192" y="210.081487" width="10.7136" height="46.238513" style="fill: #1f77b4"/>
    <text x="263.274746" y="214.760207" font-size="8" text-anchor="middle" transform="scale(1,-1)">6.13</text>
    <rect x="269.6112" y="206.274862" width="10.7136" height="50.045138" style="fill: #1f77b4"/>
    <text x="238.959114" y="204.091229" font-size="8" text-anchor="middle" transform="scale(1,-1)">6.63</text>
    <rect x="283.0032" y="204.317551" width="10.7136" height="52.002449" style="fill: #1f77b4"/>
    <text x="304.823872" y="203.759617" font-size="8" text-anchor="middle" transform="scale(1,-1)">6.89</text>
    <rect x="296.3952" y="218.264915" width="10.7136" height="38.055085" style="fill: #1f77b4"/>
    <text x="307.018821" y="220.260625" font-size="8" text-anchor="middle" transform="scale(1,-1)">5.05</text>
    <rect x="309.7872" y="189.965754" width="10.7136" height="66.354246" style="fill: #1f77b4"/>
    <text x="316.216893" y="184.529519" font-size="8" text-anchor="middle" transform="scale(1,-1)">9.54</text>
    <rect x="323.1792" y="194.688213" width="10.7136" height="61.631787" style="fill: #1f77b4"/>
    <text x="336.491153" y="193.142023" font-size="8" text-anchor="middle" transform="scale(1,-1)">8.17</text>
    <rect x="336.5712" y="199.702917" width="10.7136" height="56.617083" style="fill: #1f77b4"/>
    <text x="347.19962" y="201.711569" font-size="8" text-anchor="middle" transform="scale(1,-1)">7.51</text>
    <rect x="349.9632" y="211.799077" width="10.7136" height="44.520923" style="fill: #1f77b4"/>
    <text x="358.646208" y="213.843978" font-size="8" text-anchor="middle" transform="scale(1,-1)">5.90</text>
    <rect x="363.3552" y="184.337307" width="10.7136" height="71.982693" style="fill: #1f77b4"/>
    <text x="368.057548" y="180.878945" font-size="8" text-anchor="middle" transform="scale(1,-1)">9.71</text>
    <rect x="376.7472" y="183.082912" width="10.7136" height="73.237088" style="fill: #1f77b4"/>
    <text x="368.0821" y="172.9073" font-size="8" text-anchor="middle" transform="scale(1,-1)">9.71</text>
  </g>
</svg>