<?xml version="1.0" standalone="no"?>
<!DOCTYPE svg PUBLIC "-//W3C//DTD SVG 20010904//EN"
 "http://www.w3.org/TR/2001/REC-SVG-20010904/DTD/svg10.dtd">
<svg version="1.0" xmlns="http://www.w3.org/2000/svg"
 width="432pt" height="288pt" viewBox="0 0 432 288">
<g transform="translate(0,288) scale(0.1,-0.1)" fill="#000000" stroke="none">
    <!-- Drawing bars -->
    <!-- Bar 1 -->
    <rect x="100" y="2000" width="200" height="500" fill="#1f77b4"/>
    <text x="120" y="1900" font-family="Verdana" font-size="100" fill="black">7.22</text>
    <!-- Bar 2 -->
    <rect x="400" y="2100" width="200" height="400" fill="#1f77b4"/>
    <text x="420" y="2000" font-family="Verdana" font-size="100" fill="black">6.58</text>
    <!-- Bar 3 (Max) -->
    <rect x="700" y="500" width="200" height="2000" fill="red"/>
    <text x="720" y="400" font-family="Verdana" font-size="100" fill="black">27.85</text>
    <!-- Bar 4 -->
    <rect x="1000" y="1700" width="200" height="800" fill="#1f77b4"/>
    <text x="1020" y="1600" font-family="Verdana" font-size="100" fill="black">9.45</text>
    <!-- Bar 5 -->
    <rect x="1300" y="2200" width="200" height="300" fill="#1f77b4"/>
    <text x="1320" y="2100" font-family="Verdana" font-size="100" fill="black">5.90</text>
    <!-- Bar 6 -->
    <rect x="1600" y="1800" width="200" height="700" fill="#1f77b4"/>
    <text x="1620" y="1700" font-family="Verdana" font-size="100" fill="black">7.58</text>
    <!-- Bar 7 -->
    <rect x="1900" y="500" width="200" height="2000" fill="#1f77b4"/>
    <text x="1920" y="400" font-family="Verdana" font-size="100" fill="black">9.94</text>
    <!-- Bar 8 -->
    <rect x="2200" y="1900" width="200" height="600" fill="#1f77b4"/>
    <text x="2220" y="1800" font-family="Verdana" font-size="100" fill="black">7.75</text>
    <!-- Bar 9 -->
    <rect x="2500" y="2300" width="200" height="200" fill="#1f77b4"/>
    <text x="2520" y="2200" font-family="Verdana" font-size="100" fill="black">5.32</text>
    <!-- Bar 10 -->
    <rect x="2800" y="2200" width="200" height="300" fill="#1f77b4"/>
    <text x="2820" y="2100" font-family="Verdana" font-size="100" fill="black">5.83</text>
    <!-- Bar 11 -->
    <rect x="3100" y="2300" width="200" height="200" fill="#1f77b4"/>
    <text x="3120" y="2200" font-family="Verdana" font-size="100" fill="black">5.18</text>
    <!-- Bar 12 -->
    <rect x="3400" y="500" width="200" height="2000" fill="#1f77b4"/>
    <text x="3420" y="400" font-family="Verdana" font-size="100" fill="black">9.90</text>
    <!-- Bar 13 -->
    <rect x="3700" y="1900" width="200" height="600" fill="#1f77b4"/>
    <text x="3720" y="1800" font-family="Verdana" font-size="100" fill="black">8.07</text>
    <!-- Bar 14 -->
    <rect x="4000" y="1700" width="200" height="800" fill="#1f77b4"/>
    <text x="4020" y="1600" font-family="Verdana" font-size="100" fill="black">7.13</text>
    <!-- Bar 15 -->
    <rect x="4300" y="500" width="200" height="2000" fill="#1f77b4"/>
    <text x="4320" y="400" font-family="Verdana" font-size="100" fill="black">9.74</text>
    <!-- Bar 16 -->
    <rect x="4600" y="1800" width="200" height="700" fill="#1f77b4"/>
    <text x="4620" y="1700" font-family="Verdana" font-size="100" fill="black">7.57</text>
    <!-- Bar 17 -->
    <rect x="4900" y="2200" width="200" height="300" fill="#1f77b4"/>
    <text x="4920" y="2100" font-family="Verdana" font-size="100" fill="black">5.41</text>
    <!-- Bar 18 -->
    <rect x="5200" y="2200" width="200" height="300" fill="#1f77b4"/>
    <text x="5220" y="2100" font-family="Verdana" font-size="100" fill="black">5.55</text>
    <!-- Bar 19 -->
    <rect x="5500" y="1800" width="200" height="700" fill="#1f77b4"/>
    <text x="5520" y="1700" font-family="Verdana" font-size="100" fill="black">7.48</text>
    <!-- Bar 20 (Min) -->
    <rect x="5800" y="2500" width="200" height="0" fill="green"/>
    <text x="5820" y="2400" font-family="Verdana" font-size="100" fill="black">0.50</text>
    <!-- Bar 21 -->
    <rect x="6100" y="1800" width="200" height="700" fill="#1f77b4"/>
    <text x="6120" y="1700" font-family="Verdana" font-size="100" fill="black">7.67</text>
    <!-- Bar 22 -->
    <rect x="6400" y="1900" width="200" height="600" fill="#1f77b4"/>
    <text x="6420" y="1800" font-family="Verdana" font-size="100" fill="black">6.82</text>
    <!-- Bar 23 -->
    <rect x="6700" y="1950" width="200" height="550" fill="#1f77b4"/>
    <text x="6720" y="1850" font-family="Verdana" font-size="100" fill="black">6.63</text>
    <!-- Bar 24 -->
    <rect x="7000" y="500" width="200" height="2000" fill="#1f77b4"/>
    <text x="7020" y="400" font-family="Verdana" font-size="100" fill="black">9.72</text>
</g>
</svg>