<?xml version="1.0" encoding="utf-8"?>
<svg width="432pt" height="288pt" viewBox="0 0 432 288" xmlns="http://www.w3.org/2000/svg" version="1.1">
  <g>
    <!-- Bar 1 -->
    <rect x="55.3392" y="200.647777" width="10.7136" height="55.672223" style="fill: #1f77b4"/>
    <text x="58.11947" y="195.973395" font-family="Arial" font-size="10" fill="black">6.63</text>
    <!-- Bar 2 -->
    <rect x="68.7312" y="208.789941" width="10.7136" height="47.530059" style="fill: #1f77b4"/>
    <text x="74.516523" y="214.525932" font-family="Arial" font-size="10" fill="black">5.66</text>
    <!-- Bar 3 -->
    <rect x="82.1232" y="205.90279" width="10.7136" height="50.41721" style="fill: #1f77b4"/>
    <text x="94.363355" y="203.409856" font-family="Arial" font-size="10" fill="black">6.01</text>
    <!-- Bar 4 -->
    <rect x="95.5152" y="172.536953" width="10.7136" height="83.783047" style="fill: #ff7f0e"/>
    <text x="100.831133" y="168.274948" font-family="Arial" font-size="10" fill="black">9.98</text>
    <!-- Bar 5 -->
    <rect x="108.9072" y="190.603307" width="10.7136" height="65.716693" style="fill: #1f77b4"/>
    <text x="112.011668" y="186.506067" font-family="Arial" font-size="10" fill="black">7.83</text>
    <!-- Bar 6 -->
    <rect x="122.2992" y="194.271788" width="10.7136" height="62.048212" style="fill: #1f77b4"/>
    <text x="129.366361" y="200.162327" font-family="Arial" font-size="10" fill="black">7.39</text>
    <!-- Bar 7 -->
    <rect x="135.6912" y="193.180761" width="10.7136" height="63.139239" style="fill: #1f77b4"/>
    <text x="157.687204" y="191.596162" font-family="Arial" font-size="10" fill="black">7.52</text>
    <!-- Bar 8 -->
    <rect x="149.0832" y="193.90385" width="10.7136" height="62.41615" style="fill: #1f77b4"/>
    <text x="152.188895" y="183.938569" font-family="Arial" font-size="10" fill="black">7.44</text>
    <!-- Bar 9 -->
    <rect x="162.4752" y="211.883204" width="10.7136" height="44.436796" style="fill: #1f77b4"/>
    <text x="167.705759" y="217.943968" font-family="Arial" font-size="10" fill="black">5.30</text>
    <!-- Bar 10 -->
    <rect x="175.8672" y="210.67554" width="10.7136" height="45.64446" style="fill: #1f77b4"/>
    <text x="178.762976" y="208.149249" font-family="Arial" font-size="10" fill="black">5.44</text>
    <!-- Bar 11 -->
    <rect x="189.2592" y="192.102639" width="10.7136" height="64.217361" style="fill: #1f77b4"/>
    <text x="197.292138" y="196.100268" font-family="Arial" font-size="10" fill="black">7.65</text>
    <!-- Bar 12 -->
    <rect x="202.6512" y="211.569865" width="10.7136" height="44.750135" style="fill: #1f77b4"/>
    <text x="203.813038" y="219.349269" font-family="Arial" font-size="10" fill="black">5.33</text>
    <!-- Bar 13 -->
    <rect x="216.0432" y="190.513926" width="10.7136" height="65.806074" style="fill: #1f77b4"/>
    <text x="222.396" y="186.026238" font-family="Arial" font-size="10" fill="black">7.84</text>
    <!-- Bar 14 -->
    <rect x="229.4352" y="213.391361" width="10.7136" height="42.928639" style="fill: #1f77b4"/>
    <text x="240.081699" y="211.034505" font-family="Arial" font-size="10" fill="black">5.12</text>
    <!-- Bar 15 -->
    <rect x="242.8272" y="190.812817" width="10.7136" height="65.507183" style="fill: #1f77b4"/>
    <text x="244.751266" y="197.601842" font-family="Arial" font-size="10" fill="black">7.81</text>
    <!-- Bar 16 -->
    <rect x="256.2192" y="252.124035" width="10.7136" height="4.195965" style="fill: #1f77b4"/>
    <text x="264.094894" y="250.009279" font-family="Arial" font-size="10" fill="black">0.50</text>
    <!-- Bar 17 -->
    <rect x="269.6112" y="185.949927" width="10.7136" height="70.370073" style="fill: #1f77b4"/>
    <text x="290.892844" y="188.390522" font-family="Arial" font-size="10" fill="black">8.39</text>
    <!-- Bar 18 -->
    <rect x="283.0032" y="183.628431" width="10.7136" height="72.691569" style="fill: #1f77b4"/>
    <text x="294.553324" y="177.125304" font-family="Arial" font-size="10" fill="black">8.66</text>
    <!-- Bar 19 -->
    <rect x="296.3952" y="179.333396" width="10.7136" height="76.986604" style="fill: #1f77b4"/>
    <text x="307.785848" y="168.611689" font-family="Arial" font-size="10" fill="black">9.17</text>
    <!-- Bar 20 -->
    <rect x="309.7872" y="54.72" width="10.7136" height="201.6" style="fill: #2ca02c"/>
    <text x="317.96242" y="52.605244" font-family="Arial" font-size="10" fill="black">24.02</text>
    <!-- Bar 21 -->
    <rect x="323.1792" y="182.648974" width="10.7136" height="73.671026" style="fill: #1f77b4"/>
    <text x="331.512566" y="186.282752" font-family="Arial" font-size="10" fill="black">8.78</text>
    <!-- Bar 22 -->
    <rect x="336.5712" y="197.421683" width="10.7136" height="58.898317" style="fill: #1f77b4"/>
    <text x="308.638248" y="203.02661" font-family="Arial" font-size="10" fill="black">7.02</text>
    <!-- Bar 23 -->
    <rect x="349.9632" y="205.090529" width="10.7136" height="51.229471" style="fill: #1f77b4"/>
    <text x="360.642844" y="206.932225" font-family="Arial" font-size="10" fill="black">6.10</text>
    <!-- Bar 24 -->
    <rect x="363.3552" y="181.839523" width="10.7136" height="74.480477" style="fill: #1f77b4"/>
    <text x="368.0821" y="177.118393" font-family="Arial" font-size="10" fill="black">8.88</text>
    <!-- Bar 25 -->
    <rect x="376.7472" y="196.649177" width="10.7136" height="59.670823" style="fill: #1f77b4"/>
    <text x="368.0821" y="194.493131" font-family="Arial" font-size="10" fill="black">7.11</text>
  </g>
</svg>