<?xml version="1.0" encoding="utf-8"?>
<svg width="432pt" height="288pt" viewBox="0 0 432 288" xmlns="http://www.w3.org/2000/svg" version="1.1">
  <g>
    <rect x="55.3392" y="209.390603" width="10.7136" height="46.929397" style="fill: red;"/>
    <text x="55.3392" y="200" font-size="10" transform="rotate(0)">6.10</text>
    <rect x="68.7312" y="184.29112" width="10.7136" height="71.02888" style="fill: #1f77b4;"/>
    <text x="68.7312" y="175" font-size="10" transform="rotate(0)">7.08</text>
    <rect x="82.1232" y="201.825876" width="10.7136" height="54.494124" style="fill: #1f77b4;"/>
    <text x="82.1232" y="192" font-size="10" transform="rotate(0)">5.39</text>
    <rect x="95.5152" y="180.644102" width="10.7136" height="75.675898" style="fill: #1f77b4;"/>
    <text x="95.5152" y="171" font-size="10" transform="rotate(0)">7.89</text>
    <rect x="108.9072" y="183.173652" width="10.7136" height="73.146348" style="fill: #1f77b4;"/>
    <text x="108.9072" y="174" font-size="10" transform="rotate(0)">7.62</text>
    <rect x="122.2992" y="208.893883" width="10.7136" height="47.426117" style="fill: #1f77b4;"/>
    <text x="122.2992" y="199" font-size="10" transform="rotate(0)">5.67</text>
    <rect x="135.6912" y="195.591039" width="10.7136" height="60.728961" style="fill: #1f77b4;"/>
    <text x="135.6912" y="186" font-size="10" transform="rotate(0)">6.59</text>
    <rect x="149.0832" y="197.692769" width="10.7136" height="58.627231" style="fill: #1f77b4;"/>
    <text x="149.0832" y="188" font-size="10" transform="rotate(0)">6.45</text>
    <rect x="162.4752" y="202.441147" width="10.7136" height="53.878853" style="fill: #1f77b4;"/>
    <text x="162.4752" y="193" font-size="10" transform="rotate(0)">6.72</text>
    <rect x="175.8672" y="214.825669" width="10.7136" height="41.494331" style="fill: #1f77b4;"/>
    <text x="175.8672" y="205" font-size="10" transform="rotate(0)">5.61</text>
    <rect x="189.2592" y="212.845386" width="10.7136" height="43.474614" style="fill: #1f77b4;"/>
    <text x="189.2592" y="203" font-size="10" transform="rotate(0)">5.65</text>
    <rect x="202.6512" y="190.901073" width="10.7136" height="65.418927" style="fill: #1f77b4;"/>
    <text x="202.6512" y="181" font-size="10" transform="rotate(0)">8.50</text>
    <rect x="216.0432" y="212.722878" width="10.7136" height="43.597122" style="fill: #1f77b4;"/>
    <text x="216.0432" y="203" font-size="10" transform="rotate(0)">5.67</text>
    <rect x="229.4352" y="187.499888" width="10.7136" height="68.820112" style="fill: #1f77b4;"/>
    <text x="229.4352" y="178" font-size="10" transform="rotate(0)">8.81</text>
    <rect x="242.8272" y="190.863245" width="10.7136" height="65.456755" style="fill: #1f77b4;"/>
    <text x="242.8272" y="181" font-size="10" transform="rotate(0)">8.67</text>
    <rect x="256.2192" y="205.646241" width="10.7136" height="50.673759" style="fill: #1f77b4;"/>
    <text x="256.2192" y="196" font-size="10" transform="rotate(0)">6.16</text>
    <rect x="269.6112" y="181.140624" width="10.7136" height="75.179376" style="fill: #1f77b4;"/>
    <text x="269.6112" y="172" font-size="10" transform="rotate(0)">9.51</text>
    <rect x="283.0032" y="188.512687" width="10.7136" height="67.807313" style="fill: #1f77b4;"/>
    <text x="283.0032" y="179" font-size="10" transform="rotate(0)">8.94</text>
    <rect x="296.3952" y="213.186078" width="10.7136" height="43.133922" style="fill: #1f77b4;"/>
    <text x="296.3952" y="204" font-size="10" transform="rotate(0)">5.50</text>
    <rect x="309.7872" y="206.695188" width="10.7136" height="49.624812" style="fill: #1f77b4;"/>
    <text x="309.7872" y="197" font-size="10" transform="rotate(0)">6.10</text>
    <rect x="323.1792" y="252.472757" width="10.7136" height="3.847243" style="fill: #1f77b4;"/>
    <text x="323.1792" y="243" font-size="10" transform="rotate(0)">9.85</text>
    <rect x="336.5712" y="180.535453" width="10.7136" height="75.784547" style="fill: #1f77b4;"/>
    <text x="336.5712" y="171" font-size="10" transform="rotate(0)">9.84</text>
    <rect x="349.9632" y="54.72" width="10.7136" height="201.6" style="fill: green;"/>
    <text x="349.9632" y="45" font-size="10" transform="rotate(0)">26.20</text>
    <rect x="363.3552" y="204.60439" width="10.7136" height="51.71561" style="fill: #1f77b4;"/>
    <text x="363.3552" y="195" font-size="10" transform="rotate(0)">6.72</text>
    <rect x="376.7472" y="189.641033" width="10.7136" height="66.678967" style="fill: #1f77b4;"/>
    <text x="376.7472" y="180" font-size="10" transform="rotate(0)">8.94</text>
  </g>
</svg>