<?xml version="1.0" encoding="utf-8"?>
<svg width="432pt" height="288pt" viewBox="0 0 432 288" xmlns="http://www.w3.org/2000/svg" version="1.1">
  <g>
    <rect x="55.3392" y="187.086143" width="10.7136" height="69.233857" style="fill: red;"/>
    <text x="60.854116" y="184.978314" font-size="8" text-anchor="middle" transform="scale(1,-1)">8.26</text>
    <rect x="68.7312" y="210.182235" width="10.7136" height="46.137765" style="fill: #1f77b4;"/>
    <text x="76.307368" y="208.067479" font-size="8" text-anchor="middle" transform="scale(1,-1)">5.50</text>
    <rect x="82.1232" y="173.057247" width="10.7136" height="83.262753" style="fill: #1f77b4;"/>
    <text x="76.682233" y="168.525055" font-size="8" text-anchor="middle" transform="scale(1,-1)">9.93</text>
    <rect x="95.5152" y="176.888662" width="10.7136" height="79.431338" style="fill: #1f77b4;"/>
    <text x="111.872614" y="174.544907" font-size="8" text-anchor="middle" transform="scale(1,-1)">9.47</text>
    <rect x="108.9072" y="184.637467" width="10.7136" height="71.682533" style="fill: #1f77b4;"/>
    <text x="116.525441" y="182.736647" font-size="8" text-anchor="middle" transform="scale(1,-1)">8.55</text>
    <rect x="122.2992" y="252.127965" width="10.7136" height="4.192035" style="fill: red;"/>
    <text x="129.849589" y="250.013209" font-size="8" text-anchor="middle" transform="scale(1,-1)">0.50</text>
    <rect x="135.6912" y="191.623363" width="10.7136" height="64.696637" style="fill: #1f77b4;"/>
    <text x="144.774749" y="192.259565" font-size="8" text-anchor="middle" transform="scale(1,-1)">7.72</text>
    <rect x="149.0832" y="182.211226" width="10.7136" height="74.108774" style="fill: #1f77b4;"/>
    <text x="152.593222" y="181.007096" font-size="8" text-anchor="middle" transform="scale(1,-1)">8.84</text>
    <rect x="162.4752" y="198.975552" width="10.7136" height="57.344448" style="fill: #1f77b4;"/>
    <text x="172.940134" y="200.908257" font-size="8" text-anchor="middle" transform="scale(1,-1)">6.84</text>
    <rect x="175.8672" y="176.290477" width="10.7136" height="80.029523" style="fill: #1f77b4;"/>
    <text x="186.195424" y="171.843579" font-size="8" text-anchor="middle" transform="scale(1,-1)">9.55</text>
    <rect x="189.2592" y="54.72" width="10.7136" height="201.6" style="fill: red;"/>
    <text x="197.43442" y="52.605244" font-size="8" text-anchor="middle" transform="scale(1,-1)">24.05</text>
    <rect x="202.6512" y="181.363558" width="10.7136" height="74.956442" style="fill: #1f77b4;"/>
    <text x="186.329782" y="189.493967" font-size="8" text-anchor="middle" transform="scale(1,-1)">8.94</text>
    <rect x="216.0432" y="181.516237" width="10.7136" height="74.803763" style="fill: #1f77b4;"/>
    <text x="226.64093" y="184.299798" font-size="8" text-anchor="middle" transform="scale(1,-1)">8.92</text>
    <rect x="229.4352" y="176.882375" width="10.7136" height="79.437625" style="fill: #1f77b4;"/>
    <text x="229.81807" y="171.80187" font-size="8" text-anchor="middle" transform="scale(1,-1)">9.47</text>
    <rect x="242.8272" y="200.17652" width="10.7136" height="56.14348" style="fill: #1f77b4;"/>
    <text x="250.828221" y="201.979017" font-size="8" text-anchor="middle" transform="scale(1,-1)">6.70</text>
    <rect x="256.2192" y="178.67157" width="10.7136" height="77.64843" style="fill: #1f77b4;"/>
    <text x="275.619268" y="177.327894" font-size="8" text-anchor="middle" transform="scale(1,-1)">9.26</text>
    <rect x="269.6112" y="187.582269" width="10.7136" height="68.737731" style="fill: #1f77b4;"/>
    <text x="270.745361" y="185.938599" font-size="8" text-anchor="middle" transform="scale(1,-1)">8.20</text>
    <rect x="283.0032" y="213.506903" width="10.7136" height="42.813097" style="fill: #1f77b4;"/>
    <text x="291.003886" y="215.331337" font-size="8" text-anchor="middle" transform="scale(1,-1)">5.11</text>
    <rect x="296.3952" y="196.630401" width="10.7136" height="59.689599" style="fill: #1f77b4;"/>
    <text x="311.275468" y="196.890334" font-size="8" text-anchor="middle" transform="scale(1,-1)">7.12</text>
    <rect x="309.7872" y="192.038442" width="10.7136" height="64.281558" style="fill: #1f77b4;"/>
    <text x="312.919894" y="187.583139" font-size="8" text-anchor="middle" transform="scale(1,-1)">7.67</text>
    <rect x="323.1792" y="211.765477" width="10.7136" height="44.554523" style="fill: #1f77b4;"/>
    <text x="326.274508" y="207.288577" font-size="8" text-anchor="middle" transform="scale(1,-1)">6.96</text>
    <rect x="336.5712" y="197.980376" width="10.7136" height="58.339624" style="fill: #1f77b4;"/>
    <text x="357.838894" y="173.244739" font-size="8" text-anchor="middle" transform="scale(1,-1)">9.66</text>
    <rect x="349.9632" y="175.359495" width="10.7136" height="80.960505" style="fill: #1f77b4;"/>
    <text x="368.106652" y="211.797766" font-size="8" text-anchor="middle" transform="scale(1,-1)">6.01</text>
    <rect x="363.3552" y="205.936265" width="10.7136" height="50.383735" style="fill: #1f77b4;"/>
    <text x="368.0821" y="202.315876" font-size="8" text-anchor="middle" transform="scale(1,-1)">6.21</text>
    <rect x="376.7472" y="204.265056" width="10.7136" height="52.054944" style="fill: #1f77b4;"/>
  </g>
</svg>