<?xml version="1.0" encoding="utf-8"?>
<svg xmlns:xlink="http://www.w3.org/1999/xlink" width="432pt" height="288pt" viewBox="0 0 432 288" xmlns="http://www.w3.org/2000/svg" version="1.1">
 <defs>
  <style type="text/css">*{stroke-linejoin: round; stroke-linecap: butt}</style>
 </defs>
 <g>
  <g>
   <g>
    <path d="M 57.348 256.32 L 84.132 256.32 L 84.132 54.72 L 57.348 54.72 z" style="fill: #1f77b4"/>
   </g>
   <g>
    <path d="M 90.828 256.32 L 117.612 256.32 L 117.612 181.093485 L 90.828 181.093485 z" style="fill: #1f77b4"/>
   </g>
   <g>
    <path d="M 124.308 256.32 L 151.092 256.32 L 151.092 198.167615 L 124.308 198.167615 z" style="fill: #1f77b4"/>
   </g>
   <g>
    <path d="M 157.788 256.32 L 184.572 256.32 L 184.572 201.357949 L 157.788 201.357949 z" style="fill: #1f77b4"/>
   </g>
   <g>
    <path d="M 191.268 256.32 L 218.052 256.32 L 218.052 202.38167 L 191.268 202.38167 z" style="fill: #1f77b4"/>
   </g>
   <g>
    <path d="M 224.748 256.32 L 251.532 256.32 L 251.532 211.635163 L 224.748 211.635163 z" style="fill: #1f77b4"/>
   </g>
   <g>
    <path d="M 258.228 256.32 L 285.012 256.32 L 285.012 214.520825 L 258.228 214.520825 z" style="fill: #1f77b4"/>
   </g>
   <g>
    <path d="M 291.708 256.32 L 318.492 256.32 L 318.492 216.1821 L 291.708 216.1821 z" style="fill: #1f77b4"/>
   </g>
   <g>
    <path d="M 325.188 256.32 L 351.972 256.32 L 351.972 216.375746 L 325.188 216.375746 z" style="fill: #1f77b4"/>
   </g>
   <g>
    <path d="M 358.668 256.32 L 385.452 256.32 L 385.452 215.46609 L 358.668 215.46609 z" style="fill: #1f77b4"/>
   </g>
  </g>
 </g>
</svg>