<?xml version="1.0" encoding="utf-8"?>
<svg xmlns:xlink="http://www.w3.org/1999/xlink" width="432pt" height="288pt" viewBox="0 0 432 288" xmlns="http://www.w3.org/2000/svg" version="1.1">
 <defs>
  <style type="text/css">*{stroke-linejoin: round; stroke-linecap: butt}</style>
 </defs>
 <g>
  <g>
   <path d="M 57.348 256.32 L 84.132 256.32 L 84.132 54.72 L 57.348 54.72 z" style="fill: #1f77b4"/>
   <path d="M 90.828 256.32 L 117.612 256.32 L 117.612 185.434384 L 90.828 185.434384 z" style="fill: #1f77b4"/>
   <path d="M 124.308 256.32 L 151.092 256.32 L 151.092 190.312542 L 124.308 190.312542 z" style="fill: #1f77b4"/>
   <path d="M 157.788 256.32 L 184.572 256.32 L 184.572 194.550916 L 157.788 194.550916 z" style="fill: #1f77b4"/>
   <path d="M 191.268 256.32 L 218.052 256.32 L 218.052 198.446473 L 191.268 198.446473 z" style="fill: #1f77b4"/>
   <path d="M 224.748 256.32 L 251.532 256.32 L 251.532 205.280961 L 224.748 205.280961 z" style="fill: #1f77b4"/>
   <path d="M 258.228 256.32 L 285.012 256.32 L 285.012 205.714096 L 258.228 205.714096 z" style="fill: #1f77b4"/>
   <path d="M 291.708 256.32 L 318.492 256.32 L 318.492 206.538636 L 291.708 206.538636 z" style="fill: #1f77b4"/>
   <path d="M 325.188 256.32 L 351.972 256.32 L 351.972 209.42156 L 325.188 209.42156 z" style="fill: #1f77b4"/>
   <path d="M 358.668 256.32 L 385.452 256.32 L 385.452 220.158796 L 358.668 220.158796 z" style="fill: #1f77b4"/>
  </g>
 </g>
</svg>