<?xml version="1.0" encoding="utf-8"?>
<svg xmlns:xlink="http://www.w3.org/1999/xlink" width="432pt" height="288pt" viewBox="0 0 432 288" xmlns="http://www.w3.org/2000/svg" version="1.1">
 <g>
   <g>
    <path d="M 57.348 256.32 L 84.132 256.32 L 84.132 205.698603 L 57.348 205.698603 z" style="fill: #1f77b4"/>
   </g>
   <g>
    <path d="M 90.828 256.32 L 117.612 256.32 L 117.612 54.72 L 90.828 54.72 z" style="fill: #1f77b4"/>
   </g>
   <g>
    <path d="M 124.308 256.32 L 151.092 256.32 L 151.092 213.111929 L 124.308 213.111929 z" style="fill: #1f77b4"/>
   </g>
   <g>
    <path d="M 157.788 256.32 L 184.572 256.32 L 184.572 188.620603 L 157.788 188.620603 z" style="fill: #1f77b4"/>
   </g>
   <g>
    <path d="M 191.268 256.32 L 218.052 256.32 L 218.052 206.790757 L 191.268 206.790757 z" style="fill: #1f77b4"/>
   </g>
   <g>
    <path d="M 224.748 256.32 L 251.532 256.32 L 251.532 190.89626 L 224.748 190.89626 z" style="fill: #1f77b4"/>
   </g>
   <g>
    <path d="M 258.228 256.32 L 285.012 256.32 L 285.012 207.68847 L 258.228 207.68847 z" style="fill: #1f77b4"/>
   </g>
   <g>
    <path d="M 291.708 256.32 L 318.492 256.32 L 318.492 207.105299 L 291.708 207.105299 z" style="fill: #1f77b4"/>
   </g>
   <g>
    <path d="M 325.188 256.32 L 351.972 256.32 L 351.972 216.797517 L 325.188 216.797517 z" style="fill: #1f77b4"/>
   </g>
   <g>
    <path d="M 358.668 256.32 L 385.452 256.32 L 385.452 204.50418 L 358.668 204.50418 z" style="fill: #1f77b4"/>
   </g>
 </g>
</svg>