<?xml version="1.0" encoding="utf-8"?>
<svg xmlns:xlink="http://www.w3.org/1999/xlink" width="432pt" height="288pt" viewBox="0 0 432 288" xmlns="http://www.w3.org/2000/svg" version="1.1">
 <defs>
  <style type="text/css">*{stroke-linejoin: round; stroke-linecap: butt}</style>
 </defs>
 <g>
  <g>
   <g>
    <path d="M 57.348 256.32 L 84.132 256.32 L 84.132 54.72 L 57.348 54.72 z" style="fill: #1f77b4"/>
   </g>
   <g>
    <path d="M 90.828 256.32 L 117.612 256.32 L 117.612 197.70791 L 90.828 197.70791 z" style="fill: #1f77b4"/>
   </g>
   <g>
    <path d="M 124.308 256.32 L 151.092 256.32 L 151.092 201.743057 L 124.308 201.743057 z" style="fill: #1f77b4"/>
   </g>
   <g>
    <path d="M 157.788 256.32 L 184.572 256.32 L 184.572 204.621941 L 157.788 204.621941 z" style="fill: #1f77b4"/>
   </g>
   <g>
    <path d="M 191.268 256.32 L 218.052 256.32 L 218.052 210.479843 L 191.268 210.479843 z" style="fill: #1f77b4"/>
   </g>
   <g>
    <path d="M 224.748 256.32 L 251.532 256.32 L 251.532 212.415972 L 224.748 212.415972 z" style="fill: #1f77b4"/>
   </g>
   <g>
    <path d="M 258.228 256.32 L 285.012 256.32 L 285.012 212.920405 L 258.228 212.920405 z" style="fill: #1f77b4"/>
   </g>
   <g>
    <path d="M 291.708 256.32 L 318.492 256.32 L 318.492 207.230946 L 291.708 207.230946 z" style="fill: #1f77b4"/>
   </g>
   <g>
    <path d="M 325.188 256.32 L 351.972 256.32 L 351.972 208.274652 L 325.188 208.274652 z" style="fill: #1f77b4"/>
   </g>
   <g>
    <path d="M 358.668 256.32 L 385.452 256.32 L 385.452 220.569498 L 358.668 220.569498 z" style="fill: #1f77b4"/>
   </g>
  </g>
 </g>
</svg>