<?xml version="1.0" encoding="utf-8"?>
<svg xmlns:xlink="http://www.w3.org/1999/xlink" width="432pt" height="288pt" viewBox="0 0 432 288" xmlns="http://www.w3.org/2000/svg" version="1.1">
 <defs>
  <style type="text/css">*{stroke-linejoin: round; stroke-linecap: butt}</style>
 </defs>
 <g>
  <g>
   <path d="M 57.348 256.32 L 84.132 256.32 L 84.132 54.72 L 57.348 54.72 z" style="fill: #1f77b4"/>
   <path d="M 90.828 256.32 L 117.612 256.32 L 117.612 187.950023 L 90.828 187.950023 z" style="fill: #1f77b4"/>
   <path d="M 124.308 256.32 L 151.092 256.32 L 151.092 193.806048 L 124.308 193.806048 z" style="fill: #1f77b4"/>
   <path d="M 157.788 256.32 L 184.572 256.32 L 184.572 199.5419 L 157.788 199.5419 z" style="fill: #1f77b4"/>
   <path d="M 191.268 256.32 L 218.052 256.32 L 218.052 196.354544 L 191.268 196.354544 z" style="fill: #1f77b4"/>
   <path d="M 224.748 256.32 L 251.532 256.32 L 251.532 201.431503 L 224.748 201.431503 z" style="fill: #1f77b4"/>
   <path d="M 258.228 256.32 L 285.012 256.32 L 285.012 205.352483 L 258.228 205.352483 z" style="fill: #1f77b4"/>
   <path d="M 291.708 256.32 L 318.492 256.32 L 318.492 207.479924 L 291.708 207.479924 z" style="fill: #1f77b4"/>
   <path d="M 325.188 256.32 L 351.972 256.32 L 351.972 210.59041 L 325.188 210.59041 z" style="fill: #1f77b4"/>
   <path d="M 358.668 256.32 L 385.452 256.32 L 385.452 215.561973 L 358.668 215.561973 z" style="fill: #1f77b4"/>
  </g>
 </g>
</svg>