<?xml version="1.0" encoding="utf-8"?>
<svg xmlns:xlink="http://www.w3.org/1999/xlink" width="432pt" height="288pt" viewBox="0 0 432 288" xmlns="http://www.w3.org/2000/svg" version="1.1">
 <defs>
  <style type="text/css">*{stroke-linejoin: round; stroke-linecap: butt}</style>
 </defs>
 <g>
  <g>
   <path d="M 57.348 256.32 L 84.132 256.32 L 84.132 54.72 L 57.348 54.72 z" style="fill: #1f77b4"/>
   <path d="M 90.828 256.32 L 117.612 256.32 L 117.612 188.466613 L 90.828 188.466613 z" style="fill: #1f77b4"/>
   <path d="M 124.308 256.32 L 151.092 256.32 L 151.092 175.013086 L 124.308 175.013086 z" style="fill: #1f77b4"/>
   <path d="M 157.788 256.32 L 184.572 256.32 L 184.572 184.860873 L 157.788 184.860873 z" style="fill: #1f77b4"/>
   <path d="M 191.268 256.32 L 218.052 256.32 L 218.052 200.932567 L 191.268 200.932567 z" style="fill: #1f77b4"/>
   <path d="M 224.748 256.32 L 251.532 256.32 L 251.532 201.486865 L 224.748 201.486865 z" style="fill: #1f77b4"/>
   <path d="M 258.228 256.32 L 285.012 256.32 L 285.012 193.404504 L 258.228 193.404504 z" style="fill: #1f77b4"/>
   <path d="M 291.708 256.32 L 318.492 256.32 L 318.492 207.282028 L 291.708 207.282028 z" style="fill: #1f77b4"/>
   <path d="M 325.188 256.32 L 351.972 256.32 L 351.972 210.994029 L 325.188 210.994029 z" style="fill: #1f77b4"/>
   <path d="M 358.668 256.32 L 385.452 256.32 L 385.452 213.291352 L 358.668 213.291352 z" style="fill: #1f77b4"/>
  </g>
 </g>
</svg>