<?xml version="1.0" encoding="utf-8"?>
<svg xmlns:xlink="http://www.w3.org/1999/xlink" width="432pt" height="288pt" viewBox="0 0 432 288" xmlns="http://www.w3.org/2000/svg" version="1.1">
 <defs>
  <style type="text/css">*{stroke-linejoin: round; stroke-linecap: butt}</style>
  <path id="m34bc5c8428" d="M 0 3 
C 0.795609 3 1.55874 2.683901 2.12132 2.12132 
C 2.683901 1.55874 3 0.795609 3 0 
C 3 -0.795609 2.683901 -1.55874 2.12132 -2.12132 
C 1.55874 -2.683901 0.795609 -3 0 -3 
C -0.795609 -3 -1.55874 -2.683901 -2.12132 -2.12132 
C -2.683901 -1.55874 -3 -0.795609 -3 0 
C -3 0.795609 -2.683901 1.55874 -2.12132 2.12132 
C -1.55874 2.683901 -0.795609 3 0 3 
z"/>
 </defs>
 <g>
  <path d="M 69.218182 171.666024 
L 103.036364 190.465259 
L 136.854545 209.356674 
L 170.672727 190.147315 
L 204.490909 200.752622 
L 238.309091 197.823218 
L 272.127273 44.64 
L 305.945455 216.212258 
L 339.763636 229.702632 
L 373.581818 246.24 
" style="fill: none; stroke: #1f77b4; stroke-width: 1.5; stroke-linecap: square"/>
  <use xlink:href="#m34bc5c8428" x="272.127273" y="44.64" style="fill: red; stroke: red;"/>
  <use xlink:href="#m34bc5c8428" x="373.581818" y="246.24" style="fill: green; stroke: green;"/>
 </g>
</svg>