<?xml version="1.0" encoding="utf-8"?>
<svg xmlns:xlink="http://www.w3.org/1999/xlink" width="432pt" height="288pt" viewBox="0 0 432 288" xmlns="http://www.w3.org/2000/svg" version="1.1">
 <defs>
  <style type="text/css">*{stroke-linejoin: round; stroke-linecap: butt}</style>
  <path id="extremumPoint" d="M 0 3 C 0.795609 3 1.55874 2.683901 2.12132 2.12132 C 2.683901 1.55874 3 0.795609 3 0 C 3 -0.795609 2.683901 -1.55874 2.12132 -2.12132 C 1.55874 -2.683901 0.795609 -3 0 -3 C -0.795609 -3 -1.55874 -2.683901 -2.12132 -2.12132 C -2.683901 -1.55874 -3 -0.795609 -3 0 C -3 0.795609 -2.683901 1.55874 -2.12132 2.12132 C -1.55874 2.683901 -0.795609 3 0 3 z" style="stroke: #1f77b4; stroke-opacity: 0.8"/>
 </defs>
 <g>
  <path d="M 69.218182 226.229703 L 103.036364 221.055287 L 136.854545 229.156318 L 170.672727 203.425476 L 204.490909 246.24 L 238.309091 44.64 L 272.127273 226.607126 L 305.945455 218.50288 L 339.763636 205.435651 L 373.581818 197.022147" style="fill: none; stroke: #1f77b4; stroke-width: 1.5; stroke-linecap: round"/>
  <use xlink:href="#extremumPoint" x="238.309091" y="44.64" style="fill: red; fill-opacity: 0.8; stroke: red; stroke-opacity: 0.8"/>
  <use xlink:href="#extremumPoint" x="204.490909" y="246.24" style="fill: green; fill-opacity: 0.8; stroke: green; stroke-opacity: 0.8"/>
 </g>
</svg>