<?xml version="1.0" standalone="no"?>
<!DOCTYPE svg PUBLIC "-//W3C//DTD SVG 1.1//EN" "http://www.w3.org/Graphics/SVG/1.1/DTD/svg11.dtd">
<svg width="432pt" height="288pt" viewBox="0 0 432 288" xmlns="http://www.w3.org/2000/svg" version="1.1">
  <defs>
    <style type="text/css">
      * {stroke-linejoin: round; stroke-linecap: butt;}
    </style>
    <path id="extremum-point" d="M 0 3 C 0.795609 3 1.55874 2.683901 2.12132 2.12132 C 2.683901 1.55874 3 0.795609 3 0 C 3 -0.795609 2.683901 -1.55874 2.12132 -2.12132 C 1.55874 -2.683901 0.795609 -3 0 -3 C -0.795609 -3 -1.55874 -2.683901 -2.12132 -2.12132 C -2.683901 -1.55874 -3 -0.795609 -3 0 C -3 0.795609 -2.683901 1.55874 -2.12132 2.12132 C -1.55874 2.683901 -0.795609 3 0 3 z" style="stroke: none;"/>
  </defs>
  <g>
    <path d="M 69.218182 209.714067 L 103.036364 44.64 L 136.854545 207.548815 L 170.672727 204.25417 L 204.490909 192.81002 L 238.309091 221.273077 L 272.127273 231.391823 L 305.945455 212.894831 L 339.763636 218.840633 L 373.581818 246.24" style="fill: none; stroke: #1f77b4; stroke-width: 1.5; stroke-linecap: square"/>
    <!-- Highlighting the lowest Y value point (highest on the chart due to inverted Y-axis) -->
    <use xlink:href="#extremum-point" x="103.036364" y="44.64" style="fill: red;"/>
    <!-- Highlighting the highest Y value point (lowest on the chart due to inverted Y-axis) -->
    <use xlink:href="#extremum-point" x="373.581818" y="246.24" style="fill: green;"/>
  </g>
</svg>