<?xml version="1.0" encoding="utf-8"?>
<svg xmlns:xlink="http://www.w3.org/1999/xlink" width="432pt" height="288pt" viewBox="0 0 432 288" xmlns="http://www.w3.org/2000/svg" version="1.1">
 <defs>
  <style type="text/css">*{stroke-linejoin: round; stroke-linecap: butt}</style>
  <path id="m679890a976" d="M 0 3 
C 0.795609 3 1.55874 2.683901 2.12132 2.12132 
C 2.683901 1.55874 3 0.795609 3 0 
C 3 -0.795609 2.683901 -1.55874 2.12132 -2.12132 
C 1.55874 -2.683901 0.795609 -3 0 -3 
C -0.795609 -3 -1.55874 -2.683901 -2.12132 -2.12132 
C -2.683901 -1.55874 -3 -0.795609 -3 0 
C -3 0.795609 -2.683901 1.55874 -2.12132 2.12132 
C -1.55874 2.683901 -0.795609 3 0 3 
z
" style="stroke: #1f77b4; stroke-opacity: 0.8"/>
 </defs>
 <g id="figure_1">
  <g id="line2d_12">
    <path d="M 69.218182 161.614716 
L 81.9 143.387015 
L 94.581818 150.940435 
L 107.263636 150.174598 
L 119.945455 140.316253 
L 132.627273 149.54547 
L 145.309091 148.570592 
L 157.990909 135.856535 
L 170.672727 133.782808 
L 183.354545 143.820383 
L 196.036364 165.440207 
L 208.718182 113.741982 
L 221.4 246.24 
L 234.081818 119.969463 
L 246.763636 112.618537 
L 259.445455 143.75589 
L 272.127273 44.64 
L 284.809091 121.689356 
L 297.490909 109.138037 
L 310.172727 120.688397 
L 322.854545 124.122318 
L 335.536364 130.639584 
L 348.218182 95.25115 
L 360.9 102.52095 
L 373.581818 127.199941 
" clip-path="url(#p3112821e07)" style="fill: none; stroke: #1f77b4; stroke-width: 1.5; stroke-linecap: square"/>
   </g>
   <!-- Highlighting outlier points -->
   <use xlink:href="#m679890a976" x="208.718182" y="113.741982" style="fill: red; fill-opacity: 0.8; stroke: red; stroke-opacity: 0.8"/>
   <use xlink:href="#m679890a976" x="221.4" y="246.24" style="fill: red; fill-opacity: 0.8; stroke: red; stroke-opacity: 0.8"/>
   <use xlink:href="#m679890a976" x="272.127273" y="44.64" style="fill: red; fill-opacity: 0.8; stroke: red; stroke-opacity: 0.8"/>
 </g>
 <defs>
  <clipPath id="p3112821e07">
   <rect x="54" y="34.56" width="334.8" height="221.76"/>
  </clipPath>
 </defs>
</svg>