<?xml version="1.0" encoding="utf-8"?>
<svg xmlns:xlink="http://www.w3.org/1999/xlink" width="432pt" height="288pt" viewBox="0 0 432 288" xmlns="http://www.w3.org/2000/svg" version="1.1">
 <defs>
  <style type="text/css">*{stroke-linejoin: round; stroke-linecap: butt}</style>
 </defs>
 <g id="figure_1">
  <g id="axes_1">
   <g id="PathCollection_1">
    <defs>
     <path id="m4cdcb45d2a" d="M 0 3 
C 0.795609 3 1.55874 2.683901 2.12132 2.12132 
C 2.683901 1.55874 3 0.795609 3 0 
C 3 -0.795609 2.683901 -1.55874 2.12132 -2.12132 
C 1.55874 -2.683901 0.795609 -3 0 -3 
C -0.795609 -3 -1.55874 -2.683901 -2.12132 -2.12132 
C -2.683901 -1.55874 -3 -0.795609 -3 0 
C -3 0.795609 -2.683901 1.55874 -2.12132 2.12132 
C -1.55874 2.683901 -0.795609 3 0 3 
z
" style="stroke: #1f77b4; stroke-opacity: 0.8"/>
    </defs>
    <use xlink:href="#m4cdcb45d2a" x="69.218182" y="111.898895" style="fill: #1f77b4; fill-opacity: 0.8; stroke: #1f77b4; stroke-opacity: 0.8"/>
    <use xlink:href="#m4cdcb45d2a" x="81.9" y="97.386774" style="fill: #1f77b4; fill-opacity: 0.8; stroke: #1f77b4; stroke-opacity: 0.8"/>
    <use xlink:href="#m4cdcb45d2a" x="94.581818" y="95.400291" style="fill: #1f77b4; fill-opacity: 0.8; stroke: #1f77b4; stroke-opacity: 0.8"/>
    <use xlink:href="#m4cdcb45d2a" x="107.263636" y="100.706726" style="fill: #1f77b4; fill-opacity: 0.8; stroke: #1f77b4; stroke-opacity: 0.8"/>
    <use xlink:href="#m4cdcb45d2a" x="119.945455" y="97.538373" style="fill: #1f77b4; fill-opacity: 0.8; stroke: #1f77b4; stroke-opacity: 0.8"/>
    <use xlink:href="#m4cdcb45d2a" x="132.627273" y="102.660037" style="fill: #1f77b4; fill-opacity: 0.8; stroke: #1f77b4; stroke-opacity: 0.8"/>
    <use xlink:href="#m4cdcb45d2a" x="145.309091" y="103.159556" style="fill: #1f77b4; fill-opacity: 0.8; stroke: #1f77b4; stroke-opacity: 0.8"/>
    <use xlink:href="#m4cdcb45d2a" x="157.990909" y="133.336692" style="fill: #1f77b4; fill-opacity: 0.8; stroke: #1f77b4; stroke-opacity: 0.8"/>
    <use xlink:href="#m4cdcb45d2a" x="170.672727" y="119.782257" style="fill: #1f77b4; fill-opacity: 0.8; stroke: #1f77b4; stroke-opacity: 0.8"/>
    <use xlink:href="#m4cdcb45d2a" x="183.354545" y="80.395651" style="fill: #ff0000; fill-opacity: 0.8; stroke: #ff0000; stroke-opacity: 0.8"/>
    <use xlink:href="#m4cdcb45d2a" x="196.036364" y="128.296838" style="fill: #1f77b4; fill-opacity: 0.8; stroke: #1f77b4; stroke-opacity: 0.8"/>
    <use xlink:href="#m4cdcb45d2a" x="208.718182" y="134.584307" style="fill: #1f77b4; fill-opacity: 0.8; stroke: #1f77b4; stroke-opacity: 0.8"/>
    <use xlink:href="#m4cdcb45d2a" x="221.4" y="135.688254" style="fill: #1f77b4; fill-opacity: 0.8; stroke: #1f77b4; stroke-opacity: 0.8"/>
    <use xlink:href="#m4cdcb45d2a" x="234.081818" y="107.307871" style="fill: #1f77b4; fill-opacity: 0.8; stroke: #1f77b4; stroke-opacity: 0.8"/>
    <use xlink:href="#m4cdcb45d2a" x="246.763636" y="246.24" style="fill: #ff0000; fill-opacity: 0.8; stroke: #ff0000; stroke-opacity: 0.8"/>
    <use xlink:href="#m4cdcb45d2a" x="259.445455" y="131.850286" style="fill: #1f77b4; fill-opacity: 0.8; stroke: #1f77b4; stroke-opacity: 0.8"/>
    <use xlink:href="#m4cdcb45d2a" x="272.127273" y="141.990283" style="fill: #1f77b4; fill-opacity: 0.8; stroke: #1f77b4; stroke-opacity: 0.8"/>
    <use xlink:href="#m4cdcb45d2a" x="284.809091" y="171.131832" style="fill: #1f77b4; fill-opacity: 0.8; stroke: #1f77b4; stroke-opacity: 0.8"/>
    <use xlink:href="#m4cdcb45d2a" x="297.490909" y="158.752868" style="fill: #1f77b4; fill-opacity: 0.8; stroke: #1f77b4; stroke-opacity: 0.8"/>
    <use xlink:href="#m4cdcb45d2a" x="310.172727" y="157.201372" style="fill: #1f77b4; fill-opacity: 0.8; stroke: #1f77b4; stroke-opacity: 0.8"/>
    <use xlink:href="#m4cdcb45d2a" x="322.854545" y="201.765721" style="fill: #1f77b4; fill-opacity: 0.8; stroke: #1f77b4; stroke-opacity: 0.8"/>
    <use xlink:href="#m4cdcb45d2a" x="335.536364" y="160.973871" style="fill: #1f77b4; fill-opacity: 0.8; stroke: #1f77b4; stroke-opacity: 0.8"/>
    <use xlink:href="#m4cdcb45d2a" x="348.218182" y="194.715376" style="fill: #1f77b4; fill-opacity: 0.8; stroke: #1f77b4; stroke-opacity: 0.8"/>
    <use xlink:href="#m4cdcb45d2a" x="360.9" y="44.64" style="fill: #ff0000; fill-opacity: 0.8; stroke: #ff0000; stroke-opacity: 0.8"/>
    <use xlink:href="#m4cdcb45d2a" x="373.581818" y="172.706635" style="fill: #1f77b4; fill-opacity: 0.8; stroke: #1f77b4; stroke-opacity: 0.8"/>
   </g>
   <g id="line2d_16">
    <path d="M 69.218182 111.898895 
L 81.9 97.386774 
L 94.581818 95.400291 
L 107.263636 100.706726 
L 119.945455 97.538373 
L 132.627273 102.660037 
L 145.309091 103.159556 
L 157.990909 133.336692 
L 170.672727 119.782257 
L 183.354545 80.395651 
L 196.036364 128.296838 
L 208.718182 134.584307 
L 221.4 135.688254 
L 234.081818 107.307871 
L 246.763636 246.24 
L 259.445455 131.850286 
L 272.127273 141.990283 
L 284.809091 171.131832 
L 297.490909 158.752868 
L 310.172727 157.201372 
L 322.854545 201.765721 
L 335.536364 160.973871 
L 348.218182 194.715376 
L 360.9 44.64 
L 373.581818 172.706635 
" style="fill: none; stroke: #1f77b4; stroke-width: 1.5; stroke-linecap: square"/>
   </g>
  </g>
 </g>
 <defs>
  <clipPath id="p089cc30e1b">
   <rect x="54" y="34.56" width="334.8" height="221.76"/>
  </clipPath>
 </defs>
</svg>