<?xml version="1.0" encoding="utf-8"?>
<svg xmlns:xlink="http://www.w3.org/1999/xlink" width="432pt" height="288pt" viewBox="0 0 432 288" xmlns="http://www.w3.org/2000/svg" version="1.1">
 <defs>
  <style type="text/css">*{stroke-linejoin: round; stroke-linecap: butt}</style>
  <path id="m9924650a2a" d="M 0 3 
C 0.795609 3 1.55874 2.683901 2.12132 2.12132 
C 2.683901 1.55874 3 0.795609 3 0 
C 3 -0.795609 2.683901 -1.55874 2.12132 -2.12132 
C 1.55874 -2.683901 0.795609 -3 0 -3 
C -0.795609 -3 -1.55874 -2.683901 -2.12132 -2.12132 
C -2.683901 -1.55874 -3 -0.795609 -3 0 
C -3 0.795609 -2.683901 1.55874 -2.12132 2.12132 
C -1.55874 2.683901 -0.795609 3 0 3 
z" style="stroke: #1f77b4; stroke-opacity: 0.8"/>
 </defs>
 <clipPath id="p0fc26304c8">
  <rect x="54" y="34.56" width="334.8" height="221.76"/>
 </clipPath>
 <g>
  <path d="M 69.218182 110.268613 
L 81.9 132.380719 
L 94.581818 138.490243 
L 107.263636 115.831214 
L 119.945455 44.64 
L 132.627273 141.524682 
L 145.309091 143.760332 
L 157.990909 154.596997 
L 170.672727 130.783088 
L 183.354545 136.216125 
L 196.036364 140.246055 
L 208.718182 135.972673 
L 221.4 144.959919 
L 234.081818 246.24 
L 246.763636 125.422714 
L 259.445455 169.141223 
L 272.127273 177.467012 
L 284.809091 150.634093 
L 297.490909 161.943004 
L 310.172727 182.103836 
L 322.854545 182.363594 
L 335.536364 172.95262 
L 348.218182 184.932291 
L 360.9 173.980112 
L 373.581818 192.877586" clip-path="url(#p0fc26304c8)" style="fill: none; stroke: #1f77b4; stroke-width: 1.5; stroke-linecap: square"/>
  <use xlink:href="#m9924650a2a" x="119.945455" y="44.64" style="fill: red; fill-opacity: 0.8; stroke: red; stroke-opacity: 0.8"/>
  <use xlink:href="#m9924650a2a" x="234.081818" y="246.24" style="fill: red; fill-opacity: 0.8; stroke: red; stroke-opacity: 0.8"/>
 </g>
</svg>