<?xml version="1.0" encoding="utf-8"?>
<svg xmlns:xlink="http://www.w3.org/1999/xlink" width="432pt" height="288pt" viewBox="0 0 432 288" xmlns="http://www.w3.org/2000/svg" version="1.1">
 <defs>
  <style type="text/css">*{stroke-linejoin: round; stroke-linecap: butt}</style>
  <path id="outlier" d="M 0 3 
C 0.795609 3 1.55874 2.683901 2.12132 2.12132 
C 2.683901 1.55874 3 0.795609 3 0 
C 3 -0.795609 2.683901 -1.55874 2.12132 -2.12132 
C 1.55874 -2.683901 0.795609 -3 0 -3 
C -0.795609 -3 -1.55874 -2.683901 -2.12132 -2.12132 
C -2.683901 -1.55874 -3 -0.795609 -3 0 
C -3 0.795609 -2.683901 1.55874 -2.12132 2.12132 
C -1.55874 2.683901 -0.795609 3 0 3 
z" style="stroke: #ff0000; stroke-opacity: 0.8"/>
 </defs>
 <g id="figure_1">
  <g id="line2d_12">
    <path d="M 69.218182 236.034103 
L 81.9 246.24 
L 94.581818 214.435394 
L 107.263636 219.887944 
L 119.945455 211.154242 
L 132.627273 226.41905 
L 145.309091 189.504905 
L 157.990909 177.760751 
L 170.672727 176.341481 
L 183.354545 196.993984 
L 196.036364 156.580542 
L 208.718182 167.884274 
L 221.4 156.217581 
L 234.081818 144.355047 
L 246.763636 44.64 
L 259.445455 158.549171 
L 272.127273 123.572269 
L 284.809091 140.575236 
L 297.490909 142.166423 
L 310.172727 228.698958 
L 322.854545 112.058824 
L 335.536364 97.924533 
L 348.218182 109.100115 
L 360.9 92.119911 
L 373.581818 102.124564 
" style="fill: none; stroke: #1f77b4; stroke-width: 1.5; stroke-linecap: square"/>
    <!-- Highlighting outlier points -->
    <use xlink:href="#outlier" x="246.763636" y="44.64" style="fill: #ff0000; fill-opacity: 0.8; stroke: #ff0000; stroke-opacity: 0.8"/>
  </g>
 </g>
</svg>