<?xml version="1.0" encoding="utf-8"?>
<svg xmlns:xlink="http://www.w3.org/1999/xlink" width="432pt" height="288pt" viewBox="0 0 432 288" xmlns="http://www.w3.org/2000/svg" version="1.1">
 <defs>
  <style type="text/css">*{stroke-linejoin: round; stroke-linecap: butt}</style>
  <path id="outlier" d="M 0 3 
C 0.795609 3 1.55874 2.683901 2.12132 2.12132 
C 2.683901 1.55874 3 0.795609 3 0 
C 3 -0.795609 2.683901 -1.55874 2.12132 -2.12132 
C 1.55874 -2.683901 0.795609 -3 0 -3 
C -0.795609 -3 -1.55874 -2.683901 -2.12132 -2.12132 
C -2.683901 -1.55874 -3 -0.795609 -3 0 
C -3 0.795609 -2.683901 1.55874 -2.12132 2.12132 
C -1.55874 2.683901 -0.795609 3 0 3 
z" style="stroke: #ff0000; stroke-opacity: 0.8"/>
 </defs>
 <g>
  <path d="M 69.218182 162.054242 
L 81.9 56.091442 
L 94.581818 246.24 
L 107.263636 130.453909 
L 119.945455 153.966275 
L 132.627273 131.901459 
L 145.309091 122.300287 
L 157.990909 135.977798 
L 170.672727 124.031312 
L 183.354545 131.503182 
L 196.036364 108.328115 
L 208.718182 108.695518 
L 221.4 96.855868 
L 234.081818 66.569773 
L 246.763636 106.146221 
L 259.445455 98.01658 
L 272.127273 75.553148 
L 284.809091 74.437571 
L 297.490909 79.269422 
L 310.172727 62.551031 
L 322.854545 72.513398 
L 335.536364 44.64 
L 348.218182 71.727329 
L 360.9 68.641225 
L 373.581818 54.928466 
" style="fill: none; stroke: #1f77b4; stroke-width: 1.5; stroke-linecap: square"/>
  <!-- Outlier points -->
  <use xlink:href="#outlier" x="94.581818" y="246.24" style="fill: #ff0000; fill-opacity: 0.8; stroke: #ff0000; stroke-opacity: 0.8"/>
  <use xlink:href="#outlier" x="81.9" y="56.091442" style="fill: #ff0000; fill-opacity: 0.8; stroke: #ff0000; stroke-opacity: 0.8"/>
  <use xlink:href="#outlier" x="335.536364" y="44.64" style="fill: #ff0000; fill-opacity: 0.8; stroke: #ff0000; stroke-opacity: 0.8"/>
 </g>
</svg>