<?xml version="1.0" encoding="utf-8"?>
<svg xmlns:xlink="http://www.w3.org/1999/xlink" width="432pt" height="288pt" viewBox="0 0 432 288" xmlns="http://www.w3.org/2000/svg" version="1.1">
 <g>
  <g>
   <defs>
    <path id="m6b4a5e746c" d="M 0 3 
C 0.795609 3 1.55874 2.683901 2.12132 2.12132 
C 2.683901 1.55874 3 0.795609 3 0 
C 3 -0.795609 2.683901 -1.55874 2.12132 -2.12132 
C 1.55874 -2.683901 0.795609 -3 0 -3 
C -0.795609 -3 -1.55874 -2.683901 -2.12132 -2.12132 
C -2.683901 -1.55874 -3 -0.795609 -3 0 
C -3 0.795609 -2.683901 1.55874 -2.12132 2.12132 
C -1.55874 2.683901 -0.795609 3 0 3 
z"/>
   </defs>
   <use xlink:href="#m6b4a5e746c" x="81.414717" y="51.288787" style="fill: #1f77b4; stroke: #1f77b4"/>
   <use xlink:href="#m6b4a5e746c" x="82.120969" y="54.337519" style="fill: #1f77b4; stroke: #1f77b4"/>
   <use xlink:href="#m6b4a5e746c" x="96.335333" y="54.460028" style="fill: #1f77b4; stroke: #1f77b4"/>
   <use xlink:href="#m6b4a5e746c" x="81.735418" y="56.357224" style="fill: #1f77b4; stroke: #1f77b4"/>
   <use xlink:href="#m6b4a5e746c" x="93.730044" y="51.999741" style="fill: #1f77b4; stroke: #1f77b4"/>
   <use xlink:href="#m6b4a5e746c" x="92.698011" y="55.26251" style="fill: #1f77b4; stroke: #1f77b4"/>
   <use xlink:href="#m6b4a5e746c" x="86.946451" y="53.196368" style="fill: #1f77b4; stroke: #1f77b4"/>
   <use xlink:href="#m6b4a5e746c" x="77.175392" y="55.296487" style="fill: #1f77b4; stroke: #1f77b4"/>
   <use xlink:href="#m6b4a5e746c" x="77.856784" y="48.574536" style="fill: #1f77b4; stroke: #1f77b4"/>
   <use xlink:href="#m6b4a5e746c" x="73.598812" y="51.976413" style="fill: #1f77b4; stroke: #1f77b4"/>
   <use xlink:href="#m6b4a5e746c" x="78.764873" y="50.010982" style="fill: #1f77b4; stroke: #1f77b4"/>
   <use xlink:href="#m6b4a5e746c" x="69.218182" y="44.64" style="fill: #1f77b4; stroke: #1f77b4"/>
   <use xlink:href="#m6b4a5e746c" x="186.129423" y="85.523752" style="fill: #1f77b4; stroke: #1f77b4"/>
   <use xlink:href="#m6b4a5e746c" x="165.200801" y="80.828721" style="fill: #1f77b4; stroke: #1f77b4"/>
   <use xlink:href="#m6b4a5e746c" x="189.328232" y="95.998299" style="fill: #1f77b4; stroke: #1f77b4"/>
   <use xlink:href="#m6b4a5e746c" x="213.015243" y="95.434277" style="fill: #1f77b4; stroke: #1f77b4"/>
   <use xlink:href="#m6b4a5e746c" x="166.270306" y="83.532456" style="fill: #1f77b4; stroke: #1f77b4"/>
   <use xlink:href="#m6b4a5e746c" x="191.537527" y="91.5665" style="fill: #1f77b4; stroke: #1f77b4"/>
   <use xlink:href="#m6b4a5e746c" x="191.85348" y="89.379799" style="fill: #1f77b4; stroke: #1f77b4"/>
   <use xlink:href="#m6b4a5e746c" x="202.536342" y="99.083573" style="fill: #1f77b4; stroke: #1f77b4"/>
   <use xlink:href="#m6b4a5e746c" x="198.072459" y="89.463108" style="fill: #1f77b4; stroke: #1f77b4"/>
   <use xlink:href="#m6b4a5e746c" x="192.15438" y="91.448254" style="fill: #1f77b4; stroke: #1f77b4"/>
   <use xlink:href="#m6b4a5e746c" x="174.541183" y="83.055376" style="fill: #1f77b4; stroke: #1f77b4"/>
   <use xlink:href="#m6b4a5e746c" x="170.171632" y="85.069523" style="fill: #1f77b4; stroke: #1f77b4"/>
   <use xlink:href="#m6b4a5e746c" x="267.516635" y="110.962191" style="fill: #1f77b4; stroke: #1f77b4"/>
   <use xlink:href="#m6b4a5e746c" x="284.819222" y="116.209291" style="fill: #1f77b4; stroke: #1f77b4"/>
   <use xlink:href="#m6b4a5e746c" x="256.131822" y="112.250728" style="fill: #1f77b4; stroke: #1f77b4"/>
   <use xlink:href="#m6b4a5e746c" x="276.229169" y="117.78934" style="fill: #1f77b4; stroke: #1f77b4"/>
   <use xlink:href="#m6b4a5e746c" x="268.670334" y="118.654155" style="fill: #1f77b4; stroke: #1f77b4"/>
   <use xlink:href="#m6b4a5e746c" x="263.243333" y="114.682753" style="fill: #1f77b4; stroke: #1f77b4"/>
   <use xlink:href="#m6b4a5e746c" x="269.370625" y="115.570543" style="fill: #1f77b4; stroke: #1f77b4"/>
   <use xlink:href="#m6b4a5e746c" x="268.379168" y="112.34701" style="fill: #1f77b4; stroke: #1f77b4"/>
   <use xlink:href="#m6b4a5e746c" x="297.711271" y="125.077815" style="fill: #1f77b4; stroke: #1f77b4"/>
   <use xlink:href="#m6b4a5e746c" x="279.178993" y="119.130504" style="fill: #1f77b4; stroke: #1f77b4"/>
   <use xlink:href="#m6b4a5e746c" x="286.171991" y="123.320149" style="fill: #1f77b4; stroke: #1f77b4"/>
   <use xlink:href="#m6b4a5e746c" x="266.01963" y="113.598113" style="fill: #1f77b4; stroke: #1f77b4"/>
   <use xlink:href="#m6b4a5e746c" x="365.009823" y="147.772578" style="fill: #1f77b4; stroke: #1f77b4"/>
   <use xlink:href="#m6b4a5e746c" x="349.385358" y="141.206225" style="fill: #1f77b4; stroke: #1f77b4"/>
   <use xlink:href="#m6b4a5e746c" x="355.491858" y="141.752701" style="fill: #1f77b4; stroke: #1f77b4"/>
   <use xlink:href="#m6b4a5e746c" x="344.944797" y="142.35034" style="fill: #1f77b4; stroke: #1f77b4"/>
   <use xlink:href="#m6b4a5e746c" x="359.950753" y="140.103801" style="fill: #1f77b4; stroke: #1f77b4"/>
   <use xlink:href="#m6b4a5e746c" x="363.019829" y="147.357092" style="fill: #1f77b4; stroke: #1f77b4"/>
   <use xlink:href="#m6b4a5e746c" x="367.144205" y="143.641765" style="fill: #1f77b4; stroke: #1f77b4"/>
   <use xlink:href="#m6b4a5e746c" x="351.089868" y="142.02845" style="fill: #1f77b4; stroke: #1f77b4"/>
   <use xlink:href="#m6b4a5e746c" x="353.593277" y="142.456899" style="fill: #1f77b4; stroke: #1f77b4"/>
   <use xlink:href="#m6b4a5e746c" x="364.945097" y="143.497804" style="fill: #1f77b4; stroke: #1f77b4"/>
   <use xlink:href="#m6b4a5e746c" x="356.19536" y="139.229847" style="fill: #1f77b4; stroke: #1f77b4"/>
   <use xlink:href="#m6b4a5e746c" x="373.581818" y="156.063923" style="fill: #ff0000; stroke: #ff0000"/>
   <use xlink:href="#m6b4a5e746c" x="186.430296" y="167.756185" style="fill: #1f77b4; stroke: #1f77b4"/>
   <use xlink:href="#m6b4a5e746c" x="334.256808" y="231.166641" style="fill: #ff0000; stroke: #ff0000"/>
   <use xlink:href="#m6b4a5e746c" x="182.139436" y="246.24" style="fill: #1f77b4; stroke: #1f77b4"/>
  </g>
 </g>
</svg>