<?xml version="1.0" encoding="utf-8"?>
<svg xmlns:xlink="http://www.w3.org/1999/xlink" width="432pt" height="288pt" viewBox="0 0 432 288" xmlns="http://www.w3.org/2000/svg" version="1.1">
 <defs>
  <style type="text/css">*{stroke-linejoin: round; stroke-linecap: butt}</style>
  <path id="m64e8af8962" d="M 0 3 
C 0.795609 3 1.55874 2.683901 2.12132 2.12132 
C 2.683901 1.55874 3 0.795609 3 0 
C 3 -0.795609 2.683901 -1.55874 2.12132 -2.12132 
C 1.55874 -2.683901 0.795609 -3 0 -3 
C -0.795609 -3 -1.55874 -2.683901 -2.12132 -2.12132 
C -2.683901 -1.55874 -3 -0.795609 -3 0 
C -3 0.795609 -2.683901 1.55874 -2.12132 2.12132 
C -1.55874 2.683901 -0.795609 3 0 3 
z"/>
 </defs>
 <g>
  <use xlink:href="#m64e8af8962" x="80.67958" y="199.091682" style="fill: #1f77b4; stroke: #1f77b4"/>
  <use xlink:href="#m64e8af8962" x="110.608893" y="166.801998" style="fill: #1f77b4; stroke: #1f77b4"/>
  <use xlink:href="#m64e8af8962" x="98.813594" y="191.571745" style="fill: #1f77b4; stroke: #1f77b4"/>
  <use xlink:href="#m64e8af8962" x="103.256028" y="143.210969" style="fill: #1f77b4; stroke: #1f77b4"/>
  <use xlink:href="#m64e8af8962" x="85.011614" y="161.142598" style="fill: #1f77b4; stroke: #1f77b4"/>
  <use xlink:href="#m64e8af8962" x="92.875775" y="152.41804" style="fill: #1f77b4; stroke: #1f77b4"/>
  <use xlink:href="#m64e8af8962" x="81.568124" y="239.094316" style="fill: red; stroke: red"/>
  <use xlink:href="#m64e8af8962" x="90.901915" y="173.018706" style="fill: #1f77b4; stroke: #1f77b4"/>
  <use xlink:href="#m64e8af8962" x="112.581859" y="139.742361" style="fill: #1f77b4; stroke: #1f77b4"/>
  <use xlink:href="#m64e8af8962" x="97.596847" y="162.85205" style="fill: #1f77b4; stroke: #1f77b4"/>
  <use xlink:href="#m64e8af8962" x="74.229726" y="191.754353" style="fill: #1f77b4; stroke: #1f77b4"/>
  <use xlink:href="#m64e8af8962" x="103.728889" y="158.033846" style="fill: #1f77b4; stroke: #1f77b4"/>
  <use xlink:href="#m64e8af8962" x="99.693482" y="181.458438" style="fill: #1f77b4; stroke: #1f77b4"/>
  <use xlink:href="#m64e8af8962" x="78.565435" y="181.195242" style="fill: #1f77b4; stroke: #1f77b4"/>
  <use xlink:href="#m64e8af8962" x="92.713137" y="165.545303" style="fill: #1f77b4; stroke: #1f77b4"/>
  <use xlink:href="#m64e8af8962" x="110.437773" y="209.286448" style="fill: #1f77b4; stroke: #1f77b4"/>
  <use xlink:href="#m64e8af8962" x="104.314494" y="200.021468" style="fill: #1f77b4; stroke: #1f77b4"/>
  <use xlink:href="#m64e8af8962" x="83.285463" y="124.409895" style="fill: #1f77b4; stroke: #1f77b4"/>
  <use xlink:href="#m64e8af8962" x="69.218182" y="212.358608" style="fill: #1f77b4; stroke: #1f77b4"/>
  <use xlink:href="#m64e8af8962" x="78.818192" y="171.534412" style="fill: #1f77b4; stroke: #1f77b4"/>
  <use xlink:href="#m64e8af8962" x="91.091499" y="157.593815" style="fill: #1f77b4; stroke: #1f77b4"/>
  <use xlink:href="#m64e8af8962" x="183.543273" y="104.455889" style="fill: #1f77b4; stroke: #1f77b4"/>
  <use xlink:href="#m64e8af8962" x="186.614894" y="123.346695" style="fill: #1f77b4; stroke: #1f77b4"/>
  <use xlink:href="#m64e8af8962" x="198.993732" y="126.954697" style="fill: #1f77b4; stroke: #1f77b4"/>
  <use xlink:href="#m64e8af8962" x="220.677737" y="86.140569" style="fill: #1f77b4; stroke: #1f77b4"/>
  <use xlink:href="#m64e8af8962" x="180.115595" y="199.887045" style="fill: #1f77b4; stroke: #1f77b4"/>
  <use xlink:href="#m64e8af8962" x="184.065729" y="158.845573" style="fill: #1f77b4; stroke: #1f77b4"/>
  <use xlink:href="#m64e8af8962" x="186.918822" y="140.815327" style="fill: #1f77b4; stroke: #1f77b4"/>
  <use xlink:href="#m64e8af8962" x="205.494759" y="163.052647" style="fill: #1f77b4; stroke: #1f77b4"/>
  <use xlink:href="#m64e8af8962" x="200.377261" y="142.865839" style="fill: #1f77b4; stroke: #1f77b4"/>
  <use xlink:href="#m64e8af8962" x="193.967564" y="184.468041" style="fill: #1f77b4; stroke: #1f77b4"/>
  <use xlink:href="#m64e8af8962" x="190.181832" y="176.370799" style="fill: #1f77b4; stroke: #1f77b4"/>
  <use xlink:href="#m64e8af8962" x="180.430675" y="177.705329" style="fill: #1f77b4; stroke: #1f77b4"/>
  <use xlink:href="#m64e8af8962" x="194.807077" y="104.612809" style="fill: #1f77b4; stroke: #1f77b4"/>
  <use xlink:href="#m64e8af8962" x="211.143742" y="182.736721" style="fill: #1f77b4; stroke: #1f77b4"/>
  <use xlink:href="#m64e8af8962" x="204.767854" y="72.077525" style="fill: #1f77b4; stroke: #1f77b4"/>
  <use xlink:href="#m64e8af8962" x="192.546312" y="144.487276" style="fill: #1f77b4; stroke: #1f77b4"/>
  <use xlink:href="#m64e8af8962" x="199.079138" y="104.620585" style="fill: #1f77b4; stroke: #1f77b4"/>
  <use xlink:href="#m64e8af8962" x="178.578511" y="180.034667" style="fill: #1f77b4; stroke: #1f77b4"/>
  <use xlink:href="#m64e8af8962" x="168.602045" y="181.960472" style="fill: #1f77b4; stroke: #1f77b4"/>
  <use xlink:href="#m64e8af8962" x="192.477926" y="109.859911" style="fill: #1f77b4; stroke: #1f77b4"/>
  <use xlink:href="#m64e8af8962" x="171.61731" y="173.498475" style="fill: #1f77b4; stroke: #1f77b4"/>
  <use xlink:href="#m64e8af8962" x="318.290346" y="44.64" style="fill: #1f77b4; stroke: #1f77b4"/>
  <use xlink:href="#m64e8af8962" x="373.581818" y="246.24" style="fill: red; stroke: red"/>
  <use xlink:href="#m64e8af8962" x="350.102637" y="180.244237" style="fill: #1f77b4; stroke: #1f77b4"/>
 </g>
</svg>