<?xml version="1.0" encoding="utf-8" standalone="no"?>
<!DOCTYPE svg PUBLIC "-//W3C//DTD SVG 1.1//EN"
  "http://www.w3.org/Graphics/SVG/1.1/DTD/svg11.dtd">
<svg xmlns:xlink="http://www.w3.org/1999/xlink" width="432pt" height="288pt" viewBox="0 0 432 288" xmlns="http://www.w3.org/2000/svg" version="1.1">
 <defs>
  <style type="text/css">*{stroke-linejoin: round; stroke-linecap: butt}</style>
  <path id="m495c6f2ec9" d="M 0 3 
C 0.795609 3 1.55874 2.683901 2.12132 2.12132 
C 2.683901 1.55874 3 0.795609 3 0 
C 3 -0.795609 2.683901 -1.55874 2.12132 -2.12132 
C 1.55874 -2.683901 0.795609 -3 0 -3 
C -0.795609 -3 -1.55874 -2.683901 -2.12132 -2.12132 
C -2.683901 -1.55874 -3 -0.795609 -3 0 
C -3 0.795609 -2.683901 1.55874 -2.12132 2.12132 
C -1.55874 2.683901 -0.795609 3 0 3 
z"/>
 </defs>
 <g>
  <use xlink:href="#m495c6f2ec9" x="119.605616" y="67.445374" style="fill: #1f77b4; stroke: #1f77b4"/>
  <use xlink:href="#m495c6f2ec9" x="129.901362" y="80.236424" style="fill: #1f77b4; stroke: #1f77b4"/>
  <use xlink:href="#m495c6f2ec9" x="69.218182" y="169.636905" style="fill: #1f77b4; stroke: #1f77b4"/>
  <use xlink:href="#m495c6f2ec9" x="101.328442" y="112.562506" style="fill: #1f77b4; stroke: #1f77b4"/>
  <use xlink:href="#m495c6f2ec9" x="83.97143" y="98.798135" style="fill: #1f77b4; stroke: #1f77b4"/>
  <use xlink:href="#m495c6f2ec9" x="81.193729" y="62.313553" style="fill: #1f77b4; stroke: #1f77b4"/>
  <use xlink:href="#m495c6f2ec9" x="112.563906" y="81.497119" style="fill: #1f77b4; stroke: #1f77b4"/>
  <use xlink:href="#m495c6f2ec9" x="117.095684" y="98.294452" style="fill: #1f77b4; stroke: #1f77b4"/>
  <use xlink:href="#m495c6f2ec9" x="112.270998" y="93.151243" style="fill: #1f77b4; stroke: #1f77b4"/>
  <use xlink:href="#m495c6f2ec9" x="132.376609" y="76.467944" style="fill: #1f77b4; stroke: #1f77b4"/>
  <use xlink:href="#m495c6f2ec9" x="94.612625" y="66.072103" style="fill: #1f77b4; stroke: #1f77b4"/>
  <use xlink:href="#m495c6f2ec9" x="102.387676" y="44.64" style="fill: #1f77b4; stroke: #1f77b4"/>
  <use xlink:href="#m495c6f2ec9" x="110.04156" y="119.249857" style="fill: #1f77b4; stroke: #1f77b4"/>
  <use xlink:href="#m495c6f2ec9" x="106.084965" y="55.735406" style="fill: #1f77b4; stroke: #1f77b4"/>
  <use xlink:href="#m495c6f2ec9" x="137.56839" y="144.380617" style="fill: red; stroke: red"/>
  <use xlink:href="#m495c6f2ec9" x="158.383071" y="87.38663" style="fill: #1f77b4; stroke: #1f77b4"/>
  <use xlink:href="#m495c6f2ec9" x="95.039795" y="64.02766" style="fill: #1f77b4; stroke: #1f77b4"/>
  <use xlink:href="#m495c6f2ec9" x="119.445895" y="101.271711" style="fill: #1f77b4; stroke: #1f77b4"/>
  <use xlink:href="#m495c6f2ec9" x="141.345189" y="74.945906" style="fill: #1f77b4; stroke: #1f77b4"/>
  <use xlink:href="#m495c6f2ec9" x="74.906195" y="104.45534" style="fill: #1f77b4; stroke: #1f77b4"/>
  <use xlink:href="#m495c6f2ec9" x="124.829672" y="81.356762" style="fill: #1f77b4; stroke: #1f77b4"/>
  <use xlink:href="#m495c6f2ec9" x="97.289355" y="85.927842" style="fill: #1f77b4; stroke: #1f77b4"/>
  <use xlink:href="#m495c6f2ec9" x="286.636055" y="56.336054" style="fill: #1f77b4; stroke: #1f77b4"/>
  <use xlink:href="#m495c6f2ec9" x="241.263393" y="104.792139" style="fill: #1f77b4; stroke: #1f77b4"/>
  <use xlink:href="#m495c6f2ec9" x="241.504505" y="62.565851" style="fill: #1f77b4; stroke: #1f77b4"/>
  <use xlink:href="#m495c6f2ec9" x="273.673422" y="78.308424" style="fill: #1f77b4; stroke: #1f77b4"/>
  <use xlink:href="#m495c6f2ec9" x="268.235249" y="76.494442" style="fill: #1f77b4; stroke: #1f77b4"/>
  <use xlink:href="#m495c6f2ec9" x="279.759604" y="88.603069" style="fill: #1f77b4; stroke: #1f77b4"/>
  <use xlink:href="#m495c6f2ec9" x="245.196424" y="73.552049" style="fill: #1f77b4; stroke: #1f77b4"/>
  <use xlink:href="#m495c6f2ec9" x="260.97735" y="62.641482" style="fill: #1f77b4; stroke: #1f77b4"/>
  <use xlink:href="#m495c6f2ec9" x="249.449517" y="146.089196" style="fill: #1f77b4; stroke: #1f77b4"/>
  <use xlink:href="#m495c6f2ec9" x="225.435026" y="140.31989" style="fill: #1f77b4; stroke: #1f77b4"/>
  <use xlink:href="#m495c6f2ec9" x="276.021629" y="158.157802" style="fill: #1f77b4; stroke: #1f77b4"/>
  <use xlink:href="#m495c6f2ec9" x="270.587552" y="102.048206" style="fill: #1f77b4; stroke: #1f77b4"/>
  <use xlink:href="#m495c6f2ec9" x="238.199789" y="138.747871" style="fill: #1f77b4; stroke: #1f77b4"/>
  <use xlink:href="#m495c6f2ec9" x="274.065106" y="61.236154" style="fill: #1f77b4; stroke: #1f77b4"/>
  <use xlink:href="#m495c6f2ec9" x="273.568443" y="62.472507" style="fill: #1f77b4; stroke: #1f77b4"/>
  <use xlink:href="#m495c6f2ec9" x="268.499842" y="114.494253" style="fill: #1f77b4; stroke: #1f77b4"/>
  <use xlink:href="#m495c6f2ec9" x="222.438967" y="87.962409" style="fill: #1f77b4; stroke: #1f77b4"/>
  <use xlink:href="#m495c6f2ec9" x="266.85055" y="83.702164" style="fill: #1f77b4; stroke: #1f77b4"/>
  <use xlink:href="#m495c6f2ec9" x="279.162318" y="86.365841" style="fill: #1f77b4; stroke: #1f77b4"/>
  <use xlink:href="#m495c6f2ec9" x="259.331073" y="105.296962" style="fill: #1f77b4; stroke: #1f77b4"/>
  <use xlink:href="#m495c6f2ec9" x="251.203256" y="47.957808" style="fill: #1f77b4; stroke: #1f77b4"/>
  <use xlink:href="#m495c6f2ec9" x="259.150874" y="126.413788" style="fill: #1f77b4; stroke: #1f77b4"/>
  <use xlink:href="#m495c6f2ec9" x="333.800533" y="181.664307" style="fill: #1f77b4; stroke: #1f77b4"/>
  <use xlink:href="#m495c6f2ec9" x="373.581818" y="246.24" style="fill: red; stroke: red"/>
  <use xlink:href="#m495c6f2ec9" x="371.05697" y="176.279671" style="fill: #1f77b4; stroke: #1f77b4"/>
 </g>
</svg>