<?xml version="1.0" encoding="utf-8"?>
<svg xmlns:xlink="http://www.w3.org/1999/xlink" width="432pt" height="288pt" viewBox="0 0 432 288" xmlns="http://www.w3.org/2000/svg" version="1.1">
 <defs>
  <style type="text/css">*{stroke-linejoin: round; stroke-linecap: butt}</style>
  <path id="mfb34ac6f50" d="M 0 3 
C 0.795609 3 1.55874 2.683901 2.12132 2.12132 
C 2.683901 1.55874 3 0.795609 3 0 
C 3 -0.795609 2.683901 -1.55874 2.12132 -2.12132 
C 1.55874 -2.683901 0.795609 -3 0 -3 
C -0.795609 -3 -1.55874 -2.683901 -2.12132 -2.12132 
C -2.683901 -1.55874 -3 -0.795609 -3 0 
C -3 0.795609 -2.683901 1.55874 -2.12132 2.12132 
C -1.55874 2.683901 -0.795609 3 0 3 
z"/>
 </defs>
 <g>
  <use xlink:href="#mfb34ac6f50" x="122.669828" y="175.448581" style="fill: #1f77b4;"/>
  <use xlink:href="#mfb34ac6f50" x="137.853936" y="162.651549" style="fill: #1f77b4;"/>
  <use xlink:href="#mfb34ac6f50" x="148.404811" y="172.728053" style="fill: #1f77b4;"/>
  <use xlink:href="#mfb34ac6f50" x="130.394937" y="175.229488" style="fill: #1f77b4;"/>
  <use xlink:href="#mfb34ac6f50" x="87.042181" y="209.126034" style="fill: #1f77b4;"/>
  <use xlink:href="#mfb34ac6f50" x="189.821616" y="174.286576" style="fill: #1f77b4;"/>
  <use xlink:href="#mfb34ac6f50" x="69.218182" y="178.545679" style="fill: #1f77b4;"/>
  <use xlink:href="#mfb34ac6f50" x="87.066593" y="164.875064" style="fill: #1f77b4;"/>
  <use xlink:href="#mfb34ac6f50" x="136.109503" y="203.864509" style="fill: #1f77b4;"/>
  <use xlink:href="#mfb34ac6f50" x="136.60824" y="177.808353" style="fill: #1f77b4;"/>
  <use xlink:href="#mfb34ac6f50" x="159.011055" y="172.811492" style="fill: #1f77b4;"/>
  <use xlink:href="#mfb34ac6f50" x="135.53678" y="195.272457" style="fill: #1f77b4;"/>
  <use xlink:href="#mfb34ac6f50" x="104.531961" y="194.17654" style="fill: #1f77b4;"/>
  <use xlink:href="#mfb34ac6f50" x="91.039287" y="174.547111" style="fill: #1f77b4;"/>
  <use xlink:href="#mfb34ac6f50" x="95.644587" y="186.188802" style="fill: #1f77b4;"/>
  <use xlink:href="#mfb34ac6f50" x="123.607903" y="143.771728" style="fill: #1f77b4;"/>
  <use xlink:href="#mfb34ac6f50" x="94.778098" y="192.803466" style="fill: #1f77b4;"/>
  <use xlink:href="#mfb34ac6f50" x="112.138254" y="207.442524" style="fill: #1f77b4;"/>
  <use xlink:href="#mfb34ac6f50" x="84.791244" y="152.22996" style="fill: #1f77b4;"/>
  <use xlink:href="#mfb34ac6f50" x="138.707179" y="158.651484" style="fill: #1f77b4;"/>
  <use xlink:href="#mfb34ac6f50" x="186.575838" y="155.257462" style="fill: #1f77b4;"/>
  <use xlink:href="#mfb34ac6f50" x="144.122162" y="191.681647" style="fill: #1f77b4;"/>
  <use xlink:href="#mfb34ac6f50" x="143.722642" y="202.082718" style="fill: #1f77b4;"/>
  <use xlink:href="#mfb34ac6f50" x="320.818092" y="150.837198" style="fill: #1f77b4;"/>
  <use xlink:href="#mfb34ac6f50" x="365.840857" y="105.33938" style="fill: #1f77b4;"/>
  <use xlink:href="#mfb34ac6f50" x="322.441412" y="142.963561" style="fill: #1f77b4;"/>
  <use xlink:href="#mfb34ac6f50" x="373.581818" y="137.614986" style="fill: #1f77b4;"/>
  <use xlink:href="#mfb34ac6f50" x="363.298581" y="140.018544" style="fill: #1f77b4;"/>
  <use xlink:href="#mfb34ac6f50" x="336.712366" y="133.492127" style="fill: #1f77b4;"/>
  <use xlink:href="#mfb34ac6f50" x="340.498417" y="137.556463" style="fill: #1f77b4;"/>
  <use xlink:href="#mfb34ac6f50" x="334.533291" y="148.268787" style="fill: #1f77b4;"/>
  <use xlink:href="#mfb34ac6f50" x="296.35976" y="168.805328" style="fill: #1f77b4;"/>
  <use xlink:href="#mfb34ac6f50" x="337.648108" y="154.902338" style="fill: #1f77b4;"/>
  <use xlink:href="#mfb34ac6f50" x="370.034901" y="175.539403" style="fill: #1f77b4;"/>
  <use xlink:href="#mfb34ac6f50" x="373.105346" y="128.803433" style="fill: #1f77b4;"/>
  <use xlink:href="#mfb34ac6f50" x="322.447006" y="172.660284" style="fill: #1f77b4;"/>
  <use xlink:href="#mfb34ac6f50" x="305.338913" y="177.593792" style="fill: #1f77b4;"/>
  <use xlink:href="#mfb34ac6f50" x="334.472787" y="147.152592" style="fill: #1f77b4;"/>
  <use xlink:href="#mfb34ac6f50" x="306.294597" y="148.17135" style="fill: #1f77b4;"/>
  <use xlink:href="#mfb34ac6f50" x="321.270174" y="142.898042" style="fill: #1f77b4;"/>
  <use xlink:href="#mfb34ac6f50" x="327.697847" y="170.819528" style="fill: #1f77b4;"/>
  <use xlink:href="#mfb34ac6f50" x="306.707372" y="143.819702" style="fill: #1f77b4;"/>
  <use xlink:href="#mfb34ac6f50" x="319.372192" y="149.375868" style="fill: #1f77b4;"/>
  <use xlink:href="#mfb34ac6f50" x="362.249187" y="124.94214" style="fill: #1f77b4;"/>
  <use xlink:href="#mfb34ac6f50" x="339.548976" y="131.908871" style="fill: #1f77b4;"/>
  <use xlink:href="#mfb34ac6f50" x="327.381194" y="151.027067" style="fill: #1f77b4;"/>
  <use xlink:href="#mfb34ac6f50" x="160.782513" y="246.24" style="fill: red;"/>
  <use xlink:href="#mfb34ac6f50" x="146.250426" y="55.660889" style="fill: lime;"/>
  <use xlink:href="#mfb34ac6f50" x="126.688242" y="44.64" style="fill: lime;"/>
 </g>
</svg>