<?xml version="1.0" standalone="no"?>
<svg width="432pt" height="288pt" viewBox="0 0 432 288" xmlns="http://www.w3.org/2000/svg" version="1.1">
  <defs>
    <path id="circle" d="M 0 3 C 0.795609 3 1.55874 2.683901 2.12132 2.12132 C 2.683901 1.55874 3 0.795609 3 0 C 3 -0.795609 2.683901 -1.55874 2.12132 -2.12132 C 1.55874 -2.683901 0.795609 -3 0 -3 C -0.795609 -3 -1.55874 -2.683901 -2.12132 -2.12132 C -2.683901 -1.55874 -3 -0.795609 -3 0 C -3 0.795609 -2.683901 1.55874 -2.12132 2.12132 C -1.55874 2.683901 -0.795609 3 0 3 Z" />
  </defs>
  <g fill-opacity="0.6" stroke-opacity="0.6">
    <use xlink:href="#circle" x="82.436935" y="44.64" style="fill: #1f77b4; stroke: #1f77b4"/>
    <use xlink:href="#circle" x="113.62637" y="74.485598" style="fill: #1f77b4; stroke: #1f77b4"/>
    <use xlink:href="#circle" x="114.643768" y="63.977253" style="fill: #1f77b4; stroke: #1f77b4"/>
    <use xlink:href="#circle" x="96.473469" y="86.538217" style="fill: #1f77b4; stroke: #1f77b4"/>
    <use xlink:href="#circle" x="82.000982" y="71.499275" style="fill: #1f77b4; stroke: #1f77b4"/>
    <use xlink:href="#circle" x="102.326594" y="68.395994" style="fill: #1f77b4; stroke: #1f77b4"/>
    <use xlink:href="#circle" x="87.238202" y="60.377273" style="fill: #1f77b4; stroke: #1f77b4"/>
    <use xlink:href="#circle" x="89.392274" y="50.239264" style="fill: #1f77b4; stroke: #1f77b4"/>
    <use xlink:href="#circle" x="88.557176" y="52.473594" style="fill: #1f77b4; stroke: #1f77b4"/>
    <use xlink:href="#circle" x="69.218182" y="51.51347" style="fill: #1f77b4; stroke: #1f77b4"/>
    <use xlink:href="#circle" x="106.133522" y="67.855946" style="fill: #1f77b4; stroke: #1f77b4"/>
    <use xlink:href="#circle" x="85.054986" y="48.406137" style="fill: #1f77b4; stroke: #1f77b4"/>
    <use xlink:href="#circle" x="83.075354" y="48.332775" style="fill: #1f77b4; stroke: #1f77b4"/>
    <use xlink:href="#circle" x="92.538252" y="60.097564" style="fill: #1f77b4; stroke: #1f77b4"/>
    <use xlink:href="#circle" x="85.013651" y="60.904276" style="fill: #1f77b4; stroke: #1f77b4"/>
    <use xlink:href="#circle" x="198.180857" y="125.712494" style="fill: #1f77b4; stroke: #1f77b4"/>
    <use xlink:href="#circle" x="185.048162" y="134.601935" style="fill: #1f77b4; stroke: #1f77b4"/>
    <use xlink:href="#circle" x="210.738873" y="119.811917" style="fill: #1f77b4; stroke: #1f77b4"/>
    <use xlink:href="#circle" x="212.721647" y="143.133337" style="fill: #1f77b4; stroke: #1f77b4"/>
    <use xlink:href="#circle" x="208.540708" y="151.312203" style="fill: #1f77b4; stroke: #1f77b4"/>
    <use xlink:href="#circle" x="201.854713" y="125.644826" style="fill: #1f77b4; stroke: #1f77b4"/>
    <use xlink:href="#circle" x="221.351366" y="145.19894" style="fill: #1f77b4; stroke: #1f77b4"/>
    <use xlink:href="#circle" x="202.148789" y="133.391865" style="fill: #1f77b4; stroke: #1f77b4"/>
    <use xlink:href="#circle" x="206.002503" y="144.184567" style="fill: #1f77b4; stroke: #1f77b4"/>
    <use xlink:href="#circle" x="212.346089" y="128.643719" style="fill: #1f77b4; stroke: #1f77b4"/>
    <use xlink:href="#circle" x="202.076083" y="119.805526" style="fill: #1f77b4; stroke: #1f77b4"/>
    <use xlink:href="#circle" x="196.243458" y="130.102196" style="fill: #1f77b4; stroke: #1f77b4"/>
    <use xlink:href="#circle" x="206.181549" y="132.542372" style="fill: #1f77b4; stroke: #1f77b4"/>
    <use xlink:href="#circle" x="186.730798" y="130.049446" style="fill: #1f77b4; stroke: #1f77b4"/>
    <use xlink:href="#circle" x="203.369484" y="122.474954" style="fill: #1f77b4; stroke: #1f77b4"/>
    <use xlink:href="#circle" x="316.5045" y="201.362188" style="fill: #1f77b4; stroke: #1f77b4"/>
    <use xlink:href="#circle" x="354.999124" y="233.822138" style="fill: #1f77b4; stroke: #1f77b4"/>
    <use xlink:href="#circle" x="321.815905" y="196.455699" style="fill: #1f77b4; stroke: #1f77b4"/>
    <use xlink:href="#circle" x="305.637715" y="202.551684" style="fill: #1f77b4; stroke: #1f77b4"/>
    <use xlink:href="#circle" x="329.273589" y="231.729551" style="fill: #1f77b4; stroke: #1f77b4"/>
    <use xlink:href="#circle" x="354.31852" y="246.24" style="fill: red; stroke: red"/>
    <use xlink:href="#circle" x="332.578756" y="218.021761" style="fill: #1f77b4; stroke: #1f77b4"/>
    <use xlink:href="#circle" x="317.945094" y="216.253432" style="fill: #1f77b4; stroke: #1f77b4"/>
    <use xlink:href="#circle" x="344.723355" y="231.800594" style="fill: #1f77b4; stroke: #1f77b4"/>
    <use xlink:href="#circle" x="364.575328" y="228.144599" style="fill: #1f77b4; stroke: #1f77b4"/>
    <use xlink:href="#circle" x="336.839088" y="204.676426" style="fill: #1f77b4; stroke: #1f77b4"/>
    <use xlink:href="#circle" x="343.77338" y="231.135671" style="fill: #1f77b4; stroke: #1f77b4"/>
    <use xlink:href="#circle" x="357.755646" y="221.056919" style="fill: #1f77b4; stroke: #1f77b4"/>
    <use xlink:href="#circle" x="326.090835" y="218.87419" style="fill: #1f77b4; stroke: #1f77b4"/>
    <use xlink:href="#circle" x="349.07865" y="241.873952" style="fill: #1f77b4; stroke: #1f77b4"/>
    <use xlink:href="#circle" x="373.581818" y="204.388512" style="fill: #1f77b4; stroke: #1f77b4"/>
    <use xlink:href="#circle" x="180.228841" y="196.495586" style="fill: #1f77b4; stroke: #1f77b4"/>
    <use xlink:href="#circle" x="258.384002" y="179.728825" style="fill: #1f77b4; stroke: #1f77b4"/>
  </g>
</svg>