<?xml version="1.0" encoding="utf-8" standalone="no"?>
<!DOCTYPE svg PUBLIC "-//W3C//DTD SVG 1.1//EN"
  "http://www.w3.org/Graphics/SVG/1.1/DTD/svg11.dtd">
<svg xmlns:xlink="http://www.w3.org/1999/xlink" width="432pt" height="288pt" viewBox="0 0 432 288" xmlns="http://www.w3.org/2000/svg" version="1.1">
 <defs>
  <style type="text/css">*{stroke-linejoin: round; stroke-linecap: butt}</style>
  <path id="m6f98d2691d" d="M 0 3 
C 0.795609 3 1.55874 2.683901 2.12132 2.12132 
C 2.683901 1.55874 3 0.795609 3 0 
C 3 -0.795609 2.683901 -1.55874 2.12132 -2.12132 
C 1.55874 -2.683901 0.795609 -3 0 -3 
C -0.795609 -3 -1.55874 -2.683901 -2.12132 -2.12132 
C -2.683901 -1.55874 -3 -0.795609 -3 0 
C -3 0.795609 -2.683901 1.55874 -2.12132 2.12132 
C -1.55874 2.683901 -0.795609 3 0 3 
z"/>
 </defs>
 <g>
  <use xlink:href="#m6f98d2691d" x="74.535076" y="246.056706" style="fill: #1f77b4;"/>
  <use xlink:href="#m6f98d2691d" x="75.092114" y="239.429424" style="fill: #1f77b4;"/>
  <use xlink:href="#m6f98d2691d" x="76.020379" y="233.445444" style="fill: #1f77b4;"/>
  <use xlink:href="#m6f98d2691d" x="73.173865" y="234.823566" style="fill: #1f77b4;"/>
  <use xlink:href="#m6f98d2691d" x="91.882934" y="242.3356" style="fill: #1f77b4;"/>
  <use xlink:href="#m6f98d2691d" x="83.204513" y="242.454529" style="fill: #1f77b4;"/>
  <use xlink:href="#m6f98d2691d" x="73.371988" y="230.060708" style="fill: #1f77b4;"/>
  <use xlink:href="#m6f98d2691d" x="69.446257" y="234.626637" style="fill: #1f77b4;"/>
  <use xlink:href="#m6f98d2691d" x="69.218182" y="231.498964" style="fill: #1f77b4;"/>
  <use xlink:href="#m6f98d2691d" x="73.71723" y="246.24" style="fill: #1f77b4;"/>
  <use xlink:href="#m6f98d2691d" x="79.691968" y="240.211341" style="fill: #1f77b4;"/>
  <use xlink:href="#m6f98d2691d" x="165.809334" y="218.26283" style="fill: #1f77b4;"/>
  <use xlink:href="#m6f98d2691d" x="168.156116" y="213.381963" style="fill: #1f77b4;"/>
  <use xlink:href="#m6f98d2691d" x="188.918668" y="204.488296" style="fill: #1f77b4;"/>
  <use xlink:href="#m6f98d2691d" x="170.840718" y="206.252609" style="fill: #1f77b4;"/>
  <use xlink:href="#m6f98d2691d" x="157.360955" y="216.03368" style="fill: #1f77b4;"/>
  <use xlink:href="#m6f98d2691d" x="170.898241" y="204.090097" style="fill: #1f77b4;"/>
  <use xlink:href="#m6f98d2691d" x="164.707664" y="209.598072" style="fill: #1f77b4;"/>
  <use xlink:href="#m6f98d2691d" x="177.869113" y="213.518688" style="fill: #1f77b4;"/>
  <use xlink:href="#m6f98d2691d" x="175.810441" y="207.262605" style="fill: #1f77b4;"/>
  <use xlink:href="#m6f98d2691d" x="158.320223" y="211.83545" style="fill: #1f77b4;"/>
  <use xlink:href="#m6f98d2691d" x="149.531107" y="208.269696" style="fill: #1f77b4;"/>
  <use xlink:href="#m6f98d2691d" x="264.234047" y="180.696964" style="fill: #1f77b4;"/>
  <use xlink:href="#m6f98d2691d" x="269.135495" y="182.522148" style="fill: #1f77b4;"/>
  <use xlink:href="#m6f98d2691d" x="250.638674" y="190.873674" style="fill: #1f77b4;"/>
  <use xlink:href="#m6f98d2691d" x="258.773073" y="173.420453" style="fill: #1f77b4;"/>
  <use xlink:href="#m6f98d2691d" x="291.953554" y="175.243546" style="fill: #1f77b4;"/>
  <use xlink:href="#m6f98d2691d" x="252.483808" y="189.877994" style="fill: #1f77b4;"/>
  <use xlink:href="#m6f98d2691d" x="272.343319" y="177.624587" style="fill: #1f77b4;"/>
  <use xlink:href="#m6f98d2691d" x="271.913921" y="181.763801" style="fill: #1f77b4;"/>
  <use xlink:href="#m6f98d2691d" x="256.225388" y="189.356497" style="fill: #1f77b4;"/>
  <use xlink:href="#m6f98d2691d" x="260.264752" y="188.307106" style="fill: #1f77b4;"/>
  <use xlink:href="#m6f98d2691d" x="279.514203" y="179.217928" style="fill: #1f77b4;"/>
  <use xlink:href="#m6f98d2691d" x="361.772264" y="152.105115" style="fill: #1f77b4;"/>
  <use xlink:href="#m6f98d2691d" x="368.768116" y="148.329987" style="fill: #1f77b4;"/>
  <use xlink:href="#m6f98d2691d" x="367.031648" y="146.700944" style="fill: #1f77b4;"/>
  <use xlink:href="#m6f98d2691d" x="370.874784" y="152.734373" style="fill: #1f77b4;"/>
  <use xlink:href="#m6f98d2691d" x="344.736743" y="143.444844" style="fill: #1f77b4;"/>
  <use xlink:href="#m6f98d2691d" x="369.664568" y="150.955399" style="fill: #1f77b4;"/>
  <use xlink:href="#m6f98d2691d" x="357.857845" y="142.70081" style="fill: #1f77b4;"/>
  <use xlink:href="#m6f98d2691d" x="362.093006" y="149.24025" style="fill: #1f77b4;"/>
  <use xlink:href="#m6f98d2691d" x="358.749177" y="142.241854" style="fill: #1f77b4;"/>
  <use xlink:href="#m6f98d2691d" x="373.581818" y="144.903532" style="fill: #1f77b4;"/>
  <use xlink:href="#m6f98d2691d" x="360.32155" y="137.756852" style="fill: #1f77b4;"/>
  <use xlink:href="#m6f98d2691d" x="129.939022" y="104.116239" style="fill: red;"/>
  <use xlink:href="#m6f98d2691d" x="366.435203" y="77.57568" style="fill: red;"/>
  <use xlink:href="#m6f98d2691d" x="197.965649" y="44.64" style="fill: #1f77b4;"/>
 </g>
</svg>