<?xml version="1.0" encoding="utf-8" standalone="no"?>
<!DOCTYPE svg PUBLIC "-//W3C//DTD SVG 1.1//EN"
  "http://www.w3.org/Graphics/SVG/1.1/DTD/svg11.dtd">
<svg xmlns:xlink="http://www.w3.org/1999/xlink" width="432pt" height="288pt" viewBox="0 0 432 288" xmlns="http://www.w3.org/2000/svg" version="1.1">
 <g>
   <g>
     <use xlink:href="#m44a6de529d" x="73.132177" y="237.053701" style="fill: #1f77b4; stroke: #1f77b4"/>
     <use xlink:href="#m44a6de529d" x="75.560278" y="233.295315" style="fill: #1f77b4; stroke: #1f77b4"/>
     <use xlink:href="#m44a6de529d" x="69.576906" y="236.226526" style="fill: #1f77b4; stroke: #1f77b4"/>
     <use xlink:href="#m44a6de529d" x="86.927357" y="224.239226" style="fill: #1f77b4; stroke: #1f77b4"/>
     <use xlink:href="#m44a6de529d" x="79.64427" y="231.666724" style="fill: #1f77b4; stroke: #1f77b4"/>
     <use xlink:href="#m44a6de529d" x="79.895102" y="228.771481" style="fill: #1f77b4; stroke: #1f77b4"/>
     <use xlink:href="#m44a6de529d" x="78.070054" y="236.538481" style="fill: #1f77b4; stroke: #1f77b4"/>
     <use xlink:href="#m44a6de529d" x="83.309967" y="235.908888" style="fill: #1f77b4; stroke: #1f77b4"/>
     <use xlink:href="#m44a6de529d" x="74.734039" y="229.043589" style="fill: #1f77b4; stroke: #1f77b4"/>
     <use xlink:href="#m44a6de529d" x="76.398665" y="235.169592" style="fill: #1f77b4; stroke: #1f77b4"/>
     <use xlink:href="#m44a6de529d" x="75.496573" y="244.670537" style="fill: red; stroke: red"/>
     <use xlink:href="#m44a6de529d" x="70.280687" y="246.24" style="fill: red; stroke: red"/>
     <use xlink:href="#m44a6de529d" x="69.218182" y="240.507954" style="fill: #1f77b4; stroke: #1f77b4"/>
     <use xlink:href="#m44a6de529d" x="84.15805" y="232.839627" style="fill: #1f77b4; stroke: #1f77b4"/>
     <use xlink:href="#m44a6de529d" x="158.729641" y="179.490046" style="fill: #1f77b4; stroke: #1f77b4"/>
     <use xlink:href="#m44a6de529d" x="155.677901" y="180.694141" style="fill: #1f77b4; stroke: #1f77b4"/>
     <use xlink:href="#m44a6de529d" x="158.751257" y="169.085641" style="fill: #1f77b4; stroke: #1f77b4"/>
     <use xlink:href="#m44a6de529d" x="155.341369" y="174.50596" style="fill: #1f77b4; stroke: #1f77b4"/>
     <use xlink:href="#m44a6de529d" x="154.581103" y="183.839217" style="fill: #1f77b4; stroke: #1f77b4"/>
     <use xlink:href="#m44a6de529d" x="178.38406" y="170.023155" style="fill: #1f77b4; stroke: #1f77b4"/>
     <use xlink:href="#m44a6de529d" x="170.360436" y="177.399251" style="fill: #1f77b4; stroke: #1f77b4"/>
     <use xlink:href="#m44a6de529d" x="182.363881" y="166.223561" style="fill: #1f77b4; stroke: #1f77b4"/>
     <use xlink:href="#m44a6de529d" x="166.64603" y="168.543857" style="fill: #1f77b4; stroke: #1f77b4"/>
     <use xlink:href="#m44a6de529d" x="166.329772" y="176.644827" style="fill: #1f77b4; stroke: #1f77b4"/>
     <use xlink:href="#m44a6de529d" x="154.087399" y="181.514127" style="fill: #1f77b4; stroke: #1f77b4"/>
     <use xlink:href="#m44a6de529d" x="166.144683" y="173.107894" style="fill: #1f77b4; stroke: #1f77b4"/>
     <use xlink:href="#m44a6de529d" x="166.340448" y="172.57124" style="fill: #1f77b4; stroke: #1f77b4"/>
     <use xlink:href="#m44a6de529d" x="163.107534" y="190.48417" style="fill: #1f77b4; stroke: #1f77b4"/>
     <use xlink:href="#m44a6de529d" x="219.390716" y="136.879794" style="fill: #1f77b4; stroke: #1f77b4"/>
     <use xlink:href="#m44a6de529d" x="231.032179" y="129.040033" style="fill: #1f77b4; stroke: #1f77b4"/>
     <use xlink:href="#m44a6de529d" x="225.124456" y="122.291422" style="fill: #1f77b4; stroke: #1f77b4"/>
     <use xlink:href="#m44a6de529d" x="238.317816" y="120.719915" style="fill: #1f77b4; stroke: #1f77b4"/>
     <use xlink:href="#m44a6de529d" x="213.89785" y="148.270508" style="fill: #1f77b4; stroke: #1f77b4"/>
     <use xlink:href="#m44a6de529d" x="221.111255" y="124.20415" style="fill: #1f77b4; stroke: #1f77b4"/>
     <use xlink:href="#m44a6de529d" x="231.57989" y="107.303262" style="fill: #1f77b4; stroke: #1f77b4"/>
     <use xlink:href="#m44a6de529d" x="226.400448" y="111.099084" style="fill: #1f77b4; stroke: #1f77b4"/>
     <use xlink:href="#m44a6de529d" x="226.915303" y="113.297335" style="fill: #1f77b4; stroke: #1f77b4"/>
     <use xlink:href="#m44a6de529d" x="214.293925" y="143.657772" style="fill: #1f77b4; stroke: #1f77b4"/>
     <use xlink:href="#m44a6de529d" x="223.89987" y="141.231604" style="fill: #1f77b4; stroke: #1f77b4"/>
     <use xlink:href="#m44a6de529d" x="234.115785" y="121.436099" style="fill: #1f77b4; stroke: #1f77b4"/>
     <use xlink:href="#m44a6de529d" x="225.31111" y="128.766599" style="fill: #1f77b4; stroke: #1f77b4"/>
     <use xlink:href="#m44a6de529d" x="225.209607" y="122.055562" style="fill: #1f77b4; stroke: #1f77b4"/>
     <use xlink:href="#m44a6de529d" x="209.760383" y="44.64" style="fill: red; stroke: red"/>
     <use xlink:href="#m44a6de529d" x="166.205935" y="86.712771" style="fill: #1f77b4; stroke: #1f77b4"/>
     <use xlink:href="#m44a6de529d" x="373.581818" y="165.000417" style="fill: #1f77b4; stroke: #1f77b4"/>
   </g>
 </g>
 <defs>
   <path id="m44a6de529d" d="M 0 3 
C 0.795609 3 1.55874 2.683901 2.12132 2.12132 
C 2.683901 1.55874 3 0.795609 3 0 
C 3 -0.795609 2.683901 -1.55874 2.12132 -2.12132 
C 1.55874 -2.683901 0.795609 -3 0 -3 
C -0.795609 -3 -1.55874 -2.683901 -2.12132 -2.12132 
C -2.683901 -1.55874 -3 -0.795609 -3 0 
C -3 0.795609 -2.683901 1.55874 -2.12132 2.12132 
C -1.55874 2.683901 -0.795609 3 0 3 
z"/>
 </defs>
</svg>