<?xml version="1.0" encoding="utf-8"?>
<svg xmlns:xlink="http://www.w3.org/1999/xlink" width="432pt" height="288pt" viewBox="0 0 432 288" xmlns="http://www.w3.org/2000/svg" version="1.1">
 <defs>
  <style type="text/css">*{stroke-linejoin: round; stroke-linecap: butt}</style>
  <path id="mbd1ca9df16" d="M 0 3 
C 0.795609 3 1.55874 2.683901 2.12132 2.12132 
C 2.683901 1.55874 3 0.795609 3 0 
C 3 -0.795609 2.683901 -1.55874 2.12132 -2.12132 
C 1.55874 -2.683901 0.795609 -3 0 -3 
C -0.795609 -3 -1.55874 -2.683901 -2.12132 -2.12132 
C -2.683901 -1.55874 -3 -0.795609 -3 0 
C -3 0.795609 -2.683901 1.55874 -2.12132 2.12132 
C -1.55874 2.683901 -0.795609 3 0 3 
z"/>
 </defs>
 <g>
  <use xlink:href="#mbd1ca9df16" x="69.218182" y="237.783158" style="fill: #1f77b4; stroke: #1f77b4"/>
  <use xlink:href="#mbd1ca9df16" x="86.800224" y="246.24" style="fill: #1f77b4; stroke: #1f77b4"/>
  <use xlink:href="#mbd1ca9df16" x="107.486725" y="226.200442" style="fill: #1f77b4; stroke: #1f77b4"/>
  <use xlink:href="#mbd1ca9df16" x="95.27942" y="232.494072" style="fill: #1f77b4; stroke: #1f77b4"/>
  <use xlink:href="#mbd1ca9df16" x="103.391583" y="226.851646" style="fill: #1f77b4; stroke: #1f77b4"/>
  <use xlink:href="#mbd1ca9df16" x="97.223777" y="227.988583" style="fill: #1f77b4; stroke: #1f77b4"/>
  <use xlink:href="#mbd1ca9df16" x="109.494189" y="224.820804" style="fill: #1f77b4; stroke: #1f77b4"/>
  <use xlink:href="#mbd1ca9df16" x="83.756994" y="231.696345" style="fill: #1f77b4; stroke: #1f77b4"/>
  <use xlink:href="#mbd1ca9df16" x="103.770739" y="230.939674" style="fill: #1f77b4; stroke: #1f77b4"/>
  <use xlink:href="#mbd1ca9df16" x="91.393668" y="226.925728" style="fill: #1f77b4; stroke: #1f77b4"/>
  <use xlink:href="#mbd1ca9df16" x="112.18277" y="226.393231" style="fill: #1f77b4; stroke: #1f77b4"/>
  <use xlink:href="#mbd1ca9df16" x="90.16802" y="237.617358" style="fill: #1f77b4; stroke: #1f77b4"/>
  <use xlink:href="#mbd1ca9df16" x="97.219581" y="230.005394" style="fill: #1f77b4; stroke: #1f77b4"/>
  <use xlink:href="#mbd1ca9df16" x="94.303276" y="229.431474" style="fill: #1f77b4; stroke: #1f77b4"/>
  <use xlink:href="#mbd1ca9df16" x="106.766669" y="230.455646" style="fill: #1f77b4; stroke: #1f77b4"/>
  <use xlink:href="#mbd1ca9df16" x="96.897861" y="226.574646" style="fill: #1f77b4; stroke: #1f77b4"/>
  <use xlink:href="#mbd1ca9df16" x="211.155277" y="176.209574" style="fill: #1f77b4; stroke: #1f77b4"/>
  <use xlink:href="#mbd1ca9df16" x="213.685691" y="172.376864" style="fill: #1f77b4; stroke: #1f77b4"/>
  <use xlink:href="#mbd1ca9df16" x="210.611223" y="170.970327" style="fill: #1f77b4; stroke: #1f77b4"/>
  <use xlink:href="#mbd1ca9df16" x="222.674601" y="168.486655" style="fill: #1f77b4; stroke: #1f77b4"/>
  <use xlink:href="#mbd1ca9df16" x="210.172535" y="176.370915" style="fill: #1f77b4; stroke: #1f77b4"/>
  <use xlink:href="#mbd1ca9df16" x="243.477278" y="161.316684" style="fill: #1f77b4; stroke: #1f77b4"/>
  <use xlink:href="#mbd1ca9df16" x="189.400087" y="188.215028" style="fill: #1f77b4; stroke: #1f77b4"/>
  <use xlink:href="#mbd1ca9df16" x="204.973653" y="169.708745" style="fill: #1f77b4; stroke: #1f77b4"/>
  <use xlink:href="#mbd1ca9df16" x="238.166001" y="166.125689" style="fill: #1f77b4; stroke: #1f77b4"/>
  <use xlink:href="#mbd1ca9df16" x="204.486925" y="196.750746" style="fill: #1f77b4; stroke: #1f77b4"/>
  <use xlink:href="#mbd1ca9df16" x="227.800065" y="156.636048" style="fill: #1f77b4; stroke: #1f77b4"/>
  <use xlink:href="#mbd1ca9df16" x="214.504042" y="180.860857" style="fill: #1f77b4; stroke: #1f77b4"/>
  <use xlink:href="#mbd1ca9df16" x="213.507733" y="183.660514" style="fill: #1f77b4; stroke: #1f77b4"/>
  <use xlink:href="#mbd1ca9df16" x="231.281429" y="179.233143" style="fill: #1f77b4; stroke: #1f77b4"/>
  <use xlink:href="#mbd1ca9df16" x="224.065269" y="162.608991" style="fill: #1f77b4; stroke: #1f77b4"/>
  <use xlink:href="#mbd1ca9df16" x="190.741212" y="182.118859" style="fill: #1f77b4; stroke: #1f77b4"/>
  <use xlink:href="#mbd1ca9df16" x="329.641788" y="112.012946" style="fill: #1f77b4; stroke: #1f77b4"/>
  <use xlink:href="#mbd1ca9df16" x="310.682815" y="124.998144" style="fill: #1f77b4; stroke: #1f77b4"/>
  <use xlink:href="#mbd1ca9df16" x="333.622415" y="123.15541" style="fill: #1f77b4; stroke: #1f77b4"/>
  <use xlink:href="#mbd1ca9df16" x="317.653603" y="126.788153" style="fill: #1f77b4; stroke: #1f77b4"/>
  <use xlink:href="#mbd1ca9df16" x="304.445219" y="127.361768" style="fill: #1f77b4; stroke: #1f77b4"/>
  <use xlink:href="#mbd1ca9df16" x="314.040104" y="125.180144" style="fill: #1f77b4; stroke: #1f77b4"/>
  <use xlink:href="#mbd1ca9df16" x="330.477383" y="108.270044" style="fill: #1f77b4; stroke: #1f77b4"/>
  <use xlink:href="#mbd1ca9df16" x="319.626575" y="133.670943" style="fill: #1f77b4; stroke: #1f77b4"/>
  <use xlink:href="#mbd1ca9df16" x="327.188519" y="120.697499" style="fill: #1f77b4; stroke: #1f77b4"/>
  <use xlink:href="#mbd1ca9df16" x="331.467918" y="115.062219" style="fill: #1f77b4; stroke: #1f77b4"/>
  <use xlink:href="#mbd1ca9df16" x="325.058125" y="117.249646" style="fill: #1f77b4; stroke: #1f77b4"/>
  <use xlink:href="#mbd1ca9df16" x="337.134518" y="109.504722" style="fill: #1f77b4; stroke: #1f77b4"/>
  <use xlink:href="#mbd1ca9df16" x="312.163031" y="115.647281" style="fill: #1f77b4; stroke: #1f77b4"/>
  <use xlink:href="#mbd1ca9df16" x="314.117857" y="134.818368" style="fill: #1f77b4; stroke: #1f77b4"/>
  <use xlink:href="#mbd1ca9df16" x="307.590638" y="129.600556" style="fill: #1f77b4; stroke: #1f77b4"/>
  <use xlink:href="#mbd1ca9df16" x="329.934769" y="91.302259" style="fill: red; stroke: red"/>
  <use xlink:href="#mbd1ca9df16" x="373.581818" y="133.08997" style="fill: #1f77b4; stroke: #1f77b4"/>
  <use xlink:href="#mbd1ca9df16" x="293.320894" y="44.64" style="fill: red; stroke: red"/>
  <use xlink:href="#mbd1ca9df16" x="346.253799" y="125.549597" style="fill: #1f77b4; stroke: #1f77b4"/>
 </g>
</svg>