```xml
<?xml version="1.0" standalone="no"?>
<!DOCTYPE svg PUBLIC "-//W3C//DTD SVG 1.1//EN" "http://www.w3.org/Graphics/SVG/1.1/DTD/svg11.dtd">
<svg width="432pt" height="288pt" viewBox="0 0 432 288" xmlns="http://www.w3.org/2000/svg" version="1.1">
  <defs>
    <style type="text/css">*{stroke-linejoin:round;stroke-linecap:butt;}</style>
  </defs>
  <g>
    <defs>
      <path id="circle" d="M 0 3 C 0.795609 3 1.55874 2.683901 2.12132 2.12132 C 2.683901 1.55874 3 0.795609 3 0 C 3 -0.795609 2.683901 -1.55874 2.12132 -2.12132 C 1.55874 -2.683901 0.795609 -3 0 -3 C -0.795609 -3 -1.55874 -2.683901 -2.12132 -2.12132 C -2.683901 -1.55874 -3 -0.795609 -3 0 C -3 0.795609 -2.683901 1.55874 -2.12132 2.12132 C -1.55874 2.683901 -0.795609 3 0 3 Z" style="stroke: #1f77b4; stroke-opacity: 0.6"/>
    </defs>
    <use xlink:href="#circle" x="85.575799" y="57.257335" style="fill: #1f77b4; fill-opacity: 0.6; stroke: #1f77b4; stroke-opacity: 0.6"/>
    <use xlink:href="#circle" x="86.743254" y="108.278936" style="fill: #1f77b4; fill-opacity: 0.6; stroke: #1f77b4; stroke-opacity: 0.6"/>
    <use xlink:href="#circle" x="86.402678" y="141.75485" style="fill: #1f77b4; fill-opacity: 0.6; stroke: #1f77b4; stroke-opacity: 0.6"/>
    <use xlink:href="#circle" x="90.995" y="44.64" style="fill: #1f77b4; fill-opacity: 0.6; stroke: #1f77b4; stroke-opacity: 0.6"/>
    <use xlink:href="#circle" x="91.391488" y="102.746695" style="fill: #1f77b4; fill-opacity: 0.6; stroke: #1f77b4; stroke-opacity: 0.6"/>
    <use xlink:href="#circle" x="94.791888" y="158.589235" style="fill: #1f77b4; fill-opacity: 0.6; stroke: #1f77b4; stroke-opacity: 0.6"/>
    <use xlink:href="#circle" x="80.165901" y="101.782403" style="fill: #1f77b4; fill-opacity: 0.6; stroke: #1f77b4; stroke-opacity: 0.6"/>
    <use xlink:href="#circle" x="90.189123" y="75.491076" style="fill: #1f77b4; fill-opacity: 0.6; stroke: #1f77b4; stroke-opacity: 0.6"/>
    <use xlink:href="#circle" x="69.218182" y="57.151583" style="fill: #1f77b4; fill-opacity: 0.6; stroke: #1f77b4; stroke-opacity: 0.6"/>
    <use xlink:href="#circle" x="73.726513" y="140.608076" style="fill: #1f77b4; fill-opacity: 0.6; stroke: #1f77b4; stroke-opacity: 0.6"/>
    <use xlink:href="#circle" x="212.814852" y="157.562535" style="fill: #1f77b4; fill-opacity: 0.6; stroke: #1f77b4; stroke-opacity: 0.6"/>
    <use xlink:href="#circle" x="189.648454" y="191.604578" style="fill: #1f77b4; fill-opacity: 0.6; stroke: #1f77b4; stroke-opacity: 0.6"/>
    <use xlink:href="#circle" x="207.002689" y="182.348587" style="fill: #1f77b4; fill-opacity: 0.6; stroke: #1f77b4; stroke-opacity: 0.6"/>
    <use xlink:href="#circle" x="196.241809" y="136.900836" style="fill: #1f77b4; fill-opacity: 0.6; stroke: #1f77b4; stroke-opacity: 0.6"/>
    <use xlink:href="#circle" x="210.540604" y="246.24" style="fill: #1f77b4; fill-opacity: 0.6; stroke: #1f77b4; stroke-opacity: 0.6"/>
    <use xlink:href="#circle" x="198.250965" y="172.901995" style="fill: #1f77b4; fill-opacity: 0.6; stroke: #1f77b4; stroke-opacity: 0.6"/>
    <use xlink:href="#circle" x="216.285356" y="161.805406" style="fill: #1f77b4; fill-opacity: 0.6; stroke: #1f77b4; stroke-opacity: 0.6"/>
    <use xlink:href="#circle" x="209.76821" y="189.535735" style="fill: #1f77b4; fill-opacity: 0.6; stroke: #1f77b4; stroke-opacity: 0.6"/>
    <use xlink:href="#circle" x="202.190359" y="133.453135" style="fill: #1f77b4; fill-opacity: 0.6; stroke: #1f77b4; stroke-opacity: 0.6"/>
    <use xlink:href="#circle" x="184.167541" y="154.30678" style="fill: #1f77b4; fill-opacity: 0.6; stroke: #1f77b4; stroke-opacity: 0.6"/>
    <use xlink:href="#circle" x="373.581818" y="177.694318" style="fill: #1f77b4; fill-opacity: 0.6; stroke: #1f77b4; stroke-opacity: 0.6"/>
    <!-- Fitted Line -->
    <line x1="69.218182" y1="57.151583" x2="373.581818" y2="177.694318" style="stroke: #ff7f0e; stroke-width:2"/>
  </g>
</svg>