```xml
<?xml version="1.0" encoding="UTF-8" standalone="no"?>
<svg xmlns="http://www.w3.org/2000/svg" width="432pt" height="288pt" viewBox="0 0 432 288" version="1.1">
  <g>
    <circle cx="188.265894" cy="200.810472" r="3" style="fill: #1f77b4;"/>
    <circle cx="197.094247" cy="203.701841" r="3" style="fill: #1f77b4;"/>
    <circle cx="176.869696" cy="232.44701" r="3" style="fill: #1f77b4;"/>
    <circle cx="180.077693" cy="244.014744" r="3" style="fill: #1f77b4;"/>
    <circle cx="209.604058" cy="192.781155" r="3" style="fill: #1f77b4;"/>
    <circle cx="208.975132" cy="237.684593" r="3" style="fill: #1f77b4;"/>
    <circle cx="186.365276" cy="210.716266" r="3" style="fill: #1f77b4;"/>
    <circle cx="159.292624" cy="221.786417" r="3" style="fill: #1f77b4;"/>
    <circle cx="214.260275" cy="226.377487" r="3" style="fill: #1f77b4;"/>
    <circle cx="211.455709" cy="205.422078" r="3" style="fill: #1f77b4;"/>
    <circle cx="350.680023" cy="213.041459" r="3" style="fill: #1f77b4;"/>
    <circle cx="340.398841" cy="227.910871" r="3" style="fill: #1f77b4;"/>
    <circle cx="359.107561" cy="222.262551" r="3" style="fill: #1f77b4;"/>
    <circle cx="324.3585" cy="246.24" r="3" style="fill: #1f77b4;"/>
    <circle cx="363.308079" cy="230.225841" r="3" style="fill: #1f77b4;"/>
    <circle cx="325.650174" cy="232.825423" r="3" style="fill: #1f77b4;"/>
    <circle cx="365.331852" cy="217.06022" r="3" style="fill: #1f77b4;"/>
    <circle cx="371.309016" cy="216.276265" r="3" style="fill: #1f77b4;"/>
    <circle cx="370.249181" cy="199.611949" r="3" style="fill: #1f77b4;"/>
    <circle cx="373.581818" cy="234.508913" r="3" style="fill: #1f77b4;"/>
    <circle cx="69.218182" cy="44.64" r="3" style="fill: #1f77b4;"/>
    <!-- Fitted line using linear regression (example line, adjust according to actual regression results) -->
    <line x1="54" y1="50" x2="388.8" y2="250" style="stroke: #ff0000; stroke-width:2"/>
  </g>
</svg>