<?xml version="1.0" encoding="utf-8"?>
<svg xmlns:xlink="http://www.w3.org/1999/xlink" width="432pt" height="288pt" viewBox="0 0 432 288" xmlns="http://www.w3.org/2000/svg" version="1.1">
 <defs>
  <style type="text/css">*{stroke-linejoin: round; stroke-linecap: butt}</style>
  <path id="mc1097f5e9a" d="M 0 3 
C 0.795609 3 1.55874 2.683901 2.12132 2.12132 
C 2.683901 1.55874 3 0.795609 3 0 
C 3 -0.795609 2.683901 -1.55874 2.12132 -2.12132 
C 1.55874 -2.683901 0.795609 -3 0 -3 
C -0.795609 -3 -1.55874 -2.683901 -2.12132 -2.12132 
C -2.683901 -1.55874 -3 -0.795609 -3 0 
C -3 0.795609 -2.683901 1.55874 -2.12132 2.12132 
C -1.55874 2.683901 -0.795609 3 0 3 
z
" style="stroke: #1f77b4; stroke-opacity: 0.6"/>
 </defs>
 <g>
  <use xlink:href="#mc1097f5e9a" x="113.445577" y="46.304291" style="fill: #1f77b4; fill-opacity: 0.6; stroke: #1f77b4; stroke-opacity: 0.6"/>
  <use xlink:href="#mc1097f5e9a" x="120.780959" y="44.64" style="fill: #1f77b4; fill-opacity: 0.6; stroke: #1f77b4; stroke-opacity: 0.6"/>
  <use xlink:href="#mc1097f5e9a" x="108.989845" y="65.459718" style="fill: #1f77b4; fill-opacity: 0.6; stroke: #1f77b4; stroke-opacity: 0.6"/>
  <use xlink:href="#mc1097f5e9a" x="113.244676" y="79.46795" style="fill: #1f77b4; fill-opacity: 0.6; stroke: #1f77b4; stroke-opacity: 0.6"/>
  <use xlink:href="#mc1097f5e9a" x="115.327756" y="99.247732" style="fill: #1f77b4; fill-opacity: 0.6; stroke: #1f77b4; stroke-opacity: 0.6"/>
  <use xlink:href="#mc1097f5e9a" x="103.134949" y="63.638925" style="fill: #1f77b4; fill-opacity: 0.6; stroke: #1f77b4; stroke-opacity: 0.6"/>
  <use xlink:href="#mc1097f5e9a" x="109.876143" y="69.187473" style="fill: #1f77b4; fill-opacity: 0.6; stroke: #1f77b4; stroke-opacity: 0.6"/>
  <use xlink:href="#mc1097f5e9a" x="117.343775" y="79.887482" style="fill: #1f77b4; fill-opacity: 0.6; stroke: #1f77b4; stroke-opacity: 0.6"/>
  <use xlink:href="#mc1097f5e9a" x="136.700497" y="67.237084" style="fill: #1f77b4; fill-opacity: 0.6; stroke: #1f77b4; stroke-opacity: 0.6"/>
  <use xlink:href="#mc1097f5e9a" x="69.218182" y="81.556603" style="fill: #1f77b4; fill-opacity: 0.6; stroke: #1f77b4; stroke-opacity: 0.6"/>
  <use xlink:href="#mc1097f5e9a" x="361.147773" y="147.985224" style="fill: #1f77b4; fill-opacity: 0.6; stroke: #1f77b4; stroke-opacity: 0.6"/>
  <use xlink:href="#mc1097f5e9a" x="318.968921" y="122.630042" style="fill: #1f77b4; fill-opacity: 0.6; stroke: #1f77b4; stroke-opacity: 0.6"/>
  <use xlink:href="#mc1097f5e9a" x="341.06443" y="131.996759" style="fill: #1f77b4; fill-opacity: 0.6; stroke: #1f77b4; stroke-opacity: 0.6"/>
  <use xlink:href="#mc1097f5e9a" x="364.386411" y="162.58107" style="fill: #1f77b4; fill-opacity: 0.6; stroke: #1f77b4; stroke-opacity: 0.6"/>
  <use xlink:href="#mc1097f5e9a" x="322.407547" y="114.948516" style="fill: #1f77b4; fill-opacity: 0.6; stroke: #1f77b4; stroke-opacity: 0.6"/>
  <use xlink:href="#mc1097f5e9a" x="359.029029" y="97.364674" style="fill: #1f77b4; fill-opacity: 0.6; stroke: #1f77b4; stroke-opacity: 0.6"/>
  <use xlink:href="#mc1097f5e9a" x="373.581818" y="158.248002" style="fill: #1f77b4; fill-opacity: 0.6; stroke: #1f77b4; stroke-opacity: 0.6"/>
  <use xlink:href="#mc1097f5e9a" x="333.97166" y="151.638391" style="fill: #1f77b4; fill-opacity: 0.6; stroke: #1f77b4; stroke-opacity: 0.6"/>
  <use xlink:href="#mc1097f5e9a" x="352.600939" y="150.075181" style="fill: #1f77b4; fill-opacity: 0.6; stroke: #1f77b4; stroke-opacity: 0.6"/>
  <use xlink:href="#mc1097f5e9a" x="315.050528" y="133.467465" style="fill: #1f77b4; fill-opacity: 0.6; stroke: #1f77b4; stroke-opacity: 0.6"/>
  <use xlink:href="#mc1097f5e9a" x="363.959155" y="246.24" style="fill: #1f77b4; fill-opacity: 0.6; stroke: #1f77b4; stroke-opacity: 0.6"/>
  <!-- Fitted line using linear regression on the provided points -->
  <line x1="54" y1="60" x2="388.8" y2="210" style="stroke: #ff0000; stroke-width: 2"/>
 </g>
</svg>