<?xml version="1.0" encoding="utf-8"?>
<svg xmlns:xlink="http://www.w3.org/1999/xlink" width="432pt" height="288pt" viewBox="0 0 432 288" xmlns="http://www.w3.org/2000/svg" version="1.1">
 <defs>
  <path id="m813cb87cde" d="M 0 3 
C 0.795609 3 1.55874 2.683901 2.12132 2.12132 
C 2.683901 1.55874 3 0.795609 3 0 
C 3 -0.795609 2.683901 -1.55874 2.12132 -2.12132 
C 1.55874 -2.683901 0.795609 -3 0 -3 
C -0.795609 -3 -1.55874 -2.683901 -2.12132 -2.12132 
C -2.683901 -1.55874 -3 -0.795609 -3 0 
C -3 0.795609 -2.683901 1.55874 -2.12132 2.12132 
C -1.55874 2.683901 -0.795609 3 0 3 
z"/>
 </defs>
 <g>
  <use xlink:href="#m813cb87cde" x="87.333465" y="205.882919" style="fill: #1f77b4; stroke: #1f77b4"/>
  <use xlink:href="#m813cb87cde" x="85.726923" y="200.028946" style="fill: #1f77b4; stroke: #1f77b4"/>
  <use xlink:href="#m813cb87cde" x="83.065841" y="152.921342" style="fill: #1f77b4; stroke: #1f77b4"/>
  <use xlink:href="#m813cb87cde" x="69.218182" y="161.977985" style="fill: #1f77b4; stroke: #1f77b4"/>
  <use xlink:href="#m813cb87cde" x="74.425634" y="246.24" style="fill: red; stroke: red"/>
  <use xlink:href="#m813cb87cde" x="70.314491" y="244.78998" style="fill: red; stroke: red"/>
  <use xlink:href="#m813cb87cde" x="87.69581" y="194.201878" style="fill: #1f77b4; stroke: #1f77b4"/>
  <use xlink:href="#m813cb87cde" x="69.397643" y="228.617008" style="fill: #1f77b4; stroke: #1f77b4"/>
  <use xlink:href="#m813cb87cde" x="83.472299" y="184.481961" style="fill: #1f77b4; stroke: #1f77b4"/>
  <use xlink:href="#m813cb87cde" x="71.410225" y="162.085548" style="fill: #1f77b4; stroke: #1f77b4"/>
  <use xlink:href="#m813cb87cde" x="208.806668" y="132.898196" style="fill: #1f77b4; stroke: #1f77b4"/>
  <use xlink:href="#m813cb87cde" x="225.058152" y="127.460101" style="fill: #1f77b4; stroke: #1f77b4"/>
  <use xlink:href="#m813cb87cde" x="221.512042" y="100.342867" style="fill: #1f77b4; stroke: #1f77b4"/>
  <use xlink:href="#m813cb87cde" x="200.795245" y="159.066778" style="fill: #1f77b4; stroke: #1f77b4"/>
  <use xlink:href="#m813cb87cde" x="214.255773" y="58.014458" style="fill: #1f77b4; stroke: #1f77b4"/>
  <use xlink:href="#m813cb87cde" x="207.230415" y="172.236708" style="fill: #1f77b4; stroke: #1f77b4"/>
  <use xlink:href="#m813cb87cde" x="235.786464" y="44.64" style="fill: #1f77b4; stroke: #1f77b4"/>
  <use xlink:href="#m813cb87cde" x="218.678527" y="124.734048" style="fill: #1f77b4; stroke: #1f77b4"/>
  <use xlink:href="#m813cb87cde" x="189.518081" y="178.449525" style="fill: #1f77b4; stroke: #1f77b4"/>
  <use xlink:href="#m813cb87cde" x="208.505636" y="155.480138" style="fill: #1f77b4; stroke: #1f77b4"/>
  <use xlink:href="#m813cb87cde" x="373.581818" y="170.598029" style="fill: #1f77b4; stroke: #1f77b4"/>
 </g>
</svg>