<?xml version="1.0" encoding="utf-8"?>
<svg xmlns:xlink="http://www.w3.org/1999/xlink" width="432pt" height="288pt" viewBox="0 0 432 288" xmlns="http://www.w3.org/2000/svg" version="1.1">
 <defs>
  <style type="text/css">*{stroke-linejoin: round; stroke-linecap: butt}</style>
  <path id="m5d3b0faf80" d="M 0 3 
C 0.795609 3 1.55874 2.683901 2.12132 2.12132 
C 2.683901 1.55874 3 0.795609 3 0 
C 3 -0.795609 2.683901 -1.55874 2.12132 -2.12132 
C 1.55874 -2.683901 0.795609 -3 0 -3 
C -0.795609 -3 -1.55874 -2.683901 -2.12132 -2.12132 
C -2.683901 -1.55874 -3 -0.795609 -3 0 
C -3 0.795609 -2.683901 1.55874 -2.12132 2.12132 
C -1.55874 2.683901 -0.795609 3 0 3 
z"/>
 </defs>
 <g>
  <use xlink:href="#m5d3b0faf80" x="69.218182" y="246.24" style="fill: red; fill-opacity: 0.6; stroke: red; stroke-opacity: 0.6"/>
  <use xlink:href="#m5d3b0faf80" x="329.495266" y="44.64" style="fill: red; fill-opacity: 0.6; stroke: red; stroke-opacity: 0.6"/>
  <use xlink:href="#m5d3b0faf80" x="164.46252" y="163.211249" style="fill: #1f77b4; fill-opacity: 0.6; stroke: #1f77b4; stroke-opacity: 0.6"/>
  <use xlink:href="#m5d3b0faf80" x="182.258716" y="214.321908" style="fill: #1f77b4; fill-opacity: 0.6; stroke: #1f77b4; stroke-opacity: 0.6"/>
  <use xlink:href="#m5d3b0faf80" x="178.327586" y="173.7831" style="fill: #1f77b4; fill-opacity: 0.6; stroke: #1f77b4; stroke-opacity: 0.6"/>
  <use xlink:href="#m5d3b0faf80" x="182.589958" y="205.527454" style="fill: #1f77b4; fill-opacity: 0.6; stroke: #1f77b4; stroke-opacity: 0.6"/>
  <use xlink:href="#m5d3b0faf80" x="169.030492" y="186.3646" style="fill: #1f77b4; fill-opacity: 0.6; stroke: #1f77b4; stroke-opacity: 0.6"/>
  <use xlink:href="#m5d3b0faf80" x="143.248179" y="229.115261" style="fill: #1f77b4; fill-opacity: 0.6; stroke: #1f77b4; stroke-opacity: 0.6"/>
  <use xlink:href="#m5d3b0faf80" x="184.305163" y="155.500435" style="fill: #1f77b4; fill-opacity: 0.6; stroke: #1f77b4; stroke-opacity: 0.6"/>
  <use xlink:href="#m5d3b0faf80" x="181.13069" y="169.902104" style="fill: #1f77b4; fill-opacity: 0.6; stroke: #1f77b4; stroke-opacity: 0.6"/>
  <use xlink:href="#m5d3b0faf80" x="181.981924" y="184.566503" style="fill: #1f77b4; fill-opacity: 0.6; stroke: #1f77b4; stroke-opacity: 0.6"/>
  <use xlink:href="#m5d3b0faf80" x="184.958606" y="131.823024" style="fill: #1f77b4; fill-opacity: 0.6; stroke: #1f77b4; stroke-opacity: 0.6"/>
  <use xlink:href="#m5d3b0faf80" x="354.522075" y="106.220338" style="fill: #1f77b4; fill-opacity: 0.6; stroke: #1f77b4; stroke-opacity: 0.6"/>
  <use xlink:href="#m5d3b0faf80" x="348.55857" y="159.106507" style="fill: #1f77b4; fill-opacity: 0.6; stroke: #1f77b4; stroke-opacity: 0.6"/>
  <use xlink:href="#m5d3b0faf80" x="363.944944" y="97.388759" style="fill: #1f77b4; fill-opacity: 0.6; stroke: #1f77b4; stroke-opacity: 0.6"/>
  <use xlink:href="#m5d3b0faf80" x="320.201364" y="98.473109" style="fill: #1f77b4; fill-opacity: 0.6; stroke: #1f77b4; stroke-opacity: 0.6"/>
  <use xlink:href="#m5d3b0faf80" x="356.914435" y="102.305066" style="fill: #1f77b4; fill-opacity: 0.6; stroke: #1f77b4; stroke-opacity: 0.6"/>
  <use xlink:href="#m5d3b0faf80" x="335.960997" y="129.500604" style="fill: #1f77b4; fill-opacity: 0.6; stroke: #1f77b4; stroke-opacity: 0.6"/>
  <use xlink:href="#m5d3b0faf80" x="349.909303" y="99.77915" style="fill: #1f77b4; fill-opacity: 0.6; stroke: #1f77b4; stroke-opacity: 0.6"/>
  <use xlink:href="#m5d3b0faf80" x="373.581818" y="97.794442" style="fill: #1f77b4; fill-opacity: 0.6; stroke: #1f77b4; stroke-opacity: 0.6"/>
  <use xlink:href="#m5d3b0faf80" x="335.499502" y="106.692001" style="fill: #1f77b4; fill-opacity: 0.6; stroke: #1f77b4; stroke-opacity: 0.6"/>
 </g>
</svg>