<?xml version="1.0" standalone="no"?>
<!DOCTYPE svg PUBLIC "-//W3C//DTD SVG 20010904//EN"
 "http://www.w3.org/TR/2001/REC-SVG-20010904/DTD/svg10.dtd">
<svg version="1.0" xmlns="http://www.w3.org/2000/svg"
 width="432pt" height="288pt" viewBox="0 0 432 288">
<g transform="translate(0,288) scale(0.1,-0.1)" fill="#000000" stroke="none">
    <!-- Points with default color -->
    <circle cx="92.188862" cy="180.196533" r="30" fill="#1f77b4"/>
    <circle cx="77.681242" cy="200.228736" r="30" fill="#1f77b4"/>
    <circle cx="97.471266" cy="197.392752" r="30" fill="#1f77b4"/>
    <circle cx="72.253569" cy="187.628117" r="30" fill="#1f77b4"/>
    <circle cx="95.335491" cy="190.383339" r="30" fill="#1f77b4"/>
    <circle cx="90.576291" cy="158.838633" r="30" fill="#1f77b4"/>
    <circle cx="89.065534" cy="179.053636" r="30" fill="#1f77b4"/>
    <circle cx="339.467161" cy="80.20599" r="30" fill="#1f77b4"/>
    <circle cx="310.390777" cy="60.647896" r="30" fill="#1f77b4"/>
    <circle cx="322.776983" cy="47.676097" r="30" fill="#1f77b4"/>
    <circle cx="293.032504" cy="108.004872" r="30" fill="#1f77b4"/>
    <circle cx="313.215706" cy="79.666456" r="30" fill="#1f77b4"/>
    <circle cx="328.306916" cy="53.023211" r="30" fill="#1f77b4"/>
    <circle cx="284.878116" cy="44.64" r="30" fill="#1f77b4"/>
    <circle cx="310.93279" cy="67.519995" r="30" fill="#1f77b4"/>
    <circle cx="300.174958" cy="116.833421" r="30" fill="#1f77b4"/>
    <circle cx="285.696316" cy="75.171981" r="30" fill="#1f77b4"/>
    <circle cx="373.581818" cy="59.918743" r="30" fill="#1f77b4"/>

    <!-- Extremum points with different color -->
    <circle cx="69.218182" cy="240.250927" r="30" fill="red"/> <!-- Highest Y -->
    <circle cx="106.499134" cy="211.981645" r="30" fill="red"/> <!-- Lowest Y -->
</g>
</svg>