<?xml version="1.0" encoding="utf-8"?>
<svg xmlns:xlink="http://www.w3.org/1999/xlink" width="432pt" height="288pt" viewBox="0 0 432 288" xmlns="http://www.w3.org/2000/svg" version="1.1">
 <g>
    <defs>
     <path id="mea3a15f928" d="M 0 3 
C 0.795609 3 1.55874 2.683901 2.12132 2.12132 
C 2.683901 1.55874 3 0.795609 3 0 
C 3 -0.795609 2.683901 -1.55874 2.12132 -2.12132 
C 1.55874 -2.683901 0.795609 -3 0 -3 
C -0.795609 -3 -1.55874 -2.683901 -2.12132 -2.12132 
C -2.683901 -1.55874 -3 -0.795609 -3 0 
C -3 0.795609 -2.683901 1.55874 -2.12132 2.12132 
C -1.55874 2.683901 -0.795609 3 0 3 
z"/>
    </defs>
    <use xlink:href="#mea3a15f928" x="93.026155" y="159.998051" style="fill: #1f77b4; stroke: #1f77b4"/>
    <use xlink:href="#mea3a15f928" x="108.836485" y="89.180536" style="fill: #1f77b4; stroke: #1f77b4"/>
    <use xlink:href="#mea3a15f928" x="114.28243" y="98.125591" style="fill: #1f77b4; stroke: #1f77b4"/>
    <use xlink:href="#mea3a15f928" x="111.448894" y="152.837847" style="fill: #1f77b4; stroke: #1f77b4"/>
    <use xlink:href="#mea3a15f928" x="77.233632" y="131.918483" style="fill: #1f77b4; stroke: #1f77b4"/>
    <use xlink:href="#mea3a15f928" x="94.24105" y="182.99792" style="fill: red; stroke: red"/>
    <use xlink:href="#mea3a15f928" x="92.165048" y="91.0163" style="fill: #1f77b4; stroke: #1f77b4"/>
    <use xlink:href="#mea3a15f928" x="90.336624" y="230.090363" style="fill: red; stroke: red"/>
    <use xlink:href="#mea3a15f928" x="69.218182" y="168.295765" style="fill: #1f77b4; stroke: #1f77b4"/>
    <use xlink:href="#mea3a15f928" x="91.403544" y="44.64" style="fill: #1f77b4; stroke: #1f77b4"/>
    <use xlink:href="#mea3a15f928" x="221.22026" y="131.182681" style="fill: #1f77b4; stroke: #1f77b4"/>
    <use xlink:href="#mea3a15f928" x="211.320567" y="146.523707" style="fill: #1f77b4; stroke: #1f77b4"/>
    <use xlink:href="#mea3a15f928" x="222.431622" y="246.24" style="fill: #1f77b4; stroke: #1f77b4"/>
    <use xlink:href="#mea3a15f928" x="220.509977" y="141.019453" style="fill: #1f77b4; stroke: #1f77b4"/>
    <use xlink:href="#mea3a15f928" x="216.222446" y="160.912516" style="fill: #1f77b4; stroke: #1f77b4"/>
    <use xlink:href="#mea3a15f928" x="208.746583" y="100.841747" style="fill: #1f77b4; stroke: #1f77b4"/>
    <use xlink:href="#mea3a15f928" x="232.859497" y="211.127305" style="fill: #1f77b4; stroke: #1f77b4"/>
    <use xlink:href="#mea3a15f928" x="242.992988" y="126.006414" style="fill: #1f77b4; stroke: #1f77b4"/>
    <use xlink:href="#mea3a15f928" x="230.288384" y="145.414176" style="fill: #1f77b4; stroke: #1f77b4"/>
    <use xlink:href="#mea3a15f928" x="213.205265" y="108.303873" style="fill: #1f77b4; stroke: #1f77b4"/>
    <use xlink:href="#mea3a15f928" x="373.581818" y="95.816042" style="fill: #1f77b4; stroke: #1f77b4"/>
 </g>
</svg>