<?xml version="1.0" encoding="utf-8"?>
<svg xmlns:xlink="http://www.w3.org/1999/xlink" width="432pt" height="288pt" viewBox="0 0 432 288" xmlns="http://www.w3.org/2000/svg" version="1.1">
 <g>
    <defs>
     <path id="mb58991a776" d="M 0 3 
C 0.795609 3 1.55874 2.683901 2.12132 2.12132 
C 2.683901 1.55874 3 0.795609 3 0 
C 3 -0.795609 2.683901 -1.55874 2.12132 -2.12132 
C 1.55874 -2.683901 0.795609 -3 0 -3 
C -0.795609 -3 -1.55874 -2.683901 -2.12132 -2.12132 
C -2.683901 -1.55874 -3 -0.795609 -3 0 
C -3 0.795609 -2.683901 1.55874 -2.12132 2.12132 
C -1.55874 2.683901 -0.795609 3 0 3 
z"/>
    </defs>
    <g>
     <use xlink:href="#mb58991a776" x="104.452344" y="142.182001" style="fill: #1f77b4;"/>
     <use xlink:href="#mb58991a776" x="120.392653" y="131.093612" style="fill: #1f77b4;"/>
     <use xlink:href="#mb58991a776" x="83.425759" y="172.2948" style="fill: #1f77b4;"/>
     <use xlink:href="#mb58991a776" x="69.218182" y="169.752344" style="fill: #1f77b4;"/>
     <use xlink:href="#mb58991a776" x="132.411558" y="130.361389" style="fill: #1f77b4;"/>
     <use xlink:href="#mb58991a776" x="128.487995" y="151.610997" style="fill: #1f77b4;"/>
     <use xlink:href="#mb58991a776" x="109.430757" y="147.464371" style="fill: #1f77b4;"/>
     <use xlink:href="#mb58991a776" x="123.590473" y="166.563625" style="fill: #1f77b4;"/>
     <use xlink:href="#mb58991a776" x="152.114269" y="126.900751" style="fill: #1f77b4;"/>
     <use xlink:href="#mb58991a776" x="105.517872" y="144.239337" style="fill: #1f77b4;"/>
     <use xlink:href="#mb58991a776" x="348.093257" y="83.726464" style="fill: #1f77b4;"/>
     <use xlink:href="#mb58991a776" x="333.524205" y="77.558085" style="fill: #1f77b4;"/>
     <use xlink:href="#mb58991a776" x="355.803454" y="114.547856" style="fill: #1f77b4;"/>
     <use xlink:href="#mb58991a776" x="331.923256" y="76.057639" style="fill: #1f77b4;"/>
     <use xlink:href="#mb58991a776" x="355.766803" y="90.274" style="fill: #1f77b4;"/>
     <use xlink:href="#mb58991a776" x="373.581818" y="84.550833" style="fill: #1f77b4;"/>
     <use xlink:href="#mb58991a776" x="352.104426" y="44.64" style="fill: #ff0000;"/> <!-- Min Y -->
     <use xlink:href="#mb58991a776" x="345.346108" y="56.815649" style="fill: #1f77b4;"/>
     <use xlink:href="#mb58991a776" x="369.893054" y="87.098021" style="fill: #1f77b4;"/>
     <use xlink:href="#mb58991a776" x="339.807893" y="81.912528" style="fill: #1f77b4;"/>
     <use xlink:href="#mb58991a776" x="180.910355" y="246.24" style="fill: #ff0000;"/> <!-- Max Y -->
    </g>
 </g>
</svg>