<?xml version="1.0" encoding="utf-8"?>
<svg xmlns:xlink="http://www.w3.org/1999/xlink" width="432pt" height="288pt" viewBox="0 0 432 288" xmlns="http://www.w3.org/2000/svg" version="1.1">
 <defs>
  <path id="circle" d="M 0 3 
C 0.795609 3 1.55874 2.683901 2.12132 2.12132 
C 2.683901 1.55874 3 0.795609 3 0 
C 3 -0.795609 2.683901 -1.55874 2.12132 -2.12132 
C 1.55874 -2.683901 0.795609 -3 0 -3 
C -0.795609 -3 -1.55874 -2.683901 -2.12132 -2.12132 
C -2.683901 -1.55874 -3 -0.795609 -3 0 
C -3 0.795609 -2.683901 1.55874 -2.12132 2.12132 
C -1.55874 2.683901 -0.795609 3 0 3 
z" />
 </defs>
 <g>
  <use xlink:href="#circle" x="197.408495" y="44.64" style="fill: red; stroke: red;"/>
  <use xlink:href="#circle" x="92.459623" y="246.24" style="fill: red; stroke: red;"/>
  <use xlink:href="#circle" x="84.752154" y="229.060094" style="fill: blue; stroke: blue;"/>
  <use xlink:href="#circle" x="80.475882" y="230.899142" style="fill: blue; stroke: blue;"/>
  <use xlink:href="#circle" x="85.115522" y="233.351534" style="fill: blue; stroke: blue;"/>
  <use xlink:href="#circle" x="80.046268" y="182.55576" style="fill: blue; stroke: blue;"/>
  <use xlink:href="#circle" x="112.94094" y="240.324711" style="fill: blue; stroke: blue;"/>
  <use xlink:href="#circle" x="69.218182" y="200.687256" style="fill: blue; stroke: blue;"/>
  <use xlink:href="#circle" x="91.768258" y="231.970326" style="fill: blue; stroke: blue;"/>
  <use xlink:href="#circle" x="130.969093" y="236.557539" style="fill: blue; stroke: blue;"/>
  <use xlink:href="#circle" x="86.394065" y="163.400088" style="fill: blue; stroke: blue;"/>
  <use xlink:href="#circle" x="373.581818" y="132.155042" style="fill: blue; stroke: blue;"/>
  <use xlink:href="#circle" x="314.3782" y="193.21663" style="fill: blue; stroke: blue;"/>
  <use xlink:href="#circle" x="356.24526" y="115.491219" style="fill: blue; stroke: blue;"/>
  <use xlink:href="#circle" x="314.262407" y="178.362117" style="fill: blue; stroke: blue;"/>
  <use xlink:href="#circle" x="335.790911" y="140.869847" style="fill: blue; stroke: blue;"/>
  <use xlink:href="#circle" x="309.36396" y="203.272784" style="fill: blue; stroke: blue;"/>
  <use xlink:href="#circle" x="348.553993" y="196.7381" style="fill: blue; stroke: blue;"/>
  <use xlink:href="#circle" x="322.592375" y="183.028609" style="fill: blue; stroke: blue;"/>
  <use xlink:href="#circle" x="344.668069" y="172.885153" style="fill: blue; stroke: blue;"/>
  <use xlink:href="#circle" x="356.140271" y="208.164124" style="fill: blue; stroke: blue;"/>
 </g>
</svg>