<?xml version="1.0" encoding="utf-8"?>
<svg xmlns:xlink="http://www.w3.org/1999/xlink" width="432pt" height="288pt" viewBox="0 0 432 288" xmlns="http://www.w3.org/2000/svg" version="1.1">
 <g>
    <defs>
     <path id="m2d83f01245" d="M 0 3 
C 0.795609 3 1.55874 2.683901 2.12132 2.12132 
C 2.683901 1.55874 3 0.795609 3 0 
C 3 -0.795609 2.683901 -1.55874 2.12132 -2.12132 
C 1.55874 -2.683901 0.795609 -3 0 -3 
C -0.795609 -3 -1.55874 -2.683901 -2.12132 -2.12132 
C -2.683901 -1.55874 -3 -0.795609 -3 0 
C -3 0.795609 -2.683901 1.55874 -2.12132 2.12132 
C -1.55874 2.683901 -0.795609 3 0 3 
z
" style="stroke: #1f77b4; stroke-opacity: 0.6"/>
    </defs>
    <use xlink:href="#m2d83f01245" x="100.999074" y="95.70526" style="fill: #1f77b4; fill-opacity: 0.6; stroke: #1f77b4; stroke-opacity: 0.6"/>
    <use xlink:href="#m2d83f01245" x="137.446176" y="64.802153" style="fill: #1f77b4; fill-opacity: 0.6; stroke: #1f77b4; stroke-opacity: 0.6"/>
    <use xlink:href="#m2d83f01245" x="114.913638" y="180.401534" style="fill: red; fill-opacity: 0.6; stroke: red; stroke-opacity: 0.6"/>
    <use xlink:href="#m2d83f01245" x="122.959743" y="122.049965" style="fill: #1f77b4; fill-opacity: 0.6; stroke: #1f77b4; stroke-opacity: 0.6"/>
    <use xlink:href="#m2d83f01245" x="91.623604" y="152.842288" style="fill: #1f77b4; fill-opacity: 0.6; stroke: #1f77b4; stroke-opacity: 0.6"/>
    <use xlink:href="#m2d83f01245" x="69.218182" y="141.323025" style="fill: #1f77b4; fill-opacity: 0.6; stroke: #1f77b4; stroke-opacity: 0.6"/>
    <use xlink:href="#m2d83f01245" x="70.668931" y="44.64" style="fill: #1f77b4; fill-opacity: 0.6; stroke: #1f77b4; stroke-opacity: 0.6"/>
    <use xlink:href="#m2d83f01245" x="113.18688" y="246.24" style="fill: red; fill-opacity: 0.6; stroke: red; stroke-opacity: 0.6"/>
    <use xlink:href="#m2d83f01245" x="104.149802" y="93.326384" style="fill: #1f77b4; fill-opacity: 0.6; stroke: #1f77b4; stroke-opacity: 0.6"/>
    <use xlink:href="#m2d83f01245" x="92.030371" y="138.013287" style="fill: #1f77b4; fill-opacity: 0.6; stroke: #1f77b4; stroke-opacity: 0.6"/>
    <use xlink:href="#m2d83f01245" x="331.353371" y="85.183081" style="fill: #1f77b4; fill-opacity: 0.6; stroke: #1f77b4; stroke-opacity: 0.6"/>
    <use xlink:href="#m2d83f01245" x="355.982463" y="194.556675" style="fill: #1f77b4; fill-opacity: 0.6; stroke: #1f77b4; stroke-opacity: 0.6"/>
    <use xlink:href="#m2d83f01245" x="313.377233" y="218.024285" style="fill: #1f77b4; fill-opacity: 0.6; stroke: #1f77b4; stroke-opacity: 0.6"/>
    <use xlink:href="#m2d83f01245" x="345.194023" y="208.418107" style="fill: #1f77b4; fill-opacity: 0.6; stroke: #1f77b4; stroke-opacity: 0.6"/>
    <use xlink:href="#m2d83f01245" x="373.581818" y="58.440724" style="fill: #1f77b4; fill-opacity: 0.6; stroke: #1f77b4; stroke-opacity: 0.6"/>
    <use xlink:href="#m2d83f01245" x="335.705044" y="131.676363" style="fill: #1f77b4; fill-opacity: 0.6; stroke: #1f77b4; stroke-opacity: 0.6"/>
    <use xlink:href="#m2d83f01245" x="369.306285" y="151.24754" style="fill: #1f77b4; fill-opacity: 0.6; stroke: #1f77b4; stroke-opacity: 0.6"/>
    <use xlink:href="#m2d83f01245" x="334.913936" y="152.961017" style="fill: #1f77b4; fill-opacity: 0.6; stroke: #1f77b4; stroke-opacity: 0.6"/>
    <use xlink:href="#m2d83f01245" x="351.953363" y="128.990522" style="fill: #1f77b4; fill-opacity: 0.6; stroke: #1f77b4; stroke-opacity: 0.6"/>
    <use xlink:href="#m2d83f01245" x="370.656162" y="152.668937" style="fill: #1f77b4; fill-opacity: 0.6; stroke: #1f77b4; stroke-opacity: 0.6"/>
    <use xlink:href="#m2d83f01245" x="252.44857" y="218.529239" style="fill: #1f77b4; fill-opacity: 0.6; stroke: #1f77b4; stroke-opacity: 0.6"/>
  </g>
</svg>