<?xml version="1.0" encoding="utf-8"?>
<svg xmlns:xlink="http://www.w3.org/1999/xlink" width="432pt" height="288pt" viewBox="0 0 432 288" xmlns="http://www.w3.org/2000/svg" version="1.1">
 <defs>
  <path id="extremumPoint" d="M 0 3 
C 0.795609 3 1.55874 2.683901 2.12132 2.12132 
C 2.683901 1.55874 3 0.795609 3 0 
C 3 -0.795609 2.683901 -1.55874 2.12132 -2.12132 
C 1.55874 -2.683901 0.795609 -3 0 -3 
C -0.795609 -3 -1.55874 -2.683901 -2.12132 -2.12132 
C -2.683901 -1.55874 -3 -0.795609 -3 0 
C -3 0.795609 -2.683901 1.55874 -2.12132 2.12132 
C -1.55874 2.683901 -0.795609 3 0 3 
z" style="stroke: #ff0000; stroke-opacity: 1"/>
  <path id="regularPoint" d="M 0 3 
C 0.795609 3 1.55874 2.683901 2.12132 2.12132 
C 2.683901 1.55874 3 0.795609 3 0 
C 3 -0.795609 2.683901 -1.55874 2.12132 -2.12132 
C 1.55874 -2.683901 0.795609 -3 0 -3 
C -0.795609 -3 -1.55874 -2.683901 -2.12132 -2.12132 
C -2.683901 -1.55874 -3 -0.795609 -3 0 
C -3 0.795609 -2.683901 1.55874 -2.12132 2.12132 
C -1.55874 2.683901 -0.795609 3 0 3 
z" style="stroke: #1f77b4; stroke-opacity: 0.6"/>
 </defs>
 <g>
  <use xlink:href="#regularPoint" x="113.445577" y="46.304291"/>
  <use xlink:href="#regularPoint" x="120.780959" y="44.64"/>
  <use xlink:href="#regularPoint" x="108.989845" y="65.459718"/>
  <use xlink:href="#regularPoint" x="113.244676" y="79.46795"/>
  <use xlink:href="#regularPoint" x="115.327756" y="99.247732"/>
  <use xlink:href="#regularPoint" x="103.134949" y="63.638925"/>
  <use xlink:href="#regularPoint" x="109.876143" y="69.187473"/>
  <use xlink:href="#regularPoint" x="117.343775" y="79.887482"/>
  <use xlink:href="#regularPoint" x="136.700497" y="67.237084"/>
  <use xlink:href="#regularPoint" x="69.218182" y="81.556603"/>
  <use xlink:href="#regularPoint" x="318.968921" y="122.630042"/>
  <use xlink:href="#regularPoint" x="341.06443" y="131.996759"/>
  <use xlink:href="#regularPoint" x="322.407547" y="114.948516"/>
  <use xlink:href="#regularPoint" x="359.029029" y="97.364674"/>
  <use xlink:href="#regularPoint" x="333.97166" y="151.638391"/>
  <use xlink:href="#regularPoint" x="352.600939" y="150.075181"/>
  <use xlink:href="#regularPoint" x="315.050528" y="133.467465"/>
  <!-- Extremum Points -->
  <use xlink:href="#extremumPoint" x="361.147773" y="147.985224"/> <!-- Highest Y -->
  <use xlink:href="#extremumPoint" x="364.386411" y="162.58107"/> <!-- Lowest Y -->
  <use xlink:href="#extremumPoint" x="373.581818" y="158.248002"/>
  <use xlink:href="#extremumPoint" x="363.959155" y="246.24"/>
 </g>
</svg>