<?xml version="1.0" encoding="utf-8"?>
<svg xmlns:xlink="http://www.w3.org/1999/xlink" width="432pt" height="288pt" viewBox="0 0 432 288" xmlns="http://www.w3.org/2000/svg" version="1.1">
 <defs>
  <path id="mebfebf338c" d="M 0 3 
C 0.795609 3 1.55874 2.683901 2.12132 2.12132 
C 2.683901 1.55874 3 0.795609 3 0 
C 3 -0.795609 2.683901 -1.55874 2.12132 -2.12132 
C 1.55874 -2.683901 0.795609 -3 0 -3 
C -0.795609 -3 -1.55874 -2.683901 -2.12132 -2.12132 
C -2.683901 -1.55874 -3 -0.795609 -3 0 
C -3 0.795609 -2.683901 1.55874 -2.12132 2.12132 
C -1.55874 2.683901 -0.795609 3 0 3 
z
" style="stroke: #1f77b4; stroke-opacity: 0.6"/>
 </defs>
 <g>
  <use xlink:href="#mebfebf338c" x="128.395638" y="128.401304" style="fill: #1f77b4; fill-opacity: 0.6; stroke: #1f77b4; stroke-opacity: 0.6"/>
  <use xlink:href="#mebfebf338c" x="87.133163" y="109.241452" style="fill: #1f77b4; fill-opacity: 0.6; stroke: #1f77b4; stroke-opacity: 0.6"/>
  <use xlink:href="#mebfebf338c" x="91.461701" y="117.591431" style="fill: #1f77b4; fill-opacity: 0.6; stroke: #1f77b4; stroke-opacity: 0.6"/>
  <use xlink:href="#mebfebf338c" x="101.492048" y="127.050732" style="fill: #1f77b4; fill-opacity: 0.6; stroke: #1f77b4; stroke-opacity: 0.6"/>
  <use xlink:href="#mebfebf338c" x="102.601449" y="95.134504" style="fill: #1f77b4; fill-opacity: 0.6; stroke: #1f77b4; stroke-opacity: 0.6"/>
  <use xlink:href="#mebfebf338c" x="126.27313" y="122.340146" style="fill: #1f77b4; fill-opacity: 0.6; stroke: #1f77b4; stroke-opacity: 0.6"/>
  <use xlink:href="#mebfebf338c" x="96.683871" y="120.625406" style="fill: #1f77b4; fill-opacity: 0.6; stroke: #1f77b4; stroke-opacity: 0.6"/>
  <use xlink:href="#mebfebf338c" x="69.218182" y="93.063365" style="fill: #1f77b4; fill-opacity: 0.6; stroke: #1f77b4; stroke-opacity: 0.6"/>
  <use xlink:href="#mebfebf338c" x="120.400144" y="121.155659" style="fill: #1f77b4; fill-opacity: 0.6; stroke: #1f77b4; stroke-opacity: 0.6"/>
  <use xlink:href="#mebfebf338c" x="119.816284" y="145.102483" style="fill: #1f77b4; fill-opacity: 0.6; stroke: #1f77b4; stroke-opacity: 0.6"/>
  <use xlink:href="#mebfebf338c" x="332.708657" y="216.300518" style="fill: red; fill-opacity: 0.6; stroke: red; stroke-opacity: 0.6"/>
  <use xlink:href="#mebfebf338c" x="309.737183" y="178.481658" style="fill: #1f77b4; fill-opacity: 0.6; stroke: #1f77b4; stroke-opacity: 0.6"/>
  <use xlink:href="#mebfebf338c" x="290.626738" y="193.492961" style="fill: #1f77b4; fill-opacity: 0.6; stroke: #1f77b4; stroke-opacity: 0.6"/>
  <use xlink:href="#mebfebf338c" x="318.208743" y="181.411246" style="fill: #1f77b4; fill-opacity: 0.6; stroke: #1f77b4; stroke-opacity: 0.6"/>
  <use xlink:href="#mebfebf338c" x="373.581818" y="246.24" style="fill: red; fill-opacity: 0.6; stroke: red; stroke-opacity: 0.6"/>
  <use xlink:href="#mebfebf338c" x="308.708538" y="189.528366" style="fill: #1f77b4; fill-opacity: 0.6; stroke: #1f77b4; stroke-opacity: 0.6"/>
  <use xlink:href="#mebfebf338c" x="323.04515" y="209.901205" style="fill: #1f77b4; fill-opacity: 0.6; stroke: #1f77b4; stroke-opacity: 0.6"/>
  <use xlink:href="#mebfebf338c" x="313.394413" y="185.383022" style="fill: #1f77b4; fill-opacity: 0.6; stroke: #1f77b4; stroke-opacity: 0.6"/>
  <use xlink:href="#mebfebf338c" x="316.59872" y="220.462732" style="fill: #1f77b4; fill-opacity: 0.6; stroke: #1f77b4; stroke-opacity: 0.6"/>
  <use xlink:href="#mebfebf338c" x="327.775438" y="210.42622" style="fill: #1f77b4; fill-opacity: 0.6; stroke: #1f77b4; stroke-opacity: 0.6"/>
  <use xlink:href="#mebfebf338c" x="235.041187" y="44.64" style="fill: red; fill-opacity: 0.6; stroke: red; stroke-opacity: 0.6"/>
 </g>
</svg>