<?xml version="1.0" standalone="no"?>
<!DOCTYPE svg PUBLIC "-//W3C//DTD SVG 20010904//EN"
 "http://www.w3.org/TR/2001/REC-SVG-20010904/DTD/svg10.dtd">
<svg version="1.0" xmlns="http://www.w3.org/2000/svg"
 width="432pt" height="288pt" viewBox="0 0 432 288">
<g transform="translate(0,288) scale(0.1,-0.1)" fill="#000000" stroke="none">
<path d="M1086 2439 c-3 -5 -6 -93 -6 -195 l0 -186 195 0 195 0 0 195 0 195
-189 0 c-104 0 -192 -4 -195 -9z m378 -186 l0 -170 -170 0 -170 0 0 170 0 170
170 0 170 0 0 -170z"/>
<path fill="#ff0000" d="M3017 1979 c-4 -6 -7 -94 -7 -195 l0 -183 195 0 195 0 0 195 0 195 -188 0 c-103 0 -192 -5 -195 -12z m378 -183 l0 -170 -170 0 -170 0 0 170 0 170 170 0 170 0 0 -170z"/>
<path d="M1086 1234 c-3 -9 -6 -91 -6 -183 l0 -166 195 0 195 0 0 183 0 182
-189 0 c-104 0 -192 -7 -195 -16z m378 -167 l0 -150 -150 0 -150 0 0 150 0 150
150 0 150 0 0 -150z"/>
</g>
</svg>