<?xml version="1.0" encoding="utf-8"?>
<svg xmlns:xlink="http://www.w3.org/1999/xlink" width="432pt" height="288pt" viewBox="0 0 432 288" xmlns="http://www.w3.org/2000/svg" version="1.1">
 <defs>
  <style type="text/css">*{stroke-linejoin: round; stroke-linecap: butt}</style>
  <path id="extremumPoint" d="M 0 3 
C 0.795609 3 1.55874 2.683901 2.12132 2.12132 
C 2.683901 1.55874 3 0.795609 3 0 
C 3 -0.795609 2.683901 -1.55874 2.12132 -2.12132 
C 1.55874 -2.683901 0.795609 -3 0 -3 
C -0.795609 -3 -1.55874 -2.683901 -2.12132 -2.12132 
C -2.683901 -1.55874 -3 -0.795609 -3 0 
C -3 0.795609 -2.683901 1.55874 -2.12132 2.12132 
C -1.55874 2.683901 -0.795609 3 0 3 
z" style="stroke: #ff0000; stroke-opacity: 1"/>
  <path id="regularPoint" d="M 0 3 
C 0.795609 3 1.55874 2.683901 2.12132 2.12132 
C 2.683901 1.55874 3 0.795609 3 0 
C 3 -0.795609 2.683901 -1.55874 2.12132 -2.12132 
C 1.55874 -2.683901 0.795609 -3 0 -3 
C -0.795609 -3 -1.55874 -2.683901 -2.12132 -2.12132 
C -2.683901 -1.55874 -3 -0.795609 -3 0 
C -3 0.795609 -2.683901 1.55874 -2.12132 2.12132 
C -1.55874 2.683901 -0.795609 3 0 3 
z" style="stroke: #1f77b4; stroke-opacity: 0.6"/>
 </defs>
 <g>
  <use xlink:href="#regularPoint" x="69.218182" y="170.920789"/>
  <use xlink:href="#regularPoint" x="113.957304" y="199.830548"/>
  <use xlink:href="#regularPoint" x="114.440348" y="196.813436"/>
  <use xlink:href="#regularPoint" x="107.184829" y="210.458008"/>
  <use xlink:href="#regularPoint" x="120.668488" y="203.080412"/>
  <use xlink:href="#regularPoint" x="88.97278" y="195.288043"/>
  <use xlink:href="#regularPoint" x="99.114427" y="204.052371"/>
  <use xlink:href="#regularPoint" x="69.90539" y="205.365022"/>
  <use xlink:href="#regularPoint" x="83.630669" y="206.257982"/>
  <use xlink:href="#regularPoint" x="100.57294" y="211.33211"/>
  <use xlink:href="#regularPoint" x="259.971912" y="223.524078"/>
  <use xlink:href="#regularPoint" x="258.817335" y="215.907541"/>
  <use xlink:href="#regularPoint" x="277.034987" y="228.560753"/>
  <use xlink:href="#regularPoint" x="279.255492" y="222.094535"/>
  <use xlink:href="#regularPoint" x="269.586575" y="236.603638"/>
  <use xlink:href="#regularPoint" x="235.668416" y="227.488002"/>
  <use xlink:href="#regularPoint" x="270.443771" y="232.905566"/>
  <use xlink:href="#regularPoint" x="267.377865" y="232.187939"/>
  <use xlink:href="#extremumPoint" x="373.581818" y="44.64"/>
  <use xlink:href="#extremumPoint" x="319.940578" y="246.24"/>
  <use xlink:href="#regularPoint" x="277.738802" y="244.473453"/>
 </g>
</svg>