<?xml version="1.0" standalone="no"?>
<!DOCTYPE svg PUBLIC "-//W3C//DTD SVG 20010904//EN"
 "http://www.w3.org/TR/2001/REC-SVG-20010904/DTD/svg10.dtd">
<svg version="1.0" xmlns="http://www.w3.org/2000/svg"
 width="600.000000pt" height="400.000000pt" viewBox="0 0 600.000000 400.000000"
 preserveAspectRatio="xMidYMid meet">
<g transform="translate(0.000000,400.000000) scale(0.100000,-0.100000)"
fill="#000000" stroke="none">
<path d="M2248 256.32 L251.532 256.32 L251.532 54.72 L224.748 54.72 z" style="fill: #1f77b4"/>
<text x="2381" y="54.72" font-family="Verdana" font-size="35" fill="black">28.31</text>
<path d="M157.788 256.32 L184.572 256.32 L184.572 217.384225 L157.788 217.384225 z" style="fill: #1f77b4"/>
<text x="171.18" y="217.384225" font-family="Verdana" font-size="35" fill="black">5.47</text>
<path d="M291.708 256.32 L318.492 256.32 L318.492 217.197901 L291.708 217.197901 z" style="fill: #1f77b4"/>
<text x="305.1" y="217.197901" font-family="Verdana" font-size="35" fill="black">5.49</text>
<path d="M325.188 256.32 L351.972 256.32 L351.972 219.674162 L325.188 219.674162 z" style="fill: #1f77b4"/>
<text x="338.58" y="219.674162" font-family="Verdana" font-size="35" fill="black">5.15</text>
<path d="M358.668 256.32 L385.452 256.32 L385.452 209.365321 L358.668 209.365321 z" style="fill: #1f77b4"/>
<text x="372.06" y="209.365321" font-family="Verdana" font-size="35" fill="black">6.59</text>
<path d="M258.228 256.32 L285.012 256.32 L285.012 198.045012 L258.228 198.045012 z" style="fill: #1f77b4"/>
<text x="271.62" y="198.045012" font-family="Verdana" font-size="35" fill="black">8.18</text>
<path d="M57.348 256.32 L84.132 256.32 L84.132 194.044925 L57.348 194.044925 z" style="fill: #1f77b4"/>
<text x="70.74" y="194.044925" font-family="Verdana" font-size="35" fill="black">8.74</text>
<path d="M90.828 256.32 L117.612 256.32 L117.612 186.666367 L90.828 186.666367 z" style="fill: #1f77b4"/>
<text x="104.22" y="186.666367" font-family="Verdana" font-size="35" fill="black">9.78</text>
<path d="M124.308 256.32 L151.092 256.32 L151.092 187.391845 L124.308 187.391845 z" style="fill: #1f77b4"/>
<text x="137.7" y="187.391845" font-family="Verdana" font-size="35" fill="black">9.68</text>
<path d="M191.268 256.32 L218.052 256.32 L218.052 186.699335 L191.268 186.699335 z" style="fill: #1f77b4"/>
<text x="204.66" y="186.699335" font-family="Verdana" font-size="35" fill="black">9.77</text>
</g>
</svg>