<?xml version="1.0" standalone="no"?>
<!DOCTYPE svg PUBLIC "-//W3C//DTD SVG 1.1//EN" "http://www.w3.org/Graphics/SVG/1.1/DTD/svg11.dtd">
<svg width="432pt" height="288pt" viewBox="0 0 432 288" xmlns="http://www.w3.org/2000/svg" version="1.1">
  <g>
    <rect x="10" y="10" width="40" height="200" style="fill: #1f77b4" />
    <text x="30" y="220" font-size="12" text-anchor="middle">27.69</text>
    <rect x="60" y="30" width="40" height="180" style="fill: #1f77b4" />
    <text x="80" y="220" font-size="12" text-anchor="middle">9.30</text>
    <rect x="110" y="50" width="40" height="160" style="fill: #1f77b4" />
    <text x="130" y="220" font-size="12" text-anchor="middle">8.99</text>
    <rect x="160" y="70" width="40" height="140" style="fill: #1f77b4" />
    <text x="180" y="220" font-size="12" text-anchor="middle">7.12</text>
    <rect x="210" y="90" width="40" height="120" style="fill: #1f77b4" />
    <text x="230" y="220" font-size="12" text-anchor="middle">6.95</text>
    <rect x="260" y="110" width="40" height="100" style="fill: #1f77b4" />
    <text x="280" y="220" font-size="12" text-anchor="middle">6.80</text>
    <rect x="310" y="130" width="40" height="80" style="fill: #1f77b4" />
    <text x="330" y="220" font-size="12" text-anchor="middle">6.76</text>
    <rect x="360" y="150" width="40" height="60" style="fill: #1f77b4" />
    <text x="380" y="220" font-size="12" text-anchor="middle">6.68</text>
    <rect x="410" y="170" width="40" height="40" style="fill: #1f77b4" />
    <text x="430" y="220" font-size="12" text-anchor="middle">5.94</text>
    <rect x="460" y="190" width="40" height="20" style="fill: #1f77b4" />
    <text x="480" y="220" font-size="12" text-anchor="middle">5.43</text>
  </g>
</svg>