```xml
<?xml version="1.0" encoding="utf-8"?>
<svg xmlns:xlink="http://www.w3.org/1999/xlink" width="432pt" height="288pt" viewBox="0 0 432 288" xmlns="http://www.w3.org/2000/svg" version="1.1">
 <defs>
  <style type="text/css">*{stroke-linejoin: round; stroke-linecap: butt}</style>
 </defs>
 <g id="figure_1">
  <g id="patch_1">
   <path d="M 0 288 
L 432 288 
L 432 0 
L 0 0 
L 0 288 
z
" style="fill: none"/>
  </g>
  <g id="axes_1">
   <g id="patch_2">
    <path d="M 54 256.32 
L 388.8 256.32 
L 388.8 34.56 
L 54 34.56 
z
" style="fill: #ffffff"/>
   </g>
   <g id="line2d_13">
    <path d="M 69.218182 123.854894 
L 81.9 44.64 
L 94.581818 130.058422 
L 107.263636 140.942784 
L 119.945455 155.934954 
L 132.627273 155.312451 
L 145.309091 168.37599 
L 157.990909 175.946863 
L 170.672727 182.225828 
L 183.354545 246.24 
L 196.036364 183.359654 
L 208.718182 161.850061 
L 221.4 174.421872 
L 234.081818 174.608537 
L 246.763636 192.562139 
L 259.445455 194.134987 
L 272.127273 185.248513 
L 284.809091 187.355206 
L 297.490909 186.816054 
L 310.172727 195.564523 
L 322.854545 191.508374 
L 335.536364 212.256946 
L 348.218182 215.626521 
L 360.9 225.549281 
L 373.581818 216.473921 
" clip-path="url(#pa35d7bb217)" style="fill: none; stroke: #1f77b4; stroke-width: 1.5; stroke-linecap: square"/>
   </g>
   <g id="line2d_14">
    <!-- Fitted line using linear regression -->
    <path d="M 69.218182 190 
L 373.581818 210 
" style="fill: none; stroke: #ff7f0e; stroke-width: 1.5; stroke-linecap: square"/>
   </g>
   <g id="patch_3">
    <path d="M 54 256.32 
L 54 34.56 
" style="fill: none; stroke: #000000; stroke-width: 0.8; stroke-linejoin: miter; stroke-linecap: square"/>
   </g>
   <g id="patch_4">
    <path d="M 388.8 256.32 
L 388.8 34.56 
" style="fill: none; stroke: #000000; stroke-width: 0.8; stroke-linejoin: miter; stroke-linecap: square"/>
   </g>
   <g id="patch_5">
    <path d="M 54 256.32 
L 388.8 256.32 
" style="fill: none; stroke: #000000; stroke-width: 0.8; stroke-linejoin: miter; stroke-linecap: square"/>
   </g>
   <g id="patch_6">
    <path d="M 54 34.56 
L 388.8 34.56 
" style="fill: none; stroke: #000000; stroke-width: 0.8; stroke-linejoin: miter; stroke-linecap: square"/>
   </g>
  </g>
 </g>
 <defs>
  <clipPath id="pa35d7bb217">
   <rect x="54" y="34.56" width="334.8" height="221.76"/>
  </clipPath>
 </defs>
</svg>