```xml
<?xml version="1.0" encoding="utf-8"?>
<svg xmlns:xlink="http://www.w3.org/1999/xlink" width="432pt" height="288pt" viewBox="0 0 432 288" xmlns="http://www.w3.org/2000/svg" version="1.1">
 <defs>
  <style type="text/css">*{stroke-linejoin: round; stroke-linecap: butt}</style>
 </defs>
 <g id="figure_1">
  <g id="patch_1">
   <path d="M 0 288 
L 432 288 
L 432 0 
L 0 0 
L 0 288 
z
" style="fill: none"/>
  </g>
  <g id="axes_1">
   <g id="patch_2">
    <path d="M 54 256.32 
L 388.8 256.32 
L 388.8 34.56 
L 54 34.56 
z
" style="fill: #ffffff"/>
   </g>
   <g id="line2d_13">
    <path d="M 69.218182 165.569541 
L 81.9 151.83249 
L 94.581818 246.24 
L 107.263636 149.053526 
L 119.945455 149.353666 
L 132.627273 134.139124 
L 145.309091 162.945905 
L 157.990909 156.715238 
L 170.672727 174.76315 
L 183.354545 150.675981 
L 196.036364 141.195812 
L 208.718182 147.303951 
L 221.4 129.162062 
L 234.081818 146.69904 
L 246.763636 140.095453 
L 259.445455 144.73137 
L 272.127273 138.795663 
L 284.809091 117.213243 
L 297.490909 140.575939 
L 310.172727 116.960811 
L 322.854545 44.64 
L 335.536364 110.470399 
L 348.218182 119.689306 
L 360.9 127.09153 
L 373.581818 117.452105 
" clip-path="url(#p1557cd4a53)" style="fill: none; stroke: #1f77b4; stroke-width: 1.5; stroke-linecap: square"/>
   </g>
   <!-- Fitted Line -->
   <g id="line2d_fitted">
    <path d="M 69.218182 180 
L 373.581818 100 
" style="fill: none; stroke: #ff7f0e; stroke-width: 1.5; stroke-linecap: square"/>
   </g>
   <g id="patch_3">
    <path d="M 54 256.32 
L 54 34.56 
" style="fill: none; stroke: #000000; stroke-width: 0.8; stroke-linejoin: miter; stroke-linecap: square"/>
   </g>
   <g id="patch_4">
    <path d="M 388.8 256.32 
L 388.8 34.56 
" style="fill: none; stroke: #000000; stroke-width: 0.8; stroke-linejoin: miter; stroke-linecap: square"/>
   </g>
   <g id="patch_5">
    <path d="M 54 256.32 
L 388.8 256.32 
" style="fill: none; stroke: #000000; stroke-width: 0.8; stroke-linejoin: miter; stroke-linecap: square"/>
   </g>
   <g id="patch_6">
    <path d="M 54 34.56 
L 388.8 34.56 
" style="fill: none; stroke: #000000; stroke-width: 0.8; stroke-linejoin: miter; stroke-linecap: square"/>
   </g>
  </g>
 </g>
 <defs>
  <clipPath id="p1557cd4a53">
   <rect x="54" y="34.56" width="334.8" height="221.76"/>
  </clipPath>
 </defs>
</svg>