```xml
<?xml version="1.0" encoding="utf-8"?>
<svg xmlns:xlink="http://www.w3.org/1999/xlink" width="432pt" height="288pt" viewBox="0 0 432 288" xmlns="http://www.w3.org/2000/svg" version="1.1">
 <defs>
  <style type="text/css">*{stroke-linejoin: round; stroke-linecap: butt}</style>
 </defs>
 <g id="figure_1">
  <g id="patch_1">
   <path d="M 0 288 
L 432 288 
L 432 0 
L 0 0 
L 0 288 
z
" style="fill: none"/>
  </g>
  <g id="axes_1">
   <g id="patch_2">
    <path d="M 54 256.32 
L 388.8 256.32 
L 388.8 34.56 
L 54 34.56 
z
" style="fill: #ffffff"/>
   </g>
   <g id="line2d_12">
    <path d="M 69.218182 170.007789 
L 81.9 165.509548 
L 94.581818 141.563237 
L 107.263636 152.871324 
L 119.945455 173.495264 
L 132.627273 44.64 
L 145.309091 156.120363 
L 157.990909 187.463926 
L 170.672727 181.97827 
L 183.354545 195.92302 
L 196.036364 169.542939 
L 208.718182 178.752412 
L 221.4 158.090522 
L 234.081818 180.489453 
L 246.763636 164.310849 
L 259.445455 170.050656 
L 272.127273 175.784194 
L 284.809091 196.13185 
L 297.490909 167.535526 
L 310.172727 164.269227 
L 322.854545 166.0238 
L 335.536364 246.24 
L 348.218182 173.367887 
L 360.9 171.560315 
L 373.581818 167.119375 
" style="fill: none; stroke: #1f77b4; stroke-width: 1.5; stroke-linecap: square"/>
   </g>
   <!-- Fitted Line -->
   <g id="line2d_fitted">
    <path d="M 69.218182 195.92302 
L 373.581818 44.64 
" style="fill: none; stroke: #ff7f0e; stroke-width: 1.5; stroke-linecap: square; stroke-dasharray: 5,5"/>
   </g>
  </g>
 </g>
</svg>