<?xml version="1.0" encoding="utf-8"?>
<svg xmlns:xlink="http://www.w3.org/1999/xlink" width="432pt" height="288pt" viewBox="0 0 432 288" xmlns="http://www.w3.org/2000/svg" version="1.1">
 <defs>
  <style type="text/css">*{stroke-linejoin: round; stroke-linecap: butt}</style>
  <path id="mef3d019a67" d="M 0 3 
C 0.795609 3 1.55874 2.683901 2.12132 2.12132 
C 2.683901 1.55874 3 0.795609 3 0 
C 3 -0.795609 2.683901 -1.55874 2.12132 -2.12132 
C 1.55874 -2.683901 0.795609 -3 0 -3 
C -0.795609 -3 -1.55874 -2.683901 -2.12132 -2.12132 
C -2.683901 -1.55874 -3 -0.795609 -3 0 
C -3 0.795609 -2.683901 1.55874 -2.12132 2.12132 
C -1.55874 2.683901 -0.795609 3 0 3 
z"/>
 </defs>
 <g>
  <path d="M 69.218182 203.516868 
L 103.036364 208.862024 
L 136.854545 246.24 
L 170.672727 44.64 
L 204.490909 225.081397 
L 238.309091 226.39216 
L 272.127273 189.89289 
L 305.945455 193.008031 
L 339.763636 191.123443 
L 373.581818 177.388202 
" style="fill: none; stroke: #1f77b4; stroke-width: 1.5; stroke-linecap: square"/>
  <use xlink:href="#mef3d019a67" x="136.854545" y="246.24" style="fill: red; stroke: red;"/>
  <use xlink:href="#mef3d019a67" x="170.672727" y="44.64" style="fill: red; stroke: red;"/>
 </g>
</svg>