<?xml version="1.0" encoding="utf-8"?>
<svg xmlns:xlink="http://www.w3.org/1999/xlink" width="432pt" height="288pt" viewBox="0 0 432 288" xmlns="http://www.w3.org/2000/svg" version="1.1">
 <defs>
  <style type="text/css">*{stroke-linejoin: round; stroke-linecap: butt}</style>
  <path id="outlierPoint" d="M 0 3 
C 0.795609 3 1.55874 2.683901 2.12132 2.12132 
C 2.683901 1.55874 3 0.795609 3 0 
C 3 -0.795609 2.683901 -1.55874 2.12132 -2.12132 
C 1.55874 -2.683901 0.795609 -3 0 -3 
C -0.795609 -3 -1.55874 -2.683901 -2.12132 -2.12132 
C -2.683901 -1.55874 -3 -0.795609 -3 0 
C -3 0.795609 -2.683901 1.55874 -2.12132 2.12132 
C -1.55874 2.683901 -0.795609 3 0 3 
z" style="stroke: red; stroke-opacity: 0.8"/>
 </defs>
 <g id="figure_1">
  <g id="line2d_15">
    <path d="M 69.218182 218.257315 
L 103.036364 197.167194 
L 136.854545 44.64 
L 170.672727 246.24 
L 204.490909 231.536685 
L 238.309091 235.11369 
L 272.127273 232.503403 
L 305.945455 238.282195 
L 339.763636 240.135775 
L 373.581818 237.974076 
" style="fill: none; stroke: #1f77b4; stroke-width: 1.5; stroke-linecap: square"/>
  </g>
  <g id="PathCollection_1">
    <use xlink:href="#outlierPoint" x="136.854545" y="44.64" style="fill: red; fill-opacity: 0.8; stroke: red; stroke-opacity: 0.8"/>
    <use xlink:href="#outlierPoint" x="170.672727" y="246.24" style="fill: red; fill-opacity: 0.8; stroke: red; stroke-opacity: 0.8"/>
  </g>
 </g>
</svg>