<?xml version="1.0" encoding="utf-8"?>
<svg xmlns:xlink="http://www.w3.org/1999/xlink" width="432pt" height="288pt" viewBox="0 0 432 288" xmlns="http://www.w3.org/2000/svg" version="1.1">
 <defs>
  <style type="text/css">*{stroke-linejoin: round; stroke-linecap: butt}</style>
  <path id="m749ccf8002" d="M 0 3 
C 0.795609 3 1.55874 2.683901 2.12132 2.12132 
C 2.683901 1.55874 3 0.795609 3 0 
C 3 -0.795609 2.683901 -1.55874 2.12132 -2.12132 
C 1.55874 -2.683901 0.795609 -3 0 -3 
C -0.795609 -3 -1.55874 -2.683901 -2.12132 -2.12132 
C -2.683901 -1.55874 -3 -0.795609 -3 0 
C -3 0.795609 -2.683901 1.55874 -2.12132 2.12132 
C -1.55874 2.683901 -0.795609 3 0 3 
z"/>
 </defs>
 <g id="figure_1">
  <g id="line2d_15">
    <path d="M 69.218182 200.085832 
L 103.036364 44.64 
L 136.854545 246.24 
L 170.672727 216.517381 
L 204.490909 202.972849 
L 238.309091 198.578661 
L 272.127273 208.618275 
L 305.945455 198.160013 
L 339.763636 174.705335 
L 373.581818 199.542939 
" style="fill: none; stroke: #1f77b4; stroke-width: 1.5; stroke-linecap: square"/>
   </g>
   <g id="PathCollection_1">
    <use xlink:href="#m749ccf8002" x="69.218182" y="200.085832" style="fill: #1f77b4; stroke: #1f77b4"/>
    <use xlink:href="#m749ccf8002" x="103.036364" y="44.64" style="fill: red; stroke: red"/>
    <use xlink:href="#m749ccf8002" x="136.854545" y="246.24" style="fill: red; stroke: red"/>
    <use xlink:href="#m749ccf8002" x="170.672727" y="216.517381" style="fill: #1f77b4; stroke: #1f77b4"/>
    <use xlink:href="#m749ccf8002" x="204.490909" y="202.972849" style="fill: #1f77b4; stroke: #1f77b4"/>
    <use xlink:href="#m749ccf8002" x="238.309091" y="198.578661" style="fill: #1f77b4; stroke: #1f77b4"/>
    <use xlink:href="#m749ccf8002" x="272.127273" y="208.618275" style="fill: #1f77b4; stroke: #1f77b4"/>
    <use xlink:href="#m749ccf8002" x="305.945455" y="198.160013" style="fill: #1f77b4; stroke: #1f77b4"/>
    <use xlink:href="#m749ccf8002" x="339.763636" y="174.705335" style="fill: #1f77b4; stroke: #1f77b4"/>
    <use xlink:href="#m749ccf8002" x="373.581818" y="199.542939" style="fill: #1f77b4; stroke: #1f77b4"/>
   </g>
 </g>
</svg>