<?xml version="1.0" encoding="utf-8"?>
<svg width="432pt" height="288pt" viewBox="0 0 432 288" xmlns="http://www.w3.org/2000/svg" version="1.1">
  <g fill="none" stroke-linecap="round">
    <path d="M 69.218182 123.048884 L 81.9 130.11985 L 94.581818 118.392335 L 107.263636 136.673841 L 119.945455 129.674837 L 132.627273 129.771557 L 145.309091 44.64 L 157.990909 144.532931 L 170.672727 144.343583 L 183.354545 128.808022 L 196.036364 156.105145 L 208.718182 139.08278 L 221.4 139.109071 L 234.081818 123.893917 L 246.763636 154.371166 L 259.445455 146.525261 L 272.127273 153.895321 L 284.809091 136.817581 L 297.490909 156.923064 L 310.172727 176.414815 L 322.854545 246.24 L 335.536364 161.896043 L 348.218182 157.649359 L 360.9 135.443099 L 373.581818 164.061467" stroke="#1f77b4" stroke-width="1.5"/>
    <circle cx="145.309091" cy="44.64" r="3" fill="red"/>
    <circle cx="322.854545" cy="246.24" r="3" fill="red"/>
    <circle cx="69.218182" cy="123.048884" r="3" fill="blue"/>
    <circle cx="81.9" cy="130.11985" r="3" fill="blue"/>
    <circle cx="94.581818" cy="118.392335" r="3" fill="blue"/>
    <circle cx="107.263636" cy="136.673841" r="3" fill="blue"/>
    <circle cx="119.945455" cy="129.674837" r="3" fill="blue"/>
    <circle cx="132.627273" cy="129.771557" r="3" fill="blue"/>
    <circle cx="157.990909" cy="144.532931" r="3" fill="blue"/>
    <circle cx="170.672727" cy="144.343583" r="3" fill="blue"/>
    <circle cx="183.354545" cy="128.808022" r="3" fill="blue"/>
    <circle cx="196.036364" cy="156.105145" r="3" fill="blue"/>
    <circle cx="208.718182" cy="139.08278" r="3" fill="blue"/>
    <circle cx="221.4" cy="139.109071" r="3" fill="blue"/>
    <circle cx="234.081818" cy="123.893917" r="3" fill="blue"/>
    <circle cx="246.763636" cy="154.371166" r="3" fill="blue"/>
    <circle cx="259.445455" cy="146.525261" r="3" fill="blue"/>
    <circle cx="272.127273" cy="153.895321" r="3" fill="blue"/>
    <circle cx="284.809091" cy="136.817581" r="3" fill="blue"/>
    <circle cx="297.490909" cy="156.923064" r="3" fill="blue"/>
    <circle cx="310.172727" cy="176.414815" r="3" fill="blue"/>
    <circle cx="335.536364" cy="161.896043" r="3" fill="blue"/>
    <circle cx="348.218182" cy="157.649359" r="3" fill="blue"/>
    <circle cx="360.9" cy="135.443099" r="3" fill="blue"/>
    <circle cx="373.581818" cy="164.061467" r="3" fill="blue"/>
  </g>
</svg>