<svg width="432pt" height="288pt" viewBox="0 0 432 288" xmlns="http://www.w3.org/2000/svg" version="1.1">
  <g>
    <path d="M 69.218182 127.324686 L 81.9 117.803736 L 94.581818 44.64 L 107.263636 143.009997 L 119.945455 132.498208 L 132.627273 145.235074 L 145.309091 131.172284 L 157.990909 166.278249 L 170.672727 144.787218 L 183.354545 146.59818 L 196.036364 148.123511 L 208.718182 161.180985 L 221.4 152.23297 L 234.081818 246.24 L 246.763636 150.455246 L 259.445455 165.182264 L 272.127273 182.629803 L 284.809091 176.234727 L 297.490909 176.717529 L 310.172727 196.147168 L 322.854545 178.70819 L 335.536364 183.513468 L 348.218182 183.096147 L 360.9 177.492312 L 373.581818 175.668787" style="fill: none; stroke: #1f77b4; stroke-width: 1.5; stroke-linecap: square"/>
    <circle cx="94.581818" cy="44.64" r="3" style="fill: red;"/>
    <circle cx="234.081818" cy="246.24" r="3" style="fill: red;"/>
    <circle cx="69.218182" cy="127.324686" r="3" style="fill: #1f77b4;"/>
    <circle cx="81.9" cy="117.803736" r="3" style="fill: #1f77b4;"/>
    <circle cx="107.263636" cy="143.009997" r="3" style="fill: #1f77b4;"/>
    <circle cx="119.945455" cy="132.498208" r="3" style="fill: #1f77b4;"/>
    <circle cx="132.627273" cy="145.235074" r="3" style="fill: #1f77b4;"/>
    <circle cx="145.309091" cy="131.172284" r="3" style="fill: #1f77b4;"/>
    <circle cx="157.990909" cy="166.278249" r="3" style="fill: #1f77b4;"/>
    <circle cx="170.672727" cy="144.787218" r="3" style="fill: #1f77b4;"/>
    <circle cx="183.354545" cy="146.59818" r="3" style="fill: #1f77b4;"/>
    <circle cx="196.036364" cy="148.123511" r="3" style="fill: #1f77b4;"/>
    <circle cx="208.718182" cy="161.180985" r="3" style="fill: #1f77b4;"/>
    <circle cx="221.4" cy="152.23297" r="3" style="fill: #1f77b4;"/>
    <circle cx="246.763636" cy="150.455246" r="3" style="fill: #1f77b4;"/>
    <circle cx="259.445455" cy="165.182264" r="3" style="fill: #1f77b4;"/>
    <circle cx="272.127273" cy="182.629803" r="3" style="fill: #1f77b4;"/>
    <circle cx="284.809091" cy="176.234727" r="3" style="fill: #1f77b4;"/>
    <circle cx="297.490909" cy="176.717529" r="3" style="fill: #1f77b4;"/>
    <circle cx="310.172727" cy="196.147168" r="3" style="fill: #1f77b4;"/>
    <circle cx="322.854545" cy="178.70819" r="3" style="fill: #1f77b4;"/>
    <circle cx="335.536364" cy="183.513468" r="3" style="fill: #1f77b4;"/>
    <circle cx="348.218182" cy="183.096147" r="3" style="fill: #1f77b4;"/>
    <circle cx="360.9" cy="177.492312" r="3" style="fill: #1f77b4;"/>
    <circle cx="373.581818" cy="175.668787" r="3" style="fill: #1f77b4;"/>
  </g>
</svg>