<?xml version="1.0" encoding="utf-8"?>
<svg xmlns="http://www.w3.org/2000/svg" width="432pt" height="288pt" viewBox="0 0 432 288" version="1.1">
  <g>
    <path d="M 69.218182 86.319451 L 81.9 114.780016 L 94.581818 102.179208 L 107.263636 124.894294 L 119.945455 108.516398 L 132.627273 107.01847 L 145.309091 119.920292 L 157.990909 116.21261 L 170.672727 112.270961 L 183.354545 110.999686 L 196.036364 44.64 L 208.718182 136.700992 L 221.4 147.372062 L 234.081818 246.24 L 246.763636 151.868768 L 259.445455 146.401251 L 272.127273 153.466936 L 284.809091 148.386713 L 297.490909 161.727633 L 310.172727 149.356192 L 322.854545 164.648426 L 335.536364 165.394412 L 348.218182 179.389346 L 360.9 173.098696 L 373.581818 209.403251" fill="none" stroke="#1f77b4" stroke-width="1.5"/>
    <circle cx="196.036364" cy="44.64" r="3" fill="red"/>
    <circle cx="234.081818" cy="246.24" r="3" fill="red"/>
    <circle cx="69.218182" cy="86.319451" r="3" fill="#1f77b4"/>
    <circle cx="81.9" cy="114.780016" r="3" fill="#1f77b4"/>
    <circle cx="94.581818" cy="102.179208" r="3" fill="#1f77b4"/>
    <circle cx="107.263636" cy="124.894294" r="3" fill="#1f77b4"/>
    <circle cx="119.945455" cy="108.516398" r="3" fill="#1f77b4"/>
    <circle cx="132.627273" cy="107.01847" r="3" fill="#1f77b4"/>
    <circle cx="145.309091" cy="119.920292" r="3" fill="#1f77b4"/>
    <circle cx="157.990909" cy="116.21261" r="3" fill="#1f77b4"/>
    <circle cx="170.672727" cy="112.270961" r="3" fill="#1f77b4"/>
    <circle cx="183.354545" cy="110.999686" r="3" fill="#1f77b4"/>
    <circle cx="208.718182" cy="136.700992" r="3" fill="#1f77b4"/>
    <circle cx="221.4" cy="147.372062" r="3" fill="#1f77b4"/>
    <circle cx="246.763636" cy="151.868768" r="3" fill="#1f77b4"/>
    <circle cx="259.445455" cy="146.401251" r="3" fill="#1f77b4"/>
    <circle cx="272.127273" cy="153.466936" r="3" fill="#1f77b4"/>
    <circle cx="284.809091" cy="148.386713" r="3" fill="#1f77b4"/>
    <circle cx="297.490909" cy="161.727633" r="3" fill="#1f77b4"/>
    <circle cx="310.172727" cy="149.356192" r="3" fill="#1f77b4"/>
    <circle cx="322.854545" cy="164.648426" r="3" fill="#1f77b4"/>
    <circle cx="335.536364" cy="165.394412" r="3" fill="#1f77b4"/>
    <circle cx="348.218182" cy="179.389346" r="3" fill="#1f77b4"/>
    <circle cx="360.9" cy="173.098696" r="3" fill="#1f77b4"/>
    <circle cx="373.581818" cy="209.403251" r="3" fill="#1f77b4"/>
  </g>
</svg>