<?xml version="1.0" standalone="no"?>
<!DOCTYPE svg PUBLIC "-//W3C//DTD SVG 20010904//EN"
 "http://www.w3.org/TR/2001/REC-SVG-20010904/DTD/svg10.dtd">
<svg version="1.0" xmlns="http://www.w3.org/2000/svg"
 width="432pt" height="288pt" viewBox="0 0 432 288">
<g transform="translate(0,288) scale(0.1,-0.1)" fill="#000000" stroke="none">
<path d="M0 1440 l0 -1440 2160 0 2160 0 0 1440 0 1440 -2160 0 -2160 0 0
-1440z m4290 260 l0 -1100 -2120 0 -2120 0 0 1100 0 1100 2120 0 2120 0 0
-1100z"/>
<path d="M610 2564 c-19 -2 -44 -9 -55 -15 -19 -10 -21 -26 -21 -144 0 -118 2
-134 21 -144 11 -6 36 -13 55 -15 l34 -3 3 -1038 2 -1037 28 -24 c15 -13 39
-26 53 -29 14 -3 231 -6 482 -6 l456 0 0 1100 0 1100 -485 0 c-267 0 -487 -3
-494 -7 -10 -5 -13 52 -13 287 l0 293 -34 3 c-19 1 -44 3 -55 4 -11 2 -29 2
-40 0z"/>
<path d="M1200 2550 l0 -40 0 -1100 0 -1100 485 0 485 0 0 1100 0 1100 -485 0
-485 0 0 -40z"/>
<path d="M1900 2550 l0 -40 0 -1100 0 -1100 485 0 485 0 0 1100 0 1100 -485 0
-485 0 0 -40z"/>
<path d="M2600 2550 l0 -40 0 -1100 0 -1100 485 0 485 0 0 1100 0 1100 -485 0
-485 0 0 -40z"/>
<path d="M3300 2550 l0 -40 0 -1100 0 -1100 485 0 485 0 0 1100 0 1100 -485 0
-485 0 0 -40z"/>
<path d="M400 1440 l0 -40 -40 0 -40 0 0 -1100 0 -1100 40 0 40 0 0 -40 0 -40
1100 0 1100 0 0 40 0 40 40 0 40 0 0 1100 0 1100 -40 0 -40 0 0 40 0 40 -1100
0 -1100 0 0 -40z"/>
<path fill="#1f77b4" d="M440 1340 l0 -1100 1100 0 1100 0 0 1100 0 1100 -1100 0 -1100 0 0 -1100z"/>
<path fill="none" stroke="#1f77b4" stroke-width="75" d="M540 1240 l160 -160 160 160 160 -160 160 160 160 -160 160 160 160 -160 160 160 160 -160"/>
<path fill="#ff7f0e" d="M540 1240 l160 -160"/>
<path fill="#ff7f0e" d="M1720 1080 l160 160"/>
</g>
</svg>