<svg xmlns:xlink="http://www.w3.org/1999/xlink" width="432pt" height="288pt" viewBox="0 0 432 288" xmlns="http://www.w3.org/2000/svg" version="1.1">
 <defs>
  <style type="text/css">*{stroke-linejoin: round; stroke-linecap: butt}</style>
 </defs>
 <g>
   <g>
    <path d="M 68.7312 256.32 
L 79.4448 256.32 
L 79.4448 204.075613 
L 68.7312 204.075613 
z" style="fill: #1f77b4"/>
   </g>
   <g>
    <path d="M 82.1232 256.32 
L 92.8368 256.32 
L 92.8368 210.296773 
L 82.1232 210.296773 
z" style="fill: #1f77b4"/>
   </g>
   <g>
    <path d="M 95.5152 256.32 
L 106.2288 256.32 
L 106.2288 203.665828 
L 95.5152 203.665828 
z" style="fill: #1f77b4"/>
   </g>
   <g>
    <path d="M 108.9072 256.32 
L 119.6208 256.32 
L 119.6208 206.6286 
L 108.9072 206.6286 
z" style="fill: #1f77b4"/>
   </g>
   <g>
    <path d="M 122.2992 256.32 
L 133.0128 256.32 
L 133.0128 193.527678 
L 122.2992 193.527678 
z" style="fill: #1f77b4"/>
   </g>
   <g>
    <path d="M 135.6912 256.32 
L 146.4048 256.32 
L 146.4048 252.304791 
L 135.6912 252.304791 
z" style="fill: #1f77b4"/>
   </g>
   <g>
    <path d="M 149.0832 256.32 
L 159.7968 256.32 
L 159.7968 186.114026 
L 149.0832 186.114026 
z" style="fill: #1f77b4"/>
   </g>
   <g>
    <path d="M 162.4752 256.32 
L 173.1888 256.32 
L 173.1888 199.313419 
L 162.4752 199.313419 
z" style="fill: #1f77b4"/>
   </g>
   <g>
    <path d="M 175.8672 256.32 
L 186.5808 256.32 
L 186.5808 54.72 
L 175.8672 54.72 
z" style="fill: #1f77b4"/>
   </g>
   <g>
    <path d="M 189.2592 256.32 
L 199.9728 256.32 
L 199.9728 179.325839 
L 189.2592 179.325839 
z" style="fill: #1f77b4"/>
   </g>
   <g>
    <path d="M 202.6512 256.32 
L 213.3648 256.32 
L 213.3648 179.005478 
L 202.6512 179.005478 
z" style="fill: #1f77b4"/>
   </g>
   <g>
    <path d="M 216.0432 256.32 
L 226.7568 256.32 
L 226.7568 210.093506 
L 216.0432 210.093506 
z" style="fill: #1f77b4"/>
   </g>
   <g>
    <path d="M 229.4352 256.32 
L 240.1488 256.32 
L 240.1488 202.293394 
L 229.4352 202.293394 
z" style="fill: #1f77b4"/>
   </g>
 </g>
</svg>