<svg xmlns:xlink="http://www.w3.org/1999/xlink" width="432pt" height="288pt" viewBox="0 0 432 288" xmlns="http://www.w3.org/2000/svg" version="1.1">
 <g>
   <g>
    <path d="M 68.7312 256.32 L 79.4448 256.32 L 79.4448 197.611082 L 68.7312 197.611082 z" style="fill: #1f77b4"/>
   </g>
   <g>
    <path d="M 82.1232 256.32 L 92.8368 256.32 L 92.8368 203.046647 L 82.1232 203.046647 z" style="fill: #1f77b4"/>
   </g>
   <g>
    <path d="M 95.5152 256.32 L 106.2288 256.32 L 106.2288 54.72 L 95.5152 54.72 z" style="fill: #1f77b4"/>
   </g>
   <g>
    <path d="M 108.9072 256.32 L 119.6208 256.32 L 119.6208 195.223052 L 108.9072 195.223052 z" style="fill: #1f77b4"/>
   </g>
   <g>
    <path d="M 122.2992 256.32 L 133.0128 256.32 L 133.0128 187.701945 L 122.2992 187.701945 z" style="fill: #1f77b4"/>
   </g>
   <g>
    <path d="M 135.6912 256.32 L 146.4048 256.32 L 146.4048 200.975294 L 135.6912 200.975294 z" style="fill: #1f77b4"/>
   </g>
   <g>
    <path d="M 149.0832 256.32 L 159.7968 256.32 L 159.7968 218.45383 L 149.0832 218.45383 z" style="fill: #1f77b4"/>
   </g>
   <g>
    <path d="M 162.4752 256.32 L 173.1888 256.32 L 173.1888 188.320485 L 162.4752 188.320485 z" style="fill: #1f77b4"/>
   </g>
   <g>
    <path d="M 175.8672 256.32 L 186.5808 256.32 L 186.5808 212.693739 L 175.8672 212.693739 z" style="fill: #1f77b4"/>
   </g>
   <g>
    <path d="M 189.2592 256.32 L 199.9728 256.32 L 199.9728 213.82852 L 189.2592 213.82852 z" style="fill: #1f77b4"/>
   </g>
   <g>
    <path d="M 202.6512 256.32 L 213.3648 256.32 L 213.3648 195.243243 L 202.6512 195.243243 z" style="fill: #1f77b4"/>
   </g>
 </g>
</svg>