<svg xmlns:xlink="http://www.w3.org/1999/xlink" width="432pt" height="288pt" viewBox="0 0 432 288" xmlns="http://www.w3.org/2000/svg" version="1.1">
 <g>
   <g>
    <path d="M 82.1232 256.32 L 92.8368 256.32 L 92.8368 189.312299 L 82.1232 189.312299 z" style="fill: #1f77b4"/>
   </g>
   <g>
    <path d="M 95.5152 256.32 L 106.2288 256.32 L 106.2288 54.72 L 95.5152 54.72 z" style="fill: #1f77b4"/>
   </g>
   <g>
    <path d="M 108.9072 256.32 L 119.6208 256.32 L 119.6208 193.401607 L 108.9072 193.401607 z" style="fill: #1f77b4"/>
   </g>
   <g>
    <path d="M 122.2992 256.32 L 133.0128 256.32 L 133.0128 203.897551 L 122.2992 203.897551 z" style="fill: #1f77b4"/>
   </g>
   <g>
    <path d="M 135.6912 256.32 L 146.4048 256.32 L 146.4048 206.098938 L 135.6912 206.098938 z" style="fill: #1f77b4"/>
   </g>
   <g>
    <path d="M 149.0832 256.32 L 159.7968 256.32 L 159.7968 203.450942 L 149.0832 203.450942 z" style="fill: #1f77b4"/>
   </g>
   <g>
    <path d="M 162.4752 256.32 L 173.1888 256.32 L 173.1888 186.587997 L 162.4752 186.587997 z" style="fill: #1f77b4"/>
   </g>
   <g>
    <path d="M 175.8672 256.32 L 186.5808 256.32 L 186.5808 200.708581 L 175.8672 200.708581 z" style="fill: #1f77b4"/>
   </g>
   <g>
    <path d="M 189.2592 256.32 L 199.9728 256.32 L 199.9728 200.921376 L 189.2592 200.921376 z" style="fill: #1f77b4"/>
   </g>
   <g>
    <path d="M 202.6512 256.32 L 213.3648 256.32 L 213.3648 213.950708 L 202.6512 213.950708 z" style="fill: #1f77b4"/>
   </g>
   <g>
    <path d="M 216.0432 256.32 L 226.7568 256.32 L 226.7568 203.511387 L 216.0432 203.511387 z" style="fill: #1f77b4"/>
   </g>
   <g>
    <path d="M 229.4352 256.32 L 240.1488 256.32 L 240.1488 193.614952 L 229.4352 193.614952 z" style="fill: #1f77b4"/>
   </g>
   <g>
    <path d="M 242.8272 256.32 L 253.5408 256.32 L 253.5408 204.212021 L 242.8272 204.212021 z" style="fill: #1f77b4"/>
   </g>
   <g>
    <path d="M 256.2192 256.32 L 266.9328 256.32 L 266.9328 190.990443 L 256.2192 190.990443 z" style="fill: #1f77b4"/>
   </g>
 </g>
</svg>