<svg xmlns:xlink="http://www.w3.org/1999/xlink" width="432pt" height="288pt" viewBox="0 0 432 288" xmlns="http://www.w3.org/2000/svg" version="1.1">
 <g>
   <g>
    <path d="M 108.9072 256.32 L 119.6208 256.32 L 119.6208 190.603307 L 108.9072 190.603307 z" style="fill: #1f77b4"/>
   </g>
   <g>
    <path d="M 122.2992 256.32 L 133.0128 256.32 L 133.0128 194.271788 L 122.2992 194.271788 z" style="fill: #1f77b4"/>
   </g>
   <g>
    <path d="M 135.6912 256.32 L 146.4048 256.32 L 146.4048 193.180761 L 135.6912 193.180761 z" style="fill: #1f77b4"/>
   </g>
   <g>
    <path d="M 149.0832 256.32 L 159.7968 256.32 L 159.7968 193.90385 L 149.0832 193.90385 z" style="fill: #1f77b4"/>
   </g>
   <g>
    <path d="M 162.4752 256.32 L 173.1888 256.32 L 173.1888 211.883204 L 162.4752 211.883204 z" style="fill: #1f77b4"/>
   </g>
   <g>
    <path d="M 175.8672 256.32 L 186.5808 256.32 L 186.5808 210.67554 L 175.8672 210.67554 z" style="fill: #1f77b4"/>
   </g>
   <g>
    <path d="M 189.2592 256.32 L 199.9728 256.32 L 199.9728 192.102639 L 189.2592 192.102639 z" style="fill: #1f77b4"/>
   </g>
   <g>
    <path d="M 202.6512 256.32 L 213.3648 256.32 L 213.3648 211.569865 L 202.6512 211.569865 z" style="fill: #1f77b4"/>
   </g>
   <g>
    <path d="M 216.0432 256.32 L 226.7568 256.32 L 226.7568 190.513926 L 216.0432 190.513926 z" style="fill: #1f77b4"/>
   </g>
   <g>
    <path d="M 229.4352 256.32 L 240.1488 256.32 L 240.1488 213.391361 L 229.4352 213.391361 z" style="fill: #1f77b4"/>
   </g>
 </g>
</svg>