<svg xmlns:xlink="http://www.w3.org/1999/xlink" width="432pt" height="288pt" viewBox="0 0 432 288" xmlns="http://www.w3.org/2000/svg" version="1.1">
 <g>
   <g>
    <path d="M 68.7312 256.32 L 79.4448 256.32 L 79.4448 210.212238 L 68.7312 210.212238 z" style="fill: #1f77b4"/>
   </g>
   <g>
    <path d="M 82.1232 256.32 L 92.8368 256.32 L 92.8368 199.778736 L 82.1232 199.778736 z" style="fill: #1f77b4"/>
   </g>
   <g>
    <path d="M 95.5152 256.32 L 106.2288 256.32 L 106.2288 203.712078 L 95.5152 203.712078 z" style="fill: #1f77b4"/>
   </g>
   <g>
    <path d="M 108.9072 256.32 L 119.6208 256.32 L 119.6208 54.72 L 108.9072 54.72 z" style="fill: #1f77b4"/>
   </g>
   <g>
    <path d="M 122.2992 256.32 L 133.0128 256.32 L 133.0128 210.244551 L 122.2992 210.244551 z" style="fill: #1f77b4"/>
   </g>
   <g>
    <path d="M 135.6912 256.32 L 146.4048 256.32 L 146.4048 187.803878 L 135.6912 187.803878 z" style="fill: #1f77b4"/>
   </g>
   <g>
    <path d="M 149.0832 256.32 L 159.7968 256.32 L 159.7968 189.397555 L 149.0832 189.397555 z" style="fill: #1f77b4"/>
   </g>
   <g>
    <path d="M 162.4752 256.32 L 173.1888 256.32 L 173.1888 200.665895 L 162.4752 200.665895 z" style="fill: #1f77b4"/>
   </g>
   <g>
    <path d="M 175.8672 256.32 L 186.5808 256.32 L 186.5808 193.534201 L 175.8672 193.534201 z" style="fill: #1f77b4"/>
   </g>
 </g>
</svg>