<svg xmlns:xlink="http://www.w3.org/1999/xlink" width="432pt" height="288pt" viewBox="0 0 432 288" xmlns="http://www.w3.org/2000/svg" version="1.1">
 <defs>
  <style type="text/css">*{stroke-linejoin: round; stroke-linecap: butt}</style>
 </defs>
 <g>
   <g>
    <path d="M 82.1232 256.32 
L 92.8368 256.32 
L 92.8368 187.936517 
L 82.1232 187.936517 
z
" style="fill: #1f77b4"/>
   </g>
   <g>
    <path d="M 95.5152 256.32 
L 106.2288 256.32 
L 106.2288 213.612244 
L 95.5152 213.612244 
z
" style="fill: #1f77b4"/>
   </g>
   <g>
    <path d="M 108.9072 256.32 
L 119.6208 256.32 
L 119.6208 201.447162 
L 108.9072 201.447162 
z
" style="fill: #1f77b4"/>
   </g>
   <g>
    <path d="M 122.2992 256.32 
L 133.0128 256.32 
L 133.0128 184.360602 
L 122.2992 184.360602 
z
" style="fill: #1f77b4"/>
   </g>
   <g>
    <path d="M 135.6912 256.32 
L 146.4048 256.32 
L 146.4048 200.211021 
L 135.6912 200.211021 
z
" style="fill: #1f77b4"/>
   </g>
   <g>
    <path d="M 149.0832 256.32 
L 159.7968 256.32 
L 159.7968 217.802143 
L 149.0832 217.802143 
z
" style="fill: #1f77b4"/>
   </g>
   <g>
    <path d="M 162.4752 256.32 
L 173.1888 256.32 
L 173.1888 214.129581 
L 162.4752 214.129581 
z
" style="fill: #1f77b4"/>
   </g>
   <g>
    <path d="M 175.8672 256.32 
L 186.5808 256.32 
L 186.5808 218.817948 
L 175.8672 218.817948 
z
" style="fill: #1f77b4"/>
   </g>
   <g>
    <path d="M 189.2592 256.32 
L 199.9728 256.32 
L 199.9728 184.651268 
L 189.2592 184.651268 
z
" style="fill: #1f77b4"/>
   </g>
   <g>
    <path d="M 202.6512 256.32 
L 213.3648 256.32 
L 213.3648 197.872541 
L 202.6512 197.872541 
z
" style="fill: #1f77b4"/>
   </g>
 </g>
</svg>