<svg xmlns:xlink="http://www.w3.org/1999/xlink" width="432pt" height="288pt" viewBox="0 0 432 288" xmlns="http://www.w3.org/2000/svg" version="1.1">
 <defs>
  <style type="text/css">*{stroke-linejoin: round; stroke-linecap: butt}</style>
 </defs>
 <g>
   <g>
    <path d="M 68.7312 256.32 
L 79.4448 256.32 
L 79.4448 196.258659 
L 68.7312 196.258659 
z
" style="fill: #1f77b4"/>
   </g>
   <g>
    <path d="M 82.1232 256.32 
L 92.8368 256.32 
L 92.8368 204.753644 
L 82.1232 204.753644 
z
" style="fill: #1f77b4"/>
   </g>
   <g>
    <path d="M 95.5152 256.32 
L 106.2288 256.32 
L 106.2288 192.501562 
L 95.5152 192.501562 
z
" style="fill: #1f77b4"/>
   </g>
   <g>
    <path d="M 108.9072 256.32 
L 119.6208 256.32 
L 119.6208 202.64146 
L 108.9072 202.64146 
z
" style="fill: #1f77b4"/>
   </g>
   <g>
    <path d="M 122.2992 256.32 
L 133.0128 256.32 
L 133.0128 180.286769 
L 122.2992 180.286769 
z
" style="fill: #1f77b4"/>
   </g>
   <g>
    <path d="M 135.6912 256.32 
L 146.4048 256.32 
L 146.4048 201.238869 
L 135.6912 201.238869 
z
" style="fill: #1f77b4"/>
   </g>
   <g>
    <path d="M 149.0832 256.32 
L 159.7968 256.32 
L 159.7968 179.919322 
L 149.0832 179.919322 
z
" style="fill: #1f77b4"/>
   </g>
   <g>
    <path d="M 162.4752 256.32 
L 173.1888 256.32 
L 173.1888 54.72 
L 162.4752 54.72 
z
" style="fill: #1f77b4"/>
   </g>
   <g>
    <path d="M 175.8672 256.32 
L 186.5808 256.32 
L 186.5808 175.226901 
L 175.8672 175.226901 
z
" style="fill: #1f77b4"/>
   </g>
   <g>
    <path d="M 189.2592 256.32 
L 199.9728 256.32 
L 199.9728 189.250133 
L 189.2592 189.250133 
z
" style="fill: #1f77b4"/>
   </g>
   <g>
    <path d="M 202.6512 256.32 
L 213.3648 256.32 
L 213.3648 194.541162 
L 202.6512 194.541162 
z
" style="fill: #1f77b4"/>
   </g>
   <g>
    <path d="M 216.0432 256.32 
L 226.7568 256.32 
L 226.7568 186.458119 
L 216.0432 186.458119 
z
" style="fill: #1f77b4"/>
   </g>
   <g>
    <path d="M 229.4352 256.32 
L 240.1488 256.32 
L 240.1488 174.132716 
L 229.4352 174.132716 
z
" style="fill: #1f77b4"/>
   </g>
 </g>
</svg>