<svg xmlns:xlink="http://www.w3.org/1999/xlink" width="432pt" height="288pt" viewBox="0 0 432 288" xmlns="http://www.w3.org/2000/svg" version="1.1">
 <defs>
  <style type="text/css">*{stroke-linejoin: round; stroke-linecap: butt}</style>
 </defs>
 <g>
   <g>
    <path d="M 122.2992 256.32 
L 133.0128 256.32 
L 133.0128 215.046329 
L 122.2992 215.046329 
z
" style="fill: #1f77b4"/>
   </g>
   <g>
    <path d="M 135.6912 256.32 
L 146.4048 256.32 
L 146.4048 213.734707 
L 135.6912 213.734707 
z
" style="fill: #1f77b4"/>
   </g>
   <g>
    <path d="M 149.0832 256.32 
L 159.7968 256.32 
L 159.7968 252.868304 
L 149.0832 252.868304 
z
" style="fill: #1f77b4"/>
   </g>
   <g>
    <path d="M 162.4752 256.32 
L 173.1888 256.32 
L 173.1888 193.079811 
L 162.4752 193.079811 
z
" style="fill: #1f77b4"/>
   </g>
   <g>
    <path d="M 175.8672 256.32 
L 186.5808 256.32 
L 186.5808 205.667976 
L 175.8672 205.667976 
z
" style="fill: #1f77b4"/>
   </g>
   <g>
    <path d="M 189.2592 256.32 
L 199.9728 256.32 
L 199.9728 195.529757 
L 189.2592 195.529757 
z
" style="fill: #1f77b4"/>
   </g>
   <g>
    <path d="M 202.6512 256.32 
L 213.3648 256.32 
L 213.3648 188.314701 
L 202.6512 188.314701 
z
" style="fill: #1f77b4"/>
   </g>
   <g>
    <path d="M 216.0432 256.32 
L 226.7568 256.32 
L 226.7568 193.516495 
L 216.0432 193.516495 
z
" style="fill: #1f77b4"/>
   </g>
   <g>
    <path d="M 229.4352 256.32 
L 240.1488 256.32 
L 240.1488 206.212994 
L 229.4352 206.212994 
z
" style="fill: #1f77b4"/>
   </g>
 </g>
</svg>