<svg xmlns:xlink="http://www.w3.org/1999/xlink" width="432pt" height="288pt" viewBox="0 0 432 288" xmlns="http://www.w3.org/2000/svg" version="1.1">
 <defs>
  <style type="text/css">*{stroke-linejoin: round; stroke-linecap: butt}</style>
 </defs>
 <g>
  <g>
    <path d="M 108.9072 256.32 L 119.6208 256.32 L 119.6208 208.472949 L 108.9072 208.472949 z" style="fill: #1f77b4"/>
   </g>
   <g>
    <path d="M 122.2992 256.32 L 133.0128 256.32 L 133.0128 188.365967 L 122.2992 188.365967 z" style="fill: #1f77b4"/>
   </g>
   <g>
    <path d="M 135.6912 256.32 L 146.4048 256.32 L 146.4048 207.321151 L 135.6912 207.321151 z" style="fill: #1f77b4"/>
   </g>
   <g>
    <path d="M 149.0832 256.32 L 159.7968 256.32 L 159.7968 191.280493 L 149.0832 191.280493 z" style="fill: #1f77b4"/>
   </g>
   <g>
    <path d="M 162.4752 256.32 L 173.1888 256.32 L 173.1888 194.433533 L 162.4752 194.433533 z" style="fill: #1f77b4"/>
   </g>
   <g>
    <path d="M 175.8672 256.32 L 186.5808 256.32 L 186.5808 197.008809 L 175.8672 197.008809 z" style="fill: #1f77b4"/>
   </g>
   <g>
    <path d="M 189.2592 256.32 L 199.9728 256.32 L 199.9728 219.316997 L 189.2592 219.316997 z" style="fill: #1f77b4"/>
   </g>
   <g>
    <path d="M 202.6512 256.32 L 213.3648 256.32 L 213.3648 207.848623 L 202.6512 207.848623 z" style="fill: #1f77b4"/>
   </g>
 </g>
</svg>