<svg xmlns:xlink="http://www.w3.org/1999/xlink" width="432pt" height="288pt" viewBox="0 0 432 288" xmlns="http://www.w3.org/2000/svg" version="1.1">
 <g>
   <g>
    <path d="M 68.7312 256.32 L 79.4448 256.32 L 79.4448 214.196248 L 68.7312 214.196248 z" style="fill: #1f77b4"/>
   </g>
   <g>
    <path d="M 82.1232 256.32 L 92.8368 256.32 L 92.8368 192.845582 L 82.1232 192.845582 z" style="fill: #1f77b4"/>
   </g>
   <g>
    <path d="M 95.5152 256.32 L 106.2288 256.32 L 106.2288 195.544051 L 95.5152 195.544051 z" style="fill: #1f77b4"/>
   </g>
   <g>
    <path d="M 108.9072 256.32 L 119.6208 256.32 L 119.6208 188.128699 L 108.9072 188.128699 z" style="fill: #1f77b4"/>
   </g>
   <g>
    <path d="M 122.2992 256.32 L 133.0128 256.32 L 133.0128 202.223414 L 122.2992 202.223414 z" style="fill: #1f77b4"/>
   </g>
   <g>
    <path d="M 135.6912 256.32 L 146.4048 256.32 L 146.4048 215.284973 L 135.6912 215.284973 z" style="fill: #1f77b4"/>
   </g>
   <g>
    <path d="M 149.0832 256.32 L 159.7968 256.32 L 159.7968 214.457373 L 149.0832 214.457373 z" style="fill: #1f77b4"/>
   </g>
   <g>
    <path d="M 162.4752 256.32 L 173.1888 256.32 L 173.1888 203.564723 L 162.4752 203.564723 z" style="fill: #1f77b4"/>
   </g>
   <g>
    <path d="M 175.8672 256.32 L 186.5808 256.32 L 186.5808 221.797939 L 175.8672 221.797939 z" style="fill: #1f77b4"/>
   </g>
   <g>
    <path d="M 189.2592 256.32 L 199.9728 256.32 L 199.9728 203.288225 L 189.2592 203.288225 z" style="fill: #1f77b4"/>
   </g>
   <g>
    <path d="M 202.6512 256.32 L 213.3648 256.32 L 213.3648 215.606975 L 202.6512 215.606975 z" style="fill: #1f77b4"/>
   </g>
   <g>
    <path d="M 216.0432 256.32 L 226.7568 256.32 L 226.7568 202.890521 L 216.0432 202.890521 z" style="fill: #1f77b4"/>
   </g>
   <g>
    <path d="M 229.4352 256.32 L 240.1488 256.32 L 240.1488 212.164258 L 229.4352 212.164258 z" style="fill: #1f77b4"/>
   </g>
   <g>
    <path d="M 242.8272 256.32 L 253.5408 256.32 L 253.5408 207.716468 L 242.8272 207.716468 z" style="fill: #1f77b4"/>
   </g>
   <g>
    <path d="M 256.2192 256.32 L 266.9328 256.32 L 266.9328 208.884864 L 256.2192 208.884864 z" style="fill: #1f77b4"/>
   </g>
 </g>
</svg>