<svg xmlns:xlink="http://www.w3.org/1999/xlink" width="432pt" height="288pt" viewBox="0 0 432 288" xmlns="http://www.w3.org/2000/svg" version="1.1">
 <g>
   <g>
    <path d="M 108.9072 256.32 L 119.6208 256.32 L 119.6208 205.685923 L 108.9072 205.685923 z" style="fill: #1f77b4"/>
   </g>
   <g>
    <path d="M 122.2992 256.32 L 133.0128 256.32 L 133.0128 205.208164 L 122.2992 205.208164 z" style="fill: #1f77b4"/>
   </g>
   <g>
    <path d="M 135.6912 256.32 L 146.4048 256.32 L 146.4048 214.934913 L 135.6912 214.934913 z" style="fill: #1f77b4"/>
   </g>
   <g>
    <path d="M 149.0832 256.32 L 159.7968 256.32 L 159.7968 190.773911 L 149.0832 190.773911 z" style="fill: #1f77b4"/>
   </g>
   <g>
    <path d="M 162.4752 256.32 L 173.1888 256.32 L 173.1888 206.968945 L 162.4752 206.968945 z" style="fill: #1f77b4"/>
   </g>
   <g>
    <path d="M 175.8672 256.32 L 186.5808 256.32 L 186.5808 192.280207 L 175.8672 192.280207 z" style="fill: #1f77b4"/>
   </g>
   <g>
    <path d="M 189.2592 256.32 L 199.9728 256.32 L 199.9728 205.788759 L 189.2592 205.788759 z" style="fill: #1f77b4"/>
   </g>
   <g>
    <path d="M 202.6512 256.32 L 213.3648 256.32 L 213.3648 201.091826 L 202.6512 201.091826 z" style="fill: #1f77b4"/>
   </g>
   <g>
    <path d="M 216.0432 256.32 L 226.7568 256.32 L 226.7568 190.562641 L 216.0432 190.562641 z" style="fill: #1f77b4"/>
   </g>
   <g>
    <path d="M 229.4352 256.32 L 240.1488 256.32 L 240.1488 196.419526 L 229.4352 196.419526 z" style="fill: #1f77b4"/>
   </g>
   <g>
    <path d="M 242.8272 256.32 L 253.5408 256.32 L 253.5408 185.968084 L 242.8272 185.968084 z" style="fill: #1f77b4"/>
   </g>
   <g>
    <path d="M 256.2192 256.32 L 266.9328 256.32 L 266.9328 216.038125 L 256.2192 216.038125 z" style="fill: #1f77b4"/>
   </g>
 </g>
</svg>