<svg xmlns:xlink="http://www.w3.org/1999/xlink" width="432pt" height="288pt" viewBox="0 0 432 288" xmlns="http://www.w3.org/2000/svg" version="1.1">
 <g>
   <g>
    <path d="M 68.7312 256.32 
L 79.4448 256.32 
L 79.4448 185.312271 
L 68.7312 185.312271 
z
" style="fill: #1f77b4"/>
   </g>
   <g>
    <path d="M 82.1232 256.32 
L 92.8368 256.32 
L 92.8368 205.135581 
L 82.1232 205.135581 
z
" style="fill: #1f77b4"/>
   </g>
   <g>
    <path d="M 95.5152 256.32 
L 106.2288 256.32 
L 106.2288 206.264085 
L 95.5152 206.264085 
z
" style="fill: #1f77b4"/>
   </g>
   <g>
    <path d="M 108.9072 256.32 
L 119.6208 256.32 
L 119.6208 210.939119 
L 108.9072 210.939119 
z
" style="fill: #1f77b4"/>
   </g>
   <g>
    <path d="M 122.2992 256.32 
L 133.0128 256.32 
L 133.0128 193.699457 
L 122.2992 193.699457 
z
" style="fill: #1f77b4"/>
   </g>
   <g>
    <path d="M 135.6912 256.32 
L 146.4048 256.32 
L 146.4048 180.910507 
L 135.6912 180.910507 
z
" style="fill: #1f77b4"/>
   </g>
   <g>
    <path d="M 149.0832 256.32 
L 159.7968 256.32 
L 159.7968 195.191233 
L 149.0832 195.191233 
z
" style="fill: #1f77b4"/>
   </g>
   <g>
    <path d="M 162.4752 256.32 
L 173.1888 256.32 
L 173.1888 212.317471 
L 162.4752 212.317471 
z
" style="fill: #1f77b4"/>
   </g>
   <g>
    <path d="M 175.8672 256.32 
L 186.5808 256.32 
L 186.5808 54.72 
L 175.8672 54.72 
z
" style="fill: #1f77b4"/>
   </g>
   <g>
    <path d="M 189.2592 256.32 
L 199.9728 256.32 
L 199.9728 181.238997 
L 189.2592 181.238997 
z
" style="fill: #1f77b4"/>
   </g>
   <g>
    <path d="M 202.6512 256.32 
L 213.3648 256.32 
L 213.3648 211.90119 
L 202.6512 211.90119 
z
" style="fill: #1f77b4"/>
   </g>
   <g>
    <path d="M 216.0432 256.32 
L 226.7568 256.32 
L 226.7568 185.80368 
L 216.0432 185.80368 
z
" style="fill: #1f77b4"/>
   </g>
   <g>
    <path d="M 229.4352 256.32 
L 240.1488 256.32 
L 240.1488 183.17086 
L 229.4352 183.17086 
z
" style="fill: #1f77b4"/>
   </g>
 </g>
</svg>