<svg xmlns:xlink="http://www.w3.org/1999/xlink" width="432pt" height="288pt" viewBox="0 0 432 288" xmlns="http://www.w3.org/2000/svg" version="1.1">
 <g>
   <g>
    <path d="M 68.7312 256.32 L 79.4448 256.32 L 79.4448 192.602266 L 68.7312 192.602266 z" style="fill: #1f77b4"/>
   </g>
   <g>
    <path d="M 82.1232 256.32 L 92.8368 256.32 L 92.8368 189.975151 L 82.1232 189.975151 z" style="fill: #1f77b4"/>
   </g>
   <g>
    <path d="M 95.5152 256.32 L 106.2288 256.32 L 106.2288 54.72 L 95.5152 54.72 z" style="fill: #1f77b4"/>
   </g>
   <g>
    <path d="M 108.9072 256.32 L 119.6208 256.32 L 119.6208 197.873235 L 108.9072 197.873235 z" style="fill: #1f77b4"/>
   </g>
   <g>
    <path d="M 122.2992 256.32 L 133.0128 256.32 L 133.0128 184.411472 L 122.2992 184.411472 z" style="fill: #1f77b4"/>
   </g>
   <g>
    <path d="M 135.6912 256.32 L 146.4048 256.32 L 146.4048 209.275846 L 135.6912 209.275846 z" style="fill: #1f77b4"/>
   </g>
   <g>
    <path d="M 149.0832 256.32 L 159.7968 256.32 L 159.7968 217.559963 L 149.0832 217.559963 z" style="fill: #1f77b4"/>
   </g>
   <g>
    <path d="M 162.4752 256.32 L 173.1888 256.32 L 173.1888 252.488931 L 162.4752 252.488931 z" style="fill: #1f77b4"/>
   </g>
 </g>
</svg>