<?xml version="1.0" standalone="no"?>
<!DOCTYPE svg PUBLIC "-//W3C//DTD SVG 1.1//EN" "http://www.w3.org/Graphics/SVG/1.1/DTD/svg11.dtd">
<svg width="432pt" height="288pt" viewBox="0 0 432 288" xmlns="http://www.w3.org/2000/svg" version="1.1">
  <g>
    <rect x="20" y="20" width="40" height="218" style="fill: #1f77b4"/>
    <rect x="80" y="20" width="40" height="201.646241" style="fill: #1f77b4"/>
    <rect x="140" y="20" width="40" height="213.186078" style="fill: #1f77b4"/>
    <rect x="200" y="20" width="40" height="214.825669" style="fill: #1f77b4"/>
    <rect x="260" y="20" width="40" height="212.845386" style="fill: #1f77b4"/>
    <rect x="320" y="20" width="40" height="212.722878" style="fill: #1f77b4"/>
    <rect x="380" y="20" width="40" height="208.893883" style="fill: #1f77b4"/>
    <rect x="440" y="20" width="40" height="206.695188" style="fill: #1f77b4"/>
    <rect x="500" y="20" width="40" height="205.646241" style="fill: #1f77b4"/>
    <rect x="560" y="20" width="40" height="204.60439" style="fill: #1f77b4"/>
    <rect x="620" y="20" width="40" height="202.441147" style="fill: #1f77b4"/>
    <rect x="680" y="20" width="40" height="201.825876" style="fill: #1f77b4"/>
    <rect x="740" y="20" width="40" height="197.692769" style="fill: #1f77b4"/>
    <rect x="800" y="20" width="40" height="195.591039" style="fill: #1f77b4"/>
    <rect x="860" y="20" width="40" height="190.901073" style="fill: #1f77b4"/>
    <rect x="920" y="20" width="40" height="190.863245" style="fill: #1f77b4"/>
    <rect x="980" y="20" width="40" height="189.641033" style="fill: #1f77b4"/>
    <rect x="1040" y="20" width="40" height="188.512687" style="fill: #1f77b4"/>
    <rect x="1100" y="20" width="40" height="187.499888" style="fill: #1f77b4"/>
    <rect x="1160" y="20" width="40" height="184.29112" style="fill: #1f77b4"/>
    <rect x="1220" y="20" width="40" height="183.173652" style="fill: #1f77b4"/>
    <rect x="1280" y="20" width="40" height="181.140624" style="fill: #1f77b4"/>
    <rect x="1340" y="20" width="40" height="180.644102" style="fill: #1f77b4"/>
    <rect x="1400" y="20" width="40" height="180.535453" style="fill: #1f77b4"/>
    <rect x="1460" y="20" width="40" height="54.72" style="fill: #1f77b4"/>
    <rect x="1520" y="20" width="40" height="252.472757" style="fill: #1f77b4"/>
    <rect x="1580" y="20" width="40" height="209.390603" style="fill: #1f77b4"/>
  </g>
</svg>