<?xml version="1.0" encoding="utf-8"?>
<svg xmlns:xlink="http://www.w3.org/1999/xlink" width="432pt" height="288pt" viewBox="0 0 432 288" xmlns="http://www.w3.org/2000/svg" version="1.1">
 <defs>
  <style type="text/css">*{stroke-linejoin: round; stroke-linecap: butt}</style>
 </defs>
 <g>
  <g>
   <path d="M 55.3392 256.32 L 66.0528 256.32 L 66.0528 252.155415 L 55.3392 252.155415 z" style="fill: #1f77b4"/>
   <path d="M 68.7312 256.32 L 79.4448 256.32 L 79.4448 213.159685 L 68.7312 213.159685 z" style="fill: #1f77b4"/>
   <path d="M 82.1232 256.32 L 92.8368 256.32 L 92.8368 210.379522 L 82.1232 210.379522 z" style="fill: #1f77b4"/>
   <path d="M 95.5152 256.32 L 106.2288 256.32 L 106.2288 210.259658 L 95.5152 210.259658 z" style="fill: #1f77b4"/>
   <path d="M 108.9072 256.32 L 119.6208 256.32 L 119.6208 209.305235 L 108.9072 209.305235 z" style="fill: #1f77b4"/>
   <path d="M 122.2992 256.32 L 133.0128 256.32 L 133.0128 208.554079 L 122.2992 208.554079 z" style="fill: #1f77b4"/>
   <path d="M 135.6912 256.32 L 146.4048 256.32 L 146.4048 208.297643 L 135.6912 208.297643 z" style="fill: #1f77b4"/>
   <path d="M 149.0832 256.32 L 159.7968 256.32 L 159.7968 206.382463 L 149.0832 206.382463 z" style="fill: #1f77b4"/>
   <path d="M 162.4752 256.32 L 173.1888 256.32 L 173.1888 204.006173 L 162.4752 204.006173 z" style="fill: #1f77b4"/>
   <path d="M 175.8672 256.32 L 186.5808 256.32 L 186.5808 202.474345 L 175.8672 202.474345 z" style="fill: #1f77b4"/>
   <path d="M 189.2592 256.32 L 199.9728 256.32 L 199.9728 202.152213 L 189.2592 202.152213 z" style="fill: #1f77b4"/>
   <path d="M 202.6512 256.32 L 213.3648 256.32 L 213.3648 202.076096 L 202.6512 202.076096 z" style="fill: #1f77b4"/>
   <path d="M 216.0432 256.32 L 226.7568 256.32 L 226.7568 197.609667 L 216.0432 197.609667 z" style="fill: #1f77b4"/>
   <path d="M 229.4352 256.32 L 240.1488 256.32 L 240.1488 196.870992 L 229.4352 196.870992 z" style="fill: #1f77b4"/>
   <path d="M 242.8272 256.32 L 253.5408 256.32 L 253.5408 191.544326 L 242.8272 191.544326 z" style="fill: #1f77b4"/>
   <path d="M 256.2192 256.32 L 266.9328 256.32 L 266.9328 189.341541 L 256.2192 189.341541 z" style="fill: #1f77b4"/>
   <path d="M 269.6112 256.32 L 280.3248 256.32 L 280.3248 188.14858 L 269.6112 188.14858 z" style="fill: #1f77b4"/>
   <path d="M 283.0032 256.32 L 293.7168 256.32 L 293.7168 186.659765 L 283.0032 186.659765 z" style="fill: #1f77b4"/>
   <path d="M 296.3952 256.32 L 307.1088 256.32 L 307.1088 184.3088 L 296.3952 184.3088 z" style="fill: #1f77b4"/>
   <path d="M 309.7872 256.32 L 320.5008 256.32 L 320.5008 182.240553 L 309.7872 182.240553 z" style="fill: #1f77b4"/>
   <path d="M 323.1792 256.32 L 333.8928 256.32 L 333.8928 181.907525 L 323.1792 181.907525 z" style="fill: #1f77b4"/>
   <path d="M 336.5712 256.32 L 347.2848 256.32 L 347.2848 180.162879 L 336.5712 180.162879 z" style="fill: #1f77b4"/>
   <path d="M 349.9632 256.32 L 360.6768 256.32 L 360.6768 179.804358 L 349.9632 179.804358 z" style="fill: #1f77b4"/>
   <path d="M 363.3552 256.32 L 374.0688 256.32 L 374.0688 174.944489 L 363.3552 174.944489 z" style="fill: #1f77b4"/>
   <path d="M 376.7472 256.32 L 387.4608 256.32 L 387.4608 54.72 L 376.7472 54.72 z" style="fill: #1f77b4"/>
  </g>
 </g>
</svg>