<?xml version="1.0" standalone="no"?>
<!DOCTYPE svg PUBLIC "-//W3C//DTD SVG 1.1//EN" "http://www.w3.org/Graphics/SVG/1.1/DTD/svg11.dtd">
<svg width="432pt" height="288pt" viewBox="0 0 432 288" xmlns="http://www.w3.org/2000/svg" version="1.1">
  <g>
    <rect x="20" y="20" width="30" height="252.488931" style="fill: #1f77b4"/>
    <rect x="60" y="20" width="30" height="217.971328" style="fill: #1f77b4"/>
    <rect x="100" y="20" width="30" height="217.559963" style="fill: #1f77b4"/>
    <rect x="140" y="20" width="30" height="214.681332" style="fill: #1f77b4"/>
    <rect x="180" y="20" width="30" height="214.519205" style="fill: #1f77b4"/>
    <rect x="220" y="20" width="30" height="209.275846" style="fill: #1f77b4"/>
    <rect x="260" y="20" width="30" height="207.053776" style="fill: #1f77b4"/>
    <rect x="300" y="20" width="30" height="205.679865" style="fill: #1f77b4"/>
    <rect x="340" y="20" width="30" height="205.34879" style="fill: #1f77b4"/>
    <rect x="380" y="20" width="30" height="205.118599" style="fill: #1f77b4"/>
    <rect x="420" y="20" width="30" height="203.641296" style="fill: #1f77b4"/>
    <rect x="460" y="20" width="30" height="203.299481" style="fill: #1f77b4"/>
    <rect x="500" y="20" width="30" height="200.916773" style="fill: #1f77b4"/>
    <rect x="540" y="20" width="30" height="198.936257" style="fill: #1f77b4"/>
    <rect x="580" y="20" width="30" height="197.972963" style="fill: #1f77b4"/>
    <rect x="620" y="20" width="30" height="197.873235" style="fill: #1f77b4"/>
    <rect x="660" y="20" width="30" height="192.602266" style="fill: #1f77b4"/>
    <rect x="700" y="20" width="30" height="189.975151" style="fill: #1f77b4"/>
    <rect x="740" y="20" width="30" height="189.73268" style="fill: #1f77b4"/>
    <rect x="780" y="20" width="30" height="185.09514" style="fill: #1f77b4"/>
    <rect x="820" y="20" width="30" height="184.411472" style="fill: #1f77b4"/>
    <rect x="860" y="20" width="30" height="182.962547" style="fill: #1f77b4"/>
    <rect x="900" y="20" width="30" height="182.299329" style="fill: #1f77b4"/>
    <rect x="940" y="20" width="30" height="54.72" style="fill: #1f77b4"/>
  </g>
</svg>