<?xml version="1.0" encoding="utf-8"?>
<svg xmlns:xlink="http://www.w3.org/1999/xlink" width="432pt" height="288pt" viewBox="0 0 432 288" xmlns="http://www.w3.org/2000/svg" version="1.1">
 <defs>
  <style type="text/css">*{stroke-linejoin: round; stroke-linecap: butt}</style>
 </defs>
 <g>
  <g>
    <path d="M 55.3392 256.32 L 66.0528 256.32 L 66.0528 252.595602 L 55.3392 252.595602 z" style="fill: #1f77b4"/>
    <path d="M 68.7312 256.32 L 79.4448 256.32 L 79.4448 215.247668 L 68.7312 215.247668 z" style="fill: #1f77b4"/>
    <path d="M 82.1232 256.32 L 92.8368 256.32 L 92.8368 213.529122 L 82.1232 213.529122 z" style="fill: #1f77b4"/>
    <path d="M 95.5152 256.32 L 106.2288 256.32 L 106.2288 213.126099 L 95.5152 213.126099 z" style="fill: #1f77b4"/>
    <path d="M 108.9072 256.32 L 119.6208 256.32 L 119.6208 213.040181 L 108.9072 213.040181 z" style="fill: #1f77b4"/>
    <path d="M 122.2992 256.32 L 133.0128 256.32 L 133.0128 211.508649 L 122.2992 211.508649 z" style="fill: #1f77b4"/>
    <path d="M 135.6912 256.32 L 146.4048 256.32 L 146.4048 210.587853 L 135.6912 210.587853 z" style="fill: #1f77b4"/>
    <path d="M 149.0832 256.32 L 159.7968 256.32 L 159.7968 206.852576 L 149.0832 206.852576 z" style="fill: #1f77b4"/>
    <path d="M 162.4752 256.32 L 173.1888 256.32 L 173.1888 205.864768 L 162.4752 205.864768 z" style="fill: #1f77b4"/>
    <path d="M 175.8672 256.32 L 186.5808 256.32 L 186.5808 203.881079 L 175.8672 203.881079 z" style="fill: #1f77b4"/>
    <path d="M 189.2592 256.32 L 199.9728 256.32 L 199.9728 199.657751 L 189.2592 199.657751 z" style="fill: #1f77b4"/>
    <path d="M 202.6512 256.32 L 213.3648 256.32 L 213.3648 197.736946 L 202.6512 197.736946 z" style="fill: #1f77b4"/>
    <path d="M 216.0432 256.32 L 226.7568 256.32 L 226.7568 192.737454 L 216.0432 192.737454 z" style="fill: #1f77b4"/>
    <path d="M 229.4352 256.32 L 240.1488 256.32 L 240.1488 192.58885 L 229.4352 192.58885 z" style="fill: #1f77b4"/>
    <path d="M 242.8272 256.32 L 253.5408 256.32 L 253.5408 190.602674 L 242.8272 190.602674 z" style="fill: #1f77b4"/>
    <path d="M 256.2192 256.32 L 266.9328 256.32 L 266.9328 187.668225 L 256.2192 187.668225 z" style="fill: #1f77b4"/>
    <path d="M 269.6112 256.32 L 280.3248 256.32 L 280.3248 187.356717 L 269.6112 187.356717 z" style="fill: #1f77b4"/>
    <path d="M 283.0032 256.32 L 293.7168 256.32 L 293.7168 187.027479 L 283.0032 187.027479 z" style="fill: #1f77b4"/>
    <path d="M 296.3952 256.32 L 307.1088 256.32 L 307.1088 186.652025 L 296.3952 186.652025 z" style="fill: #1f77b4"/>
    <path d="M 309.7872 256.32 L 320.5008 256.32 L 320.5008 186.538518 L 309.7872 186.538518 z" style="fill: #1f77b4"/>
    <path d="M 323.1792 256.32 L 333.8928 256.32 L 333.8928 185.042411 L 323.1792 185.042411 z" style="fill: #1f77b4"/>
    <path d="M 336.5712 256.32 L 347.2848 256.32 L 347.2848 183.236157 L 336.5712 183.236157 z" style="fill: #1f77b4"/>
    <path d="M 349.9632 256.32 L 360.6768 256.32 L 360.6768 195.894543 L 349.9632 195.894543 z" style="fill: #1f77b4"/>
    <path d="M 363.3552 256.32 L 374.0688 256.32 L 374.0688 54.72 L 363.3552 54.72 z" style="fill: #1f77b4"/>
  </g>
 </g>
</svg>