<?xml version="1.0" encoding="utf-8"?>
<svg xmlns:xlink="http://www.w3.org/1999/xlink" width="432pt" height="288pt" viewBox="0 0 432 288" xmlns="http://www.w3.org/2000/svg" version="1.1">
 <defs>
  <style type="text/css">*{stroke-linejoin: round; stroke-linecap: butt}</style>
 </defs>
 <g id="figure_1">
  <g id="patch_1">
   <path d="M 0 288 
L 432 288 
L 432 0 
L 0 0 
L 0 288 
z
" style="fill: none"/>
  </g>
  <g id="axes_1">
   <g id="patch_2">
    <path d="M 54 256.32 
L 388.8 256.32 
L 388.8 34.56 
L 54 34.56 
z
" style="fill: #ffffff"/>
   </g>
   <g id="patch_3">
    <path d="M 55.3392 256.32 
L 66.0528 256.32 
L 66.0528 210.953914 
L 55.3392 210.953914 
z
" clip-path="url(#p9f1870cdde)" style="fill: #1f77b4"/>
   </g>
   <g id="patch_4">
    <path d="M 68.7312 256.32 
L 79.4448 256.32 
L 79.4448 190.508138 
L 68.7312 190.508138 
z
" clip-path="url(#p9f1870cdde)" style="fill: #1f77b4"/>
   </g>
   <g id="patch_5">
    <path d="M 82.1232 256.32 
L 92.8368 256.32 
L 92.8368 203.872335 
L 82.1232 203.872335 
z
" clip-path="url(#p9f1870cdde)" style="fill: #1f77b4"/>
   </g>
   <g id="patch_6">
    <path d="M 95.5152 256.32 
L 106.2288 256.32 
L 106.2288 198.385169 
L 95.5152 198.385169 
z
" clip-path="url(#p9f1870cdde)" style="fill: #1f77b4"/>
   </g>
   <g id="patch_7">
    <path d="M 108.9072 256.32 
L 119.6208 256.32 
L 119.6208 209.776178 
L 108.9072 209.776178 
z
" clip-path="url(#p9f1870cdde)" style="fill: #1f77b4"/>
   </g>
   <g id="patch_8">
    <path d="M 122.2992 256.32 
L 133.0128 256.32 
L 133.0128 219.234113 
L 122.2992 219.234113 
z
" clip-path="url(#p9f1870cdde)" style="fill: #1f77b4"/>
   </g>
   <g id="patch_9">
    <path d="M 135.6912 256.32 
L 146.4048 256.32 
L 146.4048 54.72 
L 135.6912 54.72 
z
" clip-path="url(#p9f1870cdde)" style="fill: #1f77b4"/>
   </g>
   <g id="patch_10">
    <path d="M 149.0832 256.32 
L 159.7968 256.32 
L 159.7968 197.1832 
L 149.0832 197.1832 
z
" clip-path="url(#p9f1870cdde)" style="fill: #1f77b4"/>
   </g>
   <g id="patch_11">
    <path d="M 162.4752 256.32 
L 173.1888 256.32 
L 173.1888 211.399158 
L 162.4752 211.399158 
z
" clip-path="url(#p9f1870cdde)" style="fill: #1f77b4"/>
   </g>
   <g id="patch_12">
    <path d="M 175.8672 256.32 
L 186.5808 256.32 
L 186.5808 210.765572 
L 175.8672 210.765572 
z
" clip-path="url(#p9f1870cdde)" style="fill: #1f77b4"/>
   </g>
   <g id="patch_13">
    <path d="M 189.2592 256.32 
L 199.9728 256.32 
L 199.9728 217.751142 
L 189.2592 217.751142 
z
" clip-path="url(#p9f1870cdde)" style="fill: #1f77b4"/>
   </g>
   <g id="patch_14">
    <path d="M 202.6512 256.32 
L 213.3648 256.32 
L 213.3648 216.050221 
L 202.6512 216.050221 
z
" clip-path="url(#p9f1870cdde)" style="fill: #1f77b4"/>
   </g>
   <g id="patch_15">
    <path d="M 216.0432 256.32 
L 226.7568 256.32 
L 226.7568 208.572446 
L 216.0432 208.572446 
z
" clip-path="url(#p9f1870cdde)" style="fill: #1f77b4"/>
   </g>
   <g id="patch_16">
    <path d="M 229.4352 256.32 
L 240.1488 256.32 
L 240.1488 184.79434 
L 229.4352 184.79434 
z
" clip-path="url(#p9f1870cdde)" style="fill: #1f77b4"/>
   </g>
   <g id="patch_17">
    <path d="M 242.8272 256.32 
L 253.5408 256.32 
L 253.5408 198.59499 
L 242.8272 198.59499 
z
" clip-path="url(#p9f1870cdde)" style="fill: #1f77b4"/>
   </g>
   <g id="patch_18">
    <path d="M 256.2192 256.32 
L 266.9328 256.32 
L 266.9328 202.239379 
L 256.2192 202.239379 
z
" clip-path="url(#p9f1870cdde)" style="fill: #1f77b4"/>
   </g>
   <g id="patch_19">
    <path d="M 269.6112 256.32 
L 280.3248 256.32 
L 280.3248 193.904081 
L 269.6112 193.904081 
z
" clip-path="url(#p9f1870cdde)" style="fill: #1f77b4"/>
   </g>
   <g id="patch_20">
    <path d="M 283.0032 256.32 
L 293.7168 256.32 
L 293.7168 209.513096 
L 283.0032 209.513096 
z
" clip-path="url(#p9f1870cdde)" style="fill: #1f77b4"/>
   </g>
   <g id="patch_21">
    <path d="M 296.3952 256.32 
L 307.1088 256.32 
L 307.1088 200.748626 
L 296.3952 200.748626 
z
" clip-path="url(#p9f1870cdde)" style="fill: #1f77b4"/>
   </g>
   <g id="patch_22">
    <path d="M 309.7872 256.32 
L 320.5008 256.32 
L 320.5008 200.225335 
L 309.7872 200.225335 
z
" clip-path="url(#p9f1870cdde)" style="fill: #1f77b4"/>
   </g>
   <g id="patch_23">
    <path d="M 323.1792 256.32 
L 333.8928 256.32 
L 333.8928 252.728566 
L 323.1792 252.728566 
z
" clip-path="url(#p9f1870cdde)" style="fill: #1f77b4"/>
   </g>
   <g id="patch_24">
    <path d="M 336.5712 256.32 
L 347.2848 256.32 
L 347.2848 204.085094 
L 336.5712 204.085094 
z
" clip-path="url(#p9f1870cdde)" style="fill: #1f77b4"/>
   </g>
   <g id="patch_25">
    <path d="M 349.9632 256.32 
L 360.6768 256.32 
L 360.6768 184.806713 
L 349.9632 184.806713 
z
" clip-path="url(#p9f1870cdde)" style="fill: #1f77b4"/>
   </g>
   <g id="patch_26">
    <path d="M 363.3552 256.32 
L 374.0688 256.32 
L 374.0688 201.895815 
L 363.3552 201.895815 
z
" clip-path="url(#p9f1870cdde)" style="fill: #1f77b4"/>
   </g>
   <g id="patch_27">
    <path d="M 376.7472 256.32 
L 387.4608 256.32 
L 387.4608 203.97672 
L 376.7472 203.97672 
z
" clip-path="url(#p9f1870cdde)" style="fill: #1f77b4"/>
   </g>
  </g>
 </g>
 <defs>
  <clipPath id="p9f1870cdde">
   <rect x="54" y="34.56" width="334.8" height="221.76"/>
  </clipPath>
 </defs>
</svg>