<?xml version="1.0" encoding="utf-8"?>
<svg xmlns:xlink="http://www.w3.org/1999/xlink" width="432pt" height="288pt" viewBox="0 0 432 288" xmlns="http://www.w3.org/2000/svg" version="1.1">
 <defs>
  <style type="text/css">*{stroke-linejoin: round; stroke-linecap: butt}</style>
 </defs>
 <g>
  <g>
   <path d="M 0 288 
L 432 288 
L 432 0 
L 0 0 
L 0 288 
z
" style="fill: none"/>
  </g>
  <g>
   <g>
    <path d="M 54 256.32 
L 388.8 256.32 
L 388.8 34.56 
L 54 34.56 
z
" style="fill: #ffffff"/>
   </g>
   <g>
    <path d="M 55.3392 256.32 
L 66.0528 256.32 
L 66.0528 252.124035 
L 55.3392 252.124035 
z
" style="fill: #1f77b4"/>
   </g>
   <g>
    <path d="M 68.7312 256.32 
L 79.4448 256.32 
L 79.4448 213.391361 
L 68.7312 213.391361 
z
" style="fill: #1f77b4"/>
   </g>
   <g>
    <path d="M 82.1232 256.32 
L 92.8368 256.32 
L 92.8368 211.883204 
L 82.1232 211.883204 
z
" style="fill: #1f77b4"/>
   </g>
   <g>
    <path d="M 95.5152 256.32 
L 106.2288 256.32 
L 106.2288 211.569865 
L 95.5152 211.569865 
z
" style="fill: #1f77b4"/>
   </g>
   <g>
    <path d="M 108.9072 256.32 
L 119.6208 256.32 
L 119.6208 210.67554 
L 108.9072 210.67554 
z
" style="fill: #1f77b4"/>
   </g>
   <g>
    <path d="M 122.2992 256.32 
L 133.0128 256.32 
L 133.0128 208.789941 
L 122.2992 208.789941 
z
" style="fill: #1f77b4"/>
   </g>
   <g>
    <path d="M 135.6912 256.32 
L 146.4048 256.32 
L 146.4048 205.90279 
L 135.6912 205.90279 
z
" style="fill: #1f77b4"/>
   </g>
   <g>
    <path d="M 149.0832 256.32 
L 159.7968 256.32 
L 159.7968 205.090529 
L 149.0832 205.090529 
z
" style="fill: #1f77b4"/>
   </g>
   <g>
    <path d="M 162.4752 256.32 
L 173.1888 256.32 
L 173.1888 200.647777 
L 162.4752 200.647777 
z
" style="fill: #1f77b4"/>
   </g>
   <g>
    <path d="M 175.8672 256.32 
L 186.5808 256.32 
L 186.5808 197.421683 
L 175.8672 197.421683 
z
" style="fill: #1f77b4"/>
   </g>
   <g>
    <path d="M 189.2592 256.32 
L 199.9728 256.32 
L 199.9728 194.271788 
L 189.2592 194.271788 
z
" style="fill: #1f77b4"/>
   </g>
   <g>
    <path d="M 202.6512 256.32 
L 213.3648 256.32 
L 213.3648 193.90385 
L 202.6512 193.90385 
z
" style="fill: #1f77b4"/>
   </g>
   <g>
    <path d="M 216.0432 256.32 
L 226.7568 256.32 
L 226.7568 193.180761 
L 216.0432 193.180761 
z
" style="fill: #1f77b4"/>
   </g>
   <g>
    <path d="M 229.4352 256.32 
L 240.1488 256.32 
L 240.1488 190.812817 
L 229.4352 190.812817 
z
" style="fill: #1f77b4"/>
   </g>
   <g>
    <path d="M 242.8272 256.32 
L 253.5408 256.32 
L 253.5408 190.603307 
L 242.8272 190.603307 
z
" style="fill: #1f77b4"/>
   </g>
   <g>
    <path d="M 256.2192 256.32 
L 266.9328 256.32 
L 266.9328 190.513926 
L 256.2192 190.513926 
z
" style="fill: #1f77b4"/>
   </g>
   <g>
    <path d="M 269.6112 256.32 
L 280.3248 256.32 
L 280.3248 185.949927 
L 269.6112 185.949927 
z
" style="fill: #1f77b4"/>
   </g>
   <g>
    <path d="M 283.0032 256.32 
L 293.7168 256.32 
L 293.7168 183.628431 
L 283.0032 183.628431 
z
" style="fill: #1f77b4"/>
   </g>
   <g>
    <path d="M 296.3952 256.32 
L 307.1088 256.32 
L 307.1088 182.648974 
L 296.3952 182.648974 
z
" style="fill: #1f77b4"/>
   </g>
   <g>
    <path d="M 309.7872 256.32 
L 320.5008 256.32 
L 320.5008 181.839523 
L 309.7872 181.839523 
z
" style="fill: #1f77b4"/>
   </g>
   <g>
    <path d="M 323.1792 256.32 
L 333.8928 256.32 
L 333.8928 179.333396 
L 323.1792 179.333396 
z
" style="fill: #1f77b4"/>
   </g>
   <g>
    <path d="M 336.5712 256.32 
L 347.2848 256.32 
L 347.2848 172.536953 
L 336.5712 172.536953 
z
" style="fill: #1f77b4"/>
   </g>
   <g>
    <path d="M 349.9632 256.32 
L 360.6768 256.32 
L 360.6768 54.72 
L 349.9632 54.72 
z
" style="fill: #1f77b4"/>
   </g>
   <g>
    <path d="M 363.3552 256.32 
L 374.0688 256.32 
L 374.0688 196.649177 
L 363.3552 196.649177 
z
" style="fill: #1f77b4"/>
   </g>
   <g>
    <path d="M 376.7472 256.32 
L 387.4608 256.32 
L 387.4608 54.72 
L 376.7472 54.72 
z
" style="fill: #1f77b4"/>
   </g>
  </g>
 </g>
</svg>