<?xml version="1.0" encoding="utf-8"?>
<svg xmlns:xlink="http://www.w3.org/1999/xlink" width="432pt" height="288pt" viewBox="0 0 432 288" xmlns="http://www.w3.org/2000/svg" version="1.1">
 <defs>
  <style type="text/css">*{stroke-linejoin: round; stroke-linecap: butt}</style>
 </defs>
 <g>
  <g>
    <path d="M 10 256.32 L 20.7136 256.32 L 20.7136 54.72 L 10 54.72 z" style="fill: #1f77b4"/>
    <path d="M 30 256.32 L 40.7136 256.32 L 40.7136 185.968084 L 30 185.968084 z" style="fill: #1f77b4"/>
    <path d="M 50 256.32 L 60.7136 256.32 L 60.7136 190.562641 L 50 190.562641 z" style="fill: #1f77b4"/>
    <path d="M 70 256.32 L 80.7136 256.32 L 80.7136 190.773911 L 70 190.773911 z" style="fill: #1f77b4"/>
    <path d="M 90 256.32 L 100.7136 256.32 L 100.7136 192.280207 L 90 192.280207 z" style="fill: #1f77b4"/>
    <path d="M 110 256.32 L 120.7136 256.32 L 120.7136 192.847466 L 110 192.847466 z" style="fill: #1f77b4"/>
    <path d="M 130 256.32 L 140.7136 256.32 L 140.7136 196.419526 L 130 196.419526 z" style="fill: #1f77b4"/>
    <path d="M 150 256.32 L 160.7136 256.32 L 160.7136 184.916924 L 150 184.916924 z" style="fill: #1f77b4"/>
    <path d="M 170 256.32 L 180.7136 256.32 L 180.7136 201.091826 L 170 201.091826 z" style="fill: #1f77b4"/>
    <path d="M 190 256.32 L 200.7136 256.32 L 200.7136 203.728379 L 190 203.728379 z" style="fill: #1f77b4"/>
    <path d="M 210 256.32 L 220.7136 256.32 L 220.7136 205.208164 L 210 205.208164 z" style="fill: #1f77b4"/>
    <path d="M 230 256.32 L 240.7136 256.32 L 240.7136 205.685923 L 230 205.685923 z" style="fill: #1f77b4"/>
    <path d="M 250 256.32 L 260.7136 256.32 L 260.7136 205.788759 L 250 205.788759 z" style="fill: #1f77b4"/>
    <path d="M 270 256.32 L 280.7136 256.32 L 280.7136 206.968945 L 270 206.968945 z" style="fill: #1f77b4"/>
    <path d="M 290 256.32 L 300.7136 256.32 L 300.7136 208.607217 L 290 208.607217 z" style="fill: #1f77b4"/>
    <path d="M 310 256.32 L 320.7136 256.32 L 320.7136 214.934913 L 310 214.934913 z" style="fill: #1f77b4"/>
    <path d="M 330 256.32 L 340.7136 256.32 L 340.7136 215.847043 L 330 215.847043 z" style="fill: #1f77b4"/>
    <path d="M 350 256.32 L 360.7136 256.32 L 360.7136 216.038125 L 350 216.038125 z" style="fill: #1f77b4"/>
    <path d="M 370 256.32 L 380.7136 256.32 L 380.7136 216.621052 L 370 216.621052 z" style="fill: #1f77b4"/>
    <path d="M 390 256.32 L 400.7136 256.32 L 400.7136 216.882773 L 390 216.882773 z" style="fill: #1f77b4"/>
    <path d="M 410 256.32 L 420.7136 256.32 L 420.7136 217.483224 L 410 217.483224 z" style="fill: #1f77b4"/>
    <path d="M 430 256.32 L 440.7136 256.32 L 440.7136 217.533845 L 430 217.533845 z" style="fill: #1f77b4"/>
    <path d="M 450 256.32 L 460.7136 256.32 L 460.7136 219.65679 L 450 219.65679 z" style="fill: #1f77b4"/>
    <path d="M 470 256.32 L 480.7136 256.32 L 480.7136 252.742895 L 470 252.742895 z" style="fill: #1f77b4"/>
  </g>
 </g>
</svg>