<?xml version="1.0" standalone="no"?>
<svg width="432pt" height="288pt" viewBox="0 0 432 288" xmlns="http://www.w3.org/2000/svg" version="1.1">
  <defs>
    <style type="text/css">*{stroke-linejoin:round;stroke-linecap:butt;}</style>
  </defs>
  <g>
    <g>
      <path d="M 323.1792 256.32 L 333.8928 256.32 L 333.8928 252.728566 L 323.1792 252.728566 z" style="fill: #1f77b4"/>
      <text x="323" y="262" font-family="Arial" font-size="10" fill="black">28.07</text>
    </g>
    <g>
      <path d="M 135.6912 256.32 L 146.4048 256.32 L 146.4048 54.72 L 135.6912 54.72 z" style="fill: #1f77b4"/>
      <text x="135" y="262" font-family="Arial" font-size="10" fill="black">9.96</text>
    </g>
    <g>
      <path d="M 283.0032 256.32 L 293.7168 256.32 L 293.7168 209.513096 L 283.0032 209.513096 z" style="fill: #1f77b4"/>
      <text x="283" y="262" font-family="Arial" font-size="10" fill="black">9.16</text>
    </g>
    <g>
      <path d="M 82.1232 256.32 L 92.8368 256.32 L 92.8368 203.872335 L 82.1232 203.872335 z" style="fill: #1f77b4"/>
      <text x="82" y="262" font-family="Arial" font-size="10" fill="black">8.07</text>
    </g>
    <g>
      <path d="M 122.2992 256.32 L 133.0128 256.32 L 133.0128 219.234113 L 122.2992 219.234113 z" style="fill: #1f77b4"/>
      <text x="122" y="262" font-family="Arial" font-size="10" fill="black">8.23</text>
    </g>
    <g>
      <path d="M 162.4752 256.32 L 173.1888 256.32 L 173.1888 211.399158 L 162.4752 211.399158 z" style="fill: #1f77b4"/>
      <text x="162" y="262" font-family="Arial" font-size="10" fill="black">8.69</text>
    </g>
    <g>
      <path d="M 189.2592 256.32 L 199.9728 256.32 L 199.9728 217.751142 L 189.2592 217.751142 z" style="fill: #1f77b4"/>
      <text x="189" y="262" font-family="Arial" font-size="10" fill="black">7.74</text>
    </g>
    <g>
      <path d="M 202.6512 256.32 L 213.3648 256.32 L 213.3648 216.050221 L 202.6512 216.050221 z" style="fill: #1f77b4"/>
      <text x="202" y="262" font-family="Arial" font-size="10" fill="black">7.81</text>
    </g>
    <g>
      <path d="M 229.4352 256.32 L 240.1488 256.32 L 240.1488 184.79434 L 229.4352 184.79434 z" style="fill: #1f77b4"/>
      <text x="229" y="262" font-family="Arial" font-size="10" fill="black">7.53</text>
    </g>
    <g>
      <path d="M 242.8272 256.32 L 253.5408 256.32 L 253.5408 198.59499 L 242.8272 198.59499 z" style="fill: #1f77b4"/>
      <text x="242" y="262" font-family="Arial" font-size="10" fill="black">7.29</text>
    </g>
    <g>
      <path d="M 256.2192 256.32 L 266.9328 256.32 L 266.9328 202.239379 L 256.2192 202.239379 z" style="fill: #1f77b4"/>
      <text x="256" y="262" font-family="Arial" font-size="10" fill="black">7.27</text>
    </g>
    <g>
      <path d="M 269.6112 256.32 L 280.3248 256.32 L 280.3248 193.904081 L 269.6112 193.904081 z" style="fill: #1f77b4"/>
      <text x="269" y="262" font-family="Arial" font-size="10" fill="black">6.65</text>
    </g>
    <g>
      <path d="M 296.3952 256.32 L 307.1088 256.32 L 307.1088 200.748626 L 296.3952 200.748626 z" style="fill: #1f77b4"/>
      <text x="296" y="262" font-family="Arial" font-size="10" fill="black">6.52</text>
    </g>
    <g>
      <path d="M 309.7872 256.32 L 320.5008 256.32 L 320.5008 200.225335 L 309.7872 200.225335 z" style="fill: #1f77b4"/>
      <text x="309" y="262" font-family="Arial" font-size="10" fill="black">6.48</text>
    </g>
    <g>
      <path d="M 336.5712 256.32 L 347.2848 256.32 L 347.2848 204.085094 L 336.5712 204.085094 z" style="fill: #1f77b4"/>
      <text x="336" y="262" font-family="Arial" font-size="10" fill="black">6.34</text>
    </g>
    <g>
      <path d="M 349.9632 256.32 L 360.6768 256.32 L 360.6768 184.806713 L 349.9632 184.806713 z" style="fill: #1f77b4"/>
      <text x="349" y="262" font-family="Arial" font-size="10" fill="black">6.25</text>
    </g>
    <g>
      <path d="M 363.3552 256.32 L 374.0688 256.32 L 374.0688 201.895815 L 363.3552 201.895815 z" style="fill: #1f77b4"/>
      <text x="363" y="262" font-family="Arial" font-size="10" fill="black">5.61</text>
    </g>
    <g>
      <path d="M 376.7472 256.32 L 387.4608 256.32 L 387.4608 203.97672 L 376.7472 203.97672 z" style="fill: #1f77b4"/>
      <text x="376" y="262" font-family="Arial" font-size="10" fill="black">5.37</text>
    </g>
    <g>
      <path d="M 149.0832 256.32 L 159.7968 256.32 L 159.7968 197.1832 L 149.0832 197.1832 z" style="fill: #1f77b4"/>
      <text x="149" y="262" font-family="Arial" font-size="10" fill="black">5.16</text>
    </g>
    <g>
      <path d="M 216.0432 256.32 L 226.7568 256.32 L 226.7568 208.572446 L 216.0432 208.572446 z" style="fill: #1f77b4"/>
      <text x="216" y="262" font-family="Arial" font-size="10" fill="black">0.50</text>
    </g>
  </g>
</svg>