<?xml version="1.0" standalone="no"?>
<!DOCTYPE svg PUBLIC "-//W3C//DTD SVG 20010904//EN"
 "http://www.w3.org/TR/2001/REC-SVG-20010904/DTD/svg10.dtd">
<svg version="1.0" xmlns="http://www.w3.org/2000/svg"
 width="800.000000pt" height="600.000000pt" viewBox="0 0 800.000000 600.000000"
 preserveAspectRatio="xMidYMid meet">
<g transform="translate(0.000000,600.000000) scale(0.100000,-0.100000)"
fill="#000000" stroke="none">
<path fill="#1f77b4" d="M4000 5900 l0 -310 195 0 195 0 0 310 0 310 -195 0 -195 0 0 -310z"/>
<path fill="#1f77b4" d="M3600 5700 l0 -110 195 0 195 0 0 110 0 110 -195 0 -195 0 0 -110z"/>
<path fill="#1f77b4" d="M3200 5800 l0 -210 195 0 195 0 0 210 0 210 -195 0 -195 0 0 -210z"/>
<path fill="#1f77b4" d="M2800 5700 l0 -110 195 0 195 0 0 110 0 110 -195 0 -195 0 0 -110z"/>
<path fill="#1f77b4" d="M2400 5800 l0 -210 195 0 195 0 0 210 0 210 -195 0 -195 0 0 -210z"/>
<path fill="#1f77b4" d="M2000 5700 l0 -110 195 0 195 0 0 110 0 110 -195 0 -195 0 0 -110z"/>
<path fill="#1f77b4" d="M1600 5800 l0 -210 195 0 195 0 0 210 0 210 -195 0 -195 0 0 -210z"/>
<path fill="#1f77b4" d="M1200 5700 l0 -110 195 0 195 0 0 110 0 110 -195 0 -195 0 0 -110z"/>
<path fill="#1f77b4" d="M800 5800 l0 -210 195 0 195 0 0 210 0 210 -195 0 -195 0 0 -210z"/>
<path fill="#1f77b4" d="M400 5700 l0 -110 195 0 195 0 0 110 0 110 -195 0 -195 0 0 -110z"/>
</g>
</svg>