<?xml version="1.0" standalone="no"?>
<!DOCTYPE svg PUBLIC "-//W3C//DTD SVG 20010904//EN"
 "http://www.w3.org/TR/2001/REC-SVG-20010904/DTD/svg10.dtd">
<svg version="1.0" xmlns="http://www.w3.org/2000/svg"
 width="800.000000pt" height="600.000000pt" viewBox="0 0 800.000000 600.000000"
 preserveAspectRatio="xMidYMid meet">
  <g transform="translate(0.000000,600.000000) scale(0.100000,-0.100000)"
  fill="#000000" stroke="none">
    <rect x="100" y="4400" width="200" height="1600" style="fill:#1f77b4;stroke:none;"/>
    <text x="120" y="4200" fill="#000000" font-family="Verdana" font-size="200">27.85</text>
    <rect x="400" y="4400" width="200" height="940" style="fill:#1f77b4;stroke:none;"/>
    <text x="420" y="4200" fill="#000000" font-family="Verdana" font-size="200">9.94</text>
    <rect x="700" y="4400" width="200" height="940" style="fill:#1f77b4;stroke:none;"/>
    <text x="720" y="4200" fill="#000000" font-family="Verdana" font-size="200">9.90</text>
    <rect x="1000" y="4400" width="200" height="920" style="fill:#1f77b4;stroke:none;"/>
    <text x="1020" y="4200" fill="#000000" font-family="Verdana" font-size="200">9.74</text>
    <rect x="1300" y="4400" width="200" height="920" style="fill:#1f77b4;stroke:none;"/>
    <text x="1320" y="4200" fill="#000000" font-family="Verdana" font-size="200">9.72</text>
    <rect x="1600" y="4400" width="200" height="900" style="fill:#1f77b4;stroke:none;"/>
    <text x="1620" y="4200" fill="#000000" font-family="Verdana" font-size="200">9.45</text>
    <rect x="1900" y="4400" width="200" height="760" style="fill:#1f77b4;stroke:none;"/>
    <text x="1920" y="4200" fill="#000000" font-family="Verdana" font-size="200">7.75</text>
    <rect x="2200" y="4400" width="200" height="760" style="fill:#1f77b4;stroke:none;"/>
    <text x="2220" y="4200" fill="#000000" font-family="Verdana" font-size="200">7.67</text>
    <rect x="2500" y="4400" width="200" height="750" style="fill:#1f77b4;stroke:none;"/>
    <text x="2520" y="4200" fill="#000000" font-family="Verdana" font-size="200">7.58</text>
    <rect x="2800" y="4400" width="200" height="750" style="fill:#1f77b4;stroke:none;"/>
    <text x="2820" y="4200" fill="#000000" font-family="Verdana" font-size="200">7.57</text>
    <rect x="3100" y="4400" width="200" height="740" style="fill:#1f77b4;stroke:none;"/>
    <text x="3120" y="4200" fill="#000000" font-family="Verdana" font-size="200">7.48</text>
    <rect x="3400" y="4400" width="200" height="740" style="fill:#1f77b4;stroke:none;"/>
    <text x="3420" y="4200" fill="#000000" font-family="Verdana" font-size="200">7.42</text>
    <rect x="3700" y="4400" width="200" height="730" style="fill:#1f77b4;stroke:none;"/>
    <text x="3720" y="4200" fill="#000000" font-family="Verdana" font-size="200">7.22</text>
    <rect x="4000" y="4400" width="200" height="730" style="fill:#1f77b4;stroke:none;"/>
    <text x="4020" y="4200" fill="#000000" font-family="Verdana" font-size="200">7.13</text>
    <rect x="4300" y="4400" width="200" height="680" style="fill:#1f77b4;stroke:none;"/>
    <text x="4320" y="4200" fill="#000000" font-family="Verdana" font-size="200">6.82</text>
    <rect x="4600" y="4400" width="200" height="670" style="fill:#1f77b4;stroke:none;"/>
    <text x="4620" y="4200" fill="#000000" font-family="Verdana" font-size="200">6.63</text>
    <rect x="4900" y="4400" width="200" height="660" style="fill:#1f77b4;stroke:none;"/>
    <text x="4920" y="4200" fill="#000000" font-family="Verdana" font-size="200">6.58</text>
    <rect x="5200" y="4400" width="200" height="540" style="fill:#1f77b4;stroke:none;"/>
    <text x="5220" y="4200" fill="#000000" font-family="Verdana" font-size="200">5.90</text>
    <rect x="5500" y="4400" width="200" height="540" style="fill:#1f77b4;stroke:none;"/>
    <text x="5520" y="4200" fill="#000000" font-family="Verdana" font-size="200">5.83</text>
    <rect x="5800" y="4400" width="200" height="530" style="fill:#1f77b4;stroke:none;"/>
    <text x="5820" y="4200" fill="#000000" font-family="Verdana" font-size="200">5.55</text>
    <rect x="6100" y="4400" width="200" height="530" style="fill:#1f77b4;stroke:none;"/>
    <text x="6120" y="4200" fill="#000000" font-family="Verdana" font-size="200">5.41</text>
    <rect x="6400" y="4400" width="200" height="520" style="fill:#1f77b4;stroke:none;"/>
    <text x="6420" y="4200" fill="#000000" font-family="Verdana" font-size="200">5.32</text>
    <rect x="6700" y="4400" width="200" height="520" style="fill:#1f77b4;stroke:none;"/>
    <text x="6720" y="4200" fill="#000000" font-family="Verdana" font-size="200">5.18</text>
    <rect x="7000" y="4400" width="200" height="50" style="fill:#1f77b4;stroke:none;"/>
    <text x="7020" y="4200" fill="#000000" font-family="Verdana" font-size="200">0.50</text>
  </g>
</svg>