<?xml version="1.0" encoding="utf-8"?>
<svg xmlns:xlink="http://www.w3.org/1999/xlink" width="432pt" height="288pt" viewBox="0 0 432 288" xmlns="http://www.w3.org/2000/svg" version="1.1">
 <defs>
  <style type="text/css">*{stroke-linejoin: round; stroke-linecap: butt}</style>
 </defs>
 <g id="figure_1">
  <g id="patch_1">
   <path d="M 0 288 
L 432 288 
L 432 0 
L 0 0 
L 0 288 
z
" style="fill: none"/>
  </g>
  <g id="axes_1">
   <g id="patch_2">
    <path d="M 54 256.32 
L 388.8 256.32 
L 388.8 34.56 
L 54 34.56 
z
" style="fill: #ffffff"/>
   </g>
   <g id="patch_8">
    <path d="M 122.2992 256.32 
L 133.0128 256.32 
L 133.0128 252.127965 
L 122.2992 252.127965 
z
" clip-path="url(#p158999ea7f)" style="fill: #1f77b4"/>
   </g>
   <g id="text_22">
    <text x="122.2992" y="256.32" fill="#000000" font-family="sans-serif" font-size="10px" text-anchor="middle">24.05</text>
   </g>
   <g id="patch_20">
    <path d="M 283.0032 256.32 
L 293.7168 256.32 
L 293.7168 213.506903 
L 283.0032 213.506903 
z
" clip-path="url(#p158999ea7f)" style="fill: #1f77b4"/>
   </g>
   <g id="text_20">
    <text x="283.0032" y="256.32" fill="#000000" font-family="sans-serif" font-size="10px" text-anchor="middle">9.93</text>
   </g>
   <g id="patch_4">
    <path d="M 68.7312 256.32 
L 79.4448 256.32 
L 79.4448 210.182235 
L 68.7312 210.182235 
z
" clip-path="url(#p158999ea7f)" style="fill: #1f77b4"/>
   </g>
   <g id="text_4">
    <text x="68.7312" y="256.32" fill="#000000" font-family="sans-serif" font-size="10px" text-anchor="middle">9.66</text>
   </g>
   <g id="patch_19">
    <path d="M 269.6112 256.32 
L 280.3248 256.32 
L 280.3248 187.582269 
L 269.6112 187.582269 
z
" clip-path="url(#p158999ea7f)" style="fill: #1f77b4"/>
   </g>
   <g id="text_19">
    <text x="269.6112" y="256.32" fill="#000000" font-family="sans-serif" font-size="10px" text-anchor="middle">9.47</text>
   </g>
   <g id="patch_9">
    <path d="M 135.6912 256.32 
L 146.4048 256.32 
L 146.4048 191.623363 
L 135.6912 191.623363 
z
" clip-path="url(#p158999ea7f)" style="fill: #1f77b4"/>
   </g>
   <g id="text_9">
    <text x="135.6912" y="256.32" fill="#000000" font-family="sans-serif" font-size="10px" text-anchor="middle">9.26</text>
   </g>
   <g id="patch_23">
    <path d="M 323.1792 256.32 
L 333.8928 256.32 
L 333.8928 211.765477 
L 323.1792 211.765477 
z
" clip-path="url(#p158999ea7f)" style="fill: #1f77b4"/>
   </g>
   <g id="text_23">
    <text x="323.1792" y="256.32" fill="#000000" font-family="sans-serif" font-size="10px" text-anchor="middle">9.21</text>
   </g>
   <g id="patch_26">
    <path d="M 363.3552 256.32 
L 374.0688 256.32 
L 374.0688 205.936265 
L 363.3552 205.936265 
z
" clip-path="url(#p158999ea7f)" style="fill: #1f77b4"/>
   </g>
   <g id="text_26">
    <text x="363.3552" y="256.32" fill="#000000" font-family="sans-serif" font-size="10px" text-anchor="middle">9.20</text>
   </g>
   <g id="patch_11">
    <path d="M 162.4752 256.32 
L 173.1888 256.32 
L 173.1888 198.975552 
L 162.4752 198.975552 
z
" clip-path="url(#p158999ea7f)" style="fill: #1f77b4"/>
   </g>
   <g id="text_11">
    <text x="162.4752" y="256.32" fill="#000000" font-family="sans-serif" font-size="10px" text-anchor="middle">9.12</text>
   </g>
   <g id="patch_17">
    <path d="M 242.8272 256.32 
L 253.5408 256.32 
L 253.5408 200.17652 
L 242.8272 200.17652 
z
" clip-path="url(#p158999ea7f)" style="fill: #1f77b4"/>
   </g>
   <g id="text_17">
    <text x="242.8272" y="256.32" fill="#000000" font-family="sans-serif" font-size="10px" text-anchor="middle">9.11</text>
   </g>
   <g id="patch_27">
    <path d="M 376.7472 256.32 
L 387.4608 256.32 
L 387.4608 204.265056 
L 376.7472 204.265056 
z
" clip-path="url(#p158999ea7f)" style="fill: #1f77b4"/>
   </g>
   <g id="text_27">
    <text x="376.7472" y="256.32" fill="#000000" font-family="sans-serif" font-size="10px" text-anchor="middle">9.01</text>
   </g>
   <g id="patch_21">
    <path d="M 296.3952 256.32 
L 307.1088 256.32 
L 307.1088 196.630401 
L 296.3952 196.630401 
z
" clip-path="url(#p158999ea7f)" style="fill: #1f77b4"/>
   </g>
   <g id="text_21">
    <text x="296.3952" y="256.32" fill="#000000" font-family="sans-serif" font-size="10px" text-anchor="middle">8.96</text>
   </g>
   <g id="patch_7">
    <path d="M 108.9072 256.32 
L 119.6208 256.32 
L 119.6208 184.637467 
L 108.9072 184.637467 
z
" clip-path="url(#p158999ea7f)" style="fill: #1f77b4"/>
   </g>
   <g id="text_7">
    <text x="108.9072" y="256.32" fill="#000000" font-family="sans-serif" font-size="10px" text-anchor="middle">8.84</text>
   </g>
   <g id="patch_25">
    <path d="M 349.9632 256.32 
L 360.6768 256.32 
L 360.6768 175.359495 
L 349.9632 175.359495 
z
" clip-path="url(#p158999ea7f)" style="fill: #1f77b4"/>
   </g>
   <g id="text_25">
    <text x="349.9632" y="256.32" fill="#000000" font-family="sans-serif" font-size="10px" text-anchor="middle">8.55</text>
   </g>
   <g id="patch_3">
    <path d="M 55.3392 256.32 
L 66.0528 256.32 
L 66.0528 187.086143 
L 55.3392 187.086143 
z
" clip-path="url(#p158999ea7f)" style="fill: #1f77b4"/>
   </g>
   <g id="text_3">
    <text x="55.3392" y="256.32" fill="#000000" font-family="sans-serif" font-size="10px" text-anchor="middle">8.26</text>
   </g>
   <g id="patch_5">
    <path d="M 82.1232 256.32 
L 92.8368 256.32 
L 92.8368 173.057247 
L 82.1232 173.057247 
z
" clip-path="url(#p158999ea7f)" style="fill: #1f77b4"/>
   </g>
   <g id="text_5">
    <text x="82.1232" y="256.32" fill="#000000" font-family="sans-serif" font-size="10px" text-anchor="middle">8.26</text>
   </g>
   <g id="patch_6">
    <path d="M 95.5152 256.32 
L 106.2288 256.32 
L 106.2288 176.888662 
L 95.5152 176.888662 
z
" clip-path="url(#p158999ea7f)" style="fill: #1f77b4"/>
   </g>
   <g id="text_6">
    <text x="95.5152" y="256.32" fill="#000000" font-family="sans-serif" font-size="10px" text-anchor="middle">8.26</text>
   </g>
   <g id="patch_10">
    <path d="M 149.0832 256.32 
L 159.7968 256.32 
L 159.7968 182.211226 
L 149.0832 182.211226 
z
" clip-path="url(#p158999ea7f)" style="fill: #1f77b4"/>
   </g>
   <g id="text_10">
    <text x="149.0832" y="256.32" fill="#000000" font-family="sans-serif" font-size="10px" text-anchor="middle">8.26</text>
   </g>
   <g id="patch_12">
    <path d="M 175.8672 256.32 
L 186.5808 256.32 
L 186.5808 176.290477 
L 175.8672 176.290477 
z
" clip-path="url(#p158999ea7f)" style="fill: #1f77b4"/>
   </g>
   <g id="text_12">
    <text x="175.8672" y="256.32" fill="#000000" font-family="sans-serif" font-size="10px" text-anchor="middle">8.26</text>
   </g>
   <g id="patch_13">
    <path d="M 189.2592 256.32 
L 199.9728 256.32 
L 199.9728 54.72 
L 189.2592 54.72 
z
" clip-path="url(#p158999ea7f)" style="fill: #1f77b4"/>
   </g>
   <g id="text_13">
    <text x="189.2592" y="256.32" fill="#000000" font-family="sans-serif" font-size="10px" text-anchor="middle">8.26</text>
   </g>
   <g id="patch_14">
    <path d="M 202.6512 256.32 
L 213.3648 256.32 
L 213.3648 181.363558 
L 202.6512 181.363558 
z
" clip-path="url(#p158999ea7f)" style="fill: #1f77b4"/>
   </g>
   <g id="text_14">
    <text x="202.6512" y="256.32" fill="#000000" font-family="sans-serif" font-size="10px" text-anchor="middle">8.26</text>
   </g>
   <g id="patch_15">
    <path d="M 216.0432 256.32 
L 226.7568 256.32 
L 226.7568 181.516237 
L 216.0432 181.516237 
z
" clip-path="url(#p158999ea7f)" style="fill: #1f77b4"/>
   </g>
   <g id="text_15">
    <text x="216.0432" y="256.32" fill="#000000" font-family="sans-serif" font-size="10px" text-anchor="middle">8.26</text>
   </g>
   <g id="patch_16">
    <path d="M 229.4352 256.32 
L 240.1488 256.32 
L 240.1488 176.882375 
L 229.4352 176.882375 
z
" clip-path="url(#p158999ea7f)" style="fill: #1f77b4"/>
   </g>
   <g id="text_16">
    <text x="229.4352" y="256.32" fill="#000000" font-family="sans-serif" font-size="10px" text-anchor="middle">8.26</text>
   </g>
   <g id="patch_18">
    <path d="M 256.2192 256.32 
L 266.9328 256.32 
L 266.9328 178.67157 
L 256.2192 178.67157 
z
" clip-path="url(#p158999ea7f)" style="fill: #1f77b4"/>
   </g>
   <g id="text_18">
    <text x="256.2192" y="256.32" fill="#000000" font-family="sans-serif" font-size="10px" text-anchor="middle">8.26</text>
   </g>
   <g id="patch_24">
    <path d="M 336.5712 256.32 
L 347.2848 256.32 
L 347.2848 197.980376 
L 336.5712 197.980376 
z
" clip-path="url(#p158999ea7f)" style="fill: #1f77b4"/>
   </g>
   <g id="text_24">
    <text x="336.5712" y="256.32" fill="#000000" font-family="sans-serif" font-size="10px" text-anchor="middle">8.26</text>
   </g>
  </g>
 </g>
</svg>