<?xml version="1.0" standalone="no"?>
<!DOCTYPE svg PUBLIC "-//W3C//DTD SVG 1.1//EN" "http://www.w3.org/Graphics/SVG/1.1/DTD/svg11.dtd">
<svg width="432pt" height="288pt" viewBox="0 0 432 288" version="1.1" xmlns="http://www.w3.org/2000/svg">
  <rect width="100%" height="100%" fill="white"/>
  <g fill="none" stroke="black" stroke-width="2">
    <!-- Bar 21: (21, 28.18) -->
    <rect x="10" y="10" width="20" height="28.18" fill="#1f77b4"/>
    <text x="20" y="5" font-size="10" text-anchor="middle" fill="black">28.18</text>
    <!-- Bar 14: (14, 9.83) -->
    <rect x="40" y="38.36" width="20" height="9.83" fill="#1f77b4"/>
    <text x="50" y="33.36" font-size="10" text-anchor="middle" fill="black">9.83</text>
    <!-- Bar 22: (22, 9.98) -->
    <rect x="70" y="38.21" width="20" height="9.98" fill="#1f77b4"/>
    <text x="80" y="33.21" font-size="10" text-anchor="middle" fill="black">9.98</text>
    <!-- Bar 12: (12, 9.19) -->
    <rect x="100" y="39" width="20" height="9.19" fill="#1f77b4"/>
    <text x="110" y="34" font-size="10" text-anchor="middle" fill="black">9.19</text>
    <!-- Bar 18: (18, 8.87) -->
    <rect x="130" y="39.32" width="20" height="8.87" fill="#1f77b4"/>
    <text x="140" y="34.32" font-size="10" text-anchor="middle" fill="black">8.87</text>
    <!-- Bar 13: (13, 8.37) -->
    <rect x="160" y="39.82" width="20" height="8.37" fill="#1f77b4"/>
    <text x="170" y="34.82" font-size="10" text-anchor="middle" fill="black">8.37</text>
    <!-- Bar 19: (19, 7.35) -->
    <rect x="190" y="40.84" width="20" height="7.35" fill="#1f77b4"/>
    <text x="200" y="35.84" font-size="10" text-anchor="middle" fill="black">7.35</text>
    <!-- Bar 17: (17, 6.67) -->
    <rect x="220" y="41.52" width="20" height="6.67" fill="#1f77b4"/>
    <text x="230" y="36.52" font-size="10" text-anchor="middle" fill="black">6.67</text>
    <!-- Bar 24: (24, 5.66) -->
    <rect x="250" y="42.53" width="20" height="5.66" fill="#1f77b4"/>
    <text x="260" y="37.53" font-size="10" text-anchor="middle" fill="black">5.66</text>
    <!-- Bar 23: (23, 5.43) -->
    <rect x="280" y="42.76" width="20" height="5.43" fill="#1f77b4"/>
    <text x="290" y="37.76" font-size="10" text-anchor="middle" fill="black">5.43</text>
    <!-- Bar 15: (15, 5.63) -->
    <rect x="310" y="42.56" width="20" height="5.63" fill="#1f77b4"/>
    <text x="320" y="37.56" font-size="10" text-anchor="middle" fill="black">5.63</text>
    <!-- Bar 20: (20, 5.12) -->
    <rect x="340" y="43.07" width="20" height="5.12" fill="#1f77b4"/>
    <text x="350" y="38.07" font-size="10" text-anchor="middle" fill="black">5.12</text>
  </g>
</svg>