<?xml version="1.0" standalone="no"?>
<!DOCTYPE svg PUBLIC "-//W3C//DTD SVG 20010904//EN"
 "http://www.w3.org/TR/2001/REC-SVG-20010904/DTD/svg10.dtd">
<svg version="1.0" xmlns="http://www.w3.org/2000/svg"
 width="800.000000pt" height="600.000000pt" viewBox="0 0 800.000000 600.000000"
 preserveAspectRatio="xMidYMid meet">
  <g transform="translate(0.000000,600.000000) scale(0.100000,-0.100000)"
  fill="#000000" stroke="none">
    <rect x="100" y="4400" width="100" height="1600" style="fill:#1f77b4;stroke:none;"/>
    <text x="100" y="4200" font-family="Verdana" font-size="200" fill="black">23.79</text>
    <rect x="300" y="4600" width="100" height="1400" style="fill:#1f77b4;stroke:none;"/>
    <text x="300" y="4400" font-family="Verdana" font-size="200" fill="black">10.00</text>
    <rect x="500" y="4700" width="100" height="1300" style="fill:#1f77b4;stroke:none;"/>
    <text x="500" y="4500" font-family="Verdana" font-size="200" fill="black">9.65</text>
    <rect x="700" y="4720" width="100" height="1280" style="fill:#1f77b4;stroke:none;"/>
    <text x="700" y="4520" font-family="Verdana" font-size="200" fill="black">9.54</text>
    <rect x="900" y="4800" width="100" height="1200" style="fill:#1f77b4;stroke:none;"/>
    <text x="900" y="4600" font-family="Verdana" font-size="200" fill="black">8.90</text>
    <rect x="1100" y="4820" width="100" height="1180" style="fill:#1f77b4;stroke:none;"/>
    <text x="1100" y="4620" font-family="Verdana" font-size="200" fill="black">8.79</text>
    <rect x="1300" y="4840" width="100" height="1160" style="fill:#1f77b4;stroke:none;"/>
    <text x="1300" y="4640" font-family="Verdana" font-size="200" fill="black">8.59</text>
    <rect x="1500" y="4860" width="100" height="1140" style="fill:#1f77b4;stroke:none;"/>
    <text x="1500" y="4660" font-family="Verdana" font-size="200" fill="black">8.51</text>
    <rect x="1700" y="4880" width="100" height="1120" style="fill:#1f77b4;stroke:none;"/>
    <text x="1700" y="4680" font-family="Verdana" font-size="200" fill="black">8.45</text>
    <rect x="1900" y="4900" width="100" height="1100" style="fill:#1f77b4;stroke:none;"/>
    <text x="1900" y="4700" font-family="Verdana" font-size="200" fill="black">8.42</text>
    <rect x="2100" y="4920" width="100" height="1080" style="fill:#1f77b4;stroke:none;"/>
    <text x="2100" y="4720" font-family="Verdana" font-size="200" fill="black">8.39</text>
    <rect x="2300" y="4940" width="100" height="1060" style="fill:#1f77b4;stroke:none;"/>
    <text x="2300" y="4740" font-family="Verdana" font-size="200" fill="black">8.04</text>
    <rect x="2500" y="4960" width="100" height="1040" style="fill:#1f77b4;stroke:none;"/>
    <text x="2500" y="4760" font-family="Verdana" font-size="200" fill="black">7.96</text>
    <rect x="2700" y="4980" width="100" height="1020" style="fill:#1f77b4;stroke:none;"/>
    <text x="2700" y="4780" font-family="Verdana" font-size="200" fill="black">7.77</text>
    <rect x="2900" y="5000" width="100" height="1000" style="fill:#1f77b4;stroke:none;"/>
    <text x="2900" y="4800" font-family="Verdana" font-size="200" fill="black">7.73</text>
    <rect x="3100" y="5020" width="100" height="980" style="fill:#1f77b4;stroke:none;"/>
    <text x="3100" y="4820" font-family="Verdana" font-size="200" fill="black">7.51</text>
    <rect x="3300" y="5040" width="100" height="960" style="fill:#1f77b4;stroke:none;"/>
    <text x="3300" y="4840" font-family="Verdana" font-size="200" fill="black">7.09</text>
    <rect x="3500" y="5060" width="100" height="940" style="fill:#1f77b4;stroke:none;"/>
    <text x="3500" y="4860" font-family="Verdana" font-size="200" fill="black">6.58</text>
    <rect x="3700" y="5080" width="100" height="920" style="fill:#1f77b4;stroke:none;"/>
    <text x="3700" y="4880" font-family="Verdana" font-size="200" fill="black">6.35</text>
    <rect x="3900" y="5100" width="100" height="900" style="fill:#1f77b4;stroke:none;"/>
    <text x="3900" y="4900" font-family="Verdana" font-size="200" fill="black">6.23</text>
    <rect x="4100" y="5120" width="100" height="880" style="fill:#1f77b4;stroke:none;"/>
    <text x="4100" y="4920" font-family="Verdana" font-size="200" fill="black">5.64</text>
    <rect x="4300" y="5140" width="100" height="860" style="fill:#1f77b4;stroke:none;"/>
    <text x="4300" y="4940" font-family="Verdana" font-size="200" fill="black">5.13</text>
    <rect x="4500" y="5160" width="100" height="840" style="fill:#1f77b4;stroke:none;"/>
    <text x="4500" y="4960" font-family="Verdana" font-size="200" fill="black">5.08</text>
    <rect x="4700" y="5180" width="100" height="820" style="fill:#1f77b4;stroke:none;"/>
    <text x="4700" y="4980" font-family="Verdana" font-size="200" fill="black">0.50</text>
  </g>
</svg>