<?xml version="1.0" standalone="no"?>
<svg width="432pt" height="288pt" viewBox="0 0 432 288" xmlns="http://www.w3.org/2000/svg" version="1.1">
  <g>
    <rect x="10" y="10" width="40" height="250" style="fill: #1f77b4"/>
    <text x="30" y="270" font-size="10" text-anchor="middle">26.20</text>
  </g>
  <g>
    <rect x="60" y="20" width="40" height="240" style="fill: #ff7f0e"/>
    <text x="80" y="270" font-size="10" text-anchor="middle">9.85</text>
  </g>
  <g>
    <rect x="110" y="30" width="40" height="230" style="fill: #2ca02c"/>
    <text x="130" y="270" font-size="10" text-anchor="middle">9.84</text>
  </g>
  <g>
    <rect x="160" y="40" width="40" height="220" style="fill: #d62728"/>
    <text x="180" y="270" font-size="10" text-anchor="middle">9.77</text>
  </g>
  <g>
    <rect x="210" y="50" width="40" height="210" style="fill: #9467bd"/>
    <text x="230" y="270" font-size="10" text-anchor="middle">9.51</text>
  </g>
  <g>
    <rect x="260" y="60" width="40" height="200" style="fill: #8c564b"/>
    <text x="280" y="270" font-size="10" text-anchor="middle">9.36</text>
  </g>
  <g>
    <rect x="310" y="70" width="40" height="190" style="fill: #e377c2"/>
    <text x="330" y="270" font-size="10" text-anchor="middle">9.00</text>
  </g>
  <g>
    <rect x="360" y="80" width="40" height="180" style="fill: #7f7f7f"/>
    <text x="380" y="270" font-size="10" text-anchor="middle">8.94</text>
  </g>
  <g>
    <rect x="410" y="90" width="40" height="170" style="fill: #bcbd22"/>
    <text x="430" y="270" font-size="10" text-anchor="middle">8.81</text>
  </g>
  <g>
    <rect x="460" y="100" width="40" height="160" style="fill: #17becf"/>
    <text x="480" y="270" font-size="10" text-anchor="middle">8.67</text>
  </g>
</svg>