<?xml version="1.0" standalone="no"?>
<!DOCTYPE svg PUBLIC "-//W3C//DTD SVG 20010904//EN"
 "http://www.w3.org/TR/2001/REC-SVG-20010904/DTD/svg10.dtd">
<svg version="1.0" xmlns="http://www.w3.org/2000/svg"
 width="800.000000pt" height="600.000000pt" viewBox="0 0 800.000000 600.000000"
 preserveAspectRatio="xMidYMid meet">
<g transform="translate(0.000000,600.000000) scale(0.100000,-0.100000)"
fill="#000000" stroke="none">
<path d="M0 3000 l0 -3000 4000 0 4000 0 0 3000 0 3000 -4000 0 -4000 0 0
-3000z m8000 0 l0 -2800 -3800 0 -3800 0 0 2800 0 2800 3800 0 3800 0 0
-2800z"/>
<path d="M760 5630 c-19 -5 -44 -17 -55 -27 -18 -15 -19 -30 -19 -255 l0
-239 34 -6 c18 -3 62 -8 97 -10 l64 -3 0 248 c0 137 -3 252 -7 255 -5 4
-58 7 -114 5z"/>
<path d="M760 5230 c-19 -5 -44 -17 -55 -27 -18 -15 -19 -30 -19 -255 l0
-239 34 -6 c18 -3 62 -8 97 -10 l64 -3 0 248 c0 137 -3 252 -7 255 -5 4
-58 7 -114 5z"/>
<path d="M760 4830 c-19 -5 -44 -17 -55 -27 -18 -15 -19 -30 -19 -255 l0
-239 34 -6 c18 -3 62 -8 97 -10 l64 -3 0 248 c0 137 -3 252 -7 255 -5 4
-58 7 -114 5z"/>
<path d="M760 4430 c-19 -5 -44 -17 -55 -27 -18 -15 -19 -30 -19 -255 l0
-239 34 -6 c18 -3 62 -8 97 -10 l64 -3 0 248 c0 137 -3 252 -7 255 -5 4
-58 7 -114 5z"/>
<path d="M760 4030 c-19 -5 -44 -17 -55 -27 -18 -15 -19 -30 -19 -255 l0
-239 34 -6 c18 -3 62 -8 97 -10 l64 -3 0 248 c0 137 -3 252 -7 255 -5 4
-58 7 -114 5z"/>
<path d="M760 3630 c-19 -5 -44 -17 -55 -27 -18 -15 -19 -30 -19 -255 l0
-239 34 -6 c18 -3 62 -8 97 -10 l64 -3 0 248 c0 137 -3 252 -7 255 -5 4
-58 7 -114 5z"/>
<path d="M760 3230 c-19 -5 -44 -17 -55 -27 -18 -15 -19 -30 -19 -255 l0
-239 34 -6 c18 -3 62 -8 97 -10 l64 -3 0 248 c0 137 -3 252 -7 255 -5 4
-58 7 -114 5z"/>
<path d="M760 2830 c-19 -5 -44 -17 -55 -27 -18 -15 -19 -30 -19 -255 l0
-239 34 -6 c18 -3 62 -8 97 -10 l64 -3 0 248 c0 137 -3 252 -7 255 -5 4
-58 7 -114 5z"/>
<path d="M760 2430 c-19 -5 -44 -17 -55 -27 -18 -15 -19 -30 -19 -255 l0
-239 34 -6 c18 -3 62 -8 97 -10 l64 -3 0 248 c0 137 -3 252 -7 255 -5 4
-58 7 -114 5z"/>
<path d="M760 2030 c-19 -5 -44 -17 -55 -27 -18 -15 -19 -30 -19 -255 l0
-239 34 -6 c18 -3 62 -8 97 -10 l64 -3 0 248 c0 137 -3 252 -7 255 -5 4
-58 7 -114 5z"/>
<path d="M760 1630 c-19 -5 -44 -17 -55 -27 -18 -15 -19 -30 -19 -255 l0
-239 34 -6 c18 -3 62 -8 97 -10 l64 -3 0 248 c0 137 -3 252 -7 255 -5 4
-58 7 -114 5z"/>
<path d="M760 1230 c-19 -5 -44 -17 -55 -27 -18 -15 -19 -30 -19 -255 l0
-239 34 -6 c18 -3 62 -8 97 -10 l64 -3 0 248 c0 137 -3 252 -7 255 -5 4
-58 7 -114 5z"/>
<path d="M760 830 c-19 -5 -44 -17 -55 -27 -18 -15 -19 -30 -19 -255 l0
-239 34 -6 c18 -3 62 -8 97 -10 l64 -3 0 248 c0 137 -3 252 -7 255 -5 4
-58 7 -114 5z"/>
<path d="M760 430 c-19 -5 -44 -17 -55 -27 -18 -15 -19 -30 -19 -255 l0
-239 34 -6 c18 -3 62 -8 97 -10 l64 -3 0 248 c0 137 -3 252 -7 255 -5 4
-58 7 -114 5z"/>
<path d="M760 30 c-19 -5 -44 -17 -55 -27 -18 -15 -19 -30 -19 -255 l0
-239 34 -6 c18 -3 62 -8 97 -10 l64 -3 0 248 c0 137 -3 252 -7 255 -5 4
-58 7 -114 5z"/>
</g>
</svg>