<?xml version="1.0" standalone="no"?>
<svg width="432pt" height="288pt" viewBox="0 0 432 288" xmlns="http://www.w3.org/2000/svg" version="1.1">
  <defs>
    <path id="circle" d="M 0 3 
      C 0.795609 3 1.55874 2.683901 2.12132 2.12132 
      C 2.683901 1.55874 3 0.795609 3 0 
      C 3 -0.795609 2.683901 -1.55874 2.12132 -2.12132 
      C 1.55874 -2.683901 0.795609 -3 0 -3 
      C -0.795609 -3 -1.55874 -2.683901 -2.12132 -2.12132 
      C -2.683901 -1.55874 -3 -0.795609 -3 0 
      C -3 0.795609 -2.683901 1.55874 -2.12132 2.12132 
      C -1.55874 2.683901 -0.795609 3 0 3 
      z" />
  </defs>
  <g>
    <!-- Points satisfying Y > 0, colored differently -->
    <use xlink:href="#circle" x="107.435103" y="94.367919" style="fill: red; stroke: red"/>
    <use xlink:href="#circle" x="122.253995" y="91.362898" style="fill: red; stroke: red"/>
    <use xlink:href="#circle" x="91.38588" y="45.940525" style="fill: red; stroke: red"/>
    <use xlink:href="#circle" x="109.177358" y="133.925737" style="fill: red; stroke: red"/>
    <use xlink:href="#circle" x="87.125362" y="73.681015" style="fill: red; stroke: red"/>
    <use xlink:href="#circle" x="99.865397" y="124.128766" style="fill: red; stroke: red"/>
    <use xlink:href="#circle" x="113.44403" y="157.14425" style="fill: red; stroke: red"/>
    <use xlink:href="#circle" x="98.914979" y="111.787343" style="fill: red; stroke: red"/>
    <use xlink:href="#circle" x="119.525499" y="99.722706" style="fill: red; stroke: red"/>
    <use xlink:href="#circle" x="100.979875" y="107.081732" style="fill: red; stroke: red"/>
    <use xlink:href="#circle" x="110.918065" y="84.319624" style="fill: red; stroke: red"/>
    <use xlink:href="#circle" x="92.298082" y="123.225503" style="fill: red; stroke: red"/>
    <use xlink:href="#circle" x="85.828802" y="50.96741" style="fill: red; stroke: red"/>
    <use xlink:href="#circle" x="87.833095" y="159.558224" style="fill: red; stroke: red"/>
    <use xlink:href="#circle" x="108.638539" y="110.198425" style="fill: red; stroke: red"/>
    <use xlink:href="#circle" x="185.999364" y="194.100672" style="fill: red; stroke: red"/>
    <use xlink:href="#circle" x="188.80169" y="174.368199" style="fill: red; stroke: red"/>
    <use xlink:href="#circle" x="162.626936" y="122.677981" style="fill: red; stroke: red"/>
    <use xlink:href="#circle" x="178.876183" y="110.292758" style="fill: red; stroke: red"/>
    <use xlink:href="#circle" x="190.808018" y="144.460575" style="fill: red; stroke: red"/>
    <use xlink:href="#circle" x="175.501726" y="141.835916" style="fill: red; stroke: red"/>
    <use xlink:href="#circle" x="190.747373" y="103.356864" style="fill: red; stroke: red"/>
    <use xlink:href="#circle" x="190.872836" y="186.384662" style="fill: red; stroke: red"/>
    <use xlink:href="#circle" x="172.637753" y="161.337188" style="fill: red; stroke: red"/>
    <use xlink:href="#circle" x="183.002366" y="156.115649" style="fill: red; stroke: red"/>
    <use xlink:href="#circle" x="195.926071" y="143.121167" style="fill: red; stroke: red"/>
    <use xlink:href="#circle" x="191.925349" y="195.906272" style="fill: red; stroke: red"/>
    <use xlink:href="#circle" x="188.565594" y="164.818237" style="fill: red; stroke: red"/>
    <use xlink:href="#circle" x="164.676889" y="144.492881" style="fill: red; stroke: red"/>
    <use xlink:href="#circle" x="190.509736" y="166.887378" style="fill: red; stroke: red"/>
    <use xlink:href="#circle" x="174.783286" y="155.893034" style="fill: red; stroke: red"/>
    <use xlink:href="#circle" x="246.567549" y="220.776985" style="fill: red; stroke: red"/>
    <use xlink:href="#circle" x="261.749369" y="246.24" style="fill: red; stroke: red"/>
    <use xlink:href="#circle" x="261.833344" y="178.468151" style="fill: red; stroke: red"/>
    <use xlink:href="#circle" x="265.808942" y="177.919115" style="fill: red; stroke: red"/>
    <use xlink:href="#circle" x="268.10052" y="231.468072" style="fill: red; stroke: red"/>
    <use xlink:href="#circle" x="265.50836" y="163.414386" style="fill: red; stroke: red"/>
    <use xlink:href="#circle" x="279.245896" y="170.304752" style="fill: red; stroke: red"/>
    <use xlink:href="#circle" x="261.786709" y="176.525235" style="fill: red; stroke: red"/>
    <use xlink:href="#circle" x="273.360866" y="163.157691" style="fill: red; stroke: red"/>
    <use xlink:href="#circle" x="273.097425" y="194.751999" style="fill: red; stroke: red"/>
    <use xlink:href="#circle" x="274.770225" y="211.340771" style="fill: red; stroke: red"/>
    <use xlink:href="#circle" x="267.429659" y="226.480591" style="fill: red; stroke: red"/>
    <use xlink:href="#circle" x="265.909766" y="160.896578" style="fill: red; stroke: red"/>
    <use xlink:href="#circle" x="272.137158" y="159.867369" style="fill: red; stroke: red"/>
    <use xlink:href="#circle" x="286.731147" y="178.731001" style="fill: red; stroke: red"/>
    <use xlink:href="#circle" x="278.501689" y="165.250568" style="fill: red; stroke: red"/>
    <use xlink:href="#circle" x="69.218182" y="44.64" style="fill: red; stroke: red"/>
    <use xlink:href="#circle" x="373.581818" y="224.354535" style="fill: red; stroke: red"/>
    <!-- Points not satisfying Y > 0, keeping original color -->
    <use xlink:href="#circle" x="99.656086" y="165.008291" style="fill: #1f77b4; stroke: #1f77b4"/>
  </g>
</svg>