<?xml version="1.0" encoding="utf-8"?>
<svg xmlns:xlink="http://www.w3.org/1999/xlink" width="432pt" height="288pt" viewBox="0 0 432 288" xmlns="http://www.w3.org/2000/svg" version="1.1">
 <defs>
  <path id="me1dfa63ba6" d="M 0 3 
C 0.795609 3 1.55874 2.683901 2.12132 2.12132 
C 2.683901 1.55874 3 0.795609 3 0 
C 3 -0.795609 2.683901 -1.55874 2.12132 -2.12132 
C 1.55874 -2.683901 0.795609 -3 0 -3 
C -0.795609 -3 -1.55874 -2.683901 -2.12132 -2.12132 
C -2.683901 -1.55874 -3 -0.795609 -3 0 
C -3 0.795609 -2.683901 1.55874 -2.12132 2.12132 
C -1.55874 2.683901 -0.795609 3 0 3 
z"/>
 </defs>
 <g>
  <use xlink:href="#me1dfa63ba6" x="85.098965" y="143.396843" style="fill: #1f77b4;"/>
  <use xlink:href="#me1dfa63ba6" x="88.516148" y="155.37147" style="fill: #1f77b4;"/>
  <use xlink:href="#me1dfa63ba6" x="79.907444" y="158.221695" style="fill: #1f77b4;"/>
  <use xlink:href="#me1dfa63ba6" x="73.945109" y="148.445618" style="fill: #1f77b4;"/>
  <use xlink:href="#me1dfa63ba6" x="74.818041" y="143.913837" style="fill: #1f77b4;"/>
  <use xlink:href="#me1dfa63ba6" x="112.118412" y="148.049753" style="fill: #1f77b4;"/>
  <use xlink:href="#me1dfa63ba6" x="77.002335" y="134.190813" style="fill: #1f77b4;"/>
  <use xlink:href="#me1dfa63ba6" x="99.566605" y="166.754499" style="fill: #1f77b4;"/>
  <use xlink:href="#me1dfa63ba6" x="79.650268" y="120.777922" style="fill: #1f77b4;"/>
  <use xlink:href="#me1dfa63ba6" x="69.226349" y="119.167746" style="fill: #1f77b4;"/>
  <use xlink:href="#me1dfa63ba6" x="78.302241" y="136.48845" style="fill: #1f77b4;"/>
  <use xlink:href="#me1dfa63ba6" x="69.218182" y="119.203525" style="fill: #1f77b4;"/>
  <use xlink:href="#me1dfa63ba6" x="86.270399" y="124.06267" style="fill: #1f77b4;"/>
  <use xlink:href="#me1dfa63ba6" x="106.646036" y="182.09306" style="fill: #ff0000;"/>
  <use xlink:href="#me1dfa63ba6" x="92.528476" y="185.556033" style="fill: #ff0000;"/>
  <use xlink:href="#me1dfa63ba6" x="104.266852" y="165.369549" style="fill: #1f77b4;"/>
  <use xlink:href="#me1dfa63ba6" x="152.041015" y="158.896417" style="fill: #1f77b4;"/>
  <use xlink:href="#me1dfa63ba6" x="167.555745" y="203.975199" style="fill: #ff0000;"/>
  <use xlink:href="#me1dfa63ba6" x="159.659396" y="146.192107" style="fill: #1f77b4;"/>
  <use xlink:href="#me1dfa63ba6" x="185.810641" y="196.305861" style="fill: #ff0000;"/>
  <use xlink:href="#me1dfa63ba6" x="158.46829" y="161.599019" style="fill: #1f77b4;"/>
  <use xlink:href="#me1dfa63ba6" x="164.077051" y="198.824388" style="fill: #ff0000;"/>
  <use xlink:href="#me1dfa63ba6" x="174.909379" y="188.603139" style="fill: #ff0000;"/>
  <use xlink:href="#me1dfa63ba6" x="155.96978" y="163.895146" style="fill: #1f77b4;"/>
  <use xlink:href="#me1dfa63ba6" x="163.216562" y="170.054739" style="fill: #1f77b4;"/>
  <use xlink:href="#me1dfa63ba6" x="177.372035" y="228.60144" style="fill: #ff0000;"/>
  <use xlink:href="#me1dfa63ba6" x="175.74578" y="179.971719" style="fill: #ff0000;"/>
  <use xlink:href="#me1dfa63ba6" x="148.998856" y="185.767869" style="fill: #ff0000;"/>
  <use xlink:href="#me1dfa63ba6" x="152.337179" y="202.001492" style="fill: #ff0000;"/>
  <use xlink:href="#me1dfa63ba6" x="172.423073" y="184.754011" style="fill: #ff0000;"/>
  <use xlink:href="#me1dfa63ba6" x="158.409206" y="192.457243" style="fill: #ff0000;"/>
  <use xlink:href="#me1dfa63ba6" x="160.85614" y="170.196709" style="fill: #1f77b4;"/>
  <use xlink:href="#me1dfa63ba6" x="237.275475" y="206.365029" style="fill: #ff0000;"/>
  <use xlink:href="#me1dfa63ba6" x="265.651999" y="242.305651" style="fill: #ff0000;"/>
  <use xlink:href="#me1dfa63ba6" x="219.3122" y="200.777722" style="fill: #ff0000;"/>
  <use xlink:href="#me1dfa63ba6" x="230.811204" y="217.747912" style="fill: #ff0000;"/>
  <use xlink:href="#me1dfa63ba6" x="257.53598" y="230.397039" style="fill: #ff0000;"/>
  <use xlink:href="#me1dfa63ba6" x="261.786173" y="230.386727" style="fill: #ff0000;"/>
  <use xlink:href="#me1dfa63ba6" x="230.918072" y="210.70528" style="fill: #ff0000;"/>
  <use xlink:href="#me1dfa63ba6" x="227.166433" y="237.437405" style="fill: #ff0000;"/>
  <use xlink:href="#me1dfa63ba6" x="237.393427" y="202.299644" style="fill: #ff0000;"/>
  <use xlink:href="#me1dfa63ba6" x="247.770959" y="240.987041" style="fill: #ff0000;"/>
  <use xlink:href="#me1dfa63ba6" x="260.568074" y="227.074846" style="fill: #ff0000;"/>
  <use xlink:href="#me1dfa63ba6" x="239.056568" y="229.645427" style="fill: #ff0000;"/>
  <use xlink:href="#me1dfa63ba6" x="238.159518" y="206.432335" style="fill: #ff0000;"/>
  <use xlink:href="#me1dfa63ba6" x="240.737424" y="246.24" style="fill: #ff0000;"/>
  <use xlink:href="#me1dfa63ba6" x="234.685116" y="219.333835" style="fill: #ff0000;"/>
  <use xlink:href="#me1dfa63ba6" x="242.68547" y="215.373621" style="fill: #ff0000;"/>
  <use xlink:href="#me1dfa63ba6" x="373.581818" y="44.64" style="fill: #1f77b4;"/>
 </g>
</svg>