<?xml version="1.0" encoding="utf-8"?>
<svg xmlns:xlink="http://www.w3.org/1999/xlink" width="432pt" height="288pt" viewBox="0 0 432 288" xmlns="http://www.w3.org/2000/svg" version="1.1">
 <defs>
  <path id="m0c782361cb" d="M 0 3 
C 0.795609 3 1.55874 2.683901 2.12132 2.12132 
C 2.683901 1.55874 3 0.795609 3 0 
C 3 -0.795609 2.683901 -1.55874 2.12132 -2.12132 
C 1.55874 -2.683901 0.795609 -3 0 -3 
C -0.795609 -3 -1.55874 -2.683901 -2.12132 -2.12132 
C -2.683901 -1.55874 -3 -0.795609 -3 0 
C -3 0.795609 -2.683901 1.55874 -2.12132 2.12132 
C -1.55874 2.683901 -0.795609 3 0 3 
z"/>
 </defs>
 <g>
  <use xlink:href="#m0c782361cb" x="112.496642" y="170.394426" style="fill: #ff0000;"/>
  <use xlink:href="#m0c782361cb" x="129.910443" y="148.112133" style="fill: #ff0000;"/>
  <use xlink:href="#m0c782361cb" x="87.613459" y="184.91247" style="fill: #ff0000;"/>
  <use xlink:href="#m0c782361cb" x="105.244962" y="156.216751" style="fill: #ff0000;"/>
  <use xlink:href="#m0c782361cb" x="69.218182" y="168.48234" style="fill: #ff0000;"/>
  <use xlink:href="#m0c782361cb" x="103.292526" y="216.641137" style="fill: #ff0000;"/>
  <use xlink:href="#m0c782361cb" x="81.760597" y="215.838542" style="fill: #ff0000;"/>
  <use xlink:href="#m0c782361cb" x="112.153486" y="192.956767" style="fill: #ff0000;"/>
  <use xlink:href="#m0c782361cb" x="97.901055" y="200.432642" style="fill: #ff0000;"/>
  <use xlink:href="#m0c782361cb" x="82.163422" y="194.333478" style="fill: #ff0000;"/>
  <use xlink:href="#m0c782361cb" x="110.1033" y="226.409775" style="fill: #ff0000;"/>
  <use xlink:href="#m0c782361cb" x="96.973418" y="150.565865" style="fill: #ff0000;"/>
  <use xlink:href="#m0c782361cb" x="93.78086" y="175.422274" style="fill: #ff0000;"/>
  <use xlink:href="#m0c782361cb" x="118.305546" y="223.94045" style="fill: #ff0000;"/>
  <use xlink:href="#m0c782361cb" x="223.103415" y="144.967602" style="fill: #ff0000;"/>
  <use xlink:href="#m0c782361cb" x="249.480769" y="135.550321" style="fill: #ff0000;"/>
  <use xlink:href="#m0c782361cb" x="213.048107" y="105.193859" style="fill: #ff0000;"/>
  <use xlink:href="#m0c782361cb" x="206.289337" y="176.090044" style="fill: #ff0000;"/>
  <use xlink:href="#m0c782361cb" x="194.449793" y="150.438276" style="fill: #ff0000;"/>
  <use xlink:href="#m0c782361cb" x="243.37551" y="97.947567" style="fill: #ff0000;"/>
  <use xlink:href="#m0c782361cb" x="220.746653" y="158.411081" style="fill: #ff0000;"/>
  <use xlink:href="#m0c782361cb" x="216.23375" y="125.33032" style="fill: #ff0000;"/>
  <use xlink:href="#m0c782361cb" x="219.412131" y="164.545605" style="fill: #ff0000;"/>
  <use xlink:href="#m0c782361cb" x="180.585306" y="148.757724" style="fill: #ff0000;"/>
  <use xlink:href="#m0c782361cb" x="193.314197" y="148.254305" style="fill: #ff0000;"/>
  <use xlink:href="#m0c782361cb" x="225.248164" y="158.558559" style="fill: #ff0000;"/>
  <use xlink:href="#m0c782361cb" x="206.057128" y="103.089704" style="fill: #ff0000;"/>
  <use xlink:href="#m0c782361cb" x="204.666386" y="127.461066" style="fill: #ff0000;"/>
  <use xlink:href="#m0c782361cb" x="220.498344" y="164.786873" style="fill: #ff0000;"/>
  <use xlink:href="#m0c782361cb" x="228.727662" y="107.861502" style="fill: #ff0000;"/>
  <use xlink:href="#m0c782361cb" x="304.477039" y="113.634711" style="fill: #ff0000;"/>
  <use xlink:href="#m0c782361cb" x="330.748197" y="83.597957" style="fill: #ff0000;"/>
  <use xlink:href="#m0c782361cb" x="301.354548" y="127.809425" style="fill: #ff0000;"/>
  <use xlink:href="#m0c782361cb" x="299.724044" y="68.692105" style="fill: #ff0000;"/>
  <use xlink:href="#m0c782361cb" x="308.346246" y="140.935706" style="fill: #ff0000;"/>
  <use xlink:href="#m0c782361cb" x="314.680452" y="88.396771" style="fill: #ff0000;"/>
  <use xlink:href="#m0c782361cb" x="337.210294" y="144.111458" style="fill: #ff0000;"/>
  <use xlink:href="#m0c782361cb" x="337.211128" y="122.330764" style="fill: #ff0000;"/>
  <use xlink:href="#m0c782361cb" x="300.130143" y="98.262121" style="fill: #ff0000;"/>
  <use xlink:href="#m0c782361cb" x="326.722666" y="59.782008" style="fill: #ff0000;"/>
  <use xlink:href="#m0c782361cb" x="337.134302" y="94.49412" style="fill: #ff0000;"/>
 </g>
</svg>