<?xml version="1.0" encoding="utf-8"?>
<svg xmlns:xlink="http://www.w3.org/1999/xlink" width="432pt" height="288pt" viewBox="0 0 432 288" xmlns="http://www.w3.org/2000/svg" version="1.1">
 <defs>
  <path id="mb3c07ffb33" d="M 0 3 
C 0.795609 3 1.55874 2.683901 2.12132 2.12132 
C 2.683901 1.55874 3 0.795609 3 0 
C 3 -0.795609 2.683901 -1.55874 2.12132 -2.12132 
C 1.55874 -2.683901 0.795609 -3 0 -3 
C -0.795609 -3 -1.55874 -2.683901 -2.12132 -2.12132 
C -2.683901 -1.55874 -3 -0.795609 -3 0 
C -3 0.795609 -2.683901 1.55874 -2.12132 2.12132 
C -1.55874 2.683901 -0.795609 3 0 3 
z"/>
 </defs>
 <g>
  <use xlink:href="#mb3c07ffb33" x="93.771157" y="128.552036" style="fill: red;"/>
  <use xlink:href="#mb3c07ffb33" x="100.185436" y="102.097414" style="fill: red;"/>
  <use xlink:href="#mb3c07ffb33" x="75.609673" y="65.980085" style="fill: red;"/>
  <use xlink:href="#mb3c07ffb33" x="98.681034" y="76.997481" style="fill: red;"/>
  <use xlink:href="#mb3c07ffb33" x="104.928563" y="113.876758" style="fill: red;"/>
  <use xlink:href="#mb3c07ffb33" x="111.204614" y="73.758331" style="fill: red;"/>
  <use xlink:href="#mb3c07ffb33" x="72.230375" y="44.64" style="fill: red;"/>
  <use xlink:href="#mb3c07ffb33" x="86.858993" y="91.927638" style="fill: red;"/>
  <use xlink:href="#mb3c07ffb33" x="69.218182" y="80.165023" style="fill: red;"/>
  <use xlink:href="#mb3c07ffb33" x="81.933985" y="113.271959" style="fill: red;"/>
  <use xlink:href="#mb3c07ffb33" x="113.867214" y="96.306076" style="fill: red;"/>
  <use xlink:href="#mb3c07ffb33" x="84.917804" y="85.895936" style="fill: red;"/>
  <use xlink:href="#mb3c07ffb33" x="82.49452" y="72.548821" style="fill: red;"/>
  <use xlink:href="#mb3c07ffb33" x="90.892204" y="90.295872" style="fill: red;"/>
  <use xlink:href="#mb3c07ffb33" x="94.239342" y="79.292619" style="fill: red;"/>
  <use xlink:href="#mb3c07ffb33" x="100.959867" y="70.905993" style="fill: red;"/>
  <use xlink:href="#mb3c07ffb33" x="175.684531" y="125.84967" style="fill: red;"/>
  <use xlink:href="#mb3c07ffb33" x="176.663941" y="125.966396" style="fill: red;"/>
  <use xlink:href="#mb3c07ffb33" x="160.765093" y="123.393917" style="fill: red;"/>
  <use xlink:href="#mb3c07ffb33" x="181.020534" y="126.229719" style="fill: red;"/>
  <use xlink:href="#mb3c07ffb33" x="179.749321" y="133.367298" style="fill: red;"/>
  <use xlink:href="#mb3c07ffb33" x="182.928249" y="154.285558" style="fill: red;"/>
  <use xlink:href="#mb3c07ffb33" x="182.089606" y="96.21064" style="fill: red;"/>
  <use xlink:href="#mb3c07ffb33" x="184.591717" y="113.882865" style="fill: red;"/>
  <use xlink:href="#mb3c07ffb33" x="175.277751" y="126.762201" style="fill: red;"/>
  <use xlink:href="#mb3c07ffb33" x="172.608636" y="124.540005" style="fill: red;"/>
  <use xlink:href="#mb3c07ffb33" x="178.857663" y="129.258886" style="fill: red;"/>
  <use xlink:href="#mb3c07ffb33" x="170.199998" y="127.767215" style="fill: red;"/>
  <use xlink:href="#mb3c07ffb33" x="195.567453" y="157.771359" style="fill: red;"/>
  <use xlink:href="#mb3c07ffb33" x="199.067775" y="135.808073" style="fill: red;"/>
  <use xlink:href="#mb3c07ffb33" x="167.34683" y="143.459711" style="fill: red;"/>
  <use xlink:href="#mb3c07ffb33" x="175.117866" y="157.259191" style="fill: red;"/>
  <use xlink:href="#mb3c07ffb33" x="267.858366" y="155.390918" style="fill: red;"/>
  <use xlink:href="#mb3c07ffb33" x="237.612504" y="140.320297" style="fill: red;"/>
  <use xlink:href="#mb3c07ffb33" x="269.596178" y="212.326553" style="fill: red;"/>
  <use xlink:href="#mb3c07ffb33" x="257.633793" y="182.842305" style="fill: red;"/>
  <use xlink:href="#mb3c07ffb33" x="270.44419" y="146.666646" style="fill: red;"/>
  <use xlink:href="#mb3c07ffb33" x="255.9371" y="146.160279" style="fill: red;"/>
  <use xlink:href="#mb3c07ffb33" x="275.935244" y="168.986071" style="fill: red;"/>
  <use xlink:href="#mb3c07ffb33" x="263.04538" y="190.59993" style="fill: red;"/>
  <use xlink:href="#mb3c07ffb33" x="282.980446" y="177.120554" style="fill: red;"/>
  <use xlink:href="#mb3c07ffb33" x="253.98372" y="131.226653" style="fill: red;"/>
  <use xlink:href="#mb3c07ffb33" x="259.28742" y="183.915303" style="fill: red;"/>
  <use xlink:href="#mb3c07ffb33" x="263.809959" y="176.418449" style="fill: red;"/>
  <use xlink:href="#mb3c07ffb33" x="251.388405" y="189.494223" style="fill: red;"/>
  <use xlink:href="#mb3c07ffb33" x="242.940457" y="166.198043" style="fill: red;"/>
  <use xlink:href="#mb3c07ffb33" x="260.339378" y="181.991668" style="fill: red;"/>
  <use xlink:href="#mb3c07ffb33" x="264.772664" y="170.220448" style="fill: red;"/>
  <use xlink:href="#mb3c07ffb33" x="373.581818" y="246.24" style="fill: red;"/>
 </g>
</svg>