<?xml version="1.0" encoding="utf-8"?>
<svg xmlns:xlink="http://www.w3.org/1999/xlink" width="432pt" height="288pt" viewBox="0 0 432 288" xmlns="http://www.w3.org/2000/svg" version="1.1">
 <defs>
  <path id="m53299c7b75" d="M 0 3 
C 0.795609 3 1.55874 2.683901 2.12132 2.12132 
C 2.683901 1.55874 3 0.795609 3 0 
C 3 -0.795609 2.683901 -1.55874 2.12132 -2.12132 
C 1.55874 -2.683901 0.795609 -3 0 -3 
C -0.795609 -3 -1.55874 -2.683901 -2.12132 -2.12132 
C -2.683901 -1.55874 -3 -0.795609 -3 0 
C -3 0.795609 -2.683901 1.55874 -2.12132 2.12132 
C -1.55874 2.683901 -0.795609 3 0 3 
z"/>
 </defs>
 <g>
  <use xlink:href="#m53299c7b75" x="77.996892" y="191.155832" style="fill: #ff0000;"/>
  <use xlink:href="#m53299c7b75" x="96.92169" y="197.363436" style="fill: #ff0000;"/>
  <use xlink:href="#m53299c7b75" x="72.730593" y="183.061517" style="fill: #ff0000;"/>
  <use xlink:href="#m53299c7b75" x="94.365121" y="206.856789" style="fill: #ff0000;"/>
  <use xlink:href="#m53299c7b75" x="76.259753" y="193.549618" style="fill: #ff0000;"/>
  <use xlink:href="#m53299c7b75" x="87.481586" y="194.773871" style="fill: #ff0000;"/>
  <use xlink:href="#m53299c7b75" x="83.105249" y="204.904117" style="fill: #ff0000;"/>
  <use xlink:href="#m53299c7b75" x="86.09902" y="197.327917" style="fill: #ff0000;"/>
  <use xlink:href="#m53299c7b75" x="69.218182" y="190.5804" style="fill: #ff0000;"/>
  <use xlink:href="#m53299c7b75" x="92.054165" y="188.736173" style="fill: #ff0000;"/>
  <use xlink:href="#m53299c7b75" x="89.652263" y="186.987926" style="fill: #ff0000;"/>
  <use xlink:href="#m53299c7b75" x="75.506481" y="176.620029" style="fill: #ff0000;"/>
  <use xlink:href="#m53299c7b75" x="80.233616" y="195.141189" style="fill: #ff0000;"/>
  <use xlink:href="#m53299c7b75" x="86.343935" y="191.404231" style="fill: #ff0000;"/>
  <use xlink:href="#m53299c7b75" x="75.654895" y="178.473389" style="fill: #ff0000;"/>
  <use xlink:href="#m53299c7b75" x="82.368723" y="195.277493" style="fill: #ff0000;"/>
  <use xlink:href="#m53299c7b75" x="130.336417" y="206.232285" style="fill: #ff0000;"/>
  <use xlink:href="#m53299c7b75" x="150.564704" y="211.784152" style="fill: #ff0000;"/>
  <use xlink:href="#m53299c7b75" x="154.886814" y="215.535259" style="fill: #ff0000;"/>
  <use xlink:href="#m53299c7b75" x="152.773902" y="213.723172" style="fill: #ff0000;"/>
  <use xlink:href="#m53299c7b75" x="141.715775" y="214.825191" style="fill: #ff0000;"/>
  <use xlink:href="#m53299c7b75" x="155.311679" y="223.459397" style="fill: #ff0000;"/>
  <use xlink:href="#m53299c7b75" x="133.729079" y="211.304948" style="fill: #ff0000;"/>
  <use xlink:href="#m53299c7b75" x="156.465957" y="208.863717" style="fill: #ff0000;"/>
  <use xlink:href="#m53299c7b75" x="164.00679" y="217.67355" style="fill: #ff0000;"/>
  <use xlink:href="#m53299c7b75" x="166.424762" y="232.864129" style="fill: #ff0000;"/>
  <use xlink:href="#m53299c7b75" x="142.49236" y="214.222196" style="fill: #ff0000;"/>
  <use xlink:href="#m53299c7b75" x="144.947583" y="210.944682" style="fill: #ff0000;"/>
  <use xlink:href="#m53299c7b75" x="149.960722" y="221.565775" style="fill: #ff0000;"/>
  <use xlink:href="#m53299c7b75" x="154.809233" y="213.966897" style="fill: #ff0000;"/>
  <use xlink:href="#m53299c7b75" x="142.897559" y="221.139712" style="fill: #ff0000;"/>
  <use xlink:href="#m53299c7b75" x="152.358188" y="208.699503" style="fill: #ff0000;"/>
  <use xlink:href="#m53299c7b75" x="224.036492" y="235.088831" style="fill: #ff0000;"/>
  <use xlink:href="#m53299c7b75" x="213.659251" y="241.894505" style="fill: #ff0000;"/>
  <use xlink:href="#m53299c7b75" x="210.596862" y="234.695022" style="fill: #ff0000;"/>
  <use xlink:href="#m53299c7b75" x="205.599475" y="227.742838" style="fill: #ff0000;"/>
  <use xlink:href="#m53299c7b75" x="225.331837" y="229.11515" style="fill: #ff0000;"/>
  <use xlink:href="#m53299c7b75" x="207.430921" y="246.24" style="fill: #ff0000;"/>
  <use xlink:href="#m53299c7b75" x="198.280023" y="231.764136" style="fill: #ff0000;"/>
  <use xlink:href="#m53299c7b75" x="211.090258" y="236.799751" style="fill: #ff0000;"/>
  <use xlink:href="#m53299c7b75" x="203.590677" y="224.129483" style="fill: #ff0000;"/>
  <use xlink:href="#m53299c7b75" x="207.356594" y="245.139709" style="fill: #ff0000;"/>
  <use xlink:href="#m53299c7b75" x="187.513246" y="212.971509" style="fill: #ff0000;"/>
  <use xlink:href="#m53299c7b75" x="216.112063" y="228.293191" style="fill: #ff0000;"/>
  <use xlink:href="#m53299c7b75" x="205.714465" y="213.449914" style="fill: #ff0000;"/>
  <use xlink:href="#m53299c7b75" x="206.21029" y="226.616674" style="fill: #ff0000;"/>
  <use xlink:href="#m53299c7b75" x="208.785397" y="233.000762" style="fill: #ff0000;"/>
  <use xlink:href="#m53299c7b75" x="226.555884" y="216.33685" style="fill: #ff0000;"/>
  <use xlink:href="#m53299c7b75" x="373.581818" y="228.672047" style="fill: #ff0000;"/>
  <use xlink:href="#m53299c7b75" x="316.161203" y="44.64" style="fill: #1f77b4;"/>
 </g>
</svg>