<?xml version="1.0" encoding="utf-8"?>
<svg xmlns:xlink="http://www.w3.org/1999/xlink" width="432pt" height="288pt" viewBox="0 0 432 288" xmlns="http://www.w3.org/2000/svg" version="1.1">
 <defs>
  <style type="text/css">*{stroke-linejoin: round; stroke-linecap: butt}</style>
  <path id="m1202a70976" d="M 0 3 
C 0.795609 3 1.55874 2.683901 2.12132 2.12132 
C 2.683901 1.55874 3 0.795609 3 0 
C 3 -0.795609 2.683901 -1.55874 2.12132 -2.12132 
C 1.55874 -2.683901 0.795609 -3 0 -3 
C -0.795609 -3 -1.55874 -2.683901 -2.12132 -2.12132 
C -2.683901 -1.55874 -3 -0.795609 -3 0 
C -3 0.795609 -2.683901 1.55874 -2.12132 2.12132 
C -1.55874 2.683901 -0.795609 3 0 3 
z"/>
 </defs>
 <g>
  <!-- Cluster 1 -->
  <use xlink:href="#m1202a70976" x="88.257706" y="145.900222" style="fill: #ff0000;"/>
  <use xlink:href="#m1202a70976" x="93.128434" y="143.14479" style="fill: #ff0000;"/>
  <use xlink:href="#m1202a70976" x="110.529946" y="121.409481" style="fill: #ff0000;"/>
  <use xlink:href="#m1202a70976" x="111.404071" y="133.547261" style="fill: #ff0000;"/>
  <use xlink:href="#m1202a70976" x="69.218182" y="97.031727" style="fill: #ff0000;"/>
  <use xlink:href="#m1202a70976" x="129.747914" y="126.471385" style="fill: #ff0000;"/>
  <use xlink:href="#m1202a70976" x="93.92075" y="83.053349" style="fill: #ff0000;"/>
  <use xlink:href="#m1202a70976" x="101.719969" y="143.787622" style="fill: #ff0000;"/>
  <use xlink:href="#m1202a70976" x="125.583664" y="122.128368" style="fill: #ff0000;"/>
  <use xlink:href="#m1202a70976" x="143.580406" y="113.489188" style="fill: #ff0000;"/>
  
  <!-- Cluster 2 -->
  <use xlink:href="#m1202a70976" x="330.509356" y="176.540307" style="fill: #0000ff;"/>
  <use xlink:href="#m1202a70976" x="323.298616" y="185.946937" style="fill: #0000ff;"/>
  <use xlink:href="#m1202a70976" x="315.643403" y="229.127398" style="fill: #0000ff;"/>
  <use xlink:href="#m1202a70976" x="326.784561" y="218.716698" style="fill: #0000ff;"/>
  <use xlink:href="#m1202a70976" x="324.110148" y="152.602793" style="fill: #0000ff;"/>
  <use xlink:href="#m1202a70976" x="373.581818" y="190.672051" style="fill: #0000ff;"/>
  <use xlink:href="#m1202a70976" x="325.425733" y="197.571189" style="fill: #0000ff;"/>
  <use xlink:href="#m1202a70976" x="330.510907" y="185.663261" style="fill: #0000ff;"/>
  <use xlink:href="#m1202a70976" x="333.609197" y="246.24" style="fill: #0000ff;"/>
  <use xlink:href="#m1202a70976" x="331.688404" y="174.486369" style="fill: #0000ff;"/>
  
  <!-- Outlier -->
  <use xlink:href="#m1202a70976" x="315.250055" y="44.64" style="fill: #00ff00;"/>
 </g>
</svg>