<?xml version="1.0" encoding="utf-8"?>
<svg width="432pt" height="288pt" viewBox="0 0 432 288" xmlns="http://www.w3.org/2000/svg" version="1.1">
 <g>
  <circle cx="164.46252" cy="163.211249" r="3" style="fill: #ff0000;"/>
  <circle cx="182.258716" cy="214.321908" r="3" style="fill: #ff0000;"/>
  <circle cx="178.327586" cy="173.7831" r="3" style="fill: #ff0000;"/>
  <circle cx="182.589958" cy="205.527454" r="3" style="fill: #ff0000;"/>
  <circle cx="169.030492" cy="186.3646" r="3" style="fill: #ff0000;"/>
  <circle cx="143.248179" cy="229.115261" r="3" style="fill: #ff0000;"/>
  <circle cx="184.305163" cy="155.500435" r="3" style="fill: #ff0000;"/>
  <circle cx="181.13069" cy="169.902104" r="3" style="fill: #ff0000;"/>
  <circle cx="181.981924" cy="184.566503" r="3" style="fill: #ff0000;"/>
  <circle cx="184.958606" cy="131.823024" r="3" style="fill: #ff0000;"/>
  <circle cx="354.522075" cy="106.220338" r="3" style="fill: #0000ff;"/>
  <circle cx="348.55857" cy="159.106507" r="3" style="fill: #0000ff;"/>
  <circle cx="363.944944" cy="97.388759" r="3" style="fill: #0000ff;"/>
  <circle cx="320.201364" cy="98.473109" r="3" style="fill: #0000ff;"/>
  <circle cx="356.914435" cy="102.305066" r="3" style="fill: #0000ff;"/>
  <circle cx="335.960997" cy="129.500604" r="3" style="fill: #0000ff;"/>
  <circle cx="349.909303" cy="99.77915" r="3" style="fill: #0000ff;"/>
  <circle cx="373.581818" cy="97.794442" r="3" style="fill: #0000ff;"/>
  <circle cx="329.495266" cy="44.64" r="3" style="fill: #0000ff;"/>
  <circle cx="335.499502" cy="106.692001" r="3" style="fill: #0000ff;"/>
  <circle cx="69.218182" cy="246.24" r="3" style="fill: #00ff00;"/>
 </g>
</svg>