<?xml version="1.0" encoding="utf-8"?>
<svg xmlns:xlink="http://www.w3.org/1999/xlink" width="432pt" height="288pt" viewBox="0 0 432 288" xmlns="http://www.w3.org/2000/svg" version="1.1">
 <defs>
  <style type="text/css">*{stroke-linejoin: round; stroke-linecap: butt}</style>
 </defs>
 <g>
  <g>
    <circle cx="180.898561" cy="230.670052" r="3" style="fill: red;"/>
    <circle cx="169.910809" cy="230.78148" r="3" style="fill: red;"/>
    <circle cx="149.886355" cy="236.596663" r="3" style="fill: red;"/>
    <circle cx="187.658544" cy="227.283212" r="3" style="fill: red;"/>
    <circle cx="179.040549" cy="212.965236" r="3" style="fill: red;"/>
    <circle cx="182.80295" cy="246.24" r="3" style="fill: red;"/>
    <circle cx="175.668764" cy="233.563934" r="3" style="fill: red;"/>
    <circle cx="174.918125" cy="209.824623" r="3" style="fill: red;"/>
    <circle cx="167.95901" cy="216.926374" r="3" style="fill: red;"/>
    <circle cx="154.999602" cy="235.342144" r="3" style="fill: red;"/>
    <circle cx="363.458128" cy="168.40812" r="3" style="fill: blue;"/>
    <circle cx="348.470721" cy="171.900681" r="3" style="fill: blue;"/>
    <circle cx="353.822944" cy="165.646318" r="3" style="fill: blue;"/>
    <circle cx="368.655758" cy="175.583049" r="3" style="fill: blue;"/>
    <circle cx="341.400437" cy="161.245561" r="3" style="fill: blue;"/>
    <circle cx="354.850025" cy="171.481956" r="3" style="fill: blue;"/>
    <circle cx="317.725916" cy="182.213115" r="3" style="fill: blue;"/>
    <circle cx="361.609378" cy="163.927181" r="3" style="fill: blue;"/>
    <circle cx="373.581818" cy="168.27141" r="3" style="fill: blue;"/>
    <circle cx="361.133601" cy="162.919457" r="3" style="fill: blue;"/>
    <circle cx="69.218182" cy="44.64" r="3" style="fill: green;"/>
  </g>
 </g>
</svg>