<?xml version="1.0" encoding="utf-8"?>
<svg xmlns:xlink="http://www.w3.org/1999/xlink" width="432pt" height="288pt" viewBox="0 0 432 288" xmlns="http://www.w3.org/2000/svg" version="1.1">
 <g>
  <circle cx="84.731905" cy="185.811191" r="3" style="fill: #ff0000;"/>
  <circle cx="93.331615" cy="209.605056" r="3" style="fill: #ff0000;"/>
  <circle cx="69.218182" cy="175.073195" r="3" style="fill: #ff0000;"/>
  <circle cx="100.110314" cy="194.123319" r="3" style="fill: #ff0000;"/>
  <circle cx="79.681123" cy="185.938897" r="3" style="fill: #ff0000;"/>
  <circle cx="79.604817" cy="196.433615" r="3" style="fill: #ff0000;"/>
  <circle cx="85.111279" cy="179.72463" r="3" style="fill: #ff0000;"/>
  <circle cx="71.751875" cy="195.959548" r="3" style="fill: #ff0000;"/>
  <circle cx="77.041401" cy="198.709976" r="3" style="fill: #ff0000;"/>
  <circle cx="90.751481" cy="204.820052" r="3" style="fill: #ff0000;"/>
  <circle cx="200.997782" cy="228.546709" r="3" style="fill: #0000ff;"/>
  <circle cx="218.066848" cy="246.24" r="3" style="fill: #0000ff;"/>
  <circle cx="189.748359" cy="224.490668" r="3" style="fill: #0000ff;"/>
  <circle cx="184.604564" cy="226.13623" r="3" style="fill: #0000ff;"/>
  <circle cx="184.679801" cy="220.856491" r="3" style="fill: #0000ff;"/>
  <circle cx="200.440543" cy="240.785397" r="3" style="fill: #0000ff;"/>
  <circle cx="192.973568" cy="221.514171" r="3" style="fill: #0000ff;"/>
  <circle cx="194.463979" cy="226.137655" r="3" style="fill: #0000ff;"/>
  <circle cx="176.853584" cy="202.325722" r="3" style="fill: #0000ff;"/>
  <circle cx="194.194508" cy="228.64822" r="3" style="fill: #0000ff;"/>
  <circle cx="373.581818" cy="44.64" r="3" style="fill: #00ff00;"/>
 </g>
</svg>