<?xml version="1.0" encoding="utf-8"?>
<svg xmlns:xlink="http://www.w3.org/1999/xlink" width="432pt" height="288pt" viewBox="0 0 432 288" xmlns="http://www.w3.org/2000/svg" version="1.1">
 <defs>
  <style type="text/css">*{stroke-linejoin: round; stroke-linecap: butt}</style>
  <path id="circle" d="M 0 3 C 0.795609 3 1.55874 2.683901 2.12132 2.12132 C 2.683901 1.55874 3 0.795609 3 0 C 3 -0.795609 2.683901 -1.55874 2.12132 -2.12132 C 1.55874 -2.683901 0.795609 -3 0 -3 C -0.795609 -3 -1.55874 -2.683901 -2.12132 -2.12132 C -2.683901 -1.55874 -3 -0.795609 -3 0 C -3 0.795609 -2.683901 1.55874 -2.12132 2.12132 C -1.55874 2.683901 -0.795609 3 0 3 z"/>
 </defs>
 <g>
  <!-- Cluster 1 -->
  <use xlink:href="#circle" x="82.208418" y="206.217168" style="fill: #ff0000;"/>
  <use xlink:href="#circle" x="87.408081" y="215.346624" style="fill: #ff0000;"/>
  <use xlink:href="#circle" x="85.910325" y="223.444052" style="fill: #ff0000;"/>
  <use xlink:href="#circle" x="97.608331" y="227.162653" style="fill: #ff0000;"/>
  <use xlink:href="#circle" x="76.783159" y="214.423549" style="fill: #ff0000;"/>
  <use xlink:href="#circle" x="89.518819" y="215.409361" style="fill: #ff0000;"/>
  <use xlink:href="#circle" x="69.218182" y="215.730528" style="fill: #ff0000;"/>
  <use xlink:href="#circle" x="71.382018" y="210.540836" style="fill: #ff0000;"/>
  <use xlink:href="#circle" x="70.705786" y="222.333496" style="fill: #ff0000;"/>
  <use xlink:href="#circle" x="110.824153" y="220.670125" style="fill: #ff0000;"/>
  
  <!-- Cluster 2 -->
  <use xlink:href="#circle" x="205.576992" y="236.890369" style="fill: #0000ff;"/>
  <use xlink:href="#circle" x="196.994959" y="236.535131" style="fill: #0000ff;"/>
  <use xlink:href="#circle" x="196.007672" y="245.217486" style="fill: #0000ff;"/>
  <use xlink:href="#circle" x="183.055529" y="236.236424" style="fill: #0000ff;"/>
  <use xlink:href="#circle" x="195.985171" y="241.319528" style="fill: #0000ff;"/>
  <use xlink:href="#circle" x="202.131438" y="239.69198" style="fill: #0000ff;"/>
  <use xlink:href="#circle" x="196.837552" y="246.24" style="fill: #0000ff;"/>
  <use xlink:href="#circle" x="175.031763" y="241.396097" style="fill: #0000ff;"/>
  <use xlink:href="#circle" x="210.511918" y="236.858688" style="fill: #0000ff;"/>
  <use xlink:href="#circle" x="194.23985" y="243.71368" style="fill: #0000ff;"/>
  
  <!-- Cluster 3 -->
  <use xlink:href="#circle" x="373.581818" y="44.64" style="fill: #00ff00;"/>
 </g>
</svg>