<?xml version="1.0" encoding="utf-8"?>
<svg width="432pt" height="288pt" viewBox="0 0 432 288" xmlns="http://www.w3.org/2000/svg" version="1.1">
  <defs>
    <style type="text/css">*{stroke-linejoin: round; stroke-linecap: butt}</style>
    <path id="circle" d="M 0 3 C 0.795609 3 1.55874 2.683901 2.12132 2.12132 C 2.683901 1.55874 3 0.795609 3 0 C 3 -0.795609 2.683901 -1.55874 2.12132 -2.12132 C 1.55874 -2.683901 0.795609 -3 0 -3 C -0.795609 -3 -1.55874 -2.683901 -2.12132 -2.12132 C -2.683901 -1.55874 -3 -0.795609 -3 0 C -3 0.795609 -2.683901 1.55874 -2.12132 2.12132 C -1.55874 2.683901 -0.795609 3 0 3 z"/>
  </defs>
  <g>
    <!-- Cluster 1 -->
    <use xlink:href="#circle" x="188.265894" y="200.810472" style="fill: #ff0000;"/>
    <use xlink:href="#circle" x="197.094247" y="203.701841" style="fill: #ff0000;"/>
    <use xlink:href="#circle" x="209.604058" y="192.781155" style="fill: #ff0000;"/>
    <use xlink:href="#circle" x="211.455709" y="205.422078" style="fill: #ff0000;"/>
    <use xlink:href="#circle" x="186.365276" y="210.716266" style="fill: #ff0000;"/>
    
    <!-- Cluster 2 -->
    <use xlink:href="#circle" x="176.869696" y="232.44701" style="fill: #00ff00;"/>
    <use xlink:href="#circle" x="180.077693" y="244.014744" style="fill: #00ff00;"/>
    <use xlink:href="#circle" x="208.975132" y="237.684593" style="fill: #00ff00;"/>
    <use xlink:href="#circle" x="159.292624" y="221.786417" style="fill: #00ff00;"/>
    <use xlink:href="#circle" x="214.260275" y="226.377487" style="fill: #00ff00;"/>
    
    <!-- Cluster 3 -->
    <use xlink:href="#circle" x="350.680023" y="213.041459" style="fill: #0000ff;"/>
    <use xlink:href="#circle" x="340.398841" y="227.910871" style="fill: #0000ff;"/>
    <use xlink:href="#circle" x="359.107561" y="222.262551" style="fill: #0000ff;"/>
    <use xlink:href="#circle" x="324.3585" y="246.24" style="fill: #0000ff;"/>
    <use xlink:href="#circle" x="363.308079" y="230.225841" style="fill: #0000ff;"/>
    <use xlink:href="#circle" x="325.650174" y="232.825423" style="fill: #0000ff;"/>
    <use xlink:href="#circle" x="365.331852" y="217.06022" style="fill: #0000ff;"/>
    <use xlink:href="#circle" x="371.309016" y="216.276265" style="fill: #0000ff;"/>
    <use xlink:href="#circle" x="370.249181" y="199.611949" style="fill: #0000ff;"/>
    <use xlink:href="#circle" x="373.581818" y="234.508913" style="fill: #0000ff;"/>
    
    <!-- Outlier -->
    <use xlink:href="#circle" x="69.218182" y="44.64" style="fill: #ff00ff;"/>
  </g>
</svg>