<?xml version="1.0" encoding="utf-8" standalone="no"?>
<!DOCTYPE svg PUBLIC "-//W3C//DTD SVG 1.1//EN"
  "http://www.w3.org/Graphics/SVG/1.1/DTD/svg11.dtd">
<svg xmlns:xlink="http://www.w3.org/1999/xlink" width="432pt" height="288pt" viewBox="0 0 432 288" xmlns="http://www.w3.org/2000/svg" version="1.1">
 <metadata>
  <rdf:RDF xmlns:dc="http://purl.org/dc/elements/1.1/" xmlns:cc="http://creativecommons.org/ns#" xmlns:rdf="http://www.w3.org/1999/02/22-rdf-syntax-ns#">
   <cc:Work>
    <dc:type rdf:resource="http://purl.org/dc/dcmitype/StillImage"/>
    <dc:date>2024-04-18T15:56:44.097190</dc:date>
    <dc:format>image/svg+xml</dc:format>
    <dc:creator>
     <cc:Agent>
      <dc:title>Matplotlib v3.8.3, https://matplotlib.org/</dc:title>
     </cc:Agent>
    </dc:creator>
   </cc:Work>
  </rdf:RDF>
 </metadata>
 <defs>
  <style type="text/css">*{stroke-linejoin: round; stroke-linecap: butt}</style>
 </defs>
 <g id="figure_1">
  <g id="patch_1">
   <path d="M 0 288 
L 432 288 
L 432 0 
L 0 0 
L 0 288 
z
" style="fill: none"/>
  </g>
  <g id="axes_1">
   <g id="patch_2">
    <path d="M 54 256.32 
L 388.8 256.32 
L 388.8 34.56 
L 54 34.56 
z
" style="fill: #ffffff"/>
   </g>
   <g id="patch_3">
    <path d="M 55.3392 256.32 
L 66.0528 256.32 
L 66.0528 235.44869 
L 55.3392 235.44869 
z
" clip-path="url(#pe4df565141)" style="fill: #1f77b4"/>
   </g>
   <g id="patch_4">
    <path d="M 68.7312 256.32 
L 79.4448 256.32 
L 79.4448 189.625821 
L 68.7312 189.625821 
z
" clip-path="url(#pe4df565141)" style="fill: #1f77b4"/>
   </g>
   <g id="patch_5">
    <path d="M 82.1232 256.32 
L 92.8368 256.32 
L 92.8368 217.272609 
L 82.1232 217.272609 
z
" clip-path="url(#pe4df565141)" style="fill: #1f77b4"/>
   </g>
   <g id="patch_6">
    <path d="M 95.5152 256.32 
L 106.2288 256.32 
L 106.2288 192.174352 
L 95.5152 192.174352 
z
" clip-path="url(#pe4df565141)" style="fill: #1f77b4"/>
   </g>
   <g id="patch_7">
    <path d="M 108.9072 256.32 
L 119.6208 256.32 
L 119.6208 232.531393 
L 108.9072 232.531393 
z
" clip-path="url(#pe4df565141)" style="fill: #1f77b4"/>
   </g>
   <g id="patch_8">
    <path d="M 122.2992 256.32 
L 133.0128 256.32 
L 133.0128 116.433086 
L 122.2992 116.433086 
z
" clip-path="url(#pe4df565141)" style="fill: #1f77b4"/>
   </g>
   <g id="patch_9">
    <path d="M 135.6912 256.32 
L 146.4048 256.32 
L 146.4048 132.615525 
L 135.6912 132.615525 
z
" clip-path="url(#pe4df565141)" style="fill: #1f77b4"/>
   </g>
   <g id="patch_10">
    <path d="M 149.0832 256.32 
L 159.7968 256.32 
L 159.7968 253.602636 
L 149.0832 253.602636 
z
" clip-path="url(#pe4df565141)" style="fill: #1f77b4"/>
   </g>
   <g id="patch_11">
    <path d="M 162.4752 256.32 
L 173.1888 256.32 
L 173.1888 54.72 
L 162.4752 54.72 
z
" clip-path="url(#pe4df565141)" style="fill: #1f77b4"/>
   </g>
   <g id="patch_12">
    <path d="M 175.8672 256.32 
L 186.5808 256.32 
L 186.5808 152.405138 
L 175.8672 152.405138 
z
" clip-path="url(#pe4df565141)" style="fill: #1f77b4"/>
   </g>
   <g id="patch_13">
    <path d="M 189.2592 256.32 
L 199.9728 256.32 
L 199.9728 108.712909 
L 189.2592 108.712909 
z
" clip-path="url(#pe4df565141)" style="fill: #1f77b4"/>
   </g>
   <g id="patch_14">
    <path d="M 202.6512 256.32 
L 213.3648 256.32 
L 213.3648 226.920076 
L 202.6512 226.920076 
z
" clip-path="url(#pe4df565141)" style="fill: #1f77b4"/>
   </g>
   <g id="patch_15">
    <path d="M 216.0432 256.32 
L 226.7568 256.32 
L 226.7568 159.907166 
L 216.0432 159.907166 
z
" clip-path="url(#pe4df565141)" style="fill: #1f77b4"/>
   </g>
   <g id="patch_16">
    <path d="M 229.4352 256.32 
L 240.1488 256.32 
L 240.1488 106.195061 
L 229.4352 106.195061 
z
" clip-path="url(#pe4df565141)" style="fill: #1f77b4"/>
   </g>
   <g id="patch_17">
    <path d="M 242.8272 256.32 
L 253.5408 256.32 
L 253.5408 225.541852 
L 242.8272 225.541852 
z
" clip-path="url(#pe4df565141)" style="fill: #1f77b4"/>
   </g>
   <g id="patch_18">
    <path d="M 256.2192 256.32 
L 266.9328 256.32 
L 266.9328 184.624792 
L 256.2192 184.624792 
z
" clip-path="url(#pe4df565141)" style="fill: #1f77b4"/>
   </g>
   <g id="patch_19">
    <path d="M 269.6112 256.32 
L 280.3248 256.32 
L 280.3248 92.552607 
L 269.6112 92.552607 
z
" clip-path="url(#pe4df565141)" style="fill: #1f77b4"/>
   </g>
   <g id="patch_20">
    <path d="M 283.0032 256.32 
L 293.7168 256.32 
L 293.7168 188.501606 
L 283.0032 188.501606 
z
" clip-path="url(#pe4df565141)" style="fill: #1f77b4"/>
   </g>
   <g id="patch_21">
    <path d="M 296.3952 256.32 
L 307.1088 256.32 
L 307.1088 104.109612 
L 296.3952 104.109612 
z
" clip-path="url(#pe4df565141)" style="fill: #1f77b4"/>
   </g>
   <g id="patch_22">
    <path d="M 309.7872 256.32 
L 320.5008 256.32 
L 320.5008 76.778589 
L 309.7872 76.778589 
z
" clip-path="url(#pe4df565141)" style="fill: #1f77b4"/>
   </g>
   <g id="patch_23">
    <path d="M 323.1792 256.32 
L 333.8928 256.32 
L 333.8928 175.008293 
L 323.1792 175.008293 
z
" clip-path="url(#pe4df565141)" style="fill: #1f77b4"/>
   </g>
   <g id="patch_24">
    <path d="M 336.5712 256.32 
L 347.2848 256.32 
L 347.2848 161.165525 
L 336.5712 161.165525 
z
" clip-path="url(#pe4df565141)" style="fill: #1f77b4"/>
   </g>
   <g id="patch_25">
    <path d="M 349.9632 256.32 
L 360.6768 256.32 
L 360.6768 150.260329 
L 349.9632 150.260329 
z
" clip-path="url(#pe4df565141)" style="fill: #1f77b4"/>
   </g>
   <g id="patch_26">
    <path d="M 363.3552 256.32 
L 374.0688 256.32 
L 374.0688 114.513716 
L 363.3552 114.513716 
z
" clip-path="url(#pe4df565141)" style="fill: #1f77b4"/>
   </g>
   <g id="patch_27">
    <path d="M 376.7472 256.32 
L 387.4608 256.32 
L 387.4608 190.791982 
L 376.7472 190.791982 
z
" clip-path="url(#pe4df565141)" style="fill: #1f77b4"/>
   </g>
   <g id="matplotlib.axis_1">
    <g id="xtick_1">
     <g id="line2d_1">
      <defs>
       <path id="m8094a668ea" d="M 0 0 
L 0 3.5 
" style="stroke: #000000; stroke-width: 0.8"/>
      </defs>
      <g>
       <use xlink:href="#m8094a668ea" x="114.264" y="256.32" style="stroke: #000000; stroke-width: 0.8"/>
      </g>
     </g>
     <g id="text_1">
      <!-- 5 -->
      <g transform="translate(111.08275 270.918437) scale(0.1 -0.1)">
       <defs>
        <path id="DejaVuSans-35" d="M 691 4666 
L 3169 4666 
L 3169 4134 
L 1269 4134 
L 1269 2991 
Q 1406 3038 1543 3061 
Q 1681 3084 1819 3084 
Q 2600 3084 3056 2656 
Q 3513 2228 3513 1497 
Q 3513 744 3044 326 
Q 2575 -91 1722 -91 
Q 1428 -91 1123 -41 
Q 819 9 494 109 
L 494 744 
Q 775 591 1075 516 
Q 1375 441 1709 441 
Q 2250 441 2565 725 
Q 2881 1009 2881 1497 
Q 2881 1984 2565 2268 
Q 2250 2553 1709 2553 
Q 1456 2553 1204 2497 
Q 953 2441 691 2322 
L 691 4666 
z
" transform="scale(0.015625)"/>
       </defs>
       <use xlink:href="#DejaVuSans-35"/>
      </g>
     </g>
    </g>
    <g id="xtick_2">
     <g id="line2d_2">
      <g>
       <use xlink:href="#m8094a668ea" x="181.224" y="256.32" style="stroke: #000000; stroke-width: 0.8"/>
      </g>
     </g>
     <g id="text_2">
      <!-- 10 -->
      <g transform="translate(174.8615 270.918437) scale(0.1 -0.1)">
       <defs>
        <path id="DejaVuSans-31" d="M 794 531 
L 1825 531 
L 1825 4091 
L 703 3866 
L 703 4441 
L 1819 4666 
L 2450 4666 
L 2450 531 
L 3481 531 
L 3481 0 
L 794 0 
L 794 531 
z
" transform="scale(0.015625)"/>
        <path id="DejaVuSans-30" d="M 2034 4250 
Q 1547 4250 1301 3770 
Q 1056 3291 1056 2328 
Q 1056 1369 1301 889 
Q 1547 409 2034 409 
Q 2525 409 2770 889 
Q 3016 1369 3016 2328 
Q 3016 3291 2770 3770 
Q 2525 4250 2034 4250 
z
M 2034 4750 
Q 2819 4750 3233 4129 
Q 3647 3509 3647 2328 
Q 3647 1150 3233 529 
Q 2819 -91 2034 -91 
Q 1250 -91 836 529 
Q 422 1150 422 2328 
Q 422 3509 836 4129 
Q 1250 4750 2034 4750 
z
" transform="scale(0.015625)"/>
       </defs>
       <use xlink:href="#DejaVuSans-31"/>
       <use xlink:href="#DejaVuSans-30" x="63.623047"/>
      </g>
     </g>
    </g>
    <g id="xtick_3">
     <g id="line2d_3">
      <g>
       <use xlink:href="#m8094a668ea" x="248.184" y="256.32" style="stroke: #000000; stroke-width: 0.8"/>
      </g>
     </g>
     <g id="text_3">
      <!-- 15 -->
      <g transform="translate(241.8215 270.918437) scale(0.1 -0.1)">
       <use xlink:href="#DejaVuSans-31"/>
       <use xlink:href="#DejaVuSans-35" x="63.623047"/>
      </g>
     </g>
    </g>
    <g id="xtick_4">
     <g id="line2d_4">
      <g>
       <use xlink:href="#m8094a668ea" x="315.144" y="256.32" style="stroke: #000000; stroke-width: 0.8"/>
      </g>
     </g>
     <g id="text_4">
      <!-- 20 -->
      <g transform="translate(308.7815 270.918437) scale(0.1 -0.1)">
       <defs>
        <path id="DejaVuSans-32" d="M 1228 531 
L 3431 531 
L 3431 0 
L 469 0 
L 469 531 
Q 828 903 1448 1529 
Q 2069 2156 2228 2338 
Q 2531 2678 2651 2914 
Q 2772 3150 2772 3378 
Q 2772 3750 2511 3984 
Q 2250 4219 1831 4219 
Q 1534 4219 1204 4116 
Q 875 4013 500 3803 
L 500 4441 
Q 881 4594 1212 4672 
Q 1544 4750 1819 4750 
Q 2544 4750 2975 4387 
Q 3406 4025 3406 3419 
Q 3406 3131 3298 2873 
Q 3191 2616 2906 2266 
Q 2828 2175 2409 1742 
Q 1991 1309 1228 531 
z
" transform="scale(0.015625)"/>
       </defs>
       <use xlink:href="#DejaVuSans-32"/>
       <use xlink:href="#DejaVuSans-30" x="63.623047"/>
      </g>
     </g>
    </g>
    <g id="xtick_5">
     <g id="line2d_5">
      <g>
       <use xlink:href="#m8094a668ea" x="382.104" y="256.32" style="stroke: #000000; stroke-width: 0.8"/>
      </g>
     </g>
     <g id="text_5">
      <!-- 25 -->
      <g transform="translate(375.7415 270.918437) scale(0.1 -0.1)">
       <use xlink:href="#DejaVuSans-32"/>
       <use xlink:href="#DejaVuSans-35" x="63.623047"/>
      </g>
     </g>
    </g>
   </g>
   <g id="matplotlib.axis_2">
    <g id="ytick_1">
     <g id="line2d_6">
      <defs>
       <path id="ma67aa55534" d="M 0 0 
L -3.5 0 
" style="stroke: #000000; stroke-width: 0.8"/>
      </defs>
      <g>
       <use xlink:href="#ma67aa55534" x="54" y="256.32" style="stroke: #000000; stroke-width: 0.8"/>
      </g>
     </g>
     <g id="text_6">
      <!-- 0.0 -->
      <g transform="translate(31.096875 260.119219) scale(0.1 -0.1)">
       <defs>
        <path id="DejaVuSans-2e" d="M 684 794 
L 1344 794 
L 1344 0 
L 684 0 
L 684 794 
z
" transform="scale(0.015625)"/>
       </defs>
       <use xlink:href="#DejaVuSans-30"/>
       <use xlink:href="#DejaVuSans-2e" x="63.623047"/>
       <use xlink:href="#DejaVuSans-30" x="95.410156"/>
      </g>
     </g>
    </g>
    <g id="ytick_2">
     <g id="line2d_7">
      <g>
       <use xlink:href="#ma67aa55534" x="54" y="215.070069" style="stroke: #000000; stroke-width: 0.8"/>
      </g>
     </g>
     <g id="text_7">
      <!-- 0.2 -->
      <g transform="translate(31.096875 218.869287) scale(0.1 -0.1)">
       <use xlink:href="#DejaVuSans-30"/>
       <use xlink:href="#DejaVuSans-2e" x="63.623047"/>
       <use xlink:href="#DejaVuSans-32" x="95.410156"/>
      </g>
     </g>
    </g>
    <g id="ytick_3">
     <g id="line2d_8">
      <g>
       <use xlink:href="#ma67aa55534" x="54" y="173.820137" style="stroke: #000000; stroke-width: 0.8"/>
      </g>
     </g>
     <g id="text_8">
      <!-- 0.4 -->
      <g transform="translate(31.096875 177.619356) scale(0.1 -0.1)">
       <defs>
        <path id="DejaVuSans-34" d="M 2419 4116 
L 825 1625 
L 2419 1625 
L 2419 4116 
z
M 2253 4666 
L 3047 4666 
L 3047 1625 
L 3713 1625 
L 3713 1100 
L 3047 1100 
L 3047 0 
L 2419 0 
L 2419 1100 
L 313 1100 
L 313 1709 
L 2253 4666 
z
" transform="scale(0.015625)"/>
       </defs>
       <use xlink:href="#DejaVuSans-30"/>
       <use xlink:href="#DejaVuSans-2e" x="63.623047"/>
       <use xlink:href="#DejaVuSans-34" x="95.410156"/>
      </g>
     </g>
    </g>
    <g id="ytick_4">
     <g id="line2d_9">
      <g>
       <use xlink:href="#ma67aa55534" x="54" y="132.570206" style="stroke: #000000; stroke-width: 0.8"/>
      </g>
     </g>
     <g id="text_9">
      <!-- 0.6 -->
      <g transform="translate(31.096875 136.369425) scale(0.1 -0.1)">
       <defs>
        <path id="DejaVuSans-36" d="M 2113 2584 
Q 1688 2584 1439 2293 
Q 1191 2003 1191 1497 
Q 1191 994 1439 701 
Q 1688 409 2113 409 
Q 2538 409 2786 701 
Q 3034 994 3034 1497 
Q 3034 2003 2786 2293 
Q 2538 2584 2113 2584 
z
M 3366 4563 
L 3366 3988 
Q 3128 4100 2886 4159 
Q 2644 4219 2406 4219 
Q 1781 4219 1451 3797 
Q 1122 3375 1075 2522 
Q 1259 2794 1537 2939 
Q 1816 3084 2150 3084 
Q 2853 3084 3261 2657 
Q 3669 2231 3669 1497 
Q 3669 778 3244 343 
Q 2819 -91 2113 -91 
Q 1303 -91 875 529 
Q 447 1150 447 2328 
Q 447 3434 972 4092 
Q 1497 4750 2381 4750 
Q 2619 4750 2861 4703 
Q 3103 4656 3366 4563 
z
" transform="scale(0.015625)"/>
       </defs>
       <use xlink:href="#DejaVuSans-30"/>
       <use xlink:href="#DejaVuSans-2e" x="63.623047"/>
       <use xlink:href="#DejaVuSans-36" x="95.410156"/>
      </g>
     </g>
    </g>
    <g id="ytick_5">
     <g id="line2d_10">
      <g>
       <use xlink:href="#ma67aa55534" x="54" y="91.320275" style="stroke: #000000; stroke-width: 0.8"/>
      </g>
     </g>
     <g id="text_10">
      <!-- 0.8 -->
      <g transform="translate(31.096875 95.119494) scale(0.1 -0.1)">
       <defs>
        <path id="DejaVuSans-38" d="M 2034 2216 
Q 1584 2216 1326 1975 
Q 1069 1734 1069 1313 
Q 1069 891 1326 650 
Q 1584 409 2034 409 
Q 2484 409 2743 651 
Q 3003 894 3003 1313 
Q 3003 1734 2745 1975 
Q 2488 2216 2034 2216 
z
M 1403 2484 
Q 997 2584 770 2862 
Q 544 3141 544 3541 
Q 544 4100 942 4425 
Q 1341 4750 2034 4750 
Q 2731 4750 3128 4425 
Q 3525 4100 3525 3541 
Q 3525 3141 3298 2862 
Q 3072 2584 2669 2484 
Q 3125 2378 3379 2068 
Q 3634 1759 3634 1313 
Q 3634 634 3220 271 
Q 2806 -91 2034 -91 
Q 1263 -91 848 271 
Q 434 634 434 1313 
Q 434 1759 690 2068 
Q 947 2378 1403 2484 
z
M 1172 3481 
Q 1172 3119 1398 2916 
Q 1625 2713 2034 2713 
Q 2441 2713 2670 2916 
Q 2900 3119 2900 3481 
Q 2900 3844 2670 4047 
Q 2441 4250 2034 4250 
Q 1625 4250 1398 4047 
Q 1172 3844 1172 3481 
z
" transform="scale(0.015625)"/>
       </defs>
       <use xlink:href="#DejaVuSans-30"/>
       <use xlink:href="#DejaVuSans-2e" x="63.623047"/>
       <use xlink:href="#DejaVuSans-38" x="95.410156"/>
      </g>
     </g>
    </g>
    <g id="ytick_6">
     <g id="line2d_11">
      <g>
       <use xlink:href="#ma67aa55534" x="54" y="50.070343" style="stroke: #000000; stroke-width: 0.8"/>
      </g>
     </g>
     <g id="text_11">
      <!-- 1.0 -->
      <g transform="translate(31.096875 53.869562) scale(0.1 -0.1)">
       <use xlink:href="#DejaVuSans-31"/>
       <use xlink:href="#DejaVuSans-2e" x="63.623047"/>
       <use xlink:href="#DejaVuSans-30" x="95.410156"/>
      </g>
     </g>
    </g>
   </g>
   <g id="patch_28">
    <path d="M 54 256.32 
L 54 34.56 
" style="fill: none; stroke: #000000; stroke-width: 0.8; stroke-linejoin: miter; stroke-linecap: square"/>
   </g>
   <g id="patch_29">
    <path d="M 388.8 256.32 
L 388.8 34.56 
" style="fill: none; stroke: #000000; stroke-width: 0.8; stroke-linejoin: miter; stroke-linecap: square"/>
   </g>
   <g id="patch_30">
    <path d="M 54 256.32 
L 388.8 256.32 
" style="fill: none; stroke: #000000; stroke-width: 0.8; stroke-linejoin: miter; stroke-linecap: square"/>
   </g>
   <g id="patch_31">
    <path d="M 54 34.56 
L 388.8 34.56 
" style="fill: none; stroke: #000000; stroke-width: 0.8; stroke-linejoin: miter; stroke-linecap: square"/>
   </g>
   <g id="legend_1"/>
  </g>
 </g>
 <defs>
  <clipPath id="pe4df565141">
   <rect x="54" y="34.56" width="334.8" height="221.76"/>
  </clipPath>
 </defs>
</svg>
