<?xml version="1.0" encoding="utf-8"?>
<svg xmlns:xlink="http://www.w3.org/1999/xlink" width="432pt" height="288pt" viewBox="0 0 432 288" xmlns="http://www.w3.org/2000/svg" version="1.1">
 <defs>
  <path id="m2ce559578a" d="M 0 3 
C 0.795609 3 1.55874 2.683901 2.12132 2.12132 
C 2.683901 1.55874 3 0.795609 3 0 
C 3 -0.795609 2.683901 -1.55874 2.12132 -2.12132 
C 1.55874 -2.683901 0.795609 -3 0 -3 
C -0.795609 -3 -1.55874 -2.683901 -2.12132 -2.12132 
C -2.683901 -1.55874 -3 -0.795609 -3 0 
C -3 0.795609 -2.683901 1.55874 -2.12132 2.12132 
C -1.55874 2.683901 -0.795609 3 0 3 
z"/>
 </defs>
 <g>
  <use xlink:href="#m2ce559578a" x="74.298653" y="44.64" style="fill: red; stroke: red"/>
  <use xlink:href="#m2ce559578a" x="128.117078" y="76.700281" style="fill: red; stroke: red"/>
  <use xlink:href="#m2ce559578a" x="111.807452" y="72.871246" style="fill: red; stroke: red"/>
  <use xlink:href="#m2ce559578a" x="98.109514" y="98.919831" style="fill: red; stroke: red"/>
  <use xlink:href="#m2ce559578a" x="72.748168" y="67.530755" style="fill: red; stroke: red"/>
  <use xlink:href="#m2ce559578a" x="72.010358" y="102.149743" style="fill: red; stroke: red"/>
  <use xlink:href="#m2ce559578a" x="88.475039" y="153.985204" style="fill: red; stroke: red"/>
  <use xlink:href="#m2ce559578a" x="69.218182" y="45.158677" style="fill: red; stroke: red"/>
  <use xlink:href="#m2ce559578a" x="85.198174" y="71.32208" style="fill: red; stroke: red"/>
  <use xlink:href="#m2ce559578a" x="87.501104" y="148.704789" style="fill: red; stroke: red"/>
  <use xlink:href="#m2ce559578a" x="236.335366" y="136.981495" style="fill: red; stroke: red"/>
  <use xlink:href="#m2ce559578a" x="232.749289" y="200.234183" style="fill: red; stroke: red"/>
  <use xlink:href="#m2ce559578a" x="217.723455" y="141.845773" style="fill: red; stroke: red"/>
  <use xlink:href="#m2ce559578a" x="233.320668" y="212.157589" style="fill: red; stroke: red"/>
  <use xlink:href="#m2ce559578a" x="261.579228" y="159.654758" style="fill: red; stroke: red"/>
  <use xlink:href="#m2ce559578a" x="219.305146" y="162.224211" style="fill: red; stroke: red"/>
  <use xlink:href="#m2ce559578a" x="221.384301" y="145.648525" style="fill: red; stroke: red"/>
  <use xlink:href="#m2ce559578a" x="210.145241" y="159.751431" style="fill: red; stroke: red"/>
  <use xlink:href="#m2ce559578a" x="242.134787" y="136.885409" style="fill: red; stroke: red"/>
  <use xlink:href="#m2ce559578a" x="215.79508" y="161.152804" style="fill: red; stroke: red"/>
  <use xlink:href="#m2ce559578a" x="373.581818" y="246.24" style="fill: red; stroke: red"/>
 </g>
</svg>