<?xml version="1.0" encoding="UTF-8" standalone="no"?>
<svg xmlns="http://www.w3.org/2000/svg" width="432pt" height="288pt" viewBox="0 0 432 288" version="1.1">
  <g id="figure_1">
    <g id="PathCollection_1">
      <defs>
        <path id="m94c7cf4d21" d="M 0 3 C 0.795609 3 1.55874 2.683901 2.12132 2.12132 C 2.683901 1.55874 3 0.795609 3 0 C 3 -0.795609 2.683901 -1.55874 2.12132 -2.12132 C 1.55874 -2.683901 0.795609 -3 0 -3 C -0.795609 -3 -1.55874 -2.683901 -2.12132 -2.12132 C -2.683901 -1.55874 -3 -0.795609 -3 0 C -3 0.795609 -2.683901 1.55874 -2.12132 2.12132 C -1.55874 2.683901 -0.795609 3 0 3 z" style="stroke: #1f77b4; stroke-opacity: 0.6"/>
      </defs>
      <use xlink:href="#m94c7cf4d21" x="323.562529" y="181.360665" style="fill: #ff0000; fill-opacity: 0.6; stroke: #ff0000; stroke-opacity: 0.6"/>
      <use xlink:href="#m94c7cf4d21" x="348.058024" y="191.223799" style="fill: #ff0000; fill-opacity: 0.6; stroke: #ff0000; stroke-opacity: 0.6"/>
      <use xlink:href="#m94c7cf4d21" x="326.510045" y="189.811656" style="fill: #ff0000; fill-opacity: 0.6; stroke: #ff0000; stroke-opacity: 0.6"/>
      <use xlink:href="#m94c7cf4d21" x="332.538894" y="189.920652" style="fill: #ff0000; fill-opacity: 0.6; stroke: #ff0000; stroke-opacity: 0.6"/>
      <use xlink:href="#m94c7cf4d21" x="349.213282" y="174.80542" style="fill: #ff0000; fill-opacity: 0.6; stroke: #ff0000; stroke-opacity: 0.6"/>
      <use xlink:href="#m94c7cf4d21" x="373.581818" y="166.436734" style="fill: #ff0000; fill-opacity: 0.6; stroke: #ff0000; stroke-opacity: 0.6"/>
      <use xlink:href="#m94c7cf4d21" x="325.410028" y="191.536001" style="fill: #ff0000; fill-opacity: 0.6; stroke: #ff0000; stroke-opacity: 0.6"/>
      <use xlink:href="#m94c7cf4d21" x="302.258481" y="190.810858" style="fill: #ff0000; fill-opacity: 0.6; stroke: #ff0000; stroke-opacity: 0.6"/>
      <use xlink:href="#m94c7cf4d21" x="333.656318" y="181.370443" style="fill: #ff0000; fill-opacity: 0.6; stroke: #ff0000; stroke-opacity: 0.6"/>
      <use xlink:href="#m94c7cf4d21" x="322.25913" y="166.343168" style="fill: #ff0000; fill-opacity: 0.6; stroke: #ff0000; stroke-opacity: 0.6"/>
      <use xlink:href="#m94c7cf4d21" x="342.17903" y="44.64" style="fill: #ff0000; fill-opacity: 0.6; stroke: #ff0000; stroke-opacity: 0.6"/>
    </g>
  </g>
</svg>