<?xml version="1.0" encoding="UTF-8" standalone="no"?>
<svg xmlns="http://www.w3.org/2000/svg" width="432pt" height="288pt" viewBox="0 0 432 288" version="1.1">
  <defs>
    <style type="text/css">*{stroke-linejoin: round; stroke-linecap: butt}</style>
    <path id="m27b4255c60" d="M 0 3 
      C 0.795609 3 1.55874 2.683901 2.12132 2.12132 
      C 2.683901 1.55874 3 0.795609 3 0 
      C 3 -0.795609 2.683901 -1.55874 2.12132 -2.12132 
      C 1.55874 -2.683901 0.795609 -3 0 -3 
      C -0.795609 -3 -1.55874 -2.683901 -2.12132 -2.12132 
      C -2.683901 -1.55874 -3 -0.795609 -3 0 
      C -3 0.795609 -2.683901 1.55874 -2.12132 2.12132 
      C -1.55874 2.683901 -0.795609 3 0 3 
      z" style="stroke: #1f77b4; stroke-opacity: 0.6"/>
  </defs>
  <g>
    <use xlink:href="#m27b4255c60" x="363.458128" y="168.40812" style="fill: red; fill-opacity: 0.6; stroke: red; stroke-opacity: 0.6"/>
    <use xlink:href="#m27b4255c60" x="348.470721" y="171.900681" style="fill: red; fill-opacity: 0.6; stroke: red; stroke-opacity: 0.6"/>
    <use xlink:href="#m27b4255c60" x="353.822944" y="165.646318" style="fill: red; fill-opacity: 0.6; stroke: red; stroke-opacity: 0.6"/>
    <use xlink:href="#m27b4255c60" x="368.655758" y="175.583049" style="fill: red; fill-opacity: 0.6; stroke: red; stroke-opacity: 0.6"/>
    <use xlink:href="#m27b4255c60" x="341.400437" y="161.245561" style="fill: red; fill-opacity: 0.6; stroke: red; stroke-opacity: 0.6"/>
    <use xlink:href="#m27b4255c60" x="354.850025" y="171.481956" style="fill: red; fill-opacity: 0.6; stroke: red; stroke-opacity: 0.6"/>
    <use xlink:href="#m27b4255c60" x="317.725916" y="182.213115" style="fill: red; fill-opacity: 0.6; stroke: red; stroke-opacity: 0.6"/>
    <use xlink:href="#m27b4255c60" x="361.609378" y="163.927181" style="fill: red; fill-opacity: 0.6; stroke: red; stroke-opacity: 0.6"/>
    <use xlink:href="#m27b4255c60" x="373.581818" y="168.27141" style="fill: red; fill-opacity: 0.6; stroke: red; stroke-opacity: 0.6"/>
    <use xlink:href="#m27b4255c60" x="361.133601" y="162.919457" style="fill: red; fill-opacity: 0.6; stroke: red; stroke-opacity: 0.6"/>
  </g>
</svg>