<?xml version="1.0" encoding="utf-8"?>
<svg xmlns:xlink="http://www.w3.org/1999/xlink" width="432pt" height="288pt" viewBox="0 0 432 288" xmlns="http://www.w3.org/2000/svg" version="1.1">
 <defs>
  <style type="text/css">*{stroke-linejoin: round; stroke-linecap: butt}</style>
  <path id="m72e6a4f61a" d="M 0 3 
C 0.795609 3 1.55874 2.683901 2.12132 2.12132 
C 2.683901 1.55874 3 0.795609 3 0 
C 3 -0.795609 2.683901 -1.55874 2.12132 -2.12132 
C 1.55874 -2.683901 0.795609 -3 0 -3 
C -0.795609 -3 -1.55874 -2.683901 -2.12132 -2.12132 
C -2.683901 -1.55874 -3 -0.795609 -3 0 
C -3 0.795609 -2.683901 1.55874 -2.12132 2.12132 
C -1.55874 2.683901 -0.795609 3 0 3 
z"/>
 </defs>
 <g>
  <use xlink:href="#m72e6a4f61a" x="339.467161" y="80.20599" style="fill: red; stroke: red;"/>
  <use xlink:href="#m72e6a4f61a" x="310.390777" y="60.647896" style="fill: red; stroke: red;"/>
  <use xlink:href="#m72e6a4f61a" x="322.776983" y="47.676097" style="fill: red; stroke: red;"/>
  <use xlink:href="#m72e6a4f61a" x="293.032504" y="108.004872" style="fill: red; stroke: red;"/>
  <use xlink:href="#m72e6a4f61a" x="313.215706" y="79.666456" style="fill: red; stroke: red;"/>
  <use xlink:href="#m72e6a4f61a" x="328.306916" y="53.023211" style="fill: red; stroke: red;"/>
  <use xlink:href="#m72e6a4f61a" x="284.878116" y="44.64" style="fill: red; stroke: red;"/>
  <use xlink:href="#m72e6a4f61a" x="310.93279" y="67.519995" style="fill: red; stroke: red;"/>
  <use xlink:href="#m72e6a4f61a" x="300.174958" y="116.833421" style="fill: red; stroke: red;"/>
  <use xlink:href="#m72e6a4f61a" x="285.696316" y="75.171981" style="fill: red; stroke: red;"/>
  <use xlink:href="#m72e6a4f61a" x="373.581818" y="59.918743" style="fill: red; stroke: red;"/>
 </g>
</svg>