<?xml version="1.0" encoding="utf-8"?>
<svg xmlns:xlink="http://www.w3.org/1999/xlink" width="432pt" height="288pt" viewBox="0 0 432 288" xmlns="http://www.w3.org/2000/svg" version="1.1">
 <defs>
  <style type="text/css">*{stroke-linejoin: round; stroke-linecap: butt}</style>
  <path id="m8818455adf" d="M 0 3 
C 0.795609 3 1.55874 2.683901 2.12132 2.12132 
C 2.683901 1.55874 3 0.795609 3 0 
C 3 -0.795609 2.683901 -1.55874 2.12132 -2.12132 
C 1.55874 -2.683901 0.795609 -3 0 -3 
C -0.795609 -3 -1.55874 -2.683901 -2.12132 -2.12132 
C -2.683901 -1.55874 -3 -0.795609 -3 0 
C -3 0.795609 -2.683901 1.55874 -2.12132 2.12132 
C -1.55874 2.683901 -0.795609 3 0 3 
z
" style="stroke: #1f77b4; stroke-opacity: 0.6"/>
 </defs>
 <g>
  <use xlink:href="#m8818455adf" x="78.323895" y="44.64" style="fill: #ff0000; fill-opacity: 0.6; stroke: #ff0000; stroke-opacity: 0.6"/>
  <use xlink:href="#m8818455adf" x="102.760822" y="131.374401" style="fill: #ff0000; fill-opacity: 0.6; stroke: #ff0000; stroke-opacity: 0.6"/>
  <use xlink:href="#m8818455adf" x="98.171845" y="179.312565" style="fill: #ff0000; fill-opacity: 0.6; stroke: #ff0000; stroke-opacity: 0.6"/>
  <use xlink:href="#m8818455adf" x="78.069093" y="167.176948" style="fill: #ff0000; fill-opacity: 0.6; stroke: #ff0000; stroke-opacity: 0.6"/>
  <use xlink:href="#m8818455adf" x="84.585895" y="135.345721" style="fill: #ff0000; fill-opacity: 0.6; stroke: #ff0000; stroke-opacity: 0.6"/>
  <use xlink:href="#m8818455adf" x="101.040467" y="185.564097" style="fill: #ff0000; fill-opacity: 0.6; stroke: #ff0000; stroke-opacity: 0.6"/>
  <use xlink:href="#m8818455adf" x="99.320617" y="137.771727" style="fill: #ff0000; fill-opacity: 0.6; stroke: #ff0000; stroke-opacity: 0.6"/>
  <use xlink:href="#m8818455adf" x="114.45295" y="200.495385" style="fill: #ff0000; fill-opacity: 0.6; stroke: #ff0000; stroke-opacity: 0.6"/>
  <use xlink:href="#m8818455adf" x="96.213368" y="116.836251" style="fill: #ff0000; fill-opacity: 0.6; stroke: #ff0000; stroke-opacity: 0.6"/>
  <use xlink:href="#m8818455adf" x="69.218182" y="135.353125" style="fill: #ff0000; fill-opacity: 0.6; stroke: #ff0000; stroke-opacity: 0.6"/>
  <use xlink:href="#m8818455adf" x="241.642357" y="184.383441" style="fill: #ff0000; fill-opacity: 0.6; stroke: #ff0000; stroke-opacity: 0.6"/>
  <use xlink:href="#m8818455adf" x="209.583562" y="193.747551" style="fill: #ff0000; fill-opacity: 0.6; stroke: #ff0000; stroke-opacity: 0.6"/>
  <use xlink:href="#m8818455adf" x="260.029212" y="227.337455" style="fill: #ff0000; fill-opacity: 0.6; stroke: #ff0000; stroke-opacity: 0.6"/>
  <use xlink:href="#m8818455adf" x="218.162055" y="171.464936" style="fill: #ff0000; fill-opacity: 0.6; stroke: #ff0000; stroke-opacity: 0.6"/>
  <use xlink:href="#m8818455adf" x="256.587537" y="233.196199" style="fill: #ff0000; fill-opacity: 0.6; stroke: #ff0000; stroke-opacity: 0.6"/>
  <use xlink:href="#m8818455adf" x="254.515367" y="230.684009" style="fill: #ff0000; fill-opacity: 0.6; stroke: #ff0000; stroke-opacity: 0.6"/>
  <use xlink:href="#m8818455adf" x="243.480103" y="228.018197" style="fill: #ff0000; fill-opacity: 0.6; stroke: #ff0000; stroke-opacity: 0.6"/>
  <use xlink:href="#m8818455adf" x="248.995365" y="230.148658" style="fill: #ff0000; fill-opacity: 0.6; stroke: #ff0000; stroke-opacity: 0.6"/>
  <use xlink:href="#m8818455adf" x="219.083943" y="225.998141" style="fill: #ff0000; fill-opacity: 0.6; stroke: #ff0000; stroke-opacity: 0.6"/>
  <use xlink:href="#m8818455adf" x="245.872848" y="246.24" style="fill: #ff0000; fill-opacity: 0.6; stroke: #ff0000; stroke-opacity: 0.6"/>
  <use xlink:href="#m8818455adf" x="373.581818" y="176.640055" style="fill: #ff0000; fill-opacity: 0.6; stroke: #ff0000; stroke-opacity: 0.6"/>
 </g>
</svg>