<?xml version="1.0" encoding="utf-8"?>
<svg xmlns:xlink="http://www.w3.org/1999/xlink" width="432pt" height="288pt" viewBox="0 0 432 288" xmlns="http://www.w3.org/2000/svg" version="1.1">
 <defs>
  <style type="text/css">*{stroke-linejoin: round; stroke-linecap: butt}</style>
  <path id="m813cb87cde" d="M 0 3 
C 0.795609 3 1.55874 2.683901 2.12132 2.12132 
C 2.683901 1.55874 3 0.795609 3 0 
C 3 -0.795609 2.683901 -1.55874 2.12132 -2.12132 
C 1.55874 -2.683901 0.795609 -3 0 -3 
C -0.795609 -3 -1.55874 -2.683901 -2.12132 -2.12132 
C -2.683901 -1.55874 -3 -0.795609 -3 0 
C -3 0.795609 -2.683901 1.55874 -2.12132 2.12132 
C -1.55874 2.683901 -0.795609 3 0 3 
z
" style="stroke: #1f77b4; stroke-opacity: 0.6"/>
 </defs>
 <g>
  <use xlink:href="#m813cb87cde" x="208.806668" y="132.898196" style="fill: red; fill-opacity: 0.6; stroke: red; stroke-opacity: 0.6"/>
  <use xlink:href="#m813cb87cde" x="225.058152" y="127.460101" style="fill: red; fill-opacity: 0.6; stroke: red; stroke-opacity: 0.6"/>
  <use xlink:href="#m813cb87cde" x="221.512042" y="100.342867" style="fill: red; fill-opacity: 0.6; stroke: red; stroke-opacity: 0.6"/>
  <use xlink:href="#m813cb87cde" x="200.795245" y="159.066778" style="fill: red; fill-opacity: 0.6; stroke: red; stroke-opacity: 0.6"/>
  <use xlink:href="#m813cb87cde" x="214.255773" y="58.014458" style="fill: red; fill-opacity: 0.6; stroke: red; stroke-opacity: 0.6"/>
  <use xlink:href="#m813cb87cde" x="207.230415" y="172.236708" style="fill: red; fill-opacity: 0.6; stroke: red; stroke-opacity: 0.6"/>
  <use xlink:href="#m813cb87cde" x="235.786464" y="44.64" style="fill: red; fill-opacity: 0.6; stroke: red; stroke-opacity: 0.6"/>
  <use xlink:href="#m813cb87cde" x="218.678527" y="124.734048" style="fill: red; fill-opacity: 0.6; stroke: red; stroke-opacity: 0.6"/>
  <use xlink:href="#m813cb87cde" x="189.518081" y="178.449525" style="fill: red; fill-opacity: 0.6; stroke: red; stroke-opacity: 0.6"/>
  <use xlink:href="#m813cb87cde" x="208.505636" y="155.480138" style="fill: red; fill-opacity: 0.6; stroke: red; stroke-opacity: 0.6"/>
  <use xlink:href="#m813cb87cde" x="373.581818" y="170.598029" style="fill: red; fill-opacity: 0.6; stroke: red; stroke-opacity: 0.6"/>
 </g>
</svg>