<?xml version="1.0" encoding="utf-8"?>
<svg xmlns:xlink="http://www.w3.org/1999/xlink" width="432pt" height="288pt" viewBox="0 0 432 288" xmlns="http://www.w3.org/2000/svg" version="1.1">
 <g>
  <use xlink:href="#m52c8058297" x="265.537033" y="123.591862" style="fill: red; fill-opacity: 0.6; stroke: red; stroke-opacity: 0.6"/>
  <use xlink:href="#m52c8058297" x="243.456135" y="158.954184" style="fill: red; fill-opacity: 0.6; stroke: red; stroke-opacity: 0.6"/>
  <use xlink:href="#m52c8058297" x="257.585775" y="145.922245" style="fill: red; fill-opacity: 0.6; stroke: red; stroke-opacity: 0.6"/>
  <use xlink:href="#m52c8058297" x="255.271311" y="181.79969" style="fill: red; fill-opacity: 0.6; stroke: red; stroke-opacity: 0.6"/>
  <use xlink:href="#m52c8058297" x="262.116497" y="157.34499" style="fill: red; fill-opacity: 0.6; stroke: red; stroke-opacity: 0.6"/>
  <use xlink:href="#m52c8058297" x="253.470266" y="164.072891" style="fill: red; fill-opacity: 0.6; stroke: red; stroke-opacity: 0.6"/>
  <use xlink:href="#m52c8058297" x="256.231272" y="130.319615" style="fill: red; fill-opacity: 0.6; stroke: red; stroke-opacity: 0.6"/>
  <use xlink:href="#m52c8058297" x="239.585888" y="145.615655" style="fill: red; fill-opacity: 0.6; stroke: red; stroke-opacity: 0.6"/>
  <use xlink:href="#m52c8058297" x="214.424975" y="171.922511" style="fill: red; fill-opacity: 0.6; stroke: red; stroke-opacity: 0.6"/>
  <use xlink:href="#m52c8058297" x="231.555244" y="136.816218" style="fill: red; fill-opacity: 0.6; stroke: red; stroke-opacity: 0.6"/>
  <use xlink:href="#m52c8058297" x="373.581818" y="44.64" style="fill: red; fill-opacity: 0.6; stroke: red; stroke-opacity: 0.6"/>
 </g>
 <defs>
  <path id="m52c8058297" d="M 0 3 
C 0.795609 3 1.55874 2.683901 2.12132 2.12132 
C 2.683901 1.55874 3 0.795609 3 0 
C 3 -0.795609 2.683901 -1.55874 2.12132 -2.12132 
C 1.55874 -2.683901 0.795609 -3 0 -3 
C -0.795609 -3 -1.55874 -2.683901 -2.12132 -2.12132 
C -2.683901 -1.55874 -3 -0.795609 -3 0 
C -3 0.795609 -2.683901 1.55874 -2.12132 2.12132 
C -1.55874 2.683901 -0.795609 3 0 3 
z"/>
 </defs>
</svg>