<?xml version="1.0" encoding="utf-8"?>
<svg xmlns:xlink="http://www.w3.org/1999/xlink" width="432pt" height="288pt" viewBox="0 0 432 288" xmlns="http://www.w3.org/2000/svg" version="1.1">
 <defs>
  <path id="mf741aa4e38" d="M 0 3 
C 0.795609 3 1.55874 2.683901 2.12132 2.12132 
C 2.683901 1.55874 3 0.795609 3 0 
C 3 -0.795609 2.683901 -1.55874 2.12132 -2.12132 
C 1.55874 -2.683901 0.795609 -3 0 -3 
C -0.795609 -3 -1.55874 -2.683901 -2.12132 -2.12132 
C -2.683901 -1.55874 -3 -0.795609 -3 0 
C -3 0.795609 -2.683901 1.55874 -2.12132 2.12132 
C -1.55874 2.683901 -0.795609 3 0 3 
z"/>
 </defs>
 <g>
  <use xlink:href="#mf741aa4e38" x="200.997782" y="228.546709" style="fill: red; fill-opacity: 0.6; stroke: red; stroke-opacity: 0.6"/>
  <use xlink:href="#mf741aa4e38" x="218.066848" y="246.24" style="fill: red; fill-opacity: 0.6; stroke: red; stroke-opacity: 0.6"/>
  <use xlink:href="#mf741aa4e38" x="189.748359" y="224.490668" style="fill: red; fill-opacity: 0.6; stroke: red; stroke-opacity: 0.6"/>
  <use xlink:href="#mf741aa4e38" x="184.604564" y="226.13623" style="fill: red; fill-opacity: 0.6; stroke: red; stroke-opacity: 0.6"/>
  <use xlink:href="#mf741aa4e38" x="184.679801" y="220.856491" style="fill: red; fill-opacity: 0.6; stroke: red; stroke-opacity: 0.6"/>
  <use xlink:href="#mf741aa4e38" x="200.440543" y="240.785397" style="fill: red; fill-opacity: 0.6; stroke: red; stroke-opacity: 0.6"/>
  <use xlink:href="#mf741aa4e38" x="192.973568" y="221.514171" style="fill: red; fill-opacity: 0.6; stroke: red; stroke-opacity: 0.6"/>
  <use xlink:href="#mf741aa4e38" x="194.463979" y="226.137655" style="fill: red; fill-opacity: 0.6; stroke: red; stroke-opacity: 0.6"/>
  <use xlink:href="#mf741aa4e38" x="176.853584" y="202.325722" style="fill: red; fill-opacity: 0.6; stroke: red; stroke-opacity: 0.6"/>
  <use xlink:href="#mf741aa4e38" x="194.194508" y="228.64822" style="fill: red; fill-opacity: 0.6; stroke: red; stroke-opacity: 0.6"/>
  <use xlink:href="#mf741aa4e38" x="373.581818" y="44.64" style="fill: red; fill-opacity: 0.6; stroke: red; stroke-opacity: 0.6"/>
 </g>
</svg>