<?xml version="1.0" encoding="UTF-8" standalone="no"?>
<svg xmlns="http://www.w3.org/2000/svg" width="432pt" height="288pt" viewBox="0 0 432 288" version="1.1">
  <defs>
    <style type="text/css">
      * {
        stroke-linejoin: round;
        stroke-linecap: butt;
      }
    </style>
  </defs>
  <g>
    <defs>
      <path id="circle" d="M 0 3 C 0.795609 3 1.55874 2.683901 2.12132 2.12132 C 2.683901 1.55874 3 0.795609 3 0 C 3 -0.795609 2.683901 -1.55874 2.12132 -2.12132 C 1.55874 -2.683901 0.795609 -3 0 -3 C -0.795609 -3 -1.55874 -2.683901 -2.12132 -2.12132 C -2.683901 -1.55874 -3 -0.795609 -3 0 C -3 0.795609 -2.683901 1.55874 -2.12132 2.12132 C -1.55874 2.683901 -0.795609 3 0 3 z" style="stroke: #1f77b4; stroke-opacity: 0.6"/>
    </defs>
    <use xlink:href="#circle" x="122.825081" y="141.667458" style="fill: red; fill-opacity: 0.6; stroke: red; stroke-opacity: 0.6"/>
    <use xlink:href="#circle" x="125.357301" y="198.768607" style="fill: red; fill-opacity: 0.6; stroke: red; stroke-opacity: 0.6"/>
    <use xlink:href="#circle" x="104.087308" y="122.130011" style="fill: red; fill-opacity: 0.6; stroke: red; stroke-opacity: 0.6"/>
    <use xlink:href="#circle" x="69.218182" y="152.724745" style="fill: red; fill-opacity: 0.6; stroke: red; stroke-opacity: 0.6"/>
    <use xlink:href="#circle" x="90.159005" y="181.203113" style="fill: red; fill-opacity: 0.6; stroke: red; stroke-opacity: 0.6"/>
    <use xlink:href="#circle" x="162.026369" y="154.409785" style="fill: red; fill-opacity: 0.6; stroke: red; stroke-opacity: 0.6"/>
    <use xlink:href="#circle" x="135.641623" y="151.635321" style="fill: red; fill-opacity: 0.6; stroke: red; stroke-opacity: 0.6"/>
    <use xlink:href="#circle" x="98.885695" y="151.538416" style="fill: red; fill-opacity: 0.6; stroke: red; stroke-opacity: 0.6"/>
    <use xlink:href="#circle" x="129.624341" y="142.786954" style="fill: red; fill-opacity: 0.6; stroke: red; stroke-opacity: 0.6"/>
    <use xlink:href="#circle" x="341.337448" y="182.154466" style="fill: red; fill-opacity: 0.6; stroke: red; stroke-opacity: 0.6"/>
    <use xlink:href="#circle" x="343.043911" y="144.630219" style="fill: red; fill-opacity: 0.6; stroke: red; stroke-opacity: 0.6"/>
    <use xlink:href="#circle" x="334.522168" y="131.701823" style="fill: red; fill-opacity: 0.6; stroke: red; stroke-opacity: 0.6"/>
    <use xlink:href="#circle" x="373.581818" y="162.161298" style="fill: red; fill-opacity: 0.6; stroke: red; stroke-opacity: 0.6"/>
    <use xlink:href="#circle" x="222.282624" y="191.635983" style="fill: red; fill-opacity: 0.6; stroke: red; stroke-opacity: 0.6"/>
  </g>
</svg>