<?xml version="1.0" encoding="utf-8"?>
<svg xmlns:xlink="http://www.w3.org/1999/xlink" width="432pt" height="288pt" viewBox="0 0 432 288" xmlns="http://www.w3.org/2000/svg" version="1.1">
 <defs>
  <style type="text/css">*{stroke-linejoin: round; stroke-linecap: butt}</style>
  <path id="m05cdea335f" d="M 0 3 
C 0.795609 3 1.55874 2.683901 2.12132 2.12132 
C 2.683901 1.55874 3 0.795609 3 0 
C 3 -0.795609 2.683901 -1.55874 2.12132 -2.12132 
C 1.55874 -2.683901 0.795609 -3 0 -3 
C -0.795609 -3 -1.55874 -2.683901 -2.12132 -2.12132 
C -2.683901 -1.55874 -3 -0.795609 -3 0 
C -3 0.795609 -2.683901 1.55874 -2.12132 2.12132 
C -1.55874 2.683901 -0.795609 3 0 3 
z"/>
 </defs>
 <g>
  <use xlink:href="#m05cdea335f" x="106.291395" y="183.699772" style="fill: #ff0000; fill-opacity: 0.6; stroke: #ff0000; stroke-opacity: 0.6"/>
  <use xlink:href="#m05cdea335f" x="116.879179" y="190.535038" style="fill: #ff0000; fill-opacity: 0.6; stroke: #ff0000; stroke-opacity: 0.6"/>
  <use xlink:href="#m05cdea335f" x="80.870365" y="184.368759" style="fill: #ff0000; fill-opacity: 0.6; stroke: #ff0000; stroke-opacity: 0.6"/>
  <use xlink:href="#m05cdea335f" x="104.298886" y="180.902921" style="fill: #ff0000; fill-opacity: 0.6; stroke: #ff0000; stroke-opacity: 0.6"/>
  <use xlink:href="#m05cdea335f" x="97.319059" y="186.571081" style="fill: #ff0000; fill-opacity: 0.6; stroke: #ff0000; stroke-opacity: 0.6"/>
  <use xlink:href="#m05cdea335f" x="69.218182" y="183.090746" style="fill: #ff0000; fill-opacity: 0.6; stroke: #ff0000; stroke-opacity: 0.6"/>
  <use xlink:href="#m05cdea335f" x="126.275707" y="188.541769" style="fill: #ff0000; fill-opacity: 0.6; stroke: #ff0000; stroke-opacity: 0.6"/>
  <use xlink:href="#m05cdea335f" x="114.627129" y="208.621391" style="fill: #ff0000; fill-opacity: 0.6; stroke: #ff0000; stroke-opacity: 0.6"/>
  <use xlink:href="#m05cdea335f" x="82.155313" y="194.60088" style="fill: #ff0000; fill-opacity: 0.6; stroke: #ff0000; stroke-opacity: 0.6"/>
  <use xlink:href="#m05cdea335f" x="85.058801" y="184.013855" style="fill: #ff0000; fill-opacity: 0.6; stroke: #ff0000; stroke-opacity: 0.6"/>
  <use xlink:href="#m05cdea335f" x="265.96328" y="217.395425" style="fill: #ff0000; fill-opacity: 0.6; stroke: #ff0000; stroke-opacity: 0.6"/>
  <use xlink:href="#m05cdea335f" x="268.663616" y="216.323742" style="fill: #ff0000; fill-opacity: 0.6; stroke: #ff0000; stroke-opacity: 0.6"/>
  <use xlink:href="#m05cdea335f" x="267.765983" y="246.24" style="fill: #ff0000; fill-opacity: 0.6; stroke: #ff0000; stroke-opacity: 0.6"/>
  <use xlink:href="#m05cdea335f" x="269.912467" y="231.969181" style="fill: #ff0000; fill-opacity: 0.6; stroke: #ff0000; stroke-opacity: 0.6"/>
  <use xlink:href="#m05cdea335f" x="257.743963" y="206.826431" style="fill: #ff0000; fill-opacity: 0.6; stroke: #ff0000; stroke-opacity: 0.6"/>
  <use xlink:href="#m05cdea335f" x="235.432999" y="224.502132" style="fill: #ff0000; fill-opacity: 0.6; stroke: #ff0000; stroke-opacity: 0.6"/>
  <use xlink:href="#m05cdea335f" x="256.200469" y="204.586809" style="fill: #ff0000; fill-opacity: 0.6; stroke: #ff0000; stroke-opacity: 0.6"/>
  <use xlink:href="#m05cdea335f" x="229.195238" y="225.474819" style="fill: #ff0000; fill-opacity: 0.6; stroke: #ff0000; stroke-opacity: 0.6"/>
  <use xlink:href="#m05cdea335f" x="277.148117" y="195.635742" style="fill: #ff0000; fill-opacity: 0.6; stroke: #ff0000; stroke-opacity: 0.6"/>
  <use xlink:href="#m05cdea335f" x="243.475196" y="222.851177" style="fill: #ff0000; fill-opacity: 0.6; stroke: #ff0000; stroke-opacity: 0.6"/>
  <use xlink:href="#m05cdea335f" x="373.581818" y="44.64" style="fill: #ff0000; fill-opacity: 0.6; stroke: #ff0000; stroke-opacity: 0.6"/>
 </g>
</svg>