<?xml version="1.0" encoding="UTF-8" standalone="no"?>
<svg xmlns="http://www.w3.org/2000/svg" width="432pt" height="288pt" viewBox="0 0 432 288" version="1.1">
  <defs>
    <style type="text/css">
      * {
        stroke-linejoin: round;
        stroke-linecap: butt;
      }
    </style>
    <path id="markerCircle" d="M 0 3 C 0.795609 3 1.55874 2.683901 2.12132 2.12132 C 2.683901 1.55874 3 0.795609 3 0 C 3 -0.795609 2.683901 -1.55874 2.12132 -2.12132 C 1.55874 -2.683901 0.795609 -3 0 -3 C -0.795609 -3 -1.55874 -2.683901 -2.12132 -2.12132 C -2.683901 -1.55874 -3 -0.795609 -3 0 C -3 0.795609 -2.683901 1.55874 -2.12132 2.12132 C -1.55874 2.683901 -0.795609 3 0 3 Z" />
  </defs>
  <g>
    <!-- Data Point (-2.72, 1.08) -->
    <use xlink:href="#markerCircle" x="69.565146" y="206.931715" style="fill: #ff0000; stroke: #ff0000;"/>
    <!-- Data Point (-2.75, -0.77) -->
    <use xlink:href="#markerCircle" x="69.218182" y="246.24" style="fill: #1f77b4; stroke: #1f77b4;"/>
    <!-- Data Point (-0.80, 0.18) -->
    <use xlink:href="#markerCircle" x="94.818905" y="226.066215" style="fill: #ff0000; stroke: #ff0000;"/>
    <!-- Data Point (-0.54, 0.37) -->
    <use xlink:href="#markerCircle" x="98.322503" y="222.039922" style="fill: #ff0000; stroke: #ff0000;"/>
    <!-- Data Point (1.35, -0.07) -->
    <use xlink:href="#markerCircle" x="123.204973" y="231.40447" style="fill: #1f77b4; stroke: #1f77b4;"/>
    <!-- Data Point (-1.75, -0.10) -->
    <use xlink:href="#markerCircle" x="82.353139" y="232.028479" style="fill: #1f77b4; stroke: #1f77b4;"/>
    <!-- Data Point (-1.30, -0.71) -->
    <use xlink:href="#markerCircle" x="88.236389" y="245.120636" style="fill: #1f77b4; stroke: #1f77b4;"/>
    <!-- Data Point (-2.41, 1.10) -->
    <use xlink:href="#markerCircle" x="73.620311" y="206.34279" style="fill: #ff0000; stroke: #ff0000;"/>
    <!-- Data Point (0.45, -0.48) -->
    <use xlink:href="#markerCircle" x="111.388751" y="240.157748" style="fill: #1f77b4; stroke: #1f77b4;"/>
    <!-- Data Point (-0.86, 0.29) -->
    <use xlink:href="#markerCircle" x="94.100234" y="223.785982" style="fill: #ff0000; stroke: #ff0000;"/>
    <!-- Data Point (8.96, 0.00) -->
    <use xlink:href="#markerCircle" x="223.394162" y="229.835322" style="fill: #1f77b4; stroke: #1f77b4;"/>
    <!-- Data Point (10.23, 0.18) -->
    <use xlink:href="#markerCircle" x="240.143793" y="225.983946" style="fill: #1f77b4; stroke: #1f77b4;"/>
    <!-- Data Point (9.72, 1.76) -->
    <use xlink:href="#markerCircle" x="233.404927" y="192.278441" style="fill: #ff0000; stroke: #ff0000;"/>
    <!-- Data Point (10.43, 1.63) -->
    <use xlink:href="#markerCircle" x="242.824663" y="195.087069" style="fill: #ff0000; stroke: #ff0000;"/>
    <!-- Data Point (10.93, 4.45) -->
    <use xlink:href="#markerCircle" x="249.443936" y="134.832957" style="fill: #ff0000; stroke: #ff0000;"/>
    <!-- Data Point (8.71, 1.70) -->
    <use xlink:href="#markerCircle" x="220.192421" y="193.651232" style="fill: #ff0000; stroke: #ff0000;"/>
    <!-- Data Point (10.21, 2.05) -->
    <use xlink:href="#markerCircle" x="239.966722" y="186.176732" style="fill: #ff0000; stroke: #ff0000;"/>
    <!-- Data Point (9.67, 1.66) -->
    <use xlink:href="#markerCircle" x="232.750971" y="194.364751" style="fill: #ff0000; stroke: #ff0000;"/>
    <!-- Data Point (11.72, 1.28) -->
    <use xlink:href="#markerCircle" x="259.837544" y="202.670541" style="fill: #ff0000; stroke: #ff0000;"/>
    <!-- Data Point (20.36, 8.68) -->
    <use xlink:href="#markerCircle" x="373.581818" y="44.64" style="fill: #ff0000; stroke: #ff0000;"/>
  </g>
</svg>