<?xml version="1.0" encoding="utf-8"?>
<svg xmlns:xlink="http://www.w3.org/1999/xlink" width="432pt" height="288pt" viewBox="0 0 432 288" xmlns="http://www.w3.org/2000/svg" version="1.1">
 <defs>
  <style type="text/css">*{stroke-linejoin: round; stroke-linecap: butt}</style>
 </defs>
 <g id="figure_1">
  <g id="patch_1">
   <path d="M 0 288 
L 432 288 
L 432 0 
L 0 0 
L 0 288 
z
" style="fill: none"/>
  </g>
  <g id="axes_1">
   <g id="patch_2">
    <path d="M 54 256.32 
L 388.8 256.32 
L 388.8 34.56 
L 54 34.56 
z
" style="fill: #ffffff"/>
   </g>
   <g id="patch_3">
    <path d="M 55.3392 256.32 
L 66.0528 256.32 
L 66.0528 217.533845 
L 55.3392 217.533845 
z
" style="fill: #1f77b4"/>
   </g>
   <g id="patch_4">
    <path d="M 68.7312 256.32 
L 79.4448 256.32 
L 79.4448 252.742895 
L 68.7312 252.742895 
z
" style="fill: #1f77b4"/>
   </g>
   <g id="patch_5">
    <path d="M 82.1232 256.32 
L 92.8368 256.32 
L 92.8368 216.621052 
L 82.1232 216.621052 
z
" style="fill: #1f77b4"/>
   </g>
   <g id="patch_6">
    <path d="M 95.5152 256.32 
L 106.2288 256.32 
L 106.2288 216.882773 
L 95.5152 216.882773 
z
" style="fill: #1f77b4"/>
   </g>
   <g id="patch_7">
    <path d="M 108.9072 256.32 
L 119.6208 256.32 
L 119.6208 205.685923 
L 108.9072 205.685923 
z
" style="fill: #1f77b4"/>
   </g>
   <g id="patch_8">
    <path d="M 122.2992 256.32 
L 133.0128 256.32 
L 133.0128 205.208164 
L 122.2992 205.208164 
z
" style="fill: #1f77b4"/>
   </g>
   <g id="patch_9">
    <path d="M 135.6912 256.32 
L 146.4048 256.32 
L 146.4048 214.934913 
L 135.6912 214.934913 
z
" style="fill: #1f77b4"/>
   </g>
   <g id="patch_10">
    <path d="M 149.0832 256.32 
L 159.7968 256.32 
L 159.7968 190.773911 
L 149.0832 190.773911 
z
" style="fill: #ff0000"/>
   </g>
   <g id="patch_11">
    <path d="M 162.4752 256.32 
L 173.1888 256.32 
L 173.1888 206.968945 
L 162.4752 206.968945 
z
" style="fill: #1f77b4"/>
   </g>
   <g id="patch_12">
    <path d="M 175.8672 256.32 
L 186.5808 256.32 
L 186.5808 192.280207 
L 175.8672 192.280207 
z
" style="fill: #1f77b4"/>
   </g>
   <g id="patch_13">
    <path d="M 189.2592 256.32 
L 199.9728 256.32 
L 199.9728 205.788759 
L 189.2592 205.788759 
z
" style="fill: #1f77b4"/>
   </g>
   <g id="patch_14">
    <path d="M 202.6512 256.32 
L 213.3648 256.32 
L 213.3648 201.091826 
L 202.6512 201.091826 
z
" style="fill: #1f77b4"/>
   </g>
   <g id="patch_15">
    <path d="M 216.0432 256.32 
L 226.7568 256.32 
L 226.7568 190.562641 
L 216.0432 190.562641 
z
" style="fill: #1f77b4"/>
   </g>
   <g id="patch_16">
    <path d="M 229.4352 256.32 
L 240.1488 256.32 
L 240.1488 196.419526 
L 229.4352 196.419526 
z
" style="fill: #1f77b4"/>
   </g>
   <g id="patch_17">
    <path d="M 242.8272 256.32 
L 253.5408 256.32 
L 253.5408 185.968084 
L 242.8272 185.968084 
z
" style="fill: #1f77b4"/>
   </g>
   <g id="patch_18">
    <path d="M 256.2192 256.32 
L 266.9328 256.32 
L 266.9328 216.038125 
L 256.2192 216.038125 
z
" style="fill: #1f77b4"/>
   </g>
   <g id="patch_19">
    <path d="M 269.6112 256.32 
L 280.3248 256.32 
L 280.3248 187.805888 
L 269.6112 187.805888 
z
" style="fill: #1f77b4"/>
   </g>
   <g id="patch_20">
    <path d="M 283.0032 256.32 
L 293.7168 256.32 
L 293.7168 208.607217 
L 283.0032 208.607217 
z
" style="fill: #1f77b4"/>
   </g>
   <g id="patch_21">
    <path d="M 296.3952 256.32 
L 307.1088 256.32 
L 307.1088 192.847466 
L 296.3952 192.847466 
z
" style="fill: #1f77b4"/>
   </g>
   <g id="patch_22">
    <path d="M 309.7872 256.32 
L 320.5008 256.32 
L 320.5008 203.728379 
L 309.7872 203.728379 
z
" style="fill: #1f77b4"/>
   </g>
   <g id="patch_23">
    <path d="M 323.1792 256.32 
L 333.8928 256.32 
L 333.8928 219.65679 
L 323.1792 219.65679 
z
" style="fill: #1f77b4"/>
   </g>
   <g id="patch_24">
    <path d="M 336.5712 256.32 
L 347.2848 256.32 
L 347.2848 54.72 
L 336.5712 54.72 
z
" style="fill: #ff0000"/>
   </g>
   <g id="patch_25">
    <path d="M 349.9632 256.32 
L 360.6768 256.32 
L 360.6768 184.916924 
L 349.9632 184.916924 
z
" style="fill: #1f77b4"/>
   </g>
   <g id="patch_26">
    <path d="M 363.3552 256.32 
L 374.0688 256.32 
L 374.0688 217.483224 
L 363.3552 217.483224 
z
" style="fill: #1f77b4"/>
   </g>
   <g id="patch_27">
    <path d="M 376.7472 256.32 
L 387.4608 256.32 
L 387.4608 215.847043 
L 376.7472 215.847043 
z
" style="fill: #1f77b4"/>
   </g>
  </g>
 </g>
</svg>