<?xml version="1.0" encoding="utf-8"?>
<svg xmlns:xlink="http://www.w3.org/1999/xlink" width="432pt" height="288pt" viewBox="0 0 432 288" xmlns="http://www.w3.org/2000/svg" version="1.1">
  <g>
    <!-- Cluster 1 -->
    <circle cx="69.218182" cy="143.868972" r="3" style="fill: #ff0000;"/>
    <circle cx="108.401859" cy="182.275989" r="3" style="fill: #ff0000;"/>
    <circle cx="114.734937" cy="214.009701" r="3" style="fill: #ff0000;"/>
    <circle cx="112.29418" cy="147.963489" r="3" style="fill: #ff0000;"/>
    <circle cx="95.527387" cy="201.264496" r="3" style="fill: #ff0000;"/>
    <circle cx="99.730273" cy="246.24" r="3" style="fill: #ff0000;"/>
    <circle cx="126.015849" cy="167.733361" r="3" style="fill: #ff0000;"/>
    <circle cx="130.413292" cy="140.965457" r="3" style="fill: #ff0000;"/>
    <circle cx="131.220884" cy="99.304614" r="3" style="fill: #ff0000;"/>
    <circle cx="98.347684" cy="197.475458" r="3" style="fill: #ff0000;"/>
    
    <!-- Cluster 2 -->
    <circle cx="273.694959" cy="157.938216" r="3" style="fill: #0000ff;"/>
    <circle cx="276.464595" cy="90.202062" r="3" style="fill: #0000ff;"/>
    <circle cx="287.054055" cy="149.533734" r="3" style="fill: #0000ff;"/>
    <circle cx="287.732668" cy="113.258842" r="3" style="fill: #0000ff;"/>
    <circle cx="299.240011" cy="50.909394" r="3" style="fill: #0000ff;"/>
    <circle cx="327.014944" cy="142.876828" r="3" style="fill: #0000ff;"/>
    <circle cx="312.870537" cy="124.879119" r="3" style="fill: #0000ff;"/>
    <circle cx="279.528801" cy="86.401834" r="3" style="fill: #0000ff;"/>
    <circle cx="271.303145" cy="155.717401" r="3" style="fill: #0000ff;"/>
    <circle cx="293.258058" cy="115.214914" r="3" style="fill: #0000ff;"/>
    <circle cx="373.581818" cy="44.64" r="3" style="fill: #0000ff;"/>
  </g>
</svg>