<?xml version="1.0" encoding="UTF-8" standalone="no"?>
<svg xmlns="http://www.w3.org/2000/svg" width="432pt" height="288pt" viewBox="0 0 432 288" version="1.1">
  <g>
    <!-- Cluster 1 -->
    <circle cx="93.026155" cy="159.998051" r="3" style="fill: #ff0000;"/>
    <circle cx="108.836485" cy="89.180536" r="3" style="fill: #ff0000;"/>
    <circle cx="114.28243" cy="98.125591" r="3" style="fill: #ff0000;"/>
    <circle cx="111.448894" cy="152.837847" r="3" style="fill: #ff0000;"/>
    <circle cx="77.233632" cy="131.918483" r="3" style="fill: #ff0000;"/>
    <circle cx="94.24105" cy="182.99792" r="3" style="fill: #ff0000;"/>
    <circle cx="92.165048" cy="91.0163" r="3" style="fill: #ff0000;"/>
    <circle cx="90.336624" cy="230.090363" r="3" style="fill: #ff0000;"/>
    <circle cx="69.218182" cy="168.295765" r="3" style="fill: #ff0000;"/>
    <circle cx="91.403544" cy="44.64" r="3" style="fill: #ff0000;"/>

    <!-- Cluster 2 -->
    <circle cx="221.22026" cy="131.182681" r="3" style="fill: #0000ff;"/>
    <circle cx="211.320567" cy="146.523707" r="3" style="fill: #0000ff;"/>
    <circle cx="222.431622" cy="246.24" r="3" style="fill: #0000ff;"/>
    <circle cx="220.509977" cy="141.019453" r="3" style="fill: #0000ff;"/>
    <circle cx="216.222446" cy="160.912516" r="3" style="fill: #0000ff;"/>
    <circle cx="208.746583" cy="100.841747" r="3" style="fill: #0000ff;"/>
    <circle cx="232.859497" cy="211.127305" r="3" style="fill: #0000ff;"/>
    <circle cx="242.992988" cy="126.006414" r="3" style="fill: #0000ff;"/>
    <circle cx="230.288384" cy="145.414176" r="3" style="fill: #0000ff;"/>
    <circle cx="213.205265" cy="108.303873" r="3" style="fill: #0000ff;"/>

    <!-- Cluster 3 -->
    <circle cx="373.581818" cy="95.816042" r="3" style="fill: #00ff00;"/>
  </g>
</svg>