<?xml version="1.0" encoding="UTF-8" standalone="no"?>
<svg xmlns="http://www.w3.org/2000/svg" width="432pt" height="288pt" viewBox="0 0 432 288" version="1.1">
  <g id="surface1">
    <circle cx="106.291395" cy="183.699772" r="3" fill="#ff0000"/>
    <circle cx="116.879179" cy="190.535038" r="3" fill="#ff0000"/>
    <circle cx="80.870365" cy="184.368759" r="3" fill="#ff0000"/>
    <circle cx="104.298886" cy="180.902921" r="3" fill="#ff0000"/>
    <circle cx="97.319059" cy="186.571081" r="3" fill="#ff0000"/>
    <circle cx="69.218182" cy="183.090746" r="3" fill="#ff0000"/>
    <circle cx="126.275707" cy="188.541769" r="3" fill="#ff0000"/>
    <circle cx="114.627129" cy="208.621391" r="3" fill="#ff0000"/>
    <circle cx="82.155313" cy="194.60088" r="3" fill="#ff0000"/>
    <circle cx="85.058801" cy="184.013855" r="3" fill="#ff0000"/>
    <circle cx="265.96328" cy="217.395425" r="3" fill="#0000ff"/>
    <circle cx="268.663616" cy="216.323742" r="3" fill="#0000ff"/>
    <circle cx="267.765983" cy="246.24" r="3" fill="#0000ff"/>
    <circle cx="269.912467" cy="231.969181" r="3" fill="#0000ff"/>
    <circle cx="257.743963" cy="206.826431" r="3" fill="#0000ff"/>
    <circle cx="235.432999" cy="224.502132" r="3" fill="#0000ff"/>
    <circle cx="256.200469" cy="204.586809" r="3" fill="#0000ff"/>
    <circle cx="229.195238" cy="225.474819" r="3" fill="#0000ff"/>
    <circle cx="277.148117" cy="195.635742" r="3" fill="#0000ff"/>
    <circle cx="243.475196" cy="222.851177" r="3" fill="#0000ff"/>
    <circle cx="373.581818" cy="44.64" r="3" fill="#00ff00"/>
  </g>
</svg>