<?xml version="1.0" encoding="UTF-8" standalone="no"?>
<svg xmlns="http://www.w3.org/2000/svg" width="432pt" height="288pt" viewBox="0 0 432 288" version="1.1">
  <g id="surface1">
    <circle cx="86.551317" cy="98.480212" r="3" fill="#ff0000"/>
    <circle cx="89.2354" cy="44.64" r="3" fill="#ff0000"/>
    <circle cx="128.890202" cy="82.488648" r="3" fill="#ff0000"/>
    <circle cx="109.900296" cy="63.88439" r="3" fill="#ff0000"/>
    <circle cx="148.460057" cy="68.835791" r="3" fill="#ff0000"/>
    <circle cx="98.594335" cy="93.321781" r="3" fill="#ff0000"/>
    <circle cx="69.218182" cy="104.000866" r="3" fill="#ff0000"/>
    <circle cx="118.692205" cy="82.863247" r="3" fill="#ff0000"/>
    <circle cx="94.985506" cy="117.967731" r="3" fill="#ff0000"/>
    <circle cx="130.882623" cy="136.306336" r="3" fill="#ff0000"/>
    <circle cx="373.581818" cy="177.434042" r="3" fill="#0000ff"/>
    <circle cx="333.803987" cy="197.748735" r="3" fill="#0000ff"/>
    <circle cx="364.573312" cy="202.72535" r="3" fill="#0000ff"/>
    <circle cx="317.14894" cy="153.181532" r="3" fill="#0000ff"/>
    <circle cx="310.159644" cy="208.000925" r="3" fill="#0000ff"/>
    <circle cx="329.805841" cy="161.099151" r="3" fill="#0000ff"/>
    <circle cx="308.904068" cy="164.532057" r="3" fill="#0000ff"/>
    <circle cx="373.291804" cy="151.13782" r="3" fill="#0000ff"/>
    <circle cx="341.983463" cy="200.620093" r="3" fill="#0000ff"/>
    <circle cx="367.613888" cy="197.024972" r="3" fill="#0000ff"/>
    <circle cx="222.423067" cy="246.24" r="3" fill="#00ff00"/>
  </g>
</svg>