<?xml version="1.0" encoding="utf-8"?>
<svg xmlns:xlink="http://www.w3.org/1999/xlink" width="432pt" height="288pt" viewBox="0 0 432 288" xmlns="http://www.w3.org/2000/svg" version="1.1">
  <g>
    <!-- Cluster 1: Blue -->
    <circle cx="128.395638" cy="128.401304" r="3" style="fill: blue;"/>
    <circle cx="87.133163" cy="109.241452" r="3" style="fill: blue;"/>
    <circle cx="91.461701" cy="117.591431" r="3" style="fill: blue;"/>
    <circle cx="101.492048" cy="127.050732" r="3" style="fill: blue;"/>
    <circle cx="102.601449" cy="95.134504" r="3" style="fill: blue;"/>
    <circle cx="126.27313" cy="122.340146" r="3" style="fill: blue;"/>
    <circle cx="96.683871" cy="120.625406" r="3" style="fill: blue;"/>
    <circle cx="69.218182" cy="93.063365" r="3" style="fill: blue;"/>
    <circle cx="120.400144" cy="121.155659" r="3" style="fill: blue;"/>
    <circle cx="119.816284" cy="145.102483" r="3" style="fill: blue;"/>
    
    <!-- Cluster 2: Red -->
    <circle cx="332.708657" cy="216.300518" r="3" style="fill: red;"/>
    <circle cx="309.737183" cy="178.481658" r="3" style="fill: red;"/>
    <circle cx="290.626738" cy="193.492961" r="3" style="fill: red;"/>
    <circle cx="318.208743" cy="181.411246" r="3" style="fill: red;"/>
    <circle cx="373.581818" cy="246.24" r="3" style="fill: red;"/>
    <circle cx="308.708538" cy="189.528366" r="3" style="fill: red;"/>
    <circle cx="323.04515" cy="209.901205" r="3" style="fill: red;"/>
    <circle cx="313.394413" cy="185.383022" r="3" style="fill: red;"/>
    <circle cx="316.59872" cy="220.462732" r="3" style="fill: red;"/>
    <circle cx="327.775438" cy="210.42622" r="3" style="fill: red;"/>
    
    <!-- Cluster 3: Green -->
    <circle cx="235.041187" cy="44.64" r="3" style="fill: green;"/>
  </g>
</svg>