<?xml version="1.0" encoding="utf-8"?>
<svg xmlns:xlink="http://www.w3.org/1999/xlink" width="432pt" height="288pt" viewBox="0 0 432 288" xmlns="http://www.w3.org/2000/svg" version="1.1">
  <g>
    <!-- Cluster 1: Blue -->
    <circle cx="82.208418" cy="206.217168" r="3" style="fill: blue;"/>
    <circle cx="87.408081" cy="215.346624" r="3" style="fill: blue;"/>
    <circle cx="85.910325" cy="223.444052" r="3" style="fill: blue;"/>
    <circle cx="97.608331" cy="227.162653" r="3" style="fill: blue;"/>
    <circle cx="76.783159" cy="214.423549" r="3" style="fill: blue;"/>
    <circle cx="89.518819" cy="215.409361" r="3" style="fill: blue;"/>
    <circle cx="69.218182" cy="215.730528" r="3" style="fill: blue;"/>
    <circle cx="71.382018" cy="210.540836" r="3" style="fill: blue;"/>
    <circle cx="70.705786" cy="222.333496" r="3" style="fill: blue;"/>
    <circle cx="110.824153" cy="220.670125" r="3" style="fill: blue;"/>

    <!-- Cluster 2: Red -->
    <circle cx="205.576992" cy="236.890369" r="3" style="fill: red;"/>
    <circle cx="196.994959" cy="236.535131" r="3" style="fill: red;"/>
    <circle cx="196.007672" cy="245.217486" r="3" style="fill: red;"/>
    <circle cx="183.055529" cy="236.236424" r="3" style="fill: red;"/>
    <circle cx="195.985171" cy="241.319528" r="3" style="fill: red;"/>
    <circle cx="202.131438" cy="239.69198" r="3" style="fill: red;"/>
    <circle cx="196.837552" cy="246.24" r="3" style="fill: red;"/>
    <circle cx="175.031763" cy="241.396097" r="3" style="fill: red;"/>
    <circle cx="210.511918" cy="236.858688" r="3" style="fill: red;"/>
    <circle cx="194.23985" cy="243.71368" r="3" style="fill: red;"/>

    <!-- Cluster 3: Green -->
    <circle cx="373.581818" cy="44.64" r="3" style="fill: green;"/>
  </g>
</svg>