<?xml version="1.0" encoding="utf-8"?>
<svg xmlns:xlink="http://www.w3.org/1999/xlink" width="432pt" height="288pt" viewBox="0 0 432 288" xmlns="http://www.w3.org/2000/svg" version="1.1">
  <g>
    <!-- Cluster 1: Points (-0.74, 0.02), (-0.81, 0.29), (0.45, -0.70), (-0.10, 0.55), (-1.34, 0.33), (-0.10, -0.22), (0.38, -0.96), (-1.44, -1.44), (1.04, -0.98) -->
    <circle cx="79.894641" cy="221.725911" r="3" style="fill: #ff0000;"/>
    <circle cx="78.759151" cy="217.151705" r="3" style="fill: #ff0000;"/>
    <circle cx="97.959997" cy="233.784502" r="3" style="fill: #ff0000;"/>
    <circle cx="89.526922" cy="212.876049" r="3" style="fill: #ff0000;"/>
    <circle cx="70.789213" cy="216.582185" r="3" style="fill: #ff0000;"/>
    <circle cx="106.862227" cy="238.501676" r="3" style="fill: #ff0000;"/>
    <circle cx="69.218182" cy="246.24" r="3" style="fill: #ff0000;"/>
    <circle cx="96.832545" cy="238.195554" r="3" style="fill: #ff0000;"/>
    <circle cx="89.602781" cy="225.833221" r="3" style="fill: #ff0000;"/>

    <!-- Cluster 2: Points (2.34, 1.11), (10.05, 3.77), (10.98, 4.55), (10.83, 2.41), (11.28, 3.87), (10.71, 3.47), (10.89, 5.49), (9.79, 4.57), (8.13, 3.00), (9.26, 5.10), (18.63, 10.61) -->
    <circle cx="126.555077" cy="203.483883" r="3" style="fill: #00ff00;"/>
    <circle cx="243.456135" cy="158.954184" r="3" style="fill: #00ff00;"/>
    <circle cx="257.585775" cy="145.922245" r="3" style="fill: #00ff00;"/>
    <circle cx="255.271311" cy="181.79969" r="3" style="fill: #00ff00;"/>
    <circle cx="262.116497" cy="157.34499" r="3" style="fill: #00ff00;"/>
    <circle cx="253.470266" cy="164.072891" r="3" style="fill: #00ff00;"/>
    <circle cx="256.231272" cy="130.319615" r="3" style="fill: #00ff00;"/>
    <circle cx="239.585888" cy="145.615655" r="3" style="fill: #00ff00;"/>
    <circle cx="214.424975" cy="171.922511" r="3" style="fill: #00ff00;"/>
    <circle cx="231.555244" cy="136.816218" r="3" style="fill: #00ff00;"/>
    <circle cx="373.581818" cy="44.64" r="3" style="fill: #00ff00;"/>
  </g>
</svg>