<?xml version="1.0" encoding="utf-8"?>
<svg xmlns:xlink="http://www.w3.org/1999/xlink" width="432pt" height="288pt" viewBox="0 0 432 288" xmlns="http://www.w3.org/2000/svg" version="1.1">
 <g>
    <circle cx="78.323895" cy="44.64" r="3" style="fill: #ff0000;"/>
    <circle cx="102.760822" cy="131.374401" r="3" style="fill: #ff0000;"/>
    <circle cx="98.171845" cy="179.312565" r="3" style="fill: #ff0000;"/>
    <circle cx="78.069093" cy="167.176948" r="3" style="fill: #ff0000;"/>
    <circle cx="84.585895" cy="135.345721" r="3" style="fill: #ff0000;"/>
    <circle cx="101.040467" cy="185.564097" r="3" style="fill: #ff0000;"/>
    <circle cx="99.320617" cy="137.771727" r="3" style="fill: #ff0000;"/>
    <circle cx="114.45295" cy="200.495385" r="3" style="fill: #ff0000;"/>
    <circle cx="96.213368" cy="116.836251" r="3" style="fill: #ff0000;"/>
    <circle cx="69.218182" cy="135.353125" r="3" style="fill: #ff0000;"/>
    <circle cx="241.642357" cy="184.383441" r="3" style="fill: #0000ff;"/>
    <circle cx="209.583562" cy="193.747551" r="3" style="fill: #0000ff;"/>
    <circle cx="260.029212" cy="227.337455" r="3" style="fill: #0000ff;"/>
    <circle cx="218.162055" cy="171.464936" r="3" style="fill: #0000ff;"/>
    <circle cx="256.587537" cy="233.196199" r="3" style="fill: #0000ff;"/>
    <circle cx="254.515367" cy="230.684009" r="3" style="fill: #0000ff;"/>
    <circle cx="243.480103" cy="228.018197" r="3" style="fill: #0000ff;"/>
    <circle cx="248.995365" cy="230.148658" r="3" style="fill: #0000ff;"/>
    <circle cx="219.083943" cy="225.998141" r="3" style="fill: #0000ff;"/>
    <circle cx="245.872848" cy="246.24" r="3" style="fill: #0000ff;"/>
    <circle cx="373.581818" cy="176.640055" r="3" style="fill: #00ff00;"/>
 </g>
</svg>