<?xml version="1.0" encoding="UTF-8" standalone="no"?>
<svg xmlns="http://www.w3.org/2000/svg" width="432pt" height="288pt" viewBox="0 0 432 288" version="1.1">
  <g>
    <circle cx="84.752154" cy="229.060094" r="3" style="fill: #ff0000;"/>
    <circle cx="80.475882" cy="230.899142" r="3" style="fill: #ff0000;"/>
    <circle cx="85.115522" cy="233.351534" r="3" style="fill: #ff0000;"/>
    <circle cx="92.459623" cy="246.24" r="3" style="fill: #ff0000;"/>
    <circle cx="80.046268" cy="182.55576" r="3" style="fill: #ff0000;"/>
    <circle cx="112.94094" cy="240.324711" r="3" style="fill: #ff0000;"/>
    <circle cx="69.218182" cy="200.687256" r="3" style="fill: #ff0000;"/>
    <circle cx="91.768258" cy="231.970326" r="3" style="fill: #ff0000;"/>
    <circle cx="130.969093" cy="236.557539" r="3" style="fill: #ff0000;"/>
    <circle cx="86.394065" cy="163.400088" r="3" style="fill: #ff0000;"/>
    <circle cx="373.581818" cy="132.155042" r="3" style="fill: #0000ff;"/>
    <circle cx="314.3782" cy="193.21663" r="3" style="fill: #0000ff;"/>
    <circle cx="356.24526" cy="115.491219" r="3" style="fill: #0000ff;"/>
    <circle cx="314.262407" cy="178.362117" r="3" style="fill: #0000ff;"/>
    <circle cx="335.790911" cy="140.869847" r="3" style="fill: #0000ff;"/>
    <circle cx="309.36396" cy="203.272784" r="3" style="fill: #0000ff;"/>
    <circle cx="348.553993" cy="196.7381" r="3" style="fill: #0000ff;"/>
    <circle cx="322.592375" cy="183.028609" r="3" style="fill: #0000ff;"/>
    <circle cx="344.668069" cy="172.885153" r="3" style="fill: #0000ff;"/>
    <circle cx="356.140271" cy="208.164124" r="3" style="fill: #0000ff;"/>
    <circle cx="197.408495" cy="44.64" r="3" style="fill: #00ff00;"/>
  </g>
</svg>