<svg xmlns:xlink="http://www.w3.org/1999/xlink" width="432pt" height="288pt" viewBox="0 0 432 288" xmlns="http://www.w3.org/2000/svg" version="1.1">
 <g>
    <circle cx="88.257706" cy="145.900222" r="3" style="fill: red;"/>
    <circle cx="93.128434" cy="143.14479" r="3" style="fill: red;"/>
    <circle cx="110.529946" cy="121.409481" r="3" style="fill: red;"/>
    <circle cx="111.404071" cy="133.547261" r="3" style="fill: red;"/>
    <circle cx="69.218182" cy="97.031727" r="3" style="fill: red;"/>
    <circle cx="129.747914" cy="126.471385" r="3" style="fill: red;"/>
    <circle cx="93.92075" cy="83.053349" r="3" style="fill: red;"/>
    <circle cx="101.719969" cy="143.787622" r="3" style="fill: red;"/>
    <circle cx="125.583664" cy="122.128368" r="3" style="fill: red;"/>
    <circle cx="143.580406" cy="113.489188" r="3" style="fill: red;"/>
    <circle cx="330.509356" cy="176.540307" r="3" style="fill: blue;"/>
    <circle cx="323.298616" cy="185.946937" r="3" style="fill: blue;"/>
    <circle cx="315.643403" cy="229.127398" r="3" style="fill: blue;"/>
    <circle cx="326.784561" cy="218.716698" r="3" style="fill: blue;"/>
    <circle cx="324.110148" cy="152.602793" r="3" style="fill: blue;"/>
    <circle cx="373.581818" cy="190.672051" r="3" style="fill: blue;"/>
    <circle cx="325.425733" cy="197.571189" r="3" style="fill: blue;"/>
    <circle cx="330.510907" cy="185.663261" r="3" style="fill: blue;"/>
    <circle cx="333.609197" cy="246.24" r="3" style="fill: blue;"/>
    <circle cx="331.688404" cy="174.486369" r="3" style="fill: blue;"/>
    <circle cx="315.250055" cy="44.64" r="3" style="fill: blue;"/>
 </g>
</svg>