<?xml version="1.0" encoding="utf-8"?>
<svg xmlns:xlink="http://www.w3.org/1999/xlink" width="432pt" height="288pt" viewBox="0 0 432 288" xmlns="http://www.w3.org/2000/svg" version="1.1">
  <g>
    <circle cx="129.959214" cy="224.406018" r="3" style="fill: red;"/>
    <circle cx="113.900046" cy="232.913654" r="3" style="fill: red;"/>
    <circle cx="139.987806" cy="246.24" r="3" style="fill: red;"/>
    <circle cx="119.164151" cy="224.629735" r="3" style="fill: red;"/>
    <circle cx="118.630664" cy="225.717589" r="3" style="fill: red;"/>
    <circle cx="114.390729" cy="221.522702" r="3" style="fill: red;"/>
    <circle cx="127.166158" cy="211.608726" r="3" style="fill: red;"/>
    <circle cx="132.538997" cy="228.544214" r="3" style="fill: red;"/>
    <circle cx="69.218182" cy="214.714604" r="3" style="fill: red;"/>
    <circle cx="136.124891" cy="223.853949" r="3" style="fill: red;"/>
    <circle cx="295.548925" cy="222.954625" r="3" style="fill: blue;"/>
    <circle cx="319.703742" cy="226.251398" r="3" style="fill: blue;"/>
    <circle cx="323.775888" cy="201.081006" r="3" style="fill: blue;"/>
    <circle cx="299.93347" cy="239.027993" r="3" style="fill: blue;"/>
    <circle cx="290.84216" cy="211.829756" r="3" style="fill: blue;"/>
    <circle cx="316.100726" cy="243.684134" r="3" style="fill: blue;"/>
    <circle cx="294.636014" cy="206.48166" r="3" style="fill: blue;"/>
    <circle cx="285.7786" cy="233.637455" r="3" style="fill: blue;"/>
    <circle cx="304.175599" cy="194.914518" r="3" style="fill: blue;"/>
    <circle cx="261.432708" cy="229.193113" r="3" style="fill: blue;"/>
    <circle cx="373.581818" cy="44.64" r="3" style="fill: green;"/>
  </g>
</svg>