<?xml version="1.0" encoding="UTF-8" standalone="no"?>
<svg width="432pt" height="288pt" viewBox="0 0 432 288" xmlns="http://www.w3.org/2000/svg" version="1.1">
    <g fill="none" stroke="none">
        <circle cx="127.952857" cy="83.93994" r="3" fill="#ff0000"/>
        <circle cx="177.217808" cy="106.483138" r="3" fill="#ff0000"/>
        <circle cx="148.042763" cy="44.64" r="3" fill="#ff0000"/>
        <circle cx="69.218182" cy="75.311981" r="3" fill="#ff0000"/>
        <circle cx="121.498063" cy="67.966786" r="3" fill="#ff0000"/>
        <circle cx="176.33405" cy="65.494054" r="3" fill="#ff0000"/>
        <circle cx="93.849591" cy="107.059166" r="3" fill="#ff0000"/>
        <circle cx="118.645697" cy="46.766731" r="3" fill="#ff0000"/>
        <circle cx="156.493423" cy="84.97469" r="3" fill="#ff0000"/>
        <circle cx="164.519003" cy="94.42684" r="3" fill="#ff0000"/>
        <circle cx="352.790272" cy="124.070405" r="3" fill="#0000ff"/>
        <circle cx="333.524863" cy="106.384153" r="3" fill="#0000ff"/>
        <circle cx="371.596226" cy="143.521725" r="3" fill="#0000ff"/>
        <circle cx="360.818185" cy="110.047133" r="3" fill="#0000ff"/>
        <circle cx="373.581818" cy="108.806447" r="3" fill="#0000ff"/>
        <circle cx="348.757361" cy="124.525919" r="3" fill="#0000ff"/>
        <circle cx="348.12735" cy="128.980276" r="3" fill="#0000ff"/>
        <circle cx="322.074612" cy="136.097185" r="3" fill="#0000ff"/>
        <circle cx="363.168419" cy="107.965673" r="3" fill="#0000ff"/>
        <circle cx="316.93349" cy="111.057426" r="3" fill="#0000ff"/>
        <circle cx="135.185243" cy="246.24" r="3" fill="#00ff00"/>
    </g>
</svg>