<?xml version="1.0" encoding="utf-8"?>
<svg xmlns:xlink="http://www.w3.org/1999/xlink" width="432pt" height="288pt" viewBox="0 0 432 288" xmlns="http://www.w3.org/2000/svg" version="1.1">
  <g>
    <!-- Cluster 1 -->
    <circle cx="84.015072" cy="236.160091" r="3" fill="#ff0000"/>
    <circle cx="87.5298" cy="241.332065" r="3" fill="#ff0000"/>
    <circle cx="127.769549" cy="231.459373" r="3" fill="#ff0000"/>
    <circle cx="145.568612" cy="235.302534" r="3" fill="#ff0000"/>
    <circle cx="119.216819" cy="235.380958" r="3" fill="#ff0000"/>
    <circle cx="69.218182" cy="233.475573" r="3" fill="#ff0000"/>
    <circle cx="83.287074" cy="230.883739" r="3" fill="#ff0000"/>
    <circle cx="129.903099" cy="218.272269" r="3" fill="#ff0000"/>
    <circle cx="132.551658" cy="246.24" r="3" fill="#ff0000"/>
    <circle cx="83.771854" cy="216.566867" r="3" fill="#ff0000"/>
    
    <!-- Cluster 2 -->
    <circle cx="323.562529" cy="181.360665" r="3" fill="#0000ff"/>
    <circle cx="348.058024" cy="191.223799" r="3" fill="#0000ff"/>
    <circle cx="326.510045" cy="189.811656" r="3" fill="#0000ff"/>
    <circle cx="332.538894" cy="189.920652" r="3" fill="#0000ff"/>
    <circle cx="349.213282" cy="174.80542" r="3" fill="#0000ff"/>
    <circle cx="373.581818" cy="166.436734" r="3" fill="#0000ff"/>
    <circle cx="325.410028" cy="191.536001" r="3" fill="#0000ff"/>
    <circle cx="302.258481" cy="190.810858" r="3" fill="#0000ff"/>
    <circle cx="333.656318" cy="181.370443" r="3" fill="#0000ff"/>
    <circle cx="322.25913" cy="166.343168" r="3" fill="#0000ff"/>
    
    <!-- Outlier -->
    <circle cx="342.17903" cy="44.64" r="3" fill="#00ff00"/>
  </g>
</svg>