<?xml version="1.0" encoding="utf-8"?>
<svg xmlns:xlink="http://www.w3.org/1999/xlink" width="432pt" height="288pt" viewBox="0 0 432 288" xmlns="http://www.w3.org/2000/svg" version="1.1">
  <g>
    <circle cx="69.218182" cy="170.920789" r="3" style="fill: red;"/>
    <circle cx="113.957304" cy="199.830548" r="3" style="fill: red;"/>
    <circle cx="114.440348" cy="196.813436" r="3" style="fill: red;"/>
    <circle cx="107.184829" cy="210.458008" r="3" style="fill: red;"/>
    <circle cx="120.668488" cy="203.080412" r="3" style="fill: red;"/>
    <circle cx="88.97278" cy="195.288043" r="3" style="fill: red;"/>
    <circle cx="99.114427" cy="204.052371" r="3" style="fill: red;"/>
    <circle cx="69.90539" cy="205.365022" r="3" style="fill: red;"/>
    <circle cx="83.630669" cy="206.257982" r="3" style="fill: red;"/>
    <circle cx="100.57294" cy="211.33211" r="3" style="fill: red;"/>
    <circle cx="259.971912" cy="223.524078" r="3" style="fill: blue;"/>
    <circle cx="319.940578" cy="246.24" r="3" style="fill: blue;"/>
    <circle cx="258.817335" cy="215.907541" r="3" style="fill: blue;"/>
    <circle cx="277.034987" cy="228.560753" r="3" style="fill: blue;"/>
    <circle cx="279.255492" cy="222.094535" r="3" style="fill: blue;"/>
    <circle cx="269.586575" cy="236.603638" r="3" style="fill: blue;"/>
    <circle cx="235.668416" cy="227.488002" r="3" style="fill: blue;"/>
    <circle cx="277.738802" cy="244.473453" r="3" style="fill: blue;"/>
    <circle cx="270.443771" cy="232.905566" r="3" style="fill: blue;"/>
    <circle cx="267.377865" cy="232.187939" r="3" style="fill: blue;"/>
    <circle cx="373.581818" cy="44.64" r="3" style="fill: green;"/>
  </g>
</svg>