<?xml version="1.0" encoding="utf-8"?>
<svg xmlns:xlink="http://www.w3.org/1999/xlink" width="432pt" height="288pt" viewBox="0 0 432 288" xmlns="http://www.w3.org/2000/svg" version="1.1">
  <g>
    <!-- Cluster 1: Points (-1.15, 0.37), (-1.02, 1.35), (-0.64, -1.20) -->
    <circle cx="69.218182" cy="108.976083" r="3" style="fill: #ff0000;"/>
    <circle cx="71.661558" cy="44.64" r="3" style="fill: #ff0000;"/>
    <circle cx="78.73437" cy="212.144152" r="3" style="fill: #ff0000;"/>
    
    <!-- Cluster 2: Points (0.45, -0.32), (0.76, -0.77), (0.37, -0.51), (0.33, -1.47), (1.29, -1.72), (1.65, -0.93), (0.98, 0.93) -->
    <circle cx="99.047718" cy="154.067706" r="3" style="fill: #00ff00;"/>
    <circle cx="104.964609" cy="183.68116" r="3" style="fill: #00ff00;"/>
    <circle cx="97.585224" cy="166.898034" r="3" style="fill: #00ff00;"/>
    <circle cx="96.967315" cy="229.894886" r="3" style="fill: #00ff00;"/>
    <circle cx="114.798122" cy="246.24" r="3" style="fill: #00ff00;"/>
    <circle cx="121.649774" cy="194.081443" r="3" style="fill: #00ff00;"/>
    <circle cx="108.973513" cy="72.160578" r="3" style="fill: #00ff00;"/>
    
    <!-- Cluster 3: Points (9.91, -0.32), (10.32, 0.02), (11.04, 0.40), (11.01, -0.21), (10.14, 0.98), (10.27, 1.14), (10.16, -0.94), (11.24, -1.45), (8.94, -0.09), (8.77, -0.13), (15.10, -0.20) -->
    <circle cx="276.363795" cy="154.358028" r="3" style="fill: #0000ff;"/>
    <circle cx="283.916814" cy="131.700502" r="3" style="fill: #0000ff;"/>
    <circle cx="297.530808" cy="107.026592" r="3" style="fill: #0000ff;"/>
    <circle cx="296.857353" cy="147.2269" r="3" style="fill: #0000ff;"/>
    <circle cx="280.992293" cy="195.085073" r="3" style="fill: #0000ff;"/>
    <circle cx="283.008837" cy="57.903465" r="3" style="fill: #0000ff;"/>
    <circle cx="280.622575" cy="68.484307" r="3" style="fill: #0000ff;"/>
    <circle cx="301.292874" cy="228.607782" r="3" style="fill: #0000ff;"/>
    <circle cx="254.952162" cy="141.8917" r="3" style="fill: #0000ff;"/>
    <circle cx="258.112206" cy="139.208082" r="3" style="fill: #0000ff;"/>
    <circle cx="373.581818" cy="146.063945" r="3" style="fill: #0000ff;"/>
  </g>
</svg>