<?xml version="1.0" encoding="utf-8"?>
<svg xmlns:xlink="http://www.w3.org/1999/xlink" width="432pt" height="288pt" viewBox="0 0 432 288" xmlns="http://www.w3.org/2000/svg" version="1.1">
  <g>
    <!-- Cluster 1 -->
    <circle cx="85.575799" cy="57.257335" r="3" style="fill: #ff0000;"/>
    <circle cx="86.743254" cy="108.278936" r="3" style="fill: #ff0000;"/>
    <circle cx="86.402678" cy="141.75485" r="3" style="fill: #ff0000;"/>
    <circle cx="90.995" cy="44.64" r="3" style="fill: #ff0000;"/>
    <circle cx="91.391488" cy="102.746695" r="3" style="fill: #ff0000;"/>
    <circle cx="94.791888" cy="158.589235" r="3" style="fill: #ff0000;"/>
    <circle cx="80.165901" cy="101.782403" r="3" style="fill: #ff0000;"/>
    <circle cx="90.189123" cy="75.491076" r="3" style="fill: #ff0000;"/>
    <circle cx="69.218182" cy="57.151583" r="3" style="fill: #ff0000;"/>
    <circle cx="73.726513" cy="140.608076" r="3" style="fill: #ff0000;"/>

    <!-- Cluster 2 -->
    <circle cx="212.814852" cy="157.562535" r="3" style="fill: #0000ff;"/>
    <circle cx="189.648454" cy="191.604578" r="3" style="fill: #0000ff;"/>
    <circle cx="207.002689" cy="182.348587" r="3" style="fill: #0000ff;"/>
    <circle cx="196.241809" cy="136.900836" r="3" style="fill: #0000ff;"/>
    <circle cx="210.540604" cy="246.24" r="3" style="fill: #0000ff;"/>
    <circle cx="198.250965" cy="172.901995" r="3" style="fill: #0000ff;"/>
    <circle cx="216.285356" cy="161.805406" r="3" style="fill: #0000ff;"/>
    <circle cx="209.76821" cy="189.535735" r="3" style="fill: #0000ff;"/>
    <circle cx="202.190359" cy="133.453135" r="3" style="fill: #0000ff;"/>
    <circle cx="184.167541" cy="154.30678" r="3" style="fill: #0000ff;"/>

    <!-- Cluster 3 -->
    <circle cx="373.581818" cy="177.694318" r="3" style="fill: #00ff00;"/>
  </g>
</svg>