<?xml version="1.0" encoding="UTF-8" standalone="no"?>
<svg width="432pt" height="288pt" viewBox="0 0 432 288" xmlns="http://www.w3.org/2000/svg" version="1.1">
    <defs>
        <style type="text/css">
            * {
                stroke-linejoin: round;
                stroke-linecap: butt;
            }
        </style>
    </defs>
    <g>
        <!-- Cluster 1 -->
        <circle cx="82.775019" cy="236.786577" r="3" style="fill: #ff0000;"/>
        <circle cx="94.981336" cy="237.279195" r="3" style="fill: #ff0000;"/>
        <circle cx="85.304327" cy="239.738878" r="3" style="fill: #ff0000;"/>
        <circle cx="75.312843" cy="246.24" r="3" style="fill: #ff0000;"/>
        <circle cx="79.788533" cy="244.074036" r="3" style="fill: #ff0000;"/>
        <circle cx="99.910167" cy="245.346538" r="3" style="fill: #ff0000;"/>
        <circle cx="82.61118" cy="232.183473" r="3" style="fill: #ff0000;"/>
        <circle cx="71.727471" cy="237.550562" r="3" style="fill: #ff0000;"/>
        <circle cx="95.225511" cy="237.270475" r="3" style="fill: #ff0000;"/>
        <circle cx="90.633458" cy="236.713962" r="3" style="fill: #ff0000;"/>
        <circle cx="92.660242" cy="232.844274" r="3" style="fill: #ff0000;"/>
        <circle cx="83.823485" cy="237.606689" r="3" style="fill: #ff0000;"/>
        <circle cx="73.856992" cy="238.056231" r="3" style="fill: #ff0000;"/>
        <circle cx="69.218182" cy="239.715409" r="3" style="fill: #ff0000;"/>
        <circle cx="100.688517" cy="226.623675" r="3" style="fill: #ff0000;"/>
        <!-- Cluster 2 -->
        <circle cx="201.114073" cy="197.612039" r="3" style="fill: #00ff00;"/>
        <circle cx="231.982572" cy="183.115398" r="3" style="fill: #00ff00;"/>
        <circle cx="233.923894" cy="179.151255" r="3" style="fill: #00ff00;"/>
        <circle cx="224.884832" cy="193.193035" r="3" style="fill: #00ff00;"/>
        <circle cx="233.772512" cy="186.363559" r="3" style="fill: #00ff00;"/>
        <circle cx="215.122853" cy="193.009993" r="3" style="fill: #00ff00;"/>
        <circle cx="232.203343" cy="196.308526" r="3" style="fill: #00ff00;"/>
        <circle cx="226.24008" cy="171.761344" r="3" style="fill: #00ff00;"/>
        <circle cx="200.74302" cy="186.014104" r="3" style="fill: #00ff00;"/>
        <circle cx="242.076287" cy="175.996426" r="3" style="fill: #00ff00;"/>
        <circle cx="206.575767" cy="193.240364" r="3" style="fill: #00ff00;"/>
        <circle cx="224.514224" cy="193.841431" r="3" style="fill: #00ff00;"/>
        <circle cx="216.333718" cy="188.558303" r="3" style="fill: #00ff00;"/>
        <circle cx="206.343478" cy="187.689411" r="3" style="fill: #00ff00;"/>
        <circle cx="216.759336" cy="183.592803" r="3" style="fill: #00ff00;"/>
        <!-- Cluster 3 -->
        <circle cx="325.521671" cy="155.290319" r="3" style="fill: #0000ff;"/>
        <circle cx="354.750979" cy="139.383357" r="3" style="fill: #0000ff;"/>
        <circle cx="353.138375" cy="138.674958" r="3" style="fill: #0000ff;"/>
        <circle cx="370.482272" cy="128.334196" r="3" style="fill: #0000ff;"/>
        <circle cx="373.581818" cy="132.330716" r="3" style="fill: #0000ff;"/>
        <circle cx="334.357423" cy="152.783119" r="3" style="fill: #0000ff;"/>
        <circle cx="362.310193" cy="136.09074" r="3" style="fill: #0000ff;"/>
        <circle cx="340.08069" cy="159.620836" r="3" style="fill: #0000ff;"/>
        <circle cx="353.348258" cy="135.841992" r="3" style="fill: #0000ff;"/>
        <circle cx="354.861096" cy="152.729408" r="3" style="fill: #0000ff;"/>
        <circle cx="336.918635" cy="149.6498" r="3" style="fill: #0000ff;"/>
        <circle cx="353.449504" cy="138.148996" r="3" style="fill: #0000ff;"/>
        <circle cx="337.941294" cy="145.916041" r="3" style="fill: #0000ff;"/>
        <circle cx="341.504628" cy="153.398808" r="3" style="fill: #0000ff;"/>
        <circle cx="329.426549" cy="141.194106" r="3" style="fill: #0000ff;"/>
        <circle cx="303.039893" cy="177.81788" r="3" style="fill: #0000ff;"/>
        <circle cx="334.252952" cy="207.249781" r="3" style="fill: #0000ff;"/>
        <circle cx="355.036816" cy="44.64" r="3" style="fill: #0000ff;"/>
    </g>
</svg>