<svg xmlns:xlink="http://www.w3.org/1999/xlink" width="432pt" height="288pt" viewBox="0 0 432 288" xmlns="http://www.w3.org/2000/svg" version="1.1">
 <defs>
  <path id="mee002b7aaf" d="M 0 3 
C 0.795609 3 1.55874 2.683901 2.12132 2.12132 
C 2.683901 1.55874 3 0.795609 3 0 
C 3 -0.795609 2.683901 -1.55874 2.12132 -2.12132 
C 1.55874 -2.683901 0.795609 -3 0 -3 
C -0.795609 -3 -1.55874 -2.683901 -2.12132 -2.12132 
C -2.683901 -1.55874 -3 -0.795609 -3 0 
C -3 0.795609 -2.683901 1.55874 -2.12132 2.12132 
C -1.55874 2.683901 -0.795609 3 0 3 
z"/>
 </defs>
 <g>
  <!-- Cluster 1 -->
  <use xlink:href="#mee002b7aaf" x="83.28465" y="227.089722" style="fill: red;"/>
  <use xlink:href="#mee002b7aaf" x="82.079598" y="226.030964" style="fill: red;"/>
  <use xlink:href="#mee002b7aaf" x="80.083945" y="225.977588" style="fill: red;"/>
  <use xlink:href="#mee002b7aaf" x="78.224289" y="228.978652" style="fill: red;"/>
  <use xlink:href="#mee002b7aaf" x="69.218182" y="234.834612" style="fill: red;"/>
  <use xlink:href="#mee002b7aaf" x="75.960334" y="229.608685" style="fill: red;"/>
  
  <!-- Cluster 2 -->
  <use xlink:href="#mee002b7aaf" x="154.082721" y="177.095451" style="fill: blue;"/>
  <use xlink:href="#mee002b7aaf" x="150.190123" y="179.31022" style="fill: blue;"/>
  <use xlink:href="#mee002b7aaf" x="151.712842" y="179.84148" style="fill: blue;"/>
  <use xlink:href="#mee002b7aaf" x="145.507118" y="182.995967" style="fill: blue;"/>
  <use xlink:href="#mee002b7aaf" x="154.373078" y="177.41086" style="fill: blue;"/>
  <use xlink:href="#mee002b7aaf" x="151.438339" y="181.13676" style="fill: blue;"/>
  
  <!-- Cluster 3 -->
  <use xlink:href="#mee002b7aaf" x="200.517835" y="146.938027" style="fill: green;"/>
  <use xlink:href="#mee002b7aaf" x="206.805801" y="143.735684" style="fill: green;"/>
  <use xlink:href="#mee002b7aaf" x="205.319664" y="144.696897" style="fill: green;"/>
  <use xlink:href="#mee002b7aaf" x="205.35707" y="141.759657" style="fill: green;"/>
  <use xlink:href="#mee002b7aaf" x="205.73321" y="144.045182" style="fill: green;"/>
  <use xlink:href="#mee002b7aaf" x="204.674355" y="143.410752" style="fill: green;"/>
  
  <!-- Cluster 4 -->
  <use xlink:href="#mee002b7aaf" x="275.170338" y="97.772993" style="fill: orange;"/>
  <use xlink:href="#mee002b7aaf" x="275.628241" y="95.03687" style="fill: orange;"/>
  <use xlink:href="#mee002b7aaf" x="271.10588" y="101.128667" style="fill: orange;"/>
  <use xlink:href="#mee002b7aaf" x="271.388915" y="99.77859" style="fill: orange;"/>
  <use xlink:href="#mee002b7aaf" x="276.058888" y="94.281061" style="fill: orange;"/>
  <use xlink:href="#mee002b7aaf" x="271.176036" y="100.927805" style="fill: orange;"/>
  
  <!-- Cluster 5 -->
  <use xlink:href="#mee002b7aaf" x="349.419852" y="44.64" style="fill: purple;"/>
  <use xlink:href="#mee002b7aaf" x="343.297587" y="48.906676" style="fill: purple;"/>
  <use xlink:href="#mee002b7aaf" x="347.742436" y="47.329168" style="fill: purple;"/>
  <use xlink:href="#mee002b7aaf" x="339.113061" y="54.080655" style="fill: purple;"/>
  <use xlink:href="#mee002b7aaf" x="346.089425" y="48.791397" style="fill: purple;"/>
  <use xlink:href="#mee002b7aaf" x="342.321645" y="53.628995" style="fill: purple;"/>
 </g>
</svg>