<svg xmlns:xlink="http://www.w3.org/1999/xlink" width="432pt" height="288pt" viewBox="0 0 432 288" xmlns="http://www.w3.org/2000/svg" version="1.1">
 <defs>
  <path id="m00f9e13f98" d="M 0 3 
C 0.795609 3 1.55874 2.683901 2.12132 2.12132 
C 2.683901 1.55874 3 0.795609 3 0 
C 3 -0.795609 2.683901 -1.55874 2.12132 -2.12132 
C 1.55874 -2.683901 0.795609 -3 0 -3 
C -0.795609 -3 -1.55874 -2.683901 -2.12132 -2.12132 
C -2.683901 -1.55874 -3 -0.795609 -3 0 
C -3 0.795609 -2.683901 1.55874 -2.12132 2.12132 
C -1.55874 2.683901 -0.795609 3 0 3 
z"/>
 </defs>
 <g>
  <!-- Cluster 1 -->
  <use xlink:href="#m00f9e13f98" x="79.582985" y="97.965074" style="fill: #ff0000;"/>
  <use xlink:href="#m00f9e13f98" x="71.620176" y="104.595325" style="fill: #ff0000;"/>
  <use xlink:href="#m00f9e13f98" x="84.808126" y="111.468424" style="fill: #ff0000;"/>
  <use xlink:href="#m00f9e13f98" x="88.187871" y="108.435702" style="fill: #ff0000;"/>
  <use xlink:href="#m00f9e13f98" x="98.925645" y="112.837616" style="fill: #ff0000;"/>
  <use xlink:href="#m00f9e13f98" x="97.061257" y="124.996654" style="fill: #ff0000;"/>
  <use xlink:href="#m00f9e13f98" x="81.046002" y="113.085084" style="fill: #ff0000;"/>
  <use xlink:href="#m00f9e13f98" x="84.086113" y="116.933978" style="fill: #ff0000;"/>
  <use xlink:href="#m00f9e13f98" x="83.280719" y="98.061559" style="fill: #ff0000;"/>
  <use xlink:href="#m00f9e13f98" x="80.880572" y="107.791812" style="fill: #ff0000;"/>
  <use xlink:href="#m00f9e13f98" x="90.378612" y="108.829557" style="fill: #ff0000;"/>
  <use xlink:href="#m00f9e13f98" x="95.949442" y="108.076171" style="fill: #ff0000;"/>
  <use xlink:href="#m00f9e13f98" x="82.501016" y="98.442223" style="fill: #ff0000;"/>
  <use xlink:href="#m00f9e13f98" x="69.809663" y="102.379475" style="fill: #ff0000;"/>
  <use xlink:href="#m00f9e13f98" x="84.480419" y="102.935988" style="fill: #ff0000;"/>
  <use xlink:href="#m00f9e13f98" x="72.060592" y="99.256836" style="fill: #ff0000;"/>
  <use xlink:href="#m00f9e13f98" x="87.391676" y="108.85099" style="fill: #ff0000;"/>
  <use xlink:href="#m00f9e13f98" x="74.094346" y="107.209726" style="fill: #ff0000;"/>
  <use xlink:href="#m00f9e13f98" x="91.635769" y="111.779578" style="fill: #ff0000;"/>
  <use xlink:href="#m00f9e13f98" x="86.870873" y="101.883693" style="fill: #ff0000;"/>
  <use xlink:href="#m00f9e13f98" x="90.341045" y="114.147864" style="fill: #ff0000;"/>
  <use xlink:href="#m00f9e13f98" x="88.171398" y="109.07364" style="fill: #ff0000;"/>
  <use xlink:href="#m00f9e13f98" x="79.046678" y="95.208547" style="fill: #ff0000;"/>
  <use xlink:href="#m00f9e13f98" x="69.218182" y="100.586867" style="fill: #ff0000;"/>
  
  <!-- Cluster 2 -->
  <use xlink:href="#m00f9e13f98" x="338.31708" y="208.452317" style="fill: #0000ff;"/>
  <use xlink:href="#m00f9e13f98" x="342.559948" y="206.382361" style="fill: #0000ff;"/>
  <use xlink:href="#m00f9e13f98" x="366.401741" y="236.791474" style="fill: #0000ff;"/>
  <use xlink:href="#m00f9e13f98" x="360.358885" y="232.733444" style="fill: #0000ff;"/>
  <use xlink:href="#m00f9e13f98" x="339.349358" y="217.123938" style="fill: #0000ff;"/>
  <use xlink:href="#m00f9e13f98" x="354.201263" y="219.735025" style="fill: #0000ff;"/>
  <use xlink:href="#m00f9e13f98" x="343.997098" y="223.215666" style="fill: #0000ff;"/>
  <use xlink:href="#m00f9e13f98" x="346.26412" y="224.863526" style="fill: #0000ff;"/>
  <use xlink:href="#m00f9e13f98" x="332.73745" y="225.042366" style="fill: #0000ff;"/>
  <use xlink:href="#m00f9e13f98" x="360.090677" y="242.208907" style="fill: #0000ff;"/>
  <use xlink:href="#m00f9e13f98" x="345.76801" y="212.21572" style="fill: #0000ff;"/>
  <use xlink:href="#m00f9e13f98" x="364.904543" y="240.7725" style="fill: #0000ff;"/>
  <use xlink:href="#m00f9e13f98" x="356.502671" y="222.460544" style="fill: #0000ff;"/>
  <use xlink:href="#m00f9e13f98" x="358.461277" y="214.690018" style="fill: #0000ff;"/>
  <use xlink:href="#m00f9e13f98" x="373.581818" y="224.623279" style="fill: #0000ff;"/>
  <use xlink:href="#m00f9e13f98" x="358.245305" y="233.49637" style="fill: #0000ff;"/>
  <use xlink:href="#m00f9e13f98" x="360.407656" y="226.931528" style="fill: #0000ff;"/>
  <use xlink:href="#m00f9e13f98" x="373.430671" y="233.47273" style="fill: #0000ff;"/>
  <use xlink:href="#m00f9e13f98" x="337.184576" y="215.206063" style="fill: #0000ff;"/>
  <use xlink:href="#m00f9e13f98" x="352.73859" y="246.24" style="fill: #0000ff;"/>
  <use xlink:href="#m00f9e13f98" x="347.282201" y="219.287786" style="fill: #0000ff;"/>
  <use xlink:href="#m00f9e13f98" x="342.731805" y="229.550687" style="fill: #0000ff;"/>
  <use xlink:href="#m00f9e13f98" x="372.400214" y="242.042615" style="fill: #0000ff;"/>
  <use xlink:href="#m00f9e13f98" x="329.575794" y="223.689657" style="fill: #0000ff;"/>
 </g>
</svg>