<?xml version="1.0" encoding="utf-8"?>
<svg width="432pt" height="288pt" viewBox="0 0 432 288" xmlns="http://www.w3.org/2000/svg" version="1.1">
  <g>
    <circle cx="80.67958" cy="199.091682" r="3" style="fill: #ff0000;"/>
    <circle cx="110.608893" cy="166.801998" r="3" style="fill: #ff0000;"/>
    <circle cx="98.813594" cy="191.571745" r="3" style="fill: #ff0000;"/>
    <circle cx="103.256028" cy="143.210969" r="3" style="fill: #ff0000;"/>
    <circle cx="85.011614" cy="161.142598" r="3" style="fill: #ff0000;"/>
    <circle cx="92.875775" cy="152.41804" r="3" style="fill: #ff0000;"/>
    <circle cx="81.568124" cy="239.094316" r="3" style="fill: #ff0000;"/>
    <circle cx="90.901915" cy="173.018706" r="3" style="fill: #ff0000;"/>
    <circle cx="112.581859" cy="139.742361" r="3" style="fill: #ff0000;"/>
    <circle cx="97.596847" cy="162.85205" r="3" style="fill: #ff0000;"/>
    <circle cx="74.229726" cy="191.754353" r="3" style="fill: #ff0000;"/>
    <circle cx="103.728889" cy="158.033846" r="3" style="fill: #ff0000;"/>
    <circle cx="99.693482" cy="181.458438" r="3" style="fill: #ff0000;"/>
    <circle cx="78.565435" cy="181.195242" r="3" style="fill: #ff0000;"/>
    <circle cx="92.713137" cy="165.545303" r="3" style="fill: #ff0000;"/>
    <circle cx="110.437773" cy="209.286448" r="3" style="fill: #ff0000;"/>
    <circle cx="104.314494" cy="200.021468" r="3" style="fill: #ff0000;"/>
    <circle cx="83.285463" cy="124.409895" r="3" style="fill: #ff0000;"/>
    <circle cx="69.218182" cy="212.358608" r="3" style="fill: #ff0000;"/>
    <circle cx="78.818192" cy="171.534412" r="3" style="fill: #ff0000;"/>
    <circle cx="91.091499" cy="157.593815" r="3" style="fill: #ff0000;"/>
    <circle cx="183.543273" cy="104.455889" r="3" style="fill: #0000ff;"/>
    <circle cx="186.614894" cy="123.346695" r="3" style="fill: #0000ff;"/>
    <circle cx="198.993732" cy="126.954697" r="3" style="fill: #0000ff;"/>
    <circle cx="220.677737" cy="86.140569" r="3" style="fill: #0000ff;"/>
    <circle cx="180.115595" cy="199.887045" r="3" style="fill: #0000ff;"/>
    <circle cx="184.065729" cy="158.845573" r="3" style="fill: #0000ff;"/>
    <circle cx="186.918822" cy="140.815327" r="3" style="fill: #0000ff;"/>
    <circle cx="205.494759" cy="163.052647" r="3" style="fill: #0000ff;"/>
    <circle cx="200.377261" cy="142.865839" r="3" style="fill: #0000ff;"/>
    <circle cx="193.967564" cy="184.468041" r="3" style="fill: #0000ff;"/>
    <circle cx="190.181832" cy="176.370799" r="3" style="fill: #0000ff;"/>
    <circle cx="180.430675" cy="177.705329" r="3" style="fill: #0000ff;"/>
    <circle cx="194.807077" cy="104.612809" r="3" style="fill: #0000ff;"/>
    <circle cx="211.143742" cy="182.736721" r="3" style="fill: #0000ff;"/>
    <circle cx="204.767854" cy="72.077525" r="3" style="fill: #0000ff;"/>
    <circle cx="192.546312" cy="144.487276" r="3" style="fill: #0000ff;"/>
    <circle cx="199.079138" cy="104.620585" r="3" style="fill: #0000ff;"/>
    <circle cx="178.578511" cy="180.034667" r="3" style="fill: #0000ff;"/>
    <circle cx="168.602045" cy="181.960472" r="3" style="fill: #0000ff;"/>
    <circle cx="192.477926" cy="109.859911" r="3" style="fill: #0000ff;"/>
    <circle cx="171.61731" cy="173.498475" r="3" style="fill: #0000ff;"/>
    <circle cx="318.290346" cy="44.64" r="3" style="fill: #00ff00;"/>
    <circle cx="373.581818" cy="246.24" r="3" style="fill: #00ff00;"/>
    <circle cx="350.102637" cy="180.244237" r="3" style="fill: #00ff00;"/>
  </g>
</svg>