<?xml version="1.0" encoding="UTF-8" standalone="no"?>
<svg xmlns="http://www.w3.org/2000/svg" width="432pt" height="288pt" viewBox="0 0 432 288" version="1.1">
  <defs>
    <style type="text/css">
      * {
        stroke-linejoin: round;
        stroke-linecap: butt;
      }
    </style>
  </defs>
  <g>
    <circle cx="81.839362" cy="214.057043" r="3" style="fill: #ff0000;"/>
    <circle cx="95.296078" cy="201.500905" r="3" style="fill: #ff0000;"/>
    <circle cx="94.806657" cy="222.020594" r="3" style="fill: #ff0000;"/>
    <circle cx="86.496683" cy="210.947207" r="3" style="fill: #ff0000;"/>
    <circle cx="72.263216" cy="197.127967" r="3" style="fill: #ff0000;"/>
    <circle cx="76.321382" cy="195.989396" r="3" style="fill: #ff0000;"/>
    <circle cx="78.198022" cy="232.163291" r="3" style="fill: #ff0000;"/>
    <circle cx="92.755646" cy="205.484321" r="3" style="fill: #ff0000;"/>
    <circle cx="69.218182" cy="222.166934" r="3" style="fill: #ff0000;"/>
    <circle cx="103.662766" cy="179.422456" r="3" style="fill: #ff0000;"/>
    <circle cx="82.621013" cy="200.015148" r="3" style="fill: #ff0000;"/>
    <circle cx="93.146937" cy="221.293947" r="3" style="fill: #ff0000;"/>
    <circle cx="80.39918" cy="235.959627" r="3" style="fill: #ff0000;"/>
    <circle cx="82.592105" cy="215.79002" r="3" style="fill: #ff0000;"/>
    <circle cx="87.841373" cy="227.843898" r="3" style="fill: #ff0000;"/>
    <circle cx="82.142284" cy="215.273626" r="3" style="fill: #ff0000;"/>
    <circle cx="99.449938" cy="244.211593" r="3" style="fill: #ff0000;"/>
    <circle cx="83.488583" cy="236.380035" r="3" style="fill: #ff0000;"/>
    <circle cx="96.219018" cy="207.918165" r="3" style="fill: #ff0000;"/>
    <circle cx="95.030562" cy="214.472195" r="3" style="fill: #ff0000;"/>
    <circle cx="92.636294" cy="212.902709" r="3" style="fill: #ff0000;"/>
    <circle cx="161.332136" cy="237.787128" r="3" style="fill: #0000ff;"/>
    <circle cx="136.458746" cy="227.527526" r="3" style="fill: #0000ff;"/>
    <circle cx="157.850264" cy="214.881658" r="3" style="fill: #0000ff;"/>
    <circle cx="148.163312" cy="212.625634" r="3" style="fill: #0000ff;"/>
    <circle cx="155.807805" cy="206.291361" r="3" style="fill: #0000ff;"/>
    <circle cx="146.109718" cy="231.80592" r="3" style="fill: #0000ff;"/>
    <circle cx="158.312743" cy="206.574471" r="3" style="fill: #0000ff;"/>
    <circle cx="160.190446" cy="220.822177" r="3" style="fill: #0000ff;"/>
    <circle cx="148.808845" cy="190.127079" r="3" style="fill: #0000ff;"/>
    <circle cx="146.721179" cy="205.522302" r="3" style="fill: #0000ff;"/>
    <circle cx="153.836781" cy="203.217335" r="3" style="fill: #0000ff;"/>
    <circle cx="164.548467" cy="246.24" r="3" style="fill: #0000ff;"/>
    <circle cx="169.414461" cy="224.954556" r="3" style="fill: #0000ff;"/>
    <circle cx="166.932351" cy="240.237452" r="3" style="fill: #0000ff;"/>
    <circle cx="148.481639" cy="224.143346" r="3" style="fill: #0000ff;"/>
    <circle cx="146.356144" cy="196.427756" r="3" style="fill: #0000ff;"/>
    <circle cx="162.52035" cy="215.149505" r="3" style="fill: #0000ff;"/>
    <circle cx="138.720584" cy="218.763326" r="3" style="fill: #0000ff;"/>
    <circle cx="153.697724" cy="195.709403" r="3" style="fill: #0000ff;"/>
    <circle cx="158.111822" cy="208.206148" r="3" style="fill: #0000ff;"/>
    <circle cx="158.220898" cy="216.283806" r="3" style="fill: #0000ff;"/>
    <circle cx="242.071963" cy="91.896094" r="3" style="fill: #00ff00;"/>
    <circle cx="215.28843" cy="44.64" r="3" style="fill: #00ff00;"/>
    <circle cx="373.581818" cy="86.208598" r="3" style="fill: #00ff00;"/>
  </g>
</svg>