<?xml version="1.0" encoding="utf-8"?>
<svg width="432pt" height="288pt" viewBox="0 0 432 288" xmlns="http://www.w3.org/2000/svg" version="1.1">
  <g>
    <circle cx="71.14893" cy="229.465707" r="3" style="fill: red;"/>
    <circle cx="78.841618" cy="233.987109" r="3" style="fill: red;"/>
    <circle cx="92.992945" cy="218.082247" r="3" style="fill: red;"/>
    <circle cx="77.692985" cy="223.115865" r="3" style="fill: red;"/>
    <circle cx="79.356464" cy="228.081595" r="3" style="fill: red;"/>
    <circle cx="74.996002" cy="246.24" r="3" style="fill: red;"/>
    <circle cx="85.75129" cy="223.08145" r="3" style="fill: red;"/>
    <circle cx="78.320091" cy="225.831139" r="3" style="fill: red;"/>
    <circle cx="88.126357" cy="219.882506" r="3" style="fill: red;"/>
    <circle cx="81.221455" cy="226.864615" r="3" style="fill: red;"/>
    <circle cx="89.2861" cy="212.234865" r="3" style="fill: red;"/>
    <circle cx="94.20941" cy="214.917039" r="3" style="fill: red;"/>
    <circle cx="91.163836" cy="208.389821" r="3" style="fill: red;"/>
    <circle cx="83.200507" cy="220.732355" r="3" style="fill: red;"/>
    <circle cx="84.945345" cy="232.948415" r="3" style="fill: red;"/>
    <circle cx="69.218182" cy="236.580635" r="3" style="fill: red;"/>
    <circle cx="91.801291" cy="212.790501" r="3" style="fill: red;"/>
    <circle cx="81.793233" cy="218.713523" r="3" style="fill: red;"/>
    <circle cx="94.798537" cy="214.079913" r="3" style="fill: red;"/>
    <circle cx="74.01549" cy="221.619557" r="3" style="fill: red;"/>
    <circle cx="73.42775" cy="236.913284" r="3" style="fill: red;"/>
    <circle cx="153.746018" cy="175.317409" r="3" style="fill: blue;"/>
    <circle cx="152.841672" cy="177.251455" r="3" style="fill: blue;"/>
    <circle cx="146.761648" cy="176.393452" r="3" style="fill: blue;"/>
    <circle cx="148.434681" cy="179.773394" r="3" style="fill: blue;"/>
    <circle cx="142.703371" cy="183.802681" r="3" style="fill: blue;"/>
    <circle cx="148.679994" cy="172.076029" r="3" style="fill: blue;"/>
    <circle cx="157.202712" cy="179.097539" r="3" style="fill: blue;"/>
    <circle cx="143.931375" cy="189.607284" r="3" style="fill: blue;"/>
    <circle cx="141.615995" cy="188.249666" r="3" style="fill: blue;"/>
    <circle cx="157.301352" cy="175.283628" r="3" style="fill: blue;"/>
    <circle cx="157.79123" cy="182.581894" r="3" style="fill: blue;"/>
    <circle cx="152.419698" cy="175.083127" r="3" style="fill: blue;"/>
    <circle cx="157.842542" cy="174.426964" r="3" style="fill: blue;"/>
    <circle cx="156.851335" cy="188.09839" r="3" style="fill: blue;"/>
    <circle cx="150.281375" cy="170.978082" r="3" style="fill: blue;"/>
    <circle cx="154.661486" cy="180.53637" r="3" style="fill: blue;"/>
    <circle cx="155.630938" cy="176.11104" r="3" style="fill: blue;"/>
    <circle cx="149.681321" cy="177.731222" r="3" style="fill: blue;"/>
    <circle cx="150.462237" cy="178.55178" r="3" style="fill: blue;"/>
    <circle cx="146.689471" cy="181.395407" r="3" style="fill: blue;"/>
    <circle cx="165.193344" cy="172.990184" r="3" style="fill: blue;"/>
    <circle cx="241.724222" cy="143.568932" r="3" style="fill: green;"/>
    <circle cx="373.581818" cy="107.843663" r="3" style="fill: green;"/>
    <circle cx="282.365644" cy="44.64" r="3" style="fill: green;"/>
  </g>
</svg>