<?xml version="1.0" encoding="utf-8"?>
<svg xmlns:xlink="http://www.w3.org/1999/xlink" width="432pt" height="288pt" viewBox="0 0 432 288" xmlns="http://www.w3.org/2000/svg" version="1.1">
 <defs>
  <style type="text/css">*{stroke-linejoin: round; stroke-linecap: butt}</style>
  <path id="mfb1da33127" d="M 0 3 
C 0.795609 3 1.55874 2.683901 2.12132 2.12132 
C 2.683901 1.55874 3 0.795609 3 0 
C 3 -0.795609 2.683901 -1.55874 2.12132 -2.12132 
C 1.55874 -2.683901 0.795609 -3 0 -3 
C -0.795609 -3 -1.55874 -2.683901 -2.12132 -2.12132 
C -2.683901 -1.55874 -3 -0.795609 -3 0 
C -3 0.795609 -2.683901 1.55874 -2.12132 2.12132 
C -1.55874 2.683901 -0.795609 3 0 3 
z"/>
 </defs>
 <g>
  <!-- Cluster 1 -->
  <use xlink:href="#mfb1da33127" x="69.218182" y="57.081624" style="fill: #ff0000;"/>
  <use xlink:href="#mfb1da33127" x="73.943477" y="44.64" style="fill: #ff0000;"/>
  <use xlink:href="#mfb1da33127" x="72.020595" y="67.745285" style="fill: #ff0000;"/>
  <use xlink:href="#mfb1da33127" x="80.910078" y="61.153026" style="fill: #ff0000;"/>
  <use xlink:href="#mfb1da33127" x="75.42267" y="52.45162" style="fill: #ff0000;"/>
  <use xlink:href="#mfb1da33127" x="77.765492" y="60.861464" style="fill: #ff0000;"/>
  <use xlink:href="#mfb1da33127" x="78.922194" y="60.183669" style="fill: #ff0000;"/>
  <use xlink:href="#mfb1da33127" x="75.643956" y="69.837478" style="fill: #ff0000;"/>
  <use xlink:href="#mfb1da33127" x="78.516269" y="66.158352" style="fill: #ff0000;"/>
  <use xlink:href="#mfb1da33127" x="72.393896" y="56.117809" style="fill: #ff0000;"/>

  <!-- Cluster 2 -->
  <use xlink:href="#mfb1da33127" x="133.24234" y="110.499009" style="fill: #00ff00;"/>
  <use xlink:href="#mfb1da33127" x="139.250012" y="107.160184" style="fill: #00ff00;"/>
  <use xlink:href="#mfb1da33127" x="151.660015" y="106.531741" style="fill: #00ff00;"/>
  <use xlink:href="#mfb1da33127" x="133.552755" y="107.390105" style="fill: #00ff00;"/>
  <use xlink:href="#mfb1da33127" x="150.436405" y="120.123442" style="fill: #00ff00;"/>
  <use xlink:href="#mfb1da33127" x="140.081901" y="87.151828" style="fill: #00ff00;"/>
  <use xlink:href="#mfb1da33127" x="143.971038" y="113.023097" style="fill: #00ff00;"/>
  <use xlink:href="#mfb1da33127" x="130.820753" y="102.805103" style="fill: #00ff00;"/>
  <use xlink:href="#mfb1da33127" x="128.534631" y="95.377344" style="fill: #00ff00;"/>
  <use xlink:href="#mfb1da33127" x="133.300219" y="96.555954" style="fill: #00ff00;"/>

  <!-- Cluster 3 -->
  <use xlink:href="#mfb1da33127" x="189.649738" y="134.269408" style="fill: #0000ff;"/>
  <use xlink:href="#mfb1da33127" x="190.856762" y="160.840232" style="fill: #0000ff;"/>
  <use xlink:href="#mfb1da33127" x="210.9856" y="156.360101" style="fill: #0000ff;"/>
  <use xlink:href="#mfb1da33127" x="196.311052" y="143.037123" style="fill: #0000ff;"/>
  <use xlink:href="#mfb1da33127" x="192.697973" y="135.485377" style="fill: #0000ff;"/>
  <use xlink:href="#mfb1da33127" x="198.32098" y="132.528463" style="fill: #0000ff;"/>
  <use xlink:href="#mfb1da33127" x="196.771791" y="137.317301" style="fill: #0000ff;"/>
  <use xlink:href="#mfb1da33127" x="201.399995" y="152.266494" style="fill: #0000ff;"/>
  <use xlink:href="#mfb1da33127" x="193.557905" y="133.218024" style="fill: #0000ff;"/>
  <use xlink:href="#mfb1da33127" x="205.057315" y="154.560873" style="fill: #0000ff;"/>

  <!-- Cluster 4 -->
  <use xlink:href="#mfb1da33127" x="253.225422" y="167.478468" style="fill: #ffff00;"/>
  <use xlink:href="#mfb1da33127" x="263.474196" y="186.503266" style="fill: #ffff00;"/>
  <use xlink:href="#mfb1da33127" x="265.468642" y="198.321636" style="fill: #ffff00;"/>
  <use xlink:href="#mfb1da33127" x="263.732747" y="204.093579" style="fill: #ffff00;"/>
  <use xlink:href="#mfb1da33127" x="268.9571" y="196.756341" style="fill: #ffff00;"/>
  <use xlink:href="#mfb1da33127" x="266.603689" y="186.910822" style="fill: #ffff00;"/>
  <use xlink:href="#mfb1da33127" x="267.480125" y="199.363647" style="fill: #ffff00;"/>
  <use xlink:href="#mfb1da33127" x="253.830461" y="185.87263" style="fill: #ffff00;"/>
  <use xlink:href="#mfb1da33127" x="272.355577" y="208.274965" style="fill: #ffff00;"/>
  <use xlink:href="#mfb1da33127" x="262.399533" y="197.254766" style="fill: #ffff00;"/>

  <!-- Outliers -->
  <use xlink:href="#mfb1da33127" x="351.004524" y="246.24" style="fill: #ff00ff;"/>
  <use xlink:href="#mfb1da33127" x="373.581818" y="106.369367" style="fill: #ff00ff;"/>
  <use xlink:href="#mfb1da33127" x="170.374013" y="211.499484" style="fill: #ff00ff;"/>
 </g>
</svg>