<?xml version="1.0" encoding="UTF-8" standalone="no"?>
<svg xmlns="http://www.w3.org/2000/svg" width="432pt" height="288pt" viewBox="0 0 432 288" version="1.1">
  <g>
    <circle cx="80.774761" cy="60.274487" r="3" style="fill: #ff0000;"/>
    <circle cx="78.920136" cy="60.725322" r="3" style="fill: #ff0000;"/>
    <circle cx="73.038193" cy="62.221224" r="3" style="fill: #ff0000;"/>
    <circle cx="75.147979" cy="44.64" r="3" style="fill: #ff0000;"/>
    <circle cx="72.021829" cy="54.861205" r="3" style="fill: #ff0000;"/>
    <circle cx="88.475165" cy="76.814548" r="3" style="fill: #ff0000;"/>
    <circle cx="73.614905" cy="48.531833" r="3" style="fill: #ff0000;"/>
    <circle cx="72.663652" cy="62.431073" r="3" style="fill: #ff0000;"/>
    <circle cx="69.218182" cy="48.647139" r="3" style="fill: #ff0000;"/>
    <circle cx="75.469468" cy="68.155151" r="3" style="fill: #ff0000;"/>
    <circle cx="76.569108" cy="60.19279" r="3" style="fill: #ff0000;"/>
    <circle cx="81.186036" cy="63.501147" r="3" style="fill: #ff0000;"/>
    <circle cx="77.979236" cy="56.831986" r="3" style="fill: #ff0000;"/>
    <circle cx="131.609536" cy="118.386923" r="3" style="fill: #00ff00;"/>
    <circle cx="127.383572" cy="111.230414" r="3" style="fill: #00ff00;"/>
    <circle cx="123.562028" cy="124.003989" r="3" style="fill: #00ff00;"/>
    <circle cx="127.810328" cy="92.904436" r="3" style="fill: #00ff00;"/>
    <circle cx="120.566872" cy="103.081088" r="3" style="fill: #00ff00;"/>
    <circle cx="135.484611" cy="133.082474" r="3" style="fill: #00ff00;"/>
    <circle cx="130.594742" cy="123.080544" r="3" style="fill: #00ff00;"/>
    <circle cx="129.975385" cy="106.992148" r="3" style="fill: #00ff00;"/>
    <circle cx="119.749616" cy="115.823529" r="3" style="fill: #00ff00;"/>
    <circle cx="124.976925" cy="121.245869" r="3" style="fill: #00ff00;"/>
    <circle cx="128.940852" cy="112.222064" r="3" style="fill: #00ff00;"/>
    <circle cx="131.392132" cy="118.795532" r="3" style="fill: #00ff00;"/>
    <circle cx="128.910515" cy="106.81084" r="3" style="fill: #00ff00;"/>
    <circle cx="168.493985" cy="148.550195" r="3" style="fill: #0000ff;"/>
    <circle cx="169.110651" cy="162.953692" r="3" style="fill: #0000ff;"/>
    <circle cx="174.527449" cy="160.155459" r="3" style="fill: #0000ff;"/>
    <circle cx="176.547695" cy="158.231463" r="3" style="fill: #0000ff;"/>
    <circle cx="167.531752" cy="157.681406" r="3" style="fill: #0000ff;"/>
    <circle cx="170.245869" cy="170.105498" r="3" style="fill: #0000ff;"/>
    <circle cx="176.670708" cy="165.519843" r="3" style="fill: #0000ff;"/>
    <circle cx="186.96887" cy="173.223333" r="3" style="fill: #0000ff;"/>
    <circle cx="174.536753" cy="168.043914" r="3" style="fill: #0000ff;"/>
    <circle cx="179.503515" cy="165.263267" r="3" style="fill: #0000ff;"/>
    <circle cx="185.820845" cy="168.200829" r="3" style="fill: #0000ff;"/>
    <circle cx="177.021082" cy="161.909835" r="3" style="fill: #0000ff;"/>
    <circle cx="172.851169" cy="156.340023" r="3" style="fill: #0000ff;"/>
    <circle cx="273.46461" cy="146.246524" r="3" style="fill: #ff00ff;"/>
    <circle cx="373.581818" cy="147.165455" r="3" style="fill: #ff00ff;"/>
    <circle cx="275.517643" cy="246.24" r="3" style="fill: #ff00ff;"/>
  </g>
</svg>