<svg width="432pt" height="288pt" viewBox="0 0 432 288" xmlns="http://www.w3.org/2000/svg" version="1.1">
 <defs>
  <style type="text/css">*{stroke-linejoin: round; stroke-linecap: butt}</style>
 </defs>
 <g>
  <circle cx="183.160601" cy="246.24" r="3" style="fill: red;"/>
  <circle cx="183.253533" cy="200.834709" r="3" style="fill: red;"/>
  <circle cx="195.321059" cy="216.074574" r="3" style="fill: red;"/>
  <circle cx="198.19765" cy="206.621387" r="3" style="fill: red;"/>
  <circle cx="175.066091" cy="205.674305" r="3" style="fill: red;"/>
  <circle cx="183.467522" cy="228.900899" r="3" style="fill: red;"/>
  <circle cx="180.742237" cy="206.270526" r="3" style="fill: red;"/>
  <circle cx="209.497864" cy="217.388265" r="3" style="fill: red;"/>
  <circle cx="190.346936" cy="219.581818" r="3" style="fill: red;"/>
  <circle cx="173.475592" cy="236.113178" r="3" style="fill: red;"/>
  <circle cx="164.528581" cy="241.811686" r="3" style="fill: red;"/>
  <circle cx="188.808025" cy="203.844663" r="3" style="fill: red;"/>
  <circle cx="180.741802" cy="230.003297" r="3" style="fill: red;"/>
  <circle cx="182.924458" cy="223.780519" r="3" style="fill: red;"/>
  <circle cx="186.063228" cy="200.383545" r="3" style="fill: red;"/>
  <circle cx="182.50494" cy="230.082263" r="3" style="fill: red;"/>
  <circle cx="187.817569" cy="240.23824" r="3" style="fill: red;"/>
  <circle cx="174.361939" cy="224.700781" r="3" style="fill: red;"/>
  <circle cx="192.223603" cy="226.681206" r="3" style="fill: red;"/>
  <circle cx="183.932956" cy="234.084343" r="3" style="fill: red;"/>
  <circle cx="339.202251" cy="154.073535" r="3" style="fill: blue;"/>
  <circle cx="338.416923" cy="173.206117" r="3" style="fill: blue;"/>
  <circle cx="373.581818" cy="184.324509" r="3" style="fill: blue;"/>
  <circle cx="350.899337" cy="182.907877" r="3" style="fill: blue;"/>
  <circle cx="327.58154" cy="176.322233" r="3" style="fill: blue;"/>
  <circle cx="350.261608" cy="176.542076" r="3" style="fill: blue;"/>
  <circle cx="339.157973" cy="159.232054" r="3" style="fill: blue;"/>
  <circle cx="371.332869" cy="171.515606" r="3" style="fill: blue;"/>
  <circle cx="340.272489" cy="177.936269" r="3" style="fill: blue;"/>
  <circle cx="356.680816" cy="144.414487" r="3" style="fill: blue;"/>
  <circle cx="331.664258" cy="167.981659" r="3" style="fill: blue;"/>
  <circle cx="345.727438" cy="189.366255" r="3" style="fill: blue;"/>
  <circle cx="324.133962" cy="188.984938" r="3" style="fill: blue;"/>
  <circle cx="367.118758" cy="165.627839" r="3" style="fill: blue;"/>
  <circle cx="356.386597" cy="171.354839" r="3" style="fill: blue;"/>
  <circle cx="328.898899" cy="205.926691" r="3" style="fill: blue;"/>
  <circle cx="318.161858" cy="204.244687" r="3" style="fill: blue;"/>
  <circle cx="351.344665" cy="164.457128" r="3" style="fill: blue;"/>
  <circle cx="367.961919" cy="170.075305" r="3" style="fill: blue;"/>
  <circle cx="364.867563" cy="177.812892" r="3" style="fill: blue;"/>
  <circle cx="69.218182" cy="44.64" r="3" style="fill: green;"/>
 </g>
</svg>