<?xml version="1.0" encoding="UTF-8" standalone="no"?>
<svg xmlns="http://www.w3.org/2000/svg" width="432pt" height="288pt" viewBox="0 0 432 288" version="1.1">
  <g>
    <circle cx="75.249581" cy="53.498292" r="3" style="fill: #ff0000;"/>
    <circle cx="78.608254" cy="51.997618" r="3" style="fill: #ff0000;"/>
    <circle cx="86.198407" cy="70.690337" r="3" style="fill: #ff0000;"/>
    <circle cx="79.575518" cy="54.786186" r="3" style="fill: #ff0000;"/>
    <circle cx="69.218182" cy="51.344511" r="3" style="fill: #ff0000;"/>
    <circle cx="73.068986" cy="46.880743" r="3" style="fill: #ff0000;"/>
    <circle cx="74.418771" cy="52.987631" r="3" style="fill: #ff0000;"/>
    <circle cx="86.492822" cy="54.037202" r="3" style="fill: #ff0000;"/>
    <circle cx="93.201154" cy="46.03104" r="3" style="fill: #ff0000;"/>
    <circle cx="86.077709" cy="57.217827" r="3" style="fill: #ff0000;"/>
    <circle cx="78.265274" cy="44.64" r="3" style="fill: #ff0000;"/>
    <circle cx="99.653073" cy="61.573792" r="3" style="fill: #ff0000;"/>
    <circle cx="81.774101" cy="64.125961" r="3" style="fill: #ff0000;"/>
    <circle cx="93.413947" cy="55.476923" r="3" style="fill: #ff0000;"/>
    <circle cx="75.69664" cy="53.85678" r="3" style="fill: #ff0000;"/>
    <circle cx="81.275359" cy="48.303234" r="3" style="fill: #ff0000;"/>
    <circle cx="160.59431" cy="116.599525" r="3" style="fill: #00ff00;"/>
    <circle cx="142.733806" cy="94.014654" r="3" style="fill: #00ff00;"/>
    <circle cx="156.564955" cy="105.972593" r="3" style="fill: #00ff00;"/>
    <circle cx="148.954636" cy="107.304338" r="3" style="fill: #00ff00;"/>
    <circle cx="156.051295" cy="103.439711" r="3" style="fill: #00ff00;"/>
    <circle cx="166.527885" cy="114.809685" r="3" style="fill: #00ff00;"/>
    <circle cx="159.946936" cy="102.762514" r="3" style="fill: #00ff00;"/>
    <circle cx="156.284258" cy="108.98522" r="3" style="fill: #00ff00;"/>
    <circle cx="149.21533" cy="94.01593" r="3" style="fill: #00ff00;"/>
    <circle cx="144.94038" cy="110.042765" r="3" style="fill: #00ff00;"/>
    <circle cx="168.22126" cy="110.434398" r="3" style="fill: #00ff00;"/>
    <circle cx="154.319273" cy="117.73044" r="3" style="fill: #00ff00;"/>
    <circle cx="156.753345" cy="115.724232" r="3" style="fill: #00ff00;"/>
    <circle cx="149.92181" cy="114.676843" r="3" style="fill: #00ff00;"/>
    <circle cx="162.937915" cy="123.367101" r="3" style="fill: #00ff00;"/>
    <circle cx="154.991703" cy="115.146933" r="3" style="fill: #00ff00;"/>
    <circle cx="241.141412" cy="160.763843" r="3" style="fill: #0000ff;"/>
    <circle cx="244.820109" cy="166.856381" r="3" style="fill: #0000ff;"/>
    <circle cx="245.549581" cy="175.996332" r="3" style="fill: #0000ff;"/>
    <circle cx="249.163091" cy="169.026723" r="3" style="fill: #0000ff;"/>
    <circle cx="240.445799" cy="164.77663" r="3" style="fill: #0000ff;"/>
    <circle cx="237.942263" cy="158.268587" r="3" style="fill: #0000ff;"/>
    <circle cx="250.617267" cy="183.235087" r="3" style="fill: #0000ff;"/>
    <circle cx="242.608932" cy="177.329899" r="3" style="fill: #0000ff;"/>
    <circle cx="239.737999" cy="156.485676" r="3" style="fill: #0000ff;"/>
    <circle cx="222.581663" cy="155.361614" r="3" style="fill: #0000ff;"/>
    <circle cx="246.831511" cy="185.717084" r="3" style="fill: #0000ff;"/>
    <circle cx="238.919899" cy="154.412315" r="3" style="fill: #0000ff;"/>
    <circle cx="243.108012" cy="160.674766" r="3" style="fill: #0000ff;"/>
    <circle cx="232.088936" cy="158.914131" r="3" style="fill: #0000ff;"/>
    <circle cx="242.930921" cy="161.093846" r="3" style="fill: #0000ff;"/>
    <circle cx="231.994111" cy="151.561268" r="3" style="fill: #0000ff;"/>
    <circle cx="218.380435" cy="204.249253" r="3" style="fill: #0000ff;"/>
    <circle cx="269.779109" cy="60.91304" r="3" style="fill: #ff0000;"/>
    <circle cx="373.581818" cy="246.24" r="3" style="fill: #0000ff;"/>
  </g>
</svg>