<?xml version="1.0" encoding="UTF-8" standalone="no"?>
<svg xmlns="http://www.w3.org/2000/svg" width="432pt" height="288pt" viewBox="0 0 432 288" version="1.1">
  <defs>
    <style type="text/css">
      * {
        stroke-linejoin: round;
        stroke-linecap: butt;
      }
    </style>
  </defs>
  <g>
    <!-- Cluster 1 -->
    <circle cx="94.318187" cy="68.758966" r="3" style="fill: #ff0000;"/>
    <circle cx="89.689486" cy="70.302598" r="3" style="fill: #ff0000;"/>
    <circle cx="86.636673" cy="44.64" r="3" style="fill: #ff0000;"/>
    <circle cx="75.938523" cy="80.514268" r="3" style="fill: #ff0000;"/>
    <circle cx="80.298054" cy="56.128783" r="3" style="fill: #ff0000;"/>
    <circle cx="79.749019" cy="69.8144" r="3" style="fill: #ff0000;"/>
    <circle cx="82.694797" cy="51.303035" r="3" style="fill: #ff0000;"/>
    <circle cx="98.810623" cy="50.239422" r="3" style="fill: #ff0000;"/>
    <circle cx="80.742049" cy="100.866032" r="3" style="fill: #ff0000;"/>
    <circle cx="80.470717" cy="77.449822" r="3" style="fill: #ff0000;"/>
    <circle cx="79.459072" cy="90.426771" r="3" style="fill: #ff0000;"/>
    <circle cx="69.218182" cy="60.890534" r="3" style="fill: #ff0000;"/>
    <circle cx="79.45639" cy="72.633513" r="3" style="fill: #ff0000;"/>
    <circle cx="74.364695" cy="57.385914" r="3" style="fill: #ff0000;"/>
    <circle cx="81.294143" cy="66.606893" r="3" style="fill: #ff0000;"/>
    
    <!-- Cluster 2 -->
    <circle cx="144.333669" cy="95.148837" r="3" style="fill: #0000ff;"/>
    <circle cx="146.641084" cy="101.193468" r="3" style="fill: #0000ff;"/>
    <circle cx="134.452967" cy="78.608113" r="3" style="fill: #0000ff;"/>
    <circle cx="138.644922" cy="86.118834" r="3" style="fill: #0000ff;"/>
    <circle cx="130.447744" cy="83.677084" r="3" style="fill: #0000ff;"/>
    <circle cx="146.944077" cy="72.850354" r="3" style="fill: #0000ff;"/>
    <circle cx="146.660311" cy="77.549375" r="3" style="fill: #0000ff;"/>
    <circle cx="133.105902" cy="111.897542" r="3" style="fill: #0000ff;"/>
    <circle cx="134.018396" cy="73.993783" r="3" style="fill: #0000ff;"/>
    <circle cx="133.856053" cy="81.323386" r="3" style="fill: #0000ff;"/>
    <circle cx="133.795372" cy="57.673181" r="3" style="fill: #0000ff;"/>
    <circle cx="140.377575" cy="103.060548" r="3" style="fill: #0000ff;"/>
    <circle cx="143.728921" cy="76.714758" r="3" style="fill: #0000ff;"/>
    <circle cx="136.460044" cy="104.405985" r="3" style="fill: #0000ff;"/>
    <circle cx="136.775811" cy="94.171006" r="3" style="fill: #0000ff;"/>
    
    <!-- Cluster 3 -->
    <circle cx="208.059395" cy="97.309489" r="3" style="fill: #00ff00;"/>
    <circle cx="202.749135" cy="87.182231" r="3" style="fill: #00ff00;"/>
    <circle cx="207.592992" cy="104.39227" r="3" style="fill: #00ff00;"/>
    <circle cx="220.247734" cy="114.810948" r="3" style="fill: #00ff00;"/>
    <circle cx="218.951133" cy="96.001481" r="3" style="fill: #00ff00;"/>
    <circle cx="204.612304" cy="85.051745" r="3" style="fill: #00ff00;"/>
    <circle cx="216.939926" cy="116.335958" r="3" style="fill: #00ff00;"/>
    <circle cx="188.325785" cy="77.281338" r="3" style="fill: #00ff00;"/>
    <circle cx="208.323148" cy="85.359504" r="3" style="fill: #00ff00;"/>
    <circle cx="208.427773" cy="121.182961" r="3" style="fill: #00ff00;"/>
    <circle cx="203.612887" cy="106.218805" r="3" style="fill: #00ff00;"/>
    <circle cx="194.384147" cy="97.92814" r="3" style="fill: #00ff00;"/>
    <circle cx="200.133804" cy="88.133989" r="3" style="fill: #00ff00;"/>
    <circle cx="204.500621" cy="112.510002" r="3" style="fill: #00ff00;"/>
    <circle cx="206.81137" cy="108.935187" r="3" style="fill: #00ff00;"/>
    
    <!-- Outliers -->
    <circle cx="287.068927" cy="68.28597" r="3" style="fill: #ff00ff;"/>
    <circle cx="229.207192" cy="160.350541" r="3" style="fill: #ff00ff;"/>
    <circle cx="373.581818" cy="246.24" r="3" style="fill: #ff00ff;"/>
  </g>
</svg>