<?xml version="1.0" encoding="utf-8"?>
<svg xmlns:xlink="http://www.w3.org/1999/xlink" width="432pt" height="288pt" viewBox="0 0 432 288" xmlns="http://www.w3.org/2000/svg" version="1.1">
 <defs>
  <style type="text/css">*{stroke-linejoin: round; stroke-linecap: butt}</style>
 </defs>
 <g>
  <circle cx="85.493449" cy="222.017755" r="3" style="fill: #ff0000;"/>
  <circle cx="119.475153" cy="237.700119" r="3" style="fill: #ff0000;"/>
  <circle cx="135.393902" cy="187.400402" r="3" style="fill: #ff0000;"/>
  <circle cx="116.264127" cy="191.582626" r="3" style="fill: #ff0000;"/>
  <circle cx="95.508001" cy="214.729004" r="3" style="fill: #ff0000;"/>
  <circle cx="103.690752" cy="187.977643" r="3" style="fill: #ff0000;"/>
  <circle cx="77.886998" cy="239.43734" r="3" style="fill: #ff0000;"/>
  <circle cx="94.0843" cy="214.575365" r="3" style="fill: #ff0000;"/>
  <circle cx="117.801521" cy="209.242876" r="3" style="fill: #ff0000;"/>
  <circle cx="87.265621" cy="213.21233" r="3" style="fill: #ff0000;"/>
  <circle cx="138.320353" cy="192.989265" r="3" style="fill: #ff0000;"/>
  <circle cx="107.915135" cy="204.871109" r="3" style="fill: #ff0000;"/>
  <circle cx="87.789439" cy="216.107288" r="3" style="fill: #ff0000;"/>
  <circle cx="81.86528" cy="200.360713" r="3" style="fill: #ff0000;"/>
  <circle cx="128.823068" cy="198.748302" r="3" style="fill: #ff0000;"/>
  <circle cx="112.680347" cy="186.004889" r="3" style="fill: #ff0000;"/>
  <circle cx="117.615022" cy="200.614019" r="3" style="fill: #ff0000;"/>
  <circle cx="101.879953" cy="214.563313" r="3" style="fill: #ff0000;"/>
  <circle cx="112.505983" cy="215.300129" r="3" style="fill: #ff0000;"/>
  <circle cx="69.218182" cy="246.24" r="3" style="fill: #ff0000;"/>
  <circle cx="106.206604" cy="222.228927" r="3" style="fill: #ff0000;"/>
  <circle cx="263.415316" cy="157.922694" r="3" style="fill: #0000ff;"/>
  <circle cx="252.731697" cy="163.477795" r="3" style="fill: #0000ff;"/>
  <circle cx="268.685161" cy="146.784619" r="3" style="fill: #0000ff;"/>
  <circle cx="280.711359" cy="160.065567" r="3" style="fill: #0000ff;"/>
  <circle cx="273.41815" cy="148.569156" r="3" style="fill: #0000ff;"/>
  <circle cx="284.404087" cy="186.945092" r="3" style="fill: #0000ff;"/>
  <circle cx="267.037166" cy="160.562779" r="3" style="fill: #0000ff;"/>
  <circle cx="282.344328" cy="132.486391" r="3" style="fill: #0000ff;"/>
  <circle cx="280.151293" cy="147.849282" r="3" style="fill: #0000ff;"/>
  <circle cx="280.527372" cy="175.079738" r="3" style="fill: #0000ff;"/>
  <circle cx="248.206897" cy="163.944568" r="3" style="fill: #0000ff;"/>
  <circle cx="282.573313" cy="169.817159" r="3" style="fill: #0000ff;"/>
  <circle cx="262.904906" cy="168.00415" r="3" style="fill: #0000ff;"/>
  <circle cx="292.12182" cy="160.901848" r="3" style="fill: #0000ff;"/>
  <circle cx="244.596656" cy="177.150175" r="3" style="fill: #0000ff;"/>
  <circle cx="276.148589" cy="148.916681" r="3" style="fill: #0000ff;"/>
  <circle cx="285.587119" cy="168.204992" r="3" style="fill: #0000ff;"/>
  <circle cx="306.042867" cy="128.940347" r="3" style="fill: #0000ff;"/>
  <circle cx="335.661883" cy="134.642145" r="3" style="fill: #0000ff;"/>
  <circle cx="243.111813" cy="180.597783" r="3" style="fill: #0000ff;"/>
  <circle cx="258.61204" cy="169.66556" r="3" style="fill: #0000ff;"/>
  <circle cx="373.581818" cy="167.857387" r="3" style="fill: #0000ff;"/>
  <circle cx="301.80376" cy="213.8468" r="3" style="fill: #0000ff;"/>
  <circle cx="332.550579" cy="44.64" r="3" style="fill: #0000ff;"/>
 </g>
</svg>