<?xml version="1.0" encoding="utf-8"?>
<svg xmlns:xlink="http://www.w3.org/1999/xlink" width="432pt" height="288pt" viewBox="0 0 432 288" xmlns="http://www.w3.org/2000/svg" version="1.1">
 <defs>
  <style type="text/css">*{stroke-linejoin: round; stroke-linecap: butt}</style>
 </defs>
 <g>
  <g>
    <defs>
     <path id="circle" d="M 0 3 
C 0.795609 3 1.55874 2.683901 2.12132 2.12132 
C 2.683901 1.55874 3 0.795609 3 0 
C 3 -0.795609 2.683901 -1.55874 2.12132 -2.12132 
C 1.55874 -2.683901 0.795609 -3 0 -3 
C -0.795609 -3 -1.55874 -2.683901 -2.12132 -2.12132 
C -2.683901 -1.55874 -3 -0.795609 -3 0 
C -3 0.795609 -2.683901 1.55874 -2.12132 2.12132 
C -1.55874 2.683901 -0.795609 3 0 3 
z"/>
    </defs>
    <g>
     <!-- Cluster 1 -->
     <use xlink:href="#circle" x="82.002185" y="232.783596" style="fill: #ff0000;"/>
     <use xlink:href="#circle" x="95.686306" y="229.593674" style="fill: #ff0000;"/>
     <use xlink:href="#circle" x="108.951684" y="225.847594" style="fill: #ff0000;"/>
     <use xlink:href="#circle" x="76.600029" y="235.696164" style="fill: #ff0000;"/>
     <use xlink:href="#circle" x="74.644436" y="246.24" style="fill: #ff0000;"/>
     <use xlink:href="#circle" x="71.044599" y="241.536828" style="fill: #ff0000;"/>
     <use xlink:href="#circle" x="96.012181" y="230.557604" style="fill: #ff0000;"/>
     <use xlink:href="#circle" x="100.760654" y="227.568054" style="fill: #ff0000;"/>
     <use xlink:href="#circle" x="90.433011" y="238.468303" style="fill: #ff0000;"/>
     <use xlink:href="#circle" x="93.895428" y="229.24376" style="fill: #ff0000;"/>
     <use xlink:href="#circle" x="97.552595" y="234.458634" style="fill: #ff0000;"/>
     <use xlink:href="#circle" x="82.063971" y="228.518937" style="fill: #ff0000;"/>
     <use xlink:href="#circle" x="83.235976" y="232.157189" style="fill: #ff0000;"/>
     <use xlink:href="#circle" x="69.218182" y="240.341229" style="fill: #ff0000;"/>
     <!-- Cluster 2 -->
     <use xlink:href="#circle" x="227.580286" y="194.741212" style="fill: #00ff00;"/>
     <use xlink:href="#circle" x="219.0778" y="196.194392" style="fill: #00ff00;"/>
     <use xlink:href="#circle" x="196.931531" y="203.475986" style="fill: #00ff00;"/>
     <use xlink:href="#circle" x="204.323177" y="197.265776" style="fill: #00ff00;"/>
     <use xlink:href="#circle" x="214.973672" y="192.565826" style="fill: #00ff00;"/>
     <use xlink:href="#circle" x="219.638675" y="193.74008" style="fill: #00ff00;"/>
     <use xlink:href="#circle" x="181.883873" y="196.17676" style="fill: #00ff00;"/>
     <use xlink:href="#circle" x="192.114191" y="203.615217" style="fill: #00ff00;"/>
     <use xlink:href="#circle" x="211.158553" y="188.898359" style="fill: #00ff00;"/>
     <use xlink:href="#circle" x="197.230958" y="189.637269" style="fill: #00ff00;"/>
     <use xlink:href="#circle" x="206.513987" y="194.995911" style="fill: #00ff00;"/>
     <use xlink:href="#circle" x="197.076899" y="194.265587" style="fill: #00ff00;"/>
     <use xlink:href="#circle" x="223.902738" y="193.207235" style="fill: #00ff00;"/>
     <use xlink:href="#circle" x="180.829389" y="200.836314" style="fill: #00ff00;"/>
     <!-- Cluster 3 -->
     <use xlink:href="#circle" x="315.080359" y="163.959645" style="fill: #0000ff;"/>
     <use xlink:href="#circle" x="345.812915" y="159.235297" style="fill: #0000ff;"/>
     <use xlink:href="#circle" x="304.251917" y="159.409897" style="fill: #0000ff;"/>
     <use xlink:href="#circle" x="325.901479" y="158.158486" style="fill: #0000ff;"/>
     <use xlink:href="#circle" x="309.784698" y="167.317686" style="fill: #0000ff;"/>
     <use xlink:href="#circle" x="309.567229" y="168.307184" style="fill: #0000ff;"/>
     <use xlink:href="#circle" x="330.499296" y="158.334204" style="fill: #0000ff;"/>
     <use xlink:href="#circle" x="330.334142" y="157.071205" style="fill: #0000ff;"/>
     <use xlink:href="#circle" x="310.618191" y="172.854787" style="fill: #0000ff;"/>
     <use xlink:href="#circle" x="348.552435" y="153.911932" style="fill: #0000ff;"/>
     <use xlink:href="#circle" x="304.452442" y="165.526881" style="fill: #0000ff;"/>
     <use xlink:href="#circle" x="316.325516" y="161.456554" style="fill: #0000ff;"/>
     <use xlink:href="#circle" x="312.252028" y="161.24763" style="fill: #0000ff;"/>
     <use xlink:href="#circle" x="302.852482" y="161.036585" style="fill: #0000ff;"/>
     <!-- Outlier -->
     <use xlink:href="#circle" x="373.581818" y="44.64" style="fill: #ff00ff;"/>
    </g>
  </g>
 </g>
</svg>