<svg width="432pt" height="288pt" viewBox="0 0 432 288" xmlns="http://www.w3.org/2000/svg" version="1.1">
 <defs>
  <path id="circle" d="M 0 3 C 0.795609 3 1.55874 2.683901 2.12132 2.12132 C 2.683901 1.55874 3 0.795609 3 0 C 3 -0.795609 2.683901 -1.55874 2.12132 -2.12132 C 1.55874 -2.683901 0.795609 -3 0 -3 C -0.795609 -3 -1.55874 -2.683901 -2.12132 -2.12132 C -2.683901 -1.55874 -3 -0.795609 -3 0 C -3 0.795609 -2.683901 1.55874 -2.12132 2.12132 C -1.55874 2.683901 -0.795609 3 0 3 z"/>
 </defs>
 <!-- Cluster 1 -->
 <use xlink:href="#circle" x="85.494422" y="230.759249" style="fill: #ff0000;"/>
 <use xlink:href="#circle" x="88.613685" y="229.49661" style="fill: #ff0000;"/>
 <use xlink:href="#circle" x="69.218182" y="246.24" style="fill: #ff0000;"/>
 <use xlink:href="#circle" x="78.548124" y="240.787423" style="fill: #ff0000;"/>
 <use xlink:href="#circle" x="80.013956" y="236.742323" style="fill: #ff0000;"/>
 <use xlink:href="#circle" x="105.836343" y="214.863783" style="fill: #ff0000;"/>
 <use xlink:href="#circle" x="81.661552" y="234.112824" style="fill: #ff0000;"/>
 <use xlink:href="#circle" x="71.174732" y="244.801236" style="fill: #ff0000;"/>
 <use xlink:href="#circle" x="94.281427" y="221.810803" style="fill: #ff0000;"/>
 <use xlink:href="#circle" x="85.34426" y="231.998827" style="fill: #ff0000;"/>
 <use xlink:href="#circle" x="78.902231" y="238.954286" style="fill: #ff0000;"/>
 <!-- Cluster 2 -->
 <use xlink:href="#circle" x="177.528268" y="147.770462" style="fill: #00ff00;"/>
 <use xlink:href="#circle" x="187.227973" y="143.237974" style="fill: #00ff00;"/>
 <use xlink:href="#circle" x="161.443563" y="165.524149" style="fill: #00ff00;"/>
 <use xlink:href="#circle" x="180.994399" y="147.389714" style="fill: #00ff00;"/>
 <use xlink:href="#circle" x="180.537388" y="149.090678" style="fill: #00ff00;"/>
 <use xlink:href="#circle" x="175.415825" y="151.650615" style="fill: #00ff00;"/>
 <use xlink:href="#circle" x="170.517661" y="159.022489" style="fill: #00ff00;"/>
 <use xlink:href="#circle" x="186.127478" y="142.352686" style="fill: #00ff00;"/>
 <use xlink:href="#circle" x="169.699424" y="157.384031" style="fill: #00ff00;"/>
 <use xlink:href="#circle" x="180.263657" y="146.424133" style="fill: #00ff00;"/>
 <use xlink:href="#circle" x="177.509913" y="150.593851" style="fill: #00ff00;"/>
 <!-- Cluster 3 -->
 <use xlink:href="#circle" x="288.494057" y="53.555924" style="fill: #0000ff;"/>
 <use xlink:href="#circle" x="272.41587" y="66.826988" style="fill: #0000ff;"/>
 <use xlink:href="#circle" x="278.672512" y="61.540845" style="fill: #0000ff;"/>
 <use xlink:href="#circle" x="293.610214" y="49.161378" style="fill: #0000ff;"/>
 <use xlink:href="#circle" x="274.884878" y="64.891982" style="fill: #0000ff;"/>
 <use xlink:href="#circle" x="282.622678" y="56.453344" style="fill: #0000ff;"/>
 <use xlink:href="#circle" x="298.99699" y="44.64" style="fill: #0000ff;"/>
 <use xlink:href="#circle" x="282.609004" y="58.139703" style="fill: #0000ff;"/>
 <use xlink:href="#circle" x="287.168278" y="51.348652" style="fill: #0000ff;"/>
 <use xlink:href="#circle" x="289.295805" y="50.326677" style="fill: #0000ff;"/>
 <use xlink:href="#circle" x="272.52437" y="66.954052" style="fill: #0000ff;"/>
 <!-- Outlier -->
 <use xlink:href="#circle" x="373.581818" y="106.260426" style="fill: #ff00ff;"/>
</svg>