<?xml version="1.0" encoding="utf-8"?>
<svg width="432pt" height="288pt" viewBox="0 0 432 288" xmlns="http://www.w3.org/2000/svg" version="1.1">
  <g>
    <circle cx="114.813178" cy="152.868706" r="3" fill="#ff0000"/>
    <circle cx="122.89556" cy="143.454952" r="3" fill="#ff0000"/>
    <circle cx="143.558119" cy="165.301388" r="3" fill="#ff0000"/>
    <circle cx="105.426671" cy="207.649168" r="3" fill="#ff0000"/>
    <circle cx="106.97195" cy="161.41598" r="3" fill="#ff0000"/>
    <circle cx="82.697696" cy="168.089914" r="3" fill="#ff0000"/>
    <circle cx="73.300425" cy="176.057362" r="3" fill="#ff0000"/>
    <circle cx="99.68397" cy="141.891171" r="3" fill="#ff0000"/>
    <circle cx="69.218182" cy="164.11984" r="3" fill="#ff0000"/>
    <circle cx="91.690163" cy="182.841337" r="3" fill="#ff0000"/>
    <circle cx="83.270717" cy="196.607644" r="3" fill="#ff0000"/>
    <circle cx="92.594131" cy="171.293846" r="3" fill="#ff0000"/>
    <circle cx="99.555688" cy="176.103394" r="3" fill="#ff0000"/>
    <circle cx="92.081045" cy="166.680765" r="3" fill="#ff0000"/>
    <circle cx="80.835341" cy="168.092808" r="3" fill="#ff0000"/>
    <circle cx="76.00056" cy="192.597345" r="3" fill="#ff0000"/>
    <circle cx="87.148721" cy="177.104646" r="3" fill="#ff0000"/>
    <circle cx="99.360103" cy="175.985418" r="3" fill="#ff0000"/>
    <circle cx="129.205404" cy="165.309313" r="3" fill="#ff0000"/>
    <circle cx="86.364319" cy="167.565064" r="3" fill="#ff0000"/>
    <circle cx="300.046102" cy="120.533013" r="3" fill="#00ff00"/>
    <circle cx="280.846943" cy="157.698674" r="3" fill="#00ff00"/>
    <circle cx="283.583717" cy="137.32162" r="3" fill="#00ff00"/>
    <circle cx="264.418203" cy="160.145643" r="3" fill="#00ff00"/>
    <circle cx="312.482221" cy="158.194255" r="3" fill="#00ff00"/>
    <circle cx="264.389499" cy="158.901368" r="3" fill="#00ff00"/>
    <circle cx="331.235263" cy="157.766786" r="3" fill="#00ff00"/>
    <circle cx="304.650219" cy="140.929357" r="3" fill="#00ff00"/>
    <circle cx="278.371237" cy="158.461617" r="3" fill="#00ff00"/>
    <circle cx="264.27752" cy="151.732388" r="3" fill="#00ff00"/>
    <circle cx="281.26482" cy="155.722617" r="3" fill="#00ff00"/>
    <circle cx="291.900457" cy="134.238369" r="3" fill="#00ff00"/>
    <circle cx="290.932348" cy="145.150906" r="3" fill="#00ff00"/>
    <circle cx="239.878467" cy="136.896948" r="3" fill="#00ff00"/>
    <circle cx="271.544729" cy="148.533212" r="3" fill="#00ff00"/>
    <circle cx="272.977602" cy="144.442309" r="3" fill="#00ff00"/>
    <circle cx="298.791141" cy="132.620692" r="3" fill="#00ff00"/>
    <circle cx="288.680028" cy="141.384302" r="3" fill="#00ff00"/>
    <circle cx="300.389982" cy="123.457921" r="3" fill="#00ff00"/>
    <circle cx="237.899905" cy="151.474424" r="3" fill="#00ff00"/>
    <circle cx="314.207098" cy="110.159197" r="3" fill="#00ff00"/>
    <circle cx="323.906481" cy="246.24" r="3" fill="#0000ff"/>
    <circle cx="373.581818" cy="44.64" r="3" fill="#0000ff"/>
  </g>
</svg>