<?xml version="1.0" encoding="UTF-8" standalone="no"?>
<svg xmlns="http://www.w3.org/2000/svg" width="432pt" height="288pt" viewBox="0 0 432 288" version="1.1">
  <g>
    <circle cx="76.887172" cy="228.284398" r="3" style="fill: #ff0000;"/>
    <circle cx="77.635804" cy="228.287862" r="3" style="fill: #ff0000;"/>
    <circle cx="88.063126" cy="231.360049" r="3" style="fill: #ff0000;"/>
    <circle cx="81.049216" cy="215.040574" r="3" style="fill: #ff0000;"/>
    <circle cx="76.028856" cy="224.2241" r="3" style="fill: #ff0000;"/>
    <circle cx="84.443576" cy="226.93287" r="3" style="fill: #ff0000;"/>
    <circle cx="87.517751" cy="225.174647" r="3" style="fill: #ff0000;"/>
    <circle cx="71.599133" cy="242.165471" r="3" style="fill: #ff0000;"/>
    <circle cx="81.792831" cy="229.079475" r="3" style="fill: #ff0000;"/>
    <circle cx="69.218182" cy="246.24" r="3" style="fill: #ff0000;"/>
    <circle cx="138.117039" cy="169.782583" r="3" style="fill: #0000ff;"/>
    <circle cx="127.908487" cy="189.641924" r="3" style="fill: #0000ff;"/>
    <circle cx="149.22849" cy="160.352135" r="3" style="fill: #0000ff;"/>
    <circle cx="149.682419" cy="164.574736" r="3" style="fill: #0000ff;"/>
    <circle cx="131.689854" cy="180.03593" r="3" style="fill: #0000ff;"/>
    <circle cx="146.260363" cy="161.333221" r="3" style="fill: #0000ff;"/>
    <circle cx="141.033727" cy="174.747829" r="3" style="fill: #0000ff;"/>
    <circle cx="134.23047" cy="188.856665" r="3" style="fill: #0000ff;"/>
    <circle cx="149.661183" cy="161.679743" r="3" style="fill: #0000ff;"/>
    <circle cx="143.602183" cy="157.271237" r="3" style="fill: #0000ff;"/>
    <circle cx="198.792951" cy="116.210995" r="3" style="fill: #00ff00;"/>
    <circle cx="223.402199" cy="88.346637" r="3" style="fill: #00ff00;"/>
    <circle cx="208.957926" cy="105.060529" r="3" style="fill: #00ff00;"/>
    <circle cx="209.184477" cy="101.015729" r="3" style="fill: #00ff00;"/>
    <circle cx="215.658234" cy="91.537045" r="3" style="fill: #00ff00;"/>
    <circle cx="210.154039" cy="94.576675" r="3" style="fill: #00ff00;"/>
    <circle cx="203.734129" cy="109.458667" r="3" style="fill: #00ff00;"/>
    <circle cx="204.912629" cy="98.723514" r="3" style="fill: #00ff00;"/>
    <circle cx="219.892052" cy="88.139543" r="3" style="fill: #00ff00;"/>
    <circle cx="203.462621" cy="110.334359" r="3" style="fill: #00ff00;"/>
    <circle cx="258.444705" cy="54.645534" r="3" style="fill: #ff00ff;"/>
    <circle cx="256.367591" cy="64.313558" r="3" style="fill: #ff00ff;"/>
    <circle cx="256.385952" cy="44.64" r="3" style="fill: #ff00ff;"/>
    <circle cx="260.331598" cy="48.371039" r="3" style="fill: #ff00ff;"/>
    <circle cx="256.203598" cy="64.868083" r="3" style="fill: #ff00ff;"/>
    <circle cx="255.913741" cy="59.186663" r="3" style="fill: #ff00ff;"/>
    <circle cx="266.237066" cy="54.461568" r="3" style="fill: #ff00ff;"/>
    <circle cx="256.683969" cy="60.34391" r="3" style="fill: #ff00ff;"/>
    <circle cx="256.112732" cy="58.922657" r="3" style="fill: #ff00ff;"/>
    <circle cx="243.727037" cy="64.556951" r="3" style="fill: #ff00ff;"/>
    <circle cx="373.581818" cy="101.520407" r="3" style="fill: #ffff00;"/>
    <circle cx="262.204637" cy="208.486197" r="3" style="fill: #ffff00;"/>
    <circle cx="114.876343" cy="110.042347" r="3" style="fill: #ffff00;"/>
  </g>
</svg>