<?xml version="1.0" encoding="UTF-8" standalone="no"?>
<svg xmlns="http://www.w3.org/2000/svg" width="432pt" height="288pt" viewBox="0 0 432 288" version="1.1">
  <defs>
    <style type="text/css">
      * {
        stroke-linejoin: round;
        stroke-linecap: butt;
      }
    </style>
  </defs>
  <g>
    <!-- Cluster 1 -->
    <circle cx="84.773502" cy="230.469752" r="3" style="fill: #ff0000;"/>
    <circle cx="86.466974" cy="225.421245" r="3" style="fill: #ff0000;"/>
    <circle cx="94.362211" cy="215.743449" r="3" style="fill: #ff0000;"/>
    <circle cx="102.213705" cy="203.524966" r="3" style="fill: #ff0000;"/>
    <circle cx="109.629255" cy="206.685077" r="3" style="fill: #ff0000;"/>
    <circle cx="105.515884" cy="221.865472" r="3" style="fill: #ff0000;"/>
    <circle cx="95.834548" cy="226.459245" r="3" style="fill: #ff0000;"/>
    <circle cx="103.664674" cy="215.995711" r="3" style="fill: #ff0000;"/>
    <circle cx="99.941355" cy="214.089751" r="3" style="fill: #ff0000;"/>
    <circle cx="69.218182" cy="246.24" r="3" style="fill: #ff0000;"/>
    <circle cx="82.927817" cy="234.941759" r="3" style="fill: #ff0000;"/>
    <circle cx="89.304878" cy="231.032545" r="3" style="fill: #ff0000;"/>
    <circle cx="88.175705" cy="238.541032" r="3" style="fill: #ff0000;"/>
    <circle cx="114.853865" cy="207.591298" r="3" style="fill: #ff0000;"/>
    <circle cx="103.377297" cy="222.705262" r="3" style="fill: #ff0000;"/>
    <circle cx="100.614395" cy="236.281863" r="3" style="fill: #ff0000;"/>
    <circle cx="89.692431" cy="220.503304" r="3" style="fill: #ff0000;"/>
    <circle cx="88.892237" cy="235.783619" r="3" style="fill: #ff0000;"/>
    <circle cx="92.341586" cy="231.787525" r="3" style="fill: #ff0000;"/>
    <circle cx="93.597738" cy="239.024195" r="3" style="fill: #ff0000;"/>
    <circle cx="87.10275" cy="227.783845" r="3" style="fill: #ff0000;"/>
    <circle cx="90.600455" cy="222.274348" r="3" style="fill: #ff0000;"/>
    <circle cx="95.905111" cy="229.254267" r="3" style="fill: #ff0000;"/>
    <circle cx="101.568804" cy="218.411439" r="3" style="fill: #ff0000;"/>
    
    <!-- Cluster 2 -->
    <circle cx="173.449889" cy="160.866974" r="3" style="fill: #0000ff;"/>
    <circle cx="168.509782" cy="166.000688" r="3" style="fill: #0000ff;"/>
    <circle cx="158.96514" cy="160.569528" r="3" style="fill: #0000ff;"/>
    <circle cx="143.646959" cy="183.794877" r="3" style="fill: #0000ff;"/>
    <circle cx="155.075505" cy="190.147285" r="3" style="fill: #0000ff;"/>
    <circle cx="170.523828" cy="170.906173" r="3" style="fill: #0000ff;"/>
    <circle cx="150.220484" cy="177.970751" r="3" style="fill: #0000ff;"/>
    <circle cx="168.100316" cy="164.668311" r="3" style="fill: #0000ff;"/>
    <circle cx="158.570638" cy="181.404431" r="3" style="fill: #0000ff;"/>
    <circle cx="159.770247" cy="173.34945" r="3" style="fill: #0000ff;"/>
    <circle cx="165.60221" cy="168.373702" r="3" style="fill: #0000ff;"/>
    <circle cx="162.715286" cy="171.122841" r="3" style="fill: #0000ff;"/>
    <circle cx="161.871781" cy="156.687817" r="3" style="fill: #0000ff;"/>
    <circle cx="155.057302" cy="165.09727" r="3" style="fill: #0000ff;"/>
    <circle cx="163.080917" cy="187.721547" r="3" style="fill: #0000ff;"/>
    <circle cx="157.087083" cy="185.017099" r="3" style="fill: #0000ff;"/>
    <circle cx="161.698998" cy="204.792249" r="3" style="fill: #0000ff;"/>
    <circle cx="161.129914" cy="171.850815" r="3" style="fill: #0000ff;"/>
    <circle cx="151.22603" cy="179.849364" r="3" style="fill: #0000ff;"/>
    <circle cx="148.635814" cy="173.568181" r="3" style="fill: #0000ff;"/>
    <circle cx="169.710218" cy="171.378399" r="3" style="fill: #0000ff;"/>
    <circle cx="170.76381" cy="166.681019" r="3" style="fill: #0000ff;"/>
    <circle cx="167.405867" cy="163.157607" r="3" style="fill: #0000ff;"/>
    <circle cx="161.349609" cy="157.650604" r="3" style="fill: #0000ff;"/>
    <circle cx="125.216511" cy="195.465558" r="3" style="fill: #0000ff;"/>
    
    <!-- Cluster 3 -->
    <circle cx="233.661944" cy="202.519709" r="3" style="fill: #00ff00;"/>
    <circle cx="373.581818" cy="44.64" r="3" style="fill: #00ff00;"/>
  </g>
</svg>