<svg xmlns:xlink="http://www.w3.org/1999/xlink" width="432pt" height="288pt" viewBox="0 0 432 288" xmlns="http://www.w3.org/2000/svg" version="1.1">
 <defs>
  <path id="shape" d="M 0 3 
C 0.795609 3 1.55874 2.683901 2.12132 2.12132 
C 2.683901 1.55874 3 0.795609 3 0 
C 3 -0.795609 2.683901 -1.55874 2.12132 -2.12132 
C 1.55874 -2.683901 0.795609 -3 0 -3 
C -0.795609 -3 -1.55874 -2.683901 -2.12132 -2.12132 
C -2.683901 -1.55874 -3 -0.795609 -3 0 
C -3 0.795609 -2.683901 1.55874 -2.12132 2.12132 
C -1.55874 2.683901 -0.795609 3 0 3 
z"/>
 </defs>
 <g>
  <use xlink:href="#shape" x="83.486387" y="53.121999" style="fill: #ff0000;"/>
  <use xlink:href="#shape" x="95.693692" y="62.554045" style="fill: #ff0000;"/>
  <use xlink:href="#shape" x="104.763858" y="67.148525" style="fill: #ff0000;"/>
  <use xlink:href="#shape" x="69.218182" y="44.64" style="fill: #ff0000;"/>
  <use xlink:href="#shape" x="88.053241" y="55.345008" style="fill: #ff0000;"/>
  <use xlink:href="#shape" x="101.643496" y="64.344232" style="fill: #ff0000;"/>
  <use xlink:href="#shape" x="111.955804" y="70.850077" style="fill: #ff0000;"/>
  <use xlink:href="#shape" x="105.023554" y="68.195365" style="fill: #ff0000;"/>
  <use xlink:href="#shape" x="121.944794" y="80.664557" style="fill: #ff0000;"/>
  <use xlink:href="#shape" x="110.448003" y="70.77724" style="fill: #ff0000;"/>
  <use xlink:href="#shape" x="79.921705" y="52.051533" style="fill: #ff0000;"/>
  <use xlink:href="#shape" x="94.920209" y="59.723911" style="fill: #ff0000;"/>
  <use xlink:href="#shape" x="118.126311" y="75.836567" style="fill: #ff0000;"/>
  <use xlink:href="#shape" x="113.256845" y="71.081926" style="fill: #ff0000;"/>
  <use xlink:href="#shape" x="120.632763" y="78.45278" style="fill: #ff0000;"/>
  <use xlink:href="#shape" x="77.005114" y="48.657905" style="fill: #ff0000;"/>
  <use xlink:href="#shape" x="84.849539" y="52.650282" style="fill: #ff0000;"/>
  <use xlink:href="#shape" x="80.618271" y="50.490575" style="fill: #ff0000;"/>
  <use xlink:href="#shape" x="366.818255" y="240.77917" style="fill: #0000ff;"/>
  <use xlink:href="#shape" x="364.465247" y="237.213226" style="fill: #0000ff;"/>
  <use xlink:href="#shape" x="351.302933" y="231.082895" style="fill: #0000ff;"/>
  <use xlink:href="#shape" x="361.486733" y="237.083013" style="fill: #0000ff;"/>
  <use xlink:href="#shape" x="346.304421" y="226.820221" style="fill: #0000ff;"/>
  <use xlink:href="#shape" x="355.791335" y="232.011802" style="fill: #0000ff;"/>
  <use xlink:href="#shape" x="361.802533" y="236.63039" style="fill: #0000ff;"/>
  <use xlink:href="#shape" x="354.214995" y="230.634614" style="fill: #0000ff;"/>
  <use xlink:href="#shape" x="352.663104" y="231.067098" style="fill: #0000ff;"/>
  <use xlink:href="#shape" x="357.426874" y="235.113455" style="fill: #0000ff;"/>
  <use xlink:href="#shape" x="366.756298" y="239.701103" style="fill: #0000ff;"/>
  <use xlink:href="#shape" x="339.984723" y="223.830042" style="fill: #0000ff;"/>
  <use xlink:href="#shape" x="333.082068" y="220.762075" style="fill: #0000ff;"/>
  <use xlink:href="#shape" x="373.581818" y="246.24" style="fill: #0000ff;"/>
  <use xlink:href="#shape" x="344.551499" y="223.860937" style="fill: #0000ff;"/>
  <use xlink:href="#shape" x="372.978428" y="245.371163" style="fill: #0000ff;"/>
  <use xlink:href="#shape" x="363.637071" y="236.523089" style="fill: #0000ff;"/>
  <use xlink:href="#shape" x="332.40694" y="217.623229" style="fill: #0000ff;"/>
  <use xlink:href="#shape" x="344.605528" y="197.826591" style="fill: #0000ff;"/>
 </g>
</svg>