<svg xmlns:xlink="http://www.w3.org/1999/xlink" width="432pt" height="288pt" viewBox="0 0 432 288" xmlns="http://www.w3.org/2000/svg" version="1.1">
 <defs>
  <path id="mdf1e219b01" d="M 0 3 
C 0.795609 3 1.55874 2.683901 2.12132 2.12132 
C 2.683901 1.55874 3 0.795609 3 0 
C 3 -0.795609 2.683901 -1.55874 2.12132 -2.12132 
C 1.55874 -2.683901 0.795609 -3 0 -3 
C -0.795609 -3 -1.55874 -2.683901 -2.12132 -2.12132 
C -2.683901 -1.55874 -3 -0.795609 -3 0 
C -3 0.795609 -2.683901 1.55874 -2.12132 2.12132 
C -1.55874 2.683901 -0.795609 3 0 3 
z"/>
 </defs>
 <g>
  <use xlink:href="#mdf1e219b01" x="172.558948" y="59.265281" style="fill: red;"/>
  <use xlink:href="#mdf1e219b01" x="187.349565" y="66.511451" style="fill: red;"/>
  <use xlink:href="#mdf1e219b01" x="205.056415" y="79.893777" style="fill: red;"/>
  <use xlink:href="#mdf1e219b01" x="164.400174" y="45.383765" style="fill: red;"/>
  <use xlink:href="#mdf1e219b01" x="191.608557" y="71.475948" style="fill: red;"/>
  <use xlink:href="#mdf1e219b01" x="187.399036" y="64.521352" style="fill: red;"/>
  <use xlink:href="#mdf1e219b01" x="183.247042" y="64.022426" style="fill: red;"/>
  <use xlink:href="#mdf1e219b01" x="182.099085" y="61.028852" style="fill: red;"/>
  <use xlink:href="#mdf1e219b01" x="168.948337" y="47.39799" style="fill: red;"/>
  <use xlink:href="#mdf1e219b01" x="174.412875" y="54.741357" style="fill: red;"/>
  <use xlink:href="#mdf1e219b01" x="192.076419" y="76.895621" style="fill: red;"/>
  <use xlink:href="#mdf1e219b01" x="205.657312" y="84.426112" style="fill: red;"/>
  <use xlink:href="#mdf1e219b01" x="184.733394" y="63.823556" style="fill: red;"/>
  <use xlink:href="#mdf1e219b01" x="169.302488" y="53.751094" style="fill: red;"/>
  <use xlink:href="#mdf1e219b01" x="179.478055" y="61.327071" style="fill: red;"/>
  <use xlink:href="#mdf1e219b01" x="178.564368" y="61.002117" style="fill: red;"/>
  <use xlink:href="#mdf1e219b01" x="172.760979" y="47.451643" style="fill: red;"/>
  <use xlink:href="#mdf1e219b01" x="197.268101" y="77.449281" style="fill: red;"/>
  <use xlink:href="#mdf1e219b01" x="171.062503" y="55.703359" style="fill: red;"/>
  <use xlink:href="#mdf1e219b01" x="168.495658" y="44.64" style="fill: red;"/>
  <use xlink:href="#mdf1e219b01" x="192.743786" y="74.407136" style="fill: red;"/>
  <use xlink:href="#mdf1e219b01" x="173.749362" y="52.112792" style="fill: red;"/>
  <use xlink:href="#mdf1e219b01" x="366.895802" y="243.666997" style="fill: blue;"/>
  <use xlink:href="#mdf1e219b01" x="307.311702" y="182.85707" style="fill: blue;"/>
  <use xlink:href="#mdf1e219b01" x="348.078701" y="224.143221" style="fill: blue;"/>
  <use xlink:href="#mdf1e219b01" x="346.967157" y="225.686925" style="fill: blue;"/>
  <use xlink:href="#mdf1e219b01" x="341.195721" y="219.660349" style="fill: blue;"/>
  <use xlink:href="#mdf1e219b01" x="373.581818" y="246.24" style="fill: blue;"/>
  <use xlink:href="#mdf1e219b01" x="356.727848" y="227.080772" style="fill: blue;"/>
  <use xlink:href="#mdf1e219b01" x="353.154402" y="227.556556" style="fill: blue;"/>
  <use xlink:href="#mdf1e219b01" x="349.34116" y="229.697725" style="fill: blue;"/>
  <use xlink:href="#mdf1e219b01" x="354.004293" y="225.940463" style="fill: blue;"/>
  <use xlink:href="#mdf1e219b01" x="352.757726" y="229.985039" style="fill: blue;"/>
  <use xlink:href="#mdf1e219b01" x="340.292818" y="217.422423" style="fill: blue;"/>
  <use xlink:href="#mdf1e219b01" x="345.894648" y="215.773843" style="fill: blue;"/>
  <use xlink:href="#mdf1e219b01" x="361.372069" y="232.471978" style="fill: blue;"/>
  <use xlink:href="#mdf1e219b01" x="372.643492" y="243.978182" style="fill: blue;"/>
  <use xlink:href="#mdf1e219b01" x="355.429057" y="230.523046" style="fill: blue;"/>
  <use xlink:href="#mdf1e219b01" x="332.819735" y="212.740942" style="fill: blue;"/>
  <use xlink:href="#mdf1e219b01" x="367.217663" y="243.002363" style="fill: blue;"/>
  <use xlink:href="#mdf1e219b01" x="341.057219" y="216.337938" style="fill: blue;"/>
  <use xlink:href="#mdf1e219b01" x="330.740253" y="212.965355" style="fill: blue;"/>
  <use xlink:href="#mdf1e219b01" x="316.658268" y="194.794523" style="fill: blue;"/>
  <use xlink:href="#mdf1e219b01" x="332.475857" y="209.90622" style="fill: blue;"/>
  <use xlink:href="#mdf1e219b01" x="69.218182" y="93.551017" style="fill: green;"/>
 </g>
</svg>