<svg width="432pt" height="288pt" viewBox="0 0 432 288" xmlns="http://www.w3.org/2000/svg" version="1.1">
 <g>
  <!-- Cluster 1 -->
  <circle cx="108.017629" cy="220.523953" r="3" style="fill: #ff0000;"/>
  <circle cx="101.228189" cy="223.80212" r="3" style="fill: #ff0000;"/>
  <circle cx="99.24186" cy="215.741165" r="3" style="fill: #ff0000;"/>
  <circle cx="131.418299" cy="196.340727" r="3" style="fill: #ff0000;"/>
  <circle cx="69.218182" cy="223.157668" r="3" style="fill: #ff0000;"/>
  <circle cx="93.893402" cy="221.461338" r="3" style="fill: #ff0000;"/>
  <circle cx="84.033212" cy="225.363963" r="3" style="fill: #ff0000;"/>
  <circle cx="94.548385" cy="233.219346" r="3" style="fill: #ff0000;"/>
  <circle cx="88.422256" cy="246.24" r="3" style="fill: #ff0000;"/>
  <circle cx="114.45306" cy="202.373941" r="3" style="fill: #ff0000;"/>
  <circle cx="83.443256" cy="224.853762" r="3" style="fill: #ff0000;"/>
  <circle cx="119.783048" cy="196.244801" r="3" style="fill: #ff0000;"/>
  <circle cx="86.794564" cy="214.23003" r="3" style="fill: #ff0000;"/>
  <circle cx="85.021366" cy="229.251362" r="3" style="fill: #ff0000;"/>
  <circle cx="106.857408" cy="200.795976" r="3" style="fill: #ff0000;"/>
  <circle cx="82.28318" cy="231.433642" r="3" style="fill: #ff0000;"/>
  <circle cx="94.598062" cy="221.082937" r="3" style="fill: #ff0000;"/>
  <circle cx="97.353139" cy="220.118068" r="3" style="fill: #ff0000;"/>
  <circle cx="118.231864" cy="198.886451" r="3" style="fill: #ff0000;"/>
  <circle cx="101.428865" cy="235.0793" r="3" style="fill: #ff0000;"/>
  <circle cx="95.331548" cy="228.211348" r="3" style="fill: #ff0000;"/>
  <circle cx="98.762066" cy="223.789424" r="3" style="fill: #ff0000;"/>
  
  <!-- Cluster 2 -->
  <circle cx="340.664787" cy="58.738639" r="3" style="fill: #0000ff;"/>
  <circle cx="364.274177" cy="44.64" r="3" style="fill: #0000ff;"/>
  <circle cx="339.682847" cy="77.404629" r="3" style="fill: #0000ff;"/>
  <circle cx="337.273358" cy="93.267705" r="3" style="fill: #0000ff;"/>
  <circle cx="343.110484" cy="77.154948" r="3" style="fill: #0000ff;"/>
  <circle cx="336.525646" cy="83.581212" r="3" style="fill: #0000ff;"/>
  <circle cx="373.581818" cy="56.040423" r="3" style="fill: #0000ff;"/>
  <circle cx="349.765506" cy="73.430889" r="3" style="fill: #0000ff;"/>
  <circle cx="357.87782" cy="56.335408" r="3" style="fill: #0000ff;"/>
  <circle cx="338.562081" cy="90.702732" r="3" style="fill: #0000ff;"/>
  <circle cx="348.859258" cy="101.592083" r="3" style="fill: #0000ff;"/>
  <circle cx="332.923448" cy="91.362499" r="3" style="fill: #0000ff;"/>
  <circle cx="357.342088" cy="48.483938" r="3" style="fill: #0000ff;"/>
  <circle cx="309.568364" cy="83.341584" r="3" style="fill: #0000ff;"/>
  <circle cx="322.016464" cy="90.226784" r="3" style="fill: #0000ff;"/>
  <circle cx="332.630653" cy="70.062367" r="3" style="fill: #0000ff;"/>
  <circle cx="310.744369" cy="90.953311" r="3" style="fill: #0000ff;"/>
  <circle cx="326.01389" cy="80.863042" r="3" style="fill: #0000ff;"/>
  <circle cx="302.224273" cy="103.175998" r="3" style="fill: #0000ff;"/>
  <circle cx="346.761402" cy="70.073015" r="3" style="fill: #0000ff;"/>
  <circle cx="337.105552" cy="78.863434" r="3" style="fill: #0000ff;"/>
  <circle cx="372.8547" cy="50.021199" r="3" style="fill: #0000ff;"/>
  
  <!-- Cluster 3 -->
  <circle cx="81.067247" cy="133.824795" r="3" style="fill: #00ff00;"/>
 </g>
</svg>