<?xml version="1.0" encoding="UTF-8" standalone="no"?>
<svg xmlns="http://www.w3.org/2000/svg" width="432pt" height="288pt" viewBox="0 0 432 288" version="1.1">
  <g>
    <circle cx="74.396586" cy="65.875232" r="3" style="fill: #ff0000;"/>
    <circle cx="82.303555" cy="55.616322" r="3" style="fill: #ff0000;"/>
    <circle cx="86.371828" cy="81.351926" r="3" style="fill: #ff0000;"/>
    <circle cx="69.218182" cy="54.296293" r="3" style="fill: #ff0000;"/>
    <circle cx="88.75224" cy="53.592067" r="3" style="fill: #ff0000;"/>
    <circle cx="100.082248" cy="62.23271" r="3" style="fill: #ff0000;"/>
    <circle cx="104.806162" cy="69.141886" r="3" style="fill: #ff0000;"/>
    <circle cx="96.955028" cy="56.626221" r="3" style="fill: #ff0000;"/>
    <circle cx="94.089963" cy="70.506833" r="3" style="fill: #ff0000;"/>
    <circle cx="81.831484" cy="47.904537" r="3" style="fill: #ff0000;"/>
    <circle cx="84.498323" cy="44.64" r="3" style="fill: #ff0000;"/>
    <circle cx="82.099536" cy="65.012143" r="3" style="fill: #ff0000;"/>
    <circle cx="95.313472" cy="60.646587" r="3" style="fill: #ff0000;"/>
    <circle cx="82.450561" cy="49.332604" r="3" style="fill: #ff0000;"/>
    <circle cx="152.374331" cy="80.388153" r="3" style="fill: #0000ff;"/>
    <circle cx="149.435767" cy="68.991053" r="3" style="fill: #0000ff;"/>
    <circle cx="156.922672" cy="97.346423" r="3" style="fill: #0000ff;"/>
    <circle cx="156.382513" cy="82.605051" r="3" style="fill: #0000ff;"/>
    <circle cx="146.597436" cy="105.070661" r="3" style="fill: #0000ff;"/>
    <circle cx="148.260076" cy="86.485991" r="3" style="fill: #0000ff;"/>
    <circle cx="162.844404" cy="90.78539" r="3" style="fill: #0000ff;"/>
    <circle cx="153.463824" cy="72.827428" r="3" style="fill: #0000ff;"/>
    <circle cx="156.790103" cy="88.696538" r="3" style="fill: #0000ff;"/>
    <circle cx="164.879656" cy="112.965784" r="3" style="fill: #0000ff;"/>
    <circle cx="151.667735" cy="96.977517" r="3" style="fill: #0000ff;"/>
    <circle cx="147.346306" cy="75.096258" r="3" style="fill: #0000ff;"/>
    <circle cx="159.106786" cy="50.259692" r="3" style="fill: #0000ff;"/>
    <circle cx="143.592325" cy="73.296238" r="3" style="fill: #0000ff;"/>
    <circle cx="214.876759" cy="113.986829" r="3" style="fill: #00ff00;"/>
    <circle cx="215.927607" cy="101.062492" r="3" style="fill: #00ff00;"/>
    <circle cx="226.692944" cy="88.819487" r="3" style="fill: #00ff00;"/>
    <circle cx="225.287512" cy="103.786701" r="3" style="fill: #00ff00;"/>
    <circle cx="211.589836" cy="93.066241" r="3" style="fill: #00ff00;"/>
    <circle cx="217.12047" cy="79.437261" r="3" style="fill: #00ff00;"/>
    <circle cx="232.201422" cy="104.766657" r="3" style="fill: #00ff00;"/>
    <circle cx="201.409521" cy="99.851419" r="3" style="fill: #00ff00;"/>
    <circle cx="226.029672" cy="84.934939" r="3" style="fill: #00ff00;"/>
    <circle cx="222.20133" cy="104.787323" r="3" style="fill: #00ff00;"/>
    <circle cx="221.281136" cy="125.785556" r="3" style="fill: #00ff00;"/>
    <circle cx="232.272437" cy="95.420503" r="3" style="fill: #00ff00;"/>
    <circle cx="208.206942" cy="87.968114" r="3" style="fill: #00ff00;"/>
    <circle cx="207.366521" cy="99.714123" r="3" style="fill: #00ff00;"/>
    <circle cx="242.180787" cy="64.565791" r="3" style="fill: #00ff00;"/>
    <circle cx="255.672607" cy="201.099443" r="3" style="fill: #ff00ff;"/>
    <circle cx="373.581818" cy="246.24" r="3" style="fill: #ff00ff;"/>
  </g>
</svg>