<svg xmlns:xlink="http://www.w3.org/1999/xlink" width="432pt" height="288pt" viewBox="0 0 432 288" xmlns="http://www.w3.org/2000/svg" version="1.1">
 <defs>
  <path id="m782773eade" d="M 0 3 
C 0.795609 3 1.55874 2.683901 2.12132 2.12132 
C 2.683901 1.55874 3 0.795609 3 0 
C 3 -0.795609 2.683901 -1.55874 2.12132 -2.12132 
C 1.55874 -2.683901 0.795609 -3 0 -3 
C -0.795609 -3 -1.55874 -2.683901 -2.12132 -2.12132 
C -2.683901 -1.55874 -3 -0.795609 -3 0 
C -3 0.795609 -2.683901 1.55874 -2.12132 2.12132 
C -1.55874 2.683901 -0.795609 3 0 3 
z"/>
 </defs>
 <g>
  <!-- Cluster 1 -->
  <use xlink:href="#m782773eade" x="82.959989" y="236.884839" style="fill: #ff0000;"/>
  <use xlink:href="#m782773eade" x="82.963801" y="237.635549" style="fill: #ff0000;"/>
  <use xlink:href="#m782773eade" x="71.477686" y="244.686961" style="fill: #ff0000;"/>
  <use xlink:href="#m782773eade" x="79.568468" y="240.386498" style="fill: #ff0000;"/>
  <use xlink:href="#m782773eade" x="80.930956" y="239.647485" style="fill: #ff0000;"/>
  <use xlink:href="#m782773eade" x="95.376635" y="230.377731" style="fill: #ff0000;"/>
  <use xlink:href="#m782773eade" x="69.218182" y="246.24" style="fill: #ff0000;"/>
  <use xlink:href="#m782773eade" x="84.129475" y="236.393071" style="fill: #ff0000;"/>
  <use xlink:href="#m782773eade" x="81.540406" y="238.426067" style="fill: #ff0000;"/>
  <use xlink:href="#m782773eade" x="88.109279" y="234.317563" style="fill: #ff0000;"/>
  <use xlink:href="#m782773eade" x="74.34884" y="242.519874" style="fill: #ff0000;"/>

  <!-- Cluster 2 -->
  <use xlink:href="#m782773eade" x="211.345966" y="154.031851" style="fill: #00ff00;"/>
  <use xlink:href="#m782773eade" x="189.8222" y="166.811481" style="fill: #00ff00;"/>
  <use xlink:href="#m782773eade" x="199.793972" y="160.874437" style="fill: #00ff00;"/>
  <use xlink:href="#m782773eade" x="218.966909" y="147.88237" style="fill: #00ff00;"/>
  <use xlink:href="#m782773eade" x="192.205804" y="165.712733" style="fill: #00ff00;"/>
  <use xlink:href="#m782773eade" x="221.804138" y="146.237149" style="fill: #00ff00;"/>
  <use xlink:href="#m782773eade" x="204.917489" y="157.984224" style="fill: #00ff00;"/>
  <use xlink:href="#m782773eade" x="214.575697" y="150.696898" style="fill: #00ff00;"/>
  <use xlink:href="#m782773eade" x="214.627438" y="149.838043" style="fill: #00ff00;"/>
  <use xlink:href="#m782773eade" x="188.434437" y="167.482184" style="fill: #00ff00;"/>
  <use xlink:href="#m782773eade" x="203.75997" y="158.50415" style="fill: #00ff00;"/>

  <!-- Cluster 3 -->
  <use xlink:href="#m782773eade" x="351.630698" y="59.717438" style="fill: #0000ff;"/>
  <use xlink:href="#m782773eade" x="373.581818" y="44.64" style="fill: #0000ff;"/>
  <use xlink:href="#m782773eade" x="362.765685" y="51.728614" style="fill: #0000ff;"/>
  <use xlink:href="#m782773eade" x="367.188044" y="47.588874" style="fill: #0000ff;"/>
  <use xlink:href="#m782773eade" x="357.24501" y="57.566784" style="fill: #0000ff;"/>
  <use xlink:href="#m782773eade" x="362.558889" y="51.837791" style="fill: #0000ff;"/>
  <use xlink:href="#m782773eade" x="358.88212" y="55.064189" style="fill: #0000ff;"/>
  <use xlink:href="#m782773eade" x="354.930826" y="56.816662" style="fill: #0000ff;"/>
  <use xlink:href="#m782773eade" x="355.852084" y="56.692727" style="fill: #0000ff;"/>
  <use xlink:href="#m782773eade" x="352.166395" y="58.767555" style="fill: #0000ff;"/>
  <use xlink:href="#m782773eade" x="361.007806" y="51.869318" style="fill: #0000ff;"/>
 </g>
</svg>