<?xml version="1.0" encoding="UTF-8" standalone="no"?>
<svg xmlns="http://www.w3.org/2000/svg" width="432pt" height="288pt" viewBox="0 0 432 288" version="1.1">
  <g>
    <circle cx="69.218182" cy="226.926479" r="3" style="fill: #ff0000;"/>
    <circle cx="83.479053" cy="220.624351" r="3" style="fill: #ff0000;"/>
    <circle cx="88.775121" cy="190.983571" r="3" style="fill: #ff0000;"/>
    <circle cx="81.619185" cy="222.344885" r="3" style="fill: #ff0000;"/>
    <circle cx="90.425189" cy="220.535152" r="3" style="fill: #ff0000;"/>
    <circle cx="84.473498" cy="207.501343" r="3" style="fill: #ff0000;"/>
    <circle cx="78.221754" cy="246.24" r="3" style="fill: #ff0000;"/>
    <circle cx="82.61134" cy="223.347861" r="3" style="fill: #ff0000;"/>
    <circle cx="73.633923" cy="205.561048" r="3" style="fill: #ff0000;"/>
    <circle cx="86.809244" cy="199.229711" r="3" style="fill: #ff0000;"/>
    <circle cx="88.524024" cy="221.617248" r="3" style="fill: #ff0000;"/>
    <circle cx="97.469099" cy="186.406004" r="3" style="fill: #ff0000;"/>
    <circle cx="86.305267" cy="206.42029" r="3" style="fill: #ff0000;"/>
    <circle cx="94.118047" cy="184.957555" r="3" style="fill: #ff0000;"/>
    <circle cx="82.839239" cy="214.030064" r="3" style="fill: #ff0000;"/>
    <circle cx="164.810809" cy="158.71663" r="3" style="fill: #00ff00;"/>
    <circle cx="167.060589" cy="134.09522" r="3" style="fill: #00ff00;"/>
    <circle cx="150.359998" cy="190.131949" r="3" style="fill: #00ff00;"/>
    <circle cx="158.230188" cy="158.864972" r="3" style="fill: #00ff00;"/>
    <circle cx="150.883621" cy="162.329423" r="3" style="fill: #00ff00;"/>
    <circle cx="143.798558" cy="189.627192" r="3" style="fill: #00ff00;"/>
    <circle cx="159.667147" cy="196.583715" r="3" style="fill: #00ff00;"/>
    <circle cx="156.585958" cy="154.682379" r="3" style="fill: #00ff00;"/>
    <circle cx="166.655489" cy="162.13831" r="3" style="fill: #00ff00;"/>
    <circle cx="152.49784" cy="144.286071" r="3" style="fill: #00ff00;"/>
    <circle cx="151.764713" cy="166.536661" r="3" style="fill: #00ff00;"/>
    <circle cx="159.413682" cy="113.93354" r="3" style="fill: #00ff00;"/>
    <circle cx="143.238297" cy="159.452322" r="3" style="fill: #00ff00;"/>
    <circle cx="155.023926" cy="147.12713" r="3" style="fill: #00ff00;"/>
    <circle cx="160.437838" cy="166.154009" r="3" style="fill: #00ff00;"/>
    <circle cx="227.927154" cy="70.119815" r="3" style="fill: #0000ff;"/>
    <circle cx="227.535221" cy="84.985971" r="3" style="fill: #0000ff;"/>
    <circle cx="208.560806" cy="106.386335" r="3" style="fill: #0000ff;"/>
    <circle cx="214.211877" cy="111.016727" r="3" style="fill: #0000ff;"/>
    <circle cx="217.205737" cy="86.389955" r="3" style="fill: #0000ff;"/>
    <circle cx="202.621356" cy="87.715458" r="3" style="fill: #0000ff;"/>
    <circle cx="219.747866" cy="93.636974" r="3" style="fill: #0000ff;"/>
    <circle cx="224.57465" cy="79.985186" r="3" style="fill: #0000ff;"/>
    <circle cx="211.947085" cy="131.340018" r="3" style="fill: #0000ff;"/>
    <circle cx="222.320778" cy="73.567984" r="3" style="fill: #0000ff;"/>
    <circle cx="210.802553" cy="99.214912" r="3" style="fill: #0000ff;"/>
    <circle cx="217.482885" cy="99.943062" r="3" style="fill: #0000ff;"/>
    <circle cx="212.163408" cy="106.210642" r="3" style="fill: #0000ff;"/>
    <circle cx="218.760841" cy="116.403739" r="3" style="fill: #0000ff;"/>
    <circle cx="236.06633" cy="98.446973" r="3" style="fill: #0000ff;"/>
    <circle cx="293.219563" cy="201.662718" r="3" style="fill: #ff00ff;"/>
    <circle cx="373.581818" cy="44.64" r="3" style="fill: #ff00ff;"/>
    <circle cx="330.516288" cy="184.621116" r="3" style="fill: #ff00ff;"/>
  </g>
</svg>