<?xml version="1.0" encoding="utf-8"?>
<svg xmlns:xlink="http://www.w3.org/1999/xlink" width="432pt" height="288pt" viewBox="0 0 432 288" xmlns="http://www.w3.org/2000/svg" version="1.1">
 <g>
  <!-- Cluster 1: Blue Points -->
  <circle cx="69.218182" cy="246.24" r="3" style="fill: #1f77b4;"/>
  <circle cx="98.956062" cy="225.600723" r="3" style="fill: #1f77b4;"/>
  <circle cx="118.005719" cy="205.212096" r="3" style="fill: #1f77b4;"/>
  <circle cx="111.165904" cy="205.551237" r="3" style="fill: #1f77b4;"/>
  <circle cx="121.902525" cy="199.350679" r="3" style="fill: #1f77b4;"/>
  <circle cx="104.104523" cy="231.481317" r="3" style="fill: #1f77b4;"/>
  <circle cx="100.678903" cy="223.817216" r="3" style="fill: #1f77b4;"/>
  <circle cx="127.442743" cy="200.453771" r="3" style="fill: #1f77b4;"/>
  <circle cx="117.823852" cy="211.984628" r="3" style="fill: #1f77b4;"/>
  <circle cx="97.071618" cy="220.647414" r="3" style="fill: #1f77b4;"/>
  <circle cx="99.860122" cy="216.208322" r="3" style="fill: #1f77b4;"/>
  
  <!-- Cluster 2: Red Points -->
  <circle cx="186.372772" cy="172.796173" r="3" style="fill: #d62728;"/>
  <circle cx="183.858541" cy="179.771107" r="3" style="fill: #d62728;"/>
  <circle cx="185.548686" cy="167.954574" r="3" style="fill: #d62728;"/>
  <circle cx="180.935666" cy="163.613782" r="3" style="fill: #d62728;"/>
  <circle cx="198.81558" cy="165.424972" r="3" style="fill: #d62728;"/>
  <circle cx="207.644797" cy="158.955448" r="3" style="fill: #d62728;"/>
  <circle cx="195.761453" cy="160.623143" r="3" style="fill: #d62728;"/>
  <circle cx="191.766804" cy="165.470748" r="3" style="fill: #d62728;"/>
  <circle cx="192.525949" cy="172.405817" r="3" style="fill: #d62728;"/>
  <circle cx="195.888692" cy="165.901849" r="3" style="fill: #d62728;"/>
  <circle cx="198.820204" cy="154.350282" r="3" style="fill: #d62728;"/>
  
  <!-- Cluster 3: Green Points -->
  <circle cx="281.256552" cy="114.583775" r="3" style="fill: #2ca02c;"/>
  <circle cx="266.279492" cy="116.1278" r="3" style="fill: #2ca02c;"/>
  <circle cx="286.311706" cy="101.938891" r="3" style="fill: #2ca02c;"/>
  <circle cx="279.592008" cy="115.32317" r="3" style="fill: #2ca02c;"/>
  <circle cx="311.56398" cy="93.669944" r="3" style="fill: #2ca02c;"/>
  <circle cx="270.223296" cy="116.619855" r="3" style="fill: #2ca02c;"/>
  <circle cx="291.589772" cy="97.902662" r="3" style="fill: #2ca02c;"/>
  <circle cx="268.429155" cy="116.020524" r="3" style="fill: #2ca02c;"/>
  <circle cx="269.990349" cy="118.19474" r="3" style="fill: #2ca02c;"/>
  <circle cx="277.196884" cy="106.102581" r="3" style="fill: #2ca02c;"/>
  <circle cx="286.543232" cy="104.275907" r="3" style="fill: #2ca02c;"/>
  
  <!-- Cluster 4: Orange Points -->
  <circle cx="356.249547" cy="58.557124" r="3" style="fill: #ff7f0e;"/>
  <circle cx="366.766614" cy="52.636117" r="3" style="fill: #ff7f0e;"/>
  <circle cx="371.668033" cy="52.885714" r="3" style="fill: #ff7f0e;"/>
  <circle cx="373.581818" cy="53.897395" r="3" style="fill: #ff7f0e;"/>
  <circle cx="364.92158" cy="57.988978" r="3" style="fill: #ff7f0e;"/>
  <circle cx="358.148709" cy="73.755768" r="3" style="fill: #ff7f0e;"/>
  <circle cx="371.497708" cy="51.480981" r="3" style="fill: #ff7f0e;"/>
  <circle cx="365.893855" cy="52.093191" r="3" style="fill: #ff7f0e;"/>
  <circle cx="362.189136" cy="58.888794" r="3" style="fill: #ff7f0e;"/>
  <circle cx="366.544294" cy="59.049619" r="3" style="fill: #ff7f0e;"/>
  <circle cx="359.103619" cy="53.940147" r="3" style="fill: #ff7f0e;"/>
  
  <!-- Outliers -->
  <circle cx="285.926573" cy="223.836984" r="3" style="fill: #9467bd;"/>
  <circle cx="90.660829" cy="44.64" r="3" style="fill: #9467bd;"/>
  <circle cx="327.024653" cy="87.443333" r="3" style="fill: #9467bd;"/>
 </g>
</svg>