<?xml version="1.0" encoding="utf-8"?>
<svg xmlns:xlink="http://www.w3.org/1999/xlink" width="432pt" height="288pt" viewBox="0 0 432 288" xmlns="http://www.w3.org/2000/svg" version="1.1">
 <defs>
  <style type="text/css">*{stroke-linejoin: round; stroke-linecap: butt}</style>
  <path id="circle" d="M 0 3 C 0.795609 3 1.55874 2.683901 2.12132 2.12132 C 2.683901 1.55874 3 0.795609 3 0 C 3 -0.795609 2.683901 -1.55874 2.12132 -2.12132 C 1.55874 -2.683901 0.795609 -3 0 -3 C -0.795609 -3 -1.55874 -2.683901 -2.12132 -2.12132 C -2.683901 -1.55874 -3 -0.795609 -3 0 C -3 0.795609 -2.683901 1.55874 -2.12132 2.12132 C -1.55874 2.683901 -0.795609 3 0 3 z"/>
 </defs>
 <g>
  <!-- Cluster 1: Blue -->
  <use xlink:href="#circle" x="92.220157" y="212.48843" style="fill: blue;"/>
  <use xlink:href="#circle" x="114.316034" y="190.744722" style="fill: blue;"/>
  <use xlink:href="#circle" x="83.625789" y="241.200178" style="fill: blue;"/>
  <use xlink:href="#circle" x="88.490672" y="172.974964" style="fill: blue;"/>
  <use xlink:href="#circle" x="112.516419" y="167.956063" style="fill: blue;"/>
  <use xlink:href="#circle" x="83.722046" y="212.8977" style="fill: blue;"/>
  <use xlink:href="#circle" x="101.86742" y="214.180423" style="fill: blue;"/>
  <use xlink:href="#circle" x="101.431437" y="232.093922" style="fill: blue;"/>
  <use xlink:href="#circle" x="81.726048" y="197.340169" style="fill: blue;"/>
  <use xlink:href="#circle" x="99.601121" y="227.232892" style="fill: blue;"/>
  <use xlink:href="#circle" x="89.915267" y="214.87992" style="fill: blue;"/>
  <use xlink:href="#circle" x="100.735322" y="189.939862" style="fill: blue;"/>
  <use xlink:href="#circle" x="86.327019" y="235.215199" style="fill: blue;"/>
  <use xlink:href="#circle" x="69.218182" y="188.682053" style="fill: blue;"/>
  <use xlink:href="#circle" x="98.093225" y="156.210478" style="fill: blue;"/>
  <use xlink:href="#circle" x="104.144839" y="180.934447" style="fill: blue;"/>
  <use xlink:href="#circle" x="109.773721" y="186.652779" style="fill: blue;"/>
  <use xlink:href="#circle" x="80.707014" y="196.419654" style="fill: blue;"/>
  <use xlink:href="#circle" x="118.411469" y="246.24" style="fill: blue;"/>
  <use xlink:href="#circle" x="75.416097" y="225.624209" style="fill: blue;"/>
  <use xlink:href="#circle" x="73.509534" y="157.53647" style="fill: blue;"/>
  <use xlink:href="#circle" x="101.25123" y="209.529347" style="fill: blue;"/>
  <use xlink:href="#circle" x="93.86485" y="217.087402" style="fill: blue;"/>
  <use xlink:href="#circle" x="101.776878" y="175.271898" style="fill: blue;"/>
  <use xlink:href="#circle" x="91.277695" y="174.092424" style="fill: blue;"/>

  <!-- Cluster 2: Red -->
  <use xlink:href="#circle" x="240.697047" y="144.699884" style="fill: red;"/>
  <use xlink:href="#circle" x="226.114188" y="116.074668" style="fill: red;"/>
  <use xlink:href="#circle" x="250.26594" y="127.439959" style="fill: red;"/>
  <use xlink:href="#circle" x="229.132762" y="132.04368" style="fill: red;"/>
  <use xlink:href="#circle" x="216.438506" y="114.335442" style="fill: red;"/>
  <use xlink:href="#circle" x="267.108169" y="55.629417" style="fill: red;"/>
  <use xlink:href="#circle" x="259.282493" y="68.422984" style="fill: red;"/>
  <use xlink:href="#circle" x="226.050388" y="134.165456" style="fill: red;"/>
  <use xlink:href="#circle" x="221.804713" y="121.438426" style="fill: red;"/>
  <use xlink:href="#circle" x="213.133504" y="120.266282" style="fill: red;"/>
  <use xlink:href="#circle" x="241.722078" y="44.64" style="fill: red;"/>
  <use xlink:href="#circle" x="263.061326" y="48.077723" style="fill: red;"/>
  <use xlink:href="#circle" x="250.713849" y="92.151383" style="fill: red;"/>
  <use xlink:href="#circle" x="231.032142" y="95.974872" style="fill: red;"/>
  <use xlink:href="#circle" x="265.23942" y="91.340914" style="fill: red;"/>
  <use xlink:href="#circle" x="226.383523" y="135.797612" style="fill: red;"/>
  <use xlink:href="#circle" x="248.98199" y="96.11858" style="fill: red;"/>
  <use xlink:href="#circle" x="261.702366" y="116.236383" style="fill: red;"/>
  <use xlink:href="#circle" x="248.54745" y="96.530525" style="fill: red;"/>
  <use xlink:href="#circle" x="249.937017" y="85.299422" style="fill: red;"/>
  <use xlink:href="#circle" x="234.465477" y="170.720052" style="fill: red;"/>
  <use xlink:href="#circle" x="236.617939" y="134.805211" style="fill: red;"/>
  <use xlink:href="#circle" x="222.593896" y="146.579244" style="fill: red;"/>
  <use xlink:href="#circle" x="272.699075" y="123.746051" style="fill: red;"/>
  <use xlink:href="#circle" x="201.208704" y="180.746965" style="fill: red;"/>

  <!-- Cluster 3: Green -->
  <use xlink:href="#circle" x="306.781882" y="169.986971" style="fill: green;"/>
  <use xlink:href="#circle" x="172.079241" y="69.532287" style="fill: green;"/>
  <use xlink:href="#circle" x="373.581818" y="223.621412" style="fill: green;"/>
 </g>
</svg>