<?xml version="1.0" encoding="UTF-8" standalone="no"?>
<svg xmlns="http://www.w3.org/2000/svg" width="432pt" height="288pt" viewBox="0 0 432 288" version="1.1">
  <g>
    <circle cx="80.920917" cy="230.168585" r="3" style="fill: #ff0000;"/>
    <circle cx="73.916411" cy="241.835415" r="3" style="fill: #ff0000;"/>
    <circle cx="69.218182" cy="243.056224" r="3" style="fill: #ff0000;"/>
    <circle cx="86.367993" cy="237.007207" r="3" style="fill: #ff0000;"/>
    <circle cx="77.492183" cy="233.104974" r="3" style="fill: #ff0000;"/>
    <circle cx="72.345147" cy="225.430793" r="3" style="fill: #ff0000;"/>
    <circle cx="84.880014" cy="227.541525" r="3" style="fill: #ff0000;"/>
    <circle cx="86.44017" cy="235.083509" r="3" style="fill: #ff0000;"/>
    <circle cx="89.273221" cy="221.866181" r="3" style="fill: #ff0000;"/>
    <circle cx="76.964439" cy="238.579368" r="3" style="fill: #ff0000;"/>
    <circle cx="75.703414" cy="246.24" r="3" style="fill: #ff0000;"/>
    <circle cx="90.103224" cy="228.513421" r="3" style="fill: #ff0000;"/>
    <circle cx="193.921343" cy="182.551902" r="3" style="fill: #00ff00;"/>
    <circle cx="185.412391" cy="175.426944" r="3" style="fill: #00ff00;"/>
    <circle cx="175.894359" cy="184.83735" r="3" style="fill: #00ff00;"/>
    <circle cx="196.987542" cy="171.214462" r="3" style="fill: #00ff00;"/>
    <circle cx="173.879158" cy="185.159528" r="3" style="fill: #00ff00;"/>
    <circle cx="186.271032" cy="182.760983" r="3" style="fill: #00ff00;"/>
    <circle cx="169.779563" cy="186.962684" r="3" style="fill: #00ff00;"/>
    <circle cx="201.553915" cy="168.630898" r="3" style="fill: #00ff00;"/>
    <circle cx="183.709584" cy="181.002714" r="3" style="fill: #00ff00;"/>
    <circle cx="174.501045" cy="184.892005" r="3" style="fill: #00ff00;"/>
    <circle cx="167.513508" cy="189.553219" r="3" style="fill: #00ff00;"/>
    <circle cx="175.990406" cy="175.882182" r="3" style="fill: #00ff00;"/>
    <circle cx="267.269468" cy="141.916281" r="3" style="fill: #0000ff;"/>
    <circle cx="296.353217" cy="116.566754" r="3" style="fill: #0000ff;"/>
    <circle cx="261.628922" cy="138.773246" r="3" style="fill: #0000ff;"/>
    <circle cx="263.73973" cy="134.986264" r="3" style="fill: #0000ff;"/>
    <circle cx="273.437601" cy="120.082715" r="3" style="fill: #0000ff;"/>
    <circle cx="283.981991" cy="134.390607" r="3" style="fill: #0000ff;"/>
    <circle cx="288.837423" cy="123.506697" r="3" style="fill: #0000ff;"/>
    <circle cx="274.204625" cy="145.152419" r="3" style="fill: #0000ff;"/>
    <circle cx="268.235151" cy="130.028026" r="3" style="fill: #0000ff;"/>
    <circle cx="284.145599" cy="127.038528" r="3" style="fill: #0000ff;"/>
    <circle cx="267.944191" cy="148.325989" r="3" style="fill: #0000ff;"/>
    <circle cx="277.06356" cy="138.731344" r="3" style="fill: #0000ff;"/>
    <circle cx="354.149922" cy="97.056297" r="3" style="fill: #ff00ff;"/>
    <circle cx="361.022178" cy="97.539698" r="3" style="fill: #ff00ff;"/>
    <circle cx="359.716497" cy="86.707354" r="3" style="fill: #ff00ff;"/>
    <circle cx="372.979948" cy="75.756812" r="3" style="fill: #ff00ff;"/>
    <circle cx="348.828096" cy="101.524381" r="3" style="fill: #ff00ff;"/>
    <circle cx="369.115873" cy="88.194293" r="3" style="fill: #ff00ff;"/>
    <circle cx="346.531093" cy="95.825729" r="3" style="fill: #ff00ff;"/>
    <circle cx="334.228085" cy="102.213217" r="3" style="fill: #ff00ff;"/>
    <circle cx="373.581818" cy="85.101311" r="3" style="fill: #ff00ff;"/>
    <circle cx="362.199761" cy="91.801764" r="3" style="fill: #ff00ff;"/>
    <circle cx="341.336698" cy="99.34316" r="3" style="fill: #ff00ff;"/>
    <circle cx="357.056818" cy="89.977201" r="3" style="fill: #ff00ff;"/>
  </g>
</svg>