<?xml version="1.0" encoding="utf-8"?>
<svg xmlns:xlink="http://www.w3.org/1999/xlink" width="432pt" height="288pt" viewBox="0 0 432 288" xmlns="http://www.w3.org/2000/svg" version="1.1">
 <g>
  <circle cx="81.414717" cy="51.288787" r="3" style="fill: #ff0000;"/>
  <circle cx="82.120969" cy="54.337519" r="3" style="fill: #ff0000;"/>
  <circle cx="96.335333" cy="54.460028" r="3" style="fill: #ff0000;"/>
  <circle cx="81.735418" cy="56.357224" r="3" style="fill: #ff0000;"/>
  <circle cx="93.730044" cy="51.999741" r="3" style="fill: #ff0000;"/>
  <circle cx="92.698011" cy="55.26251" r="3" style="fill: #ff0000;"/>
  <circle cx="86.946451" cy="53.196368" r="3" style="fill: #ff0000;"/>
  <circle cx="77.175392" cy="55.296487" r="3" style="fill: #ff0000;"/>
  <circle cx="77.856784" cy="48.574536" r="3" style="fill: #ff0000;"/>
  <circle cx="73.598812" cy="51.976413" r="3" style="fill: #ff0000;"/>
  <circle cx="78.764873" cy="50.010982" r="3" style="fill: #ff0000;"/>
  <circle cx="69.218182" cy="44.64" r="3" style="fill: #ff0000;"/>
  <circle cx="186.129423" cy="85.523752" r="3" style="fill: #0000ff;"/>
  <circle cx="165.200801" cy="80.828721" r="3" style="fill: #0000ff;"/>
  <circle cx="189.328232" cy="95.998299" r="3" style="fill: #0000ff;"/>
  <circle cx="213.015243" cy="95.434277" r="3" style="fill: #0000ff;"/>
  <circle cx="166.270306" cy="83.532456" r="3" style="fill: #0000ff;"/>
  <circle cx="191.537527" cy="91.5665" r="3" style="fill: #0000ff;"/>
  <circle cx="191.85348" cy="89.379799" r="3" style="fill: #0000ff;"/>
  <circle cx="202.536342" cy="99.083573" r="3" style="fill: #0000ff;"/>
  <circle cx="198.072459" cy="89.463108" r="3" style="fill: #0000ff;"/>
  <circle cx="192.15438" cy="91.448254" r="3" style="fill: #0000ff;"/>
  <circle cx="174.541183" cy="83.055376" r="3" style="fill: #0000ff;"/>
  <circle cx="170.171632" cy="85.069523" r="3" style="fill: #0000ff;"/>
  <circle cx="267.516635" cy="110.962191" r="3" style="fill: #00ff00;"/>
  <circle cx="284.819222" cy="116.209291" r="3" style="fill: #00ff00;"/>
  <circle cx="256.131822" cy="112.250728" r="3" style="fill: #00ff00;"/>
  <circle cx="276.229169" cy="117.78934" r="3" style="fill: #00ff00;"/>
  <circle cx="268.670334" cy="118.654155" r="3" style="fill: #00ff00;"/>
  <circle cx="263.243333" cy="114.682753" r="3" style="fill: #00ff00;"/>
  <circle cx="269.370625" cy="115.570543" r="3" style="fill: #00ff00;"/>
  <circle cx="268.379168" cy="112.34701" r="3" style="fill: #00ff00;"/>
  <circle cx="297.711271" cy="125.077815" r="3" style="fill: #00ff00;"/>
  <circle cx="279.178993" cy="119.130504" r="3" style="fill: #00ff00;"/>
  <circle cx="286.171991" cy="123.320149" r="3" style="fill: #00ff00;"/>
  <circle cx="266.01963" cy="113.598113" r="3" style="fill: #00ff00;"/>
  <circle cx="365.009823" cy="147.772578" r="3" style="fill: #ff00ff;"/>
  <circle cx="349.385358" cy="141.206225" r="3" style="fill: #ff00ff;"/>
  <circle cx="355.491858" cy="141.752701" r="3" style="fill: #ff00ff;"/>
  <circle cx="344.944797" cy="142.35034" r="3" style="fill: #ff00ff;"/>
  <circle cx="359.950753" cy="140.103801" r="3" style="fill: #ff00ff;"/>
  <circle cx="363.019829" cy="147.357092" r="3" style="fill: #ff00ff;"/>
  <circle cx="367.144205" cy="143.641765" r="3" style="fill: #ff00ff;"/>
  <circle cx="351.089868" cy="142.02845" r="3" style="fill: #ff00ff;"/>
  <circle cx="353.593277" cy="142.456899" r="3" style="fill: #ff00ff;"/>
  <circle cx="364.945097" cy="143.497804" r="3" style="fill: #ff00ff;"/>
  <circle cx="356.19536" cy="139.229847" r="3" style="fill: #ff00ff;"/>
  <circle cx="373.581818" cy="156.063923" r="3" style="fill: #ff00ff;"/>
  <circle cx="186.430296" cy="167.756185" r="3" style="fill: #ffff00;"/>
  <circle cx="334.256808" cy="231.166641" r="3" style="fill: #ffff00;"/>
  <circle cx="182.139436" cy="246.24" r="3" style="fill: #ffff00;"/>
 </g>
</svg>