<?xml version="1.0" encoding="UTF-8" standalone="no"?>
<svg xmlns="http://www.w3.org/2000/svg" width="432pt" height="288pt" viewBox="0 0 432 288" version="1.1">
    <defs>
        <style type="text/css">
            * {
                stroke-linejoin: round;
                stroke-linecap: butt;
            }
        </style>
    </defs>
    <g>
        <!-- Cluster 1 -->
        <circle cx="74.535076" cy="246.056706" r="3" style="fill: #ff0000;"/>
        <circle cx="75.092114" cy="239.429424" r="3" style="fill: #ff0000;"/>
        <circle cx="76.020379" cy="233.445444" r="3" style="fill: #ff0000;"/>
        <circle cx="73.173865" cy="234.823566" r="3" style="fill: #ff0000;"/>
        <circle cx="91.882934" cy="242.3356" r="3" style="fill: #ff0000;"/>
        <circle cx="83.204513" cy="242.454529" r="3" style="fill: #ff0000;"/>
        <circle cx="73.371988" cy="230.060708" r="3" style="fill: #ff0000;"/>
        <circle cx="69.446257" cy="234.626637" r="3" style="fill: #ff0000;"/>
        <circle cx="69.218182" cy="231.498964" r="3" style="fill: #ff0000;"/>
        <circle cx="73.71723" cy="246.24" r="3" style="fill: #ff0000;"/>
        <circle cx="79.691968" cy="240.211341" r="3" style="fill: #ff0000;"/>
        
        <!-- Cluster 2 -->
        <circle cx="165.809334" cy="218.26283" r="3" style="fill: #00ff00;"/>
        <circle cx="168.156116" cy="213.381963" r="3" style="fill: #00ff00;"/>
        <circle cx="188.918668" cy="204.488296" r="3" style="fill: #00ff00;"/>
        <circle cx="170.840718" cy="206.252609" r="3" style="fill: #00ff00;"/>
        <circle cx="157.360955" cy="216.03368" r="3" style="fill: #00ff00;"/>
        <circle cx="170.898241" cy="204.090097" r="3" style="fill: #00ff00;"/>
        <circle cx="164.707664" cy="209.598072" r="3" style="fill: #00ff00;"/>
        <circle cx="177.869113" cy="213.518688" r="3" style="fill: #00ff00;"/>
        <circle cx="175.810441" cy="207.262605" r="3" style="fill: #00ff00;"/>
        <circle cx="158.320223" cy="211.83545" r="3" style="fill: #00ff00;"/>
        <circle cx="149.531107" cy="208.269696" r="3" style="fill: #00ff00;"/>
        
        <!-- Cluster 3 -->
        <circle cx="264.234047" cy="180.696964" r="3" style="fill: #0000ff;"/>
        <circle cx="269.135495" cy="182.522148" r="3" style="fill: #0000ff;"/>
        <circle cx="250.638674" cy="190.873674" r="3" style="fill: #0000ff;"/>
        <circle cx="258.773073" cy="173.420453" r="3" style="fill: #0000ff;"/>
        <circle cx="291.953554" cy="175.243546" r="3" style="fill: #0000ff;"/>
        <circle cx="252.483808" cy="189.877994" r="3" style="fill: #0000ff;"/>
        <circle cx="272.343319" cy="177.624587" r="3" style="fill: #0000ff;"/>
        <circle cx="271.913921" cy="181.763801" r="3" style="fill: #0000ff;"/>
        <circle cx="256.225388" cy="189.356497" r="3" style="fill: #0000ff;"/>
        <circle cx="260.264752" cy="188.307106" r="3" style="fill: #0000ff;"/>
        <circle cx="279.514203" cy="179.217928" r="3" style="fill: #0000ff;"/>
        
        <!-- Cluster 4 -->
        <circle cx="361.772264" cy="152.105115" r="3" style="fill: #ffff00;"/>
        <circle cx="368.768116" cy="148.329987" r="3" style="fill: #ffff00;"/>
        <circle cx="367.031648" cy="146.700944" r="3" style="fill: #ffff00;"/>
        <circle cx="370.874784" cy="152.734373" r="3" style="fill: #ffff00;"/>
        <circle cx="344.736743" cy="143.444844" r="3" style="fill: #ffff00;"/>
        <circle cx="369.664568" cy="150.955399" r="3" style="fill: #ffff00;"/>
        <circle cx="357.857845" cy="142.70081" r="3" style="fill: #ffff00;"/>
        <circle cx="362.093006" cy="149.24025" r="3" style="fill: #ffff00;"/>
        <circle cx="358.749177" cy="142.241854" r="3" style="fill: #ffff00;"/>
        <circle cx="373.581818" cy="144.903532" r="3" style="fill: #ffff00;"/>
        <circle cx="360.32155" cy="137.756852" r="3" style="fill: #ffff00;"/>
        
        <!-- Outliers -->
        <circle cx="129.939022" cy="104.116239" r="3" style="fill: #ff00ff;"/>
        <circle cx="366.435203" cy="77.57568" r="3" style="fill: #ff00ff;"/>
        <circle cx="197.965649" cy="44.64" r="3" style="fill: #ff00ff;"/>
    </g>
</svg>