<?xml version="1.0" encoding="UTF-8" standalone="no"?>
<svg xmlns="http://www.w3.org/2000/svg" width="432pt" height="288pt" viewBox="0 0 432 288" version="1.1">
  <g>
    <circle cx="85.601109" cy="178.347263" r="3" style="fill: #ff0000;"/>
    <circle cx="103.979828" cy="159.014237" r="3" style="fill: #ff0000;"/>
    <circle cx="93.85484" cy="177.82961" r="3" style="fill: #ff0000;"/>
    <circle cx="79.260851" cy="194.386371" r="3" style="fill: #ff0000;"/>
    <circle cx="96.236215" cy="179.376745" r="3" style="fill: #ff0000;"/>
    <circle cx="102.205456" cy="168.178886" r="3" style="fill: #ff0000;"/>
    <circle cx="102.583028" cy="195.293425" r="3" style="fill: #ff0000;"/>
    <circle cx="84.803286" cy="198.524183" r="3" style="fill: #ff0000;"/>
    <circle cx="100.254357" cy="145.04357" r="3" style="fill: #ff0000;"/>
    <circle cx="104.738163" cy="161.826289" r="3" style="fill: #ff0000;"/>
    <circle cx="88.231366" cy="156.874555" r="3" style="fill: #ff0000;"/>
    <circle cx="69.218182" cy="157.074446" r="3" style="fill: #ff0000;"/>
    <circle cx="98.182047" cy="184.503479" r="3" style="fill: #ff0000;"/>
    <circle cx="114.027809" cy="138.689868" r="3" style="fill: #ff0000;"/>
    <circle cx="81.09722" cy="161.579186" r="3" style="fill: #ff0000;"/>
    <circle cx="110.599283" cy="141.094589" r="3" style="fill: #ff0000;"/>
    <circle cx="99.469817" cy="193.191846" r="3" style="fill: #ff0000;"/>
    <circle cx="96.26835" cy="224.76497" r="3" style="fill: #ff0000;"/>
    <circle cx="117.967868" cy="168.053672" r="3" style="fill: #ff0000;"/>
    <circle cx="97.027638" cy="173.245266" r="3" style="fill: #ff0000;"/>
    <circle cx="201.134381" cy="110.442097" r="3" style="fill: #0000ff;"/>
    <circle cx="164.13323" cy="143.177642" r="3" style="fill: #0000ff;"/>
    <circle cx="185.28094" cy="117.274967" r="3" style="fill: #0000ff;"/>
    <circle cx="209.336081" cy="148.044557" r="3" style="fill: #0000ff;"/>
    <circle cx="175.518965" cy="119.549695" r="3" style="fill: #0000ff;"/>
    <circle cx="201.20171" cy="130.842244" r="3" style="fill: #0000ff;"/>
    <circle cx="195.44311" cy="130.755555" r="3" style="fill: #0000ff;"/>
    <circle cx="197.957634" cy="144.183167" r="3" style="fill: #0000ff;"/>
    <circle cx="187.467486" cy="117.88281" r="3" style="fill: #0000ff;"/>
    <circle cx="192.136436" cy="138.319722" r="3" style="fill: #0000ff;"/>
    <circle cx="177.024342" cy="151.493845" r="3" style="fill: #0000ff;"/>
    <circle cx="187.037885" cy="135.201965" r="3" style="fill: #0000ff;"/>
    <circle cx="186.142097" cy="139.695156" r="3" style="fill: #0000ff;"/>
    <circle cx="186.598035" cy="144.897236" r="3" style="fill: #0000ff;"/>
    <circle cx="194.685451" cy="126.045377" r="3" style="fill: #0000ff;"/>
    <circle cx="200.503171" cy="136.963237" r="3" style="fill: #0000ff;"/>
    <circle cx="184.734242" cy="124.774752" r="3" style="fill: #0000ff;"/>
    <circle cx="187.366045" cy="161.335151" r="3" style="fill: #0000ff;"/>
    <circle cx="170.020759" cy="144.48473" r="3" style="fill: #0000ff;"/>
    <circle cx="195.863709" cy="159.10364" r="3" style="fill: #0000ff;"/>
    <circle cx="280.184216" cy="246.24" r="3" style="fill: #00ff00;"/>
    <circle cx="251.556751" cy="81.584101" r="3" style="fill: #00ff00;"/>
    <circle cx="373.581818" cy="44.64" r="3" style="fill: #00ff00;"/>
  </g>
</svg>