<svg xmlns:xlink="http://www.w3.org/1999/xlink" width="432pt" height="288pt" viewBox="0 0 432 288" xmlns="http://www.w3.org/2000/svg" version="1.1">
 <defs>
  <path id="mb451150112" d="M 0 3 
C 0.795609 3 1.55874 2.683901 2.12132 2.12132 
C 2.683901 1.55874 3 0.795609 3 0 
C 3 -0.795609 2.683901 -1.55874 2.12132 -2.12132 
C 1.55874 -2.683901 0.795609 -3 0 -3 
C -0.795609 -3 -1.55874 -2.683901 -2.12132 -2.12132 
C -2.683901 -1.55874 -3 -0.795609 -3 0 
C -3 0.795609 -2.683901 1.55874 -2.12132 2.12132 
C -1.55874 2.683901 -0.795609 3 0 3 
z"/>
 </defs>
 <g>
  <use xlink:href="#mb451150112" x="213.73697" y="99.537228" style="fill: #ff0000;"/>
  <use xlink:href="#mb451150112" x="167.912065" y="57.799168" style="fill: #ff0000;"/>
  <use xlink:href="#mb451150112" x="178.167461" y="68.913323" style="fill: #ff0000;"/>
  <use xlink:href="#mb451150112" x="193.724771" y="84.239401" style="fill: #ff0000;"/>
  <use xlink:href="#mb451150112" x="177.948111" y="68.170958" style="fill: #ff0000;"/>
  <use xlink:href="#mb451150112" x="155.907529" y="49.451693" style="fill: #ff0000;"/>
  <use xlink:href="#mb451150112" x="201.153326" y="90.942938" style="fill: #ff0000;"/>
  <use xlink:href="#mb451150112" x="206.878086" y="95.280943" style="fill: #ff0000;"/>
  <use xlink:href="#mb451150112" x="182.314465" y="73.199652" style="fill: #ff0000;"/>
  <use xlink:href="#mb451150112" x="192.398654" y="81.979274" style="fill: #ff0000;"/>
  <use xlink:href="#mb451150112" x="188.378718" y="79.430118" style="fill: #ff0000;"/>
  <use xlink:href="#mb451150112" x="196.247011" y="86.003653" style="fill: #ff0000;"/>
  <use xlink:href="#mb451150112" x="198.384358" y="85.343262" style="fill: #ff0000;"/>
  <use xlink:href="#mb451150112" x="224.208352" y="107.953471" style="fill: #ff0000;"/>
  <use xlink:href="#mb451150112" x="159.929498" y="55.117178" style="fill: #ff0000;"/>
  <use xlink:href="#mb451150112" x="204.005194" y="91.785021" style="fill: #ff0000;"/>
  <use xlink:href="#mb451150112" x="176.246959" y="66.216645" style="fill: #ff0000;"/>
  <use xlink:href="#mb451150112" x="211.223681" y="98.586944" style="fill: #ff0000;"/>
  <use xlink:href="#mb451150112" x="200.159808" y="89.518522" style="fill: #ff0000;"/>
  <use xlink:href="#mb451150112" x="204.700473" y="91.19843" style="fill: #ff0000;"/>
  <use xlink:href="#mb451150112" x="174.786884" y="68.009803" style="fill: #ff0000;"/>
  <use xlink:href="#mb451150112" x="177.905722" y="71.33484" style="fill: #ff0000;"/>
  <use xlink:href="#mb451150112" x="355.123012" y="231.511611" style="fill: #0000ff;"/>
  <use xlink:href="#mb451150112" x="360.736019" y="234.370591" style="fill: #0000ff;"/>
  <use xlink:href="#mb451150112" x="348.375627" y="222.896767" style="fill: #0000ff;"/>
  <use xlink:href="#mb451150112" x="326.288962" y="203.641328" style="fill: #0000ff;"/>
  <use xlink:href="#mb451150112" x="326.125196" y="206.849255" style="fill: #0000ff;"/>
  <use xlink:href="#mb451150112" x="313.571417" y="191.735677" style="fill: #0000ff;"/>
  <use xlink:href="#mb451150112" x="339.799384" y="214.649449" style="fill: #0000ff;"/>
  <use xlink:href="#mb451150112" x="339.668052" y="215.504525" style="fill: #0000ff;"/>
  <use xlink:href="#mb451150112" x="352.872044" y="227.376023" style="fill: #0000ff;"/>
  <use xlink:href="#mb451150112" x="333.807433" y="211.070285" style="fill: #0000ff;"/>
  <use xlink:href="#mb451150112" x="341.773388" y="216.206476" style="fill: #0000ff;"/>
  <use xlink:href="#mb451150112" x="364.09475" y="233.808105" style="fill: #0000ff;"/>
  <use xlink:href="#mb451150112" x="330.47801" y="206.474806" style="fill: #0000ff;"/>
  <use xlink:href="#mb451150112" x="330.41449" y="207.600748" style="fill: #0000ff;"/>
  <use xlink:href="#mb451150112" x="373.581818" y="246.24" style="fill: #0000ff;"/>
  <use xlink:href="#mb451150112" x="351.26045" y="224.988886" style="fill: #0000ff;"/>
  <use xlink:href="#mb451150112" x="353.460781" y="226.91181" style="fill: #0000ff;"/>
  <use xlink:href="#mb451150112" x="341.299186" y="216.863503" style="fill: #0000ff;"/>
  <use xlink:href="#mb451150112" x="340.728614" y="217.08637" style="fill: #0000ff;"/>
  <use xlink:href="#mb451150112" x="329.045345" y="207.277102" style="fill: #0000ff;"/>
  <use xlink:href="#mb451150112" x="339.41575" y="216.951608" style="fill: #0000ff;"/>
  <use xlink:href="#mb451150112" x="340.843942" y="216.990096" style="fill: #0000ff;"/>
  <use xlink:href="#mb451150112" x="69.218182" y="44.64" style="fill: #00ff00;"/>
 </g>
</svg>