<svg width="432pt" height="288pt" viewBox="0 0 432 288" xmlns="http://www.w3.org/2000/svg" version="1.1">
 <defs>
  <path id="circle" d="M 0 3 
C 0.795609 3 1.55874 2.683901 2.12132 2.12132 
C 2.683901 1.55874 3 0.795609 3 0 
C 3 -0.795609 2.683901 -1.55874 2.12132 -2.12132 
C 1.55874 -2.683901 0.795609 -3 0 -3 
C -0.795609 -3 -1.55874 -2.683901 -2.12132 -2.12132 
C -2.683901 -1.55874 -3 -0.795609 -3 0 
C -3 0.795609 -2.683901 1.55874 -2.12132 2.12132 
C -1.55874 2.683901 -0.795609 3 0 3 
z"/>
 </defs>
 <g>
  <!-- Cluster 1 -->
  <use xlink:href="#circle" x="82.031262" y="56.009371" style="fill: #ff0000;"/>
  <use xlink:href="#circle" x="69.218182" y="44.64" style="fill: #ff0000;"/>
  <use xlink:href="#circle" x="74.840411" y="52.839218" style="fill: #ff0000;"/>
  <use xlink:href="#circle" x="88.095456" y="56.843143" style="fill: #ff0000;"/>
  <use xlink:href="#circle" x="90.189226" y="59.983719" style="fill: #ff0000;"/>
  <use xlink:href="#circle" x="80.033237" y="57.807271" style="fill: #ff0000;"/>
  <use xlink:href="#circle" x="83.700652" y="59.409759" style="fill: #ff0000;"/>
  <use xlink:href="#circle" x="80.491995" y="54.423465" style="fill: #ff0000;"/>
  <use xlink:href="#circle" x="86.92932" y="59.233631" style="fill: #ff0000;"/>
  <use xlink:href="#circle" x="80.245257" y="53.976418" style="fill: #ff0000;"/>
  <use xlink:href="#circle" x="86.764378" y="56.260039" style="fill: #ff0000;"/>
  
  <!-- Cluster 2 -->
  <use xlink:href="#circle" x="193.577037" y="130.944165" style="fill: #00ff00;"/>
  <use xlink:href="#circle" x="193.9363" y="128.251123" style="fill: #00ff00;"/>
  <use xlink:href="#circle" x="199.321378" y="134.267202" style="fill: #00ff00;"/>
  <use xlink:href="#circle" x="210.939132" y="139.465541" style="fill: #00ff00;"/>
  <use xlink:href="#circle" x="207.213531" y="138.443349" style="fill: #00ff00;"/>
  <use xlink:href="#circle" x="205.70289" y="136.630415" style="fill: #00ff00;"/>
  <use xlink:href="#circle" x="187.535226" y="124.345624" style="fill: #00ff00;"/>
  <use xlink:href="#circle" x="188.509858" y="124.146793" style="fill: #00ff00;"/>
  <use xlink:href="#circle" x="202.168875" y="131.25693" style="fill: #00ff00;"/>
  <use xlink:href="#circle" x="199.486137" y="134.896347" style="fill: #00ff00;"/>
  <use xlink:href="#circle" x="180.557959" y="122.559876" style="fill: #00ff00;"/>
  
  <!-- Cluster 3 -->
  <use xlink:href="#circle" x="365.70905" y="240.154927" style="fill: #0000ff;"/>
  <use xlink:href="#circle" x="373.581818" y="246.24" style="fill: #0000ff;"/>
  <use xlink:href="#circle" x="352.254375" y="231.325711" style="fill: #0000ff;"/>
  <use xlink:href="#circle" x="360.304983" y="236.291983" style="fill: #0000ff;"/>
  <use xlink:href="#circle" x="351.820579" y="230.489873" style="fill: #0000ff;"/>
  <use xlink:href="#circle" x="369.641602" y="244.649218" style="fill: #0000ff;"/>
  <use xlink:href="#circle" x="371.284646" y="244.027086" style="fill: #0000ff;"/>
  <use xlink:href="#circle" x="364.71822" y="235.661043" style="fill: #0000ff;"/>
  <use xlink:href="#circle" x="357.752688" y="236.380885" style="fill: #0000ff;"/>
  <use xlink:href="#circle" x="363.482859" y="235.909649" style="fill: #0000ff;"/>
  <use xlink:href="#circle" x="363.425496" y="234.736569" style="fill: #0000ff;"/>
 </g>
</svg>