<?xml version="1.0" encoding="UTF-8" standalone="no"?>
<svg width="432pt" height="288pt" viewBox="0 0 432 288" xmlns="http://www.w3.org/2000/svg" version="1.1">
    <g>
        <circle cx="82.436652" cy="71.727376" r="3" style="fill: #ff0000;"/>
        <circle cx="73.783275" cy="114.541791" r="3" style="fill: #ff0000;"/>
        <circle cx="87.252987" cy="85.075622" r="3" style="fill: #ff0000;"/>
        <circle cx="69.218182" cy="80.822267" r="3" style="fill: #ff0000;"/>
        <circle cx="80.233261" cy="77.403236" r="3" style="fill: #ff0000;"/>
        <circle cx="86.987509" cy="58.767754" r="3" style="fill: #ff0000;"/>
        <circle cx="93.712551" cy="88.260885" r="3" style="fill: #ff0000;"/>
        <circle cx="91.237922" cy="49.934605" r="3" style="fill: #ff0000;"/>
        <circle cx="78.893097" cy="44.64" r="3" style="fill: #ff0000;"/>
        <circle cx="81.381892" cy="81.903998" r="3" style="fill: #ff0000;"/>
        <circle cx="72.609885" cy="137.233147" r="3" style="fill: #ff0000;"/>
        <circle cx="75.482508" cy="96.652277" r="3" style="fill: #ff0000;"/>
        <circle cx="73.262396" cy="67.105496" r="3" style="fill: #ff0000;"/>
        <circle cx="79.364983" cy="70.951472" r="3" style="fill: #ff0000;"/>
        <circle cx="149.784167" cy="113.226117" r="3" style="fill: #0000ff;"/>
        <circle cx="132.385907" cy="127.35504" r="3" style="fill: #0000ff;"/>
        <circle cx="143.682294" cy="152.08938" r="3" style="fill: #0000ff;"/>
        <circle cx="154.038648" cy="141.223928" r="3" style="fill: #0000ff;"/>
        <circle cx="142.358801" cy="136.744422" r="3" style="fill: #0000ff;"/>
        <circle cx="136.297254" cy="143.805664" r="3" style="fill: #0000ff;"/>
        <circle cx="138.762079" cy="134.025497" r="3" style="fill: #0000ff;"/>
        <circle cx="130.818039" cy="120.196071" r="3" style="fill: #0000ff;"/>
        <circle cx="138.216127" cy="112.713096" r="3" style="fill: #0000ff;"/>
        <circle cx="141.858167" cy="141.408478" r="3" style="fill: #0000ff;"/>
        <circle cx="144.517541" cy="130.84161" r="3" style="fill: #0000ff;"/>
        <circle cx="150.084934" cy="163.247554" r="3" style="fill: #0000ff;"/>
        <circle cx="138.039209" cy="108.887448" r="3" style="fill: #0000ff;"/>
        <circle cx="139.446513" cy="131.780557" r="3" style="fill: #0000ff;"/>
        <circle cx="227.433827" cy="243.63122" r="3" style="fill: #00ff00;"/>
        <circle cx="221.213802" cy="235.848246" r="3" style="fill: #00ff00;"/>
        <circle cx="221.689558" cy="194.516005" r="3" style="fill: #00ff00;"/>
        <circle cx="210.839069" cy="224.800836" r="3" style="fill: #00ff00;"/>
        <circle cx="227.846233" cy="198.523813" r="3" style="fill: #00ff00;"/>
        <circle cx="212.03641" cy="192.502217" r="3" style="fill: #00ff00;"/>
        <circle cx="218.552397" cy="177.623612" r="3" style="fill: #00ff00;"/>
        <circle cx="217.117752" cy="218.932521" r="3" style="fill: #00ff00;"/>
        <circle cx="221.633796" cy="246.24" r="3" style="fill: #00ff00;"/>
        <circle cx="224.817199" cy="221.193583" r="3" style="fill: #00ff00;"/>
        <circle cx="222.997063" cy="213.083184" r="3" style="fill: #00ff00;"/>
        <circle cx="228.532703" cy="185.47824" r="3" style="fill: #00ff00;"/>
        <circle cx="216.142462" cy="194.126559" r="3" style="fill: #00ff00;"/>
        <circle cx="202.895995" cy="175.612951" r="3" style="fill: #00ff00;"/>
        <circle cx="373.581818" cy="173.053365" r="3" style="fill: #ff00ff;"/>
        <circle cx="228.74126" cy="218.528729" r="3" style="fill: #00ff00;"/>
        <circle cx="139.864054" cy="195.908013" r="3" style="fill: #0000ff;"/>
    </g>
</svg>