<svg width="432pt" height="288pt" viewBox="0 0 432 288" xmlns="http://www.w3.org/2000/svg" version="1.1">
 <defs>
  <path id="m416f822cd1" d="M 0 3 
C 0.795609 3 1.55874 2.683901 2.12132 2.12132 
C 2.683901 1.55874 3 0.795609 3 0 
C 3 -0.795609 2.683901 -1.55874 2.12132 -2.12132 
C 1.55874 -2.683901 0.795609 -3 0 -3 
C -0.795609 -3 -1.55874 -2.683901 -2.12132 -2.12132 
C -2.683901 -1.55874 -3 -0.795609 -3 0 
C -3 0.795609 -2.683901 1.55874 -2.12132 2.12132 
C -1.55874 2.683901 -0.795609 3 0 3 
z"/>
 </defs>
 <g>
  <!-- Cluster 1 -->
  <use xlink:href="#m416f822cd1" x="69.957018" y="46.039711" style="fill: #ff0000;"/>
  <use xlink:href="#m416f822cd1" x="69.218182" y="44.64" style="fill: #ff0000;"/>
  <use xlink:href="#m416f822cd1" x="81.899188" y="54.024162" style="fill: #ff0000;"/>
  <use xlink:href="#m416f822cd1" x="69.766334" y="45.613841" style="fill: #ff0000;"/>
  <use xlink:href="#m416f822cd1" x="69.619777" y="45.169857" style="fill: #ff0000;"/>
  <use xlink:href="#m416f822cd1" x="74.659198" y="48.363519" style="fill: #ff0000;"/>
  
  <!-- Cluster 2 -->
  <use xlink:href="#m416f822cd1" x="140.729451" y="91.645595" style="fill: #00ff00;"/>
  <use xlink:href="#m416f822cd1" x="134.875287" y="88.681666" style="fill: #00ff00;"/>
  <use xlink:href="#m416f822cd1" x="140.861317" y="92.749069" style="fill: #00ff00;"/>
  <use xlink:href="#m416f822cd1" x="138.351672" y="90.517612" style="fill: #00ff00;"/>
  <use xlink:href="#m416f822cd1" x="150.597116" y="98.869284" style="fill: #00ff00;"/>
  <use xlink:href="#m416f822cd1" x="142.425175" y="93.882521" style="fill: #00ff00;"/>
  
  <!-- Cluster 3 -->
  <use xlink:href="#m416f822cd1" x="207.582388" y="136.655263" style="fill: #0000ff;"/>
  <use xlink:href="#m416f822cd1" x="217.462009" y="142.879695" style="fill: #0000ff;"/>
  <use xlink:href="#m416f822cd1" x="208.194274" y="136.43087" style="fill: #0000ff;"/>
  <use xlink:href="#m416f822cd1" x="211.052922" y="138.888141" style="fill: #0000ff;"/>
  <use xlink:href="#m416f822cd1" x="210.537025" y="138.067277" style="fill: #0000ff;"/>
  <use xlink:href="#m416f822cd1" x="212.218985" y="139.438528" style="fill: #0000ff;"/>
  
  <!-- Cluster 4 -->
  <use xlink:href="#m416f822cd1" x="292.712643" y="192.80106" style="fill: #ffff00;"/>
  <use xlink:href="#m416f822cd1" x="285.158731" y="187.711566" style="fill: #ffff00;"/>
  <use xlink:href="#m416f822cd1" x="284.661931" y="187.649361" style="fill: #ffff00;"/>
  <use xlink:href="#m416f822cd1" x="285.42384" y="187.128736" style="fill: #ffff00;"/>
  <use xlink:href="#m416f822cd1" x="280.501328" y="184.548508" style="fill: #ffff00;"/>
  <use xlink:href="#m416f822cd1" x="287.171612" y="188.987221" style="fill: #ffff00;"/>
  
  <!-- Cluster 5 -->
  <use xlink:href="#m416f822cd1" x="373.581818" y="246.24" style="fill: #ff00ff;"/>
  <use xlink:href="#m416f822cd1" x="366.717546" y="242.18575" style="fill: #ff00ff;"/>
  <use xlink:href="#m416f822cd1" x="372.546608" y="245.463768" style="fill: #ff00ff;"/>
  <use xlink:href="#m416f822cd1" x="369.522708" y="243.093159" style="fill: #ff00ff;"/>
  <use xlink:href="#m416f822cd1" x="372.876661" y="245.588588" style="fill: #ff00ff;"/>
  <use xlink:href="#m416f822cd1" x="369.431582" y="242.89863" style="fill: #ff00ff;"/>
  
  <!-- Outlier -->
  <use xlink:href="#m416f822cd1" x="214.009032" y="105.642329" style="fill: #00ffff;"/>
 </g>
</svg>