<?xml version="1.0" encoding="UTF-8" standalone="no"?>
<svg xmlns="http://www.w3.org/2000/svg" width="432pt" height="288pt" viewBox="0 0 432 288" version="1.1">
  <defs>
    <style type="text/css">
      * {
        stroke-linejoin: round;
        stroke-linecap: butt;
      }
    </style>
  </defs>
  <g>
    <!-- Cluster 1 -->
    <circle cx="76.663363" cy="245.47855" r="3" style="fill: #ff0000;"/>
    <circle cx="76.802402" cy="246.24" r="3" style="fill: #ff0000;"/>
    <circle cx="373.581818" cy="44.64" r="3" style="fill: #ff0000;"/>
    <!-- Cluster 2 -->
    <circle cx="84.601192" cy="154.474939" r="3" style="fill: #00ff00;"/>
    <circle cx="77.557248" cy="210.82364" r="3" style="fill: #00ff00;"/>
    <circle cx="84.12253" cy="200.527113" r="3" style="fill: #00ff00;"/>
    <circle cx="72.948821" cy="193.245085" r="3" style="fill: #00ff00;"/>
    <circle cx="69.218182" cy="199.575447" r="3" style="fill: #00ff00;"/>
    <circle cx="79.04524" cy="171.438591" r="3" style="fill: #00ff00;"/>
    <circle cx="71.795938" cy="190.712439" r="3" style="fill: #00ff00;"/>
    <circle cx="86.433956" cy="185.018961" r="3" style="fill: #00ff00;"/>
    <circle cx="86.404541" cy="162.500648" r="3" style="fill: #00ff00;"/>
    <circle cx="76.07543" cy="229.199406" r="3" style="fill: #00ff00;"/>
    <circle cx="81.523054" cy="202.611214" r="3" style="fill: #00ff00;"/>
    <circle cx="79.34793" cy="210.552707" r="3" style="fill: #00ff00;"/>
    <circle cx="72.960228" cy="216.998831" r="3" style="fill: #00ff00;"/>
    <circle cx="71.830902" cy="194.422327" r="3" style="fill: #00ff00;"/>
    <circle cx="78.087399" cy="197.831399" r="3" style="fill: #00ff00;"/>
    <circle cx="81.927932" cy="177.806029" r="3" style="fill: #00ff00;"/>
    <circle cx="79.160268" cy="198.773567" r="3" style="fill: #00ff00;"/>
    <circle cx="75.333291" cy="204.85387" r="3" style="fill: #00ff00;"/>
    <circle cx="69.342103" cy="175.296443" r="3" style="fill: #00ff00;"/>
    <circle cx="69.741367" cy="214.613591" r="3" style="fill: #00ff00;"/>
    <circle cx="76.002769" cy="192.3589" r="3" style="fill: #00ff00;"/>
    <!-- Cluster 3 -->
    <circle cx="122.947699" cy="123.092981" r="3" style="fill: #0000ff;"/>
    <circle cx="124.225633" cy="163.276034" r="3" style="fill: #0000ff;"/>
    <circle cx="121.235023" cy="168.958245" r="3" style="fill: #0000ff;"/>
    <circle cx="116.835373" cy="144.223648" r="3" style="fill: #0000ff;"/>
    <circle cx="125.013103" cy="166.83102" r="3" style="fill: #0000ff;"/>
    <circle cx="127.06634" cy="160.830465" r="3" style="fill: #0000ff;"/>
    <circle cx="125.361439" cy="151.447004" r="3" style="fill: #0000ff;"/>
    <circle cx="131.561169" cy="143.541947" r="3" style="fill: #0000ff;"/>
    <circle cx="119.466229" cy="130.077283" r="3" style="fill: #0000ff;"/>
    <circle cx="127.74344" cy="141.299568" r="3" style="fill: #0000ff;"/>
    <circle cx="126.55473" cy="181.961562" r="3" style="fill: #0000ff;"/>
    <circle cx="121.999246" cy="143.308215" r="3" style="fill: #0000ff;"/>
    <circle cx="120.447333" cy="163.446169" r="3" style="fill: #0000ff;"/>
    <circle cx="129.925406" cy="173.226359" r="3" style="fill: #0000ff;"/>
    <circle cx="124.618429" cy="173.529209" r="3" style="fill: #0000ff;"/>
    <circle cx="131.413215" cy="170.789482" r="3" style="fill: #0000ff;"/>
    <circle cx="128.651024" cy="170.099927" r="3" style="fill: #0000ff;"/>
    <circle cx="130.37729" cy="95.867219" r="3" style="fill: #0000ff;"/>
    <circle cx="134.909008" cy="116.590025" r="3" style="fill: #0000ff;"/>
    <circle cx="125.560747" cy="167.54632" r="3" style="fill: #0000ff;"/>
    <circle cx="120.638134" cy="189.660361" r="3" style="fill: #0000ff;"/>
    <circle cx="122.663519" cy="141.363159" r="3" style="fill: #0000ff;"/>
    <circle cx="122.584657" cy="112.911097" r="3" style="fill: #0000ff;"/>
    <!-- Cluster 4 -->
    <circle cx="245.625936" cy="66.324408" r="3" style="fill: #ffff00;"/>
    <circle cx="339.813857" cy="151.22763" r="3" style="fill: #ffff00;"/>
  </g>
</svg>