<?xml version="1.0" encoding="UTF-8" standalone="no"?>
<svg xmlns="http://www.w3.org/2000/svg" width="432pt" height="288pt" viewBox="0 0 432 288" version="1.1">
  <g>
    <circle cx="85.134836" cy="214.490792" r="3" style="fill: #ff0000;"/>
    <circle cx="96.500703" cy="217.439244" r="3" style="fill: #ff0000;"/>
    <circle cx="87.992706" cy="214.401084" r="3" style="fill: #ff0000;"/>
    <circle cx="93.289013" cy="205.887298" r="3" style="fill: #ff0000;"/>
    <circle cx="103.082866" cy="210.449497" r="3" style="fill: #ff0000;"/>
    <circle cx="80.653301" cy="228.96897" r="3" style="fill: #ff0000;"/>
    <circle cx="95.628302" cy="222.328602" r="3" style="fill: #ff0000;"/>
    <circle cx="89.66979" cy="223.902426" r="3" style="fill: #ff0000;"/>
    <circle cx="96.422927" cy="223.137518" r="3" style="fill: #ff0000;"/>
    <circle cx="92.480936" cy="246.24" r="3" style="fill: #ff0000;"/>
    <circle cx="86.567714" cy="230.963345" r="3" style="fill: #ff0000;"/>
    <circle cx="84.779531" cy="227.24709" r="3" style="fill: #ff0000;"/>
    <circle cx="88.490651" cy="217.994514" r="3" style="fill: #ff0000;"/>
    <circle cx="84.101165" cy="219.768357" r="3" style="fill: #ff0000;"/>
    <circle cx="69.218182" cy="224.590864" r="3" style="fill: #ff0000;"/>
    <circle cx="100.114048" cy="209.651747" r="3" style="fill: #ff0000;"/>
    <circle cx="236.512844" cy="127.372291" r="3" style="fill: #00ff00;"/>
    <circle cx="222.793329" cy="117.473504" r="3" style="fill: #00ff00;"/>
    <circle cx="250.980647" cy="137.588499" r="3" style="fill: #00ff00;"/>
    <circle cx="228.915341" cy="143.178268" r="3" style="fill: #00ff00;"/>
    <circle cx="232.006842" cy="147.520008" r="3" style="fill: #00ff00;"/>
    <circle cx="226.372365" cy="163.580581" r="3" style="fill: #00ff00;"/>
    <circle cx="216.818849" cy="148.183757" r="3" style="fill: #00ff00;"/>
    <circle cx="233.634462" cy="146.327198" r="3" style="fill: #00ff00;"/>
    <circle cx="237.32766" cy="142.449463" r="3" style="fill: #00ff00;"/>
    <circle cx="249.77127" cy="122.041636" r="3" style="fill: #00ff00;"/>
    <circle cx="246.742062" cy="137.634507" r="3" style="fill: #00ff00;"/>
    <circle cx="224.664261" cy="132.498475" r="3" style="fill: #00ff00;"/>
    <circle cx="227.982451" cy="165.745312" r="3" style="fill: #00ff00;"/>
    <circle cx="232.889391" cy="148.932895" r="3" style="fill: #00ff00;"/>
    <circle cx="244.511535" cy="116.176393" r="3" style="fill: #00ff00;"/>
    <circle cx="237.446964" cy="125.786048" r="3" style="fill: #00ff00;"/>
    <circle cx="365.820979" cy="44.64" r="3" style="fill: #0000ff;"/>
    <circle cx="353.398829" cy="91.862759" r="3" style="fill: #0000ff;"/>
    <circle cx="348.086108" cy="81.692251" r="3" style="fill: #0000ff;"/>
    <circle cx="353.331833" cy="84.356485" r="3" style="fill: #0000ff;"/>
    <circle cx="371.011626" cy="83.840163" r="3" style="fill: #0000ff;"/>
    <circle cx="332.541981" cy="98.643954" r="3" style="fill: #0000ff;"/>
    <circle cx="342.365882" cy="73.77288" r="3" style="fill: #0000ff;"/>
    <circle cx="359.64272" cy="61.296988" r="3" style="fill: #0000ff;"/>
    <circle cx="356.568419" cy="53.301187" r="3" style="fill: #0000ff;"/>
    <circle cx="321.352051" cy="78.726076" r="3" style="fill: #0000ff;"/>
    <circle cx="345.734246" cy="77.505413" r="3" style="fill: #0000ff;"/>
    <circle cx="347.758965" cy="81.181436" r="3" style="fill: #0000ff;"/>
    <circle cx="326.839567" cy="100.558398" r="3" style="fill: #0000ff;"/>
    <circle cx="373.581818" cy="60.096934" r="3" style="fill: #0000ff;"/>
    <circle cx="350.652118" cy="59.056" r="3" style="fill: #0000ff;"/>
    <circle cx="347.845058" cy="101.272162" r="3" style="fill: #0000ff;"/>
    <circle cx="282.388091" cy="225.970263" r="3" style="fill: #ff00ff;"/>
    <circle cx="319.015757" cy="227.703966" r="3" style="fill: #ff00ff;"/>
    <circle cx="144.148246" cy="174.482501" r="3" style="fill: #ff00ff;"/>
  </g>
</svg>