<?xml version="1.0" encoding="UTF-8" standalone="no"?>
<svg width="432pt" height="288pt" viewBox="0 0 432 288" xmlns="http://www.w3.org/2000/svg" version="1.1">
    <defs>
        <style type="text/css">
            .small { font: italic 13px sans-serif; }
        </style>
    </defs>
    <g fill="none" stroke="none" stroke-width="1" fill-rule="evenodd">
        <g fill-rule="nonzero">
            <circle fill="#1f77b4" cx="119.605616" cy="67.445374" r="3"/>
            <circle fill="#1f77b4" cx="129.901362" cy="80.236424" r="3"/>
            <circle fill="#1f77b4" cx="69.218182" cy="169.636905" r="3"/>
            <circle fill="#1f77b4" cx="101.328442" cy="112.562506" r="3"/>
            <circle fill="#1f77b4" cx="83.97143" cy="98.798135" r="3"/>
            <circle fill="#1f77b4" cx="81.193729" cy="62.313553" r="3"/>
            <circle fill="#1f77b4" cx="112.563906" cy="81.497119" r="3"/>
            <circle fill="#1f77b4" cx="117.095684" cy="98.294452" r="3"/>
            <circle fill="#1f77b4" cx="112.270998" cy="93.151243" r="3"/>
            <circle fill="#1f77b4" cx="132.376609" cy="76.467944" r="3"/>
            <circle fill="#1f77b4" cx="94.612625" cy="66.072103" r="3"/>
            <circle fill="#1f77b4" cx="102.387676" cy="44.64" r="3"/>
            <circle fill="#1f77b4" cx="110.04156" cy="119.249857" r="3"/>
            <circle fill="#1f77b4" cx="106.084965" cy="55.735406" r="3"/>
            <circle fill="#1f77b4" cx="137.56839" cy="144.380617" r="3"/>
            <circle fill="#1f77b4" cx="158.383071" cy="87.38663" r="3"/>
            <circle fill="#1f77b4" cx="95.039795" cy="64.02766" r="3"/>
            <circle fill="#1f77b4" cx="119.445895" cy="101.271711" r="3"/>
            <circle fill="#1f77b4" cx="141.345189" cy="74.945906" r="3"/>
            <circle fill="#1f77b4" cx="74.906195" cy="104.45534" r="3"/>
            <circle fill="#1f77b4" cx="124.829672" cy="81.356762" r="3"/>
            <circle fill="#1f77b4" cx="97.289355" cy="85.927842" r="3"/>
            <circle fill="#ff7f0e" cx="286.636055" cy="56.336054" r="3"/>
            <circle fill="#ff7f0e" cx="241.263393" cy="104.792139" r="3"/>
            <circle fill="#ff7f0e" cx="241.504505" cy="62.565851" r="3"/>
            <circle fill="#ff7f0e" cx="273.673422" cy="78.308424" r="3"/>
            <circle fill="#ff7f0e" cx="268.235249" cy="76.494442" r="3"/>
            <circle fill="#ff7f0e" cx="279.759604" cy="88.603069" r="3"/>
            <circle fill="#ff7f0e" cx="245.196424" cy="73.552049" r="3"/>
            <circle fill="#ff7f0e" cx="260.97735" cy="62.641482" r="3"/>
            <circle fill="#ff7f0e" cx="249.449517" cy="146.089196" r="3"/>
            <circle fill="#ff7f0e" cx="225.435026" cy="140.31989" r="3"/>
            <circle fill="#ff7f0e" cx="276.021629" cy="158.157802" r="3"/>
            <circle fill="#ff7f0e" cx="270.587552" cy="102.048206" r="3"/>
            <circle fill="#ff7f0e" cx="238.199789" cy="138.747871" r="3"/>
            <circle fill="#ff7f0e" cx="274.065106" cy="61.236154" r="3"/>
            <circle fill="#ff7f0e" cx="273.568443" cy="62.472507" r="3"/>
            <circle fill="#ff7f0e" cx="268.499842" cy="114.494253" r="3"/>
            <circle fill="#ff7f0e" cx="222.438967" cy="87.962409" r="3"/>
            <circle fill="#ff7f0e" cx="266.85055" cy="83.702164" r="3"/>
            <circle fill="#ff7f0e" cx="279.162318" cy="86.365841" r="3"/>
            <circle fill="#ff7f0e" cx="259.331073" cy="105.296962" r="3"/>
            <circle fill="#ff7f0e" cx="251.203256" cy="47.957808" r="3"/>
            <circle fill="#ff7f0e" cx="259.150874" cy="126.413788" r="3"/>
            <circle fill="#2ca02c" cx="333.800533" cy="181.664307" r="3"/>
            <circle fill="#2ca02c" cx="373.581818" cy="246.24" r="3"/>
            <circle fill="#2ca02c" cx="371.05697" cy="176.279671" r="3"/>
        </g>
    </g>
</svg>