<?xml version="1.0" encoding="utf-8"?>
<svg xmlns:xlink="http://www.w3.org/1999/xlink" width="432pt" height="288pt" viewBox="0 0 432 288" xmlns="http://www.w3.org/2000/svg" version="1.1">
 <defs>
  <style type="text/css">*{stroke-linejoin: round; stroke-linecap: butt}</style>
  <path id="circle" d="M 0 3 C 0.795609 3 1.55874 2.683901 2.12132 2.12132 C 2.683901 1.55874 3 0.795609 3 0 C 3 -0.795609 2.683901 -1.55874 2.12132 -2.12132 C 1.55874 -2.683901 0.795609 -3 0 -3 C -0.795609 -3 -1.55874 -2.683901 -2.12132 -2.12132 C -2.683901 -1.55874 -3 -0.795609 -3 0 C -3 0.795609 -2.683901 1.55874 -2.12132 2.12132 C -1.55874 2.683901 -0.795609 3 0 3 z"/>
 </defs>
 <g>
  <!-- Cluster 1 -->
  <use xlink:href="#circle" x="72.514299" y="143.863196" style="fill: #ff0000;"/>
  <use xlink:href="#circle" x="78.687265" y="101.24824" style="fill: #ff0000;"/>
  <use xlink:href="#circle" x="93.450667" y="89.227629" style="fill: #ff0000;"/>
  <use xlink:href="#circle" x="83.441709" y="109.875041" style="fill: #ff0000;"/>
  <use xlink:href="#circle" x="84.910932" y="142.232088" style="fill: #ff0000;"/>
  <use xlink:href="#circle" x="88.396203" y="135.529736" style="fill: #ff0000;"/>
  <use xlink:href="#circle" x="85.780456" y="105.47928" style="fill: #ff0000;"/>
  <use xlink:href="#circle" x="81.969816" y="145.315662" style="fill: #ff0000;"/>
  <use xlink:href="#circle" x="76.821589" y="64.937843" style="fill: #ff0000;"/>
  <use xlink:href="#circle" x="89.766362" y="145.061982" style="fill: #ff0000;"/>
  <use xlink:href="#circle" x="80.093212" y="66.672737" style="fill: #ff0000;"/>
  <use xlink:href="#circle" x="87.411478" y="176.243462" style="fill: #ff0000;"/>
  <use xlink:href="#circle" x="69.218182" y="81.870587" style="fill: #ff0000;"/>
  <use xlink:href="#circle" x="76.653818" y="68.607883" style="fill: #ff0000;"/>
  <use xlink:href="#circle" x="84.202126" y="55.137767" style="fill: #ff0000;"/>
  <use xlink:href="#circle" x="82.311954" y="73.811295" style="fill: #ff0000;"/>
  <use xlink:href="#circle" x="81.150045" y="44.64" style="fill: #ff0000;"/>
  <use xlink:href="#circle" x="76.065187" y="120.124" style="fill: #ff0000;"/>
  <use xlink:href="#circle" x="79.900375" y="83.457075" style="fill: #ff0000;"/>
  <use xlink:href="#circle" x="83.269482" y="183.897742" style="fill: #ff0000;"/>
  <use xlink:href="#circle" x="91.463502" y="144.445359" style="fill: #ff0000;"/>
  <use xlink:href="#circle" x="93.086511" y="165.021693" style="fill: #ff0000;"/>
  
  <!-- Cluster 2 -->
  <use xlink:href="#circle" x="159.949486" y="200.745845" style="fill: #0000ff;"/>
  <use xlink:href="#circle" x="142.311642" y="171.894247" style="fill: #0000ff;"/>
  <use xlink:href="#circle" x="144.436233" y="140.708183" style="fill: #0000ff;"/>
  <use xlink:href="#circle" x="149.418831" y="186.773184" style="fill: #0000ff;"/>
  <use xlink:href="#circle" x="142.318867" y="168.279957" style="fill: #0000ff;"/>
  <use xlink:href="#circle" x="146.974238" y="127.002802" style="fill: #0000ff;"/>
  <use xlink:href="#circle" x="146.725538" y="192.491663" style="fill: #0000ff;"/>
  <use xlink:href="#circle" x="153.701164" y="198.4188" style="fill: #0000ff;"/>
  <use xlink:href="#circle" x="142.974291" y="133.670866" style="fill: #0000ff;"/>
  <use xlink:href="#circle" x="148.352806" y="98.836245" style="fill: #0000ff;"/>
  <use xlink:href="#circle" x="156.158223" y="200.219248" style="fill: #0000ff;"/>
  <use xlink:href="#circle" x="159.214267" y="205.633121" style="fill: #0000ff;"/>
  <use xlink:href="#circle" x="156.237366" y="199.50252" style="fill: #0000ff;"/>
  <use xlink:href="#circle" x="142.132191" y="161.366903" style="fill: #0000ff;"/>
  <use xlink:href="#circle" x="139.306299" y="185.307897" style="fill: #0000ff;"/>
  <use xlink:href="#circle" x="150.184374" y="162.221505" style="fill: #0000ff;"/>
  <use xlink:href="#circle" x="156.633972" y="192.583472" style="fill: #0000ff;"/>
  <use xlink:href="#circle" x="146.928047" y="208.418343" style="fill: #0000ff;"/>
  <use xlink:href="#circle" x="159.59644" y="208.271284" style="fill: #0000ff;"/>
  <use xlink:href="#circle" x="147.272372" y="212.200204" style="fill: #0000ff;"/>
  <use xlink:href="#circle" x="148.903831" y="145.580312" style="fill: #0000ff;"/>
  <use xlink:href="#circle" x="149.278989" y="213.826679" style="fill: #0000ff;"/>
  
  <!-- Cluster 3 -->
  <use xlink:href="#circle" x="296.395658" y="209.542551" style="fill: #00ff00;"/>
  <use xlink:href="#circle" x="274.985276" y="246.24" style="fill: #00ff00;"/>
  <use xlink:href="#circle" x="373.581818" y="194.764689" style="fill: #00ff00;"/>
 </g>
</svg>