<?xml version="1.0" encoding="utf-8"?>
<svg xmlns:xlink="http://www.w3.org/1999/xlink" width="432pt" height="288pt" viewBox="0 0 432 288" xmlns="http://www.w3.org/2000/svg" version="1.1">
 <g>
  <circle cx="82.436935" cy="44.64" r="3" style="fill: #ff0000;"/>
  <circle cx="113.62637" cy="74.485598" r="3" style="fill: #ff0000;"/>
  <circle cx="114.643768" cy="63.977253" r="3" style="fill: #ff0000;"/>
  <circle cx="96.473469" cy="86.538217" r="3" style="fill: #ff0000;"/>
  <circle cx="82.000982" cy="71.499275" r="3" style="fill: #ff0000;"/>
  <circle cx="102.326594" cy="68.395994" r="3" style="fill: #ff0000;"/>
  <circle cx="87.238202" cy="60.377273" r="3" style="fill: #ff0000;"/>
  <circle cx="89.392274" cy="50.239264" r="3" style="fill: #ff0000;"/>
  <circle cx="88.557176" cy="52.473594" r="3" style="fill: #ff0000;"/>
  <circle cx="69.218182" cy="51.51347" r="3" style="fill: #ff0000;"/>
  <circle cx="106.133522" cy="67.855946" r="3" style="fill: #ff0000;"/>
  <circle cx="85.054986" cy="48.406137" r="3" style="fill: #ff0000;"/>
  <circle cx="83.075354" cy="48.332775" r="3" style="fill: #ff0000;"/>
  <circle cx="92.538252" cy="60.097564" r="3" style="fill: #ff0000;"/>
  <circle cx="85.013651" cy="60.904276" r="3" style="fill: #ff0000;"/>
  <circle cx="198.180857" cy="125.712494" r="3" style="fill: #00ff00;"/>
  <circle cx="185.048162" cy="134.601935" r="3" style="fill: #00ff00;"/>
  <circle cx="210.738873" cy="119.811917" r="3" style="fill: #00ff00;"/>
  <circle cx="212.721647" cy="143.133337" r="3" style="fill: #00ff00;"/>
  <circle cx="208.540708" cy="151.312203" r="3" style="fill: #00ff00;"/>
  <circle cx="201.854713" cy="125.644826" r="3" style="fill: #00ff00;"/>
  <circle cx="221.351366" cy="145.19894" r="3" style="fill: #00ff00;"/>
  <circle cx="202.148789" cy="133.391865" r="3" style="fill: #00ff00;"/>
  <circle cx="206.002503" cy="144.184567" r="3" style="fill: #00ff00;"/>
  <circle cx="212.346089" cy="128.643719" r="3" style="fill: #00ff00;"/>
  <circle cx="202.076083" cy="119.805526" r="3" style="fill: #00ff00;"/>
  <circle cx="196.243458" cy="130.102196" r="3" style="fill: #00ff00;"/>
  <circle cx="206.181549" cy="132.542372" r="3" style="fill: #00ff00;"/>
  <circle cx="186.730798" cy="130.049446" r="3" style="fill: #00ff00;"/>
  <circle cx="203.369484" cy="122.474954" r="3" style="fill: #00ff00;"/>
  <circle cx="316.5045" cy="201.362188" r="3" style="fill: #0000ff;"/>
  <circle cx="354.999124" cy="233.822138" r="3" style="fill: #0000ff;"/>
  <circle cx="321.815905" cy="196.455699" r="3" style="fill: #0000ff;"/>
  <circle cx="305.637715" cy="202.551684" r="3" style="fill: #0000ff;"/>
  <circle cx="329.273589" cy="231.729551" r="3" style="fill: #0000ff;"/>
  <circle cx="354.31852" cy="246.24" r="3" style="fill: #0000ff;"/>
  <circle cx="332.578756" cy="218.021761" r="3" style="fill: #0000ff;"/>
  <circle cx="317.945094" cy="216.253432" r="3" style="fill: #0000ff;"/>
  <circle cx="344.723355" cy="231.800594" r="3" style="fill: #0000ff;"/>
  <circle cx="364.575328" cy="228.144599" r="3" style="fill: #0000ff;"/>
  <circle cx="336.839088" cy="204.676426" r="3" style="fill: #0000ff;"/>
  <circle cx="343.77338" cy="231.135671" r="3" style="fill: #0000ff;"/>
  <circle cx="357.755646" cy="221.056919" r="3" style="fill: #0000ff;"/>
  <circle cx="326.090835" cy="218.87419" r="3" style="fill: #0000ff;"/>
  <circle cx="349.07865" cy="241.873952" r="3" style="fill: #0000ff;"/>
  <circle cx="373.581818" cy="204.388512" r="3" style="fill: #0000ff;"/>
  <circle cx="180.228841" cy="196.495586" r="3" style="fill: #ffff00;"/>
  <circle cx="258.384002" cy="179.728825" r="3" style="fill: #ffff00;"/>
 </g>
</svg>