<svg xmlns:xlink="http://www.w3.org/1999/xlink" width="432pt" height="288pt" viewBox="0 0 432 288" xmlns="http://www.w3.org/2000/svg" version="1.1">
 <defs>
  <path id="m47f11c4aef" d="M 0 3 
C 0.795609 3 1.55874 2.683901 2.12132 2.12132 
C 2.683901 1.55874 3 0.795609 3 0 
C 3 -0.795609 2.683901 -1.55874 2.12132 -2.12132 
C 1.55874 -2.683901 0.795609 -3 0 -3 
C -0.795609 -3 -1.55874 -2.683901 -2.12132 -2.12132 
C -2.683901 -1.55874 -3 -0.795609 -3 0 
C -3 0.795609 -2.683901 1.55874 -2.12132 2.12132 
C -1.55874 2.683901 -0.795609 3 0 3 
z"/>
 </defs>
 <g>
  <use xlink:href="#m47f11c4aef" x="85.284669" y="56.622828" style="fill: #ff0000;"/>
  <use xlink:href="#m47f11c4aef" x="72.003289" y="46.796642" style="fill: #ff0000;"/>
  <use xlink:href="#m47f11c4aef" x="86.64295" y="56.426122" style="fill: #ff0000;"/>
  <use xlink:href="#m47f11c4aef" x="84.584375" y="55.994104" style="fill: #ff0000;"/>
  <use xlink:href="#m47f11c4aef" x="96.572926" y="64.635749" style="fill: #ff0000;"/>
  <use xlink:href="#m47f11c4aef" x="85.85806" y="53.607966" style="fill: #ff0000;"/>
  <use xlink:href="#m47f11c4aef" x="83.390856" y="56.606298" style="fill: #ff0000;"/>
  <use xlink:href="#m47f11c4aef" x="79.917235" y="51.577511" style="fill: #ff0000;"/>
  <use xlink:href="#m47f11c4aef" x="75.953314" y="48.451469" style="fill: #ff0000;"/>
  <use xlink:href="#m47f11c4aef" x="79.615517" y="50.612107" style="fill: #ff0000;"/>
  <use xlink:href="#m47f11c4aef" x="81.313713" y="51.369058" style="fill: #ff0000;"/>
  <use xlink:href="#m47f11c4aef" x="69.218182" y="44.64" style="fill: #ff0000;"/>
  <use xlink:href="#m47f11c4aef" x="81.875419" y="53.678017" style="fill: #ff0000;"/>
  <use xlink:href="#m47f11c4aef" x="80.267666" y="50.82236" style="fill: #ff0000;"/>
  <use xlink:href="#m47f11c4aef" x="82.155892" y="53.032003" style="fill: #ff0000;"/>
  <use xlink:href="#m47f11c4aef" x="70.975138" y="45.798647" style="fill: #ff0000;"/>
  <use xlink:href="#m47f11c4aef" x="207.574674" y="137.468703" style="fill: #00ff00;"/>
  <use xlink:href="#m47f11c4aef" x="187.086233" y="119.96476" style="fill: #00ff00;"/>
  <use xlink:href="#m47f11c4aef" x="199.926844" y="127.968275" style="fill: #00ff00;"/>
  <use xlink:href="#m47f11c4aef" x="208.279832" y="137.64707" style="fill: #00ff00;"/>
  <use xlink:href="#m47f11c4aef" x="198.726665" y="129.023342" style="fill: #00ff00;"/>
  <use xlink:href="#m47f11c4aef" x="198.99161" y="127.534912" style="fill: #00ff00;"/>
  <use xlink:href="#m47f11c4aef" x="183.801536" y="119.585114" style="fill: #00ff00;"/>
  <use xlink:href="#m47f11c4aef" x="209.543755" y="135.444719" style="fill: #00ff00;"/>
  <use xlink:href="#m47f11c4aef" x="200.448645" y="131.805126" style="fill: #00ff00;"/>
  <use xlink:href="#m47f11c4aef" x="177.454804" y="114.982312" style="fill: #00ff00;"/>
  <use xlink:href="#m47f11c4aef" x="193.485076" y="125.530181" style="fill: #00ff00;"/>
  <use xlink:href="#m47f11c4aef" x="209.385639" y="133.792729" style="fill: #00ff00;"/>
  <use xlink:href="#m47f11c4aef" x="197.036097" y="129.323571" style="fill: #00ff00;"/>
  <use xlink:href="#m47f11c4aef" x="202.936407" y="132.315181" style="fill: #00ff00;"/>
  <use xlink:href="#m47f11c4aef" x="200.650925" y="132.609291" style="fill: #00ff00;"/>
  <use xlink:href="#m47f11c4aef" x="220.948329" y="145.854138" style="fill: #00ff00;"/>
  <use xlink:href="#m47f11c4aef" x="341.154784" y="223.423847" style="fill: #0000ff;"/>
  <use xlink:href="#m47f11c4aef" x="362.181309" y="236.734788" style="fill: #0000ff;"/>
  <use xlink:href="#m47f11c4aef" x="366.205274" y="237.639462" style="fill: #0000ff;"/>
  <use xlink:href="#m47f11c4aef" x="367.545801" y="242.96516" style="fill: #0000ff;"/>
  <use xlink:href="#m47f11c4aef" x="351.8369" y="230.146253" style="fill: #0000ff;"/>
  <use xlink:href="#m47f11c4aef" x="355.274042" y="233.088271" style="fill: #0000ff;"/>
  <use xlink:href="#m47f11c4aef" x="349.901858" y="230.405636" style="fill: #0000ff;"/>
  <use xlink:href="#m47f11c4aef" x="368.649305" y="241.288762" style="fill: #0000ff;"/>
  <use xlink:href="#m47f11c4aef" x="363.525193" y="237.048802" style="fill: #0000ff;"/>
  <use xlink:href="#m47f11c4aef" x="349.96672" y="230.712083" style="fill: #0000ff;"/>
  <use xlink:href="#m47f11c4aef" x="358.728549" y="235.861584" style="fill: #0000ff;"/>
  <use xlink:href="#m47f11c4aef" x="365.200818" y="235.532822" style="fill: #0000ff;"/>
  <use xlink:href="#m47f11c4aef" x="342.331726" y="222.022803" style="fill: #0000ff;"/>
  <use xlink:href="#m47f11c4aef" x="368.437206" y="241.201151" style="fill: #0000ff;"/>
  <use xlink:href="#m47f11c4aef" x="357.970512" y="234.046121" style="fill: #0000ff;"/>
  <use xlink:href="#m47f11c4aef" x="373.581818" y="246.24" style="fill: #0000ff;"/>
  <use xlink:href="#m47f11c4aef" x="332.850462" y="236.512167" style="fill: #0000ff;"/>
 </g>
</svg>