<svg xmlns:xlink="http://www.w3.org/1999/xlink" width="432pt" height="288pt" viewBox="0 0 432 288" xmlns="http://www.w3.org/2000/svg" version="1.1">
 <defs>
  <path id="m903b62ebb2" d="M 0 3 
C 0.795609 3 1.55874 2.683901 2.12132 2.12132 
C 2.683901 1.55874 3 0.795609 3 0 
C 3 -0.795609 2.683901 -1.55874 2.12132 -2.12132 
C 1.55874 -2.683901 0.795609 -3 0 -3 
C -0.795609 -3 -1.55874 -2.683901 -2.12132 -2.12132 
C -2.683901 -1.55874 -3 -0.795609 -3 0 
C -3 0.795609 -2.683901 1.55874 -2.12132 2.12132 
C -1.55874 2.683901 -0.795609 3 0 3 
z"/>
 </defs>
 <g>
  <!-- Cluster 1 -->
  <use xlink:href="#m903b62ebb2" x="92.006643" y="63.797719" style="fill: #ff0000;"/>
  <use xlink:href="#m903b62ebb2" x="113.860772" y="78.219731" style="fill: #ff0000;"/>
  <use xlink:href="#m903b62ebb2" x="100.919736" y="68.043065" style="fill: #ff0000;"/>
  <use xlink:href="#m903b62ebb2" x="95.893936" y="65.982151" style="fill: #ff0000;"/>
  <use xlink:href="#m903b62ebb2" x="71.137596" y="47.833328" style="fill: #ff0000;"/>
  <use xlink:href="#m903b62ebb2" x="98.881428" y="64.324945" style="fill: #ff0000;"/>
  <use xlink:href="#m903b62ebb2" x="102.482438" y="68.228758" style="fill: #ff0000;"/>
  <use xlink:href="#m903b62ebb2" x="99.035229" y="70.139105" style="fill: #ff0000;"/>
  <use xlink:href="#m903b62ebb2" x="93.36224" y="65.301091" style="fill: #ff0000;"/>
  <use xlink:href="#m903b62ebb2" x="69.218182" y="44.64" style="fill: #ff0000;"/>
  <use xlink:href="#m903b62ebb2" x="74.697569" y="50.679417" style="fill: #ff0000;"/>
  <use xlink:href="#m903b62ebb2" x="86.179324" y="61.827413" style="fill: #ff0000;"/>
  <use xlink:href="#m903b62ebb2" x="106.019166" y="53.361149" style="fill: #ff0000;"/>
  
  <!-- Cluster 2 -->
  <use xlink:href="#m903b62ebb2" x="348.5206" y="231.02934" style="fill: #0000ff;"/>
  <use xlink:href="#m903b62ebb2" x="345.230049" y="229.493244" style="fill: #0000ff;"/>
  <use xlink:href="#m903b62ebb2" x="344.785767" y="228.369816" style="fill: #0000ff;"/>
  <use xlink:href="#m903b62ebb2" x="333.286965" y="223.306297" style="fill: #0000ff;"/>
  <use xlink:href="#m903b62ebb2" x="346.137361" y="230.276317" style="fill: #0000ff;"/>
  <use xlink:href="#m903b62ebb2" x="350.259152" y="233.527393" style="fill: #0000ff;"/>
  <use xlink:href="#m903b62ebb2" x="337.770854" y="228.704551" style="fill: #0000ff;"/>
  <use xlink:href="#m903b62ebb2" x="345.470507" y="229.558676" style="fill: #0000ff;"/>
  <use xlink:href="#m903b62ebb2" x="373.581818" y="246.24" style="fill: #0000ff;"/>
  <use xlink:href="#m903b62ebb2" x="346.465342" y="231.106538" style="fill: #0000ff;"/>
  <use xlink:href="#m903b62ebb2" x="325.482056" y="213.964001" style="fill: #0000ff;"/>
  <use xlink:href="#m903b62ebb2" x="351.98452" y="233.555598" style="fill: #0000ff;"/>
  <use xlink:href="#m903b62ebb2" x="348.964426" y="232.058174" style="fill: #0000ff;"/>
  <use xlink:href="#m903b62ebb2" x="336.231182" y="221.778345" style="fill: #0000ff;"/>
  <use xlink:href="#m903b62ebb2" x="344.91385" y="226.490203" style="fill: #0000ff;"/>
  <use xlink:href="#m903b62ebb2" x="300.254831" y="201.734592" style="fill: #0000ff;"/>
  <use xlink:href="#m903b62ebb2" x="325.152003" y="214.405636" style="fill: #0000ff;"/>
  <use xlink:href="#m903b62ebb2" x="345.824558" y="225.777773" style="fill: #0000ff;"/>
  <use xlink:href="#m903b62ebb2" x="366.854576" y="245.120149" style="fill: #0000ff;"/>
  <use xlink:href="#m903b62ebb2" x="344.481786" y="228.740264" style="fill: #0000ff;"/>
  <use xlink:href="#m903b62ebb2" x="347.870549" y="233.337793" style="fill: #0000ff;"/>
  <use xlink:href="#m903b62ebb2" x="316.87466" y="208.80104" style="fill: #0000ff;"/>
 </g>
</svg>