<svg width="432pt" height="288pt" viewBox="0 0 432 288" xmlns="http://www.w3.org/2000/svg" version="1.1">
 <defs>
  <path id="m65855dab1a" d="M 0 3 
C 0.795609 3 1.55874 2.683901 2.12132 2.12132 
C 2.683901 1.55874 3 0.795609 3 0 
C 3 -0.795609 2.683901 -1.55874 2.12132 -2.12132 
C 1.55874 -2.683901 0.795609 -3 0 -3 
C -0.795609 -3 -1.55874 -2.683901 -2.12132 -2.12132 
C -2.683901 -1.55874 -3 -0.795609 -3 0 
C -3 0.795609 -2.683901 1.55874 -2.12132 2.12132 
C -1.55874 2.683901 -0.795609 3 0 3 
z"/>
 </defs>
 <g>
  <use xlink:href="#m65855dab1a" x="132.28839" y="59.950694" style="fill: red;"/>
  <use xlink:href="#m65855dab1a" x="137.531209" y="53.974584" style="fill: red;"/>
  <use xlink:href="#m65855dab1a" x="132.108371" y="48.112932" style="fill: red;"/>
  <use xlink:href="#m65855dab1a" x="131.810325" y="58.783479" style="fill: red;"/>
  <use xlink:href="#m65855dab1a" x="134.749066" y="54.524126" style="fill: red;"/>
  <use xlink:href="#m65855dab1a" x="154.577504" y="61.630122" style="fill: red;"/>
  <use xlink:href="#m65855dab1a" x="135.476534" y="72.883851" style="fill: red;"/>
  <use xlink:href="#m65855dab1a" x="143.991449" y="76.091823" style="fill: red;"/>
  <use xlink:href="#m65855dab1a" x="138.621372" y="71.820621" style="fill: red;"/>
  <use xlink:href="#m65855dab1a" x="146.965404" y="51.941402" style="fill: red;"/>
  <use xlink:href="#m65855dab1a" x="147.586392" y="51.714784" style="fill: red;"/>
  <use xlink:href="#m65855dab1a" x="134.871362" y="63.492273" style="fill: red;"/>
  <use xlink:href="#m65855dab1a" x="155.300299" y="74.91296" style="fill: red;"/>
  <use xlink:href="#m65855dab1a" x="132.479139" y="49.90825" style="fill: red;"/>
  <use xlink:href="#m65855dab1a" x="135.552084" y="46.175164" style="fill: red;"/>
  <use xlink:href="#m65855dab1a" x="170.302583" y="87.462921" style="fill: red;"/>
  <use xlink:href="#m65855dab1a" x="145.272977" y="73.938603" style="fill: red;"/>
  <use xlink:href="#m65855dab1a" x="130.911691" y="49.347164" style="fill: red;"/>
  <use xlink:href="#m65855dab1a" x="139.30277" y="73.495757" style="fill: red;"/>
  <use xlink:href="#m65855dab1a" x="140.014369" y="69.912112" style="fill: red;"/>
  <use xlink:href="#m65855dab1a" x="143.677956" y="55.594258" style="fill: red;"/>
  <use xlink:href="#m65855dab1a" x="125.219151" y="44.64" style="fill: red;"/>
  <use xlink:href="#m65855dab1a" x="133.922047" y="65.902306" style="fill: red;"/>
  <use xlink:href="#m65855dab1a" x="138.403381" y="59.023767" style="fill: red;"/>
  <use xlink:href="#m65855dab1a" x="315.887612" y="185.978534" style="fill: blue;"/>
  <use xlink:href="#m65855dab1a" x="326.429166" y="188.547887" style="fill: blue;"/>
  <use xlink:href="#m65855dab1a" x="344.782202" y="221.157003" style="fill: blue;"/>
  <use xlink:href="#m65855dab1a" x="351.84665" y="228.337558" style="fill: blue;"/>
  <use xlink:href="#m65855dab1a" x="373.581818" y="244.478565" style="fill: blue;"/>
  <use xlink:href="#m65855dab1a" x="362.744929" y="230.740476" style="fill: blue;"/>
  <use xlink:href="#m65855dab1a" x="351.287292" y="246.24" style="fill: blue;"/>
  <use xlink:href="#m65855dab1a" x="362.386367" y="234.161836" style="fill: blue;"/>
  <use xlink:href="#m65855dab1a" x="359.221345" y="217.466221" style="fill: blue;"/>
  <use xlink:href="#m65855dab1a" x="328.079998" y="206.347217" style="fill: blue;"/>
  <use xlink:href="#m65855dab1a" x="336.746262" y="203.127679" style="fill: blue;"/>
  <use xlink:href="#m65855dab1a" x="359.070333" y="224.805986" style="fill: blue;"/>
  <use xlink:href="#m65855dab1a" x="331.990663" y="204.673518" style="fill: blue;"/>
  <use xlink:href="#m65855dab1a" x="324.766502" y="202.473657" style="fill: blue;"/>
  <use xlink:href="#m65855dab1a" x="365.487351" y="227.454191" style="fill: blue;"/>
  <use xlink:href="#m65855dab1a" x="355.240602" y="213.827658" style="fill: blue;"/>
  <use xlink:href="#m65855dab1a" x="328.571878" y="202.814912" style="fill: blue;"/>
  <use xlink:href="#m65855dab1a" x="323.195284" y="176.181576" style="fill: blue;"/>
  <use xlink:href="#m65855dab1a" x="359.287473" y="235.094201" style="fill: blue;"/>
  <use xlink:href="#m65855dab1a" x="319.536584" y="190.391833" style="fill: blue;"/>
  <use xlink:href="#m65855dab1a" x="354.37193" y="201.553201" style="fill: blue;"/>
  <use xlink:href="#m65855dab1a" x="341.80371" y="192.656996" style="fill: blue;"/>
  <use xlink:href="#m65855dab1a" x="325.879838" y="199.590012" style="fill: blue;"/>
  <use xlink:href="#m65855dab1a" x="346.08075" y="208.031772" style="fill: blue;"/>
  <use xlink:href="#m65855dab1a" x="69.218182" y="161.547615" style="fill: green;"/>
 </g>
</svg>