<?xml version="1.0" encoding="utf-8"?>
<svg width="432pt" height="288pt" viewBox="0 0 432 288" xmlns="http://www.w3.org/2000/svg" version="1.1">
  <g>
    <circle cx="103.871387" cy="229.590824" r="3" fill="#ff0000"/>
    <circle cx="108.908508" cy="232.671358" r="3" fill="#ff0000"/>
    <circle cx="109.311441" cy="229.106378" r="3" fill="#ff0000"/>
    <circle cx="115.736799" cy="217.064096" r="3" fill="#ff0000"/>
    <circle cx="97.858016" cy="230.839564" r="3" fill="#ff0000"/>
    <circle cx="108.933018" cy="235.789081" r="3" fill="#ff0000"/>
    <circle cx="94.318292" cy="239.938114" r="3" fill="#ff0000"/>
    <circle cx="86.91645" cy="233.141712" r="3" fill="#ff0000"/>
    <circle cx="104.514046" cy="236.936814" r="3" fill="#ff0000"/>
    <circle cx="122.819798" cy="242.462804" r="3" fill="#ff0000"/>
    <circle cx="109.13317" cy="228.267271" r="3" fill="#ff0000"/>
    <circle cx="117.881918" cy="232.005668" r="3" fill="#ff0000"/>
    <circle cx="95.400844" cy="240.668888" r="3" fill="#ff0000"/>
    <circle cx="69.218182" cy="246.24" r="3" fill="#ff0000"/>
    <circle cx="101.666121" cy="232.566599" r="3" fill="#ff0000"/>
    <circle cx="99.64918" cy="236.966656" r="3" fill="#ff0000"/>
    <circle cx="178.052905" cy="223.57963" r="3" fill="#00ff00"/>
    <circle cx="173.543141" cy="216.103699" r="3" fill="#00ff00"/>
    <circle cx="192.828305" cy="212.466219" r="3" fill="#00ff00"/>
    <circle cx="182.567402" cy="223.835182" r="3" fill="#00ff00"/>
    <circle cx="197.302996" cy="216.882085" r="3" fill="#00ff00"/>
    <circle cx="160.772006" cy="226.241221" r="3" fill="#00ff00"/>
    <circle cx="170.028379" cy="224.451456" r="3" fill="#00ff00"/>
    <circle cx="187.254685" cy="214.022342" r="3" fill="#00ff00"/>
    <circle cx="195.865354" cy="221.564429" r="3" fill="#00ff00"/>
    <circle cx="189.150937" cy="221.771557" r="3" fill="#00ff00"/>
    <circle cx="191.046011" cy="210.21319" r="3" fill="#00ff00"/>
    <circle cx="192.073729" cy="215.200297" r="3" fill="#00ff00"/>
    <circle cx="206.907595" cy="209.395964" r="3" fill="#00ff00"/>
    <circle cx="178.856205" cy="212.309413" r="3" fill="#00ff00"/>
    <circle cx="199.645532" cy="220.749796" r="3" fill="#00ff00"/>
    <circle cx="184.182358" cy="229.726932" r="3" fill="#00ff00"/>
    <circle cx="285.139862" cy="211.810796" r="3" fill="#0000ff"/>
    <circle cx="270.302492" cy="195.961295" r="3" fill="#0000ff"/>
    <circle cx="293.914013" cy="191.676787" r="3" fill="#0000ff"/>
    <circle cx="281.626976" cy="205.346575" r="3" fill="#0000ff"/>
    <circle cx="262.309973" cy="212.951161" r="3" fill="#0000ff"/>
    <circle cx="265.923139" cy="212.117519" r="3" fill="#0000ff"/>
    <circle cx="272.010471" cy="194.976368" r="3" fill="#0000ff"/>
    <circle cx="273.344686" cy="215.954093" r="3" fill="#0000ff"/>
    <circle cx="299.688931" cy="202.56726" r="3" fill="#0000ff"/>
    <circle cx="268.364006" cy="215.801142" r="3" fill="#0000ff"/>
    <circle cx="283.442908" cy="203.08196" r="3" fill="#0000ff"/>
    <circle cx="272.645377" cy="192.847569" r="3" fill="#0000ff"/>
    <circle cx="273.884633" cy="213.333167" r="3" fill="#0000ff"/>
    <circle cx="273.918041" cy="194.537061" r="3" fill="#0000ff"/>
    <circle cx="262.560827" cy="204.034801" r="3" fill="#0000ff"/>
    <circle cx="272.768508" cy="201.960304" r="3" fill="#0000ff"/>
    <circle cx="220.684756" cy="44.64" r="3" fill="#ff00ff"/>
    <circle cx="373.581818" cy="235.012394" r="3" fill="#ff00ff"/>
  </g>
</svg>