<?xml version="1.0" encoding="UTF-8" standalone="no"?>
<svg xmlns:xlink="http://www.w3.org/1999/xlink" width="432pt" height="288pt" viewBox="0 0 432 288" xmlns="http://www.w3.org/2000/svg" version="1.1">
  <defs>
    <style type="text/css">*{stroke-linejoin: round; stroke-linecap: butt}</style>
    <path id="m30d36d1042" d="M 0 3 C 0.795609 3 1.55874 2.683901 2.12132 2.12132 C 2.683901 1.55874 3 0.795609 3 0 C 3 -0.795609 2.683901 -1.55874 2.12132 -2.12132 C 1.55874 -2.683901 0.795609 -3 0 -3 C -0.795609 -3 -1.55874 -2.683901 -2.12132 -2.12132 C -2.683901 -1.55874 -3 -0.795609 -3 0 C -3 0.795609 -2.683901 1.55874 -2.12132 2.12132 C -1.55874 2.683901 -0.795609 3 0 3 z"/>
  </defs>
  <g>
    <!-- Cluster 1 -->
    <use xlink:href="#m30d36d1042" x="97.618235" y="97.411793" style="fill: #ff0000;"/>
    <use xlink:href="#m30d36d1042" x="125.270939" y="88.763238" style="fill: #ff0000;"/>
    <use xlink:href="#m30d36d1042" x="106.67936" y="112.34914" style="fill: #ff0000;"/>
    <use xlink:href="#m30d36d1042" x="95.15099" y="87.646796" style="fill: #ff0000;"/>
    <use xlink:href="#m30d36d1042" x="113.567654" y="76.85269" style="fill: #ff0000;"/>
    <use xlink:href="#m30d36d1042" x="93.950386" y="80.3447" style="fill: #ff0000;"/>
    <use xlink:href="#m30d36d1042" x="99.348816" y="74.211608" style="fill: #ff0000;"/>
    <use xlink:href="#m30d36d1042" x="83.002595" y="75.473437" style="fill: #ff0000;"/>
    <use xlink:href="#m30d36d1042" x="69.218182" y="56.090734" style="fill: #ff0000;"/>
    <!-- Cluster 2 -->
    <use xlink:href="#m30d36d1042" x="247.796364" y="163.408364" style="fill: #0000ff;"/>
    <use xlink:href="#m30d36d1042" x="221.778948" y="157.912909" style="fill: #0000ff;"/>
    <use xlink:href="#m30d36d1042" x="241.077006" y="161.830123" style="fill: #0000ff;"/>
    <use xlink:href="#m30d36d1042" x="235.516951" y="158.657136" style="fill: #0000ff;"/>
    <use xlink:href="#m30d36d1042" x="226.328158" y="161.804126" style="fill: #0000ff;"/>
    <use xlink:href="#m30d36d1042" x="232.019725" y="159.887159" style="fill: #0000ff;"/>
    <use xlink:href="#m30d36d1042" x="227.310468" y="162.96451" style="fill: #0000ff;"/>
    <use xlink:href="#m30d36d1042" x="222.783185" y="172.488363" style="fill: #0000ff;"/>
    <use xlink:href="#m30d36d1042" x="258.747902" y="172.794736" style="fill: #0000ff;"/>
    <use xlink:href="#m30d36d1042" x="262.904374" y="199.371847" style="fill: #0000ff;"/>
    <!-- Cluster 3 -->
    <use xlink:href="#m30d36d1042" x="372.773221" y="244.910856" style="fill: #00ff00;"/>
    <use xlink:href="#m30d36d1042" x="337.782102" y="240.020309" style="fill: #00ff00;"/>
    <use xlink:href="#m30d36d1042" x="334.246034" y="220.075926" style="fill: #00ff00;"/>
    <use xlink:href="#m30d36d1042" x="301.598207" y="211.194033" style="fill: #00ff00;"/>
    <use xlink:href="#m30d36d1042" x="345.3963" y="194.844692" style="fill: #00ff00;"/>
    <use xlink:href="#m30d36d1042" x="334.139677" y="206.661791" style="fill: #00ff00;"/>
    <use xlink:href="#m30d36d1042" x="333.664971" y="179.663273" style="fill: #00ff00;"/>
    <use xlink:href="#m30d36d1042" x="340.166017" y="177.726465" style="fill: #00ff00;"/>
    <use xlink:href="#m30d36d1042" x="346.128706" y="203.428589" style="fill: #00ff00;"/>
    <use xlink:href="#m30d36d1042" x="351.170953" y="191.521452" style="fill: #00ff00;"/>
    <use xlink:href="#m30d36d1042" x="322.11681" y="187.730927" style="fill: #00ff00;"/>
    <use xlink:href="#m30d36d1042" x="341.380239" y="207.014979" style="fill: #00ff00;"/>
    <use xlink:href="#m30d36d1042" x="320.239987" y="209.628476" style="fill: #00ff00;"/>
    <use xlink:href="#m30d36d1042" x="348.224765" y="241.691164" style="fill: #00ff00;"/>
    <use xlink:href="#m30d36d1042" x="373.581818" y="246.24" style="fill: #00ff00;"/>
    <use xlink:href="#m30d36d1042" x="297.616786" y="200.06925" style="fill: #00ff00;"/>
    <use xlink:href="#m30d36d1042" x="355.61667" y="204.164113" style="fill: #00ff00;"/>
  </g>
</svg>