<?xml version="1.0" encoding="utf-8"?>
<svg xmlns:xlink="http://www.w3.org/1999/xlink" width="432pt" height="288pt" viewBox="0 0 432 288" xmlns="http://www.w3.org/2000/svg" version="1.1">
 <defs>
  <style type="text/css">*{stroke-linejoin: round; stroke-linecap: butt}</style>
  <path id="circle" d="M 0 3 C 0.795609 3 1.55874 2.683901 2.12132 2.12132 C 2.683901 1.55874 3 0.795609 3 0 C 3 -0.795609 2.683901 -1.55874 2.12132 -2.12132 C 1.55874 -2.683901 0.795609 -3 0 -3 C -0.795609 -3 -1.55874 -2.683901 -2.12132 -2.12132 C -2.683901 -1.55874 -3 -0.795609 -3 0 C -3 0.795609 -2.683901 1.55874 -2.12132 2.12132 C -1.55874 2.683901 -0.795609 3 0 3 z"/>
 </defs>
 <g>
  <!-- Cluster 1 -->
  <use xlink:href="#circle" x="98.220413" y="150.757093" style="fill: #ff0000;"/>
  <use xlink:href="#circle" x="75.11167" y="143.868361" style="fill: #ff0000;"/>
  <use xlink:href="#circle" x="76.191506" y="187.509189" style="fill: #ff0000;"/>
  <use xlink:href="#circle" x="84.6782" y="164.195641" style="fill: #ff0000;"/>
  <use xlink:href="#circle" x="85.652079" y="169.218164" style="fill: #ff0000;"/>
  <use xlink:href="#circle" x="81.931815" y="151.533744" style="fill: #ff0000;"/>
  <use xlink:href="#circle" x="93.271705" y="195.539006" style="fill: #ff0000;"/>
  <use xlink:href="#circle" x="79.440701" y="175.567503" style="fill: #ff0000;"/>
  <use xlink:href="#circle" x="87.477141" y="191.441849" style="fill: #ff0000;"/>
  <use xlink:href="#circle" x="69.218182" y="223.583165" style="fill: #ff0000;"/>
  <use xlink:href="#circle" x="100.328564" y="177.156427" style="fill: #ff0000;"/>
  <use xlink:href="#circle" x="93.875749" y="230.565045" style="fill: #ff0000;"/>
  <use xlink:href="#circle" x="83.947141" y="190.108721" style="fill: #ff0000;"/>
  <use xlink:href="#circle" x="88.842551" y="215.221615" style="fill: #ff0000;"/>
  <use xlink:href="#circle" x="80.814134" y="202.038675" style="fill: #ff0000;"/>
  <use xlink:href="#circle" x="78.672461" y="180.579229" style="fill: #ff0000;"/>
  
  <!-- Cluster 2 -->
  <use xlink:href="#circle" x="170.828639" y="186.169254" style="fill: #00ff00;"/>
  <use xlink:href="#circle" x="173.020869" y="189.431468" style="fill: #00ff00;"/>
  <use xlink:href="#circle" x="158.144144" y="188.243035" style="fill: #00ff00;"/>
  <use xlink:href="#circle" x="171.274866" y="182.211718" style="fill: #00ff00;"/>
  <use xlink:href="#circle" x="164.143559" y="201.063715" style="fill: #00ff00;"/>
  <use xlink:href="#circle" x="166.061072" y="192.883537" style="fill: #00ff00;"/>
  <use xlink:href="#circle" x="147.75443" y="181.319043" style="fill: #00ff00;"/>
  <use xlink:href="#circle" x="182.561232" y="224.512721" style="fill: #00ff00;"/>
  <use xlink:href="#circle" x="162.452957" y="190.388552" style="fill: #00ff00;"/>
  <use xlink:href="#circle" x="155.110076" y="175.591398" style="fill: #00ff00;"/>
  <use xlink:href="#circle" x="170.302035" y="168.827402" style="fill: #00ff00;"/>
  <use xlink:href="#circle" x="184.220291" y="189.072976" style="fill: #00ff00;"/>
  <use xlink:href="#circle" x="155.829977" y="187.236781" style="fill: #00ff00;"/>
  <use xlink:href="#circle" x="183.447154" y="172.717436" style="fill: #00ff00;"/>
  <use xlink:href="#circle" x="191.605958" y="153.174906" style="fill: #00ff00;"/>
  <use xlink:href="#circle" x="158.184532" y="223.729445" style="fill: #00ff00;"/>
  
  <!-- Cluster 3 -->
  <use xlink:href="#circle" x="257.505001" y="246.24" style="fill: #0000ff;"/>
  <use xlink:href="#circle" x="247.808614" y="184.936027" style="fill: #0000ff;"/>
  <use xlink:href="#circle" x="250.422652" y="185.173209" style="fill: #0000ff;"/>
  <use xlink:href="#circle" x="248.741807" y="172.616054" style="fill: #0000ff;"/>
  <use xlink:href="#circle" x="276.143856" y="223.552378" style="fill: #0000ff;"/>
  <use xlink:href="#circle" x="279.099174" y="213.980873" style="fill: #0000ff;"/>
  <use xlink:href="#circle" x="261.074489" y="222.216365" style="fill: #0000ff;"/>
  <use xlink:href="#circle" x="268.281454" y="214.236029" style="fill: #0000ff;"/>
  <use xlink:href="#circle" x="290.103902" y="229.422837" style="fill: #0000ff;"/>
  <use xlink:href="#circle" x="233.929488" y="157.329821" style="fill: #0000ff;"/>
  <use xlink:href="#circle" x="237.693147" y="187.066265" style="fill: #0000ff;"/>
  <use xlink:href="#circle" x="263.222681" y="206.763423" style="fill: #0000ff;"/>
  <use xlink:href="#circle" x="249.604279" y="175.113738" style="fill: #0000ff;"/>
  <use xlink:href="#circle" x="237.158261" y="235.494581" style="fill: #0000ff;"/>
  <use xlink:href="#circle" x="267.421948" y="222.213295" style="fill: #0000ff;"/>
  <use xlink:href="#circle" x="246.065929" y="134.684668" style="fill: #0000ff;"/>
  
  <!-- Cluster 4 -->
  <use xlink:href="#circle" x="373.581818" y="44.64" style="fill: #ffff00;"/>
  <use xlink:href="#circle" x="368.552508" y="93.732039" style="fill: #ffff00;"/>
 </g>
</svg>