<?xml version="1.0" encoding="utf-8"?>
<svg xmlns:xlink="http://www.w3.org/1999/xlink" width="432pt" height="288pt" viewBox="0 0 432 288" xmlns="http://www.w3.org/2000/svg" version="1.1">
 <defs>
  <style type="text/css">*{stroke-linejoin: round; stroke-linecap: butt}</style>
  <path id="m87a4ee3ad3" d="M 0 3 
C 0.795609 3 1.55874 2.683901 2.12132 2.12132 
C 2.683901 1.55874 3 0.795609 3 0 
C 3 -0.795609 2.683901 -1.55874 2.12132 -2.12132 
C 1.55874 -2.683901 0.795609 -3 0 -3 
C -0.795609 -3 -1.55874 -2.683901 -2.12132 -2.12132 
C -2.683901 -1.55874 -3 -0.795609 -3 0 
C -3 0.795609 -2.683901 1.55874 -2.12132 2.12132 
C -1.55874 2.683901 -0.795609 3 0 3 
z"/>
 </defs>
 <g>
  <!-- Cluster 1 -->
  <use xlink:href="#m87a4ee3ad3" x="121.611333" y="125.730963" style="fill: #ff0000;"/>
  <use xlink:href="#m87a4ee3ad3" x="107.331095" y="81.584857" style="fill: #ff0000;"/>
  <use xlink:href="#m87a4ee3ad3" x="109.002161" y="108.899262" style="fill: #ff0000;"/>
  <use xlink:href="#m87a4ee3ad3" x="79.788911" y="88.961066" style="fill: #ff0000;"/>
  <use xlink:href="#m87a4ee3ad3" x="113.236623" y="112.988177" style="fill: #ff0000;"/>
  <use xlink:href="#m87a4ee3ad3" x="110.90159" y="124.774655" style="fill: #ff0000;"/>
  <use xlink:href="#m87a4ee3ad3" x="117.924562" y="89.398627" style="fill: #ff0000;"/>
  <use xlink:href="#m87a4ee3ad3" x="69.218182" y="72.558681" style="fill: #ff0000;"/>
  <use xlink:href="#m87a4ee3ad3" x="96.185742" y="113.076889" style="fill: #ff0000;"/>
  <use xlink:href="#m87a4ee3ad3" x="95.320216" y="112.733557" style="fill: #ff0000;"/>
  <use xlink:href="#m87a4ee3ad3" x="108.849985" y="60.818437" style="fill: #ff0000;"/>
  <use xlink:href="#m87a4ee3ad3" x="95.288278" y="84.266133" style="fill: #ff0000;"/>
  <use xlink:href="#m87a4ee3ad3" x="125.192957" y="99.235586" style="fill: #ff0000;"/>
  <use xlink:href="#m87a4ee3ad3" x="114.517202" y="77.642355" style="fill: #ff0000;"/>
  <use xlink:href="#m87a4ee3ad3" x="92.720625" y="72.370045" style="fill: #ff0000;"/>
  <use xlink:href="#m87a4ee3ad3" x="132.120948" y="100.077987" style="fill: #ff0000;"/>
  
  <!-- Cluster 2 -->
  <use xlink:href="#m87a4ee3ad3" x="186.1685" y="132.727163" style="fill: #00ff00;"/>
  <use xlink:href="#m87a4ee3ad3" x="175.9096" y="105.196778" style="fill: #00ff00;"/>
  <use xlink:href="#m87a4ee3ad3" x="208.442459" y="156.718465" style="fill: #00ff00;"/>
  <use xlink:href="#m87a4ee3ad3" x="210.002358" y="163.819072" style="fill: #00ff00;"/>
  <use xlink:href="#m87a4ee3ad3" x="186.839793" y="129.112986" style="fill: #00ff00;"/>
  <use xlink:href="#m87a4ee3ad3" x="218.674661" y="150.837842" style="fill: #00ff00;"/>
  <use xlink:href="#m87a4ee3ad3" x="203.396905" y="134.865992" style="fill: #00ff00;"/>
  <use xlink:href="#m87a4ee3ad3" x="184.784749" y="161.302907" style="fill: #00ff00;"/>
  <use xlink:href="#m87a4ee3ad3" x="177.959701" y="141.565787" style="fill: #00ff00;"/>
  <use xlink:href="#m87a4ee3ad3" x="204.580204" y="164.571091" style="fill: #00ff00;"/>
  <use xlink:href="#m87a4ee3ad3" x="193.854796" y="152.983408" style="fill: #00ff00;"/>
  <use xlink:href="#m87a4ee3ad3" x="189.615671" y="142.71031" style="fill: #00ff00;"/>
  <use xlink:href="#m87a4ee3ad3" x="172.671709" y="113.959321" style="fill: #00ff00;"/>
  <use xlink:href="#m87a4ee3ad3" x="195.4403" y="138.136013" style="fill: #00ff00;"/>
  <use xlink:href="#m87a4ee3ad3" x="178.822805" y="168.159903" style="fill: #00ff00;"/>
  <use xlink:href="#m87a4ee3ad3" x="218.889968" y="161.335451" style="fill: #00ff00;"/>
  
  <!-- Cluster 3 -->
  <use xlink:href="#m87a4ee3ad3" x="286.436324" y="184.119977" style="fill: #0000ff;"/>
  <use xlink:href="#m87a4ee3ad3" x="284.965" y="204.44136" style="fill: #0000ff;"/>
  <use xlink:href="#m87a4ee3ad3" x="299.384013" y="162.265236" style="fill: #0000ff;"/>
  <use xlink:href="#m87a4ee3ad3" x="289.226776" y="199.987491" style="fill: #0000ff;"/>
  <use xlink:href="#m87a4ee3ad3" x="288.000281" y="190.296499" style="fill: #0000ff;"/>
  <use xlink:href="#m87a4ee3ad3" x="278.731214" y="179.791713" style="fill: #0000ff;"/>
  <use xlink:href="#m87a4ee3ad3" x="299.079721" y="198.93637" style="fill: #0000ff;"/>
  <use xlink:href="#m87a4ee3ad3" x="268.128559" y="158.279662" style="fill: #0000ff;"/>
  <use xlink:href="#m87a4ee3ad3" x="276.953341" y="193.78367" style="fill: #0000ff;"/>
  <use xlink:href="#m87a4ee3ad3" x="283.873996" y="201.746915" style="fill: #0000ff;"/>
  <use xlink:href="#m87a4ee3ad3" x="305.129888" y="198.442265" style="fill: #0000ff;"/>
  <use xlink:href="#m87a4ee3ad3" x="296.025436" y="191.060281" style="fill: #0000ff;"/>
  <use xlink:href="#m87a4ee3ad3" x="279.161634" y="193.035946" style="fill: #0000ff;"/>
  <use xlink:href="#m87a4ee3ad3" x="264.908146" y="174.196673" style="fill: #0000ff;"/>
  <use xlink:href="#m87a4ee3ad3" x="280.024112" y="194.78984" style="fill: #0000ff;"/>
  <use xlink:href="#m87a4ee3ad3" x="301.657149" y="201.606398" style="fill: #0000ff;"/>
  
  <!-- Outliers -->
  <use xlink:href="#m87a4ee3ad3" x="373.581818" y="246.24" style="fill: #ff00ff;"/>
  <use xlink:href="#m87a4ee3ad3" x="358.76479" y="44.64" style="fill: #ff00ff;"/>
 </g>
</svg>