<?xml version="1.0" encoding="utf-8"?>
<svg width="432pt" height="288pt" viewBox="0 0 432 288" xmlns="http://www.w3.org/2000/svg" version="1.1">
  <g>
    <circle cx="144.787151" cy="168.388497" r="3" style="fill: red;"/>
    <circle cx="116.088128" cy="166.268079" r="3" style="fill: red;"/>
    <circle cx="137.013779" cy="145.549881" r="3" style="fill: red;"/>
    <circle cx="101.462152" cy="171.49033" r="3" style="fill: red;"/>
    <circle cx="141.9025" cy="145.973342" r="3" style="fill: red;"/>
    <circle cx="127.431365" cy="162.954676" r="3" style="fill: red;"/>
    <circle cx="142.015501" cy="129.420828" r="3" style="fill: red;"/>
    <circle cx="126.285464" cy="142.266094" r="3" style="fill: red;"/>
    <circle cx="118.662469" cy="148.139114" r="3" style="fill: red;"/>
    <circle cx="140.456882" cy="145.124386" r="3" style="fill: red;"/>
    <circle cx="117.220258" cy="188.309526" r="3" style="fill: red;"/>
    <circle cx="119.203512" cy="142.516493" r="3" style="fill: red;"/>
    <circle cx="130.168514" cy="162.839849" r="3" style="fill: red;"/>
    <circle cx="122.210211" cy="140.853704" r="3" style="fill: red;"/>
    <circle cx="117.866828" cy="146.705807" r="3" style="fill: red;"/>
    <circle cx="141.179637" cy="158.542417" r="3" style="fill: red;"/>
    <circle cx="181.412588" cy="104.902776" r="3" style="fill: blue;"/>
    <circle cx="186.249145" cy="131.548643" r="3" style="fill: blue;"/>
    <circle cx="201.976329" cy="92.363009" r="3" style="fill: blue;"/>
    <circle cx="191.683345" cy="97.897026" r="3" style="fill: blue;"/>
    <circle cx="187.464733" cy="106.440207" r="3" style="fill: blue;"/>
    <circle cx="174.725564" cy="120.056017" r="3" style="fill: blue;"/>
    <circle cx="199.496997" cy="93.375136" r="3" style="fill: blue;"/>
    <circle cx="196.144247" cy="125.050627" r="3" style="fill: blue;"/>
    <circle cx="192.155309" cy="110.824978" r="3" style="fill: blue;"/>
    <circle cx="198.053498" cy="109.270833" r="3" style="fill: blue;"/>
    <circle cx="190.040069" cy="100.93193" r="3" style="fill: blue;"/>
    <circle cx="196.502147" cy="99.896972" r="3" style="fill: blue;"/>
    <circle cx="200.768352" cy="100.266119" r="3" style="fill: blue;"/>
    <circle cx="207.368795" cy="114.230542" r="3" style="fill: blue;"/>
    <circle cx="199.091891" cy="105.186419" r="3" style="fill: blue;"/>
    <circle cx="194.991804" cy="115.498909" r="3" style="fill: blue;"/>
    <circle cx="257.015303" cy="71.184593" r="3" style="fill: green;"/>
    <circle cx="240.71558" cy="71.258575" r="3" style="fill: green;"/>
    <circle cx="246.239955" cy="81.373496" r="3" style="fill: green;"/>
    <circle cx="244.951431" cy="44.64" r="3" style="fill: green;"/>
    <circle cx="233.954453" cy="87.82604" r="3" style="fill: green;"/>
    <circle cx="252.023875" cy="68.624159" r="3" style="fill: green;"/>
    <circle cx="251.304063" cy="75.476208" r="3" style="fill: green;"/>
    <circle cx="256.573641" cy="60.561517" r="3" style="fill: green;"/>
    <circle cx="261.337292" cy="80.876814" r="3" style="fill: green;"/>
    <circle cx="261.802938" cy="66.367022" r="3" style="fill: green;"/>
    <circle cx="239.884322" cy="88.660095" r="3" style="fill: green;"/>
    <circle cx="246.080821" cy="87.33489" r="3" style="fill: green;"/>
    <circle cx="236.208708" cy="83.904214" r="3" style="fill: green;"/>
    <circle cx="239.627384" cy="108.668432" r="3" style="fill: green;"/>
    <circle cx="248.754377" cy="78.118645" r="3" style="fill: green;"/>
    <circle cx="249.980494" cy="74.182055" r="3" style="fill: green;"/>
    <circle cx="373.581818" cy="246.24" r="3" style="fill: purple;"/>
    <circle cx="69.218182" cy="243.588657" r="3" style="fill: purple;"/>
  </g>
</svg>