<?xml version="1.0" encoding="utf-8"?>
<svg xmlns:xlink="http://www.w3.org/1999/xlink" width="432pt" height="288pt" viewBox="0 0 432 288" xmlns="http://www.w3.org/2000/svg" version="1.1">
 <defs>
  <style type="text/css">*{stroke-linejoin: round; stroke-linecap: butt}</style>
 </defs>
 <g>
  <g>
    <circle cx="107.625206" cy="104.240365" r="3" style="fill: #ff0000;"/>
    <circle cx="69.218182" cy="100.708886" r="3" style="fill: #ff0000;"/>
    <circle cx="94.086761" cy="128.69622" r="3" style="fill: #ff0000;"/>
    <circle cx="82.392278" cy="119.118981" r="3" style="fill: #ff0000;"/>
    <circle cx="87.211638" cy="138.856201" r="3" style="fill: #ff0000;"/>
    <circle cx="100.521079" cy="137.899709" r="3" style="fill: #ff0000;"/>
    <circle cx="101.527735" cy="132.728676" r="3" style="fill: #ff0000;"/>
    <circle cx="115.962864" cy="126.665438" r="3" style="fill: #ff0000;"/>
    <circle cx="80.280756" cy="121.43486" r="3" style="fill: #ff0000;"/>
    <circle cx="99.334189" cy="146.47172" r="3" style="fill: #ff0000;"/>
    <circle cx="114.172986" cy="130.961401" r="3" style="fill: #ff0000;"/>
    <circle cx="101.834517" cy="128.951243" r="3" style="fill: #ff0000;"/>
    <circle cx="94.304123" cy="104.022038" r="3" style="fill: #ff0000;"/>
    <circle cx="123.626109" cy="144.309907" r="3" style="fill: #ff0000;"/>
    <circle cx="88.597115" cy="127.916695" r="3" style="fill: #ff0000;"/>
    <circle cx="94.09941" cy="103.001174" r="3" style="fill: #ff0000;"/>
    <circle cx="187.219336" cy="168.969378" r="3" style="fill: #00ff00;"/>
    <circle cx="177.252969" cy="170.625396" r="3" style="fill: #00ff00;"/>
    <circle cx="181.130041" cy="166.239724" r="3" style="fill: #00ff00;"/>
    <circle cx="172.345218" cy="142.111257" r="3" style="fill: #00ff00;"/>
    <circle cx="182.648216" cy="160.120903" r="3" style="fill: #00ff00;"/>
    <circle cx="172.780062" cy="149.22635" r="3" style="fill: #00ff00;"/>
    <circle cx="203.49249" cy="164.525304" r="3" style="fill: #00ff00;"/>
    <circle cx="158.98404" cy="151.563616" r="3" style="fill: #00ff00;"/>
    <circle cx="155.459379" cy="131.303119" r="3" style="fill: #00ff00;"/>
    <circle cx="179.646986" cy="152.019772" r="3" style="fill: #00ff00;"/>
    <circle cx="145.488839" cy="150.079741" r="3" style="fill: #00ff00;"/>
    <circle cx="179.878113" cy="163.661012" r="3" style="fill: #00ff00;"/>
    <circle cx="188.786683" cy="138.627777" r="3" style="fill: #00ff00;"/>
    <circle cx="170.737099" cy="126.619798" r="3" style="fill: #00ff00;"/>
    <circle cx="161.45903" cy="134.071216" r="3" style="fill: #00ff00;"/>
    <circle cx="185.218903" cy="179.65086" r="3" style="fill: #00ff00;"/>
    <circle cx="264.462572" cy="210.890826" r="3" style="fill: #0000ff;"/>
    <circle cx="249.208102" cy="210.804918" r="3" style="fill: #0000ff;"/>
    <circle cx="229.544188" cy="170.447267" r="3" style="fill: #0000ff;"/>
    <circle cx="250.103124" cy="172.840293" r="3" style="fill: #0000ff;"/>
    <circle cx="241.718152" cy="197.459712" r="3" style="fill: #0000ff;"/>
    <circle cx="249.853864" cy="192.878236" r="3" style="fill: #0000ff;"/>
    <circle cx="251.470735" cy="166.981004" r="3" style="fill: #0000ff;"/>
    <circle cx="252.042559" cy="195.488235" r="3" style="fill: #0000ff;"/>
    <circle cx="251.669082" cy="178.230527" r="3" style="fill: #0000ff;"/>
    <circle cx="256.896092" cy="182.632811" r="3" style="fill: #0000ff;"/>
    <circle cx="257.108202" cy="205.781326" r="3" style="fill: #0000ff;"/>
    <circle cx="260.943467" cy="164.899808" r="3" style="fill: #0000ff;"/>
    <circle cx="247.812136" cy="184.616789" r="3" style="fill: #0000ff;"/>
    <circle cx="246.44185" cy="186.82035" r="3" style="fill: #0000ff;"/>
    <circle cx="245.669558" cy="193.524588" r="3" style="fill: #0000ff;"/>
    <circle cx="254.56821" cy="156.66412" r="3" style="fill: #0000ff;"/>
    <circle cx="373.581818" cy="246.24" r="3" style="fill: #ff00ff;"/>
    <circle cx="140.295337" cy="44.64" r="3" style="fill: #ff00ff;"/>
  </g>
 </g>
</svg>