<?xml version="1.0" encoding="utf-8"?>
<svg xmlns:xlink="http://www.w3.org/1999/xlink" width="432pt" height="288pt" viewBox="0 0 432 288" xmlns="http://www.w3.org/2000/svg" version="1.1">
 <g>
  <circle cx="107.435103" cy="94.367919" r="3" style="fill: #ff0000;"/>
  <circle cx="99.656086" cy="165.008291" r="3" style="fill: #ff0000;"/>
  <circle cx="122.253995" cy="91.362898" r="3" style="fill: #ff0000;"/>
  <circle cx="91.38588" cy="45.940525" r="3" style="fill: #ff0000;"/>
  <circle cx="109.177358" cy="133.925737" r="3" style="fill: #ff0000;"/>
  <circle cx="87.125362" cy="73.681015" r="3" style="fill: #ff0000;"/>
  <circle cx="99.865397" cy="124.128766" r="3" style="fill: #ff0000;"/>
  <circle cx="113.44403" cy="157.14425" r="3" style="fill: #ff0000;"/>
  <circle cx="98.914979" cy="111.787343" r="3" style="fill: #ff0000;"/>
  <circle cx="119.525499" cy="99.722706" r="3" style="fill: #ff0000;"/>
  <circle cx="100.979875" cy="107.081732" r="3" style="fill: #ff0000;"/>
  <circle cx="110.918065" cy="84.319624" r="3" style="fill: #ff0000;"/>
  <circle cx="92.298082" cy="123.225503" r="3" style="fill: #ff0000;"/>
  <circle cx="85.828802" cy="50.96741" r="3" style="fill: #ff0000;"/>
  <circle cx="87.833095" cy="159.558224" r="3" style="fill: #ff0000;"/>
  <circle cx="108.638539" cy="110.198425" r="3" style="fill: #ff0000;"/>
  <circle cx="185.999364" cy="194.100672" r="3" style="fill: #00ff00;"/>
  <circle cx="188.80169" cy="174.368199" r="3" style="fill: #00ff00;"/>
  <circle cx="162.626936" cy="122.677981" r="3" style="fill: #00ff00;"/>
  <circle cx="178.876183" cy="110.292758" r="3" style="fill: #00ff00;"/>
  <circle cx="190.808018" cy="144.460575" r="3" style="fill: #00ff00;"/>
  <circle cx="175.501726" cy="141.835916" r="3" style="fill: #00ff00;"/>
  <circle cx="190.747373" cy="103.356864" r="3" style="fill: #00ff00;"/>
  <circle cx="190.872836" cy="186.384662" r="3" style="fill: #00ff00;"/>
  <circle cx="172.637753" cy="161.337188" r="3" style="fill: #00ff00;"/>
  <circle cx="183.002366" cy="156.115649" r="3" style="fill: #00ff00;"/>
  <circle cx="195.926071" cy="143.121167" r="3" style="fill: #00ff00;"/>
  <circle cx="191.925349" cy="195.906272" r="3" style="fill: #00ff00;"/>
  <circle cx="188.565594" cy="164.818237" r="3" style="fill: #00ff00;"/>
  <circle cx="164.676889" cy="144.492881" r="3" style="fill: #00ff00;"/>
  <circle cx="190.509736" cy="166.887378" r="3" style="fill: #00ff00;"/>
  <circle cx="174.783286" cy="155.893034" r="3" style="fill: #00ff00;"/>
  <circle cx="246.567549" cy="220.776985" r="3" style="fill: #0000ff;"/>
  <circle cx="261.749369" cy="246.24" r="3" style="fill: #0000ff;"/>
  <circle cx="261.833344" cy="178.468151" r="3" style="fill: #0000ff;"/>
  <circle cx="265.808942" cy="177.919115" r="3" style="fill: #0000ff;"/>
  <circle cx="268.10052" cy="231.468072" r="3" style="fill: #0000ff;"/>
  <circle cx="265.50836" cy="163.414386" r="3" style="fill: #0000ff;"/>
  <circle cx="279.245896" cy="170.304752" r="3" style="fill: #0000ff;"/>
  <circle cx="261.786709" cy="176.525235" r="3" style="fill: #0000ff;"/>
  <circle cx="273.360866" cy="163.157691" r="3" style="fill: #0000ff;"/>
  <circle cx="273.097425" cy="194.751999" r="3" style="fill: #0000ff;"/>
  <circle cx="274.770225" cy="211.340771" r="3" style="fill: #0000ff;"/>
  <circle cx="267.429659" cy="226.480591" r="3" style="fill: #0000ff;"/>
  <circle cx="265.909766" cy="160.896578" r="3" style="fill: #0000ff;"/>
  <circle cx="272.137158" cy="159.867369" r="3" style="fill: #0000ff;"/>
  <circle cx="286.731147" cy="178.731001" r="3" style="fill: #0000ff;"/>
  <circle cx="278.501689" cy="165.250568" r="3" style="fill: #0000ff;"/>
  <circle cx="69.218182" cy="44.64" r="3" style="fill: #ff0000;"/>
  <circle cx="373.581818" cy="224.354535" r="3" style="fill: #0000ff;"/>
 </g>
</svg>