<?xml version="1.0" encoding="utf-8"?>
<svg xmlns:xlink="http://www.w3.org/1999/xlink" width="432pt" height="288pt" viewBox="0 0 432 288" xmlns="http://www.w3.org/2000/svg" version="1.1">
 <defs>
  <style type="text/css">*{stroke-linejoin: round; stroke-linecap: butt}</style>
  <path id="m92db2eb645" d="M 0 3 
C 0.795609 3 1.55874 2.683901 2.12132 2.12132 
C 2.683901 1.55874 3 0.795609 3 0 
C 3 -0.795609 2.683901 -1.55874 2.12132 -2.12132 
C 1.55874 -2.683901 0.795609 -3 0 -3 
C -0.795609 -3 -1.55874 -2.683901 -2.12132 -2.12132 
C -2.683901 -1.55874 -3 -0.795609 -3 0 
C -3 0.795609 -2.683901 1.55874 -2.12132 2.12132 
C -1.55874 2.683901 -0.795609 3 0 3 
z"/>
 </defs>
 <g>
  <!-- Cluster 1 -->
  <use xlink:href="#m92db2eb645" x="88.69289" y="217.110648" style="fill: #ff0000;"/>
  <use xlink:href="#m92db2eb645" x="90.207882" y="190.361861" style="fill: #ff0000;"/>
  <use xlink:href="#m92db2eb645" x="76.24903" y="188.29924" style="fill: #ff0000;"/>
  <use xlink:href="#m92db2eb645" x="88.35396" y="212.010524" style="fill: #ff0000;"/>
  <use xlink:href="#m92db2eb645" x="81.035399" y="231.921488" style="fill: #ff0000;"/>
  <use xlink:href="#m92db2eb645" x="97.103085" y="190.95029" style="fill: #ff0000;"/>
  <use xlink:href="#m92db2eb645" x="82.237187" y="213.754701" style="fill: #ff0000;"/>
  <use xlink:href="#m92db2eb645" x="69.218182" y="207.51575" style="fill: #ff0000;"/>
  <use xlink:href="#m92db2eb645" x="75.816781" y="211.125621" style="fill: #ff0000;"/>
  <use xlink:href="#m92db2eb645" x="101.294919" y="206.482885" style="fill: #ff0000;"/>
  <use xlink:href="#m92db2eb645" x="123.066332" y="187.927231" style="fill: #ff0000;"/>
  <use xlink:href="#m92db2eb645" x="85.904694" y="192.100166" style="fill: #ff0000;"/>
  <use xlink:href="#m92db2eb645" x="93.869199" y="175.506904" style="fill: #ff0000;"/>
  <use xlink:href="#m92db2eb645" x="78.254429" y="228.392909" style="fill: #ff0000;"/>
  <use xlink:href="#m92db2eb645" x="142.945134" y="188.373214" style="fill: #ff0000;"/>
  <use xlink:href="#m92db2eb645" x="108.951388" y="191.871436" style="fill: #ff0000;"/>
  
  <!-- Cluster 2 -->
  <use xlink:href="#m92db2eb645" x="187.006755" y="173.767832" style="fill: #0000ff;"/>
  <use xlink:href="#m92db2eb645" x="192.010071" y="175.941468" style="fill: #0000ff;"/>
  <use xlink:href="#m92db2eb645" x="203.225348" y="132.67299" style="fill: #0000ff;"/>
  <use xlink:href="#m92db2eb645" x="197.389661" y="162.469791" style="fill: #0000ff;"/>
  <use xlink:href="#m92db2eb645" x="209.427515" y="134.374902" style="fill: #0000ff;"/>
  <use xlink:href="#m92db2eb645" x="206.681116" y="146.271024" style="fill: #0000ff;"/>
  <use xlink:href="#m92db2eb645" x="223.022485" y="171.468895" style="fill: #0000ff;"/>
  <use xlink:href="#m92db2eb645" x="224.527834" y="110.726859" style="fill: #0000ff;"/>
  <use xlink:href="#m92db2eb645" x="196.783015" y="160.389032" style="fill: #0000ff;"/>
  <use xlink:href="#m92db2eb645" x="198.487524" y="153.610474" style="fill: #0000ff;"/>
  <use xlink:href="#m92db2eb645" x="223.516533" y="135.124611" style="fill: #0000ff;"/>
  <use xlink:href="#m92db2eb645" x="217.350133" y="126.934826" style="fill: #0000ff;"/>
  <use xlink:href="#m92db2eb645" x="201.510542" y="153.928348" style="fill: #0000ff;"/>
  <use xlink:href="#m92db2eb645" x="206.237755" y="135.518477" style="fill: #0000ff;"/>
  <use xlink:href="#m92db2eb645" x="191.27852" y="148.339723" style="fill: #0000ff;"/>
  <use xlink:href="#m92db2eb645" x="186.541929" y="162.702993" style="fill: #0000ff;"/>
  
  <!-- Cluster 3 -->
  <use xlink:href="#m92db2eb645" x="337.782255" y="90.345791" style="fill: #00ff00;"/>
  <use xlink:href="#m92db2eb645" x="318.019129" y="60.967821" style="fill: #00ff00;"/>
  <use xlink:href="#m92db2eb645" x="329.634371" y="90.320132" style="fill: #00ff00;"/>
  <use xlink:href="#m92db2eb645" x="316.28374" y="72.607247" style="fill: #00ff00;"/>
  <use xlink:href="#m92db2eb645" x="328.55433" y="88.541149" style="fill: #00ff00;"/>
  <use xlink:href="#m92db2eb645" x="312.31742" y="81.311922" style="fill: #00ff00;"/>
  <use xlink:href="#m92db2eb645" x="330.837739" y="45.860543" style="fill: #00ff00;"/>
  <use xlink:href="#m92db2eb645" x="318.847354" y="127.194197" style="fill: #00ff00;"/>
  <use xlink:href="#m92db2eb645" x="349.386814" y="56.914942" style="fill: #00ff00;"/>
  <use xlink:href="#m92db2eb645" x="305.48643" y="102.423848" style="fill: #00ff00;"/>
  <use xlink:href="#m92db2eb645" x="313.24568" y="70.442125" style="fill: #00ff00;"/>
  <use xlink:href="#m92db2eb645" x="344.308764" y="44.64" style="fill: #00ff00;"/>
  <use xlink:href="#m92db2eb645" x="312.836486" y="76.300679" style="fill: #00ff00;"/>
  <use xlink:href="#m92db2eb645" x="308.519092" y="116.008206" style="fill: #00ff00;"/>
  <use xlink:href="#m92db2eb645" x="319.348779" y="74.179857" style="fill: #00ff00;"/>
  <use xlink:href="#m92db2eb645" x="299.477681" y="104.780145" style="fill: #00ff00;"/>
 </g>
</svg>