<?xml version="1.0" encoding="utf-8"?>
<svg xmlns:xlink="http://www.w3.org/1999/xlink" width="432pt" height="288pt" viewBox="0 0 432 288" xmlns="http://www.w3.org/2000/svg" version="1.1">
 <defs>
  <style type="text/css">*{stroke-linejoin: round; stroke-linecap: butt}</style>
 </defs>
 <g>
  <circle cx="130.282918" cy="102.81456" r="3" style="fill: #ff0000;"/>
  <circle cx="133.679531" cy="118.073586" r="3" style="fill: #ff0000;"/>
  <circle cx="126.207732" cy="108.341229" r="3" style="fill: #ff0000;"/>
  <circle cx="81.184422" cy="86.756341" r="3" style="fill: #ff0000;"/>
  <circle cx="124.5337" cy="118.450243" r="3" style="fill: #ff0000;"/>
  <circle cx="109.765603" cy="108.243272" r="3" style="fill: #ff0000;"/>
  <circle cx="134.560209" cy="124.836696" r="3" style="fill: #ff0000;"/>
  <circle cx="139.292398" cy="126.015459" r="3" style="fill: #ff0000;"/>
  <circle cx="112.877897" cy="112.056166" r="3" style="fill: #ff0000;"/>
  <circle cx="132.419344" cy="97.946089" r="3" style="fill: #ff0000;"/>
  <circle cx="102.69865" cy="104.084213" r="3" style="fill: #ff0000;"/>
  <circle cx="130.304384" cy="110.409284" r="3" style="fill: #ff0000;"/>
  <circle cx="131.246384" cy="110.014626" r="3" style="fill: #ff0000;"/>
  <circle cx="118.884863" cy="120.917915" r="3" style="fill: #ff0000;"/>
  <circle cx="144.265861" cy="130.532567" r="3" style="fill: #ff0000;"/>
  <circle cx="109.215986" cy="111.659052" r="3" style="fill: #ff0000;"/>
  <circle cx="273.373579" cy="137.532577" r="3" style="fill: #0000ff;"/>
  <circle cx="234.577091" cy="118.130983" r="3" style="fill: #0000ff;"/>
  <circle cx="227.280032" cy="151.12377" r="3" style="fill: #0000ff;"/>
  <circle cx="220.305733" cy="151.035068" r="3" style="fill: #0000ff;"/>
  <circle cx="230.698601" cy="145.002521" r="3" style="fill: #0000ff;"/>
  <circle cx="226.58469" cy="137.920854" r="3" style="fill: #0000ff;"/>
  <circle cx="242.44572" cy="149.333502" r="3" style="fill: #0000ff;"/>
  <circle cx="217.872021" cy="139.759323" r="3" style="fill: #0000ff;"/>
  <circle cx="218.940254" cy="146.505503" r="3" style="fill: #0000ff;"/>
  <circle cx="242.945577" cy="144.467175" r="3" style="fill: #0000ff;"/>
  <circle cx="242.471968" cy="168.645495" r="3" style="fill: #0000ff;"/>
  <circle cx="237.042224" cy="150.688224" r="3" style="fill: #0000ff;"/>
  <circle cx="242.954101" cy="136.305565" r="3" style="fill: #0000ff;"/>
  <circle cx="246.653691" cy="134.359359" r="3" style="fill: #0000ff;"/>
  <circle cx="243.929093" cy="158.023297" r="3" style="fill: #0000ff;"/>
  <circle cx="252.541232" cy="163.155663" r="3" style="fill: #0000ff;"/>
  <circle cx="318.727325" cy="168.49692" r="3" style="fill: #00ff00;"/>
  <circle cx="330.525832" cy="160.188026" r="3" style="fill: #00ff00;"/>
  <circle cx="341.49403" cy="183.364792" r="3" style="fill: #00ff00;"/>
  <circle cx="351.144611" cy="203.824589" r="3" style="fill: #00ff00;"/>
  <circle cx="333.305114" cy="178.081196" r="3" style="fill: #00ff00;"/>
  <circle cx="334.860217" cy="155.016912" r="3" style="fill: #00ff00;"/>
  <circle cx="373.581818" cy="187.027684" r="3" style="fill: #00ff00;"/>
  <circle cx="328.700959" cy="191.792421" r="3" style="fill: #00ff00;"/>
  <circle cx="336.132372" cy="158.169508" r="3" style="fill: #00ff00;"/>
  <circle cx="370.425328" cy="175.067162" r="3" style="fill: #00ff00;"/>
  <circle cx="342.829657" cy="172.248742" r="3" style="fill: #00ff00;"/>
  <circle cx="344.912053" cy="172.227468" r="3" style="fill: #00ff00;"/>
  <circle cx="343.458403" cy="187.726751" r="3" style="fill: #00ff00;"/>
  <circle cx="331.16487" cy="160.037985" r="3" style="fill: #00ff00;"/>
  <circle cx="354.756324" cy="196.506022" r="3" style="fill: #00ff00;"/>
  <circle cx="306.435143" cy="163.283254" r="3" style="fill: #00ff00;"/>
  <circle cx="158.978665" cy="246.24" r="3" style="fill: #ff00ff;"/>
  <circle cx="69.218182" cy="44.64" r="3" style="fill: #ff00ff;"/>
 </g>
</svg>