<?xml version="1.0" encoding="UTF-8" standalone="no"?>
<svg xmlns="http://www.w3.org/2000/svg" width="432pt" height="288pt" viewBox="0 0 432 288" version="1.1">
  <g>
    <circle cx="135.320679" cy="188.447944" r="3" style="fill: red;"/>
    <circle cx="112.063199" cy="161.946916" r="3" style="fill: red;"/>
    <circle cx="104.796614" cy="179.816891" r="3" style="fill: red;"/>
    <circle cx="109.426417" cy="175.48229" r="3" style="fill: red;"/>
    <circle cx="130.791095" cy="174.408453" r="3" style="fill: red;"/>
    <circle cx="95.2331" cy="158.872881" r="3" style="fill: red;"/>
    <circle cx="111.783212" cy="176.264943" r="3" style="fill: red;"/>
    <circle cx="109.079114" cy="166.070803" r="3" style="fill: red;"/>
    <circle cx="133.146939" cy="179.299315" r="3" style="fill: red;"/>
    <circle cx="69.218182" cy="176.158818" r="3" style="fill: red;"/>
    <circle cx="120.366125" cy="182.850175" r="3" style="fill: red;"/>
    <circle cx="84.80355" cy="168.913882" r="3" style="fill: red;"/>
    <circle cx="95.287445" cy="176.616079" r="3" style="fill: red;"/>
    <circle cx="109.172745" cy="176.651935" r="3" style="fill: red;"/>
    <circle cx="92.835229" cy="164.61019" r="3" style="fill: red;"/>
    <circle cx="79.142966" cy="166.304067" r="3" style="fill: red;"/>
    <circle cx="219.848651" cy="213.49354" r="3" style="fill: blue;"/>
    <circle cx="260.375752" cy="207.254654" r="3" style="fill: blue;"/>
    <circle cx="193.618669" cy="196.07062" r="3" style="fill: blue;"/>
    <circle cx="259.168463" cy="196.387471" r="3" style="fill: blue;"/>
    <circle cx="211.820905" cy="200.748551" r="3" style="fill: blue;"/>
    <circle cx="220.547007" cy="212.298313" r="3" style="fill: blue;"/>
    <circle cx="170.890676" cy="195.445529" r="3" style="fill: blue;"/>
    <circle cx="202.16423" cy="194.361587" r="3" style="fill: blue;"/>
    <circle cx="180.177149" cy="187.190382" r="3" style="fill: blue;"/>
    <circle cx="232.849023" cy="206.919811" r="3" style="fill: blue;"/>
    <circle cx="255.949124" cy="212.862722" r="3" style="fill: blue;"/>
    <circle cx="249.734388" cy="197.284049" r="3" style="fill: blue;"/>
    <circle cx="221.753088" cy="198.859746" r="3" style="fill: blue;"/>
    <circle cx="208.90555" cy="178.755949" r="3" style="fill: blue;"/>
    <circle cx="212.870619" cy="200.472934" r="3" style="fill: blue;"/>
    <circle cx="227.014743" cy="198.78403" r="3" style="fill: blue;"/>
    <circle cx="336.274389" cy="229.742253" r="3" style="fill: green;"/>
    <circle cx="315.900335" cy="217.597056" r="3" style="fill: green;"/>
    <circle cx="346.942595" cy="227.60461" r="3" style="fill: green;"/>
    <circle cx="318.754372" cy="243.036332" r="3" style="fill: green;"/>
    <circle cx="347.318926" cy="228.357241" r="3" style="fill: green;"/>
    <circle cx="332.382481" cy="217.019083" r="3" style="fill: green;"/>
    <circle cx="373.581818" cy="246.24" r="3" style="fill: green;"/>
    <circle cx="328.498727" cy="224.781628" r="3" style="fill: green;"/>
    <circle cx="346.686149" cy="230.423137" r="3" style="fill: green;"/>
    <circle cx="314.463256" cy="231.481646" r="3" style="fill: green;"/>
    <circle cx="305.653534" cy="220.633442" r="3" style="fill: green;"/>
    <circle cx="325.248063" cy="222.457524" r="3" style="fill: green;"/>
    <circle cx="348.334773" cy="218.057149" r="3" style="fill: green;"/>
    <circle cx="317.874592" cy="235.938252" r="3" style="fill: green;"/>
    <circle cx="334.661237" cy="221.647112" r="3" style="fill: green;"/>
    <circle cx="358.804208" cy="221.994072" r="3" style="fill: green;"/>
    <circle cx="210.983195" cy="44.64" r="3" style="fill: yellow;"/>
    <circle cx="150.335565" cy="115.707728" r="3" style="fill: yellow;"/>
  </g>
</svg>