<?xml version="1.0" encoding="utf-8"?>
<svg xmlns:xlink="http://www.w3.org/1999/xlink" width="432pt" height="288pt" viewBox="0 0 432 288" xmlns="http://www.w3.org/2000/svg" version="1.1">
 <g>
  <circle cx="131.190481" cy="220.030098" r="3" style="fill: #ff0000;"/>
  <circle cx="101.459198" cy="226.501322" r="3" style="fill: #ff0000;"/>
  <circle cx="122.574753" cy="223.021672" r="3" style="fill: #ff0000;"/>
  <circle cx="97.886786" cy="233.580654" r="3" style="fill: #ff0000;"/>
  <circle cx="88.243837" cy="238.980248" r="3" style="fill: #ff0000;"/>
  <circle cx="122.122399" cy="233.857978" r="3" style="fill: #ff0000;"/>
  <circle cx="140.241718" cy="227.67874" r="3" style="fill: #ff0000;"/>
  <circle cx="127.823373" cy="246.24" r="3" style="fill: #ff0000;"/>
  <circle cx="94.396238" cy="240.068284" r="3" style="fill: #ff0000;"/>
  <circle cx="110.923781" cy="224.896487" r="3" style="fill: #ff0000;"/>
  <circle cx="69.218182" cy="234.926506" r="3" style="fill: #ff0000;"/>
  <circle cx="127.574614" cy="222.695637" r="3" style="fill: #ff0000;"/>
  <circle cx="92.961426" cy="233.741719" r="3" style="fill: #ff0000;"/>
  <circle cx="92.765823" cy="225.975467" r="3" style="fill: #ff0000;"/>
  <circle cx="112.63814" cy="240.583328" r="3" style="fill: #ff0000;"/>
  <circle cx="118.278822" cy="235.302272" r="3" style="fill: #ff0000;"/>
  <circle cx="243.39296" cy="213.76834" r="3" style="fill: #0000ff;"/>
  <circle cx="232.072152" cy="217.389417" r="3" style="fill: #0000ff;"/>
  <circle cx="247.603688" cy="214.864091" r="3" style="fill: #0000ff;"/>
  <circle cx="256.306264" cy="221.324652" r="3" style="fill: #0000ff;"/>
  <circle cx="225.498961" cy="219.355295" r="3" style="fill: #0000ff;"/>
  <circle cx="212.756975" cy="223.134451" r="3" style="fill: #0000ff;"/>
  <circle cx="231.792434" cy="219.51594" r="3" style="fill: #0000ff;"/>
  <circle cx="205.804076" cy="215.449238" r="3" style="fill: #0000ff;"/>
  <circle cx="214.631091" cy="215.821585" r="3" style="fill: #0000ff;"/>
  <circle cx="235.234285" cy="227.74165" r="3" style="fill: #0000ff;"/>
  <circle cx="227.159356" cy="234.930658" r="3" style="fill: #0000ff;"/>
  <circle cx="224.478501" cy="213.310819" r="3" style="fill: #0000ff;"/>
  <circle cx="233.279279" cy="221.036329" r="3" style="fill: #0000ff;"/>
  <circle cx="227.699935" cy="218.373188" r="3" style="fill: #0000ff;"/>
  <circle cx="227.239594" cy="240.257462" r="3" style="fill: #0000ff;"/>
  <circle cx="188.539355" cy="219.36414" r="3" style="fill: #0000ff;"/>
  <circle cx="350.618221" cy="212.810927" r="3" style="fill: #00ff00;"/>
  <circle cx="326.223031" cy="204.592792" r="3" style="fill: #00ff00;"/>
  <circle cx="341.946183" cy="214.687511" r="3" style="fill: #00ff00;"/>
  <circle cx="358.605813" cy="207.126093" r="3" style="fill: #00ff00;"/>
  <circle cx="368.515476" cy="210.491031" r="3" style="fill: #00ff00;"/>
  <circle cx="360.349795" cy="204.973589" r="3" style="fill: #00ff00;"/>
  <circle cx="358.629092" cy="212.173873" r="3" style="fill: #00ff00;"/>
  <circle cx="351.553955" cy="232.737174" r="3" style="fill: #00ff00;"/>
  <circle cx="336.193468" cy="206.933749" r="3" style="fill: #00ff00;"/>
  <circle cx="336.394127" cy="204.634239" r="3" style="fill: #00ff00;"/>
  <circle cx="373.581818" cy="198.02671" r="3" style="fill: #00ff00;"/>
  <circle cx="319.381853" cy="200.605172" r="3" style="fill: #00ff00;"/>
  <circle cx="344.440839" cy="212.455041" r="3" style="fill: #00ff00;"/>
  <circle cx="330.070355" cy="209.828396" r="3" style="fill: #00ff00;"/>
  <circle cx="359.568934" cy="204.293811" r="3" style="fill: #00ff00;"/>
  <circle cx="329.469709" cy="210.06872" r="3" style="fill: #00ff00;"/>
  <circle cx="76.01512" cy="44.64" r="3" style="fill: #ff00ff;"/>
  <circle cx="81.640122" cy="90.948302" r="3" style="fill: #ff00ff;"/>
 </g>
</svg>