<?xml version="1.0" encoding="utf-8"?>
<svg xmlns:xlink="http://www.w3.org/1999/xlink" width="432pt" height="288pt" viewBox="0 0 432 288" xmlns="http://www.w3.org/2000/svg" version="1.1">
 <defs>
  <style type="text/css">*{stroke-linejoin: round; stroke-linecap: butt}</style>
  <path id="m4bcaffca3c" d="M 0 3 
C 0.795609 3 1.55874 2.683901 2.12132 2.12132 
C 2.683901 1.55874 3 0.795609 3 0 
C 3 -0.795609 2.683901 -1.55874 2.12132 -2.12132 
C 1.55874 -2.683901 0.795609 -3 0 -3 
C -0.795609 -3 -1.55874 -2.683901 -2.12132 -2.12132 
C -2.683901 -1.55874 -3 -0.795609 -3 0 
C -3 0.795609 -2.683901 1.55874 -2.12132 2.12132 
C -1.55874 2.683901 -0.795609 3 0 3 
z"/>
 </defs>
 <g>
  <!-- Cluster 1: Blue -->
  <use xlink:href="#m4bcaffca3c" x="104.287334" y="152.556678" style="fill: #1f77b4;"/>
  <use xlink:href="#m4bcaffca3c" x="87.695186" y="141.501576" style="fill: #1f77b4;"/>
  <use xlink:href="#m4bcaffca3c" x="79.185779" y="107.447724" style="fill: #1f77b4;"/>
  <use xlink:href="#m4bcaffca3c" x="76.967211" y="88.644471" style="fill: #1f77b4;"/>
  <use xlink:href="#m4bcaffca3c" x="90.561235" y="107.185186" style="fill: #1f77b4;"/>
  <use xlink:href="#m4bcaffca3c" x="111.339196" y="145.373897" style="fill: #1f77b4;"/>
  <use xlink:href="#m4bcaffca3c" x="76.845514" y="136.479878" style="fill: #1f77b4;"/>
  <use xlink:href="#m4bcaffca3c" x="103.147899" y="120.899835" style="fill: #1f77b4;"/>
  <use xlink:href="#m4bcaffca3c" x="69.218182" y="118.885985" style="fill: #1f77b4;"/>
  <use xlink:href="#m4bcaffca3c" x="107.275347" y="103.936585" style="fill: #1f77b4;"/>
  <use xlink:href="#m4bcaffca3c" x="80.277208" y="91.572324" style="fill: #1f77b4;"/>
  <use xlink:href="#m4bcaffca3c" x="117.021652" y="170.744485" style="fill: #1f77b4;"/>
  <use xlink:href="#m4bcaffca3c" x="126.796912" y="120.961393" style="fill: #1f77b4;"/>
  <use xlink:href="#m4bcaffca3c" x="87.824485" y="149.573939" style="fill: #1f77b4;"/>
  <use xlink:href="#m4bcaffca3c" x="88.336764" y="93.358805" style="fill: #1f77b4;"/>
  <use xlink:href="#m4bcaffca3c" x="101.109133" y="128.538995" style="fill: #1f77b4;"/>

  <!-- Cluster 2: Red -->
  <use xlink:href="#m4bcaffca3c" x="206.074658" y="170.237968" style="fill: #d62728;"/>
  <use xlink:href="#m4bcaffca3c" x="218.771119" y="201.672157" style="fill: #d62728;"/>
  <use xlink:href="#m4bcaffca3c" x="184.246506" y="175.924631" style="fill: #d62728;"/>
  <use xlink:href="#m4bcaffca3c" x="203.764456" y="195.521066" style="fill: #d62728;"/>
  <use xlink:href="#m4bcaffca3c" x="230.381552" y="185.620069" style="fill: #d62728;"/>
  <use xlink:href="#m4bcaffca3c" x="215.985744" y="177.31083" style="fill: #d62728;"/>
  <use xlink:href="#m4bcaffca3c" x="226.838228" y="183.884169" style="fill: #d62728;"/>
  <use xlink:href="#m4bcaffca3c" x="222.171512" y="136.69995" style="fill: #d62728;"/>
  <use xlink:href="#m4bcaffca3c" x="201.879656" y="175.065557" style="fill: #d62728;"/>
  <use xlink:href="#m4bcaffca3c" x="192.237826" y="150.514169" style="fill: #d62728;"/>
  <use xlink:href="#m4bcaffca3c" x="182.062501" y="150.943082" style="fill: #d62728;"/>
  <use xlink:href="#m4bcaffca3c" x="201.70301" y="135.043085" style="fill: #d62728;"/>
  <use xlink:href="#m4bcaffca3c" x="236.368271" y="158.822981" style="fill: #d62728;"/>
  <use xlink:href="#m4bcaffca3c" x="241.630757" y="188.622021" style="fill: #d62728;"/>
  <use xlink:href="#m4bcaffca3c" x="226.717002" y="150.443943" style="fill: #d62728;"/>
  <use xlink:href="#m4bcaffca3c" x="203.525346" y="158.633504" style="fill: #d62728;"/>

  <!-- Cluster 3: Green -->
  <use xlink:href="#m4bcaffca3c" x="359.280829" y="222.038692" style="fill: #2ca02c;"/>
  <use xlink:href="#m4bcaffca3c" x="340.937122" y="228.268495" style="fill: #2ca02c;"/>
  <use xlink:href="#m4bcaffca3c" x="316.392615" y="212.112735" style="fill: #2ca02c;"/>
  <use xlink:href="#m4bcaffca3c" x="308.550739" y="223.199991" style="fill: #2ca02c;"/>
  <use xlink:href="#m4bcaffca3c" x="323.651828" y="200.85264" style="fill: #2ca02c;"/>
  <use xlink:href="#m4bcaffca3c" x="343.763885" y="246.24" style="fill: #2ca02c;"/>
  <use xlink:href="#m4bcaffca3c" x="364.219445" y="236.031" style="fill: #2ca02c;"/>
  <use xlink:href="#m4bcaffca3c" x="373.581818" y="217.596339" style="fill: #2ca02c;"/>
  <use xlink:href="#m4bcaffca3c" x="324.173351" y="194.088307" style="fill: #2ca02c;"/>
  <use xlink:href="#m4bcaffca3c" x="333.079998" y="175.233678" style="fill: #2ca02c;"/>
  <use xlink:href="#m4bcaffca3c" x="366.519285" y="236.809908" style="fill: #2ca02c;"/>
  <use xlink:href="#m4bcaffca3c" x="339.197027" y="197.92698" style="fill: #2ca02c;"/>
  <use xlink:href="#m4bcaffca3c" x="352.58734" y="205.63165" style="fill: #2ca02c;"/>
  <use xlink:href="#m4bcaffca3c" x="313.60095" y="176.993311" style="fill: #2ca02c;"/>
  <use xlink:href="#m4bcaffca3c" x="332.146345" y="208.722753" style="fill: #2ca02c;"/>
  <use xlink:href="#m4bcaffca3c" x="371.120244" y="208.397996" style="fill: #2ca02c;"/>
  <use xlink:href="#m4bcaffca3c" x="333.504291" y="195.979076" style="fill: #2ca02c;"/>
  <use xlink:href="#m4bcaffca3c" x="190.30913" y="44.64" style="fill: #2ca02c;"/>
 </g>
</svg>