<?xml version="1.0" encoding="utf-8"?>
<svg xmlns:xlink="http://www.w3.org/1999/xlink" width="432pt" height="288pt" viewBox="0 0 432 288" xmlns="http://www.w3.org/2000/svg" version="1.1">
 <defs>
  <style type="text/css">*{stroke-linejoin: round; stroke-linecap: butt}</style>
  <path id="circle" d="M 0 3 C 0.795609 3 1.55874 2.683901 2.12132 2.12132 C 2.683901 1.55874 3 0.795609 3 0 C 3 -0.795609 2.683901 -1.55874 2.12132 -2.12132 C 1.55874 -2.683901 0.795609 -3 0 -3 C -0.795609 -3 -1.55874 -2.683901 -2.12132 -2.12132 C -2.683901 -1.55874 -3 -0.795609 -3 0 C -3 0.795609 -2.683901 1.55874 -2.12132 2.12132 C -1.55874 2.683901 -0.795609 3 0 3 z"/>
 </defs>
 <g>
  <!-- Cluster 1 -->
  <use xlink:href="#circle" x="142.098516" y="188.33987" style="fill: #ff0000;"/>
  <use xlink:href="#circle" x="145.663531" y="189.077607" style="fill: #ff0000;"/>
  <use xlink:href="#circle" x="141.040332" y="187.623036" style="fill: #ff0000;"/>
  <use xlink:href="#circle" x="144.245987" y="198.339612" style="fill: #ff0000;"/>
  <use xlink:href="#circle" x="152.33063" y="188.260729" style="fill: #ff0000;"/>
  <use xlink:href="#circle" x="158.336549" y="186.419739" style="fill: #ff0000;"/>
  <use xlink:href="#circle" x="142.959381" y="208.810064" style="fill: #ff0000;"/>
  <use xlink:href="#circle" x="163.79265" y="188.592919" style="fill: #ff0000;"/>
  <use xlink:href="#circle" x="139.044349" y="207.089449" style="fill: #ff0000;"/>
  <use xlink:href="#circle" x="135.09473" y="176.081069" style="fill: #ff0000;"/>
  <use xlink:href="#circle" x="148.516243" y="182.014123" style="fill: #ff0000;"/>
  <use xlink:href="#circle" x="184.757288" y="176.683031" style="fill: #ff0000;"/>
  <use xlink:href="#circle" x="160.047189" y="198.765517" style="fill: #ff0000;"/>
  <use xlink:href="#circle" x="165.27699" y="169.872992" style="fill: #ff0000;"/>
  <use xlink:href="#circle" x="170.936721" y="171.572478" style="fill: #ff0000;"/>
  <use xlink:href="#circle" x="187.451019" y="172.799952" style="fill: #ff0000;"/>
  
  <!-- Cluster 2 -->
  <use xlink:href="#circle" x="243.84785" y="161.193934" style="fill: #00ff00;"/>
  <use xlink:href="#circle" x="247.352973" y="163.750987" style="fill: #00ff00;"/>
  <use xlink:href="#circle" x="234.833823" y="168.850267" style="fill: #00ff00;"/>
  <use xlink:href="#circle" x="248.778453" y="157.543664" style="fill: #00ff00;"/>
  <use xlink:href="#circle" x="235.407" y="170.099472" style="fill: #00ff00;"/>
  <use xlink:href="#circle" x="250.171858" y="163.411372" style="fill: #00ff00;"/>
  <use xlink:href="#circle" x="262.778042" y="151.456623" style="fill: #00ff00;"/>
  <use xlink:href="#circle" x="235.519248" y="164.440896" style="fill: #00ff00;"/>
  <use xlink:href="#circle" x="247.850312" y="178.650806" style="fill: #00ff00;"/>
  <use xlink:href="#circle" x="215.427315" y="161.555074" style="fill: #00ff00;"/>
  <use xlink:href="#circle" x="264.453102" y="155.060131" style="fill: #00ff00;"/>
  <use xlink:href="#circle" x="238.391569" y="175.255108" style="fill: #00ff00;"/>
  <use xlink:href="#circle" x="222.048863" y="169.909431" style="fill: #00ff00;"/>
  <use xlink:href="#circle" x="242.647926" y="153.46039" style="fill: #00ff00;"/>
  <use xlink:href="#circle" x="245.770805" y="170.796006" style="fill: #00ff00;"/>
  <use xlink:href="#circle" x="242.632055" y="163.325623" style="fill: #00ff00;"/>
  
  <!-- Cluster 3 -->
  <use xlink:href="#circle" x="337.210231" y="129.070678" style="fill: #0000ff;"/>
  <use xlink:href="#circle" x="348.739691" y="132.613053" style="fill: #0000ff;"/>
  <use xlink:href="#circle" x="338.785502" y="140.559314" style="fill: #0000ff;"/>
  <use xlink:href="#circle" x="358.699929" y="127.692872" style="fill: #0000ff;"/>
  <use xlink:href="#circle" x="333.111965" y="146.801186" style="fill: #0000ff;"/>
  <use xlink:href="#circle" x="328.18048" y="150.340011" style="fill: #0000ff;"/>
  <use xlink:href="#circle" x="339.106235" y="139.115254" style="fill: #0000ff;"/>
  <use xlink:href="#circle" x="337.669863" y="138.817908" style="fill: #0000ff;"/>
  <use xlink:href="#circle" x="328.430292" y="127.803189" style="fill: #0000ff;"/>
  <use xlink:href="#circle" x="345.677717" y="136.019439" style="fill: #0000ff;"/>
  <use xlink:href="#circle" x="347.044691" y="119.500748" style="fill: #0000ff;"/>
  <use xlink:href="#circle" x="333.503189" y="143.071069" style="fill: #0000ff;"/>
  <use xlink:href="#circle" x="334.790254" y="136.497514" style="fill: #0000ff;"/>
  <use xlink:href="#circle" x="341.326972" y="157.203682" style="fill: #0000ff;"/>
  <use xlink:href="#circle" x="330.903133" y="141.738192" style="fill: #0000ff;"/>
  <use xlink:href="#circle" x="338.322251" y="133.586851" style="fill: #0000ff;"/>
 </g>
</svg>