<?xml version="1.0" encoding="utf-8"?>
<svg xmlns:xlink="http://www.w3.org/1999/xlink" width="432pt" height="288pt" viewBox="0 0 432 288" xmlns="http://www.w3.org/2000/svg" version="1.1">
 <defs>
  <style type="text/css">*{stroke-linejoin: round; stroke-linecap: butt}</style>
  <path id="circle" d="M 0 3 C 0.795609 3 1.55874 2.683901 2.12132 2.12132 C 2.683901 1.55874 3 0.795609 3 0 C 3 -0.795609 2.683901 -1.55874 2.12132 -2.12132 C 1.55874 -2.683901 0.795609 -3 0 -3 C -0.795609 -3 -1.55874 -2.683901 -2.12132 -2.12132 C -2.683901 -1.55874 -3 -0.795609 -3 0 C -3 0.795609 -2.683901 1.55874 -2.12132 2.12132 C -1.55874 2.683901 -0.795609 3 0 3 z"/>
 </defs>
 <g>
  <!-- Cluster 1 -->
  <use xlink:href="#circle" x="104.01235" y="147.041316" style="fill: #ff0000;"/>
  <use xlink:href="#circle" x="119.683516" y="156.759627" style="fill: #ff0000;"/>
  <use xlink:href="#circle" x="126.192735" y="124.752522" style="fill: #ff0000;"/>
  <use xlink:href="#circle" x="126.963131" y="139.765605" style="fill: #ff0000;"/>
  <use xlink:href="#circle" x="113.239888" y="156.61856" style="fill: #ff0000;"/>
  <use xlink:href="#circle" x="132.294003" y="182.56125" style="fill: #ff0000;"/>
  <use xlink:href="#circle" x="105.767047" y="182.788001" style="fill: #ff0000;"/>
  <use xlink:href="#circle" x="96.534253" y="155.590427" style="fill: #ff0000;"/>
  <use xlink:href="#circle" x="115.670531" y="165.988074" style="fill: #ff0000;"/>
  <use xlink:href="#circle" x="69.218182" y="168.197336" style="fill: #ff0000;"/>
  <use xlink:href="#circle" x="117.983159" y="187.243002" style="fill: #ff0000;"/>
  <use xlink:href="#circle" x="116.883738" y="163.974234" style="fill: #ff0000;"/>
  <use xlink:href="#circle" x="130.675519" y="129.250409" style="fill: #ff0000;"/>
  <use xlink:href="#circle" x="104.910601" y="159.796837" style="fill: #ff0000;"/>
  <use xlink:href="#circle" x="96.194389" y="150.831716" style="fill: #ff0000;"/>
  <use xlink:href="#circle" x="107.597977" y="146.917196" style="fill: #ff0000;"/>
  
  <!-- Cluster 2 -->
  <use xlink:href="#circle" x="215.83214" y="156.051577" style="fill: #00ff00;"/>
  <use xlink:href="#circle" x="211.430254" y="166.683387" style="fill: #00ff00;"/>
  <use xlink:href="#circle" x="218.602188" y="162.367867" style="fill: #00ff00;"/>
  <use xlink:href="#circle" x="206.405084" y="136.081588" style="fill: #00ff00;"/>
  <use xlink:href="#circle" x="262.694735" y="159.443972" style="fill: #00ff00;"/>
  <use xlink:href="#circle" x="208.788418" y="143.639158" style="fill: #00ff00;"/>
  <use xlink:href="#circle" x="226.29165" y="148.414558" style="fill: #00ff00;"/>
  <use xlink:href="#circle" x="237.008817" y="142.610675" style="fill: #00ff00;"/>
  <use xlink:href="#circle" x="212.0359" y="155.221794" style="fill: #00ff00;"/>
  <use xlink:href="#circle" x="213.749875" y="168.649945" style="fill: #00ff00;"/>
  <use xlink:href="#circle" x="240.979386" y="153.617093" style="fill: #00ff00;"/>
  <use xlink:href="#circle" x="248.926013" y="156.367067" style="fill: #00ff00;"/>
  <use xlink:href="#circle" x="203.960687" y="149.481187" style="fill: #00ff00;"/>
  <use xlink:href="#circle" x="221.616233" y="162.603733" style="fill: #00ff00;"/>
  <use xlink:href="#circle" x="239.353574" y="160.62033" style="fill: #00ff00;"/>
  <use xlink:href="#circle" x="205.80744" y="173.296184" style="fill: #00ff00;"/>
  
  <!-- Cluster 3 -->
  <use xlink:href="#circle" x="322.13299" y="159.35927" style="fill: #0000ff;"/>
  <use xlink:href="#circle" x="352.191585" y="130.672461" style="fill: #0000ff;"/>
  <use xlink:href="#circle" x="367.247032" y="158.764259" style="fill: #0000ff;"/>
  <use xlink:href="#circle" x="346.009722" y="151.5897" style="fill: #0000ff;"/>
  <use xlink:href="#circle" x="354.84691" y="151.962717" style="fill: #0000ff;"/>
  <use xlink:href="#circle" x="326.729372" y="131.822702" style="fill: #0000ff;"/>
  <use xlink:href="#circle" x="363.131678" y="132.824684" style="fill: #0000ff;"/>
  <use xlink:href="#circle" x="350.25833" y="144.016098" style="fill: #0000ff;"/>
  <use xlink:href="#circle" x="347.282322" y="122.95548" style="fill: #0000ff;"/>
  <use xlink:href="#circle" x="339.885817" y="133.765818" style="fill: #0000ff;"/>
  <use xlink:href="#circle" x="333.87003" y="168.771056" style="fill: #0000ff;"/>
  <use xlink:href="#circle" x="340.983846" y="155.851965" style="fill: #0000ff;"/>
  <use xlink:href="#circle" x="373.581818" y="126.277857" style="fill: #0000ff;"/>
  <use xlink:href="#circle" x="369.735962" y="156.77983" style="fill: #0000ff;"/>
  <use xlink:href="#circle" x="325.027481" y="139.429637" style="fill: #0000ff;"/>
  <use xlink:href="#circle" x="326.503207" y="129.406853" style="fill: #0000ff;"/>
  <use xlink:href="#circle" x="369.29191" y="44.64" style="fill: #0000ff;"/>
  <use xlink:href="#circle" x="163.32397" y="246.24" style="fill: #0000ff;"/>
 </g>
</svg>