<?xml version="1.0" encoding="utf-8"?>
<svg width="432pt" height="288pt" viewBox="0 0 432 288" xmlns="http://www.w3.org/2000/svg" version="1.1">
    <g>
        <circle cx="85.475906" cy="216.658506" r="3" fill="#ff0000"/>
        <circle cx="102.133003" cy="132.288036" r="3" fill="#ff0000"/>
        <circle cx="106.995261" cy="141.026106" r="3" fill="#ff0000"/>
        <circle cx="86.192026" cy="126.078467" r="3" fill="#ff0000"/>
        <circle cx="106.820241" cy="165.640578" r="3" fill="#ff0000"/>
        <circle cx="69.218182" cy="144.619332" r="3" fill="#ff0000"/>
        <circle cx="105.738604" cy="168.843025" r="3" fill="#ff0000"/>
        <circle cx="129.301306" cy="116.565635" r="3" fill="#ff0000"/>
        <circle cx="106.119564" cy="140.226149" r="3" fill="#ff0000"/>
        <circle cx="137.78109" cy="177.846271" r="3" fill="#ff0000"/>
        <circle cx="98.864743" cy="201.687748" r="3" fill="#ff0000"/>
        <circle cx="103.274762" cy="178.054781" r="3" fill="#ff0000"/>
        <circle cx="93.11392" cy="136.202573" r="3" fill="#ff0000"/>
        <circle cx="121.358973" cy="201.263031" r="3" fill="#ff0000"/>
        <circle cx="98.238377" cy="160.282232" r="3" fill="#ff0000"/>
        <circle cx="117.308291" cy="167.290642" r="3" fill="#ff0000"/>
        <circle cx="215.020515" cy="141.986583" r="3" fill="#00ff00"/>
        <circle cx="254.684018" cy="157.111678" r="3" fill="#00ff00"/>
        <circle cx="225.685547" cy="190.190407" r="3" fill="#00ff00"/>
        <circle cx="213.065917" cy="133.744533" r="3" fill="#00ff00"/>
        <circle cx="217.619585" cy="98.304695" r="3" fill="#00ff00"/>
        <circle cx="227.210645" cy="136.056473" r="3" fill="#00ff00"/>
        <circle cx="239.380833" cy="160.204582" r="3" fill="#00ff00"/>
        <circle cx="244.075161" cy="117.42439" r="3" fill="#00ff00"/>
        <circle cx="201.481642" cy="197.83812" r="3" fill="#00ff00"/>
        <circle cx="216.452841" cy="168.186443" r="3" fill="#00ff00"/>
        <circle cx="197.65929" cy="164.293494" r="3" fill="#00ff00"/>
        <circle cx="173.864406" cy="177.270902" r="3" fill="#00ff00"/>
        <circle cx="214.397107" cy="170.053354" r="3" fill="#00ff00"/>
        <circle cx="229.458882" cy="141.491248" r="3" fill="#00ff00"/>
        <circle cx="223.510761" cy="142.996183" r="3" fill="#00ff00"/>
        <circle cx="207.873357" cy="139.778073" r="3" fill="#00ff00"/>
        <circle cx="357.329796" cy="121.457739" r="3" fill="#0000ff"/>
        <circle cx="332.006756" cy="159.439009" r="3" fill="#0000ff"/>
        <circle cx="370.43007" cy="107.730219" r="3" fill="#0000ff"/>
        <circle cx="321.956385" cy="126.261481" r="3" fill="#0000ff"/>
        <circle cx="338.12104" cy="145.895688" r="3" fill="#0000ff"/>
        <circle cx="306.667569" cy="111.952456" r="3" fill="#0000ff"/>
        <circle cx="345.012613" cy="111.28671" r="3" fill="#0000ff"/>
        <circle cx="346.368955" cy="124.114286" r="3" fill="#0000ff"/>
        <circle cx="333.219027" cy="151.200566" r="3" fill="#0000ff"/>
        <circle cx="309.392451" cy="164.557068" r="3" fill="#0000ff"/>
        <circle cx="357.07772" cy="123.850099" r="3" fill="#0000ff"/>
        <circle cx="356.508187" cy="122.777836" r="3" fill="#0000ff"/>
        <circle cx="340.212644" cy="96.945762" r="3" fill="#0000ff"/>
        <circle cx="330.164759" cy="193.948609" r="3" fill="#0000ff"/>
        <circle cx="373.581818" cy="73.752407" r="3" fill="#0000ff"/>
        <circle cx="367.626053" cy="139.812644" r="3" fill="#0000ff"/>
        <circle cx="286.569757" cy="246.24" r="3" fill="#ff00ff"/>
        <circle cx="221.626909" cy="44.64" r="3" fill="#ff00ff"/>
    </g>
</svg>