<?xml version="1.0" encoding="utf-8"?>
<svg xmlns:xlink="http://www.w3.org/1999/xlink" width="432pt" height="288pt" viewBox="0 0 432 288" xmlns="http://www.w3.org/2000/svg" version="1.1">
 <defs>
  <style type="text/css">*{stroke-linejoin: round; stroke-linecap: butt}</style>
  <path id="circle" d="M 0 3 C 0.795609 3 1.55874 2.683901 2.12132 2.12132 C 2.683901 1.55874 3 0.795609 3 0 C 3 -0.795609 2.683901 -1.55874 2.12132 -2.12132 C 1.55874 -2.683901 0.795609 -3 0 -3 C -0.795609 -3 -1.55874 -2.683901 -2.12132 -2.12132 C -2.683901 -1.55874 -3 -0.795609 -3 0 C -3 0.795609 -2.683901 1.55874 -2.12132 2.12132 C -1.55874 2.683901 -0.795609 3 0 3 z"/>
 </defs>
 <g>
  <!-- Cluster 1 -->
  <use xlink:href="#circle" x="79.215184" y="166.202492" style="fill: #ff0000;"/>
  <use xlink:href="#circle" x="91.711713" y="143.937012" style="fill: #ff0000;"/>
  <use xlink:href="#circle" x="99.732553" y="157.192029" style="fill: #ff0000;"/>
  <use xlink:href="#circle" x="100.708969" y="152.7428" style="fill: #ff0000;"/>
  <use xlink:href="#circle" x="115.520526" y="147.995249" style="fill: #ff0000;"/>
  <use xlink:href="#circle" x="86.617416" y="179.724944" style="fill: #ff0000;"/>
  <use xlink:href="#circle" x="110.42023" y="159.672314" style="fill: #ff0000;"/>
  <use xlink:href="#circle" x="114.177736" y="156.647865" style="fill: #ff0000;"/>
  <use xlink:href="#circle" x="99.724327" y="157.200856" style="fill: #ff0000;"/>
  <use xlink:href="#circle" x="93.881639" y="148.378048" style="fill: #ff0000;"/>
  <use xlink:href="#circle" x="69.218182" y="145.423673" style="fill: #ff0000;"/>
  <use xlink:href="#circle" x="99.809502" y="123.259974" style="fill: #ff0000;"/>
  <use xlink:href="#circle" x="79.792461" y="145.118634" style="fill: #ff0000;"/>
  <use xlink:href="#circle" x="95.503345" y="166.349216" style="fill: #ff0000;"/>
  <use xlink:href="#circle" x="110.015546" y="140.079296" style="fill: #ff0000;"/>
  <use xlink:href="#circle" x="111.55289" y="170.184624" style="fill: #ff0000;"/>
  
  <!-- Cluster 2 -->
  <use xlink:href="#circle" x="179.522086" y="176.060972" style="fill: #00ff00;"/>
  <use xlink:href="#circle" x="179.913888" y="207.825553" style="fill: #00ff00;"/>
  <use xlink:href="#circle" x="182.851344" y="173.880432" style="fill: #00ff00;"/>
  <use xlink:href="#circle" x="177.800579" y="162.847605" style="fill: #00ff00;"/>
  <use xlink:href="#circle" x="155.13095" y="163.245015" style="fill: #00ff00;"/>
  <use xlink:href="#circle" x="182.676595" y="181.785432" style="fill: #00ff00;"/>
  <use xlink:href="#circle" x="176.125859" y="181.471552" style="fill: #00ff00;"/>
  <use xlink:href="#circle" x="182.260534" y="182.583338" style="fill: #00ff00;"/>
  <use xlink:href="#circle" x="182.924456" y="207.413008" style="fill: #00ff00;"/>
  <use xlink:href="#circle" x="190.135169" y="187.058755" style="fill: #00ff00;"/>
  <use xlink:href="#circle" x="164.462077" y="189.396016" style="fill: #00ff00;"/>
  <use xlink:href="#circle" x="180.526615" y="199.825838" style="fill: #00ff00;"/>
  <use xlink:href="#circle" x="164.176795" y="179.355625" style="fill: #00ff00;"/>
  <use xlink:href="#circle" x="174.179171" y="191.123194" style="fill: #00ff00;"/>
  <use xlink:href="#circle" x="163.098837" y="165.185155" style="fill: #00ff00;"/>
  <use xlink:href="#circle" x="187.903716" y="174.218168" style="fill: #00ff00;"/>
  
  <!-- Cluster 3 -->
  <use xlink:href="#circle" x="276.243055" y="203.938133" style="fill: #0000ff;"/>
  <use xlink:href="#circle" x="240.091198" y="204.831846" style="fill: #0000ff;"/>
  <use xlink:href="#circle" x="266.179604" y="209.707461" style="fill: #0000ff;"/>
  <use xlink:href="#circle" x="283.237919" y="219.72175" style="fill: #0000ff;"/>
  <use xlink:href="#circle" x="261.081687" y="216.06762" style="fill: #0000ff;"/>
  <use xlink:href="#circle" x="238.434245" y="232.595357" style="fill: #0000ff;"/>
  <use xlink:href="#circle" x="275.006596" y="231.631784" style="fill: #0000ff;"/>
  <use xlink:href="#circle" x="252.818647" y="193.037557" style="fill: #0000ff;"/>
  <use xlink:href="#circle" x="270.036783" y="198.994677" style="fill: #0000ff;"/>
  <use xlink:href="#circle" x="255.518183" y="193.368239" style="fill: #0000ff;"/>
  <use xlink:href="#circle" x="278.877018" y="246.24" style="fill: #0000ff;"/>
  <use xlink:href="#circle" x="274.301049" y="215.034441" style="fill: #0000ff;"/>
  <use xlink:href="#circle" x="256.838078" y="214.486125" style="fill: #0000ff;"/>
  <use xlink:href="#circle" x="268.640753" y="196.385552" style="fill: #0000ff;"/>
  <use xlink:href="#circle" x="284.124636" y="238.234869" style="fill: #0000ff;"/>
  <use xlink:href="#circle" x="265.337355" y="216.296114" style="fill: #0000ff;"/>
  
  <!-- Outliers -->
  <use xlink:href="#circle" x="373.581818" y="173.489571" style="fill: #ff00ff;"/>
  <use xlink:href="#circle" x="348.249129" y="44.64" style="fill: #ff00ff;"/>
 </g>
</svg>