<?xml version="1.0" encoding="utf-8"?>
<svg xmlns:xlink="http://www.w3.org/1999/xlink" width="432pt" height="288pt" viewBox="0 0 432 288" xmlns="http://www.w3.org/2000/svg" version="1.1">
 <g>
   <rect x="57.348" y="205.698603" width="26.784" height="50.621397" style="fill: #ff0000"/>
   <text x="70.74" y="203.583847" fill="black" font-size="8" text-anchor="middle">6.95</text>
   
   <rect x="90.828" y="54.72" width="26.784" height="201.6" style="fill: #1f77b4"/>
   <text x="104.22" y="52.605244" fill="black" font-size="8" text-anchor="middle">27.69</text>
   
   <rect x="124.308" y="213.111929" width="26.784" height="43.208071" style="fill: #ff0000"/>
   <text x="137.7" y="212.470876" fill="black" font-size="8" text-anchor="middle">5.94</text>
   
   <rect x="157.788" y="188.620603" width="26.784" height="67.699397" style="fill: #1f77b4"/>
   <text x="171.18" y="186.533749" fill="black" font-size="8" text-anchor="middle">9.30</text>
   
   <rect x="191.268" y="206.790757" width="26.784" height="49.529243" style="fill: #ff0000"/>
   <text x="204.66" y="205.719862" fill="black" font-size="8" text-anchor="middle">6.80</text>
   
   <rect x="224.748" y="190.89626" width="26.784" height="65.42374" style="fill: #1f77b4"/>
   <text x="238.14" y="188.878303" fill="black" font-size="8" text-anchor="middle">8.99</text>
   
   <rect x="258.228" y="207.68847" width="26.784" height="48.63153" style="fill: #ff0000"/>
   <text x="271.62" y="205.508373" fill="black" font-size="8" text-anchor="middle">6.68</text>
   
   <rect x="291.708" y="207.105299" width="26.784" height="49.214701" style="fill: #ff0000"/>
   <text x="305.1" y="205.785978" fill="black" font-size="8" text-anchor="middle">6.76</text>
   
   <rect x="325.188" y="216.797517" width="26.784" height="39.522483" style="fill: #ff0000"/>
   <text x="338.58" y="215.546565" fill="black" font-size="8" text-anchor="middle">5.43</text>
   
   <rect x="358.668" y="204.50418" width="26.784" height="51.81582" style="fill: #1f77b4"/>
   <text x="372.06" y="202.389425" fill="black" font-size="8" text-anchor="middle">7.12</text>
 </g>
</svg>