<?xml version="1.0" encoding="utf-8"?>
<svg xmlns:xlink="http://www.w3.org/1999/xlink" width="432pt" height="288pt" viewBox="0 0 432 288" xmlns="http://www.w3.org/2000/svg" version="1.1">
 <defs>
  <style type="text/css">*{stroke-linejoin: round; stroke-linecap: butt}</style>
 </defs>
 <g id="figure_1">
  <g id="axes_1">
   <g id="patch_3" style="fill: #1f77b4">
    <path d="M 57.348 256.32 L 84.132 256.32 L 84.132 201.486865 L 57.348 201.486865 z"/>
    <text x="70.74" y="210" fill="white" font-size="10" text-anchor="middle">6.47</text>
   </g>
   <g id="patch_4" style="fill: #1f77b4">
    <path d="M 90.828 256.32 L 117.612 256.32 L 117.612 184.860873 L 90.828 184.860873 z"/>
    <text x="104.22" y="194" fill="white" font-size="10" text-anchor="middle">8.44</text>
   </g>
   <g id="patch_5" style="fill: #1f77b4">
    <path d="M 124.308 256.32 L 151.092 256.32 L 151.092 207.282028 L 124.308 207.282028 z"/>
    <text x="137.7" y="216" fill="white" font-size="10" text-anchor="middle">5.79</text>
   </g>
   <g id="patch_6" style="fill: #1f77b4">
    <path d="M 157.788 256.32 L 184.572 256.32 L 184.572 210.994029 L 157.788 210.994029 z"/>
    <text x="171.18" y="220" fill="white" font-size="10" text-anchor="middle">5.35</text>
   </g>
   <g id="patch_7" style="fill: #1f77b4">
    <path d="M 191.268 256.32 L 218.052 256.32 L 218.052 193.404504 L 191.268 193.404504 z"/>
    <text x="204.66" y="203" fill="white" font-size="10" text-anchor="middle">7.43</text>
   </g>
   <g id="patch_8" style="fill: #1f77b4">
    <path d="M 224.748 256.32 L 251.532 256.32 L 251.532 213.291352 L 224.748 213.291352 z"/>
    <text x="238.14" y="223" fill="white" font-size="10" text-anchor="middle">5.08</text>
   </g>
   <g id="patch_9" style="fill: #1f77b4">
    <path d="M 258.228 256.32 L 285.012 256.32 L 285.012 188.466613 L 258.228 188.466613 z"/>
    <text x="271.62" y="198" fill="white" font-size="10" text-anchor="middle">8.01</text>
   </g>
   <g id="patch_10" style="fill: #ff4136">
    <path d="M 291.708 256.32 L 318.492 256.32 L 318.492 54.72 L 291.708 54.72 z"/>
    <text x="305.1" y="64" fill="white" font-size="10" text-anchor="middle">23.80</text>
   </g>
   <g id="patch_11" style="fill: #1f77b4">
    <path d="M 325.188 256.32 L 351.972 256.32 L 351.972 175.013086 L 325.188 175.013086 z"/>
    <text x="338.58" y="185" fill="white" font-size="10" text-anchor="middle">9.60</text>
   </g>
   <g id="patch_12" style="fill: #1f77b4">
    <path d="M 358.668 256.32 L 385.452 256.32 L 385.452 200.932567 L 358.668 200.932567 z"/>
    <text x="372.06" y="210" fill="white" font-size="10" text-anchor="middle">6.54</text>
   </g>
  </g>
 </g>
</svg>