<?xml version="1.0" encoding="utf-8"?>
<svg xmlns:xlink="http://www.w3.org/1999/xlink" width="432pt" height="288pt" viewBox="0 0 432 288" xmlns="http://www.w3.org/2000/svg" version="1.1">
 <defs>
  <style type="text/css">*{stroke-linejoin: round; stroke-linecap: butt}</style>
 </defs>
 <g id="figure_1">
  <g id="axes_1">
   <g id="patch_3">
    <path d="M 57.348 256.32 L 84.132 256.32 L 84.132 188.034019 L 57.348 188.034019 z" style="fill: #1f77b4"/>
   </g>
   <g id="patch_4">
    <path d="M 90.828 256.32 L 117.612 256.32 L 117.612 197.382909 L 90.828 197.382909 z" style="fill: #1f77b4"/>
   </g>
   <g id="patch_5">
    <path d="M 124.308 256.32 L 151.092 256.32 L 151.092 188.489105 L 124.308 188.489105 z" style="fill: #1f77b4"/>
   </g>
   <g id="patch_6">
    <path d="M 157.788 256.32 L 184.572 256.32 L 184.572 196.884925 L 157.788 196.884925 z" style="fill: #1f77b4"/>
   </g>
   <g id="patch_7">
    <path d="M 191.268 256.32 L 218.052 256.32 L 218.052 184.622562 L 191.268 184.622562 z" style="fill: #1f77b4"/>
   </g>
   <g id="patch_8">
    <path d="M 224.748 256.32 L 251.532 256.32 L 251.532 207.891705 L 224.748 207.891705 z" style="fill: #1f77b4"/>
   </g>
   <g id="patch_9">
    <path d="M 258.228 256.32 L 285.012 256.32 L 285.012 190.093616 L 258.228 190.093616 z" style="fill: #1f77b4"/>
   </g>
   <g id="patch_10">
    <path d="M 291.708 256.32 L 318.492 256.32 L 318.492 54.72 L 291.708 54.72 z" style="fill: red"/>
   </g>
   <g id="patch_11">
    <path d="M 325.188 256.32 L 351.972 256.32 L 351.972 191.56615 L 325.188 191.56615 z" style="fill: #1f77b4"/>
   </g>
   <g id="patch_12">
    <path d="M 358.668 256.32 L 385.452 256.32 L 385.452 181.387869 L 358.668 181.387869 z" style="fill: #1f77b4"/>
   </g>
  </g>
 </g>
</svg>