<?xml version="1.0" encoding="utf-8"?>
<!DOCTYPE svg PUBLIC "-//W3C//DTD SVG 1.1//EN" "http://www.w3.org/Graphics/SVG/1.1/DTD/svg11.dtd">
<svg xmlns:xlink="http://www.w3.org/1999/xlink" width="432pt" height="288pt" viewBox="0 0 432 288" xmlns="http://www.w3.org/2000/svg" version="1.1">
 <defs>
  <style type="text/css">*{stroke-linejoin: round; stroke-linecap: butt}</style>
 </defs>
 <g id="figure_1">
  <g id="axes_1">
   <g id="patch_3">
    <path d="M 57.348 256.32 L 84.132 256.32 L 84.132 204.02332 L 57.348 204.02332 z" style="fill: #1f77b4"/>
    <text x="70.74" y="214.02332" font-size="10" fill="white" text-anchor="middle">7.14</text>
   </g>
   <g id="patch_4">
    <path d="M 90.828 256.32 L 117.612 256.32 L 117.612 189.931811 L 90.828 189.931811 z" style="fill: #1f77b4"/>
    <text x="104.22" y="199.931811" font-size="10" fill="white" text-anchor="middle">9.07</text>
   </g>
   <g id="patch_5">
    <path d="M 124.308 256.32 L 151.092 256.32 L 151.092 54.72 L 124.308 54.72 z" style="fill: #ff7f0e"/>
    <text x="137.7" y="64.72" font-size="10" fill="white" text-anchor="middle">27.54</text>
   </g>
   <g id="patch_6">
    <path d="M 157.788 256.32 L 184.572 256.32 L 184.572 209.057451 L 157.788 209.057451 z" style="fill: #1f77b4"/>
    <text x="171.18" y="219.057451" font-size="10" fill="white" text-anchor="middle">6.46</text>
   </g>
   <g id="patch_7">
    <path d="M 191.268 256.32 L 218.052 256.32 L 218.052 187.983869 L 191.268 187.983869 z" style="fill: #1f77b4"/>
    <text x="204.66" y="197.983869" font-size="10" fill="white" text-anchor="middle">9.33</text>
   </g>
   <g id="patch_8">
    <path d="M 224.748 256.32 L 251.532 256.32 L 251.532 203.146486 L 224.748 203.146486 z" style="fill: #1f77b4"/>
    <text x="238.14" y="213.146486" font-size="10" fill="white" text-anchor="middle">7.26</text>
   </g>
   <g id="patch_9">
    <path d="M 258.228 256.32 L 285.012 256.32 L 285.012 185.096571 L 258.228 185.096571 z" style="fill: #1f77b4"/>
    <text x="271.62" y="195.096571" font-size="10" fill="white" text-anchor="middle">9.73</text>
   </g>
   <g id="patch_10">
    <path d="M 291.708 256.32 L 318.492 256.32 L 318.492 205.939385 L 291.708 205.939385 z" style="fill: #1f77b4"/>
    <text x="305.1" y="215.939385" font-size="10" fill="white" text-anchor="middle">6.88</text>
   </g>
   <g id="patch_11">
    <path d="M 325.188 256.32 L 351.972 256.32 L 351.972 199.877858 L 325.188 199.877858 z" style="fill: #1f77b4"/>
    <text x="338.58" y="209.877858" font-size="10" fill="white" text-anchor="middle">7.71</text>
   </g>
   <g id="patch_12">
    <path d="M 358.668 256.32 L 385.452 256.32 L 385.452 184.284901 L 358.668 184.284901 z" style="fill: #1f77b4"/>
    <text x="372.06" y="194.284901" font-size="10" fill="white" text-anchor="middle">9.84</text>
   </g>
  </g>
 </g>
</svg>