<?xml version="1.0" encoding="utf-8"?>
<svg xmlns:xlink="http://www.w3.org/1999/xlink" width="432pt" height="288pt" viewBox="0 0 432 288" xmlns="http://www.w3.org/2000/svg" version="1.1">
 <g>
   <g>
    <rect x="57.348" y="201.486865" width="26.784" height="54.833135" style="fill: #1f77b4"/>
    <text x="70.74" y="190" font-size="10" text-anchor="middle" fill="#000000">6.47</text>
   </g>
   <g>
    <rect x="90.828" y="184.860873" width="26.784" height="71.459127" style="fill: #1f77b4"/>
    <text x="104.22" y="173" font-size="10" text-anchor="middle" fill="#000000">8.44</text>
   </g>
   <g>
    <rect x="124.308" y="207.282028" width="26.784" height="49.037972" style="fill: #1f77b4"/>
    <text x="137.7" y="196" font-size="10" text-anchor="middle" fill="#000000">5.79</text>
   </g>
   <g>
    <rect x="157.788" y="210.994029" width="26.784" height="45.325971" style="fill: #1f77b4"/>
    <text x="171.18" y="200" font-size="10" text-anchor="middle" fill="#000000">5.35</text>
   </g>
   <g>
    <rect x="191.268" y="193.404504" width="26.784" height="62.915496" style="fill: #1f77b4"/>
    <text x="204.66" y="182" font-size="10" text-anchor="middle" fill="#000000">7.43</text>
   </g>
   <g>
    <rect x="224.748" y="213.291352" width="26.784" height="43.028648" style="fill: #1f77b4"/>
    <text x="238.14" y="202" font-size="10" text-anchor="middle" fill="#000000">5.08</text>
   </g>
   <g>
    <rect x="258.228" y="188.466613" width="26.784" height="67.853387" style="fill: #1f77b4"/>
    <text x="271.62" y="177" font-size="10" text-anchor="middle" fill="#000000">8.01</text>
   </g>
   <g>
    <rect x="291.708" y="54.72" width="26.784" height="201.6" style="fill: #ff7f0e"/>
    <text x="305.1" y="43" font-size="10" text-anchor="middle" fill="#000000">23.80</text>
   </g>
   <g>
    <rect x="325.188" y="175.013086" width="26.784" height="81.306914" style="fill: #1f77b4"/>
    <text x="338.58" y="164" font-size="10" text-anchor="middle" fill="#000000">9.60</text>
   </g>
   <g>
    <rect x="358.668" y="200.932567" width="26.784" height="55.387433" style="fill: #1f77b4"/>
    <text x="372.06" y="190" font-size="10" text-anchor="middle" fill="#000000">6.54</text>
   </g>
 </g>
</svg>