<?xml version="1.0" encoding="utf-8"?>
<svg xmlns:xlink="http://www.w3.org/1999/xlink" width="432pt" height="288pt" viewBox="0 0 432 288" xmlns="http://www.w3.org/2000/svg" version="1.1">
 <g>
   <rect x="57.348" y="54.72" width="26.784" height="201.6" style="fill: #ff0000"/>
   <text x="70.74" y="40" font-family="Arial" font-size="10" text-anchor="middle" fill="#000000">24.25</text>
   
   <rect x="224.748" y="190.141971" width="26.784" height="66.178029" style="fill: #1f77b4"/>
   <text x="238.14" y="175.42" font-family="Arial" font-size="10" text-anchor="middle" fill="#000000">7.96</text>
   
   <rect x="90.828" y="185.834343" width="26.784" height="70.485657" style="fill: #1f77b4"/>
   <text x="104.22" y="171.11" font-family="Arial" font-size="10" text-anchor="middle" fill="#000000">8.48</text>
   
   <rect x="124.308" y="194.620137" width="26.784" height="61.699863" style="fill: #1f77b4"/>
   <text x="137.7" y="179.89" font-family="Arial" font-size="10" text-anchor="middle" fill="#000000">7.42</text>
   
   <rect x="157.788" y="184.763968" width="26.784" height="71.556032" style="fill: #1f77b4"/>
   <text x="171.18" y="170.04" font-family="Arial" font-size="10" text-anchor="middle" fill="#000000">8.61</text>
   
   <rect x="191.268" y="211.059" width="26.784" height="45.261" style="fill: #1f77b4"/>
   <text x="204.66" y="196.33" font-family="Arial" font-size="10" text-anchor="middle" fill="#000000">5.44</text>
   
   <rect x="258.228" y="212.768158" width="26.784" height="43.551842" style="fill: #1f77b4"/>
   <text x="271.62" y="198.04" font-family="Arial" font-size="10" text-anchor="middle" fill="#000000">5.24</text>
   
   <rect x="291.708" y="180.425562" width="26.784" height="75.894438" style="fill: #1f77b4"/>
   <text x="305.1" y="165.7" font-family="Arial" font-size="10" text-anchor="middle" fill="#000000">9.13</text>
   
   <rect x="325.188" y="192.877909" width="26.784" height="63.442091" style="fill: #1f77b4"/>
   <text x="338.58" y="178.15" font-family="Arial" font-size="10" text-anchor="middle" fill="#000000">7.63</text>
   
   <rect x="358.668" y="175.433799" width="26.784" height="80.886201" style="fill: #ff0000"/>
   <text x="372.06" y="160.7" font-family="Arial" font-size="10" text-anchor="middle" fill="#000000">9.73</text>
 </g>
</svg>