<?xml version="1.0" encoding="utf-8"?>
<svg xmlns:xlink="http://www.w3.org/1999/xlink" width="432pt" height="288pt" viewBox="0 0 432 288" xmlns="http://www.w3.org/2000/svg" version="1.1">
 <g>
   <rect x="90.828" y="54.72" width="26.784" height="201.6" style="fill: #ff0000"/>
   <rect x="57.348" y="205.352483" width="26.784" height="50.967517" style="fill: #1f77b4"/>
   <rect x="124.308" y="215.561973" width="26.784" height="40.758027" style="fill: #1f77b4"/>
   <rect x="157.788" y="201.431503" width="26.784" height="54.888497" style="fill: #1f77b4"/>
   <rect x="191.268" y="187.950023" width="26.784" height="68.369977" style="fill: #1f77b4"/>
   <rect x="224.748" y="196.354544" width="26.784" height="59.965456" style="fill: #1f77b4"/>
   <rect x="258.228" y="207.479924" width="26.784" height="48.840076" style="fill: #1f77b4"/>
   <rect x="291.708" y="193.806048" width="26.784" height="62.513952" style="fill: #1f77b4"/>
   <rect x="325.188" y="199.5419" width="26.784" height="56.7781" style="fill: #1f77b4"/>
   <rect x="358.668" y="210.59041" width="26.784" height="45.72959" style="fill: #ff0000"/>
   <text x="100" y="40" style="fill: #000000; font-size: 14px">28.90</text>
   <text x="60" y="220" style="fill: #000000; font-size: 14px">7.31</text>
   <text x="130" y="230" style="fill: #000000; font-size: 14px">7.87</text>
   <text x="160" y="215" style="fill: #000000; font-size: 14px">9.80</text>
   <text x="190" y="200" style="fill: #000000; font-size: 14px">8.60</text>
   <text x="220" y="210" style="fill: #000000; font-size: 14px">8.14</text>
   <text x="250" y="220" style="fill: #000000; font-size: 14px">7.00</text>
   <text x="280" y="205" style="fill: #000000; font-size: 14px">8.96</text>
   <text x="310" y="215" style="fill: #000000; font-size: 14px">6.56</text>
   <text x="340" y="225" style="fill: #000000; font-size: 14px">5.84</text>
 </g>
</svg>