<?xml version="1.0" encoding="utf-8"?>
<svg xmlns:xlink="http://www.w3.org/1999/xlink" width="432pt" height="288pt" viewBox="0 0 432 288" xmlns="http://www.w3.org/2000/svg" version="1.1">
 <g>
   <rect x="57.348" y="54.72" width="26.784" height="201.6" style="fill: red;"/>
   <rect x="90.828" y="186.666367" width="26.784" height="69.653633" style="fill: #1f77b4;"/>
   <rect x="124.308" y="187.391845" width="26.784" height="68.928155" style="fill: #1f77b4;"/>
   <rect x="157.788" y="217.384225" width="26.784" height="38.935775" style="fill: #1f77b4;"/>
   <rect x="191.268" y="186.699335" width="26.784" height="69.620665" style="fill: #1f77b4;"/>
   <rect x="224.748" y="54.72" width="26.784" height="201.6" style="fill: red;"/>
   <rect x="258.228" y="198.045012" width="26.784" height="58.274988" style="fill: #1f77b4;"/>
   <rect x="291.708" y="217.197901" width="26.784" height="39.122099" style="fill: #1f77b4;"/>
   <rect x="325.188" y="219.674162" width="26.784" height="36.645838" style="fill: #1f77b4;"/>
   <rect x="358.668" y="209.365321" width="26.784" height="46.954679" style="fill: #1f77b4;"/>
   <text x="70.74" y="20" font-family="Arial" font-size="10" fill="black">8.74</text>
   <text x="104.22" y="20" font-family="Arial" font-size="10" fill="black">9.78</text>
   <text x="137.7" y="20" font-family="Arial" font-size="10" fill="black">9.68</text>
   <text x="171.18" y="20" font-family="Arial" font-size="10" fill="black">5.47</text>
   <text x="204.66" y="20" font-family="Arial" font-size="10" fill="black">9.77</text>
   <text x="238.14" y="20" font-family="Arial" font-size="10" fill="black">28.31</text>
   <text x="271.62" y="20" font-family="Arial" font-size="10" fill="black">8.18</text>
   <text x="305.1" y="20" font-family="Arial" font-size="10" fill="black">5.49</text>
   <text x="338.58" y="20" font-family="Arial" font-size="10" fill="black">5.15</text>
   <text x="372.06" y="20" font-family="Arial" font-size="10" fill="black">6.59</text>
 </g>
</svg>