<?xml version="1.0" encoding="utf-8"?>
<svg xmlns:xlink="http://www.w3.org/1999/xlink" width="432pt" height="288pt" viewBox="0 0 432 288" xmlns="http://www.w3.org/2000/svg" version="1.1">
 <g>
   <rect x="57.348" y="54.72" width="26.784" height="201.6" style="fill: red;"/>
   <rect x="90.828" y="217.972362" width="26.784" height="38.347638" style="fill: #1f77b4;"/>
   <rect x="124.308" y="196.349308" width="26.784" height="59.970692" style="fill: #1f77b4;"/>
   <rect x="157.788" y="202.579803" width="26.784" height="53.740197" style="fill: #1f77b4;"/>
   <rect x="191.268" y="191.753653" width="26.784" height="64.566347" style="fill: #1f77b4;"/>
   <rect x="224.748" y="54.72" width="26.784" height="201.6" style="fill: red;"/>
   <rect x="258.228" y="196.836739" width="26.784" height="59.483261" style="fill: #1f77b4;"/>
   <rect x="291.708" y="200.681934" width="26.784" height="55.638066" style="fill: #1f77b4;"/>
   <rect x="325.188" y="220.029243" width="26.784" height="36.290757" style="fill: #1f77b4;"/>
   <rect x="358.668" y="214.035334" width="26.784" height="42.284666" style="fill: #1f77b4;"/>
   <text x="70.74" y="20" font-family="Arial" font-size="10" fill="black">7.56</text>
   <text x="104.22" y="20" font-family="Arial" font-size="10" fill="black">5.32</text>
   <text x="137.7" y="20" font-family="Arial" font-size="10" fill="black">8.33</text>
   <text x="171.18" y="20" font-family="Arial" font-size="10" fill="black">7.46</text>
   <text x="204.66" y="20" font-family="Arial" font-size="10" fill="black">8.96</text>
   <text x="238.14" y="20" font-family="Arial" font-size="10" fill="black">27.99</text>
   <text x="271.62" y="20" font-family="Arial" font-size="10" fill="black">8.26</text>
   <text x="305.1" y="20" font-family="Arial" font-size="10" fill="black">7.72</text>
   <text x="338.58" y="20" font-family="Arial" font-size="10" fill="black">5.04</text>
   <text x="372.06" y="20" font-family="Arial" font-size="10" fill="black">5.87</text>
 </g>
</svg>