<?xml version="1.0" encoding="utf-8"?>
<svg xmlns:xlink="http://www.w3.org/1999/xlink" width="432pt" height="288pt" viewBox="0 0 432 288" xmlns="http://www.w3.org/2000/svg" version="1.1">
 <g>
   <rect x="57.348" y="196.93769" width="26.784" height="59.38231" style="fill: #ff0000"/>
   <text x="70.74" y="194.884484" fill="black" font-size="10" text-anchor="middle">7.74</text>
   
   <rect x="90.828" y="193.816678" width="26.784" height="62.503322" style="fill: #1f77b4"/>
   <text x="104.22" y="192.153869" fill="black" font-size="10" text-anchor="middle">8.14</text>
   
   <rect x="124.308" y="203.505916" width="26.784" height="52.814084" style="fill: #1f77b4"/>
   <text x="137.7" y="201.279995" fill="black" font-size="10" text-anchor="middle">6.88</text>
   
   <rect x="157.788" y="196.966496" width="26.784" height="59.353504" style="fill: #1f77b4"/>
   <text x="171.18" y="193.821234" fill="black" font-size="10" text-anchor="middle">7.73</text>
   
   <rect x="191.268" y="215.686616" width="26.784" height="40.633384" style="fill: #1f77b4"/>
   <text x="204.66" y="213.57186" fill="black" font-size="10" text-anchor="middle">5.29</text>
   
   <rect x="224.748" y="54.72" width="26.784" height="201.6" style="fill: #00ff00"/>
   <text x="238.14" y="52.605244" fill="black" font-size="10" text-anchor="middle">26.26</text>
   
   <rect x="258.228" y="204.71064" width="26.784" height="51.60936" style="fill: #1f77b4"/>
   <text x="271.62" y="203.03029" fill="black" font-size="10" text-anchor="middle">6.72</text>
   
   <rect x="291.708" y="214.750712" width="26.784" height="41.569288" style="fill: #1f77b4"/>
   <text x="305.1" y="213.756905" fill="black" font-size="10" text-anchor="middle">5.42</text>
   
   <rect x="325.188" y="204.187196" width="26.784" height="52.132804" style="fill: #1f77b4"/>
   <text x="338.58" y="203.854405" fill="black" font-size="10" text-anchor="middle">6.79</text>
   
   <rect x="358.668" y="201.021526" width="26.784" height="55.298474" style="fill: #1f77b4"/>
   <text x="372.06" y="195.12677" fill="black" font-size="10" text-anchor="middle">7.20</text>
 </g>
</svg>