<?xml version="1.0" encoding="utf-8"?>
<svg xmlns:xlink="http://www.w3.org/1999/xlink" width="432pt" height="288pt" viewBox="0 0 432 288" xmlns="http://www.w3.org/2000/svg" version="1.1">
 <g>
   <rect x="57.348" y="54.72" width="26.784" height="201.6" style="fill: red;"/>
   <text x="70.74" y="40" fill="black" font-size="10" text-anchor="middle">26.27</text>
   
   <rect x="90.828" y="214.520825" width="26.784" height="41.799175" style="fill: #1f77b4;"/>
   <text x="104.22" y="220" fill="black" font-size="10" text-anchor="middle">5.45</text>
   
   <rect x="124.308" y="198.167615" width="26.784" height="58.152385" style="fill: #1f77b4;"/>
   <text x="137.7" y="204" fill="black" font-size="10" text-anchor="middle">7.58</text>
   
   <rect x="157.788" y="211.635163" width="26.784" height="44.684837" style="fill: #1f77b4;"/>
   <text x="171.18" y="217" fill="black" font-size="10" text-anchor="middle">5.82</text>
   
   <rect x="191.268" y="202.38167" width="26.784" height="53.93833" style="fill: #1f77b4;"/>
   <text x="204.66" y="208" fill="black" font-size="10" text-anchor="middle">7.03</text>
   
   <rect x="224.748" y="216.375746" width="26.784" height="39.944254" style="fill: #1f77b4;"/>
   <text x="238.14" y="222" fill="black" font-size="10" text-anchor="middle">5.21</text>
   
   <rect x="258.228" y="202.38167" width="26.784" height="53.93833" style="fill: #1f77b4;"/>
   <text x="271.62" y="208" fill="black" font-size="10" text-anchor="middle">7.16</text>
   
   <rect x="291.708" y="216.1821" width="26.784" height="40.1379" style="fill: #1f77b4;"/>
   <text x="305.1" y="222" fill="black" font-size="10" text-anchor="middle">5.23</text>
   
   <rect x="325.188" y="181.093485" width="26.784" height="75.226515" style="fill: #1f77b4;"/>
   <text x="338.58" y="187" fill="black" font-size="10" text-anchor="middle">9.80</text>
   
   <rect x="358.668" y="215.46609" width="26.784" height="40.85391" style="fill: #1f77b4;"/>
   <text x="372.06" y="221" fill="black" font-size="10" text-anchor="middle">5.32</text>
 </g>
</svg>