<?xml version="1.0" encoding="utf-8"?>
<svg xmlns:xlink="http://www.w3.org/1999/xlink" width="432pt" height="288pt" viewBox="0 0 432 288" xmlns="http://www.w3.org/2000/svg" version="1.1">
 <g>
   <rect x="57.348" y="54.72" width="26.784" height="201.6" style="fill: red;"/>
   <text x="70.74" y="40" font-size="10" text-anchor="middle" alignment-baseline="middle" fill="black">28.01</text>
   
   <rect x="90.828" y="214.780398" width="26.784" height="41.539602" style="fill: #1f77b4;"/>
   <text x="104.22" y="230" font-size="10" text-anchor="middle" alignment-baseline="middle" fill="black">5.60</text>
   
   <rect x="124.308" y="199.889816" width="26.784" height="56.430184" style="fill: #1f77b4;"/>
   <text x="137.7" y="215" font-size="10" text-anchor="middle" alignment-baseline="middle" fill="black">7.63</text>
   
   <rect x="157.788" y="196.45538" width="26.784" height="59.86462" style="fill: #1f77b4;"/>
   <text x="171.18" y="211" font-size="10" text-anchor="middle" alignment-baseline="middle" fill="black">7.95</text>
   
   <rect x="191.268" y="205.243703" width="26.784" height="51.076297" style="fill: #1f77b4;"/>
   <text x="204.66" y="220" font-size="10" text-anchor="middle" alignment-baseline="middle" fill="black">7.10</text>
   
   <rect x="224.748" y="199.103591" width="26.784" height="57.216409" style="fill: #1f77b4;"/>
   <text x="238.14" y="215" font-size="10" text-anchor="middle" alignment-baseline="middle" fill="black">8.32</text>
   
   <rect x="258.228" y="187.756447" width="26.784" height="68.563553" style="fill: #1f77b4;"/>
   <text x="271.62" y="203" font-size="10" text-anchor="middle" alignment-baseline="middle" fill="black">9.53</text>
   
   <rect x="291.708" y="201.417468" width="26.784" height="54.902532" style="fill: #1f77b4;"/>
   <text x="305.1" y="217" font-size="10" text-anchor="middle" alignment-baseline="middle" fill="black">7.63</text>
   
   <rect x="325.188" y="211.40098" width="26.784" height="44.91902" style="fill: #1f77b4;"/>
   <text x="338.58" y="227" font-size="10" text-anchor="middle" alignment-baseline="middle" fill="black">6.24</text>
   
   <rect x="358.668" y="216.031288" width="26.784" height="40.288712" style="fill: #1f77b4;"/>
   <text x="371.06" y="231" font-size="10" text-anchor="middle" alignment-baseline="middle" fill="black">5.77</text>
 </g>
</svg>