<?xml version="1.0" encoding="utf-8"?>
<svg xmlns:xlink="http://www.w3.org/1999/xlink" width="432pt" height="288pt" viewBox="0 0 432 288" xmlns="http://www.w3.org/2000/svg" version="1.1">
 <g>
   <rect x="57.348" y="188.034019" width="26.784" height="68.285981" style="fill: #1f77b4"/>
   <rect x="90.828" y="197.382909" width="26.784" height="58.937091" style="fill: #1f77b4"/>
   <rect x="124.308" y="188.489105" width="26.784" height="67.830895" style="fill: #1f77b4"/>
   <rect x="157.788" y="196.884925" width="26.784" height="59.435075" style="fill: #1f77b4"/>
   <rect x="191.268" y="184.622562" width="26.784" height="71.697438" style="fill: #1f77b4"/>
   <rect x="224.748" y="207.891705" width="26.784" height="48.428295" style="fill: #1f77b4"/>
   <rect x="258.228" y="190.093616" width="26.784" height="66.226384" style="fill: #1f77b4"/>
   <rect x="291.708" y="54.72" width="26.784" height="201.6" style="fill: red"/>
   <rect x="325.188" y="191.56615" width="26.784" height="64.75385" style="fill: #1f77b4"/>
   <rect x="358.668" y="181.387869" width="26.784" height="74.932131" style="fill: green"/>
 </g>
 <text x="70.74" y="178.034019" font-family="Arial" font-size="10" fill="black">8.83</text>
 <text x="104.22" y="187.382909" font-family="Arial" font-size="10" fill="black">7.62</text>
 <text x="137.7" y="178.489105" font-family="Arial" font-size="10" fill="black">8.77</text>
 <text x="171.18" y="186.884925" font-family="Arial" font-size="10" fill="black">7.68</text>
 <text x="204.66" y="174.622562" font-family="Arial" font-size="10" fill="black">9.27</text>
 <text x="238.14" y="197.891705" font-family="Arial" font-size="10" fill="black">6.26</text>
 <text x="271.62" y="180.093616" font-family="Arial" font-size="10" fill="black">8.56</text>
 <text x="305.1" y="44.72" font-family="Arial" font-size="10" fill="black">26.06</text>
 <text x="338.58" y="181.56615" font-family="Arial" font-size="10" fill="black">8.37</text>
 <text x="372.06" y="171.387869" font-family="Arial" font-size="10" fill="black">9.69</text>
</svg>