<?xml version="1.0" encoding="utf-8"?>
<svg xmlns:xlink="http://www.w3.org/1999/xlink" width="432pt" height="288pt" viewBox="0 0 432 288" xmlns="http://www.w3.org/2000/svg" version="1.1">
 <g>
   <rect x="57.348" y="54.72" width="26.784" height="201.6" style="fill: #ff0000"/>
   <rect x="90.828" y="182.134" width="26.784" height="74.186" style="fill: #1f77b4"/>
   <rect x="124.308" y="192.360443" width="26.784" height="63.959557" style="fill: #1f77b4"/>
   <rect x="157.788" y="215.708728" width="26.784" height="40.611272" style="fill: #1f77b4"/>
   <rect x="191.268" y="183.2845" width="26.784" height="73.0355" style="fill: #1f77b4"/>
   <rect x="224.748" y="192.747302" width="26.784" height="63.572698" style="fill: #1f77b4"/>
   <rect x="258.228" y="188.528806" width="26.784" height="67.791194" style="fill: #1f77b4"/>
   <rect x="291.708" y="188.741636" width="26.784" height="67.578364" style="fill: #1f77b4"/>
   <rect x="325.188" y="187.214492" width="26.784" height="69.105508" style="fill: #1f77b4"/>
   <rect x="358.668" y="187.214492" width="26.784" height="69.105508" style="fill: #ff0000"/>
   <text x="70.74" y="270.918437" fill="black" font-size="10">0</text>
   <text x="104.22" y="270.918437" fill="black" font-size="10">1</text>
   <text x="137.7" y="270.918437" fill="black" font-size="10">2</text>
   <text x="171.18" y="270.918437" fill="black" font-size="10">3</text>
   <text x="204.66" y="270.918437" fill="black" font-size="10">4</text>
   <text x="238.14" y="270.918437" fill="black" font-size="10">5</text>
   <text x="271.62" y="270.918437" fill="black" font-size="10">6</text>
   <text x="305.1" y="270.918437" fill="black" font-size="10">7</text>
   <text x="338.58" y="270.918437" fill="black" font-size="10">8</text>
   <text x="372.06" y="270.918437" fill="black" font-size="10">9</text>
 </g>
</svg>