<?xml version="1.0" encoding="utf-8"?>
<svg width="432pt" height="288pt" viewBox="0 0 432 288" xmlns="http://www.w3.org/2000/svg" version="1.1">
  <g>
    <rect x="57.348" y="54.72" width="26.784" height="201.6" style="fill: #ff0000;"/>
    <text x="70.74" y="40" font-size="10" text-anchor="middle" alignment-baseline="middle" fill="#000000">26.97</text>
    
    <rect x="90.828" y="202.512492" width="26.784" height="53.807508" style="fill: #1f77b4;"/>
    <text x="104.22" y="220" font-size="10" text-anchor="middle" alignment-baseline="middle" fill="#000000">7.20</text>
    
    <rect x="124.308" y="191.456264" width="26.784" height="64.863736" style="fill: #1f77b4;"/>
    <text x="137.7" y="210" font-size="10" text-anchor="middle" alignment-baseline="middle" fill="#000000">8.68</text>
    
    <rect x="157.788" y="197.223025" width="26.784" height="59.096975" style="fill: #1f77b4;"/>
    <text x="171.18" y="215" font-size="10" text-anchor="middle" alignment-baseline="middle" fill="#000000">7.91</text>
    
    <rect x="191.268" y="54.72" width="26.784" height="201.6" style="fill: #ff0000;"/>
    <text x="204.66" y="40" font-size="10" text-anchor="middle" alignment-baseline="middle" fill="#000000">26.97</text>
    
    <rect x="224.748" y="195.294772" width="26.784" height="60.025228" style="fill: #1f77b4;"/>
    <text x="238.14" y="215" font-size="10" text-anchor="middle" alignment-baseline="middle" fill="#000000">8.16</text>
    
    <rect x="258.228" y="207.014922" width="26.784" height="49.305078" style="fill: #1f77b4;"/>
    <text x="271.62" y="225" font-size="10" text-anchor="middle" alignment-baseline="middle" fill="#000000">6.60</text>
    
    <rect x="291.708" y="206.82041" width="26.784" height="49.49959" style="fill: #1f77b4;"/>
    <text x="305.1" y="225" font-size="10" text-anchor="middle" alignment-baseline="middle" fill="#000000">6.62</text>
    
    <rect x="325.188" y="209.642251" width="26.784" height="46.677749" style="fill: #1f77b4;"/>
    <text x="338.58" y="225" font-size="10" text-anchor="middle" alignment-baseline="middle" fill="#000000">6.24</text>
    
    <rect x="358.668" y="210.764702" width="26.784" height="45.555298" style="fill: #1f77b4;"/>
    <text x="372.06" y="225" font-size="10" text-anchor="middle" alignment-baseline="middle" fill="#000000">6.09</text>
  </g>
</svg>