<?xml version="1.0" standalone="no"?>
<!DOCTYPE svg PUBLIC "-//W3C//DTD SVG 1.1//EN" "http://www.w3.org/Graphics/SVG/1.1/DTD/svg11.dtd">
<svg width="432pt" height="288pt" viewBox="0 0 432 288" xmlns="http://www.w3.org/2000/svg" version="1.1">
  <g>
    <rect x="90.828" y="54.72" width="26.784" height="201.6" style="fill: #ff0000;"/>
    <text x="106.474861" y="52.605244" font-size="10" text-anchor="middle" fill="#000000">23.80</text>
    <rect x="57.348" y="194.249056" width="26.784" height="62.070944" style="fill: #1f77b4;"/>
    <text x="72.700429" y="192.1343" font-size="10" text-anchor="middle" fill="#000000">7.33</text>
    <rect x="124.308" y="209.308932" width="26.784" height="46.011068" style="fill: #1f77b4;"/>
    <text x="140.06387" y="208.388122" font-size="10" text-anchor="middle" fill="#000000">5.55</text>
    <rect x="157.788" y="183.540034" width="26.784" height="72.779966" style="fill: #1f77b4;"/>
    <text x="173.490509" y="182.250111" font-size="10" text-anchor="middle" fill="#000000">8.59</text>
    <rect x="191.268" y="172.026106" width="26.784" height="84.293894" style="fill: #1f77b4;"/>
    <text x="206.671364" y="169.911351" font-size="10" text-anchor="middle" fill="#000000">9.95</text>
    <rect x="224.748" y="198.601852" width="26.784" height="57.718148" style="fill: #1f77b4;"/>
    <text x="236.181628" y="196.102813" font-size="10" text-anchor="middle" fill="#000000">6.81</text>
    <rect x="258.228" y="204.397515" width="26.784" height="51.922485" style="fill: #1f77b4;"/>
    <text x="276.322457" y="204.688214" font-size="10" text-anchor="middle" fill="#000000">6.13</text>
    <rect x="291.708" y="171.718937" width="26.784" height="84.601063" style="fill: #1f77b4;"/>
    <text x="307.085897" y="169.604182" font-size="10" text-anchor="middle" fill="#000000">9.99</text>
    <rect x="325.188" y="200.341011" width="26.784" height="55.978989" style="fill: #1f77b4;"/>
    <text x="340.863828" y="199.666813" font-size="10" text-anchor="middle" fill="#000000">6.61</text>
    <rect x="358.668" y="176.512574" width="26.784" height="79.807426" style="fill: #ff0000;"/>
    <text x="370.727745" y="174.397818" font-size="10" text-anchor="middle" fill="#000000">9.42</text>
  </g>
</svg>