<?xml version="1.0" encoding="utf-8"?>
<svg xmlns:xlink="http://www.w3.org/1999/xlink" width="432pt" height="288pt" viewBox="0 0 432 288" xmlns="http://www.w3.org/2000/svg" version="1.1">
 <g>
   <rect x="57.348" y="54.72" width="26.784" height="201.6" style="fill: #ff0000"/>
   <text x="70.74" y="40" font-family="Arial" font-size="10" fill="black" text-anchor="middle">25.78</text>
   
   <rect x="90.828" y="210.938017" width="26.784" height="45.381983" style="fill: #1f77b4"/>
   <text x="104.22" y="220" font-family="Arial" font-size="10" fill="black" text-anchor="middle">7.81</text>
   
   <rect x="124.308" y="195.219661" width="26.784" height="61.100339" style="fill: #1f77b4"/>
   <text x="137.7" y="205" font-family="Arial" font-size="10" fill="black" text-anchor="middle">9.23</text>
   
   <rect x="157.788" y="184.124788" width="26.784" height="72.195212" style="fill: #1f77b4"/>
   <text x="171.18" y="194" font-family="Arial" font-size="10" fill="black" text-anchor="middle">9.41</text>
   
   <rect x="191.268" y="182.720595" width="26.784" height="73.599405" style="fill: #1f77b4"/>
   <text x="204.66" y="192" font-family="Arial" font-size="10" fill="black" text-anchor="middle">7.50</text>
   
   <rect x="224.748" y="197.657832" width="26.784" height="58.662168" style="fill: #1f77b4"/>
   <text x="238.14" y="207" font-family="Arial" font-size="10" fill="black" text-anchor="middle">8.99</text>
   
   <rect x="258.228" y="186.004821" width="26.784" height="70.315179" style="fill: #1f77b4"/>
   <text x="271.62" y="196" font-family="Arial" font-size="10" fill="black" text-anchor="middle">7.66</text>
   
   <rect x="291.708" y="196.389828" width="26.784" height="59.930172" style="fill: #1f77b4"/>
   <text x="305.1" y="206" font-family="Arial" font-size="10" fill="black" text-anchor="middle">5.17</text>
   
   <rect x="325.188" y="54.72" width="26.784" height="201.6" style="fill: #ff0000"/>
   <text x="338.58" y="40" font-family="Arial" font-size="10" fill="black" text-anchor="middle">25.78</text>
   
   <rect x="358.668" y="215.918383" width="26.784" height="40.401617" style="fill: #1f77b4"/>
   <text x="372.06" y="225" font-family="Arial" font-size="10" fill="black" text-anchor="middle">5.80</text>
 </g>
</svg>