<?xml version="1.0" encoding="utf-8"?>
<svg xmlns:xlink="http://www.w3.org/1999/xlink" width="432pt" height="288pt" viewBox="0 0 432 288" xmlns="http://www.w3.org/2000/svg" version="1.1">
 <defs>
  <style type="text/css">*{stroke-linejoin: round; stroke-linecap: butt}</style>
  <path id="m560e8c256d" d="M 0 3 
C 0.795609 3 1.55874 2.683901 2.12132 2.12132 
C 2.683901 1.55874 3 0.795609 3 0 
C 3 -0.795609 2.683901 -1.55874 2.12132 -2.12132 
C 1.55874 -2.683901 0.795609 -3 0 -3 
C -0.795609 -3 -1.55874 -2.683901 -2.12132 -2.12132 
C -2.683901 -1.55874 -3 -0.795609 -3 0 
C -3 0.795609 -2.683901 1.55874 -2.12132 2.12132 
C -1.55874 2.683901 -0.795609 3 0 3 
z"/>
 </defs>
 <g>
  <path d="M 69.218182 112.195526 
L 81.9 106.606341 
L 94.581818 88.44804 
L 107.263636 72.026264 
L 119.945455 128.457899 
L 132.627273 87.349056 
L 145.309091 133.598095 
L 157.990909 93.938233 
L 170.672727 113.668412 
L 183.354545 114.069887 
L 196.036364 246.24 
L 208.718182 139.074184 
L 221.4 119.128707 
L 234.081818 142.731096 
L 246.763636 144.173624 
L 259.445455 133.585546 
L 272.127273 160.978497 
L 284.809091 159.918304 
L 297.490909 193.325279 
L 310.172727 147.310877 
L 322.854545 162.062112 
L 335.536364 168.050461 
L 348.218182 44.64 
L 360.9 193.53193 
L 373.581818 173.501898" style="fill: none; stroke: #1f77b4; stroke-width: 1.5; stroke-linecap: square"/>
  <use xlink:href="#m560e8c256d" x="69.218182" y="112.195526" style="fill: #ff7f0e; stroke: #ff7f0e"/>
  <use xlink:href="#m560e8c256d" x="81.9" y="106.606341" style="fill: #1f77b4; stroke: #1f77b4"/>
  <use xlink:href="#m560e8c256d" x="94.581818" y="88.44804" style="fill: #1f77b4; stroke: #1f77b4"/>
  <use xlink:href="#m560e8c256d" x="107.263636" y="72.026264" style="fill: #1f77b4; stroke: #1f77b4"/>
  <use xlink:href="#m560e8c256d" x="119.945455" y="128.457899" style="fill: #1f77b4; stroke: #1f77b4"/>
  <use xlink:href="#m560e8c256d" x="132.627273" y="87.349056" style="fill: #1f77b4; stroke: #1f77b4"/>
  <use xlink:href="#m560e8c256d" x="145.309091" y="133.598095" style="fill: #1f77b4; stroke: #1f77b4"/>
  <use xlink:href="#m560e8c256d" x="157.990909" y="93.938233" style="fill: #1f77b4; stroke: #1f77b4"/>
  <use xlink:href="#m560e8c256d" x="170.672727" y="113.668412" style="fill: #1f77b4; stroke: #1f77b4"/>
  <use xlink:href="#m560e8c256d" x="183.354545" y="114.069887" style="fill: #1f77b4; stroke: #1f77b4"/>
  <use xlink:href="#m560e8c256d" x="196.036364" y="246.24" style="fill: #d62728; stroke: #d62728"/>
  <use xlink:href="#m560e8c256d" x="208.718182" y="139.074184" style="fill: #1f77b4; stroke: #1f77b4"/>
  <use xlink:href="#m560e8c256d" x="221.4" y="119.128707" style="fill: #1f77b4; stroke: #1f77b4"/>
  <use xlink:href="#m560e8c256d" x="234.081818" y="142.731096" style="fill: #1f77b4; stroke: #1f77b4"/>
  <use xlink:href="#m560e8c256d" x="246.763636" y="144.173624" style="fill: #1f77b4; stroke: #1f77b4"/>
  <use xlink:href="#m560e8c256d" x="259.445455" y="133.585546" style="fill: #1f77b4; stroke: #1f77b4"/>
  <use xlink:href="#m560e8c256d" x="272.127273" y="160.978497" style="fill: #1f77b4; stroke: #1f77b4"/>
  <use xlink:href="#m560e8c256d" x="284.809091" y="159.918304" style="fill: #1f77b4; stroke: #1f77b4"/>
  <use xlink:href="#m560e8c256d" x="297.490909" y="193.325279" style="fill: #1f77b4; stroke: #1f77b4"/>
  <use xlink:href="#m560e8c256d" x="310.172727" y="147.310877" style="fill: #1f77b4; stroke: #1f77b4"/>
  <use xlink:href="#m560e8c256d" x="322.854545" y="162.062112" style="fill: #1f77b4; stroke: #1f77b4"/>
  <use xlink:href="#m560e8c256d" x="335.536364" y="168.050461" style="fill: #1f77b4; stroke: #1f77b4"/>
  <use xlink:href="#m560e8c256d" x="348.218182" y="44.64" style="fill: #2ca02c; stroke: #2ca02c"/>
  <use xlink:href="#m560e8c256d" x="360.9" y="193.53193" style="fill: #1f77b4; stroke: #1f77b4"/>
  <use xlink:href="#m560e8c256d" x="373.581818" y="173.501898" style="fill: #1f77b4; stroke: #1f77b4"/>
 </g>
</svg>