<?xml version="1.0" encoding="utf-8"?>
<svg xmlns:xlink="http://www.w3.org/1999/xlink" width="432pt" height="288pt" viewBox="0 0 432 288" xmlns="http://www.w3.org/2000/svg" version="1.1">
 <defs>
  <style type="text/css">*{stroke-linejoin: round; stroke-linecap: butt}</style>
  <path id="extremumPoint" d="M 0 3 
C 0.795609 3 1.55874 2.683901 2.12132 2.12132 
C 2.683901 1.55874 3 0.795609 3 0 
C 3 -0.795609 2.683901 -1.55874 2.12132 -2.12132 
C 1.55874 -2.683901 0.795609 -3 0 -3 
C -0.795609 -3 -1.55874 -2.683901 -2.12132 -2.12132 
C -2.683901 -1.55874 -3 -0.795609 -3 0 
C -3 0.795609 -2.683901 1.55874 -2.12132 2.12132 
C -1.55874 2.683901 -0.795609 3 0 3 
z" />
 </defs>
 <g>
  <path d="M 69.218182 170.007789 
L 81.9 165.509548 
L 94.581818 141.563237 
L 107.263636 152.871324 
L 119.945455 173.495264 
L 132.627273 44.64 
L 145.309091 156.120363 
L 157.990909 187.463926 
L 170.672727 181.97827 
L 183.354545 195.92302 
L 196.036364 169.542939 
L 208.718182 178.752412 
L 221.4 158.090522 
L 234.081818 180.489453 
L 246.763636 164.310849 
L 259.445455 170.050656 
L 272.127273 175.784194 
L 284.809091 196.13185 
L 297.490909 167.535526 
L 310.172727 164.269227 
L 322.854545 166.0238 
L 335.536364 246.24 
L 348.218182 173.367887 
L 360.9 171.560315 
L 373.581818 167.119375" style="fill: none; stroke: #1f77b4; stroke-width: 1.5; stroke-linecap: square"/>
  <use xlink:href="#extremumPoint" x="132.627273" y="44.64" style="fill: red; stroke: red;"/>
  <use xlink:href="#extremumPoint" x="335.536364" y="246.24" style="fill: green; stroke: green;"/>
 </g>
</svg>