<?xml version="1.0" encoding="utf-8"?>
<svg xmlns:xlink="http://www.w3.org/1999/xlink" width="432pt" height="288pt" viewBox="0 0 432 288" xmlns="http://www.w3.org/2000/svg" version="1.1">
 <defs>
  <style type="text/css">*{stroke-linejoin: round; stroke-linecap: butt}</style>
  <path id="extremum-point" d="M 0 3 
C 0.795609 3 1.55874 2.683901 2.12132 2.12132 
C 2.683901 1.55874 3 0.795609 3 0 
C 3 -0.795609 2.683901 -1.55874 2.12132 -2.12132 
C 1.55874 -2.683901 0.795609 -3 0 -3 
C -0.795609 -3 -1.55874 -2.683901 -2.12132 -2.12132 
C -2.683901 -1.55874 -3 -0.795609 -3 0 
C -3 0.795609 -2.683901 1.55874 -2.12132 2.12132 
C -1.55874 2.683901 -0.795609 3 0 3 
z" />
 </defs>
 <g>
  <path d="M 69.218182 123.854894 
L 81.9 44.64 
L 94.581818 130.058422 
L 107.263636 140.942784 
L 119.945455 155.934954 
L 132.627273 155.312451 
L 145.309091 168.37599 
L 157.990909 175.946863 
L 170.672727 182.225828 
L 183.354545 246.24 
L 196.036364 183.359654 
L 208.718182 161.850061 
L 221.4 174.421872 
L 234.081818 174.608537 
L 246.763636 192.562139 
L 259.445455 194.134987 
L 272.127273 185.248513 
L 284.809091 187.355206 
L 297.490909 186.816054 
L 310.172727 195.564523 
L 322.854545 191.508374 
L 335.536364 212.256946 
L 348.218182 215.626521 
L 360.9 225.549281 
L 373.581818 216.473921" 
style="fill: none; stroke: #1f77b4; stroke-width: 1.5; stroke-linecap: round"/>
  <!-- Highlighting the lowest Y value point -->
  <use xlink:href="#extremum-point" x="81.9" y="44.64" style="fill: red; stroke: red;"/>
  <!-- Highlighting the highest Y value point -->
  <use xlink:href="#extremum-point" x="183.354545" y="246.24" style="fill: green; stroke: green;"/>
 </g>
</svg>