<svg xmlns:xlink="http://www.w3.org/1999/xlink" width="432pt" height="288pt" viewBox="0 0 432 288" xmlns="http://www.w3.org/2000/svg" version="1.1">
 <g>
   <g>
    <path d="M 108.9072 256.32 L 119.6208 256.32 L 119.6208 190.603307 L 108.9072 190.603307 z" style="fill: #1f77b4"/>
    <text x="108.9072" y="190.603307" font-family="Arial" font-size="10" fill="black">7.39</text>
   </g>
   <g>
    <path d="M 122.2992 256.32 L 133.0128 256.32 L 133.0128 194.271788 L 122.2992 194.271788 z" style="fill: #1f77b4"/>
    <text x="122.2992" y="194.271788" font-family="Arial" font-size="10" fill="black">7.52</text>
   </g>
   <g>
    <path d="M 135.6912 256.32 L 146.4048 256.32 L 146.4048 193.180761 L 135.6912 193.180761 z" style="fill: #1f77b4"/>
    <text x="135.6912" y="193.180761" font-family="Arial" font-size="10" fill="black">7.44</text>
   </g>
   <g>
    <path d="M 149.0832 256.32 L 159.7968 256.32 L 159.7968 193.90385 L 149.0832 193.90385 z" style="fill: #1f77b4"/>
    <text x="149.0832" y="193.90385" font-family="Arial" font-size="10" fill="black">7.65</text>
   </g>
   <g>
    <path d="M 162.4752 256.32 L 173.1888 256.32 L 173.1888 211.883204 L 162.4752 211.883204 z" style="fill: #1f77b4"/>
    <text x="162.4752" y="211.883204" font-family="Arial" font-size="10" fill="black">5.33</text>
   </g>
   <g>
    <path d="M 175.8672 256.32 L 186.5808 256.32 L 186.5808 210.67554 L 175.8672 210.67554 z" style="fill: #1f77b4"/>
    <text x="175.8672" y="210.67554" font-family="Arial" font-size="10" fill="black">7.84</text>
   </g>
   <g>
    <path d="M 189.2592 256.32 L 199.9728 256.32 L 199.9728 192.102639 L 189.2592 192.102639 z" style="fill: #1f77b4"/>
    <text x="189.2592" y="192.102639" font-family="Arial" font-size="10" fill="black">5.12</text>
   </g>
   <g>
    <path d="M 202.6512 256.32 L 213.3648 256.32 L 213.3648 211.569865 L 202.6512 211.569865 z" style="fill: #1f77b4"/>
    <text x="202.6512" y="211.569865" font-family="Arial" font-size="10" fill="black">7.81</text>
   </g>
 </g>
</svg>