<?xml version="1.0" encoding="utf-8"?>
<svg xmlns:xlink="http://www.w3.org/1999/xlink" width="432pt" height="288pt" viewBox="0 0 432 288" xmlns="http://www.w3.org/2000/svg" version="1.1">
 <defs>
  <style type="text/css">*{stroke-linejoin: round; stroke-linecap: butt}</style>
 </defs>
 <g id="figure_1">
  <g id="patch_1">
   <path d="M 0 288 
L 432 288 
L 432 0 
L 0 0 
L 0 288 
z
" style="fill: none"/>
  </g>
  <g id="axes_1">
   <g id="patch_2">
    <path d="M 54 256.32 
L 388.8 256.32 
L 388.8 34.56 
L 54 34.56 
z
" style="fill: #ffffff"/>
   </g>
   <g id="patch_5">
    <path d="M 82.1232 256.32 
L 92.8368 256.32 
L 92.8368 203.046647 
L 82.1232 203.046647 
z
" clip-path="url(#p831af19324)" style="fill: #1f77b4"/>
    <text x="87.48" y="229.6833235" font-size="10" text-anchor="middle" fill="black">7.31</text>
   </g>
   <g id="patch_6">
    <path d="M 95.5152 256.32 
L 106.2288 256.32 
L 106.2288 54.72 
L 95.5152 54.72 
z
" clip-path="url(#p831af19324)" style="fill: #1f77b4"/>
    <text x="100.872" y="155.52" font-size="10" text-anchor="middle" fill="black">27.67</text>
   </g>
   <g id="patch_7">
    <path d="M 108.9072 256.32 
L 119.6208 256.32 
L 119.6208 195.223052 
L 108.9072 195.223052 
z
" clip-path="url(#p831af19324)" style="fill: #1f77b4"/>
    <text x="114.264" y="225.771526" font-size="10" text-anchor="middle" fill="black">8.39</text>
   </g>
   <g id="patch_8">
    <path d="M 122.2992 256.32 
L 133.0128 256.32 
L 133.0128 187.701945 
L 122.2992 187.701945 
z
" clip-path="url(#p831af19324)" style="fill: #1f77b4"/>
    <text x="127.656" y="221.5109725" font-size="10" text-anchor="middle" fill="black">9.42</text>
   </g>
   <g id="patch_9">
    <path d="M 135.6912 256.32 
L 146.4048 256.32 
L 146.4048 200.975294 
L 135.6912 200.975294 
z
" clip-path="url(#p831af19324)" style="fill: #1f77b4"/>
    <text x="141.048" y="228.647647" font-size="10" text-anchor="middle" fill="black">7.60</text>
   </g>
   <g id="patch_10">
    <path d="M 149.0832 256.32 
L 159.7968 256.32 
L 159.7968 218.45383 
L 149.0832 218.45383 
z
" clip-path="url(#p831af19324)" style="fill: #1f77b4"/>
    <text x="154.44" y="237.386915" font-size="10" text-anchor="middle" fill="black">5.20</text>
   </g>
   <g id="patch_11">
    <path d="M 162.4752 256.32 
L 173.1888 256.32 
L 173.1888 188.320485 
L 162.4752 188.320485 
z
" clip-path="url(#p831af19324)" style="fill: #1f77b4"/>
    <text x="167.832" y="222.3202425" font-size="10" text-anchor="middle" fill="black">9.33</text>
   </g>
   <g id="patch_12">
    <path d="M 175.8672 256.32 
L 186.5808 256.32 
L 186.5808 212.693739 
L 175.8672 212.693739 
z
" clip-path="url(#p831af19324)" style="fill: #1f77b4"/>
    <text x="181.224" y="234.5068695" font-size="10" text-anchor="middle" fill="black">5.99</text>
   </g>
   <g id="patch_13">
    <path d="M 189.2592 256.32 
L 199.9728 256.32 
L 199.9728 213.82852 
L 189.2592 213.82852 
z
" clip-path="url(#p831af19324)" style="fill: #1f77b4"/>
    <text x="194.616" y="235.07426" font-size="10" text-anchor="middle" fill="black">5.83</text>
   </g>
   <g id="patch_14">
    <path d="M 202.6512 256.32 
L 213.3648 256.32 
L 213.3648 195.243243 
L 202.6512 195.243243 
z
" clip-path="url(#p831af19324)" style="fill: #1f77b4"/>
    <text x="208.008" y="225.7816215" font-size="10" text-anchor="middle" fill="black">8.38</text>
   </g>
   <g id="patch_15">
    <path d="M 216.0432 256.32 
L 226.7568 256.32 
L 226.7568 252.677652 
L 216.0432 252.677652 
z
" clip-path="url(#p831af19324)" style="fill: #1f77b4"/>
    <text x="221.4" y="254.498826" font-size="10" text-anchor="middle" fill="black">0.50</text>
   </g>
   <g id="patch_16">
    <path d="M 229.4352 256.32 
L 240.1488 256.32 
L 240.1488 209.422635 
L 229.4352 209.422635 
z
" clip-path="url(#p831af19324)" style="fill: #1f77b4"/>
    <text x="234.792" y="232.8713175" font-size="10" text-anchor="middle" fill="black">6.44</text>
   </g>
   <g id="patch_17">
    <path d="M 242.8272 256.32 
L 253.5408 256.32 
L 253.5408 215.133238 
L 242.8272 215.133238 
z
" clip-path="url(#p831af19324)" style="fill: #1f77b4"/>
    <text x="248.184" y="235.726619" font-size="10" text-anchor="middle" fill="black">5.65</text>
   </g>
   <g id="patch_18">
    <path d="M 256.2192 256.32 
L 266.9328 256.32 
L 266.9328 198.484403 
L 256.2192 198.484403 
z
" clip-path="url(#p831af19324)" style="fill: #1f77b4"/>
    <text x="261.576" y="227.4022015" font-size="10" text-anchor="middle" fill="black">7.94</text>
   </g>
   <g id="patch_19">
    <path d="M 269.6112 256.32 
L 280.3248 256.32 
L 280.3248 194.946348 
L 269.6112 194.946348 
z
" clip-path="url(#p831af19324)" style="fill: #1f77b4"/>
    <text x="274.968" y="225.633174" font-size="10" text-anchor="middle" fill="black">8.43</text>
   </g>
   <g id="patch_20">
    <path d="M 283.0032 256.32 
L 293.7168 256.32 
L 293.7168 193.608941 
L 283.0032 193.608941 
z
" clip-path="url(#p831af19324)" style="fill: #1f77b4"/>
    <text x="288.36" y="224.9644705" font-size="10" text-anchor="middle" fill="black">8.61</text>
   </g>
   <g id="patch_21">
    <path d="M 296.3952 256.32 
L 307.1088 256.32 
L 307.1088 210.880966 
L 296.3952 210.880966 
z
" clip-path="url(#p831af19324)" style="fill: #1f77b4"/>
    <text x="301.752" y="233.600483" font-size="10" text-anchor="middle" fill="black">6.24</text>
   </g>
   <g id="patch_22">
    <path d="M 309.7872 256.32 
L 320.5008 256.32 
L 320.5008 185.877101 
L 309.7872 185.877101 
z
" clip-path="url(#p831af19324)" style="fill: #1f77b4"/>
    <text x="315.144" y="221.0985505" font-size="10" text-anchor="middle" fill="black">9.67</text>
   </g>
   <g id="patch_23">
    <path d="M 323.1792 256.32 
L 333.8928 256.32 
L 333.8928 194.504649 
L 323.1792 194.504649 
z
" clip-path="url(#p831af19324)" style="fill: #1f77b4"/>
    <text x="328.536" y="225.4123245" font-size="10" text-anchor="middle" fill="black">8.49</text>
   </g>
   <g id="patch_24">
    <path d="M 336.5712 256.32 
L 347.2848 256.32 
L 347.2848 209.501859 
L 336.5712 209.501859 
z
" clip-path="url(#p831af19324)" style="fill: #1f77b4"/>
    <text x="341.928" y="232.9109295" font-size="10" text-anchor="middle" fill="black">6.43</text>
   </g>
   <g id="patch_25">
    <path d="M 349.9632 256.32 
L 360.6768 256.32 
L 360.6768 186.80901 
L 349.9632 186.80901 
z
" clip-path="url(#p831af19324)" style="fill: #1f77b4"/>
    <text x="355.32" y="221.564505" font-size="10" text-anchor="middle" fill="black">9.54</text>
   </g>
   <g id="patch_26">
    <path d="M 363.3552 256.32 
L 374.0688 256.32 
L 374.0688 185.630742 
L 363.3552 185.630742 
z
" clip-path="url(#p831af19324)" style="fill: #1f77b4"/>
    <text x="368.712" y="220.975371" font-size="10" text-anchor="middle" fill="black">9.70</text>
   </g>
   <g id="patch_27">
    <path d="M 376.7472 256.32 
L 387.4608 256.32 
L 387.4608 213.515289 
L 376.7472 213.515289 
z
" clip-path="url(#p831af19324)" style="fill: #1f77b4"/>
    <text x="382.104" y="234.9176445" font-size="10" text-anchor="middle" fill="black">5.88</text>
   </g>
  </g>
 </g>
 <defs>
  <clipPath id="p831af19324">
   <rect x="54" y="34.56" width="334.8" height="221.76"/>
  </clipPath>
 </defs>
</svg>