<svg width="432pt" height="288pt" viewBox="0 0 432 288" xmlns="http://www.w3.org/2000/svg" version="1.1">
 <g>
   <g>
    <path d="M 108.9072 256.32 L 119.6208 256.32 L 119.6208 54.72 L 108.9072 54.72 z" style="fill: #1f77b4"/>
    <text x="116.757114" y="52.605244" font-size="10" fill="black" text-anchor="middle">29.20</text>
   </g>
   <g>
    <path d="M 122.2992 256.32 L 133.0128 256.32 L 133.0128 215.046329 L 122.2992 215.046329 z" style="fill: #1f77b4"/>
    <text x="127.656" y="196.334605" font-size="10" fill="black" text-anchor="middle">8.21</text>
   </g>
   <g>
    <path d="M 135.6912 256.32 L 146.4048 256.32 L 146.4048 213.734707 L 135.6912 213.734707 z" style="fill: #1f77b4"/>
    <text x="141.048" y="192.721486" font-size="10" fill="black" text-anchor="middle">8.36</text>
   </g>
   <g>
    <path d="M 149.0832 256.32 L 159.7968 256.32 L 159.7968 252.868304 L 149.0832 252.868304 z" style="fill: #1f77b4"/>
    <text x="154.44" y="201.374111" font-size="10" fill="black" text-anchor="middle">7.57</text>
   </g>
   <g>
    <path d="M 162.4752 256.32 L 173.1888 256.32 L 173.1888 193.079811 L 162.4752 193.079811 z" style="fill: #1f77b4"/>
    <text x="167.832" y="210.535697" font-size="10" fill="black" text-anchor="middle">5.98</text>
   </g>
   <g>
    <path d="M 175.8672 256.32 L 186.5808 256.32 L 186.5808 205.667976 L 175.8672 205.667976 z" style="fill: #1f77b4"/>
    <text x="181.224" y="218.894242" font-size="10" fill="black" text-anchor="middle">6.17</text>
   </g>
   <g>
    <path d="M 189.2592 256.32 L 199.9728 256.32 L 199.9728 195.529757 L 189.2592 195.529757 z" style="fill: #1f77b4"/>
    <text x="194.616" y="250.753548" font-size="10" fill="black" text-anchor="middle">0.50</text>
   </g>
   <g>
    <path d="M 202.6512 256.32 L 213.3648 256.32 L 213.3648 188.314701 L 202.6512 188.314701 z" style="fill: #1f77b4"/>
    <text x="207.508" y="190.790545" font-size="10" fill="black" text-anchor="middle">9.16</text>
   </g>
   <g>
    <path d="M 216.0432 256.32 L 226.7568 256.32 L 226.7568 193.516495 L 216.0432 193.516495 z" style="fill: #1f77b4"/>
    <text x="221.4" y="209.566806" font-size="10" fill="black" text-anchor="middle">7.34</text>
   </g>
   <g>
    <path d="M 229.4352 256.32 L 240.1488 256.32 L 240.1488 206.212994 L 229.4352 206.212994 z" style="fill: #1f77b4"/>
    <text x="234.792" y="201.210156" font-size="10" fill="black" text-anchor="middle">8.81</text>
   </g>
   <g>
    <path d="M 242.8272 256.32 L 253.5408 256.32 L 253.5408 199.630011 L 242.8272 199.630011 z" style="fill: #1f77b4"/>
    <text x="248.184" y="181.55451" font-size="10" fill="black" text-anchor="middle">9.85</text>
   </g>
   <g>
    <path d="M 256.2192 256.32 L 266.9328 256.32 L 266.9328 215.031183 L 256.2192 215.031183 z" style="fill: #1f77b4"/>
    <text x="261.576" y="189.014366" font-size="10" fill="black" text-anchor="middle">9.10</text>
   </g>
   <g>
    <path d="M 269.6112 256.32 L 280.3248 256.32 L 280.3248 210.412296 L 269.6112 210.412296 z" style="fill: #1f77b4"/>
    <text x="274.968" y="211.94374" font-size="10" fill="black" text-anchor="middle">7.26</text>
   </g>
   <g>
    <path d="M 283.0032 256.32 L 293.7168 256.32 L 293.7168 208.825204 L 283.0032 208.825204 z" style="fill: #1f77b4"/>
    <text x="288.36" y="198.54091" font-size="10" fill="black" text-anchor="middle">8.21</text>
   </g>
   <g>
    <path d="M 296.3952 256.32 L 307.1088 256.32 L 307.1088 188.34721 L 296.3952 188.34721 z" style="fill: #1f77b4"/>
    <text x="301.752" y="218.046626" font-size="10" fill="black" text-anchor="middle">5.98</text>
   </g>
   <g>
    <path d="M 309.7872 256.32 L 320.5008 256.32 L 320.5008 214.821172 L 309.7872 214.821172 z" style="fill: #1f77b4"/>
    <text x="315.144" y="206.668297" font-size="10" fill="black" text-anchor="middle">6.65</text>
   </g>
   <g>
    <path d="M 323.1792 256.32 L 333.8928 256.32 L 333.8928 219.323986 L 323.1792 219.323986 z" style="fill: #1f77b4"/>
    <text x="328.536" y="199.065513" font-size="10" fill="black" text-anchor="middle">6.88</text>
   </g>
   <g>
    <path d="M 336.5712 256.32 L 347.2848 256.32 L 347.2848 211.07936 L 336.5712 211.07936 z" style="fill: #1f77b4"/>
    <text x="341.928" y="184.321269" font-size="10" fill="black" text-anchor="middle">9.85</text>
   </g>
   <g>
    <path d="M 349.9632 256.32 L 360.6768 256.32 L 360.6768 221.789349 L 349.9632 221.789349 z" style="fill: #1f77b4"/>
    <text x="355.32" y="225.732343" font-size="10" fill="black" text-anchor="middle">6.01</text>
   </g>
   <g>
    <path d="M 363.3552 256.32 L 374.0688 256.32 L 374.0688 220.034289 L 363.3552 220.034289 z" style="fill: #1f77b4"/>
    <text x="368.712" y="217.255146" font-size="10" fill="black" text-anchor="middle">5.36</text>
   </g>
   <g>
    <path d="M 376.7472 256.32 L 387.4608 256.32 L 387.4608 200.536443 L 376.7472 200.536443 z" style="fill: #1f77b4"/>
    <text x="382.104" y="206.391391" font-size="10" fill="black" text-anchor="middle">6.55</text>
   </g>
 </g>
</svg>