<svg xmlns:xlink="http://www.w3.org/1999/xlink" width="432pt" height="288pt" viewBox="0 0 432 288" xmlns="http://www.w3.org/2000/svg" version="1.1">
 <g>
   <g>
    <path d="M 108.9072 256.32 L 119.6208 256.32 L 119.6208 195.894543 L 108.9072 195.894543 z" style="fill: #1f77b4"/>
    <text x="108.9072" y="195.894543" font-family="Arial" font-size="10" fill="black">7.86</text>
   </g>
   <g>
    <path d="M 122.2992 256.32 L 133.0128 256.32 L 133.0128 206.852576 L 122.2992 206.852576 z" style="fill: #1f77b4"/>
    <text x="122.2992" y="206.852576" font-family="Arial" font-size="10" fill="black">7.04</text>
   </g>
   <g>
    <path d="M 135.6912 256.32 L 146.4048 256.32 L 146.4048 205.864768 L 135.6912 205.864768 z" style="fill: #1f77b4"/>
    <text x="135.6912" y="205.864768" font-family="Arial" font-size="10" fill="black">0.50</text>
   </g>
   <g>
    <path d="M 149.0832 256.32 L 159.7968 256.32 L 159.7968 186.538518 L 149.0832 186.538518 z" style="fill: #1f77b4"/>
    <text x="149.0832" y="186.538518" font-family="Arial" font-size="10" fill="black">8.11</text>
   </g>
   <g>
    <path d="M 162.4752 256.32 L 173.1888 256.32 L 173.1888 185.042411 L 162.4752 185.042411 z" style="fill: #1f77b4"/>
    <text x="162.4752" y="185.042411" font-family="Arial" font-size="10" fill="black">6.64</text>
   </g>
   <g>
    <path d="M 175.8672 256.32 L 186.5808 256.32 L 186.5808 54.72 L 175.8672 54.72 z" style="fill: #1f77b4"/>
    <text x="175.8672" y="54.72" font-family="Arial" font-size="10" fill="black">27.06</text>
   </g>
   <g>
    <path d="M 189.2592 256.32 L 199.9728 256.32 L 199.9728 190.602674 L 189.2592 190.602674 z" style="fill: #1f77b4"/>
    <text x="189.2592" y="190.602674" font-family="Arial" font-size="10" fill="black">8.82</text>
   </g>
   <g>
    <path d="M 202.6512 256.32 L 213.3648 256.32 L 213.3648 187.027479 L 202.6512 187.027479 z" style="fill: #1f77b4"/>
    <text x="202.6512" y="187.027479" font-family="Arial" font-size="10" fill="black">9.30</text>
   </g>
   <g>
    <path d="M 216.0432 256.32 L 226.7568 256.32 L 226.7568 213.529122 L 216.0432 213.529122 z" style="fill: #1f77b4"/>
    <text x="216.0432" y="213.529122" font-family="Arial" font-size="10" fill="black">5.74</text>
   </g>
   <g>
    <path d="M 229.4352 256.32 L 240.1488 256.32 L 240.1488 213.040181 L 229.4352 213.040181 z" style="fill: #1f77b4"/>
    <text x="229.4352" y="213.040181" font-family="Arial" font-size="10" fill="black">5.81</text>
   </g>
   <g>
    <path d="M 242.8272 256.32 L 253.5408 256.32 L 253.5408 213.126099 L 242.8272 213.126099 z" style="fill: #1f77b4"/>
    <text x="242.8272" y="213.126099" font-family="Arial" font-size="10" fill="black">5.80</text>
   </g>
   <g>
    <path d="M 256.2192 256.32 L 266.9328 256.32 L 266.9328 215.247668 L 256.2192 215.247668 z" style="fill: #1f77b4"/>
    <text x="256.2192" y="215.247668" font-family="Arial" font-size="10" fill="black">5.51</text>
   </g>
 </g>
</svg>