<?xml version="1.0" standalone="no"?>
<svg width="200pt" height="200pt" viewBox="0 0 200 200" xmlns="http://www.w3.org/2000/svg" version="1.1">
  <g id="patch_4">
    <path d="M 68.7312 256.32 
L 79.4448 256.32 
L 79.4448 190.508138 
L 68.7312 190.508138 
z" style="fill: #1f77b4"/>
  </g>
  <g id="patch_5">
    <path d="M 82.1232 256.32 
L 92.8368 256.32 
L 92.8368 203.872335 
L 82.1232 203.872335 
z" style="fill: #1f77b4"/>
  </g>
  <g id="patch_6">
    <path d="M 95.5152 256.32 
L 106.2288 256.32 
L 106.2288 198.385169 
L 95.5152 198.385169 
z" style="fill: #1f77b4"/>
  </g>
  <g id="patch_7">
    <path d="M 108.9072 256.32 
L 119.6208 256.32 
L 119.6208 209.776178 
L 108.9072 209.776178 
z" style="fill: #1f77b4"/>
  </g>
  <g id="patch_8">
    <path d="M 122.2992 256.32 
L 133.0128 256.32 
L 133.0128 219.234113 
L 122.2992 219.234113 
z" style="fill: #1f77b4"/>
  </g>
  <g id="patch_9">
    <path d="M 135.6912 256.32 
L 146.4048 256.32 
L 146.4048 54.72 
L 135.6912 54.72 
z" style="fill: #1f77b4"/>
  </g>
  <g id="patch_10">
    <path d="M 149.0832 256.32 
L 159.7968 256.32 
L 159.7968 197.1832 
L 149.0832 197.1832 
z" style="fill: #1f77b4"/>
  </g>
  <g id="patch_11">
    <path d="M 162.4752 256.32 
L 173.1888 256.32 
L 173.1888 211.399158 
L 162.4752 211.399158 
z" style="fill: #1f77b4"/>
  </g>
</svg>