<?xml version="1.0" encoding="utf-8" standalone="no"?>
<!DOCTYPE svg PUBLIC "-//W3C//DTD SVG 1.1//EN"
  "http://www.w3.org/Graphics/SVG/1.1/DTD/svg11.dtd">
<svg xmlns:xlink="http://www.w3.org/1999/xlink" width="432pt" height="288pt" viewBox="0 0 432 288" xmlns="http://www.w3.org/2000/svg" version="1.1">
 <metadata>
  <rdf:RDF xmlns:dc="http://purl.org/dc/elements/1.1/" xmlns:cc="http://creativecommons.org/ns#" xmlns:rdf="http://www.w3.org/1999/02/22-rdf-syntax-ns#">
   <cc:Work>
    <dc:type rdf:resource="http://purl.org/dc/dcmitype/StillImage"/>
    <dc:date>2024-04-18T15:56:19.277278</dc:date>
    <dc:format>image/svg+xml</dc:format>
    <dc:creator>
     <cc:Agent>
      <dc:title>Matplotlib v3.8.3, https://matplotlib.org/</dc:title>
     </cc:Agent>
    </dc:creator>
   </cc:Work>
  </rdf:RDF>
 </metadata>
 <defs>
  <style type="text/css">*{stroke-linejoin: round; stroke-linecap: butt}</style>
 </defs>
 <g id="figure_1">
  <g id="patch_1">
   <path d="M 0 288 
L 432 288 
L 432 0 
L 0 0 
L 0 288 
z
" style="fill: none"/>
  </g>
  <g id="axes_1">
   <g id="patch_2">
    <path d="M 54 256.32 
L 388.8 256.32 
L 388.8 34.56 
L 54 34.56 
z
" style="fill: #ffffff"/>
   </g>
   <g id="patch_3">
    <path d="M 55.3392 256.32 
L 66.0528 256.32 
L 66.0528 156.362944 
L 55.3392 156.362944 
z
" clip-path="url(#pd3df98c11b)" style="fill: #1f77b4"/>
   </g>
   <g id="patch_4">
    <path d="M 68.7312 256.32 
L 79.4448 256.32 
L 79.4448 215.693118 
L 68.7312 215.693118 
z
" clip-path="url(#pd3df98c11b)" style="fill: #1f77b4"/>
   </g>
   <g id="patch_5">
    <path d="M 82.1232 256.32 
L 92.8368 256.32 
L 92.8368 130.442018 
L 82.1232 130.442018 
z
" clip-path="url(#pd3df98c11b)" style="fill: #1f77b4"/>
   </g>
   <g id="patch_6">
    <path d="M 95.5152 256.32 
L 106.2288 256.32 
L 106.2288 105.749069 
L 95.5152 105.749069 
z
" clip-path="url(#pd3df98c11b)" style="fill: #1f77b4"/>
   </g>
   <g id="patch_7">
    <path d="M 108.9072 256.32 
L 119.6208 256.32 
L 119.6208 208.569665 
L 108.9072 208.569665 
z
" clip-path="url(#pd3df98c11b)" style="fill: #1f77b4"/>
   </g>
   <g id="patch_8">
    <path d="M 122.2992 256.32 
L 133.0128 256.32 
L 133.0128 157.567162 
L 122.2992 157.567162 
z
" clip-path="url(#pd3df98c11b)" style="fill: #1f77b4"/>
   </g>
   <g id="patch_9">
    <path d="M 135.6912 256.32 
L 146.4048 256.32 
L 146.4048 228.277183 
L 135.6912 228.277183 
z
" clip-path="url(#pd3df98c11b)" style="fill: #1f77b4"/>
   </g>
   <g id="patch_10">
    <path d="M 149.0832 256.32 
L 159.7968 256.32 
L 159.7968 83.372526 
L 149.0832 83.372526 
z
" clip-path="url(#pd3df98c11b)" style="fill: #1f77b4"/>
   </g>
   <g id="patch_11">
    <path d="M 162.4752 256.32 
L 173.1888 256.32 
L 173.1888 57.107249 
L 162.4752 57.107249 
z
" clip-path="url(#pd3df98c11b)" style="fill: #1f77b4"/>
   </g>
   <g id="patch_12">
    <path d="M 175.8672 256.32 
L 186.5808 256.32 
L 186.5808 152.920563 
L 175.8672 152.920563 
z
" clip-path="url(#pd3df98c11b)" style="fill: #1f77b4"/>
   </g>
   <g id="patch_13">
    <path d="M 189.2592 256.32 
L 199.9728 256.32 
L 199.9728 168.477195 
L 189.2592 168.477195 
z
" clip-path="url(#pd3df98c11b)" style="fill: #1f77b4"/>
   </g>
   <g id="patch_14">
    <path d="M 202.6512 256.32 
L 213.3648 256.32 
L 213.3648 209.13251 
L 202.6512 209.13251 
z
" clip-path="url(#pd3df98c11b)" style="fill: #1f77b4"/>
   </g>
   <g id="patch_15">
    <path d="M 216.0432 256.32 
L 226.7568 256.32 
L 226.7568 127.087108 
L 216.0432 127.087108 
z
" clip-path="url(#pd3df98c11b)" style="fill: #1f77b4"/>
   </g>
   <g id="patch_16">
    <path d="M 229.4352 256.32 
L 240.1488 256.32 
L 240.1488 108.963675 
L 229.4352 108.963675 
z
" clip-path="url(#pd3df98c11b)" style="fill: #1f77b4"/>
   </g>
   <g id="patch_17">
    <path d="M 242.8272 256.32 
L 253.5408 256.32 
L 253.5408 124.787561 
L 242.8272 124.787561 
z
" clip-path="url(#pd3df98c11b)" style="fill: #1f77b4"/>
   </g>
   <g id="patch_18">
    <path d="M 256.2192 256.32 
L 266.9328 256.32 
L 266.9328 207.449274 
L 256.2192 207.449274 
z
" clip-path="url(#pd3df98c11b)" style="fill: #1f77b4"/>
   </g>
   <g id="patch_19">
    <path d="M 269.6112 256.32 
L 280.3248 256.32 
L 280.3248 179.332198 
L 269.6112 179.332198 
z
" clip-path="url(#pd3df98c11b)" style="fill: #1f77b4"/>
   </g>
   <g id="patch_20">
    <path d="M 283.0032 256.32 
L 293.7168 256.32 
L 293.7168 143.398042 
L 283.0032 143.398042 
z
" clip-path="url(#pd3df98c11b)" style="fill: #1f77b4"/>
   </g>
   <g id="patch_21">
    <path d="M 296.3952 256.32 
L 307.1088 256.32 
L 307.1088 54.72 
L 296.3952 54.72 
z
" clip-path="url(#pd3df98c11b)" style="fill: #1f77b4"/>
   </g>
   <g id="patch_22">
    <path d="M 309.7872 256.32 
L 320.5008 256.32 
L 320.5008 118.597874 
L 309.7872 118.597874 
z
" clip-path="url(#pd3df98c11b)" style="fill: #1f77b4"/>
   </g>
   <g id="patch_23">
    <path d="M 323.1792 256.32 
L 333.8928 256.32 
L 333.8928 210.930942 
L 323.1792 210.930942 
z
" clip-path="url(#pd3df98c11b)" style="fill: #1f77b4"/>
   </g>
   <g id="patch_24">
    <path d="M 336.5712 256.32 
L 347.2848 256.32 
L 347.2848 148.042461 
L 336.5712 148.042461 
z
" clip-path="url(#pd3df98c11b)" style="fill: #1f77b4"/>
   </g>
   <g id="patch_25">
    <path d="M 349.9632 256.32 
L 360.6768 256.32 
L 360.6768 240.188595 
L 349.9632 240.188595 
z
" clip-path="url(#pd3df98c11b)" style="fill: #1f77b4"/>
   </g>
   <g id="patch_26">
    <path d="M 363.3552 256.32 
L 374.0688 256.32 
L 374.0688 180.326117 
L 363.3552 180.326117 
z
" clip-path="url(#pd3df98c11b)" style="fill: #1f77b4"/>
   </g>
   <g id="patch_27">
    <path d="M 376.7472 256.32 
L 387.4608 256.32 
L 387.4608 205.94303 
L 376.7472 205.94303 
z
" clip-path="url(#pd3df98c11b)" style="fill: #1f77b4"/>
   </g>
   <g id="matplotlib.axis_1">
    <g id="xtick_1">
     <g id="line2d_1">
      <defs>
       <path id="m37ae5339a4" d="M 0 0 
L 0 3.5 
" style="stroke: #000000; stroke-width: 0.8"/>
      </defs>
      <g>
       <use xlink:href="#m37ae5339a4" x="114.264" y="256.32" style="stroke: #000000; stroke-width: 0.8"/>
      </g>
     </g>
     <g id="text_1">
      <!-- 5 -->
      <g transform="translate(111.08275 270.918437) scale(0.1 -0.1)">
       <defs>
        <path id="DejaVuSans-35" d="M 691 4666 
L 3169 4666 
L 3169 4134 
L 1269 4134 
L 1269 2991 
Q 1406 3038 1543 3061 
Q 1681 3084 1819 3084 
Q 2600 3084 3056 2656 
Q 3513 2228 3513 1497 
Q 3513 744 3044 326 
Q 2575 -91 1722 -91 
Q 1428 -91 1123 -41 
Q 819 9 494 109 
L 494 744 
Q 775 591 1075 516 
Q 1375 441 1709 441 
Q 2250 441 2565 725 
Q 2881 1009 2881 1497 
Q 2881 1984 2565 2268 
Q 2250 2553 1709 2553 
Q 1456 2553 1204 2497 
Q 953 2441 691 2322 
L 691 4666 
z
" transform="scale(0.015625)"/>
       </defs>
       <use xlink:href="#DejaVuSans-35"/>
      </g>
     </g>
    </g>
    <g id="xtick_2">
     <g id="line2d_2">
      <g>
       <use xlink:href="#m37ae5339a4" x="181.224" y="256.32" style="stroke: #000000; stroke-width: 0.8"/>
      </g>
     </g>
     <g id="text_2">
      <!-- 10 -->
      <g transform="translate(174.8615 270.918437) scale(0.1 -0.1)">
       <defs>
        <path id="DejaVuSans-31" d="M 794 531 
L 1825 531 
L 1825 4091 
L 703 3866 
L 703 4441 
L 1819 4666 
L 2450 4666 
L 2450 531 
L 3481 531 
L 3481 0 
L 794 0 
L 794 531 
z
" transform="scale(0.015625)"/>
        <path id="DejaVuSans-30" d="M 2034 4250 
Q 1547 4250 1301 3770 
Q 1056 3291 1056 2328 
Q 1056 1369 1301 889 
Q 1547 409 2034 409 
Q 2525 409 2770 889 
Q 3016 1369 3016 2328 
Q 3016 3291 2770 3770 
Q 2525 4250 2034 4250 
z
M 2034 4750 
Q 2819 4750 3233 4129 
Q 3647 3509 3647 2328 
Q 3647 1150 3233 529 
Q 2819 -91 2034 -91 
Q 1250 -91 836 529 
Q 422 1150 422 2328 
Q 422 3509 836 4129 
Q 1250 4750 2034 4750 
z
" transform="scale(0.015625)"/>
       </defs>
       <use xlink:href="#DejaVuSans-31"/>
       <use xlink:href="#DejaVuSans-30" x="63.623047"/>
      </g>
     </g>
    </g>
    <g id="xtick_3">
     <g id="line2d_3">
      <g>
       <use xlink:href="#m37ae5339a4" x="248.184" y="256.32" style="stroke: #000000; stroke-width: 0.8"/>
      </g>
     </g>
     <g id="text_3">
      <!-- 15 -->
      <g transform="translate(241.8215 270.918437) scale(0.1 -0.1)">
       <use xlink:href="#DejaVuSans-31"/>
       <use xlink:href="#DejaVuSans-35" x="63.623047"/>
      </g>
     </g>
    </g>
    <g id="xtick_4">
     <g id="line2d_4">
      <g>
       <use xlink:href="#m37ae5339a4" x="315.144" y="256.32" style="stroke: #000000; stroke-width: 0.8"/>
      </g>
     </g>
     <g id="text_4">
      <!-- 20 -->
      <g transform="translate(308.7815 270.918437) scale(0.1 -0.1)">
       <defs>
        <path id="DejaVuSans-32" d="M 1228 531 
L 3431 531 
L 3431 0 
L 469 0 
L 469 531 
Q 828 903 1448 1529 
Q 2069 2156 2228 2338 
Q 2531 2678 2651 2914 
Q 2772 3150 2772 3378 
Q 2772 3750 2511 3984 
Q 2250 4219 1831 4219 
Q 1534 4219 1204 4116 
Q 875 4013 500 3803 
L 500 4441 
Q 881 4594 1212 4672 
Q 1544 4750 1819 4750 
Q 2544 4750 2975 4387 
Q 3406 4025 3406 3419 
Q 3406 3131 3298 2873 
Q 3191 2616 2906 2266 
Q 2828 2175 2409 1742 
Q 1991 1309 1228 531 
z
" transform="scale(0.015625)"/>
       </defs>
       <use xlink:href="#DejaVuSans-32"/>
       <use xlink:href="#DejaVuSans-30" x="63.623047"/>
      </g>
     </g>
    </g>
    <g id="xtick_5">
     <g id="line2d_5">
      <g>
       <use xlink:href="#m37ae5339a4" x="382.104" y="256.32" style="stroke: #000000; stroke-width: 0.8"/>
      </g>
     </g>
     <g id="text_5">
      <!-- 25 -->
      <g transform="translate(375.7415 270.918437) scale(0.1 -0.1)">
       <use xlink:href="#DejaVuSans-32"/>
       <use xlink:href="#DejaVuSans-35" x="63.623047"/>
      </g>
     </g>
    </g>
   </g>
   <g id="matplotlib.axis_2">
    <g id="ytick_1">
     <g id="line2d_6">
      <defs>
       <path id="m2c09771274" d="M 0 0 
L -3.5 0 
" style="stroke: #000000; stroke-width: 0.8"/>
      </defs>
      <g>
       <use xlink:href="#m2c09771274" x="54" y="256.32" style="stroke: #000000; stroke-width: 0.8"/>
      </g>
     </g>
     <g id="text_6">
      <!-- 0.0 -->
      <g transform="translate(31.096875 260.119219) scale(0.1 -0.1)">
       <defs>
        <path id="DejaVuSans-2e" d="M 684 794 
L 1344 794 
L 1344 0 
L 684 0 
L 684 794 
z
" transform="scale(0.015625)"/>
       </defs>
       <use xlink:href="#DejaVuSans-30"/>
       <use xlink:href="#DejaVuSans-2e" x="63.623047"/>
       <use xlink:href="#DejaVuSans-30" x="95.410156"/>
      </g>
     </g>
    </g>
    <g id="ytick_2">
     <g id="line2d_7">
      <g>
       <use xlink:href="#m2c09771274" x="54" y="215.550567" style="stroke: #000000; stroke-width: 0.8"/>
      </g>
     </g>
     <g id="text_7">
      <!-- 0.2 -->
      <g transform="translate(31.096875 219.349786) scale(0.1 -0.1)">
       <use xlink:href="#DejaVuSans-30"/>
       <use xlink:href="#DejaVuSans-2e" x="63.623047"/>
       <use xlink:href="#DejaVuSans-32" x="95.410156"/>
      </g>
     </g>
    </g>
    <g id="ytick_3">
     <g id="line2d_8">
      <g>
       <use xlink:href="#m2c09771274" x="54" y="174.781134" style="stroke: #000000; stroke-width: 0.8"/>
      </g>
     </g>
     <g id="text_8">
      <!-- 0.4 -->
      <g transform="translate(31.096875 178.580353) scale(0.1 -0.1)">
       <defs>
        <path id="DejaVuSans-34" d="M 2419 4116 
L 825 1625 
L 2419 1625 
L 2419 4116 
z
M 2253 4666 
L 3047 4666 
L 3047 1625 
L 3713 1625 
L 3713 1100 
L 3047 1100 
L 3047 0 
L 2419 0 
L 2419 1100 
L 313 1100 
L 313 1709 
L 2253 4666 
z
" transform="scale(0.015625)"/>
       </defs>
       <use xlink:href="#DejaVuSans-30"/>
       <use xlink:href="#DejaVuSans-2e" x="63.623047"/>
       <use xlink:href="#DejaVuSans-34" x="95.410156"/>
      </g>
     </g>
    </g>
    <g id="ytick_4">
     <g id="line2d_9">
      <g>
       <use xlink:href="#m2c09771274" x="54" y="134.011701" style="stroke: #000000; stroke-width: 0.8"/>
      </g>
     </g>
     <g id="text_9">
      <!-- 0.6 -->
      <g transform="translate(31.096875 137.81092) scale(0.1 -0.1)">
       <defs>
        <path id="DejaVuSans-36" d="M 2113 2584 
Q 1688 2584 1439 2293 
Q 1191 2003 1191 1497 
Q 1191 994 1439 701 
Q 1688 409 2113 409 
Q 2538 409 2786 701 
Q 3034 994 3034 1497 
Q 3034 2003 2786 2293 
Q 2538 2584 2113 2584 
z
M 3366 4563 
L 3366 3988 
Q 3128 4100 2886 4159 
Q 2644 4219 2406 4219 
Q 1781 4219 1451 3797 
Q 1122 3375 1075 2522 
Q 1259 2794 1537 2939 
Q 1816 3084 2150 3084 
Q 2853 3084 3261 2657 
Q 3669 2231 3669 1497 
Q 3669 778 3244 343 
Q 2819 -91 2113 -91 
Q 1303 -91 875 529 
Q 447 1150 447 2328 
Q 447 3434 972 4092 
Q 1497 4750 2381 4750 
Q 2619 4750 2861 4703 
Q 3103 4656 3366 4563 
z
" transform="scale(0.015625)"/>
       </defs>
       <use xlink:href="#DejaVuSans-30"/>
       <use xlink:href="#DejaVuSans-2e" x="63.623047"/>
       <use xlink:href="#DejaVuSans-36" x="95.410156"/>
      </g>
     </g>
    </g>
    <g id="ytick_5">
     <g id="line2d_10">
      <g>
       <use xlink:href="#m2c09771274" x="54" y="93.242269" style="stroke: #000000; stroke-width: 0.8"/>
      </g>
     </g>
     <g id="text_10">
      <!-- 0.8 -->
      <g transform="translate(31.096875 97.041487) scale(0.1 -0.1)">
       <defs>
        <path id="DejaVuSans-38" d="M 2034 2216 
Q 1584 2216 1326 1975 
Q 1069 1734 1069 1313 
Q 1069 891 1326 650 
Q 1584 409 2034 409 
Q 2484 409 2743 651 
Q 3003 894 3003 1313 
Q 3003 1734 2745 1975 
Q 2488 2216 2034 2216 
z
M 1403 2484 
Q 997 2584 770 2862 
Q 544 3141 544 3541 
Q 544 4100 942 4425 
Q 1341 4750 2034 4750 
Q 2731 4750 3128 4425 
Q 3525 4100 3525 3541 
Q 3525 3141 3298 2862 
Q 3072 2584 2669 2484 
Q 3125 2378 3379 2068 
Q 3634 1759 3634 1313 
Q 3634 634 3220 271 
Q 2806 -91 2034 -91 
Q 1263 -91 848 271 
Q 434 634 434 1313 
Q 434 1759 690 2068 
Q 947 2378 1403 2484 
z
M 1172 3481 
Q 1172 3119 1398 2916 
Q 1625 2713 2034 2713 
Q 2441 2713 2670 2916 
Q 2900 3119 2900 3481 
Q 2900 3844 2670 4047 
Q 2441 4250 2034 4250 
Q 1625 4250 1398 4047 
Q 1172 3844 1172 3481 
z
" transform="scale(0.015625)"/>
       </defs>
       <use xlink:href="#DejaVuSans-30"/>
       <use xlink:href="#DejaVuSans-2e" x="63.623047"/>
       <use xlink:href="#DejaVuSans-38" x="95.410156"/>
      </g>
     </g>
    </g>
    <g id="ytick_6">
     <g id="line2d_11">
      <g>
       <use xlink:href="#m2c09771274" x="54" y="52.472836" style="stroke: #000000; stroke-width: 0.8"/>
      </g>
     </g>
     <g id="text_11">
      <!-- 1.0 -->
      <g transform="translate(31.096875 56.272054) scale(0.1 -0.1)">
       <use xlink:href="#DejaVuSans-31"/>
       <use xlink:href="#DejaVuSans-2e" x="63.623047"/>
       <use xlink:href="#DejaVuSans-30" x="95.410156"/>
      </g>
     </g>
    </g>
   </g>
   <g id="patch_28">
    <path d="M 54 256.32 
L 54 34.56 
" style="fill: none; stroke: #000000; stroke-width: 0.8; stroke-linejoin: miter; stroke-linecap: square"/>
   </g>
   <g id="patch_29">
    <path d="M 388.8 256.32 
L 388.8 34.56 
" style="fill: none; stroke: #000000; stroke-width: 0.8; stroke-linejoin: miter; stroke-linecap: square"/>
   </g>
   <g id="patch_30">
    <path d="M 54 256.32 
L 388.8 256.32 
" style="fill: none; stroke: #000000; stroke-width: 0.8; stroke-linejoin: miter; stroke-linecap: square"/>
   </g>
   <g id="patch_31">
    <path d="M 54 34.56 
L 388.8 34.56 
" style="fill: none; stroke: #000000; stroke-width: 0.8; stroke-linejoin: miter; stroke-linecap: square"/>
   </g>
   <g id="text_12">
    <!-- (1, 0.49) -->
    <g transform="translate(63.045605 156.63528) scale(0.07 -0.07)">
     <defs>
      <path id="DejaVuSans-28" d="M 1984 4856 
Q 1566 4138 1362 3434 
Q 1159 2731 1159 2009 
Q 1159 1288 1364 580 
Q 1569 -128 1984 -844 
L 1484 -844 
Q 1016 -109 783 600 
Q 550 1309 550 2009 
Q 550 2706 781 3412 
Q 1013 4119 1484 4856 
L 1984 4856 
z
" transform="scale(0.015625)"/>
      <path id="DejaVuSans-2c" d="M 750 794 
L 1409 794 
L 1409 256 
L 897 -744 
L 494 -744 
L 750 256 
L 750 794 
z
" transform="scale(0.015625)"/>
      <path id="DejaVuSans-20" transform="scale(0.015625)"/>
      <path id="DejaVuSans-39" d="M 703 97 
L 703 672 
Q 941 559 1184 500 
Q 1428 441 1663 441 
Q 2288 441 2617 861 
Q 2947 1281 2994 2138 
Q 2813 1869 2534 1725 
Q 2256 1581 1919 1581 
Q 1219 1581 811 2004 
Q 403 2428 403 3163 
Q 403 3881 828 4315 
Q 1253 4750 1959 4750 
Q 2769 4750 3195 4129 
Q 3622 3509 3622 2328 
Q 3622 1225 3098 567 
Q 2575 -91 1691 -91 
Q 1453 -91 1209 -44 
Q 966 3 703 97 
z
M 1959 2075 
Q 2384 2075 2632 2365 
Q 2881 2656 2881 3163 
Q 2881 3666 2632 3958 
Q 2384 4250 1959 4250 
Q 1534 4250 1286 3958 
Q 1038 3666 1038 3163 
Q 1038 2656 1286 2365 
Q 1534 2075 1959 2075 
z
" transform="scale(0.015625)"/>
      <path id="DejaVuSans-29" d="M 513 4856 
L 1013 4856 
Q 1481 4119 1714 3412 
Q 1947 2706 1947 2009 
Q 1947 1309 1714 600 
Q 1481 -109 1013 -844 
L 513 -844 
Q 928 -128 1133 580 
Q 1338 1288 1338 2009 
Q 1338 2731 1133 3434 
Q 928 4138 513 4856 
z
" transform="scale(0.015625)"/>
     </defs>
     <use xlink:href="#DejaVuSans-28"/>
     <use xlink:href="#DejaVuSans-31" x="39.013672"/>
     <use xlink:href="#DejaVuSans-2c" x="102.636719"/>
     <use xlink:href="#DejaVuSans-20" x="134.423828"/>
     <use xlink:href="#DejaVuSans-30" x="166.210938"/>
     <use xlink:href="#DejaVuSans-2e" x="229.833984"/>
     <use xlink:href="#DejaVuSans-34" x="261.621094"/>
     <use xlink:href="#DejaVuSans-39" x="325.244141"/>
     <use xlink:href="#DejaVuSans-29" x="388.867188"/>
    </g>
   </g>
   <g id="text_13">
    <!-- (2, 0.20) -->
    <g transform="translate(76.661698 214.338308) scale(0.07 -0.07)">
     <use xlink:href="#DejaVuSans-28"/>
     <use xlink:href="#DejaVuSans-32" x="39.013672"/>
     <use xlink:href="#DejaVuSans-2c" x="102.636719"/>
     <use xlink:href="#DejaVuSans-20" x="134.423828"/>
     <use xlink:href="#DejaVuSans-30" x="166.210938"/>
     <use xlink:href="#DejaVuSans-2e" x="229.833984"/>
     <use xlink:href="#DejaVuSans-32" x="261.621094"/>
     <use xlink:href="#DejaVuSans-30" x="325.244141"/>
     <use xlink:href="#DejaVuSans-29" x="388.867188"/>
    </g>
   </g>
   <g id="text_14">
    <!-- (3, 0.62) -->
    <g transform="translate(89.88362 133.949421) scale(0.07 -0.07)">
     <defs>
      <path id="DejaVuSans-33" d="M 2597 2516 
Q 3050 2419 3304 2112 
Q 3559 1806 3559 1356 
Q 3559 666 3084 287 
Q 2609 -91 1734 -91 
Q 1441 -91 1130 -33 
Q 819 25 488 141 
L 488 750 
Q 750 597 1062 519 
Q 1375 441 1716 441 
Q 2309 441 2620 675 
Q 2931 909 2931 1356 
Q 2931 1769 2642 2001 
Q 2353 2234 1838 2234 
L 1294 2234 
L 1294 2753 
L 1863 2753 
Q 2328 2753 2575 2939 
Q 2822 3125 2822 3475 
Q 2822 3834 2567 4026 
Q 2313 4219 1838 4219 
Q 1578 4219 1281 4162 
Q 984 4106 628 3988 
L 628 4550 
Q 988 4650 1302 4700 
Q 1616 4750 1894 4750 
Q 2613 4750 3031 4423 
Q 3450 4097 3450 3541 
Q 3450 3153 3228 2886 
Q 3006 2619 2597 2516 
z
" transform="scale(0.015625)"/>
     </defs>
     <use xlink:href="#DejaVuSans-28"/>
     <use xlink:href="#DejaVuSans-33" x="39.013672"/>
     <use xlink:href="#DejaVuSans-2c" x="102.636719"/>
     <use xlink:href="#DejaVuSans-20" x="134.423828"/>
     <use xlink:href="#DejaVuSans-30" x="166.210938"/>
     <use xlink:href="#DejaVuSans-2e" x="229.833984"/>
     <use xlink:href="#DejaVuSans-36" x="261.621094"/>
     <use xlink:href="#DejaVuSans-32" x="325.244141"/>
     <use xlink:href="#DejaVuSans-29" x="388.867188"/>
    </g>
   </g>
   <g id="text_15">
    <!-- (4, 0.74) -->
    <g transform="translate(103.014029 103.453904) scale(0.07 -0.07)">
     <defs>
      <path id="DejaVuSans-37" d="M 525 4666 
L 3525 4666 
L 3525 4397 
L 1831 0 
L 1172 0 
L 2766 4134 
L 525 4134 
L 525 4666 
z
" transform="scale(0.015625)"/>
     </defs>
     <use xlink:href="#DejaVuSans-28"/>
     <use xlink:href="#DejaVuSans-34" x="39.013672"/>
     <use xlink:href="#DejaVuSans-2c" x="102.636719"/>
     <use xlink:href="#DejaVuSans-20" x="134.423828"/>
     <use xlink:href="#DejaVuSans-30" x="166.210938"/>
     <use xlink:href="#DejaVuSans-2e" x="229.833984"/>
     <use xlink:href="#DejaVuSans-37" x="261.621094"/>
     <use xlink:href="#DejaVuSans-34" x="325.244141"/>
     <use xlink:href="#DejaVuSans-29" x="388.867188"/>
    </g>
   </g>
   <g id="text_16">
    <!-- (5, 0.23) -->
    <g transform="translate(114.599225 206.262476) scale(0.07 -0.07)">
     <use xlink:href="#DejaVuSans-28"/>
     <use xlink:href="#DejaVuSans-35" x="39.013672"/>
     <use xlink:href="#DejaVuSans-2c" x="102.636719"/>
     <use xlink:href="#DejaVuSans-20" x="134.423828"/>
     <use xlink:href="#DejaVuSans-30" x="166.210938"/>
     <use xlink:href="#DejaVuSans-2e" x="229.833984"/>
     <use xlink:href="#DejaVuSans-32" x="261.621094"/>
     <use xlink:href="#DejaVuSans-33" x="325.244141"/>
     <use xlink:href="#DejaVuSans-29" x="388.867188"/>
    </g>
   </g>
   <g id="text_17">
    <!-- (6, 0.48) -->
    <g transform="translate(129.74647 155.271997) scale(0.07 -0.07)">
     <use xlink:href="#DejaVuSans-28"/>
     <use xlink:href="#DejaVuSans-36" x="39.013672"/>
     <use xlink:href="#DejaVuSans-2c" x="102.636719"/>
     <use xlink:href="#DejaVuSans-20" x="134.423828"/>
     <use xlink:href="#DejaVuSans-30" x="166.210938"/>
     <use xlink:href="#DejaVuSans-2e" x="229.833984"/>
     <use xlink:href="#DejaVuSans-34" x="261.621094"/>
     <use xlink:href="#DejaVuSans-38" x="325.244141"/>
     <use xlink:href="#DejaVuSans-29" x="388.867188"/>
    </g>
   </g>
   <g id="text_18">
    <!-- (7, 0.14) -->
    <g transform="translate(143.190029 225.982019) scale(0.07 -0.07)">
     <use xlink:href="#DejaVuSans-28"/>
     <use xlink:href="#DejaVuSans-37" x="39.013672"/>
     <use xlink:href="#DejaVuSans-2c" x="102.636719"/>
     <use xlink:href="#DejaVuSans-20" x="134.423828"/>
     <use xlink:href="#DejaVuSans-30" x="166.210938"/>
     <use xlink:href="#DejaVuSans-2e" x="229.833984"/>
     <use xlink:href="#DejaVuSans-31" x="261.621094"/>
     <use xlink:href="#DejaVuSans-34" x="325.244141"/>
     <use xlink:href="#DejaVuSans-29" x="388.867188"/>
    </g>
   </g>
   <g id="text_19">
    <!-- (8, 0.85) -->
    <g transform="translate(156.846075 87.037162) scale(0.07 -0.07)">
     <use xlink:href="#DejaVuSans-28"/>
     <use xlink:href="#DejaVuSans-38" x="39.013672"/>
     <use xlink:href="#DejaVuSans-2c" x="102.636719"/>
     <use xlink:href="#DejaVuSans-20" x="134.423828"/>
     <use xlink:href="#DejaVuSans-30" x="166.210938"/>
     <use xlink:href="#DejaVuSans-2e" x="229.833984"/>
     <use xlink:href="#DejaVuSans-38" x="261.621094"/>
     <use xlink:href="#DejaVuSans-35" x="325.244141"/>
     <use xlink:href="#DejaVuSans-29" x="388.867188"/>
    </g>
   </g>
   <g id="text_20">
    <!-- (9, 0.98) -->
    <g transform="translate(169.92247 54.812085) scale(0.07 -0.07)">
     <use xlink:href="#DejaVuSans-28"/>
     <use xlink:href="#DejaVuSans-39" x="39.013672"/>
     <use xlink:href="#DejaVuSans-2c" x="102.636719"/>
     <use xlink:href="#DejaVuSans-20" x="134.423828"/>
     <use xlink:href="#DejaVuSans-30" x="166.210938"/>
     <use xlink:href="#DejaVuSans-2e" x="229.833984"/>
     <use xlink:href="#DejaVuSans-39" x="261.621094"/>
     <use xlink:href="#DejaVuSans-38" x="325.244141"/>
     <use xlink:href="#DejaVuSans-29" x="388.867188"/>
    </g>
   </g>
   <g id="text_21">
    <!-- (10, 0.51) -->
    <g transform="translate(183.762201 150.842499) scale(0.07 -0.07)">
     <use xlink:href="#DejaVuSans-28"/>
     <use xlink:href="#DejaVuSans-31" x="39.013672"/>
     <use xlink:href="#DejaVuSans-30" x="102.636719"/>
     <use xlink:href="#DejaVuSans-2c" x="166.259766"/>
     <use xlink:href="#DejaVuSans-20" x="198.046875"/>
     <use xlink:href="#DejaVuSans-30" x="229.833984"/>
     <use xlink:href="#DejaVuSans-2e" x="293.457031"/>
     <use xlink:href="#DejaVuSans-35" x="325.244141"/>
     <use xlink:href="#DejaVuSans-31" x="388.867188"/>
     <use xlink:href="#DejaVuSans-29" x="452.490234"/>
    </g>
   </g>
   <g id="text_22">
    <!-- (11, 0.43) -->
    <g transform="translate(198.608572 168.918589) scale(0.07 -0.07)">
     <use xlink:href="#DejaVuSans-28"/>
     <use xlink:href="#DejaVuSans-31" x="39.013672"/>
     <use xlink:href="#DejaVuSans-31" x="102.636719"/>
     <use xlink:href="#DejaVuSans-2c" x="166.259766"/>
     <use xlink:href="#DejaVuSans-20" x="198.046875"/>
     <use xlink:href="#DejaVuSans-30" x="229.833984"/>
     <use xlink:href="#DejaVuSans-2e" x="293.457031"/>
     <use xlink:href="#DejaVuSans-34" x="325.244141"/>
     <use xlink:href="#DejaVuSans-33" x="388.867188"/>
     <use xlink:href="#DejaVuSans-29" x="452.490234"/>
    </g>
   </g>
   <g id="text_23">
    <!-- (12, 0.23) -->
    <g transform="translate(211.117593 206.818416) scale(0.07 -0.07)">
     <use xlink:href="#DejaVuSans-28"/>
     <use xlink:href="#DejaVuSans-31" x="39.013672"/>
     <use xlink:href="#DejaVuSans-32" x="102.636719"/>
     <use xlink:href="#DejaVuSans-2c" x="166.259766"/>
     <use xlink:href="#DejaVuSans-20" x="198.046875"/>
     <use xlink:href="#DejaVuSans-30" x="229.833984"/>
     <use xlink:href="#DejaVuSans-2e" x="293.457031"/>
     <use xlink:href="#DejaVuSans-32" x="325.244141"/>
     <use xlink:href="#DejaVuSans-33" x="388.867188"/>
     <use xlink:href="#DejaVuSans-29" x="452.490234"/>
    </g>
   </g>
   <g id="text_24">
    <!-- (13, 0.63) -->
    <g transform="translate(219.271535 132.813514) scale(0.07 -0.07)">
     <use xlink:href="#DejaVuSans-28"/>
     <use xlink:href="#DejaVuSans-31" x="39.013672"/>
     <use xlink:href="#DejaVuSans-33" x="102.636719"/>
     <use xlink:href="#DejaVuSans-2c" x="166.259766"/>
     <use xlink:href="#DejaVuSans-20" x="198.046875"/>
     <use xlink:href="#DejaVuSans-30" x="229.833984"/>
     <use xlink:href="#DejaVuSans-2e" x="293.457031"/>
     <use xlink:href="#DejaVuSans-36" x="325.244141"/>
     <use xlink:href="#DejaVuSans-33" x="388.867188"/>
     <use xlink:href="#DejaVuSans-29" x="452.490234"/>
    </g>
   </g>
   <g id="text_25">
    <!-- (14, 0.72) -->
    <g transform="translate(237.669465 106.357576) scale(0.07 -0.07)">
     <use xlink:href="#DejaVuSans-28"/>
     <use xlink:href="#DejaVuSans-31" x="39.013672"/>
     <use xlink:href="#DejaVuSans-34" x="102.636719"/>
     <use xlink:href="#DejaVuSans-2c" x="166.259766"/>
     <use xlink:href="#DejaVuSans-20" x="198.046875"/>
     <use xlink:href="#DejaVuSans-30" x="229.833984"/>
     <use xlink:href="#DejaVuSans-2e" x="293.457031"/>
     <use xlink:href="#DejaVuSans-37" x="325.244141"/>
     <use xlink:href="#DejaVuSans-32" x="388.867188"/>
     <use xlink:href="#DejaVuSans-29" x="452.490234"/>
    </g>
   </g>
   <g id="text_26">
    <!-- (15, 0.65) -->
    <g transform="translate(256.677177 120.084236) scale(0.07 -0.07)">
     <use xlink:href="#DejaVuSans-28"/>
     <use xlink:href="#DejaVuSans-31" x="39.013672"/>
     <use xlink:href="#DejaVuSans-35" x="102.636719"/>
     <use xlink:href="#DejaVuSans-2c" x="166.259766"/>
     <use xlink:href="#DejaVuSans-20" x="198.046875"/>
     <use xlink:href="#DejaVuSans-30" x="229.833984"/>
     <use xlink:href="#DejaVuSans-2e" x="293.457031"/>
     <use xlink:href="#DejaVuSans-36" x="325.244141"/>
     <use xlink:href="#DejaVuSans-35" x="388.867188"/>
     <use xlink:href="#DejaVuSans-29" x="452.490234"/>
    </g>
   </g>
   <g id="text_27">
    <!-- (16, 0.24) -->
    <g transform="translate(264.39945 211.299089) scale(0.07 -0.07)">
     <use xlink:href="#DejaVuSans-28"/>
     <use xlink:href="#DejaVuSans-31" x="39.013672"/>
     <use xlink:href="#DejaVuSans-36" x="102.636719"/>
     <use xlink:href="#DejaVuSans-2c" x="166.259766"/>
     <use xlink:href="#DejaVuSans-20" x="198.046875"/>
     <use xlink:href="#DejaVuSans-30" x="229.833984"/>
     <use xlink:href="#DejaVuSans-2e" x="293.457031"/>
     <use xlink:href="#DejaVuSans-32" x="325.244141"/>
     <use xlink:href="#DejaVuSans-34" x="388.867188"/>
     <use xlink:href="#DejaVuSans-29" x="452.490234"/>
    </g>
   </g>
   <g id="text_28">
    <!-- (17, 0.38) -->
    <g transform="translate(277.409555 177.037034) scale(0.07 -0.07)">
     <use xlink:href="#DejaVuSans-28"/>
     <use xlink:href="#DejaVuSans-31" x="39.013672"/>
     <use xlink:href="#DejaVuSans-37" x="102.636719"/>
     <use xlink:href="#DejaVuSans-2c" x="166.259766"/>
     <use xlink:href="#DejaVuSans-20" x="198.046875"/>
     <use xlink:href="#DejaVuSans-30" x="229.833984"/>
     <use xlink:href="#DejaVuSans-2e" x="293.457031"/>
     <use xlink:href="#DejaVuSans-33" x="325.244141"/>
     <use xlink:href="#DejaVuSans-38" x="388.867188"/>
     <use xlink:href="#DejaVuSans-29" x="452.490234"/>
    </g>
   </g>
   <g id="text_29">
    <!-- (18, 0.55) -->
    <g transform="translate(291.068279 141.904483) scale(0.07 -0.07)">
     <use xlink:href="#DejaVuSans-28"/>
     <use xlink:href="#DejaVuSans-31" x="39.013672"/>
     <use xlink:href="#DejaVuSans-38" x="102.636719"/>
     <use xlink:href="#DejaVuSans-2c" x="166.259766"/>
     <use xlink:href="#DejaVuSans-20" x="198.046875"/>
     <use xlink:href="#DejaVuSans-30" x="229.833984"/>
     <use xlink:href="#DejaVuSans-2e" x="293.457031"/>
     <use xlink:href="#DejaVuSans-35" x="325.244141"/>
     <use xlink:href="#DejaVuSans-35" x="388.867188"/>
     <use xlink:href="#DejaVuSans-29" x="452.490234"/>
    </g>
   </g>
   <g id="text_30">
    <!-- (19, 0.99) -->
    <g transform="translate(304.141996 52.424835) scale(0.07 -0.07)">
     <use xlink:href="#DejaVuSans-28"/>
     <use xlink:href="#DejaVuSans-31" x="39.013672"/>
     <use xlink:href="#DejaVuSans-39" x="102.636719"/>
     <use xlink:href="#DejaVuSans-2c" x="166.259766"/>
     <use xlink:href="#DejaVuSans-20" x="198.046875"/>
     <use xlink:href="#DejaVuSans-30" x="229.833984"/>
     <use xlink:href="#DejaVuSans-2e" x="293.457031"/>
     <use xlink:href="#DejaVuSans-39" x="325.244141"/>
     <use xlink:href="#DejaVuSans-39" x="388.867188"/>
     <use xlink:href="#DejaVuSans-29" x="452.490234"/>
    </g>
   </g>
   <g id="text_31">
    <!-- (20, 0.68) -->
    <g transform="translate(317.585555 116.302709) scale(0.07 -0.07)">
     <use xlink:href="#DejaVuSans-28"/>
     <use xlink:href="#DejaVuSans-32" x="39.013672"/>
     <use xlink:href="#DejaVuSans-30" x="102.636719"/>
     <use xlink:href="#DejaVuSans-2c" x="166.259766"/>
     <use xlink:href="#DejaVuSans-20" x="198.046875"/>
     <use xlink:href="#DejaVuSans-30" x="229.833984"/>
     <use xlink:href="#DejaVuSans-2e" x="293.457031"/>
     <use xlink:href="#DejaVuSans-36" x="325.244141"/>
     <use xlink:href="#DejaVuSans-38" x="388.867188"/>
     <use xlink:href="#DejaVuSans-29" x="452.490234"/>
    </g>
   </g>
   <g id="text_32">
    <!-- (21, 0.22) -->
    <g transform="translate(327.771287 208.094809) scale(0.07 -0.07)">
     <use xlink:href="#DejaVuSans-28"/>
     <use xlink:href="#DejaVuSans-32" x="39.013672"/>
     <use xlink:href="#DejaVuSans-31" x="102.636719"/>
     <use xlink:href="#DejaVuSans-2c" x="166.259766"/>
     <use xlink:href="#DejaVuSans-20" x="198.046875"/>
     <use xlink:href="#DejaVuSans-30" x="229.833984"/>
     <use xlink:href="#DejaVuSans-2e" x="293.457031"/>
     <use xlink:href="#DejaVuSans-32" x="325.244141"/>
     <use xlink:href="#DejaVuSans-32" x="388.867188"/>
     <use xlink:href="#DejaVuSans-29" x="452.490234"/>
    </g>
   </g>
   <g id="text_33">
    <!-- (22, 0.53) -->
    <g transform="translate(344.472674 145.747296) scale(0.07 -0.07)">
     <use xlink:href="#DejaVuSans-28"/>
     <use xlink:href="#DejaVuSans-32" x="39.013672"/>
     <use xlink:href="#DejaVuSans-32" x="102.636719"/>
     <use xlink:href="#DejaVuSans-2c" x="166.259766"/>
     <use xlink:href="#DejaVuSans-20" x="198.046875"/>
     <use xlink:href="#DejaVuSans-30" x="229.833984"/>
     <use xlink:href="#DejaVuSans-2e" x="293.457031"/>
     <use xlink:href="#DejaVuSans-35" x="325.244141"/>
     <use xlink:href="#DejaVuSans-33" x="388.867188"/>
     <use xlink:href="#DejaVuSans-29" x="452.490234"/>
    </g>
   </g>
   <g id="text_34">
    <!-- (23, 0.08) -->
    <g transform="translate(357.761555 237.89343) scale(0.07 -0.07)">
     <use xlink:href="#DejaVuSans-28"/>
     <use xlink:href="#DejaVuSans-32" x="39.013672"/>
     <use xlink:href="#DejaVuSans-33" x="102.636719"/>
     <use xlink:href="#DejaVuSans-2c" x="166.259766"/>
     <use xlink:href="#DejaVuSans-20" x="198.046875"/>
     <use xlink:href="#DejaVuSans-30" x="229.833984"/>
     <use xlink:href="#DejaVuSans-2e" x="293.457031"/>
     <use xlink:href="#DejaVuSans-30" x="325.244141"/>
     <use xlink:href="#DejaVuSans-38" x="388.867188"/>
     <use xlink:href="#DejaVuSans-29" x="452.490234"/>
    </g>
   </g>
   <g id="text_35">
    <!-- (24, 0.37) -->
    <g transform="translate(368.106652 177.427988) scale(0.07 -0.07)">
     <use xlink:href="#DejaVuSans-28"/>
     <use xlink:href="#DejaVuSans-32" x="39.013672"/>
     <use xlink:href="#DejaVuSans-34" x="102.636719"/>
     <use xlink:href="#DejaVuSans-2c" x="166.259766"/>
     <use xlink:href="#DejaVuSans-20" x="198.046875"/>
     <use xlink:href="#DejaVuSans-30" x="229.833984"/>
     <use xlink:href="#DejaVuSans-2e" x="293.457031"/>
     <use xlink:href="#DejaVuSans-33" x="325.244141"/>
     <use xlink:href="#DejaVuSans-37" x="388.867188"/>
     <use xlink:href="#DejaVuSans-29" x="452.490234"/>
    </g>
   </g>
   <g id="text_36">
    <!-- (25, 0.25) -->
    <g transform="translate(368.008444 202.27332) scale(0.07 -0.07)">
     <use xlink:href="#DejaVuSans-28"/>
     <use xlink:href="#DejaVuSans-32" x="39.013672"/>
     <use xlink:href="#DejaVuSans-35" x="102.636719"/>
     <use xlink:href="#DejaVuSans-2c" x="166.259766"/>
     <use xlink:href="#DejaVuSans-20" x="198.046875"/>
     <use xlink:href="#DejaVuSans-30" x="229.833984"/>
     <use xlink:href="#DejaVuSans-2e" x="293.457031"/>
     <use xlink:href="#DejaVuSans-32" x="325.244141"/>
     <use xlink:href="#DejaVuSans-35" x="388.867188"/>
     <use xlink:href="#DejaVuSans-29" x="452.490234"/>
    </g>
   </g>
   <g id="legend_1"/>
  </g>
 </g>
 <defs>
  <clipPath id="pd3df98c11b">
   <rect x="54" y="34.56" width="334.8" height="221.76"/>
  </clipPath>
 </defs>
</svg>
